G75*
G70*
%OFA0B0*%
%FSLAX24Y24*%
%IPPOS*%
%LPD*%
%AMOC8*
5,1,8,0,0,1.08239X$1,22.5*
%
%ADD10C,0.0000*%
%ADD11C,0.0160*%
%ADD12C,0.0040*%
%ADD13R,0.0200X0.0200*%
%ADD14C,0.0060*%
%ADD15C,0.0030*%
%ADD16C,0.0050*%
%ADD17R,0.0620X0.0240*%
%ADD18C,0.0080*%
D10*
X000191Y000141D02*
X006191Y000141D01*
X006191Y014141D01*
X000191Y014141D01*
X000191Y000141D01*
D11*
X005531Y002151D02*
X005731Y001951D01*
X005931Y002151D01*
X005531Y002151D01*
X005639Y002044D02*
X005824Y002044D01*
D12*
X003280Y002001D02*
X003040Y002001D01*
X003040Y002241D02*
X003160Y002361D01*
X003160Y002001D01*
X002912Y002361D02*
X002671Y002361D01*
X002792Y002361D02*
X002792Y002001D01*
X001161Y006341D02*
X001161Y006648D01*
X001008Y006494D02*
X001315Y006494D01*
X001328Y006694D02*
X001635Y006694D01*
X001818Y006764D02*
X002118Y006764D01*
X002178Y006704D01*
X002178Y006584D01*
X002118Y006524D01*
X001818Y006524D01*
X001938Y006892D02*
X001818Y007012D01*
X002178Y007012D01*
X002178Y006892D02*
X002178Y007132D01*
X001921Y008021D02*
X001921Y008328D01*
X001481Y006848D02*
X001481Y006541D01*
X001161Y009741D02*
X001161Y010048D01*
D13*
X001191Y009141D03*
X001191Y008141D03*
X001191Y007141D03*
X001191Y001141D03*
X002191Y001141D03*
X003191Y001141D03*
X004191Y001141D03*
X005191Y001141D03*
X005191Y013141D03*
X004191Y013141D03*
X003191Y013141D03*
X002191Y013141D03*
X001191Y013141D03*
D14*
X000691Y012641D02*
X005691Y012641D01*
X005691Y013641D01*
X005691Y013891D01*
X000691Y013891D01*
X000691Y013641D01*
X005691Y013641D01*
X001691Y009641D02*
X001691Y006641D01*
X000691Y006641D01*
X000441Y006641D01*
X000441Y009641D01*
X000691Y009641D01*
X001691Y009641D01*
X000691Y009641D02*
X000691Y006641D01*
X002881Y002791D02*
X002881Y002491D01*
X004021Y002491D01*
X004021Y002791D01*
X002881Y002791D01*
X000691Y001641D02*
X000691Y000641D01*
X000691Y000391D01*
X005691Y000391D01*
X005691Y000641D01*
X000691Y000641D01*
X000691Y001641D02*
X005691Y001641D01*
X005691Y000641D01*
X000691Y012641D02*
X000691Y013641D01*
D15*
X000626Y012671D02*
X000626Y012424D01*
X000626Y012548D02*
X000256Y012548D01*
X000380Y012424D01*
X000318Y012303D02*
X000256Y012241D01*
X000256Y012118D01*
X000318Y012056D01*
X000565Y012056D01*
X000626Y012118D01*
X000626Y012241D01*
X000565Y012303D01*
X001476Y011640D02*
X001476Y011516D01*
X001538Y011454D01*
X001538Y011333D02*
X001476Y011271D01*
X001476Y011086D01*
X001846Y011086D01*
X001846Y011271D01*
X001785Y011333D01*
X001538Y011333D01*
X001476Y011640D02*
X001538Y011701D01*
X001600Y011701D01*
X001846Y011454D01*
X001846Y011701D01*
X001493Y010046D02*
X001370Y010046D01*
X001308Y009985D01*
X001308Y009738D02*
X001370Y009676D01*
X001493Y009676D01*
X001555Y009738D01*
X001555Y009800D01*
X001493Y009861D01*
X001432Y009861D01*
X001493Y009861D02*
X001555Y009923D01*
X001555Y009985D01*
X001493Y010046D01*
X001187Y010046D02*
X001063Y010046D01*
X001125Y010046D02*
X001125Y009738D01*
X001063Y009676D01*
X001002Y009676D01*
X000940Y009738D01*
X000933Y005776D02*
X000810Y005776D01*
X000748Y005715D01*
X000627Y005715D02*
X000627Y005591D01*
X000565Y005530D01*
X000380Y005530D01*
X000380Y005406D02*
X000380Y005776D01*
X000565Y005776D01*
X000627Y005715D01*
X000503Y005530D02*
X000627Y005406D01*
X000748Y005406D02*
X000995Y005653D01*
X000995Y005715D01*
X000933Y005776D01*
X000995Y005406D02*
X000748Y005406D01*
X000642Y004776D02*
X000456Y004776D01*
X000456Y004406D01*
X000456Y004530D02*
X000642Y004530D01*
X000703Y004591D01*
X000703Y004715D01*
X000642Y004776D01*
X000580Y004530D02*
X000703Y004406D01*
X000825Y004406D02*
X001072Y004406D01*
X000948Y004406D02*
X000948Y004776D01*
X000825Y004653D01*
X000745Y004136D02*
X000745Y003951D01*
X000868Y004013D01*
X000930Y004013D01*
X000992Y003951D01*
X000992Y003828D01*
X000930Y003766D01*
X000806Y003766D01*
X000745Y003828D01*
X000623Y003766D02*
X000500Y003890D01*
X000562Y003890D02*
X000376Y003890D01*
X000376Y003766D02*
X000376Y004136D01*
X000562Y004136D01*
X000623Y004075D01*
X000623Y003951D01*
X000562Y003890D01*
X000745Y004136D02*
X000992Y004136D01*
X000893Y003096D02*
X000708Y002911D01*
X000955Y002911D01*
X000893Y002726D02*
X000893Y003096D01*
X000587Y003035D02*
X000587Y002911D01*
X000525Y002850D01*
X000340Y002850D01*
X000340Y002726D02*
X000340Y003096D01*
X000525Y003096D01*
X000587Y003035D01*
X000463Y002850D02*
X000587Y002726D01*
X002676Y003886D02*
X002676Y004071D01*
X002738Y004133D01*
X002861Y004133D01*
X002923Y004071D01*
X002923Y003886D01*
X002923Y004010D02*
X003046Y004133D01*
X002985Y004254D02*
X003046Y004316D01*
X003046Y004440D01*
X002985Y004501D01*
X002923Y004501D01*
X002861Y004440D01*
X002861Y004378D01*
X002861Y004440D02*
X002800Y004501D01*
X002738Y004501D01*
X002676Y004440D01*
X002676Y004316D01*
X002738Y004254D01*
X002676Y003886D02*
X003046Y003886D01*
X003810Y006276D02*
X004057Y006276D01*
X004178Y006276D02*
X004425Y006276D01*
X004302Y006276D02*
X004302Y006646D01*
X004178Y006523D01*
X003810Y006646D02*
X003810Y006276D01*
X004196Y004405D02*
X004258Y004405D01*
X004505Y004158D01*
X004566Y004158D01*
X004566Y004036D02*
X004443Y003913D01*
X004443Y003975D02*
X004443Y003789D01*
X004443Y003975D02*
X004381Y004036D01*
X004258Y004036D01*
X004196Y003975D01*
X004196Y003789D01*
X004566Y003789D01*
X004196Y004158D02*
X004196Y004405D01*
X004936Y002585D02*
X004936Y002338D01*
X004936Y002216D02*
X004813Y002093D01*
X004875Y002216D02*
X004936Y002155D01*
X004936Y002031D01*
X004875Y001969D01*
X004628Y001969D01*
X004566Y002031D01*
X004566Y002155D01*
X004628Y002216D01*
X004875Y002216D01*
X004936Y002461D02*
X004566Y002461D01*
X004690Y002338D01*
X005770Y004383D02*
X005770Y004568D01*
X005832Y004629D01*
X006079Y004629D01*
X006140Y004568D01*
X006140Y004383D01*
X005770Y004383D01*
X005893Y004751D02*
X005770Y004874D01*
X006140Y004874D01*
X006140Y004751D02*
X006140Y004998D01*
X006105Y010959D02*
X005858Y010959D01*
X005796Y011021D01*
X005796Y011145D01*
X005858Y011206D01*
X005858Y011328D02*
X005796Y011389D01*
X005796Y011513D01*
X005858Y011575D01*
X005920Y011575D01*
X006166Y011328D01*
X006166Y011575D01*
X006105Y011206D02*
X006166Y011145D01*
X006166Y011021D01*
X006105Y010959D01*
X006095Y012846D02*
X006156Y012908D01*
X006156Y012970D01*
X006095Y013031D01*
X005786Y013031D01*
X005786Y012970D02*
X005786Y013093D01*
X005848Y013214D02*
X005786Y013276D01*
X005786Y013400D01*
X005848Y013461D01*
X005910Y013461D01*
X006156Y013214D01*
X006156Y013461D01*
X004316Y012393D02*
X004316Y012269D01*
X004255Y012208D01*
X004255Y012086D02*
X004316Y012025D01*
X004316Y011901D01*
X004255Y011839D01*
X004008Y011839D01*
X003946Y011901D01*
X003946Y012025D01*
X004008Y012086D01*
X004008Y012208D02*
X003946Y012269D01*
X003946Y012393D01*
X004008Y012455D01*
X004070Y012455D01*
X004131Y012393D01*
X004193Y012455D01*
X004255Y012455D01*
X004316Y012393D01*
X004131Y012393D02*
X004131Y012331D01*
X003356Y012160D02*
X002986Y012160D01*
X003171Y011974D01*
X003171Y012221D01*
X003048Y011853D02*
X002986Y011791D01*
X002986Y011668D01*
X003048Y011606D01*
X003295Y011606D01*
X003356Y011668D01*
X003356Y011791D01*
X003295Y011853D01*
D16*
X003321Y008958D02*
X002141Y008958D01*
X002141Y007324D01*
X003321Y007324D01*
X003321Y008958D01*
X003841Y008191D02*
X003843Y008166D01*
X003848Y008142D01*
X003857Y008118D01*
X003869Y008096D01*
X003884Y008076D01*
X003901Y008059D01*
X003921Y008044D01*
X003943Y008032D01*
X003967Y008023D01*
X003991Y008018D01*
X004016Y008016D01*
X004041Y008018D01*
X004065Y008023D01*
X004089Y008032D01*
X004111Y008044D01*
X004131Y008059D01*
X004148Y008076D01*
X004163Y008096D01*
X004175Y008118D01*
X004184Y008142D01*
X004189Y008166D01*
X004191Y008191D01*
X004193Y008166D01*
X004198Y008142D01*
X004207Y008118D01*
X004219Y008096D01*
X004234Y008076D01*
X004251Y008059D01*
X004271Y008044D01*
X004293Y008032D01*
X004317Y008023D01*
X004341Y008018D01*
X004366Y008016D01*
X004391Y008018D01*
X004415Y008023D01*
X004439Y008032D01*
X004461Y008044D01*
X004481Y008059D01*
X004498Y008076D01*
X004513Y008096D01*
X004525Y008118D01*
X004534Y008142D01*
X004539Y008166D01*
X004541Y008191D01*
X003531Y008141D02*
X003533Y008208D01*
X003539Y008276D01*
X003549Y008342D01*
X003562Y008409D01*
X003580Y008474D01*
X003601Y008538D01*
X003626Y008600D01*
X003654Y008662D01*
X003686Y008721D01*
X003722Y008778D01*
X003761Y008834D01*
X003802Y008887D01*
X003847Y008937D01*
X003895Y008985D01*
X003945Y009030D01*
X003998Y009071D01*
X004054Y009110D01*
X004111Y009146D01*
X004170Y009178D01*
X004232Y009206D01*
X004294Y009231D01*
X004358Y009252D01*
X004423Y009270D01*
X004490Y009283D01*
X004556Y009293D01*
X004624Y009299D01*
X004691Y009301D01*
X004758Y009299D01*
X004826Y009293D01*
X004892Y009283D01*
X004959Y009270D01*
X005024Y009252D01*
X005088Y009231D01*
X005150Y009206D01*
X005212Y009178D01*
X005271Y009146D01*
X005328Y009110D01*
X005384Y009071D01*
X005437Y009030D01*
X005487Y008985D01*
X005535Y008937D01*
X005580Y008887D01*
X005621Y008834D01*
X005660Y008778D01*
X005696Y008721D01*
X005728Y008662D01*
X005756Y008600D01*
X005781Y008538D01*
X005802Y008474D01*
X005820Y008409D01*
X005833Y008342D01*
X005843Y008276D01*
X005849Y008208D01*
X005851Y008141D01*
X005849Y008074D01*
X005843Y008006D01*
X005833Y007940D01*
X005820Y007873D01*
X005802Y007808D01*
X005781Y007744D01*
X005756Y007682D01*
X005728Y007620D01*
X005696Y007561D01*
X005660Y007504D01*
X005621Y007448D01*
X005580Y007395D01*
X005535Y007345D01*
X005487Y007297D01*
X005437Y007252D01*
X005384Y007211D01*
X005328Y007172D01*
X005271Y007136D01*
X005212Y007104D01*
X005150Y007076D01*
X005088Y007051D01*
X005024Y007030D01*
X004959Y007012D01*
X004892Y006999D01*
X004826Y006989D01*
X004758Y006983D01*
X004691Y006981D01*
X004624Y006983D01*
X004556Y006989D01*
X004490Y006999D01*
X004423Y007012D01*
X004358Y007030D01*
X004294Y007051D01*
X004232Y007076D01*
X004170Y007104D01*
X004111Y007136D01*
X004054Y007172D01*
X003998Y007211D01*
X003945Y007252D01*
X003895Y007297D01*
X003847Y007345D01*
X003802Y007395D01*
X003761Y007448D01*
X003722Y007504D01*
X003686Y007561D01*
X003654Y007620D01*
X003626Y007682D01*
X003601Y007744D01*
X003580Y007808D01*
X003562Y007873D01*
X003549Y007940D01*
X003539Y008006D01*
X003533Y008074D01*
X003531Y008141D01*
X002321Y007567D02*
X002323Y007593D01*
X002329Y007619D01*
X002338Y007644D01*
X002351Y007667D01*
X002367Y007688D01*
X002386Y007706D01*
X002408Y007722D01*
X002431Y007734D01*
X002456Y007742D01*
X002482Y007747D01*
X002509Y007748D01*
X002535Y007745D01*
X002560Y007738D01*
X002585Y007728D01*
X002607Y007714D01*
X002628Y007697D01*
X002645Y007678D01*
X002660Y007656D01*
X002671Y007632D01*
X002679Y007606D01*
X002683Y007580D01*
X002683Y007554D01*
X002679Y007528D01*
X002671Y007502D01*
X002660Y007478D01*
X002645Y007456D01*
X002628Y007437D01*
X002607Y007420D01*
X002585Y007406D01*
X002560Y007396D01*
X002535Y007389D01*
X002509Y007386D01*
X002482Y007387D01*
X002456Y007392D01*
X002431Y007400D01*
X002408Y007412D01*
X002386Y007428D01*
X002367Y007446D01*
X002351Y007467D01*
X002338Y007490D01*
X002329Y007515D01*
X002323Y007541D01*
X002321Y007567D01*
X004541Y008191D02*
X004543Y008166D01*
X004548Y008142D01*
X004557Y008118D01*
X004569Y008096D01*
X004584Y008076D01*
X004601Y008059D01*
X004621Y008044D01*
X004643Y008032D01*
X004667Y008023D01*
X004691Y008018D01*
X004716Y008016D01*
X004741Y008018D01*
X004765Y008023D01*
X004789Y008032D01*
X004811Y008044D01*
X004831Y008059D01*
X004848Y008076D01*
X004863Y008096D01*
X004875Y008118D01*
X004884Y008142D01*
X004889Y008166D01*
X004891Y008191D01*
X004893Y008166D01*
X004898Y008142D01*
X004907Y008118D01*
X004919Y008096D01*
X004934Y008076D01*
X004951Y008059D01*
X004971Y008044D01*
X004993Y008032D01*
X005017Y008023D01*
X005041Y008018D01*
X005066Y008016D01*
X005091Y008018D01*
X005115Y008023D01*
X005139Y008032D01*
X005161Y008044D01*
X005181Y008059D01*
X005198Y008076D01*
X005213Y008096D01*
X005225Y008118D01*
X005234Y008142D01*
X005239Y008166D01*
X005241Y008191D01*
X005243Y008166D01*
X005248Y008142D01*
X005257Y008118D01*
X005269Y008096D01*
X005284Y008076D01*
X005301Y008059D01*
X005321Y008044D01*
X005343Y008032D01*
X005367Y008023D01*
X005391Y008018D01*
X005416Y008016D01*
X005441Y008018D01*
X005465Y008023D01*
X005489Y008032D01*
X005511Y008044D01*
X005531Y008059D01*
X005548Y008076D01*
X005563Y008096D01*
X005575Y008118D01*
X005584Y008142D01*
X005589Y008166D01*
X005591Y008191D01*
D17*
X002191Y011171D03*
D18*
X002191Y011244D02*
X002428Y011638D01*
X001955Y011638D01*
X002191Y011244D01*
M02*
