G75*
G70*
%OFA0B0*%
%FSLAX24Y24*%
%IPPOS*%
%LPD*%
%AMOC8*
5,1,8,0,0,1.08239X$1,22.5*
%
%ADD10C,0.0680*%
%ADD11R,0.0217X0.0630*%
%ADD12R,0.0592X0.0671*%
%ADD13R,0.0631X0.0631*%
%ADD14R,0.0671X0.0592*%
%ADD15R,0.0390X0.0430*%
%ADD16R,0.0474X0.0631*%
%ADD17R,0.2360X0.1080*%
%ADD18R,0.0789X0.0631*%
%ADD19R,0.0789X0.0710*%
%ADD20C,0.0390*%
D10*
X001191Y000841D02*
X001191Y001441D01*
X002191Y001441D02*
X002191Y000841D01*
X003191Y000841D02*
X003191Y001441D01*
X004191Y001441D02*
X004191Y000841D01*
X005191Y000841D02*
X005191Y001441D01*
X001491Y007141D02*
X000891Y007141D01*
X000891Y008141D02*
X001491Y008141D01*
X001491Y009141D02*
X000891Y009141D01*
X001191Y012841D02*
X001191Y013441D01*
X002191Y013441D02*
X002191Y012841D01*
X003191Y012841D02*
X003191Y013441D01*
X004191Y013441D02*
X004191Y012841D01*
X005191Y012841D02*
X005191Y013441D01*
D11*
X003086Y009303D03*
X002836Y009303D03*
X002586Y009303D03*
X002336Y009303D03*
X002337Y006980D03*
X002587Y006980D03*
X002837Y006980D03*
X003087Y006980D03*
D12*
X002066Y005891D03*
X002066Y004891D03*
X002066Y003891D03*
X002066Y002891D03*
X001317Y002891D03*
X001317Y003891D03*
X001317Y004891D03*
X001317Y005891D03*
D13*
X005441Y006139D03*
X005441Y004643D03*
D14*
X004441Y004767D03*
X004441Y005515D03*
X003441Y005015D03*
X003441Y004267D03*
X003191Y010517D03*
X003191Y011265D03*
X004191Y011515D03*
X004191Y010767D03*
D15*
X003831Y003041D03*
X003451Y002241D03*
X003071Y003041D03*
D16*
X004817Y003324D03*
X005191Y002458D03*
X005566Y003324D03*
D17*
X004691Y007291D03*
X004691Y008991D03*
D18*
X002191Y010722D03*
X002191Y012060D03*
D19*
X000941Y011692D03*
X000941Y010590D03*
X005441Y010590D03*
X005441Y011692D03*
D20*
X004791Y011515D03*
X004751Y009861D03*
X003831Y010061D03*
X003111Y009821D03*
X002671Y009941D03*
X002031Y009541D03*
X003151Y011781D03*
X004791Y006301D03*
X005751Y004101D03*
X004351Y002341D03*
X002991Y005701D03*
X000791Y005891D03*
X000831Y004901D03*
M02*
