G75*
G70*
%OFA0B0*%
%FSLAX24Y24*%
%IPPOS*%
%LPD*%
%AMOC8*
5,1,8,0,0,1.08239X$1,22.5*
%
%ADD10C,0.0000*%
%ADD11C,0.0040*%
D10*
X000191Y000141D02*
X006191Y000141D01*
X006191Y014141D01*
X000191Y014141D01*
X000191Y000141D01*
D11*
X001178Y006358D02*
X001178Y006665D01*
X001331Y006511D02*
X001025Y006511D01*
X002022Y008021D02*
X002022Y008328D01*
X002131Y008433D02*
X002131Y008586D01*
X002208Y008663D01*
X002208Y008816D02*
X002285Y008893D01*
X002285Y009123D01*
X002362Y009123D02*
X002131Y009123D01*
X002131Y008893D01*
X002208Y008816D01*
X002438Y009046D02*
X002362Y009123D01*
X002438Y009046D02*
X002438Y008893D01*
X002515Y008663D02*
X002592Y008586D01*
X002592Y008433D01*
X002515Y008356D01*
X002208Y008356D01*
X002131Y008433D01*
X002592Y008202D02*
X002131Y007896D01*
X002131Y007742D02*
X002208Y007665D01*
X002515Y007665D01*
X002438Y007589D02*
X002438Y007742D01*
X002438Y007435D02*
X002438Y007282D01*
X002515Y007359D02*
X002208Y007359D01*
X002131Y007435D01*
X002131Y007128D02*
X002131Y006898D01*
X002208Y006821D01*
X002285Y006898D01*
X002285Y007128D01*
X002362Y007128D02*
X002131Y007128D01*
X002208Y006668D02*
X002131Y006591D01*
X002131Y006361D01*
X002592Y006361D01*
X002592Y006591D01*
X002515Y006668D01*
X002438Y006668D01*
X002362Y006591D01*
X002362Y006361D01*
X002362Y006591D02*
X002285Y006668D01*
X002208Y006668D01*
X002438Y006898D02*
X002438Y007052D01*
X002362Y007128D01*
X002438Y009277D02*
X001978Y009277D01*
X002131Y009277D02*
X002131Y009507D01*
X002208Y009584D01*
X002362Y009584D01*
X002438Y009507D01*
X002438Y009277D01*
X001182Y009701D02*
X001182Y010008D01*
M02*
