G75*
G70*
%OFA0B0*%
%FSLAX24Y24*%
%IPPOS*%
%LPD*%
%AMOC8*
5,1,8,0,0,1.08239X$1,22.5*
%
%ADD10C,0.0600*%
%ADD11R,0.0137X0.0550*%
%ADD12R,0.0512X0.0591*%
%ADD13R,0.0551X0.0551*%
%ADD14R,0.0591X0.0512*%
%ADD15R,0.0310X0.0350*%
%ADD16R,0.0394X0.0551*%
%ADD17R,0.2280X0.1000*%
%ADD18R,0.0709X0.0551*%
%ADD19R,0.0709X0.0630*%
%ADD20C,0.0080*%
%ADD21C,0.0160*%
%ADD22C,0.0310*%
%ADD23C,0.0120*%
%ADD24C,0.0240*%
%ADD25C,0.0400*%
%ADD26C,0.0320*%
D10*
X001191Y000841D02*
X001191Y001441D01*
X002191Y001441D02*
X002191Y000841D01*
X003191Y000841D02*
X003191Y001441D01*
X004191Y001441D02*
X004191Y000841D01*
X005191Y000841D02*
X005191Y001441D01*
X001491Y007141D02*
X000891Y007141D01*
X000891Y008141D02*
X001491Y008141D01*
X001491Y009141D02*
X000891Y009141D01*
X001191Y012841D02*
X001191Y013441D01*
X002191Y013441D02*
X002191Y012841D01*
X003191Y012841D02*
X003191Y013441D01*
X004191Y013441D02*
X004191Y012841D01*
X005191Y012841D02*
X005191Y013441D01*
D11*
X003086Y009303D03*
X002836Y009303D03*
X002586Y009303D03*
X002336Y009303D03*
X002337Y006980D03*
X002587Y006980D03*
X002837Y006980D03*
X003087Y006980D03*
D12*
X002066Y005891D03*
X002066Y004891D03*
X002066Y003891D03*
X002066Y002891D03*
X001317Y002891D03*
X001317Y003891D03*
X001317Y004891D03*
X001317Y005891D03*
D13*
X005441Y006139D03*
X005441Y004643D03*
D14*
X004441Y004767D03*
X004441Y005515D03*
X003441Y005015D03*
X003441Y004267D03*
X003191Y010517D03*
X003191Y011265D03*
X004191Y011515D03*
X004191Y010767D03*
D15*
X003831Y003041D03*
X003451Y002241D03*
X003071Y003041D03*
D16*
X004817Y003324D03*
X005191Y002458D03*
X005566Y003324D03*
D17*
X004691Y007291D03*
X004691Y008991D03*
D18*
X002191Y010722D03*
X002191Y012060D03*
D19*
X000941Y011692D03*
X000941Y010590D03*
X005441Y010590D03*
X005441Y011692D03*
D20*
X000631Y003842D02*
X000631Y000581D01*
X000758Y000581D01*
X000691Y000742D01*
X000691Y001541D01*
X000768Y001724D01*
X000908Y001865D01*
X001092Y001941D01*
X001092Y001941D01*
X001416Y002265D01*
X001504Y002301D01*
X001599Y002301D01*
X002999Y002301D01*
X003087Y002265D01*
X003096Y002255D01*
X003096Y002499D01*
X003214Y002616D01*
X003689Y002616D01*
X003806Y002499D01*
X003806Y001983D01*
X003689Y001866D01*
X003644Y001866D01*
X003635Y001845D01*
X003595Y001805D01*
X003565Y001775D01*
X003615Y001724D01*
X003691Y001541D01*
X003691Y000742D01*
X003625Y000581D01*
X003758Y000581D01*
X003691Y000742D01*
X003691Y001541D01*
X003768Y001724D01*
X003908Y001865D01*
X004092Y001941D01*
X004291Y001941D01*
X004475Y001865D01*
X004615Y001724D01*
X004691Y001541D01*
X004691Y000742D01*
X004625Y000581D01*
X004758Y000581D01*
X004691Y000742D01*
X004691Y001541D01*
X004768Y001724D01*
X004908Y001865D01*
X004951Y001883D01*
X004951Y001982D01*
X004912Y001982D01*
X004795Y002100D01*
X004795Y002816D01*
X004887Y002909D01*
X004857Y002909D01*
X004857Y003284D01*
X004778Y003284D01*
X004778Y002909D01*
X004563Y002909D01*
X004481Y002991D01*
X004481Y003284D01*
X004777Y003284D01*
X004777Y003364D01*
X004481Y003364D01*
X004481Y003658D01*
X004563Y003740D01*
X004773Y003740D01*
X004708Y003805D01*
X004708Y003805D01*
X004268Y004245D01*
X004241Y004311D01*
X004191Y004311D01*
X004191Y003709D01*
X004191Y003613D01*
X004155Y003525D01*
X004095Y003465D01*
X004071Y003442D01*
X004071Y003414D01*
X004186Y003299D01*
X004186Y002783D01*
X004069Y002666D01*
X003594Y002666D01*
X003476Y002783D01*
X003476Y003299D01*
X003591Y003414D01*
X003591Y003442D01*
X003568Y003465D01*
X003268Y003765D01*
X003249Y003811D01*
X003063Y003811D01*
X002946Y003928D01*
X002946Y004606D01*
X002981Y004641D01*
X002946Y004676D01*
X002946Y005346D01*
X002921Y005346D01*
X002871Y005367D01*
X002871Y004669D01*
X002871Y004573D01*
X002835Y004485D01*
X002711Y004362D01*
X002711Y003909D01*
X002711Y003813D01*
X002711Y003109D01*
X002711Y003013D01*
X002675Y002925D01*
X002521Y002772D01*
X002521Y002513D01*
X002404Y002396D01*
X001727Y002396D01*
X001649Y002474D01*
X001631Y002456D01*
X001357Y002456D01*
X001357Y002851D01*
X001278Y002851D01*
X001278Y002456D01*
X001004Y002456D01*
X000922Y002538D01*
X000922Y002851D01*
X001277Y002851D01*
X001277Y002931D01*
X000922Y002931D01*
X000922Y003244D01*
X001004Y003326D01*
X001278Y003326D01*
X001278Y002931D01*
X001357Y002931D01*
X001357Y003326D01*
X001631Y003326D01*
X001649Y003309D01*
X001727Y003386D01*
X002231Y003386D01*
X002231Y003396D01*
X001727Y003396D01*
X001691Y003431D01*
X001656Y003396D01*
X000979Y003396D01*
X000862Y003513D01*
X000862Y003662D01*
X000776Y003698D01*
X000631Y003842D01*
X000631Y003833D02*
X000641Y003833D01*
X000631Y003754D02*
X000719Y003754D01*
X000631Y003676D02*
X000829Y003676D01*
X000862Y003597D02*
X000631Y003597D01*
X000631Y003518D02*
X000862Y003518D01*
X000935Y003440D02*
X000631Y003440D01*
X000631Y003361D02*
X001702Y003361D01*
X002066Y002891D02*
X002301Y002891D01*
X002471Y003061D01*
X002471Y003861D01*
X002096Y003861D01*
X002066Y003891D01*
X002231Y004386D02*
X001727Y004386D01*
X001691Y004351D01*
X001656Y004386D01*
X000979Y004386D01*
X000872Y004280D01*
X000751Y004401D01*
X000751Y005522D01*
X000766Y005536D01*
X000862Y005536D01*
X000862Y005513D01*
X000979Y005396D01*
X001656Y005396D01*
X001691Y005431D01*
X001727Y005396D01*
X002231Y005396D01*
X002231Y005386D01*
X001727Y005386D01*
X001649Y005309D01*
X001631Y005326D01*
X001357Y005326D01*
X001357Y004931D01*
X001278Y004931D01*
X001278Y005326D01*
X001004Y005326D01*
X000922Y005244D01*
X000922Y004931D01*
X001277Y004931D01*
X001277Y004851D01*
X000922Y004851D01*
X000922Y004538D01*
X001004Y004456D01*
X001278Y004456D01*
X001278Y004851D01*
X001357Y004851D01*
X001357Y004456D01*
X001631Y004456D01*
X001649Y004474D01*
X001727Y004396D01*
X002231Y004396D01*
X002231Y004386D01*
X002471Y004461D02*
X002471Y003861D01*
X002711Y003833D02*
X003042Y003833D01*
X002963Y003911D02*
X002711Y003911D01*
X002711Y003990D02*
X002946Y003990D01*
X002946Y004068D02*
X002711Y004068D01*
X002711Y004147D02*
X002946Y004147D01*
X002946Y004225D02*
X002711Y004225D01*
X002711Y004304D02*
X002946Y004304D01*
X002946Y004382D02*
X002732Y004382D01*
X002811Y004461D02*
X002946Y004461D01*
X002946Y004540D02*
X002857Y004540D01*
X002871Y004618D02*
X002959Y004618D01*
X002946Y004697D02*
X002871Y004697D01*
X002871Y004775D02*
X002946Y004775D01*
X002946Y004854D02*
X002871Y004854D01*
X002871Y004932D02*
X002946Y004932D01*
X002946Y005011D02*
X002871Y005011D01*
X002871Y005089D02*
X002946Y005089D01*
X002946Y005168D02*
X002871Y005168D01*
X002871Y005246D02*
X002946Y005246D01*
X002946Y005325D02*
X002871Y005325D01*
X002991Y005701D02*
X003191Y005701D01*
X003431Y005461D01*
X003431Y005025D01*
X003441Y005015D01*
X003441Y004267D02*
X003471Y004237D01*
X003471Y003901D01*
X003771Y003601D01*
X003891Y003601D01*
X003951Y003661D01*
X003951Y005501D01*
X002831Y006621D01*
X002831Y006974D01*
X002837Y006980D01*
X002591Y006581D02*
X002631Y006541D01*
X002631Y004621D01*
X002471Y004461D01*
X002341Y004891D02*
X002066Y004891D01*
X002341Y004891D02*
X002471Y005021D01*
X002471Y005861D01*
X002096Y005861D01*
X002066Y005891D01*
X001719Y005404D02*
X001664Y005404D01*
X001665Y005325D02*
X001633Y005325D01*
X001357Y005325D02*
X001278Y005325D01*
X001278Y005246D02*
X001357Y005246D01*
X001357Y005168D02*
X001278Y005168D01*
X001278Y005089D02*
X001357Y005089D01*
X001357Y005011D02*
X001278Y005011D01*
X001278Y004932D02*
X001357Y004932D01*
X001277Y004854D02*
X000751Y004854D01*
X000751Y004932D02*
X000922Y004932D01*
X000922Y005011D02*
X000751Y005011D01*
X000751Y005089D02*
X000922Y005089D01*
X000922Y005168D02*
X000751Y005168D01*
X000751Y005246D02*
X000924Y005246D01*
X001002Y005325D02*
X000751Y005325D01*
X000751Y005404D02*
X000971Y005404D01*
X000892Y005482D02*
X000751Y005482D01*
X000821Y005801D02*
X000771Y005881D01*
X000861Y005891D01*
X000791Y005891D01*
X000791Y006301D01*
X000951Y006461D01*
X001671Y006461D01*
X002031Y006821D01*
X002031Y008661D01*
X002311Y008941D01*
X002311Y009278D01*
X002336Y009303D01*
X002483Y009778D02*
X002459Y009801D01*
X002459Y009801D01*
X002452Y009808D01*
X002452Y009808D01*
X002379Y009881D01*
X002283Y009921D01*
X002203Y009921D01*
X002100Y009921D01*
X002039Y009896D01*
X001961Y009896D01*
X001830Y009842D01*
X001731Y009742D01*
X001676Y009612D01*
X001676Y009541D01*
X001579Y009581D01*
X001231Y009581D01*
X001231Y009181D01*
X001151Y009181D01*
X001151Y009581D01*
X000804Y009581D01*
X000642Y009514D01*
X000631Y009503D01*
X000631Y010075D01*
X001379Y010075D01*
X001496Y010192D01*
X001496Y010301D01*
X001552Y010325D01*
X001641Y010360D01*
X001754Y010246D01*
X002629Y010246D01*
X002651Y010269D01*
X002674Y010246D01*
X002696Y010237D01*
X002696Y010178D01*
X002813Y010061D01*
X002850Y010061D01*
X002811Y010022D01*
X002756Y009892D01*
X002756Y009759D01*
X002738Y009778D01*
X002483Y009778D01*
X002458Y009802D02*
X002756Y009802D01*
X002756Y009880D02*
X002380Y009880D01*
X002696Y010195D02*
X001496Y010195D01*
X001496Y010273D02*
X001727Y010273D01*
X001649Y010352D02*
X001620Y010352D01*
X001420Y010116D02*
X002758Y010116D01*
X002826Y010038D02*
X000631Y010038D01*
X000631Y009959D02*
X002784Y009959D01*
X002756Y011041D02*
X002754Y011043D01*
X002746Y011046D01*
X002746Y011080D01*
X002629Y011197D01*
X001754Y011197D01*
X001637Y011080D01*
X001637Y011032D01*
X001602Y011033D01*
X001597Y011031D01*
X001591Y011031D01*
X001538Y011007D01*
X001494Y010990D01*
X001379Y011105D01*
X000631Y011105D01*
X000631Y011237D01*
X000902Y011237D01*
X000902Y011652D01*
X000981Y011652D01*
X000981Y011237D01*
X001354Y011237D01*
X001436Y011319D01*
X001436Y011652D01*
X000982Y011652D01*
X000982Y011732D01*
X001436Y011732D01*
X001436Y012065D01*
X001354Y012147D01*
X000981Y012147D01*
X000981Y011732D01*
X000902Y011732D01*
X000902Y012147D01*
X000631Y012147D01*
X000631Y013701D01*
X000829Y013701D01*
X000818Y013690D01*
X000751Y013529D01*
X000751Y013181D01*
X001151Y013181D01*
X001151Y013101D01*
X000751Y013101D01*
X000751Y012754D01*
X000818Y012592D01*
X000942Y012468D01*
X001104Y012401D01*
X001151Y012401D01*
X001151Y013101D01*
X001231Y013101D01*
X001231Y012401D01*
X001279Y012401D01*
X001441Y012468D01*
X001564Y012592D01*
X001631Y012754D01*
X001631Y013101D01*
X001232Y013101D01*
X001232Y013181D01*
X001631Y013181D01*
X001631Y013529D01*
X001564Y013690D01*
X001554Y013701D01*
X001829Y013701D01*
X001818Y013690D01*
X001751Y013529D01*
X001751Y013181D01*
X002151Y013181D01*
X002151Y013101D01*
X001751Y013101D01*
X001751Y012754D01*
X001818Y012592D01*
X001934Y012476D01*
X001779Y012476D01*
X001697Y012394D01*
X001697Y012100D01*
X002151Y012100D01*
X002151Y012020D01*
X001697Y012020D01*
X001697Y011727D01*
X001779Y011645D01*
X002152Y011645D01*
X002152Y012020D01*
X002231Y012020D01*
X002231Y011645D01*
X002604Y011645D01*
X002686Y011727D01*
X002686Y012020D01*
X002232Y012020D01*
X002232Y012100D01*
X002686Y012100D01*
X002686Y012394D01*
X002604Y012476D01*
X002449Y012476D01*
X002564Y012592D01*
X002631Y012754D01*
X002631Y013101D01*
X002232Y013101D01*
X002232Y013181D01*
X002631Y013181D01*
X002631Y013529D01*
X002564Y013690D01*
X002554Y013701D01*
X002758Y013701D01*
X002691Y013541D01*
X002691Y012742D01*
X002768Y012558D01*
X002908Y012417D01*
X003092Y012341D01*
X003291Y012341D01*
X003475Y012417D01*
X003615Y012558D01*
X003691Y012742D01*
X003691Y013541D01*
X003625Y013701D01*
X003758Y013701D01*
X003691Y013541D01*
X003691Y012742D01*
X003768Y012558D01*
X003908Y012417D01*
X004092Y012341D01*
X004291Y012341D01*
X004475Y012417D01*
X004615Y012558D01*
X004691Y012742D01*
X004691Y013541D01*
X004625Y013701D01*
X004758Y013701D01*
X004691Y013541D01*
X004691Y012742D01*
X004768Y012558D01*
X004908Y012417D01*
X005092Y012341D01*
X005151Y012341D01*
X005151Y012207D01*
X005004Y012207D01*
X004887Y012090D01*
X004887Y011860D01*
X004862Y011870D01*
X004721Y011870D01*
X004685Y011855D01*
X004570Y011971D01*
X003813Y011971D01*
X003696Y011854D01*
X003696Y011176D01*
X003774Y011099D01*
X003756Y011081D01*
X003756Y010807D01*
X004151Y010807D01*
X004151Y010727D01*
X003756Y010727D01*
X003756Y010453D01*
X003838Y010371D01*
X004152Y010371D01*
X004152Y010727D01*
X004231Y010727D01*
X004231Y010371D01*
X004545Y010371D01*
X004627Y010453D01*
X004627Y010727D01*
X004232Y010727D01*
X004232Y010807D01*
X004627Y010807D01*
X004627Y011081D01*
X004609Y011099D01*
X004685Y011175D01*
X004721Y011160D01*
X004862Y011160D01*
X004975Y011207D01*
X005004Y011177D01*
X005751Y011177D01*
X005751Y011045D01*
X005481Y011045D01*
X005481Y010630D01*
X005402Y010630D01*
X005402Y011045D01*
X005029Y011045D01*
X004947Y010963D01*
X004947Y010630D01*
X005401Y010630D01*
X005401Y010550D01*
X004947Y010550D01*
X004947Y010217D01*
X005029Y010135D01*
X005402Y010135D01*
X005402Y010550D01*
X005481Y010550D01*
X005481Y010135D01*
X005751Y010135D01*
X005751Y009691D01*
X005071Y009691D01*
X005071Y009706D01*
X005106Y009790D01*
X005106Y009932D01*
X005052Y010062D01*
X004953Y010162D01*
X004822Y010216D01*
X004681Y010216D01*
X004550Y010162D01*
X004451Y010062D01*
X004396Y009932D01*
X004396Y009790D01*
X004431Y009706D01*
X004431Y009701D01*
X003512Y009701D01*
X003488Y009691D01*
X003469Y009691D01*
X003455Y009678D01*
X003452Y009676D01*
X003467Y009706D01*
X003468Y009716D01*
X003471Y009725D01*
X003471Y009771D01*
X003475Y009817D01*
X003472Y009823D01*
X003511Y009917D01*
X003511Y010061D01*
X003570Y010061D01*
X003687Y010178D01*
X003687Y010856D01*
X003609Y010934D01*
X003627Y010951D01*
X003627Y011225D01*
X003232Y011225D01*
X003232Y011305D01*
X003627Y011305D01*
X003627Y011579D01*
X003545Y011661D01*
X003231Y011661D01*
X003231Y011305D01*
X003152Y011305D01*
X003152Y011661D01*
X002838Y011661D01*
X002756Y011579D01*
X002756Y011305D01*
X003151Y011305D01*
X003151Y011225D01*
X002756Y011225D01*
X002756Y011041D01*
X002756Y011059D02*
X002746Y011059D01*
X002756Y011137D02*
X002689Y011137D01*
X002756Y011216D02*
X000631Y011216D01*
X000631Y011137D02*
X001694Y011137D01*
X001637Y011059D02*
X001425Y011059D01*
X001411Y011294D02*
X003151Y011294D01*
X003152Y011373D02*
X003231Y011373D01*
X003231Y011451D02*
X003152Y011451D01*
X003152Y011530D02*
X003231Y011530D01*
X003231Y011608D02*
X003152Y011608D01*
X003232Y011294D02*
X003696Y011294D01*
X003696Y011216D02*
X003627Y011216D01*
X003627Y011137D02*
X003735Y011137D01*
X003756Y011059D02*
X003627Y011059D01*
X003627Y010980D02*
X003756Y010980D01*
X003756Y010902D02*
X003641Y010902D01*
X003687Y010823D02*
X003756Y010823D01*
X003687Y010744D02*
X004151Y010744D01*
X004152Y010666D02*
X004231Y010666D01*
X004232Y010744D02*
X004947Y010744D01*
X004947Y010666D02*
X004627Y010666D01*
X004627Y010587D02*
X005401Y010587D01*
X005402Y010509D02*
X005481Y010509D01*
X005481Y010430D02*
X005402Y010430D01*
X005402Y010352D02*
X005481Y010352D01*
X005481Y010273D02*
X005402Y010273D01*
X005402Y010195D02*
X005481Y010195D01*
X005481Y010666D02*
X005402Y010666D01*
X005402Y010744D02*
X005481Y010744D01*
X005481Y010823D02*
X005402Y010823D01*
X005402Y010902D02*
X005481Y010902D01*
X005481Y010980D02*
X005402Y010980D01*
X005751Y011059D02*
X004627Y011059D01*
X004627Y010980D02*
X004964Y010980D01*
X004947Y010902D02*
X004627Y010902D01*
X004627Y010823D02*
X004947Y010823D01*
X004947Y010509D02*
X004627Y010509D01*
X004604Y010430D02*
X004947Y010430D01*
X004947Y010352D02*
X003687Y010352D01*
X003687Y010430D02*
X003779Y010430D01*
X003756Y010509D02*
X003687Y010509D01*
X003687Y010587D02*
X003756Y010587D01*
X003756Y010666D02*
X003687Y010666D01*
X003687Y010273D02*
X004947Y010273D01*
X004969Y010195D02*
X004874Y010195D01*
X004998Y010116D02*
X005751Y010116D01*
X005751Y010038D02*
X005063Y010038D01*
X005095Y009959D02*
X005751Y009959D01*
X005751Y009880D02*
X005106Y009880D01*
X005106Y009802D02*
X005751Y009802D01*
X005751Y009723D02*
X005079Y009723D01*
X004629Y010195D02*
X003687Y010195D01*
X003625Y010116D02*
X004504Y010116D01*
X004440Y010038D02*
X003511Y010038D01*
X003511Y009959D02*
X004408Y009959D01*
X004396Y009880D02*
X003496Y009880D01*
X003474Y009802D02*
X004396Y009802D01*
X004424Y009723D02*
X003471Y009723D01*
X004152Y010430D02*
X004231Y010430D01*
X004231Y010509D02*
X004152Y010509D01*
X004152Y010587D02*
X004231Y010587D01*
X004648Y011137D02*
X005751Y011137D01*
X005151Y012237D02*
X002686Y012237D01*
X002686Y012315D02*
X005151Y012315D01*
X004965Y012394D02*
X004418Y012394D01*
X004530Y012472D02*
X004853Y012472D01*
X004775Y012551D02*
X004608Y012551D01*
X004645Y012629D02*
X004738Y012629D01*
X004705Y012708D02*
X004678Y012708D01*
X004691Y012787D02*
X004691Y012787D01*
X004691Y012865D02*
X004691Y012865D01*
X004691Y012944D02*
X004691Y012944D01*
X004691Y013022D02*
X004691Y013022D01*
X004691Y013101D02*
X004691Y013101D01*
X004691Y013179D02*
X004691Y013179D01*
X004691Y013258D02*
X004691Y013258D01*
X004691Y013336D02*
X004691Y013336D01*
X004691Y013415D02*
X004691Y013415D01*
X004691Y013493D02*
X004691Y013493D01*
X004678Y013572D02*
X004705Y013572D01*
X004737Y013651D02*
X004646Y013651D01*
X003965Y012394D02*
X003418Y012394D01*
X003530Y012472D02*
X003853Y012472D01*
X003775Y012551D02*
X003608Y012551D01*
X003645Y012629D02*
X003738Y012629D01*
X003705Y012708D02*
X003678Y012708D01*
X003691Y012787D02*
X003691Y012787D01*
X003691Y012865D02*
X003691Y012865D01*
X003691Y012944D02*
X003691Y012944D01*
X003691Y013022D02*
X003691Y013022D01*
X003691Y013101D02*
X003691Y013101D01*
X003691Y013179D02*
X003691Y013179D01*
X003691Y013258D02*
X003691Y013258D01*
X003691Y013336D02*
X003691Y013336D01*
X003691Y013415D02*
X003691Y013415D01*
X003691Y013493D02*
X003691Y013493D01*
X003678Y013572D02*
X003705Y013572D01*
X003737Y013651D02*
X003646Y013651D01*
X002965Y012394D02*
X002686Y012394D01*
X002607Y012472D02*
X002853Y012472D01*
X002775Y012551D02*
X002524Y012551D01*
X002580Y012629D02*
X002738Y012629D01*
X002705Y012708D02*
X002613Y012708D01*
X002631Y012787D02*
X002691Y012787D01*
X002691Y012865D02*
X002631Y012865D01*
X002631Y012944D02*
X002691Y012944D01*
X002691Y013022D02*
X002631Y013022D01*
X002631Y013101D02*
X002691Y013101D01*
X002691Y013179D02*
X002232Y013179D01*
X002231Y013101D02*
X002151Y013101D01*
X002151Y012476D01*
X002152Y012476D01*
X002152Y012101D01*
X002231Y012101D01*
X002231Y012476D01*
X002231Y012476D01*
X002231Y013101D01*
X002151Y013101D01*
X002151Y013179D02*
X001232Y013179D01*
X001231Y013101D02*
X001151Y013101D01*
X001151Y013179D02*
X000631Y013179D01*
X000631Y013101D02*
X000751Y013101D01*
X000751Y013022D02*
X000631Y013022D01*
X000631Y012944D02*
X000751Y012944D01*
X000751Y012865D02*
X000631Y012865D01*
X000631Y012787D02*
X000751Y012787D01*
X000770Y012708D02*
X000631Y012708D01*
X000631Y012629D02*
X000803Y012629D01*
X000859Y012551D02*
X000631Y012551D01*
X000631Y012472D02*
X000938Y012472D01*
X001151Y012472D02*
X001231Y012472D01*
X001231Y012551D02*
X001151Y012551D01*
X001151Y012629D02*
X001231Y012629D01*
X001231Y012708D02*
X001151Y012708D01*
X001151Y012787D02*
X001231Y012787D01*
X001231Y012865D02*
X001151Y012865D01*
X001151Y012944D02*
X001231Y012944D01*
X001231Y013022D02*
X001151Y013022D01*
X001445Y012472D02*
X001776Y012472D01*
X001697Y012394D02*
X000631Y012394D01*
X000631Y012315D02*
X001697Y012315D01*
X001697Y012237D02*
X000631Y012237D01*
X000631Y012158D02*
X001697Y012158D01*
X001697Y012001D02*
X001436Y012001D01*
X001436Y011923D02*
X001697Y011923D01*
X001697Y011844D02*
X001436Y011844D01*
X001436Y011766D02*
X001697Y011766D01*
X001737Y011687D02*
X000982Y011687D01*
X000981Y011766D02*
X000902Y011766D01*
X000902Y011844D02*
X000981Y011844D01*
X000981Y011923D02*
X000902Y011923D01*
X000902Y012001D02*
X000981Y012001D01*
X000981Y012080D02*
X000902Y012080D01*
X000902Y011608D02*
X000981Y011608D01*
X000981Y011530D02*
X000902Y011530D01*
X000902Y011451D02*
X000981Y011451D01*
X000981Y011373D02*
X000902Y011373D01*
X000902Y011294D02*
X000981Y011294D01*
X001421Y012080D02*
X002151Y012080D01*
X002152Y012158D02*
X002231Y012158D01*
X002232Y012080D02*
X004887Y012080D01*
X004887Y012001D02*
X002686Y012001D01*
X002686Y011923D02*
X003765Y011923D01*
X003696Y011844D02*
X002686Y011844D01*
X002686Y011766D02*
X003696Y011766D01*
X003696Y011687D02*
X002646Y011687D01*
X002786Y011608D02*
X001436Y011608D01*
X001436Y011530D02*
X002756Y011530D01*
X002756Y011451D02*
X001436Y011451D01*
X001436Y011373D02*
X002756Y011373D01*
X002686Y012158D02*
X004955Y012158D01*
X004887Y011923D02*
X004618Y011923D01*
X003696Y011608D02*
X003597Y011608D01*
X003627Y011530D02*
X003696Y011530D01*
X003696Y011451D02*
X003627Y011451D01*
X003627Y011373D02*
X003696Y011373D01*
X002691Y013258D02*
X002631Y013258D01*
X002631Y013336D02*
X002691Y013336D01*
X002691Y013415D02*
X002631Y013415D01*
X002631Y013493D02*
X002691Y013493D01*
X002705Y013572D02*
X002614Y013572D01*
X002581Y013651D02*
X002737Y013651D01*
X002231Y013022D02*
X002151Y013022D01*
X002151Y012944D02*
X002231Y012944D01*
X002231Y012865D02*
X002151Y012865D01*
X002151Y012787D02*
X002231Y012787D01*
X002231Y012708D02*
X002151Y012708D01*
X002151Y012629D02*
X002231Y012629D01*
X002231Y012551D02*
X002151Y012551D01*
X002152Y012472D02*
X002231Y012472D01*
X002231Y012394D02*
X002152Y012394D01*
X002152Y012315D02*
X002231Y012315D01*
X002231Y012237D02*
X002152Y012237D01*
X002152Y012001D02*
X002231Y012001D01*
X002231Y011923D02*
X002152Y011923D01*
X002152Y011844D02*
X002231Y011844D01*
X002231Y011766D02*
X002152Y011766D01*
X002152Y011687D02*
X002231Y011687D01*
X001859Y012551D02*
X001524Y012551D01*
X001580Y012629D02*
X001803Y012629D01*
X001770Y012708D02*
X001613Y012708D01*
X001631Y012787D02*
X001751Y012787D01*
X001751Y012865D02*
X001631Y012865D01*
X001631Y012944D02*
X001751Y012944D01*
X001751Y013022D02*
X001631Y013022D01*
X001631Y013101D02*
X001751Y013101D01*
X001751Y013258D02*
X001631Y013258D01*
X001631Y013336D02*
X001751Y013336D01*
X001751Y013415D02*
X001631Y013415D01*
X001631Y013493D02*
X001751Y013493D01*
X001769Y013572D02*
X001614Y013572D01*
X001581Y013651D02*
X001802Y013651D01*
X000802Y013651D02*
X000631Y013651D01*
X000631Y013572D02*
X000769Y013572D01*
X000751Y013493D02*
X000631Y013493D01*
X000631Y013415D02*
X000751Y013415D01*
X000751Y013336D02*
X000631Y013336D01*
X000631Y013258D02*
X000751Y013258D01*
X000631Y009880D02*
X001923Y009880D01*
X001790Y009802D02*
X000631Y009802D01*
X000631Y009723D02*
X001723Y009723D01*
X001690Y009645D02*
X000631Y009645D01*
X000631Y009566D02*
X000768Y009566D01*
X000631Y008779D02*
X000642Y008768D01*
X000804Y008701D01*
X001151Y008701D01*
X001151Y009101D01*
X001231Y009101D01*
X001231Y008701D01*
X001579Y008701D01*
X001741Y008768D01*
X001864Y008892D01*
X001931Y009054D01*
X001931Y009101D01*
X001232Y009101D01*
X001232Y009181D01*
X001931Y009181D01*
X001931Y009198D01*
X001961Y009186D01*
X002068Y009186D01*
X002068Y009037D01*
X001896Y008865D01*
X001828Y008797D01*
X001791Y008709D01*
X001791Y008463D01*
X001741Y008514D01*
X001579Y008581D01*
X001231Y008581D01*
X001231Y008181D01*
X001151Y008181D01*
X001151Y008581D01*
X000804Y008581D01*
X000642Y008514D01*
X000631Y008503D01*
X000631Y008779D01*
X000631Y008702D02*
X000801Y008702D01*
X000717Y008545D02*
X000631Y008545D01*
X000631Y008624D02*
X001791Y008624D01*
X001791Y008702D02*
X001582Y008702D01*
X001666Y008545D02*
X001791Y008545D01*
X001788Y008467D02*
X001791Y008467D01*
X001821Y008781D02*
X001754Y008781D01*
X001832Y008859D02*
X001890Y008859D01*
X001884Y008938D02*
X001969Y008938D01*
X001916Y009016D02*
X002047Y009016D01*
X002068Y009095D02*
X001931Y009095D01*
X002068Y009174D02*
X001232Y009174D01*
X001231Y009252D02*
X001151Y009252D01*
X001151Y009331D02*
X001231Y009331D01*
X001231Y009409D02*
X001151Y009409D01*
X001151Y009488D02*
X001231Y009488D01*
X001231Y009566D02*
X001151Y009566D01*
X001151Y009095D02*
X001231Y009095D01*
X001231Y009016D02*
X001151Y009016D01*
X001151Y008938D02*
X001231Y008938D01*
X001231Y008859D02*
X001151Y008859D01*
X001151Y008781D02*
X001231Y008781D01*
X001231Y008702D02*
X001151Y008702D01*
X001151Y008545D02*
X001231Y008545D01*
X001231Y008467D02*
X001151Y008467D01*
X001151Y008388D02*
X001231Y008388D01*
X001231Y008310D02*
X001151Y008310D01*
X001151Y008231D02*
X001231Y008231D01*
X001231Y008101D02*
X001151Y008101D01*
X001151Y007701D01*
X000804Y007701D01*
X000642Y007768D01*
X000631Y007779D01*
X000631Y007575D01*
X000792Y007641D01*
X001591Y007641D01*
X001775Y007565D01*
X001791Y007548D01*
X001791Y007819D01*
X001741Y007768D01*
X001579Y007701D01*
X001231Y007701D01*
X001231Y008101D01*
X001231Y008074D02*
X001151Y008074D01*
X001151Y007995D02*
X001231Y007995D01*
X001231Y007917D02*
X001151Y007917D01*
X001151Y007838D02*
X001231Y007838D01*
X001231Y007760D02*
X001151Y007760D01*
X000699Y007603D02*
X000631Y007603D01*
X000631Y007681D02*
X001791Y007681D01*
X001791Y007603D02*
X001684Y007603D01*
X001721Y007760D02*
X001791Y007760D01*
X002337Y006980D02*
X002311Y006954D01*
X002311Y006581D01*
X002471Y006421D01*
X002471Y005861D01*
X002591Y006581D02*
X002591Y006975D01*
X002587Y006980D01*
X001662Y004461D02*
X001636Y004461D01*
X001660Y004382D02*
X001723Y004382D01*
X001357Y004461D02*
X001278Y004461D01*
X001278Y004540D02*
X001357Y004540D01*
X001357Y004618D02*
X001278Y004618D01*
X001278Y004697D02*
X001357Y004697D01*
X001357Y004775D02*
X001278Y004775D01*
X000998Y004461D02*
X000751Y004461D01*
X000751Y004540D02*
X000922Y004540D01*
X000922Y004618D02*
X000751Y004618D01*
X000751Y004697D02*
X000922Y004697D01*
X000922Y004775D02*
X000751Y004775D01*
X000770Y004382D02*
X000975Y004382D01*
X000896Y004304D02*
X000848Y004304D01*
X000511Y004301D02*
X000911Y003901D01*
X001307Y003901D01*
X001317Y003891D01*
X001278Y003283D02*
X001357Y003283D01*
X001357Y003204D02*
X001278Y003204D01*
X001278Y003126D02*
X001357Y003126D01*
X001357Y003047D02*
X001278Y003047D01*
X001278Y002969D02*
X001357Y002969D01*
X001277Y002890D02*
X000631Y002890D01*
X000631Y002812D02*
X000922Y002812D01*
X000922Y002733D02*
X000631Y002733D01*
X000631Y002654D02*
X000922Y002654D01*
X000922Y002576D02*
X000631Y002576D01*
X000631Y002497D02*
X000962Y002497D01*
X000922Y002969D02*
X000631Y002969D01*
X000631Y003047D02*
X000922Y003047D01*
X000922Y003126D02*
X000631Y003126D01*
X000631Y003204D02*
X000922Y003204D01*
X000960Y003283D02*
X000631Y003283D01*
X000631Y002419D02*
X001704Y002419D01*
X001551Y002061D02*
X001191Y001701D01*
X001191Y001141D01*
X000834Y001791D02*
X000631Y001791D01*
X000631Y001869D02*
X000918Y001869D01*
X001099Y001948D02*
X000631Y001948D01*
X000631Y002026D02*
X001177Y002026D01*
X001256Y002105D02*
X000631Y002105D01*
X000631Y002183D02*
X001334Y002183D01*
X001413Y002262D02*
X000631Y002262D01*
X000631Y002340D02*
X003096Y002340D01*
X003090Y002262D02*
X003096Y002262D01*
X003096Y002419D02*
X002427Y002419D01*
X002506Y002497D02*
X003096Y002497D01*
X003174Y002576D02*
X002521Y002576D01*
X002521Y002654D02*
X004795Y002654D01*
X004795Y002576D02*
X003729Y002576D01*
X003806Y002497D02*
X004795Y002497D01*
X004795Y002419D02*
X003806Y002419D01*
X003806Y002340D02*
X004795Y002340D01*
X004795Y002262D02*
X003806Y002262D01*
X003806Y002183D02*
X004795Y002183D01*
X004795Y002105D02*
X003806Y002105D01*
X003806Y002026D02*
X004868Y002026D01*
X004951Y001948D02*
X003771Y001948D01*
X003834Y001791D02*
X003580Y001791D01*
X003620Y001712D02*
X003763Y001712D01*
X003730Y001633D02*
X003653Y001633D01*
X003686Y001555D02*
X003697Y001555D01*
X003691Y001476D02*
X003691Y001476D01*
X003691Y001398D02*
X003691Y001398D01*
X003691Y001319D02*
X003691Y001319D01*
X003691Y001241D02*
X003691Y001241D01*
X003691Y001162D02*
X003691Y001162D01*
X003691Y001084D02*
X003691Y001084D01*
X003691Y001005D02*
X003691Y001005D01*
X003691Y000927D02*
X003691Y000927D01*
X003691Y000848D02*
X003691Y000848D01*
X003691Y000769D02*
X003691Y000769D01*
X003670Y000691D02*
X003712Y000691D01*
X003745Y000612D02*
X003638Y000612D01*
X003692Y001869D02*
X003918Y001869D01*
X004136Y002733D02*
X004795Y002733D01*
X004795Y002812D02*
X004186Y002812D01*
X004186Y002890D02*
X004868Y002890D01*
X004857Y002969D02*
X004778Y002969D01*
X004778Y003047D02*
X004857Y003047D01*
X004857Y003126D02*
X004778Y003126D01*
X004778Y003204D02*
X004857Y003204D01*
X004857Y003283D02*
X004778Y003283D01*
X004777Y003361D02*
X004124Y003361D01*
X004071Y003440D02*
X004481Y003440D01*
X004481Y003518D02*
X004148Y003518D01*
X004185Y003597D02*
X004481Y003597D01*
X004498Y003676D02*
X004191Y003676D01*
X004191Y003754D02*
X004759Y003754D01*
X004681Y003833D02*
X004191Y003833D01*
X004191Y003911D02*
X004602Y003911D01*
X004523Y003990D02*
X004191Y003990D01*
X004191Y004068D02*
X004445Y004068D01*
X004366Y004147D02*
X004191Y004147D01*
X004191Y004225D02*
X004288Y004225D01*
X004244Y004304D02*
X004191Y004304D01*
X004471Y004737D02*
X004441Y004767D01*
X004471Y004737D02*
X004471Y004381D01*
X004911Y003941D01*
X005431Y003941D01*
X005566Y003807D01*
X005566Y003324D01*
X005187Y003701D02*
X005169Y003683D01*
X005169Y002966D01*
X005201Y002934D01*
X005097Y002934D01*
X005154Y002991D01*
X005154Y003284D01*
X004858Y003284D01*
X004858Y003364D01*
X005154Y003364D01*
X005154Y003658D01*
X005111Y003701D01*
X005187Y003701D01*
X005169Y003676D02*
X005136Y003676D01*
X005154Y003597D02*
X005169Y003597D01*
X005169Y003518D02*
X005154Y003518D01*
X005154Y003440D02*
X005169Y003440D01*
X005169Y003361D02*
X004858Y003361D01*
X005154Y003283D02*
X005169Y003283D01*
X005169Y003204D02*
X005154Y003204D01*
X005154Y003126D02*
X005169Y003126D01*
X005169Y003047D02*
X005154Y003047D01*
X005169Y002969D02*
X005132Y002969D01*
X005191Y002458D02*
X005191Y001141D01*
X004834Y001791D02*
X004549Y001791D01*
X004620Y001712D02*
X004763Y001712D01*
X004730Y001633D02*
X004653Y001633D01*
X004686Y001555D02*
X004697Y001555D01*
X004691Y001476D02*
X004691Y001476D01*
X004691Y001398D02*
X004691Y001398D01*
X004691Y001319D02*
X004691Y001319D01*
X004691Y001241D02*
X004691Y001241D01*
X004691Y001162D02*
X004691Y001162D01*
X004691Y001084D02*
X004691Y001084D01*
X004691Y001005D02*
X004691Y001005D01*
X004691Y000927D02*
X004691Y000927D01*
X004691Y000848D02*
X004691Y000848D01*
X004691Y000769D02*
X004691Y000769D01*
X004670Y000691D02*
X004712Y000691D01*
X004745Y000612D02*
X004638Y000612D01*
X004465Y001869D02*
X004918Y001869D01*
X004503Y002969D02*
X004186Y002969D01*
X004186Y003047D02*
X004481Y003047D01*
X004481Y003126D02*
X004186Y003126D01*
X004186Y003204D02*
X004481Y003204D01*
X004481Y003283D02*
X004186Y003283D01*
X003891Y003601D02*
X003831Y003541D01*
X003831Y003041D01*
X003591Y003440D02*
X002711Y003440D01*
X002711Y003518D02*
X003515Y003518D01*
X003436Y003597D02*
X002711Y003597D01*
X002711Y003676D02*
X003358Y003676D01*
X003279Y003754D02*
X002711Y003754D01*
X002711Y003361D02*
X003539Y003361D01*
X003476Y003283D02*
X003358Y003283D01*
X003366Y003274D02*
X003284Y003356D01*
X003109Y003356D01*
X003109Y003079D01*
X003034Y003079D01*
X003034Y003356D01*
X002858Y003356D01*
X002776Y003274D01*
X002776Y003079D01*
X003034Y003079D01*
X003034Y003004D01*
X002776Y003004D01*
X002776Y002808D01*
X002858Y002726D01*
X003034Y002726D01*
X003034Y003003D01*
X003109Y003003D01*
X003109Y002726D01*
X003284Y002726D01*
X003366Y002808D01*
X003366Y003004D01*
X003109Y003004D01*
X003109Y003079D01*
X003366Y003079D01*
X003366Y003274D01*
X003366Y003204D02*
X003476Y003204D01*
X003476Y003126D02*
X003366Y003126D01*
X003366Y002969D02*
X003476Y002969D01*
X003476Y003047D02*
X003109Y003047D01*
X003034Y003047D02*
X002711Y003047D01*
X002711Y003126D02*
X002776Y003126D01*
X002776Y003204D02*
X002711Y003204D01*
X002711Y003283D02*
X002785Y003283D01*
X002776Y002969D02*
X002693Y002969D01*
X002640Y002890D02*
X002776Y002890D01*
X002776Y002812D02*
X002561Y002812D01*
X002521Y002733D02*
X002852Y002733D01*
X003034Y002733D02*
X003109Y002733D01*
X003109Y002812D02*
X003034Y002812D01*
X003034Y002890D02*
X003109Y002890D01*
X003109Y002969D02*
X003034Y002969D01*
X003034Y003126D02*
X003109Y003126D01*
X003109Y003204D02*
X003034Y003204D01*
X003034Y003283D02*
X003109Y003283D01*
X003291Y002733D02*
X003527Y002733D01*
X003476Y002812D02*
X003366Y002812D01*
X003366Y002890D02*
X003476Y002890D01*
X003451Y002241D02*
X003431Y002221D01*
X003431Y001981D01*
X003391Y001941D01*
X003071Y001941D01*
X002951Y002061D01*
X001551Y002061D01*
X001357Y002497D02*
X001278Y002497D01*
X001278Y002576D02*
X001357Y002576D01*
X001357Y002654D02*
X001278Y002654D01*
X001278Y002733D02*
X001357Y002733D01*
X001357Y002812D02*
X001278Y002812D01*
X000763Y001712D02*
X000631Y001712D01*
X000631Y001633D02*
X000730Y001633D01*
X000697Y001555D02*
X000631Y001555D01*
X000631Y001476D02*
X000691Y001476D01*
X000691Y001398D02*
X000631Y001398D01*
X000631Y001319D02*
X000691Y001319D01*
X000691Y001241D02*
X000631Y001241D01*
X000631Y001162D02*
X000691Y001162D01*
X000691Y001084D02*
X000631Y001084D01*
X000631Y001005D02*
X000691Y001005D01*
X000691Y000927D02*
X000631Y000927D01*
X000631Y000848D02*
X000691Y000848D01*
X000691Y000769D02*
X000631Y000769D01*
X000631Y000691D02*
X000712Y000691D01*
X000745Y000612D02*
X000631Y000612D01*
X000511Y004301D02*
X000511Y005621D01*
X000771Y005881D01*
X000791Y005891D02*
X000821Y005801D01*
X000791Y005891D02*
X001317Y005891D01*
X000662Y007760D02*
X000631Y007760D01*
X001615Y009566D02*
X001676Y009566D01*
X004751Y006301D02*
X004431Y005981D01*
X004431Y005525D01*
X004441Y005515D01*
X004751Y006301D02*
X004791Y006301D01*
D21*
X004953Y006139D01*
X005441Y006139D01*
X005441Y004643D02*
X005431Y004633D01*
X005671Y004101D02*
X005751Y004101D01*
X004691Y008991D02*
X004751Y009051D01*
X004951Y010581D02*
X004766Y010767D01*
X004191Y010767D01*
X004191Y011515D02*
X004791Y011515D01*
X005264Y011515D01*
X005441Y011692D01*
X005431Y011692D01*
X005431Y012901D01*
X005191Y013141D01*
X004960Y010590D02*
X004951Y010581D01*
X004960Y010590D02*
X005441Y010590D01*
X003351Y009301D02*
X003151Y009501D01*
X003111Y009501D01*
X003111Y009328D01*
X003111Y009501D02*
X003111Y009821D01*
X003191Y009781D01*
X003191Y009981D01*
X003111Y009781D01*
X003111Y009821D01*
X002856Y010517D02*
X002831Y010541D01*
X002591Y008941D02*
X002591Y008781D01*
X002191Y012060D02*
X002191Y013141D01*
X001191Y013141D01*
X001191Y012501D01*
X000951Y012261D01*
X000951Y011702D01*
X000941Y011692D01*
X000973Y010621D02*
X000941Y010590D01*
D22*
X002031Y009541D03*
X002671Y009941D03*
X003111Y009821D03*
X003831Y010061D03*
X003151Y011781D03*
X004791Y011515D03*
X004751Y009861D03*
X004791Y006301D03*
X005751Y004101D03*
X004351Y002341D03*
X002991Y005701D03*
X000791Y005891D03*
X000831Y004901D03*
D23*
X002591Y008941D02*
X002586Y008946D01*
X002586Y009303D01*
X002336Y009303D02*
X002311Y009327D01*
X002311Y009581D01*
X002231Y009661D01*
X002151Y009661D01*
X002031Y009541D01*
X002671Y009781D02*
X002671Y009941D01*
X002671Y009781D02*
X002831Y009621D01*
X002831Y009307D01*
X002836Y009303D01*
X003086Y009303D02*
X003111Y009328D01*
D24*
X003191Y009981D02*
X003191Y010517D01*
X002856Y010517D01*
X002831Y010541D02*
X002597Y010757D01*
X002191Y010722D01*
X001661Y010712D01*
X001431Y010621D01*
X000973Y010621D01*
X002591Y008781D02*
X002591Y008661D01*
X004751Y009051D02*
X004751Y009861D01*
X005431Y004633D02*
X005431Y004341D01*
X005671Y004101D01*
D25*
X004691Y007291D02*
X004401Y007581D01*
X003551Y007581D01*
X002791Y008341D01*
X003591Y009301D02*
X004381Y009301D01*
X004691Y008991D01*
D26*
X003591Y009301D02*
X003351Y009301D01*
X002591Y008541D02*
X002791Y008341D01*
X002591Y008541D02*
X002591Y008661D01*
M02*
