G75*
G70*
%OFA0B0*%
%FSLAX24Y24*%
%IPPOS*%
%LPD*%
%AMOC8*
5,1,8,0,0,1.08239X$1,22.5*
%
%ADD10C,0.0000*%
%ADD11C,0.0040*%
D10*
X001351Y000141D02*
X007351Y000141D01*
X007351Y014141D01*
X001351Y014141D01*
X001351Y000141D01*
D11*
X002865Y009128D02*
X002865Y009588D01*
X002635Y009588D01*
X002558Y009511D01*
X002558Y009358D01*
X002635Y009281D01*
X002865Y009281D01*
X003018Y009281D02*
X003018Y009511D01*
X003095Y009588D01*
X003249Y009588D01*
X003249Y009435D02*
X003018Y009435D01*
X003018Y009281D02*
X003249Y009281D01*
X003325Y009358D01*
X003249Y009435D01*
X003479Y009358D02*
X003556Y009281D01*
X003709Y009281D01*
X003786Y009358D01*
X003786Y009665D01*
X003709Y009741D01*
X003556Y009741D01*
X003479Y009665D01*
X003684Y010431D02*
X003991Y010431D01*
X003939Y009741D02*
X004246Y009281D01*
X004400Y009281D02*
X004476Y009358D01*
X004476Y009665D01*
X004553Y009588D02*
X004400Y009588D01*
X004706Y009588D02*
X004860Y009588D01*
X004783Y009665D02*
X004783Y009358D01*
X004706Y009281D01*
X005013Y009281D02*
X005244Y009281D01*
X005320Y009358D01*
X005244Y009435D01*
X005013Y009435D01*
X005013Y009511D02*
X005013Y009281D01*
X005013Y009511D02*
X005090Y009588D01*
X005244Y009588D01*
X005474Y009588D02*
X005550Y009511D01*
X005781Y009511D01*
X005781Y009281D02*
X005550Y009281D01*
X005474Y009358D01*
X005474Y009435D01*
X005550Y009511D01*
X005474Y009588D02*
X005474Y009665D01*
X005550Y009741D01*
X005781Y009741D01*
X005781Y009281D01*
X006037Y011108D02*
X006037Y011415D01*
X006191Y011261D02*
X005884Y011261D01*
X002771Y011071D02*
X002464Y011071D01*
M02*
