G75*
G70*
%OFA0B0*%
%FSLAX24Y24*%
%IPPOS*%
%LPD*%
%AMOC8*
5,1,8,0,0,1.08239X$1,22.5*
%
%ADD10C,0.0600*%
%ADD11R,0.0137X0.0550*%
%ADD12R,0.0591X0.0512*%
%ADD13R,0.0551X0.0551*%
%ADD14R,0.0512X0.0591*%
%ADD15R,0.0310X0.0350*%
%ADD16R,0.2280X0.1000*%
%ADD17R,0.0709X0.0551*%
%ADD18R,0.0630X0.0709*%
%ADD19R,0.0709X0.0630*%
%ADD20R,0.0472X0.0236*%
%ADD21R,0.0315X0.0138*%
%ADD22C,0.0080*%
%ADD23C,0.0310*%
%ADD24C,0.0140*%
%ADD25C,0.0240*%
%ADD26C,0.0160*%
%ADD27C,0.0320*%
D10*
X002351Y000841D02*
X002351Y001441D01*
X003351Y001441D02*
X003351Y000841D01*
X004351Y000841D02*
X004351Y001441D01*
X005351Y001441D02*
X005351Y000841D01*
X006351Y000841D02*
X006351Y001441D01*
X005351Y010841D02*
X005351Y011441D01*
X005351Y012841D02*
X005351Y013441D01*
X006351Y013441D02*
X006351Y012841D01*
X004351Y012841D02*
X004351Y013441D01*
X003351Y013441D02*
X003351Y012841D01*
X003351Y011441D02*
X003351Y010841D01*
X004351Y010841D02*
X004351Y011441D01*
X002351Y012841D02*
X002351Y013441D01*
D11*
X003495Y008203D03*
X003745Y008203D03*
X003995Y008203D03*
X004245Y008203D03*
X004246Y005880D03*
X003996Y005880D03*
X003746Y005880D03*
X003496Y005880D03*
D12*
X002801Y005567D03*
X002801Y006315D03*
X002801Y007317D03*
X002801Y008065D03*
X002001Y008065D03*
X002001Y007317D03*
X002001Y006315D03*
X002001Y005567D03*
X006551Y004865D03*
X006551Y004117D03*
X006551Y003265D03*
X006551Y002517D03*
D13*
X005199Y012141D03*
X003703Y012141D03*
D14*
X002725Y009541D03*
X001977Y009541D03*
X004477Y004891D03*
X005225Y004891D03*
X002725Y003841D03*
X001977Y003841D03*
X005927Y009841D03*
X006675Y009841D03*
D15*
X002741Y002991D03*
X002361Y002191D03*
X001981Y002991D03*
D16*
X005851Y006741D03*
X005851Y008441D03*
D17*
X002101Y010622D03*
X002101Y011960D03*
D18*
X004049Y009841D03*
X005152Y009841D03*
D19*
X006401Y011040D03*
X006401Y012142D03*
D20*
X005165Y003665D03*
X005165Y003291D03*
X005165Y002917D03*
X004136Y002917D03*
X004136Y003665D03*
D21*
X004066Y003547D03*
X004066Y003035D03*
X004735Y003035D03*
X004735Y003291D03*
X004735Y003547D03*
D22*
X001791Y002676D02*
X001791Y000581D01*
X001917Y000581D01*
X001851Y000742D01*
X001851Y001541D01*
X001927Y001724D01*
X002067Y001865D01*
X002072Y001867D01*
X002006Y001933D01*
X002006Y002449D01*
X002123Y002566D01*
X002598Y002566D01*
X002716Y002449D01*
X002716Y001933D01*
X002640Y001858D01*
X002774Y001724D01*
X002851Y001541D01*
X002851Y000742D01*
X002917Y000581D01*
X002784Y000581D01*
X002851Y000742D01*
X002851Y001541D01*
X002927Y001724D01*
X003067Y001865D01*
X003251Y001941D01*
X003450Y001941D01*
X003634Y001865D01*
X003774Y001724D01*
X003851Y001541D01*
X003851Y000742D01*
X003917Y000581D01*
X003784Y000581D01*
X003851Y000742D01*
X003851Y001541D01*
X003927Y001724D01*
X004067Y001865D01*
X004251Y001941D01*
X004450Y001941D01*
X004634Y001865D01*
X004774Y001724D01*
X004851Y001541D01*
X004851Y000742D01*
X004917Y000581D01*
X004784Y000581D01*
X004851Y000742D01*
X004851Y001541D01*
X004927Y001724D01*
X005067Y001865D01*
X005251Y001941D01*
X005450Y001941D01*
X005469Y001933D01*
X005397Y002005D01*
X005361Y002093D01*
X005361Y002189D01*
X005361Y002599D01*
X004846Y002599D01*
X004814Y002631D01*
X004744Y002631D01*
X004701Y002630D01*
X004697Y002631D01*
X004693Y002631D01*
X004652Y002648D01*
X004611Y002663D01*
X004608Y002666D01*
X004605Y002668D01*
X004573Y002699D01*
X004564Y002708D01*
X004455Y002599D01*
X003860Y002599D01*
X003852Y002590D01*
X003721Y002536D01*
X003580Y002536D01*
X003449Y002590D01*
X003350Y002690D01*
X003296Y002820D01*
X003296Y002962D01*
X003350Y003092D01*
X003449Y003192D01*
X003580Y003246D01*
X003721Y003246D01*
X003754Y003232D01*
X003813Y003291D01*
X003708Y003395D01*
X003708Y003454D01*
X003691Y003462D01*
X003674Y003478D01*
X003655Y003491D01*
X003641Y003511D01*
X003623Y003529D01*
X003614Y003551D01*
X003601Y003570D01*
X003596Y003594D01*
X003587Y003617D01*
X003587Y003641D01*
X003570Y003720D01*
X003561Y003743D01*
X003561Y003767D01*
X003556Y003789D01*
X003561Y003814D01*
X003561Y003890D01*
X003560Y003935D01*
X003561Y003937D01*
X003561Y003939D01*
X003578Y003981D01*
X003627Y004106D01*
X003636Y004138D01*
X003645Y004150D01*
X003650Y004164D01*
X003673Y004188D01*
X003690Y004211D01*
X003697Y004227D01*
X003719Y004249D01*
X003737Y004273D01*
X003752Y004282D01*
X003765Y004295D01*
X003793Y004306D01*
X003819Y004322D01*
X003831Y004324D01*
X003899Y004392D01*
X004030Y004446D01*
X004171Y004446D01*
X004302Y004392D01*
X004401Y004292D01*
X004456Y004162D01*
X004456Y004020D01*
X004440Y003983D01*
X004455Y003983D01*
X004554Y003885D01*
X004573Y003903D01*
X004605Y003935D01*
X004608Y003936D01*
X004611Y003938D01*
X004652Y003954D01*
X004693Y003971D01*
X004696Y003971D01*
X004700Y003972D01*
X004744Y003971D01*
X004834Y003971D01*
X004846Y003983D01*
X005484Y003983D01*
X005586Y003881D01*
X006055Y003881D01*
X006055Y004456D01*
X006091Y004491D01*
X006055Y004526D01*
X006055Y005101D01*
X005891Y005101D01*
X005891Y004943D01*
X005854Y004855D01*
X005786Y004788D01*
X005686Y004688D01*
X005680Y004685D01*
X005680Y004513D01*
X005563Y004396D01*
X004886Y004396D01*
X004808Y004474D01*
X004790Y004456D01*
X004516Y004456D01*
X004516Y004851D01*
X004437Y004851D01*
X004437Y004456D01*
X004163Y004456D01*
X004081Y004538D01*
X004081Y004851D01*
X004436Y004851D01*
X004436Y004931D01*
X004081Y004931D01*
X004081Y005132D01*
X003491Y004542D01*
X003491Y004039D01*
X003491Y003943D01*
X003454Y003855D01*
X003304Y003705D01*
X003236Y003638D01*
X003180Y003614D01*
X003180Y003463D01*
X003063Y003346D01*
X002999Y003346D01*
X003096Y003249D01*
X003096Y002733D01*
X002978Y002616D01*
X002503Y002616D01*
X002386Y002733D01*
X002250Y002733D01*
X002276Y002758D02*
X002194Y002676D01*
X002018Y002676D01*
X002018Y002953D01*
X001943Y002953D01*
X001943Y002676D01*
X001791Y002676D01*
X001791Y002654D02*
X002464Y002654D01*
X002386Y002733D02*
X002386Y003249D01*
X002482Y003346D01*
X002386Y003346D01*
X002351Y003381D01*
X002315Y003346D01*
X001791Y003346D01*
X001791Y003306D01*
X001943Y003306D01*
X001943Y003029D01*
X002018Y003029D01*
X002018Y003306D01*
X002194Y003306D01*
X002276Y003224D01*
X002276Y003029D01*
X002018Y003029D01*
X002018Y002954D01*
X002276Y002954D01*
X002276Y002758D01*
X002276Y002812D02*
X002386Y002812D01*
X002386Y002890D02*
X002276Y002890D01*
X002386Y002969D02*
X002018Y002969D01*
X002018Y003047D02*
X001943Y003047D01*
X001943Y003126D02*
X002018Y003126D01*
X002018Y003204D02*
X001943Y003204D01*
X001943Y003283D02*
X002018Y003283D01*
X002217Y003283D02*
X002419Y003283D01*
X002386Y003204D02*
X002276Y003204D01*
X002276Y003126D02*
X002386Y003126D01*
X002386Y003047D02*
X002276Y003047D01*
X002331Y003361D02*
X002370Y003361D01*
X002725Y003007D02*
X002741Y002991D01*
X002725Y003007D02*
X002725Y003841D01*
X003101Y003841D01*
X003251Y003991D01*
X003251Y004641D01*
X004001Y005391D01*
X004001Y005875D01*
X003996Y005880D01*
X003751Y005884D02*
X003751Y006291D01*
X003601Y006441D01*
X003451Y006441D01*
X003251Y006641D01*
X003251Y007191D01*
X003125Y007317D01*
X002801Y007317D01*
X002001Y007317D01*
X002040Y008105D02*
X001961Y008105D01*
X001961Y008461D01*
X001791Y008461D01*
X001791Y009106D01*
X001937Y009106D01*
X001937Y009501D01*
X002016Y009501D01*
X002016Y009106D01*
X002290Y009106D01*
X002308Y009124D01*
X002386Y009046D01*
X002881Y009046D01*
X002881Y008946D01*
X002780Y008946D01*
X002649Y008892D01*
X002550Y008792D01*
X002496Y008662D01*
X002496Y008521D01*
X002422Y008521D01*
X002358Y008457D01*
X002354Y008461D01*
X002040Y008461D01*
X002040Y008105D01*
X002040Y008153D02*
X001961Y008153D01*
X001961Y008231D02*
X002040Y008231D01*
X002040Y008310D02*
X001961Y008310D01*
X001961Y008388D02*
X002040Y008388D01*
X001791Y008467D02*
X002368Y008467D01*
X002496Y008545D02*
X001791Y008545D01*
X001791Y008624D02*
X002496Y008624D01*
X002512Y008702D02*
X001791Y008702D01*
X001791Y008781D02*
X002545Y008781D01*
X002617Y008859D02*
X001791Y008859D01*
X001791Y008938D02*
X002760Y008938D01*
X002881Y009016D02*
X001791Y009016D01*
X001791Y009095D02*
X002337Y009095D01*
X002016Y009174D02*
X001937Y009174D01*
X001937Y009252D02*
X002016Y009252D01*
X002016Y009331D02*
X001937Y009331D01*
X001937Y009409D02*
X002016Y009409D01*
X002016Y009488D02*
X001937Y009488D01*
X001937Y009581D02*
X001937Y009976D01*
X001791Y009976D01*
X001791Y010146D01*
X001868Y010146D01*
X001872Y010138D01*
X001972Y010038D01*
X002034Y009976D01*
X002016Y009976D01*
X002016Y009581D01*
X001937Y009581D01*
X001937Y009645D02*
X002016Y009645D01*
X002016Y009723D02*
X001937Y009723D01*
X001937Y009802D02*
X002016Y009802D01*
X002016Y009880D02*
X001937Y009880D01*
X001937Y009959D02*
X002016Y009959D01*
X001972Y010038D02*
X001791Y010038D01*
X001791Y010116D02*
X001894Y010116D01*
X001791Y011097D02*
X001791Y011545D01*
X002061Y011545D01*
X002061Y011920D01*
X002140Y011920D01*
X002140Y011545D01*
X002513Y011545D01*
X002595Y011627D01*
X002595Y011920D01*
X002141Y011920D01*
X002141Y012000D01*
X002595Y012000D01*
X002595Y012294D01*
X002513Y012376D01*
X002140Y012376D01*
X002140Y012001D01*
X002061Y012001D01*
X002061Y012376D01*
X001791Y012376D01*
X001791Y013701D01*
X001988Y013701D01*
X001978Y013690D01*
X001911Y013529D01*
X001911Y013181D01*
X002310Y013181D01*
X002310Y013101D01*
X001911Y013101D01*
X001911Y012754D01*
X001978Y012592D01*
X002101Y012468D01*
X002263Y012401D01*
X002311Y012401D01*
X002311Y013101D01*
X002390Y013101D01*
X002390Y012401D01*
X002438Y012401D01*
X002600Y012468D01*
X002724Y012592D01*
X002791Y012754D01*
X002791Y013101D01*
X002391Y013101D01*
X002391Y013181D01*
X002791Y013181D01*
X002791Y013529D01*
X002724Y013690D01*
X002713Y013701D01*
X002988Y013701D01*
X002978Y013690D01*
X002911Y013529D01*
X002911Y013181D01*
X003310Y013181D01*
X003310Y013101D01*
X002911Y013101D01*
X002911Y012754D01*
X002978Y012592D01*
X003075Y012494D01*
X002949Y012442D01*
X002850Y012342D01*
X002796Y012212D01*
X002796Y012070D01*
X002850Y011940D01*
X002949Y011840D01*
X003075Y011788D01*
X002978Y011690D01*
X002911Y011529D01*
X002911Y011181D01*
X003310Y011181D01*
X003310Y011101D01*
X002911Y011101D01*
X002911Y010754D01*
X002978Y010592D01*
X003101Y010468D01*
X003263Y010401D01*
X003311Y010401D01*
X003311Y011101D01*
X003390Y011101D01*
X003390Y010401D01*
X003438Y010401D01*
X003600Y010468D01*
X003724Y010592D01*
X003791Y010754D01*
X003791Y011101D01*
X003391Y011101D01*
X003391Y011181D01*
X003791Y011181D01*
X003791Y011529D01*
X003734Y011666D01*
X003967Y011666D01*
X003911Y011529D01*
X003911Y011181D01*
X004310Y011181D01*
X004310Y011101D01*
X003911Y011101D01*
X003911Y010754D01*
X003978Y010592D01*
X004101Y010468D01*
X004263Y010401D01*
X004311Y010401D01*
X004311Y011101D01*
X004390Y011101D01*
X004390Y010401D01*
X004438Y010401D01*
X004600Y010468D01*
X004724Y010592D01*
X004791Y010754D01*
X004791Y011101D01*
X004391Y011101D01*
X004391Y011181D01*
X004791Y011181D01*
X004791Y011529D01*
X004724Y011690D01*
X004600Y011814D01*
X004438Y011881D01*
X004390Y011881D01*
X004390Y011181D01*
X004311Y011181D01*
X004311Y011881D01*
X004263Y011881D01*
X004178Y011846D01*
X004178Y012371D01*
X004251Y012341D01*
X004450Y012341D01*
X004634Y012417D01*
X004774Y012558D01*
X004851Y012742D01*
X004902Y012617D01*
X004840Y012617D01*
X004723Y012500D01*
X004723Y011783D01*
X004840Y011666D01*
X004902Y011666D01*
X004851Y011541D01*
X004851Y010742D01*
X004909Y010602D01*
X004880Y010574D01*
X004832Y010456D01*
X004832Y010395D01*
X004754Y010395D01*
X004637Y010278D01*
X004637Y009404D01*
X004754Y009287D01*
X004881Y009287D01*
X004881Y009141D01*
X004628Y009141D01*
X004511Y009024D01*
X004511Y008801D01*
X004329Y008801D01*
X004197Y008746D01*
X004128Y008678D01*
X004094Y008678D01*
X004034Y008618D01*
X003996Y008618D01*
X003996Y008579D01*
X003995Y008579D01*
X003995Y008618D01*
X003957Y008618D01*
X003897Y008678D01*
X003771Y008678D01*
X003771Y008695D01*
X003756Y008731D01*
X003756Y008812D01*
X003701Y008942D01*
X003602Y009042D01*
X003471Y009096D01*
X003427Y009096D01*
X003421Y009103D01*
X003421Y009287D01*
X003421Y009395D01*
X003379Y009494D01*
X003180Y009693D01*
X003180Y009919D01*
X003063Y010036D01*
X002971Y010036D01*
X003006Y010120D01*
X003006Y010262D01*
X002951Y010392D01*
X002852Y010492D01*
X002721Y010546D01*
X002655Y010546D01*
X002655Y010980D01*
X002911Y010980D01*
X002911Y010902D02*
X002655Y010902D01*
X002655Y010980D02*
X002538Y011097D01*
X001791Y011097D01*
X001791Y011137D02*
X003310Y011137D01*
X003311Y011059D02*
X003390Y011059D01*
X003391Y011137D02*
X004310Y011137D01*
X004311Y011059D02*
X004390Y011059D01*
X004391Y011137D02*
X004851Y011137D01*
X004851Y011059D02*
X004791Y011059D01*
X004791Y010980D02*
X004851Y010980D01*
X004851Y010902D02*
X004791Y010902D01*
X004791Y010823D02*
X004851Y010823D01*
X004851Y010744D02*
X004787Y010744D01*
X004754Y010666D02*
X004882Y010666D01*
X004894Y010587D02*
X004719Y010587D01*
X004641Y010509D02*
X004854Y010509D01*
X004832Y010430D02*
X004509Y010430D01*
X004390Y010430D02*
X004311Y010430D01*
X004311Y010509D02*
X004390Y010509D01*
X004390Y010587D02*
X004311Y010587D01*
X004311Y010666D02*
X004390Y010666D01*
X004390Y010744D02*
X004311Y010744D01*
X004311Y010823D02*
X004390Y010823D01*
X004390Y010902D02*
X004311Y010902D01*
X004311Y010980D02*
X004390Y010980D01*
X004390Y011216D02*
X004311Y011216D01*
X004311Y011294D02*
X004390Y011294D01*
X004390Y011373D02*
X004311Y011373D01*
X004311Y011451D02*
X004390Y011451D01*
X004390Y011530D02*
X004311Y011530D01*
X004311Y011608D02*
X004390Y011608D01*
X004390Y011687D02*
X004311Y011687D01*
X004311Y011766D02*
X004390Y011766D01*
X004390Y011844D02*
X004311Y011844D01*
X004178Y011923D02*
X004723Y011923D01*
X004723Y012001D02*
X004178Y012001D01*
X004178Y012080D02*
X004723Y012080D01*
X004723Y012158D02*
X004178Y012158D01*
X004178Y012237D02*
X004723Y012237D01*
X004723Y012315D02*
X004178Y012315D01*
X003902Y012617D02*
X003734Y012617D01*
X003791Y012754D01*
X003791Y013101D01*
X003391Y013101D01*
X003391Y013181D01*
X003791Y013181D01*
X003791Y013529D01*
X003724Y013690D01*
X003713Y013701D01*
X003917Y013701D01*
X003851Y013541D01*
X003851Y012742D01*
X003902Y012617D01*
X003897Y012629D02*
X003739Y012629D01*
X003772Y012708D02*
X003864Y012708D01*
X003851Y012787D02*
X003791Y012787D01*
X003791Y012865D02*
X003851Y012865D01*
X003851Y012944D02*
X003791Y012944D01*
X003791Y013022D02*
X003851Y013022D01*
X003851Y013101D02*
X003791Y013101D01*
X003851Y013179D02*
X003391Y013179D01*
X003310Y013179D02*
X002391Y013179D01*
X002390Y013101D02*
X002311Y013101D01*
X002310Y013179D02*
X001791Y013179D01*
X001791Y013101D02*
X001911Y013101D01*
X001911Y013022D02*
X001791Y013022D01*
X001791Y012944D02*
X001911Y012944D01*
X001911Y012865D02*
X001791Y012865D01*
X001791Y012787D02*
X001911Y012787D01*
X001929Y012708D02*
X001791Y012708D01*
X001791Y012629D02*
X001962Y012629D01*
X002018Y012551D02*
X001791Y012551D01*
X001791Y012472D02*
X002097Y012472D01*
X002061Y012315D02*
X002140Y012315D01*
X002140Y012237D02*
X002061Y012237D01*
X002061Y012158D02*
X002140Y012158D01*
X002140Y012080D02*
X002061Y012080D01*
X002061Y012001D02*
X002140Y012001D01*
X002141Y011923D02*
X002867Y011923D01*
X002824Y012001D02*
X002595Y012001D01*
X002595Y012080D02*
X002796Y012080D01*
X002796Y012158D02*
X002595Y012158D01*
X002595Y012237D02*
X002806Y012237D01*
X002839Y012315D02*
X002574Y012315D01*
X002604Y012472D02*
X003023Y012472D01*
X003018Y012551D02*
X002683Y012551D01*
X002739Y012629D02*
X002962Y012629D01*
X002929Y012708D02*
X002772Y012708D01*
X002791Y012787D02*
X002911Y012787D01*
X002911Y012865D02*
X002791Y012865D01*
X002791Y012944D02*
X002911Y012944D01*
X002911Y013022D02*
X002791Y013022D01*
X002791Y013101D02*
X002911Y013101D01*
X002911Y013258D02*
X002791Y013258D01*
X002791Y013336D02*
X002911Y013336D01*
X002911Y013415D02*
X002791Y013415D01*
X002791Y013493D02*
X002911Y013493D01*
X002929Y013572D02*
X002773Y013572D01*
X002740Y013651D02*
X002961Y013651D01*
X002390Y013022D02*
X002311Y013022D01*
X002311Y012944D02*
X002390Y012944D01*
X002390Y012865D02*
X002311Y012865D01*
X002311Y012787D02*
X002390Y012787D01*
X002390Y012708D02*
X002311Y012708D01*
X002311Y012629D02*
X002390Y012629D01*
X002390Y012551D02*
X002311Y012551D01*
X002311Y012472D02*
X002390Y012472D01*
X002595Y011844D02*
X002946Y011844D01*
X003053Y011766D02*
X002595Y011766D01*
X002595Y011687D02*
X002976Y011687D01*
X002944Y011608D02*
X002576Y011608D01*
X002911Y011530D02*
X001791Y011530D01*
X001791Y011451D02*
X002911Y011451D01*
X002911Y011373D02*
X001791Y011373D01*
X001791Y011294D02*
X002911Y011294D01*
X002911Y011216D02*
X001791Y011216D01*
X002061Y011608D02*
X002140Y011608D01*
X002140Y011687D02*
X002061Y011687D01*
X002061Y011766D02*
X002140Y011766D01*
X002140Y011844D02*
X002061Y011844D01*
X001791Y012394D02*
X002901Y012394D01*
X002911Y011059D02*
X002576Y011059D01*
X002655Y010823D02*
X002911Y010823D01*
X002914Y010744D02*
X002655Y010744D01*
X002655Y010666D02*
X002947Y010666D01*
X002982Y010587D02*
X002655Y010587D01*
X002811Y010509D02*
X003061Y010509D01*
X002968Y010352D02*
X004710Y010352D01*
X004637Y010273D02*
X004485Y010273D01*
X004504Y010253D02*
X004422Y010335D01*
X004089Y010335D01*
X004089Y009881D01*
X004009Y009881D01*
X004009Y009801D01*
X003594Y009801D01*
X003594Y009429D01*
X003676Y009347D01*
X004009Y009347D01*
X004009Y009801D01*
X004089Y009801D01*
X004089Y009347D01*
X004422Y009347D01*
X004504Y009429D01*
X004504Y009801D01*
X004089Y009801D01*
X004089Y009881D01*
X004504Y009881D01*
X004504Y010253D01*
X004504Y010195D02*
X004637Y010195D01*
X004637Y010116D02*
X004504Y010116D01*
X004504Y010038D02*
X004637Y010038D01*
X004637Y009959D02*
X004504Y009959D01*
X004504Y009723D02*
X004637Y009723D01*
X004637Y009645D02*
X004504Y009645D01*
X004504Y009566D02*
X004637Y009566D01*
X004637Y009488D02*
X004504Y009488D01*
X004485Y009409D02*
X004637Y009409D01*
X004710Y009331D02*
X003421Y009331D01*
X003415Y009409D02*
X003614Y009409D01*
X003594Y009488D02*
X003382Y009488D01*
X003307Y009566D02*
X003594Y009566D01*
X003594Y009645D02*
X003229Y009645D01*
X003180Y009723D02*
X003594Y009723D01*
X003594Y009881D02*
X004009Y009881D01*
X004009Y010335D01*
X003676Y010335D01*
X003594Y010253D01*
X003594Y009881D01*
X003594Y009959D02*
X003141Y009959D01*
X003180Y009880D02*
X004009Y009880D01*
X004009Y009802D02*
X003180Y009802D01*
X002971Y010038D02*
X003594Y010038D01*
X003594Y010116D02*
X003004Y010116D01*
X003006Y010195D02*
X003594Y010195D01*
X003614Y010273D02*
X003001Y010273D01*
X002913Y010430D02*
X003193Y010430D01*
X003311Y010430D02*
X003390Y010430D01*
X003390Y010509D02*
X003311Y010509D01*
X003311Y010587D02*
X003390Y010587D01*
X003390Y010666D02*
X003311Y010666D01*
X003311Y010744D02*
X003390Y010744D01*
X003390Y010823D02*
X003311Y010823D01*
X003311Y010902D02*
X003390Y010902D01*
X003390Y010980D02*
X003311Y010980D01*
X003641Y010509D02*
X004061Y010509D01*
X003982Y010587D02*
X003719Y010587D01*
X003754Y010666D02*
X003947Y010666D01*
X003914Y010744D02*
X003787Y010744D01*
X003791Y010823D02*
X003911Y010823D01*
X003911Y010902D02*
X003791Y010902D01*
X003791Y010980D02*
X003911Y010980D01*
X003911Y011059D02*
X003791Y011059D01*
X003791Y011216D02*
X003911Y011216D01*
X003911Y011294D02*
X003791Y011294D01*
X003791Y011373D02*
X003911Y011373D01*
X003911Y011451D02*
X003791Y011451D01*
X003790Y011530D02*
X003911Y011530D01*
X003944Y011608D02*
X003757Y011608D01*
X003509Y010430D02*
X004193Y010430D01*
X004089Y010273D02*
X004009Y010273D01*
X004009Y010195D02*
X004089Y010195D01*
X004089Y010116D02*
X004009Y010116D01*
X004009Y010038D02*
X004089Y010038D01*
X004089Y009959D02*
X004009Y009959D01*
X004089Y009880D02*
X004637Y009880D01*
X004637Y009802D02*
X004089Y009802D01*
X004089Y009723D02*
X004009Y009723D01*
X004009Y009645D02*
X004089Y009645D01*
X004089Y009566D02*
X004009Y009566D01*
X004009Y009488D02*
X004089Y009488D01*
X004089Y009409D02*
X004009Y009409D01*
X003703Y008938D02*
X004511Y008938D01*
X004511Y009016D02*
X003627Y009016D01*
X003474Y009095D02*
X004582Y009095D01*
X004511Y008859D02*
X003736Y008859D01*
X003756Y008781D02*
X004280Y008781D01*
X004153Y008702D02*
X003767Y008702D01*
X003950Y008624D02*
X004040Y008624D01*
X003995Y008579D02*
X003995Y008579D01*
X004245Y008203D02*
X004251Y008197D01*
X004251Y007891D01*
X004451Y007691D01*
X004451Y007641D01*
X003751Y007041D02*
X003751Y006691D01*
X003751Y007041D02*
X003401Y007391D01*
X003401Y007791D01*
X003501Y007891D01*
X003501Y008197D01*
X003495Y008203D01*
X003431Y008701D02*
X003436Y008706D01*
X003431Y008701D02*
X003401Y008741D01*
X003421Y009174D02*
X004881Y009174D01*
X004881Y009252D02*
X003421Y009252D01*
X004791Y011216D02*
X004851Y011216D01*
X004851Y011294D02*
X004791Y011294D01*
X004791Y011373D02*
X004851Y011373D01*
X004851Y011451D02*
X004791Y011451D01*
X004790Y011530D02*
X004851Y011530D01*
X004879Y011608D02*
X004757Y011608D01*
X004725Y011687D02*
X004819Y011687D01*
X004740Y011766D02*
X004648Y011766D01*
X004723Y011844D02*
X004527Y011844D01*
X004577Y012394D02*
X004723Y012394D01*
X004723Y012472D02*
X004689Y012472D01*
X004767Y012551D02*
X004774Y012551D01*
X004804Y012629D02*
X004897Y012629D01*
X004864Y012708D02*
X004837Y012708D01*
X004851Y012742D02*
X004851Y013541D01*
X004917Y013701D01*
X004784Y013701D01*
X004851Y013541D01*
X004851Y012742D01*
X004851Y012787D02*
X004851Y012787D01*
X004851Y012865D02*
X004851Y012865D01*
X004851Y012944D02*
X004851Y012944D01*
X004851Y013022D02*
X004851Y013022D01*
X004851Y013101D02*
X004851Y013101D01*
X004851Y013179D02*
X004851Y013179D01*
X004851Y013258D02*
X004851Y013258D01*
X004851Y013336D02*
X004851Y013336D01*
X004851Y013415D02*
X004851Y013415D01*
X004851Y013493D02*
X004851Y013493D01*
X004837Y013572D02*
X004864Y013572D01*
X004896Y013651D02*
X004805Y013651D01*
X005774Y012558D02*
X005674Y012458D01*
X005674Y011825D01*
X005774Y011724D01*
X005851Y011541D01*
X005851Y010742D01*
X005774Y010558D01*
X005634Y010417D01*
X005559Y010386D01*
X005609Y010336D01*
X006265Y010336D01*
X006343Y010259D01*
X006361Y010276D01*
X006635Y010276D01*
X006635Y009881D01*
X006714Y009881D01*
X006714Y010276D01*
X006911Y010276D01*
X006911Y011700D01*
X006838Y011627D01*
X005963Y011627D01*
X005846Y011744D01*
X005846Y012540D01*
X005908Y012602D01*
X005851Y012742D01*
X005851Y013541D01*
X005917Y013701D01*
X005784Y013701D01*
X005851Y013541D01*
X005851Y012742D01*
X005774Y012558D01*
X005767Y012551D02*
X005857Y012551D01*
X005846Y012472D02*
X005689Y012472D01*
X005674Y012394D02*
X005846Y012394D01*
X005846Y012315D02*
X005674Y012315D01*
X005674Y012237D02*
X005846Y012237D01*
X005846Y012158D02*
X005674Y012158D01*
X005674Y012080D02*
X005846Y012080D01*
X005846Y012001D02*
X005674Y012001D01*
X005674Y011923D02*
X005846Y011923D01*
X005846Y011844D02*
X005674Y011844D01*
X005733Y011766D02*
X005846Y011766D01*
X005790Y011687D02*
X005904Y011687D01*
X005822Y011608D02*
X006911Y011608D01*
X006911Y011530D02*
X005851Y011530D01*
X005851Y011451D02*
X005945Y011451D01*
X005906Y011413D02*
X005906Y011080D01*
X006360Y011080D01*
X006360Y011000D01*
X005906Y011000D01*
X005906Y010667D01*
X005988Y010585D01*
X006361Y010585D01*
X006361Y011000D01*
X006440Y011000D01*
X006440Y010585D01*
X006813Y010585D01*
X006895Y010667D01*
X006895Y011000D01*
X006441Y011000D01*
X006441Y011080D01*
X006895Y011080D01*
X006895Y011413D01*
X006813Y011495D01*
X006440Y011495D01*
X006440Y011080D01*
X006361Y011080D01*
X006361Y011495D01*
X005988Y011495D01*
X005906Y011413D01*
X005906Y011373D02*
X005851Y011373D01*
X005851Y011294D02*
X005906Y011294D01*
X005906Y011216D02*
X005851Y011216D01*
X005851Y011137D02*
X005906Y011137D01*
X005851Y011059D02*
X006360Y011059D01*
X006361Y011137D02*
X006440Y011137D01*
X006441Y011059D02*
X006911Y011059D01*
X006911Y011137D02*
X006895Y011137D01*
X006895Y011216D02*
X006911Y011216D01*
X006911Y011294D02*
X006895Y011294D01*
X006895Y011373D02*
X006911Y011373D01*
X006911Y011451D02*
X006856Y011451D01*
X006897Y011687D02*
X006911Y011687D01*
X006895Y010980D02*
X006911Y010980D01*
X006911Y010902D02*
X006895Y010902D01*
X006895Y010823D02*
X006911Y010823D01*
X006911Y010744D02*
X006895Y010744D01*
X006894Y010666D02*
X006911Y010666D01*
X006911Y010587D02*
X006815Y010587D01*
X006911Y010509D02*
X005725Y010509D01*
X005787Y010587D02*
X005986Y010587D01*
X005907Y010666D02*
X005819Y010666D01*
X005851Y010744D02*
X005906Y010744D01*
X005906Y010823D02*
X005851Y010823D01*
X005851Y010902D02*
X005906Y010902D01*
X005906Y010980D02*
X005851Y010980D01*
X005647Y010430D02*
X006911Y010430D01*
X006911Y010352D02*
X005593Y010352D01*
X006171Y009346D02*
X006265Y009346D01*
X006343Y009424D01*
X006361Y009406D01*
X006635Y009406D01*
X006635Y009801D01*
X006714Y009801D01*
X006714Y009406D01*
X006911Y009406D01*
X006911Y009141D01*
X006171Y009141D01*
X006171Y009346D01*
X006171Y009331D02*
X006911Y009331D01*
X006911Y009252D02*
X006171Y009252D01*
X006171Y009174D02*
X006911Y009174D01*
X006714Y009409D02*
X006635Y009409D01*
X006635Y009488D02*
X006714Y009488D01*
X006714Y009566D02*
X006635Y009566D01*
X006635Y009645D02*
X006714Y009645D01*
X006714Y009723D02*
X006635Y009723D01*
X006635Y009959D02*
X006714Y009959D01*
X006714Y010038D02*
X006635Y010038D01*
X006635Y010116D02*
X006714Y010116D01*
X006714Y010195D02*
X006635Y010195D01*
X006635Y010273D02*
X006714Y010273D01*
X006440Y010587D02*
X006361Y010587D01*
X006361Y010666D02*
X006440Y010666D01*
X006440Y010744D02*
X006361Y010744D01*
X006361Y010823D02*
X006440Y010823D01*
X006440Y010902D02*
X006361Y010902D01*
X006361Y010980D02*
X006440Y010980D01*
X006440Y011216D02*
X006361Y011216D01*
X006361Y011294D02*
X006440Y011294D01*
X006440Y011373D02*
X006361Y011373D01*
X006361Y011451D02*
X006440Y011451D01*
X005897Y012629D02*
X005804Y012629D01*
X005837Y012708D02*
X005864Y012708D01*
X005851Y012787D02*
X005851Y012787D01*
X005851Y012865D02*
X005851Y012865D01*
X005851Y012944D02*
X005851Y012944D01*
X005851Y013022D02*
X005851Y013022D01*
X005851Y013101D02*
X005851Y013101D01*
X005851Y013179D02*
X005851Y013179D01*
X005851Y013258D02*
X005851Y013258D01*
X005851Y013336D02*
X005851Y013336D01*
X005851Y013415D02*
X005851Y013415D01*
X005851Y013493D02*
X005851Y013493D01*
X005837Y013572D02*
X005864Y013572D01*
X005896Y013651D02*
X005805Y013651D01*
X003896Y013651D02*
X003740Y013651D01*
X003773Y013572D02*
X003864Y013572D01*
X003851Y013493D02*
X003791Y013493D01*
X003791Y013415D02*
X003851Y013415D01*
X003851Y013336D02*
X003791Y013336D01*
X003791Y013258D02*
X003851Y013258D01*
X001961Y013651D02*
X001791Y013651D01*
X001791Y013572D02*
X001929Y013572D01*
X001911Y013493D02*
X001791Y013493D01*
X001791Y013415D02*
X001911Y013415D01*
X001911Y013336D02*
X001791Y013336D01*
X001791Y013258D02*
X001911Y013258D01*
X002001Y006315D02*
X002801Y006315D01*
X002827Y006341D01*
X003151Y006341D01*
X003251Y006241D01*
X003251Y005491D01*
X003351Y005391D01*
X003451Y005391D01*
X003496Y005436D01*
X003496Y005880D01*
X003746Y005880D02*
X003751Y005884D01*
X003421Y005151D02*
X003115Y004845D01*
X003047Y004777D01*
X003011Y004689D01*
X003011Y004336D01*
X002386Y004336D01*
X002351Y004301D01*
X002315Y004336D01*
X002216Y004336D01*
X002216Y004368D01*
X002385Y004536D01*
X002471Y004536D01*
X002602Y004590D01*
X002701Y004690D01*
X002756Y004820D01*
X002756Y004962D01*
X002701Y005092D01*
X002622Y005171D01*
X002761Y005171D01*
X002761Y005527D01*
X002840Y005527D01*
X002840Y005171D01*
X003154Y005171D01*
X003192Y005210D01*
X003215Y005188D01*
X003303Y005151D01*
X003403Y005151D01*
X003421Y005151D01*
X003359Y005089D02*
X002703Y005089D01*
X002735Y005011D02*
X003281Y005011D01*
X003202Y004932D02*
X002756Y004932D01*
X002756Y004854D02*
X003124Y004854D01*
X003046Y004775D02*
X002737Y004775D01*
X002704Y004697D02*
X003014Y004697D01*
X003011Y004618D02*
X002630Y004618D01*
X002479Y004540D02*
X003011Y004540D01*
X003011Y004461D02*
X002310Y004461D01*
X002231Y004382D02*
X003011Y004382D01*
X003431Y003833D02*
X003561Y003833D01*
X003560Y003911D02*
X003477Y003911D01*
X003491Y003990D02*
X003581Y003990D01*
X003613Y004068D02*
X003491Y004068D01*
X003491Y004147D02*
X003642Y004147D01*
X003696Y004225D02*
X003491Y004225D01*
X003491Y004304D02*
X003787Y004304D01*
X003890Y004382D02*
X003491Y004382D01*
X003491Y004461D02*
X004157Y004461D01*
X004081Y004540D02*
X003491Y004540D01*
X003567Y004618D02*
X004081Y004618D01*
X004081Y004697D02*
X003645Y004697D01*
X003724Y004775D02*
X004081Y004775D01*
X004081Y004932D02*
X003881Y004932D01*
X003803Y004854D02*
X004436Y004854D01*
X004437Y004775D02*
X004516Y004775D01*
X004516Y004697D02*
X004437Y004697D01*
X004437Y004618D02*
X004516Y004618D01*
X004516Y004540D02*
X004437Y004540D01*
X004437Y004461D02*
X004516Y004461D01*
X004390Y004304D02*
X006055Y004304D01*
X006055Y004382D02*
X004311Y004382D01*
X004429Y004225D02*
X006055Y004225D01*
X006055Y004147D02*
X004456Y004147D01*
X004456Y004068D02*
X006055Y004068D01*
X006055Y003990D02*
X004443Y003990D01*
X004527Y003911D02*
X004581Y003911D01*
X004741Y003731D02*
X004735Y003547D01*
X004735Y003291D02*
X004991Y003301D01*
X005151Y003301D01*
X005165Y003291D01*
X005184Y003283D02*
X006055Y003283D01*
X006055Y003361D02*
X005541Y003361D01*
X005541Y003401D02*
X006055Y003401D01*
X006055Y002926D01*
X006133Y002849D01*
X006115Y002831D01*
X006115Y002557D01*
X006510Y002557D01*
X006510Y002477D01*
X006115Y002477D01*
X006115Y002203D01*
X006197Y002121D01*
X006511Y002121D01*
X006511Y002477D01*
X006590Y002477D01*
X006590Y002121D01*
X006904Y002121D01*
X006911Y002128D01*
X006911Y000581D01*
X006784Y000581D01*
X006851Y000742D01*
X006851Y001541D01*
X006774Y001724D01*
X006634Y001865D01*
X006450Y001941D01*
X006251Y001941D01*
X006173Y001909D01*
X005841Y002241D01*
X005841Y002839D01*
X005804Y002927D01*
X005736Y002995D01*
X005636Y003095D01*
X005601Y003109D01*
X005601Y003118D01*
X005541Y003178D01*
X005541Y003272D01*
X005184Y003272D01*
X005184Y003310D01*
X005541Y003310D01*
X005541Y003401D01*
X005541Y003204D02*
X006055Y003204D01*
X006055Y003126D02*
X005593Y003126D01*
X005684Y003047D02*
X006055Y003047D01*
X006055Y002969D02*
X005762Y002969D01*
X005819Y002890D02*
X006091Y002890D01*
X006115Y002812D02*
X005841Y002812D01*
X005841Y002733D02*
X006115Y002733D01*
X006115Y002654D02*
X005841Y002654D01*
X005841Y002576D02*
X006115Y002576D01*
X006115Y002419D02*
X005841Y002419D01*
X005841Y002497D02*
X006510Y002497D01*
X006511Y002419D02*
X006590Y002419D01*
X006590Y002340D02*
X006511Y002340D01*
X006511Y002262D02*
X006590Y002262D01*
X006590Y002183D02*
X006511Y002183D01*
X006624Y001869D02*
X006911Y001869D01*
X006911Y001791D02*
X006708Y001791D01*
X006780Y001712D02*
X006911Y001712D01*
X006911Y001633D02*
X006812Y001633D01*
X006845Y001555D02*
X006911Y001555D01*
X006911Y001476D02*
X006851Y001476D01*
X006851Y001398D02*
X006911Y001398D01*
X006911Y001319D02*
X006851Y001319D01*
X006851Y001241D02*
X006911Y001241D01*
X006911Y001162D02*
X006851Y001162D01*
X006851Y001084D02*
X006911Y001084D01*
X006911Y001005D02*
X006851Y001005D01*
X006851Y000927D02*
X006911Y000927D01*
X006911Y000848D02*
X006851Y000848D01*
X006851Y000769D02*
X006911Y000769D01*
X006911Y000691D02*
X006829Y000691D01*
X006797Y000612D02*
X006911Y000612D01*
X006351Y001141D02*
X006351Y001391D01*
X005601Y002141D01*
X005601Y002791D01*
X005501Y002891D01*
X005191Y002891D01*
X005165Y002917D01*
X005151Y002941D01*
X005071Y002871D01*
X004741Y002871D01*
X004735Y003035D01*
X004635Y002654D02*
X004511Y002654D01*
X004211Y002871D02*
X004066Y003035D01*
X004151Y002941D02*
X004136Y002917D01*
X004110Y002891D01*
X003651Y002891D01*
X003817Y002576D02*
X005361Y002576D01*
X005361Y002497D02*
X002667Y002497D01*
X002716Y002419D02*
X005361Y002419D01*
X005361Y002340D02*
X002716Y002340D01*
X002716Y002262D02*
X005361Y002262D01*
X005361Y002183D02*
X002716Y002183D01*
X002716Y002105D02*
X005361Y002105D01*
X005388Y002026D02*
X002716Y002026D01*
X002716Y001948D02*
X005455Y001948D01*
X005841Y002262D02*
X006115Y002262D01*
X006115Y002340D02*
X005841Y002340D01*
X005898Y002183D02*
X006135Y002183D01*
X006055Y002026D02*
X006911Y002026D01*
X006911Y001948D02*
X006133Y001948D01*
X005976Y002105D02*
X006911Y002105D01*
X006551Y003265D02*
X006551Y003641D01*
X005189Y003641D01*
X005165Y003665D01*
X005051Y003711D01*
X004971Y003731D01*
X004741Y003731D01*
X004796Y004461D02*
X004821Y004461D01*
X005225Y004891D02*
X005551Y004891D01*
X005651Y004991D01*
X005651Y005341D01*
X006451Y005341D01*
X006551Y005241D01*
X006551Y004865D01*
X006055Y004854D02*
X005853Y004854D01*
X005886Y004932D02*
X006055Y004932D01*
X006055Y005011D02*
X005891Y005011D01*
X005891Y005089D02*
X006055Y005089D01*
X006055Y004775D02*
X005774Y004775D01*
X005695Y004697D02*
X006055Y004697D01*
X006055Y004618D02*
X005680Y004618D01*
X005680Y004540D02*
X006055Y004540D01*
X006060Y004461D02*
X005628Y004461D01*
X005556Y003911D02*
X006055Y003911D01*
X006551Y004117D02*
X006551Y003641D01*
X005651Y005341D02*
X004401Y005341D01*
X004251Y005491D01*
X004251Y005875D01*
X004246Y005880D01*
X004081Y005089D02*
X004038Y005089D01*
X004081Y005011D02*
X003960Y005011D01*
X003901Y004091D02*
X003856Y004032D01*
X003801Y003891D01*
X003801Y003791D01*
X003827Y003665D01*
X004136Y003665D01*
X004227Y003665D01*
X004161Y003681D01*
X004066Y003547D01*
X003804Y003283D02*
X003062Y003283D01*
X003079Y003361D02*
X003742Y003361D01*
X003708Y003440D02*
X003157Y003440D01*
X003180Y003518D02*
X003634Y003518D01*
X003595Y003597D02*
X003180Y003597D01*
X003274Y003676D02*
X003579Y003676D01*
X003561Y003754D02*
X003353Y003754D01*
X003479Y003204D02*
X003096Y003204D01*
X003096Y003126D02*
X003383Y003126D01*
X003331Y003047D02*
X003096Y003047D01*
X003096Y002969D02*
X003298Y002969D01*
X003296Y002890D02*
X003096Y002890D01*
X003096Y002812D02*
X003299Y002812D01*
X003332Y002733D02*
X003095Y002733D01*
X003017Y002654D02*
X003385Y002654D01*
X003484Y002576D02*
X001791Y002576D01*
X001791Y002497D02*
X002054Y002497D01*
X002006Y002419D02*
X001791Y002419D01*
X001791Y002340D02*
X002006Y002340D01*
X002006Y002262D02*
X001791Y002262D01*
X001791Y002183D02*
X002006Y002183D01*
X002006Y002105D02*
X001791Y002105D01*
X001791Y002026D02*
X002006Y002026D01*
X002006Y001948D02*
X001791Y001948D01*
X001791Y001869D02*
X002070Y001869D01*
X001993Y001791D02*
X001791Y001791D01*
X001791Y001712D02*
X001922Y001712D01*
X001889Y001633D02*
X001791Y001633D01*
X001791Y001555D02*
X001856Y001555D01*
X001851Y001476D02*
X001791Y001476D01*
X001791Y001398D02*
X001851Y001398D01*
X001851Y001319D02*
X001791Y001319D01*
X001791Y001241D02*
X001851Y001241D01*
X001851Y001162D02*
X001791Y001162D01*
X001791Y001084D02*
X001851Y001084D01*
X001851Y001005D02*
X001791Y001005D01*
X001791Y000927D02*
X001851Y000927D01*
X001851Y000848D02*
X001791Y000848D01*
X001791Y000769D02*
X001851Y000769D01*
X001872Y000691D02*
X001791Y000691D01*
X001791Y000612D02*
X001904Y000612D01*
X002351Y001141D02*
X002351Y002181D01*
X002361Y002191D01*
X002651Y001869D02*
X003077Y001869D01*
X002993Y001791D02*
X002708Y001791D01*
X002780Y001712D02*
X002922Y001712D01*
X002889Y001633D02*
X002812Y001633D01*
X002845Y001555D02*
X002856Y001555D01*
X002851Y001476D02*
X002851Y001476D01*
X002851Y001398D02*
X002851Y001398D01*
X002851Y001319D02*
X002851Y001319D01*
X002851Y001241D02*
X002851Y001241D01*
X002851Y001162D02*
X002851Y001162D01*
X002851Y001084D02*
X002851Y001084D01*
X002851Y001005D02*
X002851Y001005D01*
X002851Y000927D02*
X002851Y000927D01*
X002851Y000848D02*
X002851Y000848D01*
X002851Y000769D02*
X002851Y000769D01*
X002872Y000691D02*
X002829Y000691D01*
X002797Y000612D02*
X002904Y000612D01*
X003624Y001869D02*
X004077Y001869D01*
X003993Y001791D02*
X003708Y001791D01*
X003780Y001712D02*
X003922Y001712D01*
X003889Y001633D02*
X003812Y001633D01*
X003845Y001555D02*
X003856Y001555D01*
X003851Y001476D02*
X003851Y001476D01*
X003851Y001398D02*
X003851Y001398D01*
X003851Y001319D02*
X003851Y001319D01*
X003851Y001241D02*
X003851Y001241D01*
X003851Y001162D02*
X003851Y001162D01*
X003851Y001084D02*
X003851Y001084D01*
X003851Y001005D02*
X003851Y001005D01*
X003851Y000927D02*
X003851Y000927D01*
X003851Y000848D02*
X003851Y000848D01*
X003851Y000769D02*
X003851Y000769D01*
X003872Y000691D02*
X003829Y000691D01*
X003797Y000612D02*
X003904Y000612D01*
X004624Y001869D02*
X005077Y001869D01*
X004993Y001791D02*
X004708Y001791D01*
X004780Y001712D02*
X004922Y001712D01*
X004889Y001633D02*
X004812Y001633D01*
X004845Y001555D02*
X004856Y001555D01*
X004851Y001476D02*
X004851Y001476D01*
X004851Y001398D02*
X004851Y001398D01*
X004851Y001319D02*
X004851Y001319D01*
X004851Y001241D02*
X004851Y001241D01*
X004851Y001162D02*
X004851Y001162D01*
X004851Y001084D02*
X004851Y001084D01*
X004851Y001005D02*
X004851Y001005D01*
X004851Y000927D02*
X004851Y000927D01*
X004851Y000848D02*
X004851Y000848D01*
X004851Y000769D02*
X004851Y000769D01*
X004872Y000691D02*
X004829Y000691D01*
X004797Y000612D02*
X004904Y000612D01*
X004211Y002871D02*
X004231Y002921D01*
X004151Y002941D01*
X004101Y004091D02*
X003901Y004091D01*
X003262Y005168D02*
X002626Y005168D01*
X002761Y005246D02*
X002840Y005246D01*
X002840Y005325D02*
X002761Y005325D01*
X002761Y005404D02*
X002840Y005404D01*
X002840Y005482D02*
X002761Y005482D01*
X002401Y004891D02*
X001977Y004467D01*
X001977Y003841D01*
X002348Y004304D02*
X002353Y004304D01*
X002401Y004891D02*
X002001Y005291D01*
X002001Y005567D01*
X001943Y002890D02*
X002018Y002890D01*
X002018Y002812D02*
X001943Y002812D01*
X001943Y002733D02*
X002018Y002733D01*
X006329Y009409D02*
X006357Y009409D01*
X006328Y010273D02*
X006358Y010273D01*
D23*
X006401Y010441D03*
X006351Y009241D03*
X004451Y007641D03*
X004151Y008791D03*
X003401Y008741D03*
X002851Y008591D03*
X002101Y008941D03*
X002651Y010191D03*
X003151Y012141D03*
X003751Y006691D03*
X002951Y004991D03*
X002401Y004891D03*
X003651Y002891D03*
X004101Y004091D03*
X004651Y004191D03*
X005951Y002341D03*
D24*
X003751Y007841D02*
X003745Y007846D01*
X003745Y008203D01*
X003501Y008208D02*
X003501Y008641D01*
X003436Y008706D01*
X003151Y008991D01*
X003151Y009341D01*
X002951Y009541D01*
X002725Y009541D01*
X002651Y010191D02*
X002201Y010191D01*
X002101Y010291D01*
X002101Y010622D01*
X003501Y008208D02*
X003495Y008203D01*
X003995Y008203D02*
X004001Y008208D01*
X004001Y009641D01*
X004049Y009690D01*
X004049Y009841D01*
X004401Y008441D02*
X004245Y008286D01*
X004245Y008203D01*
X002851Y008115D02*
X002801Y008065D01*
D25*
X005152Y009841D02*
X005152Y010392D01*
X005251Y010491D01*
X005251Y011041D01*
X005351Y011141D01*
X005351Y011989D01*
X005199Y012141D01*
X006351Y012092D02*
X006351Y013141D01*
X006401Y012142D02*
X006351Y012092D01*
X005927Y009841D02*
X005152Y009841D01*
X005201Y009792D01*
X005201Y008441D01*
X005851Y008441D02*
X005851Y009765D01*
X005927Y009841D01*
X003703Y012141D02*
X003151Y012141D01*
D26*
X002851Y008591D02*
X002851Y008115D01*
X003751Y007841D02*
X003751Y007641D01*
X005851Y008441D02*
X005927Y008441D01*
D27*
X005851Y008441D02*
X005201Y008441D01*
X004401Y008441D01*
X003751Y007641D02*
X004351Y007041D01*
X005551Y007041D01*
X005851Y006741D01*
M02*
