%
M48
M72
T01C0.0150
T02C0.0400
%
T01
X2401Y4891
X2951Y4991
X3751Y6691
X4451Y7641
X4151Y8791
X3401Y8741
X2851Y8591
X2101Y8941
X2651Y10191
X3151Y12141
X6351Y9241
X6401Y10441
X4651Y4191
X4101Y4091
X3651Y2891
X5951Y2341
T02
X2351Y1141
X3351Y1141
X4351Y1141
X5351Y1141
X6351Y1141
X5351Y11141
X4351Y11141
X3351Y11141
X3351Y13141
X4351Y13141
X5351Y13141
X6351Y13141
X2351Y13141
M30
