%
M48
M72
T01C0.0150
T02C0.0400
%
T01
X831Y4901
X791Y5891
X2031Y9541
X2671Y9941
X3111Y9821
X3831Y10061
X3151Y11781
X4791Y11515
X4751Y9861
X4791Y6301
X5751Y4101
X4351Y2341
X2991Y5701
T02
X1191Y1141
X2191Y1141
X3191Y1141
X4191Y1141
X5191Y1141
X1191Y7141
X1191Y8141
X1191Y9141
X1191Y13141
X2191Y13141
X3191Y13141
X4191Y13141
X5191Y13141
M30
