G75*
G70*
%OFA0B0*%
%FSLAX24Y24*%
%IPPOS*%
%LPD*%
%AMOC8*
5,1,8,0,0,1.08239X$1,22.5*
%
%ADD10R,0.0137X0.0550*%
%ADD11R,0.0512X0.0591*%
%ADD12R,0.0551X0.0551*%
%ADD13R,0.0591X0.0512*%
%ADD14R,0.0310X0.0350*%
%ADD15R,0.0394X0.0551*%
%ADD16R,0.2280X0.1000*%
%ADD17R,0.0709X0.0551*%
%ADD18R,0.0709X0.0630*%
D10*
X002337Y006980D03*
X002587Y006980D03*
X002837Y006980D03*
X003087Y006980D03*
X003086Y009303D03*
X002836Y009303D03*
X002586Y009303D03*
X002336Y009303D03*
D11*
X001317Y002891D03*
X001317Y003891D03*
X001317Y004891D03*
X001317Y005891D03*
X002066Y005891D03*
X002066Y004891D03*
X002066Y003891D03*
X002066Y002891D03*
D12*
X005441Y004643D03*
X005441Y006139D03*
D13*
X004441Y005515D03*
X004441Y004767D03*
X003441Y005015D03*
X003441Y004267D03*
X003191Y010517D03*
X003191Y011265D03*
X004191Y011515D03*
X004191Y010767D03*
D14*
X003831Y003041D03*
X003451Y002241D03*
X003071Y003041D03*
D15*
X004817Y003324D03*
X005191Y002458D03*
X005566Y003324D03*
D16*
X004691Y007291D03*
X004691Y008991D03*
D17*
X002191Y010722D03*
X002191Y012060D03*
D18*
X000941Y011692D03*
X000941Y010590D03*
X005441Y010590D03*
X005441Y011692D03*
M02*
