G75*
%MOIN*%
%OFA0B0*%
%FSLAX24Y24*%
%IPPOS*%
%LPD*%
%AMOC8*
5,1,8,0,0,1.08239X$1,22.5*
%
%ADD10C,0.0000*%
%ADD11C,0.0030*%
%ADD12C,0.0080*%
%ADD13R,0.0217X0.0118*%
%ADD14C,0.0040*%
%ADD15R,0.0197X0.0374*%
%ADD16R,0.0374X0.0197*%
%ADD17R,0.0083X0.0134*%
%ADD18R,0.0114X0.0315*%
%ADD19R,0.0295X0.0571*%
%ADD20C,0.0050*%
%ADD21C,0.0060*%
%ADD22R,0.0200X0.0200*%
D10*
X002096Y001420D02*
X008096Y001420D01*
X008096Y015420D01*
X002096Y015420D01*
X002096Y001420D01*
D11*
X003928Y004282D02*
X003866Y004343D01*
X003866Y004467D01*
X003928Y004528D01*
X004236Y004528D01*
X004174Y004650D02*
X004236Y004712D01*
X004236Y004835D01*
X004174Y004897D01*
X004113Y004897D01*
X003866Y004650D01*
X003866Y004897D01*
X003928Y004282D02*
X004236Y004282D01*
X004323Y003435D02*
X004076Y003435D01*
X004137Y003312D02*
X004076Y003250D01*
X004076Y003127D01*
X004137Y003065D01*
X004261Y003065D01*
X004323Y003127D01*
X004323Y003250D02*
X004199Y003312D01*
X004137Y003312D01*
X004323Y003250D02*
X004323Y003435D01*
X004444Y003435D02*
X004567Y003435D01*
X004506Y003435D02*
X004506Y003127D01*
X004567Y003065D01*
X004629Y003065D01*
X004691Y003127D01*
X005643Y004155D02*
X005581Y004217D01*
X005581Y004278D01*
X005643Y004340D01*
X005951Y004340D01*
X005951Y004278D02*
X005951Y004402D01*
X005766Y004523D02*
X005766Y004770D01*
X005951Y004708D02*
X005766Y004523D01*
X005581Y004708D02*
X005951Y004708D01*
X006307Y004485D02*
X006554Y004485D01*
X006676Y004485D02*
X006923Y004485D01*
X006799Y004485D02*
X006799Y004855D01*
X006923Y004732D01*
X007044Y004794D02*
X007106Y004855D01*
X007229Y004855D01*
X007291Y004794D01*
X007291Y004547D01*
X007229Y004485D01*
X007106Y004485D01*
X007044Y004547D01*
X006554Y004732D02*
X006431Y004855D01*
X006431Y004485D01*
X007087Y005355D02*
X007026Y005417D01*
X007026Y005478D01*
X007087Y005540D01*
X007273Y005540D01*
X007273Y005417D01*
X007211Y005355D01*
X007087Y005355D01*
X007273Y005540D02*
X007149Y005664D01*
X007026Y005725D01*
X007394Y005664D02*
X007394Y005417D01*
X007456Y005355D01*
X007641Y005355D01*
X007641Y005725D01*
X007456Y005725D01*
X007394Y005664D01*
X007483Y006988D02*
X007421Y007050D01*
X007421Y007174D01*
X007483Y007235D01*
X007483Y007357D02*
X007421Y007418D01*
X007421Y007542D01*
X007483Y007604D01*
X007729Y007604D01*
X007791Y007542D01*
X007791Y007418D01*
X007729Y007357D01*
X007668Y007357D01*
X007606Y007418D01*
X007606Y007604D01*
X007729Y007235D02*
X007791Y007174D01*
X007791Y007050D01*
X007729Y006988D01*
X007483Y006988D01*
X006500Y007623D02*
X006315Y007623D01*
X006253Y007685D01*
X006253Y007932D01*
X006315Y007994D01*
X006500Y007994D01*
X006500Y007623D01*
X006131Y007808D02*
X005885Y007808D01*
X005946Y007623D02*
X005946Y007994D01*
X006131Y007808D01*
X005429Y006525D02*
X005491Y006464D01*
X005491Y006217D01*
X005429Y006155D01*
X005306Y006155D01*
X005244Y006217D01*
X005123Y006155D02*
X004876Y006155D01*
X004999Y006155D02*
X004999Y006525D01*
X005123Y006402D01*
X005244Y006464D02*
X005306Y006525D01*
X005429Y006525D01*
X005835Y006234D02*
X006081Y006234D01*
X006081Y006048D01*
X005958Y006110D01*
X005896Y006110D01*
X005835Y006048D01*
X005835Y005925D01*
X005896Y005863D01*
X006020Y005863D01*
X006081Y005925D01*
X006203Y005925D02*
X006203Y006172D01*
X006265Y006234D01*
X006450Y006234D01*
X006450Y005863D01*
X006265Y005863D01*
X006203Y005925D01*
X005189Y007905D02*
X005066Y007905D01*
X005004Y007967D01*
X004883Y007967D02*
X004883Y008028D01*
X004821Y008090D01*
X004697Y008090D01*
X004636Y008028D01*
X004636Y007967D01*
X004697Y007905D01*
X004821Y007905D01*
X004883Y007967D01*
X004821Y008090D02*
X004883Y008152D01*
X004883Y008214D01*
X004821Y008275D01*
X004697Y008275D01*
X004636Y008214D01*
X004636Y008152D01*
X004697Y008090D01*
X004467Y008105D02*
X004467Y007735D01*
X004221Y007735D01*
X004099Y007735D02*
X003852Y007735D01*
X003976Y007735D02*
X003976Y008105D01*
X004099Y007982D01*
X004569Y006525D02*
X004507Y006464D01*
X004754Y006217D01*
X004692Y006155D01*
X004569Y006155D01*
X004507Y006217D01*
X004507Y006464D01*
X004569Y006525D02*
X004692Y006525D01*
X004754Y006464D01*
X004754Y006217D01*
X005189Y007905D02*
X005251Y007967D01*
X005251Y008214D01*
X005189Y008275D01*
X005066Y008275D01*
X005004Y008214D01*
X005066Y009655D02*
X005004Y009717D01*
X005066Y009655D02*
X005189Y009655D01*
X005251Y009717D01*
X005251Y009964D01*
X005189Y010025D01*
X005066Y010025D01*
X005004Y009964D01*
X004883Y009840D02*
X004883Y009717D01*
X004821Y009655D01*
X004697Y009655D01*
X004636Y009717D01*
X004636Y009778D01*
X004697Y009840D01*
X004883Y009840D01*
X004759Y009964D01*
X004636Y010025D01*
X004697Y011405D02*
X004697Y011775D01*
X004883Y011590D01*
X004636Y011590D01*
X005004Y011467D02*
X005066Y011405D01*
X005189Y011405D01*
X005251Y011467D01*
X005251Y011714D01*
X005189Y011775D01*
X005066Y011775D01*
X005004Y011714D01*
X005785Y011492D02*
X005785Y011430D01*
X006031Y011183D01*
X005785Y011183D01*
X005785Y011492D02*
X005846Y011554D01*
X005970Y011554D01*
X006031Y011492D01*
X006153Y011492D02*
X006215Y011554D01*
X006400Y011554D01*
X006400Y011183D01*
X006215Y011183D01*
X006153Y011245D01*
X006153Y011492D01*
X006121Y012903D02*
X005875Y012903D01*
X005998Y012903D02*
X005998Y013274D01*
X006121Y013150D01*
X006243Y013212D02*
X006243Y012965D01*
X006305Y012903D01*
X006490Y012903D01*
X006490Y013274D01*
X006305Y013274D01*
X006243Y013212D01*
X005251Y013257D02*
X005189Y013195D01*
X005066Y013195D01*
X005004Y013257D01*
X004883Y013195D02*
X004636Y013442D01*
X004636Y013504D01*
X004697Y013565D01*
X004821Y013565D01*
X004883Y013504D01*
X005004Y013504D02*
X005066Y013565D01*
X005189Y013565D01*
X005251Y013504D01*
X005251Y013257D01*
X004883Y013195D02*
X004636Y013195D01*
X003241Y012691D02*
X002871Y012691D01*
X002871Y012813D02*
X002871Y013060D01*
X003118Y013060D02*
X002871Y012813D01*
X003056Y012691D02*
X003056Y012445D01*
X003056Y012323D02*
X003056Y012200D01*
X003056Y012323D02*
X002933Y012323D01*
X002871Y012261D01*
X002871Y012138D01*
X002933Y012076D01*
X003179Y012076D01*
X003241Y012138D01*
X003241Y012261D01*
X003179Y012323D01*
X003241Y012445D02*
X002871Y012445D01*
X002518Y012383D02*
X002271Y012507D01*
X002518Y012630D01*
X002518Y012751D02*
X002641Y012875D01*
X002271Y012875D01*
X002271Y012998D02*
X002271Y012751D01*
X002271Y013120D02*
X002518Y013120D01*
X002518Y013243D02*
X002518Y013305D01*
X002518Y013243D02*
X002394Y013120D01*
X002333Y013427D02*
X002579Y013674D01*
X002333Y013674D01*
X002271Y013612D01*
X002271Y013488D01*
X002333Y013427D01*
X002579Y013427D01*
X002641Y013488D01*
X002641Y013612D01*
X002579Y013674D01*
X003118Y013060D02*
X003118Y012813D01*
X003118Y011955D02*
X003056Y011893D01*
X002994Y011955D01*
X002933Y011955D01*
X002871Y011893D01*
X002871Y011770D01*
X002933Y011708D01*
X003056Y011586D02*
X003056Y011340D01*
X003118Y011218D02*
X002871Y010971D01*
X002871Y011218D01*
X002871Y010850D02*
X003241Y010850D01*
X003118Y010971D02*
X003118Y011218D01*
X003056Y010850D02*
X003056Y010603D01*
X003241Y010482D02*
X003118Y010358D01*
X003241Y010235D01*
X002871Y010235D01*
X002933Y010113D02*
X002871Y010051D01*
X002871Y009928D01*
X002933Y009866D01*
X003179Y010113D01*
X002933Y010113D01*
X002933Y009866D02*
X003179Y009866D01*
X003241Y009928D01*
X003241Y010051D01*
X003179Y010113D01*
X003179Y009745D02*
X002933Y009498D01*
X002871Y009560D01*
X002871Y009683D01*
X002933Y009745D01*
X003179Y009745D01*
X003241Y009683D01*
X003241Y009560D01*
X003179Y009498D01*
X002933Y009498D01*
X002933Y009377D02*
X002871Y009315D01*
X002871Y009191D01*
X002933Y009130D01*
X003056Y009130D02*
X003118Y009253D01*
X003118Y009315D01*
X003056Y009377D01*
X002933Y009377D01*
X003056Y009130D02*
X003241Y009130D01*
X003241Y009377D01*
X002641Y009315D02*
X002641Y009130D01*
X002271Y009130D01*
X002394Y009130D02*
X002394Y009315D01*
X002456Y009377D01*
X002579Y009377D01*
X002641Y009315D01*
X002641Y009498D02*
X002641Y009745D01*
X002641Y009498D02*
X002271Y009498D01*
X002271Y009377D02*
X002394Y009253D01*
X002456Y009498D02*
X002456Y009621D01*
X002394Y010235D02*
X002394Y010420D01*
X002456Y010482D01*
X002579Y010482D01*
X002641Y010420D01*
X002641Y010235D01*
X002271Y010235D01*
X002333Y010603D02*
X002271Y010665D01*
X002271Y010788D01*
X002333Y010850D01*
X002456Y010850D01*
X002518Y010788D01*
X002518Y010665D01*
X002456Y010603D01*
X002333Y010603D01*
X002333Y010971D02*
X002271Y011033D01*
X002333Y011095D01*
X002271Y011156D01*
X002333Y011218D01*
X002518Y011218D01*
X002456Y011340D02*
X002518Y011401D01*
X002518Y011525D01*
X002456Y011586D01*
X002394Y011586D01*
X002394Y011340D01*
X002333Y011340D02*
X002456Y011340D01*
X002333Y011340D02*
X002271Y011401D01*
X002271Y011525D01*
X002271Y011708D02*
X002518Y011708D01*
X002518Y011831D02*
X002518Y011893D01*
X002518Y011831D02*
X002394Y011708D01*
X002333Y010971D02*
X002518Y010971D01*
X002871Y010603D02*
X003241Y010603D01*
X003241Y010482D02*
X002871Y010482D01*
X003179Y011708D02*
X003241Y011770D01*
X003241Y011893D01*
X003179Y011955D01*
X003118Y011955D01*
X003056Y011893D02*
X003056Y011831D01*
X005775Y009732D02*
X005775Y009670D01*
X005836Y009608D01*
X005775Y009547D01*
X005775Y009485D01*
X005836Y009423D01*
X005960Y009423D01*
X006021Y009485D01*
X005898Y009608D02*
X005836Y009608D01*
X005775Y009732D02*
X005836Y009794D01*
X005960Y009794D01*
X006021Y009732D01*
X006143Y009732D02*
X006143Y009485D01*
X006205Y009423D01*
X006390Y009423D01*
X006390Y009794D01*
X006205Y009794D01*
X006143Y009732D01*
X007421Y009147D02*
X007483Y009147D01*
X007729Y009394D01*
X007791Y009394D01*
X007791Y009147D01*
X007729Y009025D02*
X007791Y008964D01*
X007791Y008840D01*
X007729Y008778D01*
X007483Y008778D01*
X007421Y008840D01*
X007421Y008964D01*
X007483Y009025D01*
X007523Y010528D02*
X007461Y010590D01*
X007461Y010714D01*
X007523Y010775D01*
X007523Y010897D02*
X007461Y010958D01*
X007461Y011082D01*
X007523Y011144D01*
X007646Y011144D01*
X007708Y011082D01*
X007708Y011020D01*
X007646Y010897D01*
X007831Y010897D01*
X007831Y011144D01*
X007769Y010775D02*
X007831Y010714D01*
X007831Y010590D01*
X007769Y010528D01*
X007523Y010528D01*
X007483Y012238D02*
X007421Y012300D01*
X007421Y012424D01*
X007483Y012485D01*
X007483Y012607D02*
X007421Y012668D01*
X007421Y012792D01*
X007483Y012854D01*
X007544Y012854D01*
X007606Y012792D01*
X007606Y012730D01*
X007606Y012792D02*
X007668Y012854D01*
X007729Y012854D01*
X007791Y012792D01*
X007791Y012668D01*
X007729Y012607D01*
X007729Y012485D02*
X007791Y012424D01*
X007791Y012300D01*
X007729Y012238D01*
X007483Y012238D01*
X003207Y006527D02*
X003146Y006465D01*
X003084Y006465D01*
X003022Y006527D01*
X003022Y006835D01*
X002961Y006835D02*
X003084Y006835D01*
X002839Y006774D02*
X002777Y006835D01*
X002654Y006835D01*
X002592Y006774D01*
X002592Y006712D01*
X002654Y006650D01*
X002592Y006588D01*
X002592Y006527D01*
X002654Y006465D01*
X002777Y006465D01*
X002839Y006527D01*
X002716Y006650D02*
X002654Y006650D01*
X007266Y003495D02*
X007266Y003434D01*
X007513Y003187D01*
X007513Y003125D01*
X007634Y003187D02*
X007634Y003434D01*
X007696Y003495D01*
X007881Y003495D01*
X007881Y003125D01*
X007696Y003125D01*
X007634Y003187D01*
X007513Y003495D02*
X007266Y003495D01*
D12*
X006232Y004996D02*
X005799Y004996D01*
X005799Y005784D01*
X006232Y005784D01*
X006232Y004996D01*
X006232Y006746D02*
X005799Y006746D01*
X005799Y007534D01*
X006232Y007534D01*
X006232Y006746D01*
X006232Y008496D02*
X005799Y008496D01*
X005799Y009284D01*
X006232Y009284D01*
X006232Y008496D01*
X006232Y010246D02*
X005799Y010246D01*
X005799Y011034D01*
X006232Y011034D01*
X006232Y010246D01*
X006232Y011996D02*
X005799Y011996D01*
X005799Y012784D01*
X006232Y012784D01*
X006232Y011996D01*
D13*
X006380Y012134D03*
X006380Y012646D03*
X005652Y012390D03*
X006380Y010896D03*
X006380Y010384D03*
X005652Y010640D03*
X006380Y009146D03*
X006380Y008634D03*
X006380Y007396D03*
X006380Y006884D03*
X005652Y007140D03*
X006380Y005646D03*
X006380Y005134D03*
X005652Y005390D03*
X005652Y008890D03*
D14*
X005156Y009225D02*
X004876Y009225D01*
X004876Y009560D02*
X005156Y009560D01*
X005156Y010975D02*
X004876Y010975D01*
X004876Y011310D02*
X005156Y011310D01*
X005156Y012725D02*
X004876Y012725D01*
X004876Y013060D02*
X005156Y013060D01*
X006846Y012530D02*
X006846Y012250D01*
X007181Y012250D02*
X007181Y012530D01*
X007181Y010780D02*
X007181Y010500D01*
X006846Y010500D02*
X006846Y010780D01*
X006846Y009030D02*
X006846Y008750D01*
X007181Y008750D02*
X007181Y009030D01*
X007181Y007280D02*
X007181Y007000D01*
X006846Y007000D02*
X006846Y007280D01*
X006894Y005247D02*
X006894Y004933D01*
X007358Y004933D01*
X007358Y005247D01*
X006894Y005247D01*
X006996Y004430D02*
X006696Y004430D01*
X006696Y003910D02*
X006986Y003910D01*
X007078Y003577D02*
X007078Y003263D01*
X006614Y003263D01*
X006614Y003577D01*
X007078Y003577D01*
X005156Y005725D02*
X004876Y005725D01*
X004876Y006060D02*
X005156Y006060D01*
X005156Y007475D02*
X004876Y007475D01*
X004876Y007810D02*
X005156Y007810D01*
X004236Y008250D02*
X003956Y008250D01*
X003956Y008585D02*
X004236Y008585D01*
D15*
X004324Y008418D03*
X003864Y008418D03*
X004787Y007642D03*
X005247Y007642D03*
X005247Y005892D03*
X004787Y005892D03*
X004787Y009392D03*
X005247Y009392D03*
X005247Y011142D03*
X004787Y011142D03*
X004787Y012892D03*
X005247Y012892D03*
D16*
X007014Y012622D03*
X007014Y012162D03*
X007014Y010872D03*
X007014Y010412D03*
X007014Y009122D03*
X007014Y008662D03*
X007014Y007372D03*
X007014Y006912D03*
D17*
X006872Y005090D03*
X007380Y005090D03*
X007100Y003420D03*
X006592Y003420D03*
D18*
X007021Y003420D03*
X007301Y005090D03*
D19*
X007128Y004170D03*
X006558Y004170D03*
D20*
X005546Y004020D02*
X005546Y004820D01*
X005146Y004820D01*
X005146Y004020D01*
X005546Y004020D01*
X005296Y004020D02*
X005298Y004033D01*
X005303Y004046D01*
X005312Y004057D01*
X005323Y004064D01*
X005336Y004069D01*
X005349Y004070D01*
X005363Y004067D01*
X005375Y004061D01*
X005385Y004052D01*
X005392Y004040D01*
X005396Y004027D01*
X005396Y004013D01*
X005392Y004000D01*
X005385Y003988D01*
X005375Y003979D01*
X005363Y003973D01*
X005349Y003970D01*
X005336Y003971D01*
X005323Y003976D01*
X005312Y003983D01*
X005303Y003994D01*
X005298Y004007D01*
X005296Y004020D01*
X004746Y003870D02*
X004746Y003470D01*
X003946Y003470D01*
X003946Y003870D01*
X004746Y003870D01*
X004696Y003670D02*
X004698Y003683D01*
X004703Y003696D01*
X004712Y003707D01*
X004723Y003714D01*
X004736Y003719D01*
X004749Y003720D01*
X004763Y003717D01*
X004775Y003711D01*
X004785Y003702D01*
X004792Y003690D01*
X004796Y003677D01*
X004796Y003663D01*
X004792Y003650D01*
X004785Y003638D01*
X004775Y003629D01*
X004763Y003623D01*
X004749Y003620D01*
X004736Y003621D01*
X004723Y003626D01*
X004712Y003633D01*
X004703Y003644D01*
X004698Y003657D01*
X004696Y003670D01*
X004271Y004187D02*
X004271Y005307D01*
X003810Y005307D01*
X003810Y004187D01*
X004271Y004187D01*
D21*
X003346Y006920D02*
X002346Y006920D01*
X002096Y006920D01*
X002096Y008920D01*
X002346Y008920D01*
X002346Y006920D01*
X003346Y006920D02*
X003346Y008920D01*
X002346Y008920D01*
D22*
X002846Y008420D03*
X002846Y007420D03*
M02*
