G75*
%MOIN*%
%OFA0B0*%
%FSLAX24Y24*%
%IPPOS*%
%LPD*%
%AMOC8*
5,1,8,0,0,1.08239X$1,22.5*
%
%ADD10C,0.0600*%
%ADD11R,0.0394X0.0197*%
%ADD12R,0.0433X0.0394*%
%ADD13R,0.0394X0.0433*%
%ADD14R,0.0276X0.0197*%
%ADD15R,0.0512X0.0591*%
%ADD16R,0.0400X0.0200*%
%ADD17R,0.0354X0.0276*%
%ADD18R,0.0276X0.0354*%
%ADD19OC8,0.0850*%
%ADD20C,0.0160*%
%ADD21C,0.0310*%
%ADD22C,0.0120*%
%ADD23C,0.0320*%
D10*
X003096Y002120D02*
X003096Y002720D01*
X004096Y002720D02*
X004096Y002120D01*
X005096Y002120D02*
X005096Y002720D01*
X006096Y002720D02*
X006096Y002120D01*
X007096Y002120D02*
X007096Y002720D01*
X003146Y007420D02*
X002546Y007420D01*
X002546Y008420D02*
X003146Y008420D01*
X003096Y014120D02*
X003096Y014720D01*
X004096Y014720D02*
X004096Y014120D01*
X005096Y014120D02*
X005096Y014720D01*
X006096Y014720D02*
X006096Y014120D01*
X007096Y014120D02*
X007096Y014720D01*
D11*
X006370Y012646D03*
X006370Y012134D03*
X005662Y012390D03*
X006370Y010896D03*
X006370Y010384D03*
X005662Y010640D03*
X006370Y009146D03*
X006370Y008634D03*
X005662Y008890D03*
X006370Y007396D03*
X006370Y006884D03*
X005662Y007140D03*
X006370Y005646D03*
X006370Y005134D03*
X005662Y005390D03*
D12*
X005350Y005890D03*
X004681Y005890D03*
X004681Y007640D03*
X004430Y008420D03*
X004681Y009390D03*
X005350Y009390D03*
X005350Y011140D03*
X004681Y011140D03*
X004681Y012890D03*
X005350Y012890D03*
X003761Y008420D03*
X005350Y007640D03*
D13*
X007016Y007475D03*
X007016Y006805D03*
X007016Y008555D03*
X007016Y009225D03*
X007016Y010305D03*
X007016Y010975D03*
X007016Y012055D03*
X007016Y012725D03*
D14*
X006850Y005090D03*
X007362Y005090D03*
X007082Y003420D03*
X006570Y003420D03*
D15*
X006472Y004170D03*
X007220Y004170D03*
D16*
X004503Y004373D03*
X004503Y005081D03*
X003554Y005081D03*
X003554Y004727D03*
X003558Y004373D03*
D17*
X005346Y004214D03*
X005346Y004614D03*
D18*
X004552Y003670D03*
X004152Y003670D03*
D19*
X003086Y003920D03*
X002846Y005670D03*
X003596Y013290D03*
D20*
X004430Y008420D02*
X004681Y008420D01*
X006370Y008634D02*
X006370Y007396D01*
X006370Y006884D02*
X006370Y005646D01*
X006370Y005134D02*
X006414Y005090D01*
X006850Y005090D01*
X007220Y004170D02*
X007220Y003700D01*
X007616Y003700D01*
X007776Y003820D01*
X007526Y004170D02*
X007220Y004170D01*
X007220Y003700D02*
X007220Y003558D01*
X007082Y003420D01*
X007526Y004170D02*
X007696Y004340D01*
X007696Y004700D01*
X007696Y004940D01*
X007536Y005100D01*
X007372Y005100D01*
X007362Y005090D01*
X006472Y004170D02*
X006472Y003518D01*
X006570Y003420D01*
X006550Y003400D01*
X006016Y003400D01*
X007016Y006805D02*
X006937Y006884D01*
X006370Y006884D01*
X007016Y007475D02*
X007036Y007495D01*
X007036Y007890D01*
X007016Y008555D02*
X006937Y008634D01*
X006370Y008634D01*
X006370Y009146D02*
X006370Y010384D01*
X006937Y010384D01*
X007016Y010305D01*
X007036Y009650D02*
X007036Y009245D01*
X007016Y009225D01*
X007016Y010975D02*
X007036Y010995D01*
X007036Y011410D01*
X007016Y012055D02*
X006937Y012134D01*
X006370Y012134D01*
X006370Y010896D01*
X006370Y012646D02*
X006937Y012646D01*
X007016Y012725D01*
X007036Y012745D01*
X007036Y013130D01*
D21*
X007036Y013130D03*
X007036Y011410D03*
X007036Y009650D03*
X007036Y007890D03*
X007776Y003820D03*
X006016Y003400D03*
X005016Y003780D03*
X002936Y004780D03*
D22*
X002846Y004010D02*
X003086Y003920D01*
X002996Y003920D01*
X003256Y003660D01*
X004142Y003660D01*
X004152Y003670D01*
X004503Y004373D02*
X004823Y004373D01*
X004976Y004220D01*
X005340Y004220D01*
X005346Y004214D01*
X005346Y003870D01*
X005176Y003700D01*
X005016Y003780D01*
X005136Y003660D02*
X005176Y003700D01*
X005136Y003660D02*
X004562Y003660D01*
X004552Y003670D01*
X005346Y004614D02*
X005352Y004620D01*
X005696Y004620D01*
X005776Y004700D01*
X007696Y004700D01*
X005346Y004614D02*
X005346Y004890D01*
X005176Y005060D01*
X004525Y005060D01*
X004503Y005081D01*
X004485Y005100D01*
X004216Y005100D01*
X003896Y005420D01*
X003376Y005420D01*
X003126Y005670D01*
X002846Y005670D01*
X002936Y004780D02*
X003176Y004780D01*
X003216Y004740D01*
X003542Y004740D01*
X003554Y004727D01*
X003551Y004380D02*
X003216Y004380D01*
X002846Y004010D01*
X003551Y004380D02*
X003558Y004373D01*
D23*
X004681Y005890D02*
X004681Y007640D01*
X004681Y008420D01*
X004681Y009390D01*
X004681Y011140D01*
X004681Y012890D01*
X005350Y012890D02*
X005350Y012701D01*
X005662Y012390D01*
X005350Y011140D02*
X005350Y010951D01*
X005662Y010640D01*
X005350Y009390D02*
X005350Y009201D01*
X005662Y008890D01*
X005350Y007640D02*
X005350Y007451D01*
X005662Y007140D01*
X005350Y005890D02*
X005350Y005701D01*
X005662Y005390D01*
X003761Y008420D02*
X002846Y008420D01*
X003011Y008420D01*
M02*
