G75*
%MOIN*%
%OFA0B0*%
%FSLAX24Y24*%
%IPPOS*%
%LPD*%
%AMOC8*
5,1,8,0,0,1.08239X$1,22.5*
%
%ADD10R,0.0394X0.0197*%
%ADD11R,0.0433X0.0394*%
%ADD12R,0.0394X0.0433*%
%ADD13R,0.0276X0.0197*%
%ADD14R,0.0512X0.0591*%
%ADD15R,0.0400X0.0200*%
%ADD16R,0.0354X0.0276*%
%ADD17R,0.0276X0.0354*%
D10*
X005662Y005390D03*
X006370Y005134D03*
X006370Y005646D03*
X006370Y006884D03*
X006370Y007396D03*
X005662Y007140D03*
X006370Y008634D03*
X006370Y009146D03*
X005662Y008890D03*
X006370Y010384D03*
X006370Y010896D03*
X005662Y010640D03*
X006370Y012134D03*
X006370Y012646D03*
X005662Y012390D03*
D11*
X005350Y012890D03*
X004681Y012890D03*
X004681Y011140D03*
X005350Y011140D03*
X005350Y009390D03*
X004681Y009390D03*
X004430Y008420D03*
X004681Y007640D03*
X005350Y007640D03*
X005350Y005890D03*
X004681Y005890D03*
X003761Y008420D03*
D12*
X007016Y008555D03*
X007016Y009225D03*
X007016Y010305D03*
X007016Y010975D03*
X007016Y012055D03*
X007016Y012725D03*
X007016Y007475D03*
X007016Y006805D03*
D13*
X006850Y005090D03*
X007362Y005090D03*
X007082Y003420D03*
X006570Y003420D03*
D14*
X006472Y004170D03*
X007220Y004170D03*
D15*
X003558Y004373D03*
X003554Y004727D03*
X003554Y005081D03*
X004503Y005081D03*
X004503Y004373D03*
D16*
X005346Y004214D03*
X005346Y004614D03*
D17*
X004552Y003670D03*
X004152Y003670D03*
M02*
