G75*
%MOIN*%
%OFA0B0*%
%FSLAX24Y24*%
%IPPOS*%
%LPD*%
%AMOC8*
5,1,8,0,0,1.08239X$1,22.5*
%
%ADD10C,0.0600*%
%ADD11R,0.0630X0.0787*%
%ADD12R,0.0315X0.0315*%
%ADD13R,0.1200X0.1024*%
%ADD14OC8,0.0850*%
%ADD15C,0.0320*%
%ADD16C,0.0310*%
%ADD17C,0.0160*%
%ADD18C,0.0120*%
%ADD19C,0.0080*%
D10*
X003096Y002120D02*
X003096Y002720D01*
X004096Y002720D02*
X004096Y002120D01*
X005096Y002120D02*
X005096Y002720D01*
X006096Y002720D02*
X006096Y002120D01*
X007096Y002120D02*
X007096Y002720D01*
X003146Y007420D02*
X002546Y007420D01*
X002546Y008420D02*
X003146Y008420D01*
X003096Y014120D02*
X003096Y014720D01*
X004096Y014720D02*
X004096Y014120D01*
X005096Y014120D02*
X005096Y014720D01*
X006096Y014720D02*
X006096Y014120D01*
X007096Y014120D02*
X007096Y014720D01*
D11*
X004346Y009101D03*
X004346Y006739D03*
D12*
X006551Y003420D03*
X007141Y003420D03*
D13*
X006885Y004924D03*
X004822Y004900D03*
X004822Y010400D03*
X004822Y012320D03*
X006885Y012344D03*
X006885Y010424D03*
D14*
X003596Y013290D03*
X002846Y005670D03*
X003086Y003920D03*
D15*
X002656Y004430D02*
X002810Y004585D01*
X003361Y004585D01*
X003751Y004195D01*
X003751Y003875D01*
X003935Y003766D01*
X004063Y003760D01*
X004621Y003760D01*
X004621Y003859D01*
X004681Y004004D01*
X004792Y004115D01*
X004918Y004167D01*
X004918Y004804D01*
X004726Y004804D01*
X004726Y004128D01*
X004197Y004128D01*
X004146Y004138D01*
X004099Y004158D01*
X004056Y004186D01*
X004020Y004223D01*
X003992Y004265D01*
X003972Y004312D01*
X003962Y004363D01*
X003962Y004804D01*
X004726Y004804D01*
X004726Y004996D01*
X003962Y004996D01*
X003962Y005438D01*
X003972Y005488D01*
X003992Y005535D01*
X004020Y005578D01*
X004056Y005614D01*
X004099Y005643D01*
X004146Y005662D01*
X004197Y005672D01*
X004726Y005672D01*
X004726Y004996D01*
X004918Y004996D01*
X005682Y004996D01*
X005682Y005438D01*
X005672Y005488D01*
X005653Y005535D01*
X005624Y005578D01*
X005588Y005614D01*
X005545Y005643D01*
X005498Y005662D01*
X005448Y005672D01*
X004918Y005672D01*
X004918Y004996D01*
X004918Y004804D01*
X005682Y004804D01*
X005682Y004363D01*
X005682Y004360D01*
X006047Y004360D01*
X006045Y004364D01*
X006045Y005484D01*
X006082Y005572D01*
X006149Y005639D01*
X006237Y005676D01*
X007316Y005676D01*
X007316Y009672D01*
X006237Y009672D01*
X006149Y009708D01*
X006082Y009776D01*
X006045Y009864D01*
X006045Y010984D01*
X006082Y011072D01*
X006149Y011139D01*
X006237Y011176D01*
X007316Y011176D01*
X007316Y011592D01*
X006237Y011592D01*
X006149Y011628D01*
X006082Y011696D01*
X006045Y011784D01*
X006045Y012904D01*
X006082Y012992D01*
X006149Y013059D01*
X006237Y013096D01*
X007116Y013096D01*
X007116Y013140D01*
X004412Y013140D01*
X004403Y013131D01*
X004364Y013092D01*
X004726Y013092D01*
X004726Y012416D01*
X004726Y012224D01*
X004918Y012224D01*
X004918Y011548D01*
X005448Y011548D01*
X005498Y011558D01*
X005545Y011578D01*
X005588Y011606D01*
X005624Y011643D01*
X005653Y011685D01*
X005672Y011732D01*
X005682Y011783D01*
X005682Y012224D01*
X004918Y012224D01*
X004918Y012416D01*
X005682Y012416D01*
X005682Y012858D01*
X005672Y012908D01*
X005653Y012955D01*
X005624Y012998D01*
X005588Y013034D01*
X005545Y013063D01*
X005498Y013082D01*
X005448Y013092D01*
X004918Y013092D01*
X004918Y012416D01*
X004726Y012416D01*
X003962Y012416D01*
X003962Y012716D01*
X003871Y012625D01*
X003320Y012625D01*
X002931Y013015D01*
X002931Y013565D01*
X002945Y013580D01*
X002881Y013601D01*
X002802Y013641D01*
X002731Y013693D01*
X002669Y013755D01*
X002656Y013773D01*
X002656Y009180D01*
X003791Y009180D01*
X003791Y009543D01*
X003827Y009631D01*
X003895Y009698D01*
X003983Y009735D01*
X004012Y009735D01*
X003992Y009765D01*
X003972Y009812D01*
X003962Y009863D01*
X003962Y010304D01*
X004726Y010304D01*
X004918Y010304D01*
X004918Y009628D01*
X005448Y009628D01*
X005498Y009638D01*
X005545Y009658D01*
X005588Y009686D01*
X005624Y009723D01*
X005653Y009765D01*
X005672Y009812D01*
X005682Y009863D01*
X005682Y010304D01*
X004918Y010304D01*
X004918Y010496D01*
X005682Y010496D01*
X005682Y010938D01*
X005672Y010988D01*
X005653Y011035D01*
X005624Y011078D01*
X005588Y011114D01*
X005545Y011143D01*
X005498Y011162D01*
X005448Y011172D01*
X004918Y011172D01*
X004918Y010496D01*
X004726Y010496D01*
X004726Y010304D01*
X004726Y009727D01*
X004797Y009698D01*
X004864Y009631D01*
X004901Y009543D01*
X004901Y008660D01*
X004864Y008571D01*
X004797Y008504D01*
X004776Y008495D01*
X004776Y007937D01*
X004659Y007820D01*
X003538Y007820D01*
X003573Y007785D01*
X003625Y007714D01*
X003665Y007635D01*
X003692Y007551D01*
X003706Y007464D01*
X003706Y007420D01*
X002846Y007420D01*
X002846Y007420D01*
X003706Y007420D01*
X003706Y007376D01*
X003692Y007289D01*
X003665Y007205D01*
X003625Y007126D01*
X003573Y007055D01*
X003511Y006993D01*
X003439Y006941D01*
X003361Y006901D01*
X003277Y006874D01*
X003190Y006860D01*
X002846Y006860D01*
X002846Y007420D01*
X002846Y007420D01*
X003665Y007420D01*
X004346Y006739D01*
X004921Y006739D01*
X004921Y007158D01*
X004911Y007208D01*
X004891Y007256D01*
X004863Y007298D01*
X004827Y007335D01*
X004784Y007363D01*
X004737Y007383D01*
X004686Y007393D01*
X004346Y007393D01*
X004346Y006739D01*
X004346Y006739D01*
X004346Y006739D01*
X004921Y006739D01*
X004921Y006320D01*
X004911Y006269D01*
X004891Y006222D01*
X004863Y006179D01*
X004827Y006143D01*
X004784Y006115D01*
X004737Y006095D01*
X004686Y006085D01*
X004346Y006085D01*
X004346Y006739D01*
X004346Y007393D01*
X004005Y007393D01*
X003955Y007383D01*
X003908Y007363D01*
X003865Y007335D01*
X003829Y007298D01*
X003800Y007256D01*
X003781Y007208D01*
X003771Y007158D01*
X003771Y006739D01*
X004346Y006739D01*
X004346Y006739D01*
X004346Y006739D01*
X004346Y006085D01*
X004005Y006085D01*
X003955Y006095D01*
X003908Y006115D01*
X003865Y006143D01*
X003829Y006179D01*
X003800Y006222D01*
X003781Y006269D01*
X003771Y006320D01*
X003771Y006739D01*
X004346Y006739D01*
X004346Y006835D02*
X004346Y006835D01*
X004346Y007153D02*
X004346Y007153D01*
X004346Y006516D02*
X004346Y006516D01*
X004346Y006198D02*
X004346Y006198D01*
X004009Y005561D02*
X003511Y005561D01*
X003511Y005395D02*
X003511Y005945D01*
X003121Y006335D01*
X002656Y006335D01*
X002656Y006860D01*
X002846Y006860D01*
X002846Y007420D01*
X002846Y007153D02*
X002846Y007153D01*
X002656Y006835D02*
X003771Y006835D01*
X003771Y007153D02*
X003638Y007153D01*
X003705Y007472D02*
X007316Y007472D01*
X007316Y007790D02*
X003568Y007790D01*
X003936Y008420D02*
X004346Y008830D01*
X004346Y009101D01*
X003902Y009701D02*
X002656Y009701D01*
X002656Y009383D02*
X003791Y009383D01*
X003962Y010020D02*
X002656Y010020D01*
X002656Y010338D02*
X004726Y010338D01*
X004726Y010496D02*
X003962Y010496D01*
X003962Y010938D01*
X003972Y010988D01*
X003992Y011035D01*
X004020Y011078D01*
X004056Y011114D01*
X004099Y011143D01*
X004146Y011162D01*
X004197Y011172D01*
X004726Y011172D01*
X004726Y010496D01*
X004726Y010657D02*
X004918Y010657D01*
X004918Y010975D02*
X004726Y010975D01*
X004918Y010338D02*
X006045Y010338D01*
X006045Y010020D02*
X005682Y010020D01*
X005603Y009701D02*
X006167Y009701D01*
X006045Y010657D02*
X005682Y010657D01*
X005675Y010975D02*
X006045Y010975D01*
X006189Y011612D02*
X005594Y011612D01*
X005682Y011931D02*
X006045Y011931D01*
X006045Y012249D02*
X004918Y012249D01*
X004918Y011931D02*
X004726Y011931D01*
X004726Y012224D02*
X004726Y011548D01*
X004197Y011548D01*
X004146Y011558D01*
X004099Y011578D01*
X004056Y011606D01*
X004020Y011643D01*
X003992Y011685D01*
X003972Y011732D01*
X003962Y011783D01*
X003962Y012224D01*
X004726Y012224D01*
X004726Y012249D02*
X002656Y012249D01*
X002656Y011931D02*
X003962Y011931D01*
X004051Y011612D02*
X002656Y011612D01*
X002656Y011294D02*
X007316Y011294D01*
X007316Y009383D02*
X004901Y009383D01*
X004918Y009701D02*
X004790Y009701D01*
X004726Y010020D02*
X004918Y010020D01*
X004901Y009064D02*
X007316Y009064D01*
X007316Y008746D02*
X004901Y008746D01*
X004776Y008427D02*
X007316Y008427D01*
X007316Y008109D02*
X004776Y008109D01*
X004921Y007153D02*
X007316Y007153D01*
X007316Y006835D02*
X004921Y006835D01*
X004921Y006516D02*
X007316Y006516D01*
X007316Y006198D02*
X004875Y006198D01*
X004918Y005561D02*
X004726Y005561D01*
X004726Y005242D02*
X004918Y005242D01*
X004918Y004924D02*
X006045Y004924D01*
X006045Y005242D02*
X005682Y005242D01*
X005636Y005561D02*
X006077Y005561D01*
X006045Y004605D02*
X005682Y004605D01*
X005860Y003520D02*
X006133Y003520D01*
X006133Y003420D01*
X006133Y003260D01*
X005988Y003260D01*
X005790Y003178D01*
X005638Y003026D01*
X005596Y002924D01*
X005554Y003026D01*
X005420Y003160D01*
X005436Y003160D01*
X005546Y003206D01*
X005630Y003290D01*
X005860Y003520D01*
X005671Y003331D02*
X006133Y003331D01*
X006133Y003420D02*
X006551Y003420D01*
X006551Y003420D01*
X006133Y003420D01*
X005633Y003013D02*
X005559Y003013D01*
X004918Y004287D02*
X004726Y004287D01*
X004726Y004605D02*
X004918Y004605D01*
X004726Y004924D02*
X002656Y004924D01*
X002656Y005005D02*
X003121Y005005D01*
X003511Y005395D01*
X003358Y005242D02*
X003962Y005242D01*
X003962Y004605D02*
X002656Y004605D01*
X002656Y004430D02*
X002656Y005005D01*
X003259Y006198D02*
X003817Y006198D01*
X003771Y006516D02*
X002656Y006516D01*
X003511Y005879D02*
X007316Y005879D01*
X004666Y003968D02*
X003751Y003968D01*
X003660Y004287D02*
X003983Y004287D01*
X002976Y003255D02*
X002790Y003178D01*
X002656Y003044D01*
X002656Y003410D01*
X002810Y003255D01*
X002976Y003255D01*
X002734Y003331D02*
X002656Y003331D01*
X002846Y008420D02*
X003936Y008420D01*
X003962Y010657D02*
X002656Y010657D01*
X002656Y010975D02*
X003970Y010975D01*
X004726Y011612D02*
X004918Y011612D01*
X004918Y012568D02*
X004726Y012568D01*
X004726Y012886D02*
X004918Y012886D01*
X005677Y012886D02*
X006045Y012886D01*
X006045Y012568D02*
X005682Y012568D01*
X003962Y012568D02*
X002656Y012568D01*
X002656Y012886D02*
X003059Y012886D01*
X002931Y013205D02*
X002656Y013205D01*
X002656Y013523D02*
X002931Y013523D01*
D16*
X007036Y013130D03*
X007036Y011410D03*
X007036Y009650D03*
X007036Y007890D03*
X007776Y003820D03*
X006016Y003400D03*
X005016Y003780D03*
X002936Y004780D03*
D17*
X004096Y002420D02*
X005096Y002420D01*
X006016Y003400D02*
X006531Y003400D01*
X006551Y003420D01*
X007141Y003420D02*
X007496Y003420D01*
X007736Y003660D01*
X007776Y003820D01*
X002856Y013460D02*
X002856Y014180D01*
X003096Y014420D01*
D18*
X002416Y003540D02*
X002736Y003220D01*
X005616Y003220D01*
X005796Y003400D01*
X006016Y003400D01*
X005736Y003820D02*
X005376Y003460D01*
X004056Y003460D01*
X003846Y003470D01*
X003086Y003920D01*
X002416Y004300D02*
X002896Y004780D01*
X002416Y004300D02*
X002416Y003540D01*
X005016Y003780D02*
X005056Y003700D01*
X005416Y004060D01*
X007136Y004060D01*
X007376Y004300D01*
X007376Y004433D01*
X006885Y004924D01*
X007480Y004924D01*
X007616Y005060D01*
X007616Y010460D01*
X006921Y010460D01*
X006885Y010424D01*
X007616Y010460D02*
X007616Y012260D01*
X007536Y012340D01*
X006889Y012340D01*
X006885Y012344D01*
X007416Y012875D01*
X007416Y013260D01*
X007456Y013620D02*
X007856Y013220D01*
X007856Y004420D01*
X007256Y003820D01*
X005736Y003820D01*
X005256Y013620D02*
X007456Y013620D01*
X005256Y013620D02*
X005096Y013780D01*
X005096Y014420D01*
D19*
X004296Y013420D02*
X004166Y013290D01*
X003596Y013290D01*
X004296Y013420D02*
X007256Y013420D01*
X007416Y013260D01*
M02*
