%
M48
M72
T01C0.0150
T02C0.0400
T03C0.0520
%
T01
X2936Y4780
X5016Y3780
X6016Y3400
X7776Y3820
X7036Y7890
X7036Y9650
X7036Y11410
X7036Y13130
T02
X7096Y14420
X6096Y14420
X5096Y14420
X4096Y14420
X3096Y14420
X2846Y8420
X2846Y7420
X3096Y2420
X4096Y2420
X5096Y2420
X6096Y2420
X7096Y2420
T03
X3086Y3920
X2846Y5670
X3596Y13290
M30
