G75*
%MOIN*%
%OFA0B0*%
%FSLAX24Y24*%
%IPPOS*%
%LPD*%
%AMOC8*
5,1,8,0,0,1.08239X$1,22.5*
%
%ADD10C,0.0000*%
%ADD11C,0.0160*%
%ADD12C,0.0030*%
%ADD13C,0.0060*%
%ADD14R,0.0200X0.0200*%
%ADD15C,0.0100*%
%ADD16C,0.0040*%
%ADD17R,0.0984X0.0197*%
%ADD18R,0.0197X0.0984*%
%ADD19R,0.0472X0.0492*%
%ADD20R,0.0157X0.0354*%
%ADD21R,0.0118X0.0059*%
%ADD22R,0.0118X0.0118*%
%ADD23C,0.0050*%
%ADD24R,0.0394X0.0315*%
%ADD25R,0.0394X0.0354*%
%ADD26R,0.0260X0.0260*%
%ADD27C,0.0059*%
D10*
X002096Y001420D02*
X008096Y001420D01*
X008096Y015420D01*
X002096Y015420D01*
X002096Y001420D01*
D11*
X007516Y003350D02*
X007716Y003150D01*
X007916Y003350D01*
X007516Y003350D01*
X007544Y003322D02*
X007888Y003322D01*
X007729Y003164D02*
X007702Y003164D01*
D12*
X007732Y005067D02*
X007671Y005128D01*
X007671Y005252D01*
X007732Y005314D01*
X007794Y005314D01*
X008041Y005067D01*
X008041Y005314D01*
X007979Y005435D02*
X007732Y005682D01*
X007979Y005682D01*
X008041Y005620D01*
X008041Y005497D01*
X007979Y005435D01*
X007732Y005435D01*
X007671Y005497D01*
X007671Y005620D01*
X007732Y005682D01*
X007794Y005803D02*
X007671Y005927D01*
X008041Y005927D01*
X008041Y006050D02*
X008041Y005803D01*
X007979Y006172D02*
X008041Y006233D01*
X008041Y006357D01*
X007979Y006419D01*
X007917Y006419D01*
X007856Y006357D01*
X007856Y006295D01*
X007856Y006357D02*
X007794Y006419D01*
X007732Y006419D01*
X007671Y006357D01*
X007671Y006233D01*
X007732Y006172D01*
X007732Y006540D02*
X007671Y006602D01*
X007671Y006725D01*
X007732Y006787D01*
X007979Y006540D01*
X008041Y006602D01*
X008041Y006725D01*
X007979Y006787D01*
X007732Y006787D01*
X007732Y006908D02*
X007671Y006970D01*
X007671Y007093D01*
X007732Y007155D01*
X007979Y007155D01*
X008041Y007093D01*
X008041Y006970D01*
X007979Y006908D01*
X007856Y006970D02*
X007856Y007155D01*
X007794Y007277D02*
X007671Y007400D01*
X008041Y007400D01*
X008041Y007277D02*
X008041Y007523D01*
X008041Y007645D02*
X008041Y007892D01*
X008041Y007768D02*
X007671Y007768D01*
X007794Y007645D01*
X007856Y006970D02*
X007794Y006908D01*
X007732Y006908D01*
X007732Y006540D02*
X007979Y006540D01*
X008041Y008382D02*
X007671Y008628D01*
X007671Y009118D02*
X007671Y009303D01*
X007732Y009365D01*
X007979Y009365D01*
X008041Y009303D01*
X008041Y009118D01*
X007671Y009118D01*
X007794Y009486D02*
X008041Y009486D01*
X007917Y009486D02*
X007794Y009610D01*
X007794Y009672D01*
X007794Y009793D02*
X007794Y009855D01*
X007856Y009917D01*
X007794Y009979D01*
X007856Y010040D01*
X008041Y010040D01*
X008041Y010162D02*
X007794Y010162D01*
X007794Y010347D01*
X007856Y010409D01*
X008041Y010409D01*
X007856Y010530D02*
X007856Y010777D01*
X007856Y010898D02*
X007794Y010960D01*
X007794Y011084D01*
X007856Y011145D01*
X007917Y011145D01*
X007917Y010898D01*
X007856Y010898D02*
X007979Y010898D01*
X008041Y010960D01*
X008041Y011084D01*
X007979Y011267D02*
X007917Y011328D01*
X007917Y011514D01*
X007856Y011514D02*
X007794Y011452D01*
X007794Y011328D01*
X007856Y011514D02*
X008041Y011514D01*
X008041Y011328D01*
X007979Y011267D01*
X008041Y010715D02*
X007671Y010715D01*
X007856Y010530D01*
X007856Y009917D02*
X008041Y009917D01*
X008041Y009793D02*
X007794Y009793D01*
X006401Y008968D02*
X006154Y008968D01*
X006154Y008847D02*
X006339Y008847D01*
X006401Y008785D01*
X006339Y008723D01*
X006401Y008661D01*
X006339Y008600D01*
X006154Y008600D01*
X006092Y008478D02*
X006216Y008478D01*
X006277Y008417D01*
X006277Y008231D01*
X006401Y008231D02*
X006031Y008231D01*
X006031Y008417D01*
X006092Y008478D01*
X006277Y008968D02*
X006154Y009092D01*
X006154Y009153D01*
X006031Y007742D02*
X006031Y007495D01*
X006401Y007495D01*
X006401Y007373D02*
X006277Y007250D01*
X006277Y007312D02*
X006277Y007126D01*
X006277Y007312D02*
X006216Y007373D01*
X006092Y007373D01*
X006031Y007312D01*
X006031Y007126D01*
X006401Y007126D01*
X006216Y007495D02*
X006216Y007618D01*
X007999Y014125D02*
X008061Y014187D01*
X008061Y014248D01*
X007999Y014310D01*
X007691Y014310D01*
X007691Y014248D02*
X007691Y014372D01*
X007752Y014493D02*
X007691Y014555D01*
X007691Y014678D01*
X007752Y014740D01*
X007814Y014740D01*
X008061Y014493D01*
X008061Y014740D01*
D13*
X007596Y014920D02*
X007596Y013920D01*
X002596Y013920D01*
X002596Y014920D01*
X002596Y015170D01*
X007596Y015170D01*
X007596Y014920D01*
X002596Y014920D01*
X003296Y013290D02*
X003298Y013324D01*
X003304Y013358D01*
X003313Y013391D01*
X003327Y013422D01*
X003344Y013452D01*
X003364Y013480D01*
X003387Y013505D01*
X003413Y013528D01*
X003441Y013547D01*
X003471Y013563D01*
X003503Y013575D01*
X003536Y013584D01*
X003570Y013589D01*
X003605Y013590D01*
X003639Y013587D01*
X003672Y013580D01*
X003705Y013570D01*
X003736Y013555D01*
X003765Y013538D01*
X003792Y013517D01*
X003817Y013493D01*
X003839Y013466D01*
X003857Y013438D01*
X003872Y013407D01*
X003884Y013375D01*
X003892Y013341D01*
X003896Y013307D01*
X003896Y013273D01*
X003892Y013239D01*
X003884Y013205D01*
X003872Y013173D01*
X003857Y013142D01*
X003839Y013114D01*
X003817Y013087D01*
X003792Y013063D01*
X003765Y013042D01*
X003736Y013025D01*
X003705Y013010D01*
X003672Y013000D01*
X003639Y012993D01*
X003605Y012990D01*
X003570Y012991D01*
X003536Y012996D01*
X003503Y013005D01*
X003471Y013017D01*
X003441Y013033D01*
X003413Y013052D01*
X003387Y013075D01*
X003364Y013100D01*
X003344Y013128D01*
X003327Y013158D01*
X003313Y013189D01*
X003304Y013222D01*
X003298Y013256D01*
X003296Y013290D01*
X002546Y005670D02*
X002548Y005704D01*
X002554Y005738D01*
X002563Y005771D01*
X002577Y005802D01*
X002594Y005832D01*
X002614Y005860D01*
X002637Y005885D01*
X002663Y005908D01*
X002691Y005927D01*
X002721Y005943D01*
X002753Y005955D01*
X002786Y005964D01*
X002820Y005969D01*
X002855Y005970D01*
X002889Y005967D01*
X002922Y005960D01*
X002955Y005950D01*
X002986Y005935D01*
X003015Y005918D01*
X003042Y005897D01*
X003067Y005873D01*
X003089Y005846D01*
X003107Y005818D01*
X003122Y005787D01*
X003134Y005755D01*
X003142Y005721D01*
X003146Y005687D01*
X003146Y005653D01*
X003142Y005619D01*
X003134Y005585D01*
X003122Y005553D01*
X003107Y005522D01*
X003089Y005494D01*
X003067Y005467D01*
X003042Y005443D01*
X003015Y005422D01*
X002986Y005405D01*
X002955Y005390D01*
X002922Y005380D01*
X002889Y005373D01*
X002855Y005370D01*
X002820Y005371D01*
X002786Y005376D01*
X002753Y005385D01*
X002721Y005397D01*
X002691Y005413D01*
X002663Y005432D01*
X002637Y005455D01*
X002614Y005480D01*
X002594Y005508D01*
X002577Y005538D01*
X002563Y005569D01*
X002554Y005602D01*
X002548Y005636D01*
X002546Y005670D01*
X002786Y003920D02*
X002788Y003954D01*
X002794Y003988D01*
X002803Y004021D01*
X002817Y004052D01*
X002834Y004082D01*
X002854Y004110D01*
X002877Y004135D01*
X002903Y004158D01*
X002931Y004177D01*
X002961Y004193D01*
X002993Y004205D01*
X003026Y004214D01*
X003060Y004219D01*
X003095Y004220D01*
X003129Y004217D01*
X003162Y004210D01*
X003195Y004200D01*
X003226Y004185D01*
X003255Y004168D01*
X003282Y004147D01*
X003307Y004123D01*
X003329Y004096D01*
X003347Y004068D01*
X003362Y004037D01*
X003374Y004005D01*
X003382Y003971D01*
X003386Y003937D01*
X003386Y003903D01*
X003382Y003869D01*
X003374Y003835D01*
X003362Y003803D01*
X003347Y003772D01*
X003329Y003744D01*
X003307Y003717D01*
X003282Y003693D01*
X003255Y003672D01*
X003226Y003655D01*
X003195Y003640D01*
X003162Y003630D01*
X003129Y003623D01*
X003095Y003620D01*
X003060Y003621D01*
X003026Y003626D01*
X002993Y003635D01*
X002961Y003647D01*
X002931Y003663D01*
X002903Y003682D01*
X002877Y003705D01*
X002854Y003730D01*
X002834Y003758D01*
X002817Y003788D01*
X002803Y003819D01*
X002794Y003852D01*
X002788Y003886D01*
X002786Y003920D01*
X002596Y002920D02*
X007596Y002920D01*
X007596Y001920D01*
X007596Y001670D01*
X002596Y001670D01*
X002596Y001920D01*
X002596Y002920D01*
X002596Y001920D02*
X007596Y001920D01*
D14*
X007096Y002420D03*
X006096Y002420D03*
X005096Y002420D03*
X004096Y002420D03*
X003096Y002420D03*
X003096Y014420D03*
X004096Y014420D03*
X005096Y014420D03*
X006096Y014420D03*
X007096Y014420D03*
D15*
X005094Y008766D02*
X004700Y008766D01*
X003992Y008766D01*
X003598Y008766D01*
X003598Y007074D01*
X003992Y007074D01*
X004700Y007074D01*
X005094Y007074D01*
X005094Y008766D01*
D16*
X005245Y008113D02*
X005706Y008113D01*
X005706Y007960D02*
X005706Y008267D01*
X005399Y007960D02*
X005245Y008113D01*
X005322Y007806D02*
X005245Y007729D01*
X005245Y007576D01*
X005322Y007499D01*
X005629Y007499D01*
X005706Y007576D01*
X005706Y007729D01*
X005629Y007806D01*
X005809Y006420D02*
X005809Y005960D01*
X005962Y005960D02*
X005655Y005960D01*
X005502Y006037D02*
X005425Y005960D01*
X005271Y005960D01*
X005195Y006037D01*
X005195Y006344D01*
X005271Y006420D01*
X005425Y006420D01*
X005502Y006344D01*
X005655Y006267D02*
X005809Y006420D01*
X006115Y006344D02*
X006192Y006420D01*
X006346Y006420D01*
X006422Y006344D01*
X006422Y006267D01*
X006115Y005960D01*
X006422Y005960D01*
X006209Y003670D02*
X006209Y003210D01*
X006362Y003210D02*
X006055Y003210D01*
X005902Y003287D02*
X005902Y003594D01*
X005825Y003670D01*
X005595Y003670D01*
X005595Y003210D01*
X005825Y003210D01*
X005902Y003287D01*
X006055Y003517D02*
X006209Y003670D01*
X006669Y003577D02*
X007023Y003577D01*
X007023Y003263D02*
X006669Y003263D01*
X005442Y003210D02*
X005135Y003210D01*
X005135Y003670D01*
X005442Y003670D01*
X005288Y003440D02*
X005135Y003440D01*
X004981Y003210D02*
X004674Y003210D01*
X004674Y003670D01*
X004661Y007369D02*
X004619Y007347D01*
X004576Y007328D01*
X004532Y007313D01*
X004486Y007301D01*
X004440Y007292D01*
X004393Y007287D01*
X004346Y007285D01*
X004299Y007287D01*
X004252Y007292D01*
X004206Y007301D01*
X004160Y007313D01*
X004116Y007328D01*
X004073Y007347D01*
X004031Y007369D01*
X004661Y007369D02*
X004703Y007395D01*
X004743Y007424D01*
X004780Y007457D01*
X004815Y007492D01*
X004847Y007530D01*
X004876Y007570D01*
X004901Y007612D01*
X004924Y007656D01*
X004942Y007702D01*
X004958Y007749D01*
X004969Y007797D01*
X004977Y007846D01*
X004981Y007895D01*
X004981Y007945D01*
X004977Y007994D01*
X004969Y008043D01*
X004958Y008091D01*
X004942Y008138D01*
X004924Y008184D01*
X004901Y008228D01*
X004876Y008270D01*
X004847Y008310D01*
X004815Y008348D01*
X004780Y008383D01*
X004743Y008416D01*
X004703Y008445D01*
X004661Y008471D01*
X004619Y008493D01*
X004576Y008512D01*
X004532Y008527D01*
X004486Y008539D01*
X004440Y008548D01*
X004393Y008553D01*
X004346Y008555D01*
X004299Y008553D01*
X004252Y008548D01*
X004206Y008539D01*
X004160Y008527D01*
X004116Y008512D01*
X004073Y008493D01*
X004031Y008471D01*
X003989Y008445D01*
X003949Y008416D01*
X003912Y008383D01*
X003877Y008348D01*
X003845Y008310D01*
X003816Y008270D01*
X003791Y008228D01*
X003768Y008184D01*
X003750Y008138D01*
X003734Y008091D01*
X003723Y008043D01*
X003715Y007994D01*
X003711Y007945D01*
X003711Y007895D01*
X003715Y007846D01*
X003723Y007797D01*
X003734Y007749D01*
X003750Y007702D01*
X003768Y007656D01*
X003791Y007612D01*
X003816Y007570D01*
X003845Y007530D01*
X003877Y007492D01*
X003912Y007457D01*
X003949Y007424D01*
X003989Y007395D01*
X004031Y007369D01*
X003946Y010340D02*
X003792Y010340D01*
X003715Y010417D01*
X003869Y010570D02*
X003946Y010570D01*
X004022Y010493D01*
X004022Y010417D01*
X003946Y010340D01*
X003946Y010570D02*
X004022Y010647D01*
X004022Y010724D01*
X003946Y010800D01*
X003792Y010800D01*
X003715Y010724D01*
X003562Y010340D02*
X003255Y010340D01*
X003409Y010340D02*
X003409Y010800D01*
X003255Y010647D01*
X003102Y010724D02*
X003025Y010800D01*
X002871Y010800D01*
X002795Y010724D01*
X002795Y010417D01*
X002871Y010340D01*
X003025Y010340D01*
X003102Y010417D01*
X003145Y011660D02*
X002991Y011660D01*
X002915Y011737D01*
X002915Y012044D01*
X002991Y012120D01*
X003145Y012120D01*
X003222Y012044D01*
X003375Y011967D02*
X003529Y012120D01*
X003529Y011660D01*
X003682Y011660D02*
X003375Y011660D01*
X003222Y011737D02*
X003145Y011660D01*
X003835Y011890D02*
X004142Y011890D01*
X004066Y011660D02*
X004066Y012120D01*
X003835Y011890D01*
D17*
X004346Y007920D03*
D18*
X004346Y007920D03*
D19*
X004346Y006788D03*
X004346Y009052D03*
D20*
X006590Y003420D03*
X007102Y003420D03*
D21*
X006787Y003272D03*
X006787Y003568D03*
D22*
X006787Y003420D03*
D23*
X007263Y004054D02*
X004429Y004054D01*
X004429Y005826D01*
X007263Y005826D01*
X007263Y004054D01*
X007263Y009554D02*
X004429Y009554D01*
X004429Y011326D01*
X007263Y011326D01*
X007263Y009554D01*
X007263Y011474D02*
X004429Y011474D01*
X004429Y013246D01*
X007263Y013246D01*
X007263Y011474D01*
X003942Y012415D02*
X003642Y012415D01*
X003942Y012715D01*
X003942Y012790D01*
X003867Y012865D01*
X003717Y012865D01*
X003642Y012790D01*
X003482Y012790D02*
X003482Y012640D01*
X003407Y012565D01*
X003182Y012565D01*
X003182Y012415D02*
X003182Y012865D01*
X003407Y012865D01*
X003482Y012790D01*
X003021Y012790D02*
X002946Y012865D01*
X002796Y012865D01*
X002721Y012790D01*
X002721Y012490D01*
X002796Y012415D01*
X002946Y012415D01*
X003021Y012490D01*
X002561Y012565D02*
X002561Y012865D01*
X002561Y012565D02*
X002411Y012415D01*
X002261Y012565D01*
X002261Y012865D01*
X002471Y006645D02*
X002471Y006345D01*
X002621Y006195D01*
X002771Y006345D01*
X002771Y006645D01*
X002931Y006570D02*
X002931Y006270D01*
X003006Y006195D01*
X003156Y006195D01*
X003231Y006270D01*
X003392Y006195D02*
X003392Y006645D01*
X003617Y006645D01*
X003692Y006570D01*
X003692Y006420D01*
X003617Y006345D01*
X003392Y006345D01*
X003231Y006570D02*
X003156Y006645D01*
X003006Y006645D01*
X002931Y006570D01*
X002956Y004895D02*
X002806Y004895D01*
X002731Y004820D01*
X002731Y004520D01*
X002806Y004445D01*
X002956Y004445D01*
X003031Y004520D01*
X003031Y004820D01*
X002956Y004895D01*
X003192Y004895D02*
X003192Y004520D01*
X003267Y004445D01*
X003417Y004445D01*
X003492Y004520D01*
X003492Y004895D01*
X003652Y004895D02*
X003952Y004895D01*
X003802Y004895D02*
X003802Y004445D01*
X002571Y004595D02*
X002571Y004895D01*
X002571Y004595D02*
X002421Y004445D01*
X002271Y004595D01*
X002271Y004895D01*
D24*
X007066Y004211D03*
X007066Y009711D03*
X007066Y011631D03*
D25*
X007066Y011148D03*
X007066Y013068D03*
X007066Y005648D03*
D26*
X003086Y003920D03*
X002846Y005670D03*
X003596Y013290D03*
D27*
X006510Y008172D02*
X006510Y008028D01*
X006700Y008009D01*
X006721Y007945D01*
X006752Y007885D01*
X006630Y007736D01*
X006732Y007635D01*
X006881Y007756D01*
X006940Y007725D01*
X007004Y007704D01*
X007024Y007514D01*
X007168Y007514D01*
X007187Y007704D01*
X007251Y007725D01*
X007311Y007756D01*
X007459Y007635D01*
X007561Y007736D01*
X007440Y007885D01*
X007471Y007945D01*
X007266Y008029D01*
X007245Y007992D01*
X007216Y007960D01*
X007180Y007936D01*
X007139Y007921D01*
X007096Y007915D01*
X007052Y007921D01*
X007011Y007936D01*
X006974Y007961D01*
X006945Y007994D01*
X006924Y008033D01*
X006913Y008076D01*
X006912Y008120D01*
X006922Y008163D01*
X006942Y008202D01*
X006971Y008236D01*
X007007Y008262D01*
X007048Y008278D01*
X007092Y008284D01*
X007136Y008280D01*
X007177Y008265D01*
X007214Y008241D01*
X007245Y008209D01*
X007266Y008171D01*
X007471Y008255D01*
X007440Y008315D01*
X007561Y008464D01*
X007459Y008565D01*
X007311Y008444D01*
X007251Y008475D01*
X007187Y008496D01*
X007168Y008686D01*
X007024Y008686D01*
X007004Y008496D01*
X006940Y008475D01*
X006881Y008444D01*
X006732Y008565D01*
X006630Y008464D01*
X006752Y008315D01*
X006721Y008255D01*
X006700Y008191D01*
X006510Y008172D01*
X006510Y008154D02*
X006920Y008154D01*
X006913Y008096D02*
X006510Y008096D01*
X006510Y008039D02*
X006922Y008039D01*
X006956Y007981D02*
X006709Y007981D01*
X006731Y007924D02*
X007044Y007924D01*
X006890Y007751D02*
X007302Y007751D01*
X007317Y007751D02*
X007549Y007751D01*
X007518Y007694D02*
X007387Y007694D01*
X007458Y007636D02*
X007461Y007636D01*
X007502Y007809D02*
X006689Y007809D01*
X006736Y007866D02*
X007455Y007866D01*
X007460Y007924D02*
X007148Y007924D01*
X007236Y007981D02*
X007382Y007981D01*
X007365Y008212D02*
X007242Y008212D01*
X007167Y008269D02*
X007464Y008269D01*
X007450Y008327D02*
X006742Y008327D01*
X006728Y008269D02*
X007025Y008269D01*
X006950Y008212D02*
X006707Y008212D01*
X006695Y008384D02*
X007496Y008384D01*
X007543Y008442D02*
X006648Y008442D01*
X006666Y008499D02*
X006813Y008499D01*
X006743Y008557D02*
X006724Y008557D01*
X007011Y008557D02*
X007181Y008557D01*
X007175Y008614D02*
X007017Y008614D01*
X007022Y008672D02*
X007169Y008672D01*
X007187Y008499D02*
X007005Y008499D01*
X007378Y008499D02*
X007525Y008499D01*
X007468Y008557D02*
X007449Y008557D01*
X007186Y007694D02*
X007006Y007694D01*
X007011Y007636D02*
X007180Y007636D01*
X007174Y007578D02*
X007017Y007578D01*
X007023Y007521D02*
X007169Y007521D01*
X006875Y007751D02*
X006642Y007751D01*
X006673Y007694D02*
X006804Y007694D01*
X006734Y007636D02*
X006731Y007636D01*
M02*
