%
M48
M72
T01C0.0150
T02C0.0400
T03C0.0520
%
T01
X1420Y4020
X1540Y4500
X1340Y6300
X1340Y7380
X1420Y9140
X1420Y9940
X2420Y11030
X3180Y9940
X3860Y9980
X4330Y9840
X3980Y8820
X4500Y8300
X3980Y7740
X4260Y6180
X3780Y5510
X3700Y4980
X4340Y5140
X4300Y4580
X3700Y3860
X2860Y3860
X3220Y6260
X3070Y7140
X4900Y10580
X5120Y9840
X5060Y8820
X5060Y7740
X5740Y7220
X6020Y6420
X6300Y5900
X5900Y5620
X5100Y5620
X5100Y6420
X5780Y3740
X6900Y6260
X8060Y6500
X8980Y6980
X8980Y7660
X8980Y8380
X8980Y9100
X8980Y9780
X8980Y10460
X8980Y11140
X8980Y11780
X9180Y12380
X7620Y11420
X7620Y10780
X7620Y10140
X7620Y9460
X6380Y11060
X7260Y12380
X6980Y12780
X6980Y13300
X6980Y13820
X6980Y14340
X6980Y14860
X6980Y15380
X6980Y15940
X7020Y16420
X7460Y16660
X7900Y16660
X8540Y16660
X9180Y16660
X5920Y9290
X4580Y11580
X4780Y14380
X4820Y15700
X3500Y15340
X2060Y14580
X1940Y15020
X1940Y15540
X1940Y16140
X1660Y13300
X7620Y3860
X8220Y2860
T02
X1770Y1790
X2770Y1790
X3770Y1790
X4770Y1790
X5770Y1790
X6770Y1790
X7770Y1790
X8770Y1790
X8770Y17790
X7770Y17790
X6770Y17790
X5770Y17790
X4770Y17790
X3770Y17790
X2770Y17790
X1770Y17790
T03
X8770Y6040
X8770Y4540
M30
