G75*
%MOIN*%
%OFA0B0*%
%FSLAX24Y24*%
%IPPOS*%
%LPD*%
%AMOC8*
5,1,8,0,0,1.08239X$1,22.5*
%
%ADD10C,0.0600*%
%ADD11R,0.0433X0.0394*%
%ADD12R,0.0394X0.0433*%
%ADD13R,0.0354X0.0276*%
%ADD14OC8,0.0850*%
%ADD15R,0.0748X0.0945*%
%ADD16R,0.0709X0.0394*%
%ADD17R,0.0315X0.0112*%
%ADD18R,0.0112X0.0315*%
%ADD19R,0.1417X0.1417*%
%ADD20R,0.0787X0.0315*%
%ADD21C,0.0120*%
%ADD22C,0.0310*%
%ADD23C,0.0100*%
%ADD24C,0.0240*%
%ADD25C,0.0160*%
%ADD26C,0.0080*%
%ADD27C,0.0400*%
%ADD28C,0.0320*%
D10*
X001770Y001490D02*
X001770Y002090D01*
X002770Y002090D02*
X002770Y001490D01*
X003770Y001490D02*
X003770Y002090D01*
X004770Y002090D02*
X004770Y001490D01*
X005770Y001490D02*
X005770Y002090D01*
X006770Y002090D02*
X006770Y001490D01*
X007770Y001490D02*
X007770Y002090D01*
X008770Y002090D02*
X008770Y001490D01*
X008770Y017490D02*
X008770Y018090D01*
X007770Y018090D02*
X007770Y017490D01*
X006770Y017490D02*
X006770Y018090D01*
X005770Y018090D02*
X005770Y017490D01*
X004770Y017490D02*
X004770Y018090D01*
X003770Y018090D02*
X003770Y017490D01*
X002770Y017490D02*
X002770Y018090D01*
X001770Y018090D02*
X001770Y017490D01*
D11*
X003685Y013790D03*
X004355Y013790D03*
X005185Y013790D03*
X005855Y013790D03*
X006020Y010625D03*
X006020Y009955D03*
X007685Y012040D03*
X008355Y012040D03*
X002855Y013290D03*
X002185Y013290D03*
X001935Y010290D03*
X001935Y009540D03*
X001935Y008790D03*
X001685Y008040D03*
X002355Y008040D03*
X002605Y008790D03*
X002605Y009540D03*
X002605Y010290D03*
X002355Y005540D03*
X001685Y005540D03*
D12*
X003770Y005905D03*
X003770Y006575D03*
X002770Y011705D03*
X002770Y012375D03*
X002020Y012375D03*
X002020Y011705D03*
X006520Y008875D03*
X006520Y008205D03*
X006520Y007375D03*
X006520Y006705D03*
X007270Y006705D03*
X007270Y007375D03*
X008270Y007455D03*
X008270Y008125D03*
X008270Y008955D03*
X008270Y009625D03*
X008270Y010455D03*
X008270Y011125D03*
X006770Y010625D03*
X006770Y009955D03*
D13*
X006770Y011346D03*
X006770Y011746D03*
X006670Y003384D03*
X006670Y002984D03*
X007670Y002984D03*
X007670Y003384D03*
D14*
X008770Y004540D03*
X008770Y006040D03*
D15*
X005520Y012540D03*
X003906Y012540D03*
D16*
X002020Y007290D03*
X002020Y006306D03*
D17*
X003536Y007601D03*
X003536Y007798D03*
X003536Y007995D03*
X003536Y008192D03*
X003536Y008388D03*
X003536Y008585D03*
X003536Y008782D03*
X003536Y008979D03*
X005504Y008979D03*
X005504Y008782D03*
X005504Y008585D03*
X005504Y008388D03*
X005504Y008192D03*
X005504Y007995D03*
X005504Y007798D03*
X005504Y007601D03*
D18*
X005209Y007306D03*
X005012Y007306D03*
X004815Y007306D03*
X004618Y007306D03*
X004422Y007306D03*
X004225Y007306D03*
X004028Y007306D03*
X003831Y007306D03*
X003831Y009274D03*
X004028Y009274D03*
X004225Y009274D03*
X004422Y009274D03*
X004618Y009274D03*
X004815Y009274D03*
X005012Y009274D03*
X005209Y009274D03*
D19*
X004520Y008290D03*
D20*
X008540Y012755D03*
X008540Y014645D03*
D21*
X006700Y012020D02*
X006780Y011940D01*
X006780Y011756D01*
X006770Y011746D01*
X006770Y011346D02*
X006780Y011336D01*
X006780Y011140D01*
X006860Y011060D01*
X007060Y011060D01*
X007180Y010940D01*
X007180Y009620D01*
X007020Y009460D01*
X006540Y009460D01*
X006770Y009690D01*
X006770Y009955D01*
X006540Y009460D02*
X006090Y009460D01*
X005920Y009290D01*
X004330Y009840D02*
X004280Y010080D01*
X003340Y011020D01*
X003180Y011300D01*
X003180Y013200D01*
X003100Y013280D01*
X002865Y013280D01*
X002855Y013290D01*
X002660Y012760D02*
X002100Y012760D01*
X002020Y012680D01*
X002020Y012375D01*
X002020Y011705D02*
X002020Y011320D01*
X002180Y010660D01*
X002980Y010660D01*
X003540Y010100D01*
X003540Y009820D01*
X003820Y009540D01*
X003536Y008979D02*
X003341Y008979D01*
X003300Y009020D01*
X003300Y010020D01*
X003220Y009940D01*
X003180Y009940D01*
X003300Y010020D02*
X003060Y010260D01*
X002635Y010260D01*
X002605Y010290D01*
X002605Y009540D02*
X002940Y009540D01*
X003060Y009420D01*
X003060Y008940D01*
X003218Y008782D01*
X003536Y008782D01*
X003536Y008585D02*
X003095Y008585D01*
X002900Y008780D01*
X002615Y008780D01*
X002605Y008790D01*
X003820Y007100D02*
X003820Y006940D01*
X003770Y006890D01*
X003770Y006575D01*
X003735Y006540D01*
X003380Y006540D01*
X003220Y006380D01*
X003220Y006260D01*
X003180Y011300D02*
X002860Y011300D01*
X002780Y011480D01*
X002780Y011695D01*
X002770Y011705D01*
X002770Y012375D02*
X002780Y012385D01*
X002780Y012640D01*
X002660Y012760D01*
D22*
X002420Y011030D03*
X003180Y009940D03*
X003860Y009980D03*
X004330Y009840D03*
X003980Y008820D03*
X004500Y008300D03*
X003980Y007740D03*
X004260Y006180D03*
X003780Y005510D03*
X003700Y004980D03*
X004340Y005140D03*
X004300Y004580D03*
X003700Y003860D03*
X002860Y003860D03*
X003220Y006260D03*
X003070Y007140D03*
X001540Y004500D03*
X001420Y004020D03*
X001340Y006300D03*
X001340Y007380D03*
X001420Y009140D03*
X001420Y009940D03*
X001660Y013300D03*
X002060Y014580D03*
X001940Y015020D03*
X001940Y015540D03*
X001940Y016140D03*
X003500Y015340D03*
X004820Y015700D03*
X004780Y014380D03*
X004580Y011580D03*
X004900Y010580D03*
X005120Y009840D03*
X005060Y008820D03*
X005060Y007740D03*
X005740Y007220D03*
X006020Y006420D03*
X006300Y005900D03*
X005900Y005620D03*
X005100Y005620D03*
X005100Y006420D03*
X005780Y003740D03*
X006900Y006260D03*
X008060Y006500D03*
X008980Y006980D03*
X008980Y007660D03*
X008980Y008380D03*
X008980Y009100D03*
X008980Y009780D03*
X008980Y010460D03*
X008980Y011140D03*
X008980Y011780D03*
X009180Y012380D03*
X007620Y011420D03*
X007620Y010780D03*
X007620Y010140D03*
X007620Y009460D03*
X006380Y011060D03*
X007260Y012380D03*
X006980Y012780D03*
X006980Y013300D03*
X006980Y013820D03*
X006980Y014340D03*
X006980Y014860D03*
X006980Y015380D03*
X006980Y015940D03*
X007020Y016420D03*
X007460Y016660D03*
X007900Y016660D03*
X008540Y016660D03*
X009180Y016660D03*
X005920Y009290D03*
X007620Y003860D03*
X008220Y002860D03*
D23*
X006520Y007375D02*
X006305Y007375D01*
X006160Y007520D01*
X006160Y007780D01*
X005750Y008190D01*
X005506Y008190D01*
X005504Y008192D01*
X005513Y008380D02*
X005850Y008380D01*
X006025Y008205D01*
X006520Y008205D01*
X006520Y008875D02*
X006155Y008875D01*
X005860Y008580D01*
X005510Y008580D01*
X005504Y008585D01*
X005504Y008388D02*
X005513Y008380D01*
X005504Y008979D02*
X005505Y008980D01*
X005700Y008980D01*
X005920Y009200D01*
X005920Y009290D01*
X005780Y009580D02*
X006020Y009820D01*
X006020Y009955D01*
X005780Y009580D02*
X005340Y009580D01*
X005220Y009460D01*
X005220Y009285D01*
X005209Y009274D01*
X005020Y009282D02*
X005020Y009620D01*
X005120Y009720D01*
X005120Y009840D01*
X005020Y009282D02*
X005012Y009274D01*
X004422Y009274D02*
X004420Y009276D01*
X004420Y009580D01*
X004290Y009710D01*
X004330Y009840D01*
X003831Y009529D02*
X003831Y009274D01*
X003831Y009529D02*
X003820Y009540D01*
X003831Y007306D02*
X003820Y007295D01*
X003820Y007100D01*
X002355Y007835D02*
X002355Y008040D01*
X002355Y007835D02*
X002060Y007540D01*
X002060Y007330D01*
X002020Y007290D01*
X002020Y006306D02*
X002020Y006140D01*
X002380Y005780D01*
X002380Y005565D01*
X002355Y005540D01*
D24*
X003220Y005140D02*
X001770Y003690D01*
X001770Y001790D01*
X003220Y005140D02*
X003220Y006260D01*
X006520Y007375D02*
X007270Y007375D01*
X007815Y007375D01*
X007820Y007380D01*
D25*
X006060Y011220D02*
X005660Y011220D01*
X005020Y010580D01*
X004900Y010580D01*
X006060Y011220D02*
X006260Y011420D01*
X006260Y011860D01*
X006500Y012100D01*
X006620Y012100D01*
X006700Y012020D01*
D26*
X001210Y003785D02*
X001210Y000730D01*
X009330Y000730D01*
X009330Y004273D01*
X009012Y003955D01*
X008970Y003955D01*
X008970Y003327D01*
X008853Y003210D01*
X008535Y002892D01*
X008535Y002797D01*
X008487Y002682D01*
X008398Y002593D01*
X008283Y002545D01*
X008157Y002545D01*
X008042Y002593D01*
X007953Y002682D01*
X007940Y002713D01*
X007913Y002686D01*
X007860Y002686D01*
X007860Y002663D01*
X007970Y002553D01*
X007970Y002505D01*
X008031Y002480D01*
X008160Y002351D01*
X008230Y002181D01*
X008230Y001398D01*
X008160Y001229D01*
X008031Y001100D01*
X007861Y001030D01*
X007678Y001030D01*
X007509Y001100D01*
X007380Y001229D01*
X007310Y001398D01*
X007310Y002181D01*
X007380Y002351D01*
X007493Y002464D01*
X007460Y002497D01*
X007460Y002686D01*
X007427Y002686D01*
X007333Y002780D01*
X007333Y003588D01*
X007390Y003645D01*
X007353Y003682D01*
X007305Y003797D01*
X007305Y003923D01*
X007353Y004038D01*
X007442Y004127D01*
X007557Y004175D01*
X007683Y004175D01*
X007798Y004127D01*
X007887Y004038D01*
X007935Y003923D01*
X007935Y003797D01*
X007887Y003682D01*
X007913Y003682D01*
X008007Y003588D01*
X008007Y003093D01*
X008042Y003127D01*
X008157Y003175D01*
X008252Y003175D01*
X008570Y003493D01*
X008570Y003955D01*
X008528Y003955D01*
X008185Y004298D01*
X008185Y004782D01*
X008528Y005125D01*
X009012Y005125D01*
X009330Y004807D01*
X009330Y005773D01*
X009012Y005455D01*
X008528Y005455D01*
X008253Y005730D01*
X008223Y005700D01*
X006545Y005700D01*
X006478Y005633D01*
X006363Y005585D01*
X006237Y005585D01*
X006215Y005594D01*
X006215Y005557D01*
X006167Y005442D01*
X006100Y005375D01*
X006100Y004663D01*
X006860Y003903D01*
X006860Y003682D01*
X006913Y003682D01*
X007007Y003588D01*
X007007Y002780D01*
X006913Y002686D01*
X006860Y002686D01*
X006860Y002623D01*
X006970Y002513D01*
X006970Y002505D01*
X007031Y002480D01*
X007160Y002351D01*
X007230Y002181D01*
X007230Y001398D01*
X007160Y001229D01*
X007031Y001100D01*
X006861Y001030D01*
X006678Y001030D01*
X006509Y001100D01*
X006380Y001229D01*
X006310Y001398D01*
X006310Y002181D01*
X006380Y002351D01*
X006473Y002444D01*
X006460Y002457D01*
X006460Y002686D01*
X006427Y002686D01*
X006333Y002780D01*
X006333Y003588D01*
X006427Y003682D01*
X006460Y003682D01*
X006460Y003737D01*
X005817Y004380D01*
X005700Y004497D01*
X005700Y004937D01*
X005420Y004657D01*
X005420Y003697D01*
X004970Y003247D01*
X004970Y002505D01*
X005031Y002480D01*
X005160Y002351D01*
X005230Y002181D01*
X005230Y001398D01*
X005160Y001229D01*
X005031Y001100D01*
X004861Y001030D01*
X004678Y001030D01*
X004509Y001100D01*
X004380Y001229D01*
X004310Y001398D01*
X004310Y002181D01*
X004380Y002351D01*
X004509Y002480D01*
X004570Y002505D01*
X004570Y003247D01*
X003970Y002647D01*
X003970Y002505D01*
X004031Y002480D01*
X004160Y002351D01*
X004230Y002181D01*
X004230Y001398D01*
X004160Y001229D01*
X004031Y001100D01*
X003861Y001030D01*
X003678Y001030D01*
X003509Y001100D01*
X003380Y001229D01*
X003310Y001398D01*
X003310Y002181D01*
X003380Y002351D01*
X003509Y002480D01*
X003570Y002505D01*
X003570Y002813D01*
X003687Y002930D01*
X004820Y004063D01*
X004820Y004337D01*
X004143Y003660D01*
X003945Y003660D01*
X003878Y003593D01*
X003763Y003545D01*
X003637Y003545D01*
X003522Y003593D01*
X003433Y003682D01*
X003385Y003797D01*
X003385Y003862D01*
X003380Y003857D01*
X003380Y002657D01*
X003117Y002394D01*
X003160Y002351D01*
X003230Y002181D01*
X003230Y001398D01*
X003160Y001229D01*
X003031Y001100D01*
X002861Y001030D01*
X002678Y001030D01*
X002509Y001100D01*
X002380Y001229D01*
X002310Y001398D01*
X002310Y002181D01*
X002380Y002351D01*
X002509Y002480D01*
X002678Y002550D01*
X002707Y002550D01*
X002980Y002823D01*
X002980Y003569D01*
X002923Y003545D01*
X002797Y003545D01*
X002682Y003593D01*
X002593Y003682D01*
X002545Y003797D01*
X002545Y003923D01*
X002593Y004038D01*
X002682Y004127D01*
X002686Y004129D01*
X002777Y004220D01*
X003411Y004854D01*
X003387Y004911D01*
X002050Y003574D01*
X002050Y002461D01*
X002160Y002351D01*
X002230Y002181D01*
X002230Y001398D01*
X002160Y001229D01*
X002031Y001100D01*
X001861Y001030D01*
X001678Y001030D01*
X001509Y001100D01*
X001380Y001229D01*
X001310Y001398D01*
X001310Y002181D01*
X001380Y002351D01*
X001490Y002461D01*
X001490Y003708D01*
X001483Y003705D01*
X001357Y003705D01*
X001242Y003753D01*
X001210Y003785D01*
X001210Y003759D02*
X001236Y003759D01*
X001210Y003680D02*
X001490Y003680D01*
X001490Y003602D02*
X001210Y003602D01*
X001210Y003523D02*
X001490Y003523D01*
X001490Y003445D02*
X001210Y003445D01*
X001210Y003366D02*
X001490Y003366D01*
X001490Y003288D02*
X001210Y003288D01*
X001210Y003209D02*
X001490Y003209D01*
X001490Y003131D02*
X001210Y003131D01*
X001210Y003052D02*
X001490Y003052D01*
X001490Y002974D02*
X001210Y002974D01*
X001210Y002895D02*
X001490Y002895D01*
X001490Y002817D02*
X001210Y002817D01*
X001210Y002738D02*
X001490Y002738D01*
X001490Y002660D02*
X001210Y002660D01*
X001210Y002581D02*
X001490Y002581D01*
X001490Y002503D02*
X001210Y002503D01*
X001210Y002424D02*
X001453Y002424D01*
X001378Y002346D02*
X001210Y002346D01*
X001210Y002267D02*
X001345Y002267D01*
X001313Y002189D02*
X001210Y002189D01*
X001210Y002110D02*
X001310Y002110D01*
X001310Y002032D02*
X001210Y002032D01*
X001210Y001953D02*
X001310Y001953D01*
X001310Y001875D02*
X001210Y001875D01*
X001210Y001796D02*
X001310Y001796D01*
X001310Y001718D02*
X001210Y001718D01*
X001210Y001639D02*
X001310Y001639D01*
X001310Y001561D02*
X001210Y001561D01*
X001210Y001482D02*
X001310Y001482D01*
X001310Y001404D02*
X001210Y001404D01*
X001210Y001325D02*
X001340Y001325D01*
X001373Y001247D02*
X001210Y001247D01*
X001210Y001168D02*
X001441Y001168D01*
X001535Y001090D02*
X001210Y001090D01*
X001210Y001011D02*
X009330Y001011D01*
X009330Y000933D02*
X001210Y000933D01*
X001210Y000854D02*
X009330Y000854D01*
X009330Y000776D02*
X001210Y000776D01*
X002005Y001090D02*
X002535Y001090D01*
X002441Y001168D02*
X002099Y001168D01*
X002167Y001247D02*
X002373Y001247D01*
X002340Y001325D02*
X002200Y001325D01*
X002230Y001404D02*
X002310Y001404D01*
X002310Y001482D02*
X002230Y001482D01*
X002230Y001561D02*
X002310Y001561D01*
X002310Y001639D02*
X002230Y001639D01*
X002230Y001718D02*
X002310Y001718D01*
X002310Y001796D02*
X002230Y001796D01*
X002230Y001875D02*
X002310Y001875D01*
X002310Y001953D02*
X002230Y001953D01*
X002230Y002032D02*
X002310Y002032D01*
X002310Y002110D02*
X002230Y002110D01*
X002227Y002189D02*
X002313Y002189D01*
X002345Y002267D02*
X002195Y002267D01*
X002162Y002346D02*
X002378Y002346D01*
X002453Y002424D02*
X002087Y002424D01*
X002050Y002503D02*
X002564Y002503D01*
X002738Y002581D02*
X002050Y002581D01*
X002050Y002660D02*
X002817Y002660D01*
X002895Y002738D02*
X002050Y002738D01*
X002050Y002817D02*
X002974Y002817D01*
X002980Y002895D02*
X002050Y002895D01*
X002050Y002974D02*
X002980Y002974D01*
X002980Y003052D02*
X002050Y003052D01*
X002050Y003131D02*
X002980Y003131D01*
X002980Y003209D02*
X002050Y003209D01*
X002050Y003288D02*
X002980Y003288D01*
X002980Y003366D02*
X002050Y003366D01*
X002050Y003445D02*
X002980Y003445D01*
X002980Y003523D02*
X002050Y003523D01*
X002077Y003602D02*
X002673Y003602D01*
X002595Y003680D02*
X002156Y003680D01*
X002234Y003759D02*
X002561Y003759D01*
X002545Y003837D02*
X002313Y003837D01*
X002391Y003916D02*
X002545Y003916D01*
X002575Y003994D02*
X002470Y003994D01*
X002548Y004073D02*
X002627Y004073D01*
X002627Y004151D02*
X002708Y004151D01*
X002705Y004230D02*
X002787Y004230D01*
X002784Y004308D02*
X002865Y004308D01*
X002862Y004387D02*
X002944Y004387D01*
X002941Y004465D02*
X003022Y004465D01*
X003019Y004544D02*
X003101Y004544D01*
X003098Y004622D02*
X003179Y004622D01*
X003176Y004701D02*
X003258Y004701D01*
X003255Y004779D02*
X003336Y004779D01*
X003333Y004858D02*
X003410Y004858D01*
X003620Y004980D02*
X003700Y004980D01*
X003700Y004860D01*
X002860Y004020D01*
X002860Y003860D01*
X003180Y003940D02*
X003180Y002740D01*
X002770Y002330D01*
X002770Y001790D01*
X003230Y001796D02*
X003310Y001796D01*
X003310Y001718D02*
X003230Y001718D01*
X003230Y001639D02*
X003310Y001639D01*
X003310Y001561D02*
X003230Y001561D01*
X003230Y001482D02*
X003310Y001482D01*
X003310Y001404D02*
X003230Y001404D01*
X003200Y001325D02*
X003340Y001325D01*
X003373Y001247D02*
X003167Y001247D01*
X003099Y001168D02*
X003441Y001168D01*
X003535Y001090D02*
X003005Y001090D01*
X003230Y001875D02*
X003310Y001875D01*
X003310Y001953D02*
X003230Y001953D01*
X003230Y002032D02*
X003310Y002032D01*
X003310Y002110D02*
X003230Y002110D01*
X003227Y002189D02*
X003313Y002189D01*
X003345Y002267D02*
X003195Y002267D01*
X003162Y002346D02*
X003378Y002346D01*
X003453Y002424D02*
X003147Y002424D01*
X003225Y002503D02*
X003564Y002503D01*
X003570Y002581D02*
X003304Y002581D01*
X003380Y002660D02*
X003570Y002660D01*
X003570Y002738D02*
X003380Y002738D01*
X003380Y002817D02*
X003574Y002817D01*
X003652Y002895D02*
X003380Y002895D01*
X003380Y002974D02*
X003731Y002974D01*
X003809Y003052D02*
X003380Y003052D01*
X003380Y003131D02*
X003888Y003131D01*
X003966Y003209D02*
X003380Y003209D01*
X003380Y003288D02*
X004045Y003288D01*
X004123Y003366D02*
X003380Y003366D01*
X003380Y003445D02*
X004202Y003445D01*
X004280Y003523D02*
X003380Y003523D01*
X003380Y003602D02*
X003513Y003602D01*
X003435Y003680D02*
X003380Y003680D01*
X003380Y003759D02*
X003401Y003759D01*
X003385Y003837D02*
X003380Y003837D01*
X003180Y003940D02*
X004020Y004780D01*
X004020Y005320D01*
X004140Y005440D01*
X004140Y005660D01*
X004540Y006060D01*
X004540Y006380D01*
X004260Y006660D01*
X004260Y007020D01*
X004220Y007060D01*
X004220Y007301D01*
X004225Y007306D01*
X004420Y007304D02*
X004420Y006740D01*
X004700Y006460D01*
X004700Y005980D01*
X004340Y005620D01*
X004340Y005140D01*
X004340Y005100D01*
X004660Y005020D02*
X004300Y004660D01*
X004300Y004580D01*
X004634Y004151D02*
X004820Y004151D01*
X004820Y004073D02*
X004555Y004073D01*
X004477Y003994D02*
X004751Y003994D01*
X004673Y003916D02*
X004398Y003916D01*
X004320Y003837D02*
X004594Y003837D01*
X004516Y003759D02*
X004241Y003759D01*
X004163Y003680D02*
X004437Y003680D01*
X004359Y003602D02*
X003887Y003602D01*
X004060Y003860D02*
X003700Y003860D01*
X004060Y003860D02*
X004820Y004620D01*
X004820Y005340D01*
X005100Y005620D01*
X004860Y005900D02*
X004660Y005700D01*
X004660Y005020D01*
X005020Y004980D02*
X005020Y003980D01*
X003770Y002730D01*
X003770Y001790D01*
X004087Y002424D02*
X004453Y002424D01*
X004378Y002346D02*
X004162Y002346D01*
X004195Y002267D02*
X004345Y002267D01*
X004313Y002189D02*
X004227Y002189D01*
X004230Y002110D02*
X004310Y002110D01*
X004310Y002032D02*
X004230Y002032D01*
X004230Y001953D02*
X004310Y001953D01*
X004310Y001875D02*
X004230Y001875D01*
X004230Y001796D02*
X004310Y001796D01*
X004310Y001718D02*
X004230Y001718D01*
X004230Y001639D02*
X004310Y001639D01*
X004310Y001561D02*
X004230Y001561D01*
X004230Y001482D02*
X004310Y001482D01*
X004310Y001404D02*
X004230Y001404D01*
X004200Y001325D02*
X004340Y001325D01*
X004373Y001247D02*
X004167Y001247D01*
X004099Y001168D02*
X004441Y001168D01*
X004535Y001090D02*
X004005Y001090D01*
X003976Y002503D02*
X004564Y002503D01*
X004570Y002581D02*
X003970Y002581D01*
X003982Y002660D02*
X004570Y002660D01*
X004570Y002738D02*
X004061Y002738D01*
X004139Y002817D02*
X004570Y002817D01*
X004570Y002895D02*
X004218Y002895D01*
X004296Y002974D02*
X004570Y002974D01*
X004570Y003052D02*
X004375Y003052D01*
X004453Y003131D02*
X004570Y003131D01*
X004570Y003209D02*
X004532Y003209D01*
X004770Y003330D02*
X004770Y001790D01*
X005087Y002424D02*
X005453Y002424D01*
X005509Y002480D02*
X005380Y002351D01*
X005310Y002181D01*
X005310Y001398D01*
X005380Y001229D01*
X005509Y001100D01*
X005678Y001030D01*
X005861Y001030D01*
X006031Y001100D01*
X006160Y001229D01*
X006230Y001398D01*
X006230Y002181D01*
X006160Y002351D01*
X006031Y002480D01*
X005861Y002550D01*
X005678Y002550D01*
X005509Y002480D01*
X005564Y002503D02*
X004976Y002503D01*
X004970Y002581D02*
X006460Y002581D01*
X006460Y002503D02*
X005976Y002503D01*
X006087Y002424D02*
X006453Y002424D01*
X006378Y002346D02*
X006162Y002346D01*
X006195Y002267D02*
X006345Y002267D01*
X006313Y002189D02*
X006227Y002189D01*
X006230Y002110D02*
X006310Y002110D01*
X006310Y002032D02*
X006230Y002032D01*
X006230Y001953D02*
X006310Y001953D01*
X006310Y001875D02*
X006230Y001875D01*
X006230Y001796D02*
X006310Y001796D01*
X006310Y001718D02*
X006230Y001718D01*
X006230Y001639D02*
X006310Y001639D01*
X006310Y001561D02*
X006230Y001561D01*
X006230Y001482D02*
X006310Y001482D01*
X006310Y001404D02*
X006230Y001404D01*
X006200Y001325D02*
X006340Y001325D01*
X006373Y001247D02*
X006167Y001247D01*
X006099Y001168D02*
X006441Y001168D01*
X006535Y001090D02*
X006005Y001090D01*
X005535Y001090D02*
X005005Y001090D01*
X005099Y001168D02*
X005441Y001168D01*
X005373Y001247D02*
X005167Y001247D01*
X005200Y001325D02*
X005340Y001325D01*
X005310Y001404D02*
X005230Y001404D01*
X005230Y001482D02*
X005310Y001482D01*
X005310Y001561D02*
X005230Y001561D01*
X005230Y001639D02*
X005310Y001639D01*
X005310Y001718D02*
X005230Y001718D01*
X005230Y001796D02*
X005310Y001796D01*
X005310Y001875D02*
X005230Y001875D01*
X005230Y001953D02*
X005310Y001953D01*
X005310Y002032D02*
X005230Y002032D01*
X005230Y002110D02*
X005310Y002110D01*
X005313Y002189D02*
X005227Y002189D01*
X005195Y002267D02*
X005345Y002267D01*
X005378Y002346D02*
X005162Y002346D01*
X004970Y002660D02*
X006460Y002660D01*
X006375Y002738D02*
X004970Y002738D01*
X004970Y002817D02*
X006333Y002817D01*
X006333Y002895D02*
X004970Y002895D01*
X004970Y002974D02*
X006333Y002974D01*
X006333Y003052D02*
X004970Y003052D01*
X004970Y003131D02*
X006333Y003131D01*
X006333Y003209D02*
X004970Y003209D01*
X005010Y003288D02*
X006333Y003288D01*
X006333Y003366D02*
X005089Y003366D01*
X005167Y003445D02*
X006333Y003445D01*
X006333Y003523D02*
X005246Y003523D01*
X005324Y003602D02*
X006346Y003602D01*
X006425Y003680D02*
X005403Y003680D01*
X005420Y003759D02*
X006439Y003759D01*
X006360Y003837D02*
X005420Y003837D01*
X005420Y003916D02*
X006282Y003916D01*
X006203Y003994D02*
X005420Y003994D01*
X005420Y004073D02*
X006125Y004073D01*
X006046Y004151D02*
X005420Y004151D01*
X005420Y004230D02*
X005968Y004230D01*
X005889Y004308D02*
X005420Y004308D01*
X005420Y004387D02*
X005811Y004387D01*
X005732Y004465D02*
X005420Y004465D01*
X005420Y004544D02*
X005700Y004544D01*
X005700Y004622D02*
X005420Y004622D01*
X005463Y004701D02*
X005700Y004701D01*
X005700Y004779D02*
X005542Y004779D01*
X005620Y004858D02*
X005700Y004858D01*
X005699Y004936D02*
X005700Y004936D01*
X005540Y005060D02*
X005220Y004740D01*
X005220Y003780D01*
X004770Y003330D01*
X004712Y004230D02*
X004820Y004230D01*
X004820Y004308D02*
X004791Y004308D01*
X005020Y004980D02*
X005380Y005340D01*
X005380Y006660D01*
X005260Y006780D01*
X004780Y006780D01*
X004618Y006942D01*
X004618Y007306D01*
X004422Y007306D02*
X004420Y007304D01*
X004480Y007760D02*
X004480Y008250D01*
X004000Y008250D01*
X004000Y008330D01*
X004480Y008330D01*
X004480Y008840D01*
X004495Y008840D01*
X004545Y008840D01*
X004560Y008840D01*
X004560Y008330D01*
X005040Y008330D01*
X005040Y008250D01*
X004560Y008250D01*
X004560Y008330D01*
X004480Y008330D01*
X004480Y008250D01*
X004560Y008250D01*
X004560Y007760D01*
X004480Y007760D01*
X004480Y007762D02*
X004560Y007762D01*
X004560Y007841D02*
X004480Y007841D01*
X004480Y007919D02*
X004560Y007919D01*
X004560Y007998D02*
X004480Y007998D01*
X004480Y008076D02*
X004560Y008076D01*
X004560Y008155D02*
X004480Y008155D01*
X004480Y008233D02*
X004560Y008233D01*
X004560Y008312D02*
X005040Y008312D01*
X005100Y008780D02*
X005060Y008820D01*
X005100Y008780D02*
X005502Y008780D01*
X005504Y008782D01*
X005504Y007995D02*
X005695Y007995D01*
X005910Y007780D01*
X005910Y007490D01*
X006060Y007340D01*
X006060Y007020D01*
X006020Y006980D01*
X006020Y006420D01*
X006260Y006215D02*
X006287Y006242D01*
X006331Y006349D01*
X006480Y006349D01*
X006560Y006349D01*
X006735Y006349D01*
X006771Y006358D01*
X006803Y006377D01*
X006829Y006403D01*
X006847Y006435D01*
X006857Y006470D01*
X006857Y006665D01*
X006560Y006665D01*
X006560Y006349D01*
X006560Y006428D02*
X006480Y006428D01*
X006480Y006506D02*
X006560Y006506D01*
X006560Y006585D02*
X006480Y006585D01*
X006480Y006663D02*
X006560Y006663D01*
X006560Y006665D02*
X006480Y006665D01*
X006480Y006349D01*
X006418Y006192D02*
X008149Y006192D01*
X008185Y006228D02*
X008080Y006123D01*
X008057Y006100D01*
X006545Y006100D01*
X006478Y006167D01*
X006363Y006215D01*
X006260Y006215D01*
X006299Y006271D02*
X008185Y006271D01*
X008185Y006282D02*
X008185Y006228D01*
X008185Y006282D02*
X008528Y006625D01*
X009012Y006625D01*
X009330Y006307D01*
X009330Y012520D01*
X009082Y012520D01*
X009000Y012438D01*
X008820Y012438D01*
X008820Y012348D01*
X008765Y012216D01*
X008731Y012182D01*
X008731Y011777D01*
X008715Y011760D01*
X008715Y011138D01*
X008660Y011005D01*
X008627Y010972D01*
X008627Y010842D01*
X008575Y010790D01*
X008627Y010738D01*
X008627Y010535D01*
X008630Y010527D01*
X008630Y009553D01*
X008627Y009545D01*
X008627Y009342D01*
X008575Y009290D01*
X008627Y009238D01*
X008627Y009035D01*
X008630Y009027D01*
X008630Y008884D01*
X008627Y008876D01*
X008627Y008673D01*
X008533Y008579D01*
X008007Y008579D01*
X007990Y008595D01*
X006877Y008595D01*
X006877Y008592D01*
X006850Y008565D01*
X008261Y008565D01*
X008393Y008511D01*
X008403Y008501D01*
X008533Y008501D01*
X008627Y008407D01*
X008627Y008204D01*
X008630Y008196D01*
X008630Y008053D01*
X008627Y008045D01*
X008627Y007842D01*
X008575Y007790D01*
X008627Y007738D01*
X008627Y007535D01*
X008630Y007527D01*
X008630Y007384D01*
X008627Y007376D01*
X008627Y007173D01*
X008533Y007079D01*
X008403Y007079D01*
X008399Y007075D01*
X008266Y007020D01*
X007748Y007020D01*
X007616Y007075D01*
X007613Y007078D01*
X007561Y007026D01*
X007579Y007008D01*
X007597Y006976D01*
X007607Y006940D01*
X007607Y006745D01*
X007310Y006745D01*
X007310Y006665D01*
X007310Y006349D01*
X007230Y006349D01*
X007230Y006665D01*
X007310Y006665D01*
X007607Y006665D01*
X007607Y006470D01*
X007597Y006435D01*
X007579Y006403D01*
X007553Y006377D01*
X007521Y006358D01*
X007485Y006349D01*
X007310Y006349D01*
X007310Y006428D02*
X007230Y006428D01*
X007230Y006506D02*
X007310Y006506D01*
X007310Y006585D02*
X007230Y006585D01*
X007230Y006663D02*
X007310Y006663D01*
X007310Y006742D02*
X009330Y006742D01*
X009330Y006820D02*
X007607Y006820D01*
X007607Y006899D02*
X009330Y006899D01*
X009330Y006977D02*
X007597Y006977D01*
X007591Y007056D02*
X007663Y007056D01*
X007607Y006663D02*
X009330Y006663D01*
X009330Y006585D02*
X009053Y006585D01*
X009131Y006506D02*
X009330Y006506D01*
X009330Y006428D02*
X009210Y006428D01*
X009288Y006349D02*
X009330Y006349D01*
X009330Y005721D02*
X009278Y005721D01*
X009330Y005643D02*
X009200Y005643D01*
X009121Y005564D02*
X009330Y005564D01*
X009330Y005486D02*
X009043Y005486D01*
X009044Y005093D02*
X009330Y005093D01*
X009330Y005015D02*
X009123Y005015D01*
X009201Y004936D02*
X009330Y004936D01*
X009330Y004858D02*
X009280Y004858D01*
X009330Y005172D02*
X006100Y005172D01*
X006100Y005250D02*
X009330Y005250D01*
X009330Y005329D02*
X006100Y005329D01*
X006132Y005407D02*
X009330Y005407D01*
X008770Y006040D02*
X008280Y006040D01*
X008140Y005900D01*
X006300Y005900D01*
X006532Y006114D02*
X008071Y006114D01*
X008252Y006349D02*
X007486Y006349D01*
X007593Y006428D02*
X008330Y006428D01*
X008409Y006506D02*
X007607Y006506D01*
X007607Y006585D02*
X008487Y006585D01*
X008352Y007056D02*
X009330Y007056D01*
X009330Y007134D02*
X008588Y007134D01*
X008627Y007213D02*
X009330Y007213D01*
X009330Y007291D02*
X008627Y007291D01*
X008627Y007370D02*
X009330Y007370D01*
X009330Y007448D02*
X008630Y007448D01*
X008630Y007527D02*
X009330Y007527D01*
X009330Y007605D02*
X008627Y007605D01*
X008627Y007684D02*
X009330Y007684D01*
X009330Y007762D02*
X008603Y007762D01*
X008626Y007841D02*
X009330Y007841D01*
X009330Y007919D02*
X008627Y007919D01*
X008627Y007998D02*
X009330Y007998D01*
X009330Y008076D02*
X008630Y008076D01*
X008630Y008155D02*
X009330Y008155D01*
X009330Y008233D02*
X008627Y008233D01*
X008627Y008312D02*
X009330Y008312D01*
X009330Y008390D02*
X008627Y008390D01*
X008566Y008469D02*
X009330Y008469D01*
X009330Y008547D02*
X008305Y008547D01*
X008580Y008626D02*
X009330Y008626D01*
X009330Y008704D02*
X008627Y008704D01*
X008627Y008783D02*
X009330Y008783D01*
X009330Y008861D02*
X008627Y008861D01*
X008630Y008940D02*
X009330Y008940D01*
X009330Y009018D02*
X008630Y009018D01*
X008627Y009097D02*
X009330Y009097D01*
X009330Y009175D02*
X008627Y009175D01*
X008611Y009254D02*
X009330Y009254D01*
X009330Y009332D02*
X008617Y009332D01*
X008627Y009411D02*
X009330Y009411D01*
X009330Y009489D02*
X008627Y009489D01*
X008630Y009568D02*
X009330Y009568D01*
X009330Y009646D02*
X008630Y009646D01*
X008630Y009725D02*
X009330Y009725D01*
X009330Y009803D02*
X008630Y009803D01*
X008630Y009882D02*
X009330Y009882D01*
X009330Y009960D02*
X008630Y009960D01*
X008630Y010039D02*
X009330Y010039D01*
X009330Y010117D02*
X008630Y010117D01*
X008630Y010196D02*
X009330Y010196D01*
X009330Y010274D02*
X008630Y010274D01*
X008630Y010353D02*
X009330Y010353D01*
X009330Y010431D02*
X008630Y010431D01*
X008630Y010510D02*
X009330Y010510D01*
X009330Y010588D02*
X008627Y010588D01*
X008627Y010667D02*
X009330Y010667D01*
X009330Y010745D02*
X008620Y010745D01*
X008609Y010824D02*
X009330Y010824D01*
X009330Y010902D02*
X008627Y010902D01*
X008635Y010981D02*
X009330Y010981D01*
X009330Y011059D02*
X008682Y011059D01*
X008715Y011138D02*
X009330Y011138D01*
X009330Y011216D02*
X008715Y011216D01*
X008715Y011295D02*
X009330Y011295D01*
X009330Y011373D02*
X008715Y011373D01*
X008715Y011452D02*
X009330Y011452D01*
X009330Y011530D02*
X008715Y011530D01*
X008715Y011609D02*
X009330Y011609D01*
X009330Y011687D02*
X008715Y011687D01*
X008720Y011766D02*
X009330Y011766D01*
X009330Y011844D02*
X008731Y011844D01*
X008731Y011923D02*
X009330Y011923D01*
X009330Y012001D02*
X008731Y012001D01*
X008731Y012080D02*
X009330Y012080D01*
X009330Y012158D02*
X008731Y012158D01*
X008774Y012237D02*
X009330Y012237D01*
X009330Y012315D02*
X008806Y012315D01*
X008820Y012394D02*
X009330Y012394D01*
X009330Y012472D02*
X009034Y012472D01*
X008035Y012483D02*
X007995Y012386D01*
X007995Y012342D01*
X007988Y012349D01*
X007956Y012367D01*
X007920Y012377D01*
X007725Y012377D01*
X007725Y012080D01*
X007645Y012080D01*
X007645Y012000D01*
X007329Y012000D01*
X007329Y011825D01*
X007338Y011789D01*
X007357Y011757D01*
X007383Y011731D01*
X007415Y011713D01*
X007450Y011703D01*
X007645Y011703D01*
X007645Y012000D01*
X007725Y012000D01*
X007725Y011703D01*
X007920Y011703D01*
X007956Y011713D01*
X007988Y011731D01*
X007995Y011738D01*
X007995Y011489D01*
X007913Y011407D01*
X007913Y011204D01*
X007910Y011196D01*
X007910Y011053D01*
X007913Y011045D01*
X007913Y010842D01*
X007965Y010790D01*
X007913Y010738D01*
X007913Y010535D01*
X007910Y010527D01*
X007910Y009553D01*
X007913Y009545D01*
X007913Y009342D01*
X007940Y009315D01*
X007186Y009315D01*
X007240Y009369D01*
X007400Y009529D01*
X007400Y011031D01*
X007271Y011160D01*
X007151Y011280D01*
X007107Y011280D01*
X007107Y011950D01*
X007013Y012044D01*
X006987Y012044D01*
X006923Y012108D01*
X006903Y012156D01*
X006823Y012236D01*
X006756Y012303D01*
X006668Y012340D01*
X006452Y012340D01*
X006364Y012303D01*
X006124Y012063D01*
X006057Y011996D01*
X006020Y011908D01*
X006020Y011519D01*
X005961Y011460D01*
X005612Y011460D01*
X005524Y011423D01*
X004986Y010885D01*
X004973Y010891D01*
X005603Y011520D01*
X005720Y011637D01*
X005720Y011908D01*
X005960Y011908D01*
X006054Y012001D01*
X006062Y012001D01*
X006054Y012001D02*
X006054Y013079D01*
X005960Y013172D01*
X005895Y013172D01*
X005937Y013215D01*
X006055Y013332D01*
X006055Y013433D01*
X006137Y013433D01*
X006231Y013527D01*
X006231Y014053D01*
X006137Y014147D01*
X005572Y014147D01*
X005506Y014081D01*
X005488Y014099D01*
X005456Y014117D01*
X005420Y014127D01*
X005225Y014127D01*
X005225Y013830D01*
X005145Y013830D01*
X005145Y013750D01*
X004829Y013750D01*
X004829Y013575D01*
X004838Y013539D01*
X004857Y013507D01*
X004883Y013481D01*
X004915Y013463D01*
X004950Y013453D01*
X005145Y013453D01*
X005145Y013750D01*
X005225Y013750D01*
X005225Y013453D01*
X005420Y013453D01*
X005456Y013463D01*
X005488Y013481D01*
X005506Y013499D01*
X005572Y013433D01*
X005590Y013433D01*
X005340Y013183D01*
X005340Y013172D01*
X005080Y013172D01*
X004986Y013079D01*
X004986Y012001D01*
X004440Y012001D01*
X004440Y013079D01*
X004346Y013172D01*
X004106Y013172D01*
X004106Y013177D01*
X003989Y013294D01*
X003900Y013383D01*
X003900Y013433D01*
X003968Y013433D01*
X004034Y013499D01*
X004052Y013481D01*
X004084Y013463D01*
X004120Y013453D01*
X004315Y013453D01*
X004315Y013750D01*
X004395Y013750D01*
X004395Y013830D01*
X004711Y013830D01*
X004711Y014005D01*
X004702Y014041D01*
X004683Y014073D01*
X004657Y014099D01*
X004625Y014117D01*
X004590Y014127D01*
X004395Y014127D01*
X004395Y013830D01*
X004315Y013830D01*
X004315Y014127D01*
X004120Y014127D01*
X004084Y014117D01*
X004052Y014099D01*
X004034Y014081D01*
X003968Y014147D01*
X003403Y014147D01*
X003309Y014053D01*
X003309Y013527D01*
X003403Y013433D01*
X003500Y013433D01*
X003500Y013217D01*
X003545Y013172D01*
X003466Y013172D01*
X003400Y013107D01*
X003400Y013291D01*
X003271Y013420D01*
X003231Y013460D01*
X003231Y013553D01*
X003137Y013647D01*
X002572Y013647D01*
X002506Y013581D01*
X002488Y013599D01*
X002456Y013617D01*
X002420Y013627D01*
X002225Y013627D01*
X002225Y013330D01*
X002145Y013330D01*
X002145Y013250D01*
X001829Y013250D01*
X001829Y013075D01*
X001838Y013039D01*
X001857Y013007D01*
X001883Y012981D01*
X001915Y012963D01*
X001950Y012953D01*
X001982Y012953D01*
X001929Y012900D01*
X001800Y012771D01*
X001800Y012751D01*
X001757Y012751D01*
X001663Y012657D01*
X001663Y012092D01*
X001715Y012040D01*
X001663Y011988D01*
X001663Y011423D01*
X001757Y011329D01*
X001791Y011329D01*
X001800Y011294D01*
X001800Y011229D01*
X001821Y011208D01*
X001960Y010634D01*
X001960Y010569D01*
X001975Y010554D01*
X001975Y010330D01*
X001895Y010330D01*
X001895Y010250D01*
X001579Y010250D01*
X001579Y010075D01*
X001588Y010039D01*
X001607Y010007D01*
X001633Y009981D01*
X001665Y009963D01*
X001700Y009953D01*
X001895Y009953D01*
X001895Y010250D01*
X001975Y010250D01*
X001975Y009953D01*
X002170Y009953D01*
X002206Y009963D01*
X002238Y009981D01*
X002256Y009999D01*
X002322Y009933D01*
X002865Y009933D01*
X002865Y009897D01*
X002322Y009897D01*
X002256Y009831D01*
X002238Y009849D01*
X002206Y009867D01*
X002170Y009877D01*
X001975Y009877D01*
X001975Y009580D01*
X001895Y009580D01*
X001895Y009500D01*
X001579Y009500D01*
X001579Y009325D01*
X001588Y009289D01*
X001607Y009257D01*
X001633Y009231D01*
X001665Y009213D01*
X001700Y009203D01*
X001895Y009203D01*
X001895Y009500D01*
X001975Y009500D01*
X001975Y009203D01*
X002170Y009203D01*
X002206Y009213D01*
X002238Y009231D01*
X002256Y009249D01*
X002322Y009183D01*
X002840Y009183D01*
X002840Y009147D01*
X002322Y009147D01*
X002256Y009081D01*
X002238Y009099D01*
X002206Y009117D01*
X002170Y009127D01*
X001975Y009127D01*
X001975Y008830D01*
X001895Y008830D01*
X001895Y008750D01*
X001579Y008750D01*
X001579Y008575D01*
X001588Y008539D01*
X001607Y008507D01*
X001633Y008481D01*
X001665Y008463D01*
X001700Y008453D01*
X001895Y008453D01*
X001895Y008750D01*
X001975Y008750D01*
X001975Y008453D01*
X002170Y008453D01*
X002206Y008463D01*
X002238Y008481D01*
X002256Y008499D01*
X002322Y008433D01*
X002750Y008433D01*
X002676Y008359D01*
X002637Y008397D01*
X002072Y008397D01*
X002006Y008331D01*
X001988Y008349D01*
X001956Y008367D01*
X001920Y008377D01*
X001725Y008377D01*
X001725Y008080D01*
X001645Y008080D01*
X001645Y008000D01*
X001329Y008000D01*
X001329Y007825D01*
X001338Y007789D01*
X001357Y007757D01*
X001383Y007731D01*
X001415Y007713D01*
X001450Y007703D01*
X001645Y007703D01*
X001645Y008000D01*
X001725Y008000D01*
X001725Y007703D01*
X001920Y007703D01*
X001928Y007705D01*
X001870Y007647D01*
X001599Y007647D01*
X001506Y007553D01*
X001506Y006043D01*
X001599Y005949D01*
X001914Y005949D01*
X001933Y005930D01*
X002019Y005844D01*
X002006Y005831D01*
X001988Y005849D01*
X001956Y005867D01*
X001920Y005877D01*
X001725Y005877D01*
X001725Y005580D01*
X001645Y005580D01*
X001645Y005500D01*
X001329Y005500D01*
X001329Y005325D01*
X001338Y005289D01*
X001357Y005257D01*
X001383Y005231D01*
X001415Y005213D01*
X001450Y005203D01*
X001645Y005203D01*
X001645Y005500D01*
X001725Y005500D01*
X001725Y005203D01*
X001920Y005203D01*
X001956Y005213D01*
X001988Y005231D01*
X002006Y005249D01*
X002072Y005183D01*
X002340Y005183D01*
X001857Y004700D01*
X001785Y004700D01*
X001718Y004767D01*
X001603Y004815D01*
X001477Y004815D01*
X001362Y004767D01*
X001273Y004678D01*
X001225Y004563D01*
X001225Y004437D01*
X001273Y004322D01*
X001288Y004306D01*
X001242Y004287D01*
X001210Y004255D01*
X001210Y018850D01*
X009330Y018850D01*
X009330Y016535D01*
X007152Y016535D01*
X007128Y016511D01*
X007128Y012543D01*
X007152Y012520D01*
X007998Y012520D01*
X008035Y012483D01*
X008030Y012472D02*
X006054Y012472D01*
X006054Y012394D02*
X007998Y012394D01*
X007725Y012315D02*
X007645Y012315D01*
X007645Y012377D02*
X007645Y012080D01*
X007329Y012080D01*
X007329Y012255D01*
X007338Y012291D01*
X007357Y012323D01*
X007383Y012349D01*
X007415Y012367D01*
X007450Y012377D01*
X007645Y012377D01*
X007645Y012237D02*
X007725Y012237D01*
X007725Y012158D02*
X007645Y012158D01*
X007645Y012080D02*
X006952Y012080D01*
X006901Y012158D02*
X007329Y012158D01*
X007329Y012237D02*
X006823Y012237D01*
X006728Y012315D02*
X007352Y012315D01*
X007128Y012551D02*
X006054Y012551D01*
X006054Y012629D02*
X007128Y012629D01*
X007128Y012708D02*
X006054Y012708D01*
X006054Y012786D02*
X007128Y012786D01*
X007128Y012865D02*
X006054Y012865D01*
X006054Y012943D02*
X007128Y012943D01*
X007128Y013022D02*
X006054Y013022D01*
X006033Y013100D02*
X007128Y013100D01*
X007128Y013179D02*
X005901Y013179D01*
X005980Y013257D02*
X007128Y013257D01*
X007128Y013336D02*
X006055Y013336D01*
X006055Y013414D02*
X007128Y013414D01*
X007128Y013493D02*
X006197Y013493D01*
X006231Y013571D02*
X007128Y013571D01*
X007128Y013650D02*
X006231Y013650D01*
X006231Y013728D02*
X007128Y013728D01*
X007128Y013807D02*
X006231Y013807D01*
X006231Y013885D02*
X007128Y013885D01*
X007128Y013964D02*
X006231Y013964D01*
X006231Y014042D02*
X007128Y014042D01*
X007128Y014121D02*
X006164Y014121D01*
X005855Y013790D02*
X005855Y013415D01*
X005540Y013100D01*
X005540Y012560D01*
X005520Y012540D01*
X005520Y011720D01*
X004580Y010780D01*
X004580Y010380D01*
X004820Y010140D01*
X004820Y009279D01*
X004815Y009274D01*
X004620Y009276D02*
X004620Y009620D01*
X004660Y009660D01*
X004660Y010020D01*
X003906Y010774D01*
X003906Y012540D01*
X003906Y013094D01*
X003700Y013300D01*
X003700Y013775D01*
X003685Y013790D01*
X003500Y013414D02*
X003277Y013414D01*
X003231Y013493D02*
X003343Y013493D01*
X003309Y013571D02*
X003213Y013571D01*
X003309Y013650D02*
X001210Y013650D01*
X001210Y013728D02*
X003309Y013728D01*
X003309Y013807D02*
X001210Y013807D01*
X001210Y013885D02*
X003309Y013885D01*
X003309Y013964D02*
X001210Y013964D01*
X001210Y014042D02*
X003309Y014042D01*
X003376Y014121D02*
X001210Y014121D01*
X001210Y014199D02*
X007128Y014199D01*
X007128Y014278D02*
X002153Y014278D01*
X002123Y014265D02*
X002238Y014313D01*
X002327Y014402D01*
X002375Y014517D01*
X002375Y014612D01*
X003623Y015860D01*
X005823Y015860D01*
X006623Y016660D01*
X007343Y016660D01*
X007503Y016820D01*
X008183Y016820D01*
X008486Y017123D01*
X008509Y017100D01*
X008678Y017030D01*
X008861Y017030D01*
X009031Y017100D01*
X009160Y017229D01*
X009230Y017398D01*
X009230Y018181D01*
X009160Y018351D01*
X009031Y018480D01*
X008861Y018550D01*
X008678Y018550D01*
X008509Y018480D01*
X008380Y018351D01*
X008310Y018181D01*
X008310Y017513D01*
X008230Y017433D01*
X008230Y018181D01*
X008160Y018351D01*
X008031Y018480D01*
X007861Y018550D01*
X007678Y018550D01*
X007509Y018480D01*
X007380Y018351D01*
X007310Y018181D01*
X007310Y017473D01*
X007226Y017389D01*
X007230Y017398D01*
X007230Y018181D01*
X007160Y018351D01*
X007031Y018480D01*
X006861Y018550D01*
X006678Y018550D01*
X006509Y018480D01*
X006380Y018351D01*
X006310Y018181D01*
X006310Y017433D01*
X006198Y017321D01*
X006230Y017398D01*
X006230Y018181D01*
X006160Y018351D01*
X006031Y018480D01*
X005861Y018550D01*
X005678Y018550D01*
X005509Y018480D01*
X005380Y018351D01*
X005310Y018181D01*
X005310Y017398D01*
X005347Y017310D01*
X005057Y017020D01*
X002537Y017020D01*
X002420Y016903D01*
X001972Y016455D01*
X001877Y016455D01*
X001762Y016407D01*
X001673Y016318D01*
X001625Y016203D01*
X001625Y016077D01*
X001673Y015962D01*
X001762Y015873D01*
X001841Y015840D01*
X001762Y015807D01*
X001673Y015718D01*
X001625Y015603D01*
X001625Y015477D01*
X001673Y015362D01*
X001755Y015280D01*
X001673Y015198D01*
X001625Y015083D01*
X001625Y014957D01*
X001673Y014842D01*
X001762Y014753D01*
X001786Y014743D01*
X001745Y014643D01*
X001745Y014517D01*
X001793Y014402D01*
X001882Y014313D01*
X001997Y014265D01*
X002123Y014265D01*
X001967Y014278D02*
X001210Y014278D01*
X001210Y014356D02*
X001838Y014356D01*
X001779Y014435D02*
X001210Y014435D01*
X001210Y014513D02*
X001747Y014513D01*
X001745Y014592D02*
X001210Y014592D01*
X001210Y014670D02*
X001756Y014670D01*
X001772Y014749D02*
X001210Y014749D01*
X001210Y014827D02*
X001687Y014827D01*
X001646Y014906D02*
X001210Y014906D01*
X001210Y014984D02*
X001625Y014984D01*
X001625Y015063D02*
X001210Y015063D01*
X001210Y015141D02*
X001649Y015141D01*
X001694Y015220D02*
X001210Y015220D01*
X001210Y015298D02*
X001736Y015298D01*
X001667Y015377D02*
X001210Y015377D01*
X001210Y015455D02*
X001634Y015455D01*
X001625Y015534D02*
X001210Y015534D01*
X001210Y015612D02*
X001629Y015612D01*
X001661Y015691D02*
X001210Y015691D01*
X001210Y015769D02*
X001724Y015769D01*
X001823Y015848D02*
X001210Y015848D01*
X001210Y015926D02*
X001708Y015926D01*
X001655Y016005D02*
X001210Y016005D01*
X001210Y016083D02*
X001625Y016083D01*
X001625Y016162D02*
X001210Y016162D01*
X001210Y016240D02*
X001640Y016240D01*
X001673Y016319D02*
X001210Y016319D01*
X001210Y016397D02*
X001752Y016397D01*
X001993Y016476D02*
X001210Y016476D01*
X001210Y016554D02*
X002071Y016554D01*
X002150Y016633D02*
X001210Y016633D01*
X001210Y016711D02*
X002228Y016711D01*
X002307Y016790D02*
X001210Y016790D01*
X001210Y016868D02*
X002385Y016868D01*
X002464Y016947D02*
X001210Y016947D01*
X001210Y017025D02*
X005062Y017025D01*
X005031Y017100D02*
X005160Y017229D01*
X005230Y017398D01*
X005230Y018181D01*
X005160Y018351D01*
X005031Y018480D01*
X004861Y018550D01*
X004678Y018550D01*
X004509Y018480D01*
X004380Y018351D01*
X004310Y018181D01*
X004310Y017398D01*
X004380Y017229D01*
X004509Y017100D01*
X004678Y017030D01*
X004861Y017030D01*
X005031Y017100D01*
X005034Y017104D02*
X005141Y017104D01*
X005113Y017182D02*
X005219Y017182D01*
X005173Y017261D02*
X005298Y017261D01*
X005335Y017339D02*
X005205Y017339D01*
X005230Y017418D02*
X005310Y017418D01*
X005310Y017496D02*
X005230Y017496D01*
X005230Y017575D02*
X005310Y017575D01*
X005310Y017653D02*
X005230Y017653D01*
X005230Y017732D02*
X005310Y017732D01*
X005310Y017810D02*
X005230Y017810D01*
X005230Y017889D02*
X005310Y017889D01*
X005310Y017967D02*
X005230Y017967D01*
X005230Y018046D02*
X005310Y018046D01*
X005310Y018124D02*
X005230Y018124D01*
X005221Y018203D02*
X005319Y018203D01*
X005351Y018281D02*
X005189Y018281D01*
X005151Y018360D02*
X005389Y018360D01*
X005468Y018438D02*
X005072Y018438D01*
X004942Y018517D02*
X005598Y018517D01*
X005942Y018517D02*
X006598Y018517D01*
X006468Y018438D02*
X006072Y018438D01*
X006151Y018360D02*
X006389Y018360D01*
X006351Y018281D02*
X006189Y018281D01*
X006221Y018203D02*
X006319Y018203D01*
X006310Y018124D02*
X006230Y018124D01*
X006230Y018046D02*
X006310Y018046D01*
X006310Y017967D02*
X006230Y017967D01*
X006230Y017889D02*
X006310Y017889D01*
X006310Y017810D02*
X006230Y017810D01*
X006230Y017732D02*
X006310Y017732D01*
X006310Y017653D02*
X006230Y017653D01*
X006230Y017575D02*
X006310Y017575D01*
X006310Y017496D02*
X006230Y017496D01*
X006230Y017418D02*
X006295Y017418D01*
X006216Y017339D02*
X006205Y017339D01*
X006460Y017020D02*
X007140Y017020D01*
X007770Y017650D01*
X007770Y017790D01*
X007389Y018360D02*
X007151Y018360D01*
X007189Y018281D02*
X007351Y018281D01*
X007319Y018203D02*
X007221Y018203D01*
X007230Y018124D02*
X007310Y018124D01*
X007310Y018046D02*
X007230Y018046D01*
X007230Y017967D02*
X007310Y017967D01*
X007310Y017889D02*
X007230Y017889D01*
X007230Y017810D02*
X007310Y017810D01*
X007310Y017732D02*
X007230Y017732D01*
X007230Y017653D02*
X007310Y017653D01*
X007310Y017575D02*
X007230Y017575D01*
X007230Y017496D02*
X007310Y017496D01*
X007255Y017418D02*
X007230Y017418D01*
X007420Y017020D02*
X008100Y017020D01*
X008770Y017690D01*
X008770Y017790D01*
X009072Y018438D02*
X009330Y018438D01*
X009330Y018360D02*
X009151Y018360D01*
X009189Y018281D02*
X009330Y018281D01*
X009330Y018203D02*
X009221Y018203D01*
X009230Y018124D02*
X009330Y018124D01*
X009330Y018046D02*
X009230Y018046D01*
X009230Y017967D02*
X009330Y017967D01*
X009330Y017889D02*
X009230Y017889D01*
X009230Y017810D02*
X009330Y017810D01*
X009330Y017732D02*
X009230Y017732D01*
X009230Y017653D02*
X009330Y017653D01*
X009330Y017575D02*
X009230Y017575D01*
X009230Y017496D02*
X009330Y017496D01*
X009330Y017418D02*
X009230Y017418D01*
X009205Y017339D02*
X009330Y017339D01*
X009330Y017261D02*
X009173Y017261D01*
X009113Y017182D02*
X009330Y017182D01*
X009330Y017104D02*
X009034Y017104D01*
X009330Y017025D02*
X008388Y017025D01*
X008466Y017104D02*
X008506Y017104D01*
X008309Y016947D02*
X009330Y016947D01*
X009330Y016868D02*
X008231Y016868D01*
X008230Y017496D02*
X008293Y017496D01*
X008310Y017575D02*
X008230Y017575D01*
X008230Y017653D02*
X008310Y017653D01*
X008310Y017732D02*
X008230Y017732D01*
X008230Y017810D02*
X008310Y017810D01*
X008310Y017889D02*
X008230Y017889D01*
X008230Y017967D02*
X008310Y017967D01*
X008310Y018046D02*
X008230Y018046D01*
X008230Y018124D02*
X008310Y018124D01*
X008319Y018203D02*
X008221Y018203D01*
X008189Y018281D02*
X008351Y018281D01*
X008389Y018360D02*
X008151Y018360D01*
X008072Y018438D02*
X008468Y018438D01*
X008598Y018517D02*
X007942Y018517D01*
X007598Y018517D02*
X006942Y018517D01*
X007072Y018438D02*
X007468Y018438D01*
X006770Y017790D02*
X006770Y017610D01*
X005700Y016540D01*
X002940Y016540D01*
X001940Y015540D01*
X001940Y015020D02*
X003260Y016340D01*
X005780Y016340D01*
X006460Y017020D01*
X006540Y016860D02*
X007260Y016860D01*
X007420Y017020D01*
X007472Y016790D02*
X009330Y016790D01*
X009330Y016711D02*
X007394Y016711D01*
X007128Y016476D02*
X006438Y016476D01*
X006517Y016554D02*
X009330Y016554D01*
X009330Y016633D02*
X006595Y016633D01*
X006540Y016860D02*
X005740Y016060D01*
X003540Y016060D01*
X002060Y014580D01*
X002282Y014356D02*
X007128Y014356D01*
X007128Y014435D02*
X002341Y014435D01*
X002373Y014513D02*
X007128Y014513D01*
X007128Y014592D02*
X002375Y014592D01*
X002433Y014670D02*
X007128Y014670D01*
X007128Y014749D02*
X002511Y014749D01*
X002590Y014827D02*
X007128Y014827D01*
X007128Y014906D02*
X002668Y014906D01*
X002747Y014984D02*
X007128Y014984D01*
X007128Y015063D02*
X002825Y015063D01*
X002904Y015141D02*
X007128Y015141D01*
X007128Y015220D02*
X002982Y015220D01*
X003061Y015298D02*
X007128Y015298D01*
X007128Y015377D02*
X003139Y015377D01*
X003218Y015455D02*
X007128Y015455D01*
X007128Y015534D02*
X003296Y015534D01*
X003375Y015612D02*
X007128Y015612D01*
X007128Y015691D02*
X003453Y015691D01*
X003532Y015769D02*
X007128Y015769D01*
X007128Y015848D02*
X003610Y015848D01*
X003678Y017030D02*
X003861Y017030D01*
X004031Y017100D01*
X004160Y017229D01*
X004230Y017398D01*
X004230Y018181D01*
X004160Y018351D01*
X004031Y018480D01*
X003861Y018550D01*
X003678Y018550D01*
X003509Y018480D01*
X003380Y018351D01*
X003310Y018181D01*
X003310Y017398D01*
X003380Y017229D01*
X003509Y017100D01*
X003678Y017030D01*
X003506Y017104D02*
X003034Y017104D01*
X003031Y017100D02*
X003160Y017229D01*
X003230Y017398D01*
X003230Y018181D01*
X003160Y018351D01*
X003031Y018480D01*
X002861Y018550D01*
X002678Y018550D01*
X002509Y018480D01*
X002380Y018351D01*
X002310Y018181D01*
X002310Y017398D01*
X002380Y017229D01*
X002509Y017100D01*
X002678Y017030D01*
X002861Y017030D01*
X003031Y017100D01*
X003113Y017182D02*
X003427Y017182D01*
X003367Y017261D02*
X003173Y017261D01*
X003205Y017339D02*
X003335Y017339D01*
X003310Y017418D02*
X003230Y017418D01*
X003230Y017496D02*
X003310Y017496D01*
X003310Y017575D02*
X003230Y017575D01*
X003230Y017653D02*
X003310Y017653D01*
X003310Y017732D02*
X003230Y017732D01*
X003230Y017810D02*
X003310Y017810D01*
X003310Y017889D02*
X003230Y017889D01*
X003230Y017967D02*
X003310Y017967D01*
X003310Y018046D02*
X003230Y018046D01*
X003230Y018124D02*
X003310Y018124D01*
X003319Y018203D02*
X003221Y018203D01*
X003189Y018281D02*
X003351Y018281D01*
X003389Y018360D02*
X003151Y018360D01*
X003072Y018438D02*
X003468Y018438D01*
X003598Y018517D02*
X002942Y018517D01*
X002598Y018517D02*
X001942Y018517D01*
X001861Y018550D02*
X002031Y018480D01*
X002160Y018351D01*
X002230Y018181D01*
X002230Y017398D01*
X002160Y017229D01*
X002031Y017100D01*
X001861Y017030D01*
X001678Y017030D01*
X001509Y017100D01*
X001380Y017229D01*
X001310Y017398D01*
X001310Y018181D01*
X001380Y018351D01*
X001509Y018480D01*
X001678Y018550D01*
X001861Y018550D01*
X002072Y018438D02*
X002468Y018438D01*
X002389Y018360D02*
X002151Y018360D01*
X002189Y018281D02*
X002351Y018281D01*
X002319Y018203D02*
X002221Y018203D01*
X002230Y018124D02*
X002310Y018124D01*
X002310Y018046D02*
X002230Y018046D01*
X002230Y017967D02*
X002310Y017967D01*
X002310Y017889D02*
X002230Y017889D01*
X002230Y017810D02*
X002310Y017810D01*
X002310Y017732D02*
X002230Y017732D01*
X002230Y017653D02*
X002310Y017653D01*
X002310Y017575D02*
X002230Y017575D01*
X002230Y017496D02*
X002310Y017496D01*
X002310Y017418D02*
X002230Y017418D01*
X002205Y017339D02*
X002335Y017339D01*
X002367Y017261D02*
X002173Y017261D01*
X002113Y017182D02*
X002427Y017182D01*
X002506Y017104D02*
X002034Y017104D01*
X002620Y016820D02*
X001940Y016140D01*
X001506Y017104D02*
X001210Y017104D01*
X001210Y017182D02*
X001427Y017182D01*
X001367Y017261D02*
X001210Y017261D01*
X001210Y017339D02*
X001335Y017339D01*
X001310Y017418D02*
X001210Y017418D01*
X001210Y017496D02*
X001310Y017496D01*
X001310Y017575D02*
X001210Y017575D01*
X001210Y017653D02*
X001310Y017653D01*
X001310Y017732D02*
X001210Y017732D01*
X001210Y017810D02*
X001310Y017810D01*
X001310Y017889D02*
X001210Y017889D01*
X001210Y017967D02*
X001310Y017967D01*
X001310Y018046D02*
X001210Y018046D01*
X001210Y018124D02*
X001310Y018124D01*
X001319Y018203D02*
X001210Y018203D01*
X001210Y018281D02*
X001351Y018281D01*
X001389Y018360D02*
X001210Y018360D01*
X001210Y018438D02*
X001468Y018438D01*
X001598Y018517D02*
X001210Y018517D01*
X001210Y018595D02*
X009330Y018595D01*
X009330Y018517D02*
X008942Y018517D01*
X009330Y018674D02*
X001210Y018674D01*
X001210Y018752D02*
X009330Y018752D01*
X009330Y018831D02*
X001210Y018831D01*
X002620Y016820D02*
X005140Y016820D01*
X005770Y017450D01*
X005770Y017790D01*
X006360Y016397D02*
X007128Y016397D01*
X007128Y016319D02*
X006281Y016319D01*
X006203Y016240D02*
X007128Y016240D01*
X007128Y016162D02*
X006124Y016162D01*
X006046Y016083D02*
X007128Y016083D01*
X007128Y016005D02*
X005967Y016005D01*
X005889Y015926D02*
X007128Y015926D01*
X005571Y013414D02*
X003900Y013414D01*
X003947Y013336D02*
X005493Y013336D01*
X005414Y013257D02*
X004026Y013257D01*
X004104Y013179D02*
X005340Y013179D01*
X005225Y013493D02*
X005145Y013493D01*
X005145Y013571D02*
X005225Y013571D01*
X005225Y013650D02*
X005145Y013650D01*
X005145Y013728D02*
X005225Y013728D01*
X005145Y013807D02*
X004395Y013807D01*
X004395Y013750D02*
X004711Y013750D01*
X004711Y013575D01*
X004702Y013539D01*
X004683Y013507D01*
X004657Y013481D01*
X004625Y013463D01*
X004590Y013453D01*
X004395Y013453D01*
X004395Y013750D01*
X004395Y013728D02*
X004315Y013728D01*
X004315Y013650D02*
X004395Y013650D01*
X004395Y013571D02*
X004315Y013571D01*
X004315Y013493D02*
X004395Y013493D01*
X004395Y013885D02*
X004315Y013885D01*
X004315Y013964D02*
X004395Y013964D01*
X004395Y014042D02*
X004315Y014042D01*
X004315Y014121D02*
X004395Y014121D01*
X004613Y014121D02*
X004927Y014121D01*
X004915Y014117D02*
X004883Y014099D01*
X004857Y014073D01*
X004838Y014041D01*
X004829Y014005D01*
X004829Y013830D01*
X005145Y013830D01*
X005145Y014127D01*
X004950Y014127D01*
X004915Y014117D01*
X004839Y014042D02*
X004701Y014042D01*
X004711Y013964D02*
X004829Y013964D01*
X004829Y013885D02*
X004711Y013885D01*
X004711Y013728D02*
X004829Y013728D01*
X004829Y013650D02*
X004711Y013650D01*
X004710Y013571D02*
X004830Y013571D01*
X004871Y013493D02*
X004669Y013493D01*
X004419Y013100D02*
X005007Y013100D01*
X004986Y013022D02*
X004440Y013022D01*
X004440Y012943D02*
X004986Y012943D01*
X004986Y012865D02*
X004440Y012865D01*
X004440Y012786D02*
X004986Y012786D01*
X004986Y012708D02*
X004440Y012708D01*
X004440Y012629D02*
X004986Y012629D01*
X004986Y012551D02*
X004440Y012551D01*
X004440Y012472D02*
X004986Y012472D01*
X004986Y012394D02*
X004440Y012394D01*
X004440Y012315D02*
X004986Y012315D01*
X004986Y012237D02*
X004440Y012237D01*
X004440Y012158D02*
X004986Y012158D01*
X004986Y012080D02*
X004440Y012080D01*
X004440Y012001D02*
X004346Y011908D01*
X004106Y011908D01*
X004106Y010857D01*
X004380Y010583D01*
X004380Y010863D01*
X005320Y011803D01*
X005320Y011908D01*
X005080Y011908D01*
X004986Y012001D01*
X005065Y011923D02*
X004361Y011923D01*
X004106Y011844D02*
X005320Y011844D01*
X005283Y011766D02*
X004106Y011766D01*
X004106Y011687D02*
X005204Y011687D01*
X005126Y011609D02*
X004106Y011609D01*
X004106Y011530D02*
X005047Y011530D01*
X004969Y011452D02*
X004106Y011452D01*
X004106Y011373D02*
X004890Y011373D01*
X004812Y011295D02*
X004106Y011295D01*
X004106Y011216D02*
X004733Y011216D01*
X004655Y011138D02*
X004106Y011138D01*
X004106Y011059D02*
X004576Y011059D01*
X004498Y010981D02*
X004106Y010981D01*
X004106Y010902D02*
X004419Y010902D01*
X004380Y010824D02*
X004139Y010824D01*
X004218Y010745D02*
X004380Y010745D01*
X004380Y010667D02*
X004296Y010667D01*
X004375Y010588D02*
X004380Y010588D01*
X004053Y009995D02*
X004046Y009977D01*
X004043Y009980D01*
X003877Y009980D01*
X003784Y009887D01*
X003760Y009911D01*
X003760Y010191D01*
X003071Y010880D01*
X002353Y010880D01*
X002244Y011329D01*
X002283Y011329D01*
X002377Y011423D01*
X002377Y011988D01*
X002325Y012040D01*
X002377Y012092D01*
X002377Y012540D01*
X002413Y012540D01*
X002413Y012092D01*
X002465Y012040D01*
X002413Y011988D01*
X002413Y011423D01*
X002507Y011329D01*
X002606Y011329D01*
X002640Y011253D01*
X002640Y011209D01*
X002676Y011173D01*
X002696Y011127D01*
X002737Y011111D01*
X002769Y011080D01*
X002819Y011080D01*
X002866Y011062D01*
X002907Y011080D01*
X003052Y011080D01*
X003120Y010962D01*
X003120Y010929D01*
X003164Y010885D01*
X003194Y010832D01*
X003226Y010823D01*
X004053Y009995D01*
X004010Y010039D02*
X003760Y010039D01*
X003760Y010117D02*
X003932Y010117D01*
X003853Y010196D02*
X003756Y010196D01*
X003775Y010274D02*
X003677Y010274D01*
X003696Y010353D02*
X003599Y010353D01*
X003618Y010431D02*
X003520Y010431D01*
X003539Y010510D02*
X003442Y010510D01*
X003461Y010588D02*
X003363Y010588D01*
X003382Y010667D02*
X003285Y010667D01*
X003304Y010745D02*
X003206Y010745D01*
X003224Y010824D02*
X003128Y010824D01*
X003147Y010902D02*
X002348Y010902D01*
X002329Y010981D02*
X003109Y010981D01*
X003064Y011059D02*
X002310Y011059D01*
X002291Y011138D02*
X002691Y011138D01*
X002640Y011216D02*
X002272Y011216D01*
X002253Y011295D02*
X002622Y011295D01*
X002463Y011373D02*
X002327Y011373D01*
X002377Y011452D02*
X002413Y011452D01*
X002413Y011530D02*
X002377Y011530D01*
X002377Y011609D02*
X002413Y011609D01*
X002413Y011687D02*
X002377Y011687D01*
X002377Y011766D02*
X002413Y011766D01*
X002413Y011844D02*
X002377Y011844D01*
X002377Y011923D02*
X002413Y011923D01*
X002426Y012001D02*
X002364Y012001D01*
X002365Y012080D02*
X002425Y012080D01*
X002413Y012158D02*
X002377Y012158D01*
X002377Y012237D02*
X002413Y012237D01*
X002413Y012315D02*
X002377Y012315D01*
X002377Y012394D02*
X002413Y012394D01*
X002413Y012472D02*
X002377Y012472D01*
X001972Y012943D02*
X001210Y012943D01*
X001210Y012865D02*
X001893Y012865D01*
X001815Y012786D02*
X001210Y012786D01*
X001210Y012708D02*
X001713Y012708D01*
X001663Y012629D02*
X001210Y012629D01*
X001210Y012551D02*
X001663Y012551D01*
X001663Y012472D02*
X001210Y012472D01*
X001210Y012394D02*
X001663Y012394D01*
X001663Y012315D02*
X001210Y012315D01*
X001210Y012237D02*
X001663Y012237D01*
X001663Y012158D02*
X001210Y012158D01*
X001210Y012080D02*
X001675Y012080D01*
X001676Y012001D02*
X001210Y012001D01*
X001210Y011923D02*
X001663Y011923D01*
X001663Y011844D02*
X001210Y011844D01*
X001210Y011766D02*
X001663Y011766D01*
X001663Y011687D02*
X001210Y011687D01*
X001210Y011609D02*
X001663Y011609D01*
X001663Y011530D02*
X001210Y011530D01*
X001210Y011452D02*
X001663Y011452D01*
X001713Y011373D02*
X001210Y011373D01*
X001210Y011295D02*
X001800Y011295D01*
X001813Y011216D02*
X001210Y011216D01*
X001210Y011138D02*
X001838Y011138D01*
X001857Y011059D02*
X001210Y011059D01*
X001210Y010981D02*
X001876Y010981D01*
X001895Y010902D02*
X001210Y010902D01*
X001210Y010824D02*
X001914Y010824D01*
X001933Y010745D02*
X001210Y010745D01*
X001210Y010667D02*
X001952Y010667D01*
X001895Y010627D02*
X001700Y010627D01*
X001665Y010617D01*
X001633Y010599D01*
X001607Y010573D01*
X001588Y010541D01*
X001579Y010505D01*
X001579Y010330D01*
X001895Y010330D01*
X001895Y010627D01*
X001895Y010588D02*
X001960Y010588D01*
X001975Y010510D02*
X001895Y010510D01*
X001895Y010431D02*
X001975Y010431D01*
X001975Y010353D02*
X001895Y010353D01*
X001895Y010274D02*
X001210Y010274D01*
X001210Y010196D02*
X001579Y010196D01*
X001579Y010117D02*
X001210Y010117D01*
X001210Y010039D02*
X001589Y010039D01*
X001675Y009960D02*
X001210Y009960D01*
X001210Y009882D02*
X002307Y009882D01*
X002295Y009960D02*
X002196Y009960D01*
X001975Y009960D02*
X001895Y009960D01*
X001895Y010039D02*
X001975Y010039D01*
X001975Y010117D02*
X001895Y010117D01*
X001895Y010196D02*
X001975Y010196D01*
X001895Y009877D02*
X001700Y009877D01*
X001665Y009867D01*
X001633Y009849D01*
X001607Y009823D01*
X001588Y009791D01*
X001579Y009755D01*
X001579Y009580D01*
X001895Y009580D01*
X001895Y009877D01*
X001895Y009803D02*
X001975Y009803D01*
X001975Y009725D02*
X001895Y009725D01*
X001895Y009646D02*
X001975Y009646D01*
X001895Y009568D02*
X001210Y009568D01*
X001210Y009646D02*
X001579Y009646D01*
X001579Y009725D02*
X001210Y009725D01*
X001210Y009803D02*
X001595Y009803D01*
X001579Y009489D02*
X001210Y009489D01*
X001210Y009411D02*
X001579Y009411D01*
X001579Y009332D02*
X001210Y009332D01*
X001210Y009254D02*
X001610Y009254D01*
X001665Y009117D02*
X001633Y009099D01*
X001607Y009073D01*
X001588Y009041D01*
X001579Y009005D01*
X001579Y008830D01*
X001895Y008830D01*
X001895Y009127D01*
X001700Y009127D01*
X001665Y009117D01*
X001631Y009097D02*
X001210Y009097D01*
X001210Y009175D02*
X002840Y009175D01*
X002707Y008390D02*
X002644Y008390D01*
X002700Y008100D02*
X002415Y008100D01*
X002355Y008040D01*
X002286Y008469D02*
X002216Y008469D01*
X002065Y008390D02*
X001210Y008390D01*
X001210Y008312D02*
X001350Y008312D01*
X001357Y008323D02*
X001338Y008291D01*
X001329Y008255D01*
X001329Y008080D01*
X001645Y008080D01*
X001645Y008377D01*
X001450Y008377D01*
X001415Y008367D01*
X001383Y008349D01*
X001357Y008323D01*
X001329Y008233D02*
X001210Y008233D01*
X001210Y008155D02*
X001329Y008155D01*
X001329Y007998D02*
X001210Y007998D01*
X001210Y008076D02*
X001645Y008076D01*
X001645Y007998D02*
X001725Y007998D01*
X001725Y007919D02*
X001645Y007919D01*
X001645Y007841D02*
X001725Y007841D01*
X001725Y007762D02*
X001645Y007762D01*
X001558Y007605D02*
X001210Y007605D01*
X001210Y007527D02*
X001506Y007527D01*
X001506Y007448D02*
X001210Y007448D01*
X001210Y007370D02*
X001506Y007370D01*
X001506Y007291D02*
X001210Y007291D01*
X001210Y007213D02*
X001506Y007213D01*
X001506Y007134D02*
X001210Y007134D01*
X001210Y007056D02*
X001506Y007056D01*
X001506Y006977D02*
X001210Y006977D01*
X001210Y006899D02*
X001506Y006899D01*
X001506Y006820D02*
X001210Y006820D01*
X001210Y006742D02*
X001506Y006742D01*
X001506Y006663D02*
X001210Y006663D01*
X001210Y006585D02*
X001506Y006585D01*
X001506Y006506D02*
X001210Y006506D01*
X001210Y006428D02*
X001506Y006428D01*
X001506Y006349D02*
X001210Y006349D01*
X001210Y006271D02*
X001506Y006271D01*
X001506Y006192D02*
X001210Y006192D01*
X001210Y006114D02*
X001506Y006114D01*
X001513Y006035D02*
X001210Y006035D01*
X001210Y005957D02*
X001592Y005957D01*
X001645Y005877D02*
X001645Y005580D01*
X001329Y005580D01*
X001329Y005755D01*
X001338Y005791D01*
X001357Y005823D01*
X001383Y005849D01*
X001415Y005867D01*
X001450Y005877D01*
X001645Y005877D01*
X001645Y005800D02*
X001725Y005800D01*
X001725Y005721D02*
X001645Y005721D01*
X001645Y005643D02*
X001725Y005643D01*
X001645Y005564D02*
X001210Y005564D01*
X001210Y005486D02*
X001329Y005486D01*
X001329Y005407D02*
X001210Y005407D01*
X001210Y005329D02*
X001329Y005329D01*
X001364Y005250D02*
X001210Y005250D01*
X001210Y005172D02*
X002329Y005172D01*
X002250Y005093D02*
X001210Y005093D01*
X001210Y005015D02*
X002172Y005015D01*
X002093Y004936D02*
X001210Y004936D01*
X001210Y004858D02*
X002015Y004858D01*
X001936Y004779D02*
X001690Y004779D01*
X001785Y004701D02*
X001858Y004701D01*
X001940Y004500D02*
X001540Y004500D01*
X001390Y004779D02*
X001210Y004779D01*
X001210Y004701D02*
X001295Y004701D01*
X001250Y004622D02*
X001210Y004622D01*
X001210Y004544D02*
X001225Y004544D01*
X001225Y004465D02*
X001210Y004465D01*
X001210Y004387D02*
X001246Y004387D01*
X001210Y004308D02*
X001287Y004308D01*
X001420Y004020D02*
X001700Y004020D01*
X002940Y005260D01*
X002940Y006500D01*
X003380Y006940D01*
X003380Y007260D01*
X003220Y007420D01*
X003220Y007700D01*
X003318Y007798D01*
X003536Y007798D01*
X003536Y007995D02*
X003235Y007995D01*
X002980Y007740D01*
X002980Y007380D01*
X003070Y007270D01*
X003070Y007140D01*
X003060Y007130D01*
X003060Y006860D01*
X002780Y006580D01*
X002780Y005340D01*
X001940Y004500D01*
X001725Y005250D02*
X001645Y005250D01*
X001645Y005329D02*
X001725Y005329D01*
X001725Y005407D02*
X001645Y005407D01*
X001645Y005486D02*
X001725Y005486D01*
X001985Y005878D02*
X001210Y005878D01*
X001210Y005800D02*
X001343Y005800D01*
X001329Y005721D02*
X001210Y005721D01*
X001210Y005643D02*
X001329Y005643D01*
X002026Y006300D02*
X002020Y006306D01*
X002026Y006300D02*
X002460Y006300D01*
X002540Y006380D01*
X002540Y007460D01*
X002740Y007660D01*
X002740Y007860D01*
X003072Y008192D01*
X003536Y008192D01*
X003536Y008388D02*
X002988Y008388D01*
X002700Y008100D01*
X002272Y009097D02*
X002240Y009097D01*
X001975Y009097D02*
X001895Y009097D01*
X001895Y009018D02*
X001975Y009018D01*
X001975Y008940D02*
X001895Y008940D01*
X001895Y008861D02*
X001975Y008861D01*
X001895Y008783D02*
X001210Y008783D01*
X001210Y008861D02*
X001579Y008861D01*
X001579Y008940D02*
X001210Y008940D01*
X001210Y009018D02*
X001582Y009018D01*
X001579Y008704D02*
X001210Y008704D01*
X001210Y008626D02*
X001579Y008626D01*
X001586Y008547D02*
X001210Y008547D01*
X001210Y008469D02*
X001655Y008469D01*
X001645Y008312D02*
X001725Y008312D01*
X001725Y008233D02*
X001645Y008233D01*
X001645Y008155D02*
X001725Y008155D01*
X001895Y008469D02*
X001975Y008469D01*
X001975Y008547D02*
X001895Y008547D01*
X001895Y008626D02*
X001975Y008626D01*
X001975Y008704D02*
X001895Y008704D01*
X001895Y009254D02*
X001975Y009254D01*
X001975Y009332D02*
X001895Y009332D01*
X001895Y009411D02*
X001975Y009411D01*
X001975Y009489D02*
X001895Y009489D01*
X001579Y010353D02*
X001210Y010353D01*
X001210Y010431D02*
X001579Y010431D01*
X001580Y010510D02*
X001210Y010510D01*
X001210Y010588D02*
X001622Y010588D01*
X001849Y013022D02*
X001210Y013022D01*
X001210Y013100D02*
X001829Y013100D01*
X001829Y013179D02*
X001210Y013179D01*
X001210Y013257D02*
X002145Y013257D01*
X002145Y013330D02*
X001829Y013330D01*
X001829Y013505D01*
X001838Y013541D01*
X001857Y013573D01*
X001883Y013599D01*
X001915Y013617D01*
X001950Y013627D01*
X002145Y013627D01*
X002145Y013330D01*
X002145Y013336D02*
X002225Y013336D01*
X002225Y013414D02*
X002145Y013414D01*
X002145Y013493D02*
X002225Y013493D01*
X002225Y013571D02*
X002145Y013571D01*
X001856Y013571D02*
X001210Y013571D01*
X001210Y013493D02*
X001829Y013493D01*
X001829Y013414D02*
X001210Y013414D01*
X001210Y013336D02*
X001829Y013336D01*
X003356Y013336D02*
X003500Y013336D01*
X003500Y013257D02*
X003400Y013257D01*
X003400Y013179D02*
X003539Y013179D01*
X004028Y013493D02*
X004041Y013493D01*
X003994Y014121D02*
X004096Y014121D01*
X005145Y014121D02*
X005225Y014121D01*
X005225Y014042D02*
X005145Y014042D01*
X005145Y013964D02*
X005225Y013964D01*
X005225Y013885D02*
X005145Y013885D01*
X005444Y014121D02*
X005546Y014121D01*
X005512Y013493D02*
X005499Y013493D01*
X006054Y012315D02*
X006392Y012315D01*
X006297Y012237D02*
X006054Y012237D01*
X006054Y012158D02*
X006219Y012158D01*
X006140Y012080D02*
X006054Y012080D01*
X006026Y011923D02*
X005975Y011923D01*
X006020Y011844D02*
X005720Y011844D01*
X005720Y011766D02*
X006020Y011766D01*
X006020Y011687D02*
X005720Y011687D01*
X005691Y011609D02*
X006020Y011609D01*
X006020Y011530D02*
X005613Y011530D01*
X005592Y011452D02*
X005534Y011452D01*
X005474Y011373D02*
X005456Y011373D01*
X005395Y011295D02*
X005377Y011295D01*
X005317Y011216D02*
X005299Y011216D01*
X005238Y011138D02*
X005220Y011138D01*
X005160Y011059D02*
X005142Y011059D01*
X005081Y010981D02*
X005063Y010981D01*
X005003Y010902D02*
X004985Y010902D01*
X005223Y010444D02*
X005156Y010377D01*
X005132Y010367D01*
X005078Y010313D01*
X004973Y010269D01*
X005020Y010223D01*
X005020Y010140D01*
X005057Y010155D01*
X005183Y010155D01*
X005298Y010107D01*
X005387Y010018D01*
X005435Y009903D01*
X005435Y009790D01*
X005643Y009790D01*
X005643Y010218D01*
X005732Y010307D01*
X005718Y010316D01*
X005691Y010342D01*
X005673Y010374D01*
X005663Y010409D01*
X005663Y010585D01*
X005980Y010585D01*
X005980Y010665D01*
X005980Y010961D01*
X005785Y010961D01*
X005749Y010952D01*
X005718Y010934D01*
X005691Y010907D01*
X005673Y010876D01*
X005663Y010840D01*
X005663Y010665D01*
X005980Y010665D01*
X006060Y010665D01*
X006060Y010961D01*
X006255Y010961D01*
X006291Y010952D01*
X006322Y010934D01*
X006349Y010907D01*
X006367Y010876D01*
X006377Y010840D01*
X006377Y010665D01*
X006060Y010665D01*
X006060Y010585D01*
X006377Y010585D01*
X006377Y010409D01*
X006367Y010374D01*
X006349Y010342D01*
X006322Y010316D01*
X006308Y010307D01*
X006397Y010218D01*
X006397Y009692D01*
X006384Y009680D01*
X006413Y009680D01*
X006413Y010238D01*
X006479Y010304D01*
X006461Y010322D01*
X006443Y010354D01*
X006433Y010390D01*
X006433Y010585D01*
X006730Y010585D01*
X006730Y010665D01*
X006433Y010665D01*
X006433Y010860D01*
X006443Y010895D01*
X006461Y010927D01*
X006487Y010953D01*
X006519Y010972D01*
X006555Y010981D01*
X006628Y010981D01*
X006561Y011048D01*
X006527Y011048D01*
X006433Y011142D01*
X006433Y011253D01*
X006263Y011084D01*
X006196Y011017D01*
X006108Y010980D01*
X005759Y010980D01*
X005223Y010444D01*
X005210Y010431D02*
X005663Y010431D01*
X005663Y010510D02*
X005289Y010510D01*
X005367Y010588D02*
X005980Y010588D01*
X005980Y010667D02*
X006060Y010667D01*
X006060Y010745D02*
X005980Y010745D01*
X005980Y010824D02*
X006060Y010824D01*
X006060Y010902D02*
X005980Y010902D01*
X006109Y010981D02*
X006552Y010981D01*
X006516Y011059D02*
X006238Y011059D01*
X006317Y011138D02*
X006437Y011138D01*
X006433Y011216D02*
X006395Y011216D01*
X006352Y010902D02*
X006447Y010902D01*
X006433Y010824D02*
X006377Y010824D01*
X006377Y010745D02*
X006433Y010745D01*
X006433Y010667D02*
X006377Y010667D01*
X006377Y010510D02*
X006433Y010510D01*
X006433Y010431D02*
X006377Y010431D01*
X006355Y010353D02*
X006444Y010353D01*
X006449Y010274D02*
X006341Y010274D01*
X006397Y010196D02*
X006413Y010196D01*
X006413Y010117D02*
X006397Y010117D01*
X006397Y010039D02*
X006413Y010039D01*
X006413Y009960D02*
X006397Y009960D01*
X006397Y009882D02*
X006413Y009882D01*
X006413Y009803D02*
X006397Y009803D01*
X006397Y009725D02*
X006413Y009725D01*
X006730Y010588D02*
X006060Y010588D01*
X005685Y010353D02*
X005118Y010353D01*
X004984Y010274D02*
X005699Y010274D01*
X005643Y010196D02*
X005020Y010196D01*
X005274Y010117D02*
X005643Y010117D01*
X005643Y010039D02*
X005367Y010039D01*
X005411Y009960D02*
X005643Y009960D01*
X005643Y009882D02*
X005435Y009882D01*
X005435Y009803D02*
X005643Y009803D01*
X005663Y010667D02*
X005446Y010667D01*
X005524Y010745D02*
X005663Y010745D01*
X005663Y010824D02*
X005603Y010824D01*
X005681Y010902D02*
X005688Y010902D01*
X004620Y009276D02*
X004618Y009274D01*
X004560Y008783D02*
X004480Y008783D01*
X004480Y008704D02*
X004560Y008704D01*
X004560Y008626D02*
X004480Y008626D01*
X004480Y008547D02*
X004560Y008547D01*
X004560Y008469D02*
X004480Y008469D01*
X004480Y008390D02*
X004560Y008390D01*
X004480Y008312D02*
X004000Y008312D01*
X003980Y008820D02*
X004100Y008820D01*
X004220Y008940D01*
X004220Y009270D01*
X004225Y009274D01*
X004220Y009280D02*
X004220Y009520D01*
X003960Y009780D01*
X004020Y009740D02*
X004020Y009340D01*
X004028Y009274D02*
X004028Y008868D01*
X003980Y008820D01*
X003980Y007740D02*
X003900Y007660D01*
X003820Y007660D01*
X003721Y007601D01*
X003536Y007601D01*
X003536Y007582D02*
X003536Y007405D01*
X003615Y007405D01*
X003615Y007387D01*
X003610Y007382D01*
X003610Y007201D01*
X003600Y007191D01*
X003600Y007031D01*
X003580Y007011D01*
X003580Y007343D01*
X003518Y007405D01*
X003536Y007405D01*
X003536Y007582D01*
X003536Y007582D01*
X003536Y007527D02*
X003536Y007527D01*
X003536Y007448D02*
X003536Y007448D01*
X003553Y007370D02*
X003610Y007370D01*
X003610Y007291D02*
X003580Y007291D01*
X003580Y007213D02*
X003610Y007213D01*
X003600Y007134D02*
X003580Y007134D01*
X003580Y007056D02*
X003600Y007056D01*
X004020Y007020D02*
X004100Y006940D01*
X004100Y006500D01*
X004180Y006420D01*
X004180Y006260D01*
X004260Y006180D01*
X003940Y005549D02*
X003940Y005523D01*
X003937Y005520D01*
X003820Y005403D01*
X003820Y005271D01*
X003763Y005295D01*
X003637Y005295D01*
X003522Y005247D01*
X003500Y005225D01*
X003500Y005569D01*
X003519Y005558D01*
X003555Y005549D01*
X003730Y005549D01*
X003730Y005865D01*
X003810Y005865D01*
X003810Y005549D01*
X003940Y005549D01*
X003903Y005486D02*
X003500Y005486D01*
X003500Y005564D02*
X003509Y005564D01*
X003500Y005407D02*
X003824Y005407D01*
X003820Y005329D02*
X003500Y005329D01*
X003500Y005250D02*
X003529Y005250D01*
X003730Y005564D02*
X003810Y005564D01*
X003810Y005643D02*
X003730Y005643D01*
X003730Y005721D02*
X003810Y005721D01*
X003810Y005800D02*
X003730Y005800D01*
X004020Y007020D02*
X004020Y007306D01*
X004028Y007306D01*
X004815Y007306D02*
X004815Y007065D01*
X004820Y007060D01*
X004820Y006980D01*
X004860Y006940D01*
X005340Y006940D01*
X005540Y006740D01*
X005540Y005060D01*
X005900Y004580D02*
X005900Y005620D01*
X005900Y005740D01*
X005700Y005940D01*
X005700Y006820D01*
X005420Y007100D01*
X005260Y007100D01*
X005220Y007140D01*
X005220Y007295D01*
X005209Y007306D01*
X005425Y007300D02*
X005425Y007405D01*
X005504Y007405D01*
X005504Y007601D01*
X005504Y007601D01*
X005504Y007779D01*
X005504Y007779D01*
X005504Y007602D01*
X005504Y007601D01*
X005504Y007601D01*
X005504Y007405D01*
X005680Y007405D01*
X005710Y007413D01*
X005710Y007407D01*
X005860Y007257D01*
X005860Y007103D01*
X005820Y007063D01*
X005820Y006983D01*
X005783Y007020D01*
X005503Y007300D01*
X005425Y007300D01*
X005425Y007370D02*
X005748Y007370D01*
X005826Y007291D02*
X005512Y007291D01*
X005590Y007213D02*
X005860Y007213D01*
X005860Y007134D02*
X005669Y007134D01*
X005747Y007056D02*
X005820Y007056D01*
X005504Y007448D02*
X005504Y007448D01*
X005504Y007527D02*
X005504Y007527D01*
X005504Y007605D02*
X005504Y007605D01*
X005504Y007684D02*
X005504Y007684D01*
X005504Y007762D02*
X005504Y007762D01*
X005100Y006420D02*
X004900Y006420D01*
X004860Y006380D01*
X004860Y005900D01*
X005900Y004580D02*
X006660Y003820D01*
X006660Y003394D01*
X006670Y003384D01*
X006670Y002984D02*
X006660Y002974D01*
X006660Y002540D01*
X006770Y002430D01*
X006770Y001790D01*
X006976Y002503D02*
X007460Y002503D01*
X007460Y002581D02*
X006902Y002581D01*
X006860Y002660D02*
X007460Y002660D01*
X007375Y002738D02*
X006965Y002738D01*
X007007Y002817D02*
X007333Y002817D01*
X007333Y002895D02*
X007007Y002895D01*
X007007Y002974D02*
X007333Y002974D01*
X007333Y003052D02*
X007007Y003052D01*
X007007Y003131D02*
X007333Y003131D01*
X007333Y003209D02*
X007007Y003209D01*
X007007Y003288D02*
X007333Y003288D01*
X007333Y003366D02*
X007007Y003366D01*
X007007Y003445D02*
X007333Y003445D01*
X007333Y003523D02*
X007007Y003523D01*
X006994Y003602D02*
X007346Y003602D01*
X007355Y003680D02*
X006915Y003680D01*
X006860Y003759D02*
X007321Y003759D01*
X007305Y003837D02*
X006860Y003837D01*
X006847Y003916D02*
X007305Y003916D01*
X007335Y003994D02*
X006769Y003994D01*
X006690Y004073D02*
X007387Y004073D01*
X007499Y004151D02*
X006612Y004151D01*
X006533Y004230D02*
X008253Y004230D01*
X008185Y004308D02*
X006455Y004308D01*
X006376Y004387D02*
X008185Y004387D01*
X008185Y004465D02*
X006298Y004465D01*
X006219Y004544D02*
X008185Y004544D01*
X008185Y004622D02*
X006141Y004622D01*
X006100Y004701D02*
X008185Y004701D01*
X008185Y004779D02*
X006100Y004779D01*
X006100Y004858D02*
X008260Y004858D01*
X008339Y004936D02*
X006100Y004936D01*
X006100Y005015D02*
X008417Y005015D01*
X008496Y005093D02*
X006100Y005093D01*
X006185Y005486D02*
X008497Y005486D01*
X008419Y005564D02*
X006215Y005564D01*
X006488Y005643D02*
X008340Y005643D01*
X008262Y005721D02*
X008244Y005721D01*
X008770Y004540D02*
X008770Y003410D01*
X008220Y002860D01*
X008370Y002581D02*
X009330Y002581D01*
X009330Y002503D02*
X008924Y002503D01*
X008939Y002498D02*
X008873Y002519D01*
X008810Y002529D01*
X008810Y001830D01*
X009210Y001830D01*
X009210Y002125D01*
X009199Y002193D01*
X009178Y002259D01*
X009146Y002321D01*
X009106Y002377D01*
X009057Y002426D01*
X009001Y002466D01*
X008939Y002498D01*
X008810Y002503D02*
X008730Y002503D01*
X008730Y002529D02*
X008667Y002519D01*
X008601Y002498D01*
X008539Y002466D01*
X008483Y002426D01*
X008434Y002377D01*
X008394Y002321D01*
X008362Y002259D01*
X008341Y002193D01*
X008330Y002125D01*
X008330Y001830D01*
X008730Y001830D01*
X008730Y002529D01*
X008730Y002424D02*
X008810Y002424D01*
X008810Y002346D02*
X008730Y002346D01*
X008730Y002267D02*
X008810Y002267D01*
X008810Y002189D02*
X008730Y002189D01*
X008730Y002110D02*
X008810Y002110D01*
X008810Y002032D02*
X008730Y002032D01*
X008730Y001953D02*
X008810Y001953D01*
X008810Y001875D02*
X008730Y001875D01*
X008730Y001830D02*
X008810Y001830D01*
X008810Y001750D01*
X009210Y001750D01*
X009210Y001455D01*
X009199Y001387D01*
X009178Y001321D01*
X009146Y001259D01*
X009106Y001203D01*
X009057Y001154D01*
X009001Y001114D01*
X008939Y001082D01*
X008873Y001061D01*
X008810Y001051D01*
X008810Y001750D01*
X008730Y001750D01*
X008730Y001051D01*
X008667Y001061D01*
X008601Y001082D01*
X008539Y001114D01*
X008483Y001154D01*
X008434Y001203D01*
X008394Y001259D01*
X008362Y001321D01*
X008341Y001387D01*
X008330Y001455D01*
X008330Y001750D01*
X008730Y001750D01*
X008730Y001830D01*
X008730Y001796D02*
X008230Y001796D01*
X008230Y001718D02*
X008330Y001718D01*
X008330Y001639D02*
X008230Y001639D01*
X008230Y001561D02*
X008330Y001561D01*
X008330Y001482D02*
X008230Y001482D01*
X008230Y001404D02*
X008338Y001404D01*
X008361Y001325D02*
X008200Y001325D01*
X008167Y001247D02*
X008403Y001247D01*
X008470Y001168D02*
X008099Y001168D01*
X008005Y001090D02*
X008587Y001090D01*
X008730Y001090D02*
X008810Y001090D01*
X008810Y001168D02*
X008730Y001168D01*
X008730Y001247D02*
X008810Y001247D01*
X008810Y001325D02*
X008730Y001325D01*
X008730Y001404D02*
X008810Y001404D01*
X008810Y001482D02*
X008730Y001482D01*
X008730Y001561D02*
X008810Y001561D01*
X008810Y001639D02*
X008730Y001639D01*
X008730Y001718D02*
X008810Y001718D01*
X008810Y001796D02*
X009330Y001796D01*
X009330Y001718D02*
X009210Y001718D01*
X009210Y001639D02*
X009330Y001639D01*
X009330Y001561D02*
X009210Y001561D01*
X009210Y001482D02*
X009330Y001482D01*
X009330Y001404D02*
X009202Y001404D01*
X009179Y001325D02*
X009330Y001325D01*
X009330Y001247D02*
X009137Y001247D01*
X009070Y001168D02*
X009330Y001168D01*
X009330Y001090D02*
X008953Y001090D01*
X009210Y001875D02*
X009330Y001875D01*
X009330Y001953D02*
X009210Y001953D01*
X009210Y002032D02*
X009330Y002032D01*
X009330Y002110D02*
X009210Y002110D01*
X009200Y002189D02*
X009330Y002189D01*
X009330Y002267D02*
X009174Y002267D01*
X009128Y002346D02*
X009330Y002346D01*
X009330Y002424D02*
X009058Y002424D01*
X009330Y002660D02*
X008465Y002660D01*
X008510Y002738D02*
X009330Y002738D01*
X009330Y002817D02*
X008535Y002817D01*
X008538Y002895D02*
X009330Y002895D01*
X009330Y002974D02*
X008616Y002974D01*
X008695Y003052D02*
X009330Y003052D01*
X009330Y003131D02*
X008773Y003131D01*
X008852Y003209D02*
X009330Y003209D01*
X009330Y003288D02*
X008930Y003288D01*
X008970Y003366D02*
X009330Y003366D01*
X009330Y003445D02*
X008970Y003445D01*
X008970Y003523D02*
X009330Y003523D01*
X009330Y003602D02*
X008970Y003602D01*
X008970Y003680D02*
X009330Y003680D01*
X009330Y003759D02*
X008970Y003759D01*
X008970Y003837D02*
X009330Y003837D01*
X009330Y003916D02*
X008970Y003916D01*
X009051Y003994D02*
X009330Y003994D01*
X009330Y004073D02*
X009130Y004073D01*
X009208Y004151D02*
X009330Y004151D01*
X009330Y004230D02*
X009287Y004230D01*
X008570Y003916D02*
X007935Y003916D01*
X007935Y003837D02*
X008570Y003837D01*
X008570Y003759D02*
X007919Y003759D01*
X007915Y003680D02*
X008570Y003680D01*
X008570Y003602D02*
X007994Y003602D01*
X008007Y003523D02*
X008570Y003523D01*
X008522Y003445D02*
X008007Y003445D01*
X008007Y003366D02*
X008443Y003366D01*
X008365Y003288D02*
X008007Y003288D01*
X008007Y003209D02*
X008286Y003209D01*
X008050Y003131D02*
X008007Y003131D01*
X007975Y002660D02*
X007863Y002660D01*
X007942Y002581D02*
X008070Y002581D01*
X007976Y002503D02*
X008616Y002503D01*
X008482Y002424D02*
X008087Y002424D01*
X008162Y002346D02*
X008412Y002346D01*
X008366Y002267D02*
X008195Y002267D01*
X008227Y002189D02*
X008340Y002189D01*
X008330Y002110D02*
X008230Y002110D01*
X008230Y002032D02*
X008330Y002032D01*
X008330Y001953D02*
X008230Y001953D01*
X008230Y001875D02*
X008330Y001875D01*
X007770Y001790D02*
X007770Y002470D01*
X007660Y002580D01*
X007660Y002974D01*
X007670Y002984D01*
X007670Y003384D02*
X007670Y003810D01*
X007620Y003860D01*
X007741Y004151D02*
X008332Y004151D01*
X008410Y004073D02*
X007853Y004073D01*
X007905Y003994D02*
X008489Y003994D01*
X007453Y002424D02*
X007087Y002424D01*
X007162Y002346D02*
X007378Y002346D01*
X007345Y002267D02*
X007195Y002267D01*
X007227Y002189D02*
X007313Y002189D01*
X007310Y002110D02*
X007230Y002110D01*
X007230Y002032D02*
X007310Y002032D01*
X007310Y001953D02*
X007230Y001953D01*
X007230Y001875D02*
X007310Y001875D01*
X007310Y001796D02*
X007230Y001796D01*
X007230Y001718D02*
X007310Y001718D01*
X007310Y001639D02*
X007230Y001639D01*
X007230Y001561D02*
X007310Y001561D01*
X007310Y001482D02*
X007230Y001482D01*
X007230Y001404D02*
X007310Y001404D01*
X007340Y001325D02*
X007200Y001325D01*
X007167Y001247D02*
X007373Y001247D01*
X007441Y001168D02*
X007099Y001168D01*
X007005Y001090D02*
X007535Y001090D01*
X007230Y006349D02*
X007055Y006349D01*
X007019Y006358D01*
X006987Y006377D01*
X006961Y006403D01*
X006943Y006435D01*
X006933Y006470D01*
X006933Y006665D01*
X007230Y006665D01*
X007230Y006745D01*
X006933Y006745D01*
X006933Y006940D01*
X006943Y006976D01*
X006961Y007008D01*
X006979Y007026D01*
X006913Y007092D01*
X006913Y007095D01*
X006877Y007095D01*
X006877Y007092D01*
X006811Y007026D01*
X006829Y007008D01*
X006847Y006976D01*
X006857Y006940D01*
X006857Y006745D01*
X006560Y006745D01*
X006560Y006665D01*
X006560Y006742D02*
X007230Y006742D01*
X007054Y006349D02*
X006736Y006349D01*
X006843Y006428D02*
X006947Y006428D01*
X006933Y006506D02*
X006857Y006506D01*
X006857Y006585D02*
X006933Y006585D01*
X006933Y006663D02*
X006857Y006663D01*
X006857Y006820D02*
X006933Y006820D01*
X006933Y006899D02*
X006857Y006899D01*
X006847Y006977D02*
X006943Y006977D01*
X006949Y007056D02*
X006841Y007056D01*
X007203Y009332D02*
X007923Y009332D01*
X007913Y009411D02*
X007282Y009411D01*
X007360Y009489D02*
X007913Y009489D01*
X007910Y009568D02*
X007400Y009568D01*
X007400Y009646D02*
X007910Y009646D01*
X007910Y009725D02*
X007400Y009725D01*
X007400Y009803D02*
X007910Y009803D01*
X007910Y009882D02*
X007400Y009882D01*
X007400Y009960D02*
X007910Y009960D01*
X007910Y010039D02*
X007400Y010039D01*
X007400Y010117D02*
X007910Y010117D01*
X007910Y010196D02*
X007400Y010196D01*
X007400Y010274D02*
X007910Y010274D01*
X007910Y010353D02*
X007400Y010353D01*
X007400Y010431D02*
X007910Y010431D01*
X007910Y010510D02*
X007400Y010510D01*
X007400Y010588D02*
X007913Y010588D01*
X007913Y010667D02*
X007400Y010667D01*
X007400Y010745D02*
X007920Y010745D01*
X007931Y010824D02*
X007400Y010824D01*
X007400Y010902D02*
X007913Y010902D01*
X007913Y010981D02*
X007400Y010981D01*
X007372Y011059D02*
X007910Y011059D01*
X007910Y011138D02*
X007294Y011138D01*
X007215Y011216D02*
X007913Y011216D01*
X007913Y011295D02*
X007107Y011295D01*
X007107Y011373D02*
X007913Y011373D01*
X007957Y011452D02*
X007107Y011452D01*
X007107Y011530D02*
X007995Y011530D01*
X007995Y011609D02*
X007107Y011609D01*
X007107Y011687D02*
X007995Y011687D01*
X007725Y011766D02*
X007645Y011766D01*
X007645Y011844D02*
X007725Y011844D01*
X007725Y011923D02*
X007645Y011923D01*
X007645Y012001D02*
X007056Y012001D01*
X007107Y011923D02*
X007329Y011923D01*
X007329Y011844D02*
X007107Y011844D01*
X007107Y011766D02*
X007352Y011766D01*
X004506Y017104D02*
X004034Y017104D01*
X004113Y017182D02*
X004427Y017182D01*
X004367Y017261D02*
X004173Y017261D01*
X004205Y017339D02*
X004335Y017339D01*
X004310Y017418D02*
X004230Y017418D01*
X004230Y017496D02*
X004310Y017496D01*
X004310Y017575D02*
X004230Y017575D01*
X004230Y017653D02*
X004310Y017653D01*
X004310Y017732D02*
X004230Y017732D01*
X004230Y017810D02*
X004310Y017810D01*
X004310Y017889D02*
X004230Y017889D01*
X004230Y017967D02*
X004310Y017967D01*
X004310Y018046D02*
X004230Y018046D01*
X004230Y018124D02*
X004310Y018124D01*
X004319Y018203D02*
X004221Y018203D01*
X004189Y018281D02*
X004351Y018281D01*
X004389Y018360D02*
X004151Y018360D01*
X004072Y018438D02*
X004468Y018438D01*
X004598Y018517D02*
X003942Y018517D01*
X003857Y009960D02*
X003760Y009960D01*
X001907Y007684D02*
X001210Y007684D01*
X001210Y007762D02*
X001354Y007762D01*
X001329Y007841D02*
X001210Y007841D01*
X001210Y007919D02*
X001329Y007919D01*
D27*
X006520Y008205D02*
X008189Y008205D01*
X008270Y008125D01*
X008270Y007455D02*
X008195Y007380D01*
X007820Y007380D01*
X008270Y008955D02*
X006601Y008955D01*
X006520Y008875D01*
X008270Y009625D02*
X008270Y010455D01*
X008270Y011125D02*
X008355Y011209D01*
X008355Y012040D01*
X008355Y012315D01*
X008460Y012420D01*
D28*
X008460Y012675D01*
X008540Y012755D01*
M02*
