G75*
%MOIN*%
%OFA0B0*%
%FSLAX24Y24*%
%IPPOS*%
%LPD*%
%AMOC8*
5,1,8,0,0,1.08239X$1,22.5*
%
%ADD10C,0.0000*%
%ADD11C,0.0160*%
%ADD12C,0.0030*%
D10*
X001020Y000540D02*
X001020Y019040D01*
X009520Y019040D01*
X009520Y000540D01*
X001020Y000540D01*
D11*
X009081Y000900D02*
X009083Y000919D01*
X009089Y000936D01*
X009098Y000952D01*
X009110Y000966D01*
X009125Y000977D01*
X009142Y000985D01*
X009161Y000989D01*
X009179Y000989D01*
X009198Y000985D01*
X009214Y000977D01*
X009230Y000966D01*
X009242Y000952D01*
X009251Y000936D01*
X009257Y000919D01*
X009259Y000900D01*
X009257Y000881D01*
X009251Y000864D01*
X009242Y000848D01*
X009230Y000834D01*
X009215Y000823D01*
X009198Y000815D01*
X009179Y000811D01*
X009161Y000811D01*
X009142Y000815D01*
X009126Y000823D01*
X009110Y000834D01*
X009098Y000848D01*
X009089Y000864D01*
X009083Y000881D01*
X009081Y000900D01*
D12*
X007645Y011275D02*
X007398Y011275D01*
X007398Y011522D02*
X007398Y011584D01*
X007460Y011645D01*
X007583Y011645D01*
X007645Y011584D01*
X007729Y011795D02*
X007544Y011795D01*
X007544Y012042D01*
X007423Y011980D02*
X007423Y011857D01*
X007361Y011795D01*
X007238Y011795D01*
X007176Y011918D02*
X007176Y011980D01*
X007238Y012042D01*
X007361Y012042D01*
X007423Y011980D01*
X007423Y011918D02*
X007176Y011918D01*
X007055Y012042D02*
X006931Y012042D01*
X006993Y012104D02*
X006993Y011857D01*
X006931Y011795D01*
X006809Y011857D02*
X006809Y011980D01*
X006747Y012042D01*
X006624Y012042D01*
X006562Y011980D01*
X006562Y011857D01*
X006624Y011795D01*
X006747Y011795D01*
X006809Y011857D01*
X006785Y011645D02*
X006785Y011275D01*
X006908Y011275D02*
X006661Y011275D01*
X006540Y011337D02*
X006478Y011275D01*
X006355Y011275D01*
X006293Y011337D01*
X006293Y011398D01*
X006355Y011460D01*
X006417Y011460D01*
X006355Y011460D02*
X006293Y011522D01*
X006293Y011584D01*
X006355Y011645D01*
X006478Y011645D01*
X006540Y011584D01*
X006379Y011795D02*
X006441Y011857D01*
X006441Y011980D01*
X006379Y012042D01*
X006255Y012042D01*
X006194Y011980D01*
X006194Y011857D01*
X006255Y011795D01*
X006379Y011795D01*
X006172Y011584D02*
X006172Y011337D01*
X005925Y011584D01*
X005925Y011337D01*
X005987Y011275D01*
X006110Y011275D01*
X006172Y011337D01*
X006172Y011584D02*
X006110Y011645D01*
X005987Y011645D01*
X005925Y011584D01*
X005803Y011584D02*
X005803Y011522D01*
X005742Y011460D01*
X005557Y011460D01*
X005557Y011337D02*
X005557Y011584D01*
X005618Y011645D01*
X005742Y011645D01*
X005803Y011584D01*
X005827Y011795D02*
X005827Y012165D01*
X005765Y012042D02*
X005642Y012042D01*
X005580Y011980D01*
X005580Y011795D01*
X005827Y011980D02*
X005765Y012042D01*
X005949Y012042D02*
X006072Y012042D01*
X006011Y012104D02*
X006011Y011857D01*
X005949Y011795D01*
X005803Y011337D02*
X005742Y011275D01*
X005618Y011275D01*
X005557Y011337D01*
X005435Y011275D02*
X005188Y011275D01*
X005312Y011275D02*
X005312Y011645D01*
X005435Y011522D01*
X005067Y011584D02*
X005067Y011337D01*
X004820Y011584D01*
X004820Y011337D01*
X004882Y011275D01*
X005005Y011275D01*
X005067Y011337D01*
X005067Y011584D02*
X005005Y011645D01*
X004882Y011645D01*
X004820Y011584D01*
X004843Y011795D02*
X005090Y011795D01*
X005090Y012165D01*
X004722Y011980D02*
X004722Y011857D01*
X004660Y011795D01*
X004537Y011795D01*
X004475Y011857D01*
X004475Y011980D01*
X004537Y012042D01*
X004660Y012042D01*
X004722Y011980D01*
X004354Y012042D02*
X004354Y011857D01*
X004292Y011795D01*
X004230Y011857D01*
X004168Y011795D01*
X004107Y011857D01*
X004107Y012042D01*
X004083Y011645D02*
X004330Y011275D01*
X003594Y011275D02*
X003408Y011275D01*
X003347Y011337D01*
X003347Y011584D01*
X003408Y011645D01*
X003594Y011645D01*
X003594Y011275D01*
X003617Y011795D02*
X003370Y011795D01*
X003249Y011795D02*
X003249Y012042D01*
X003063Y012042D01*
X003002Y011980D01*
X003002Y011795D01*
X002880Y011857D02*
X002880Y011980D01*
X002819Y012042D01*
X002695Y012042D01*
X002633Y011980D01*
X002633Y011918D01*
X002880Y011918D01*
X002880Y011857D02*
X002819Y011795D01*
X002695Y011795D01*
X002512Y011795D02*
X002512Y012042D01*
X002389Y012042D02*
X002512Y011918D01*
X002389Y012042D02*
X002327Y012042D01*
X002205Y011980D02*
X002205Y011857D01*
X002143Y011795D01*
X001958Y011795D01*
X001958Y011733D02*
X001958Y012042D01*
X002143Y012042D01*
X002205Y011980D01*
X002082Y011672D02*
X002020Y011672D01*
X001958Y011733D01*
X001997Y011645D02*
X002182Y011460D01*
X001935Y011460D01*
X001997Y011275D02*
X001997Y011645D01*
X001837Y011857D02*
X001775Y011795D01*
X001590Y011795D01*
X001590Y011733D02*
X001652Y011672D01*
X001713Y011672D01*
X001590Y011733D02*
X001590Y012042D01*
X001837Y012042D02*
X001837Y011857D01*
X001752Y011522D02*
X001628Y011522D01*
X001566Y011460D01*
X001566Y011398D01*
X001813Y011398D01*
X001813Y011337D02*
X001813Y011460D01*
X001752Y011522D01*
X001813Y011337D02*
X001752Y011275D01*
X001628Y011275D01*
X001445Y011337D02*
X001383Y011398D01*
X001198Y011398D01*
X001198Y011460D02*
X001198Y011275D01*
X001383Y011275D01*
X001445Y011337D01*
X001383Y011522D02*
X001260Y011522D01*
X001198Y011460D01*
X002303Y011460D02*
X002303Y011275D01*
X002303Y011460D02*
X002365Y011522D01*
X002550Y011522D01*
X002550Y011275D01*
X002671Y011275D02*
X002671Y011460D01*
X002733Y011522D01*
X002795Y011460D01*
X002795Y011275D01*
X002918Y011275D02*
X002918Y011522D01*
X002857Y011522D01*
X002795Y011460D01*
X003040Y011522D02*
X003102Y011522D01*
X003225Y011398D01*
X003225Y011275D02*
X003225Y011522D01*
X003493Y011980D02*
X003617Y011980D01*
X003617Y012165D02*
X003617Y011795D01*
X003617Y012165D02*
X003370Y012165D01*
X006785Y011645D02*
X006908Y011522D01*
X007030Y011584D02*
X007277Y011337D01*
X007215Y011275D01*
X007092Y011275D01*
X007030Y011337D01*
X007030Y011584D01*
X007092Y011645D01*
X007215Y011645D01*
X007277Y011584D01*
X007277Y011337D01*
X007398Y011522D02*
X007645Y011275D01*
X007729Y011795D02*
X007791Y011857D01*
X007791Y012042D01*
X007975Y012165D02*
X007975Y011795D01*
X008037Y011795D02*
X007913Y011795D01*
X008158Y011857D02*
X008220Y011795D01*
X008405Y011795D01*
X008405Y012165D01*
X008220Y012165D01*
X008158Y012104D01*
X008158Y012042D01*
X008220Y011980D01*
X008405Y011980D01*
X008220Y011980D02*
X008158Y011918D01*
X008158Y011857D01*
X008037Y012165D02*
X007975Y012165D01*
M02*
