G75*
%MOIN*%
%OFA0B0*%
%FSLAX24Y24*%
%IPPOS*%
%LPD*%
%AMOC8*
5,1,8,0,0,1.08239X$1,22.5*
%
%ADD10R,0.0433X0.0394*%
%ADD11R,0.0394X0.0433*%
%ADD12R,0.0354X0.0276*%
%ADD13R,0.0748X0.0945*%
%ADD14R,0.0709X0.0394*%
%ADD15R,0.0315X0.0112*%
%ADD16R,0.0112X0.0315*%
%ADD17R,0.0512X0.0512*%
%ADD18R,0.1417X0.1417*%
%ADD19R,0.0787X0.0315*%
D10*
X001685Y005540D03*
X002355Y005540D03*
X002355Y008040D03*
X002605Y008790D03*
X002605Y009540D03*
X002605Y010290D03*
X001935Y010290D03*
X001935Y009540D03*
X001935Y008790D03*
X001685Y008040D03*
X002185Y013290D03*
X002855Y013290D03*
X003685Y013790D03*
X004355Y013790D03*
X005185Y013790D03*
X005855Y013790D03*
X006020Y010625D03*
X006020Y009955D03*
X007685Y012040D03*
X008355Y012040D03*
D11*
X008270Y011125D03*
X008270Y010455D03*
X008270Y009625D03*
X008270Y008955D03*
X008270Y008125D03*
X008270Y007455D03*
X007270Y007375D03*
X007270Y006705D03*
X006520Y006705D03*
X006520Y007375D03*
X006520Y008205D03*
X006520Y008875D03*
X006770Y009955D03*
X006770Y010625D03*
X003770Y006575D03*
X003770Y005905D03*
X002770Y011705D03*
X002770Y012375D03*
X002020Y012375D03*
X002020Y011705D03*
D12*
X006670Y003384D03*
X006670Y002984D03*
X007670Y002984D03*
X007670Y003384D03*
X006770Y011346D03*
X006770Y011746D03*
D13*
X005520Y012540D03*
X003906Y012540D03*
D14*
X002020Y007290D03*
X002020Y006306D03*
D15*
X003536Y007601D03*
X003536Y007798D03*
X003536Y007995D03*
X003536Y008192D03*
X003536Y008388D03*
X003536Y008585D03*
X003536Y008782D03*
X003536Y008979D03*
X005504Y008979D03*
X005504Y008782D03*
X005504Y008585D03*
X005504Y008388D03*
X005504Y008192D03*
X005504Y007995D03*
X005504Y007798D03*
X005504Y007601D03*
D16*
X005209Y007306D03*
X005012Y007306D03*
X004815Y007306D03*
X004618Y007306D03*
X004422Y007306D03*
X004225Y007306D03*
X004028Y007306D03*
X003831Y007306D03*
X003831Y009274D03*
X004028Y009274D03*
X004225Y009274D03*
X004422Y009274D03*
X004618Y009274D03*
X004815Y009274D03*
X005012Y009274D03*
X005209Y009274D03*
D17*
X004835Y008605D03*
X004835Y007975D03*
X004205Y007975D03*
X004205Y008605D03*
D18*
X004520Y008290D03*
D19*
X008540Y012755D03*
X008540Y014645D03*
M02*
