G75*
G70*
%OFA0B0*%
%FSLAX24Y24*%
%IPPOS*%
%LPD*%
%AMOC8*
5,1,8,0,0,1.08239X$1,22.5*
%
%ADD10C,0.0520*%
%ADD11C,0.0600*%
%ADD12C,0.0594*%
%ADD13R,0.1600X0.1600*%
D10*
X010837Y012248D02*
X010837Y012768D01*
X011837Y012768D02*
X011837Y012248D01*
X012837Y012248D02*
X012837Y012768D01*
X013837Y012768D02*
X013837Y012248D01*
X014837Y012248D02*
X014837Y012768D01*
X015837Y012768D02*
X015837Y012248D01*
X016837Y012248D02*
X016837Y012768D01*
X017837Y012768D02*
X017837Y012248D01*
X018837Y012248D02*
X018837Y012768D01*
X019837Y012768D02*
X019837Y012248D01*
X020837Y012248D02*
X020837Y012768D01*
X021837Y012768D02*
X021837Y012248D01*
X022837Y012248D02*
X022837Y012768D01*
X023837Y012768D02*
X023837Y012248D01*
X024837Y012248D02*
X024837Y012768D01*
X025837Y012768D02*
X025837Y012248D01*
X026837Y012248D02*
X026837Y012768D01*
X027837Y012768D02*
X027837Y012248D01*
X028837Y012248D02*
X028837Y012768D01*
X029837Y012768D02*
X029837Y012248D01*
X029837Y018248D02*
X029837Y018768D01*
X028837Y018768D02*
X028837Y018248D01*
X027837Y018248D02*
X027837Y018768D01*
X026837Y018768D02*
X026837Y018248D01*
X025837Y018248D02*
X025837Y018768D01*
X024837Y018768D02*
X024837Y018248D01*
X023837Y018248D02*
X023837Y018768D01*
X022837Y018768D02*
X022837Y018248D01*
X021837Y018248D02*
X021837Y018768D01*
X020837Y018768D02*
X020837Y018248D01*
X019837Y018248D02*
X019837Y018768D01*
X018837Y018768D02*
X018837Y018248D01*
X017837Y018248D02*
X017837Y018768D01*
X016837Y018768D02*
X016837Y018248D01*
X015837Y018248D02*
X015837Y018768D01*
X014837Y018768D02*
X014837Y018248D01*
X013837Y018248D02*
X013837Y018768D01*
X012837Y018768D02*
X012837Y018248D01*
X011837Y018248D02*
X011837Y018768D01*
X010837Y018768D02*
X010837Y018248D01*
D11*
X001837Y005558D02*
X001837Y004958D01*
X002837Y004958D02*
X002837Y005558D01*
X003837Y005558D02*
X003837Y004958D01*
X004837Y004958D02*
X004837Y005558D01*
X005837Y005558D02*
X005837Y004958D01*
X007837Y004958D02*
X007837Y005558D01*
X008837Y005558D02*
X008837Y004958D01*
X009837Y004958D02*
X009837Y005558D01*
X010837Y005558D02*
X010837Y004958D01*
X011837Y004958D02*
X011837Y005558D01*
X012837Y005558D02*
X012837Y004958D01*
X013837Y004958D02*
X013837Y005558D01*
X014837Y005558D02*
X014837Y004958D01*
X016837Y004958D02*
X016837Y005558D01*
X017837Y005558D02*
X017837Y004958D01*
X018837Y004958D02*
X018837Y005558D01*
X019837Y005558D02*
X019837Y004958D01*
X020837Y004958D02*
X020837Y005558D01*
X021837Y005558D02*
X021837Y004958D01*
X022837Y004958D02*
X022837Y005558D01*
X023837Y005558D02*
X023837Y004958D01*
X025837Y004958D02*
X025837Y005558D01*
X026837Y005558D02*
X026837Y004958D01*
X027837Y004958D02*
X027837Y005558D01*
X028837Y005558D02*
X028837Y004958D01*
X029837Y004958D02*
X029837Y005558D01*
X030837Y005558D02*
X030837Y004958D01*
X031837Y004958D02*
X031837Y005558D01*
X032837Y005558D02*
X032837Y004958D01*
X032837Y002558D02*
X032837Y001958D01*
X031837Y001958D02*
X031837Y002558D01*
X030837Y002558D02*
X030837Y001958D01*
X029837Y001958D02*
X029837Y002558D01*
X028837Y002558D02*
X028837Y001958D01*
X027837Y001958D02*
X027837Y002558D01*
X026837Y002558D02*
X026837Y001958D01*
X025837Y001958D02*
X025837Y002558D01*
X023837Y002558D02*
X023837Y001958D01*
X022837Y001958D02*
X022837Y002558D01*
X021837Y002558D02*
X021837Y001958D01*
X020837Y001958D02*
X020837Y002558D01*
X019837Y002558D02*
X019837Y001958D01*
X018837Y001958D02*
X018837Y002558D01*
X017837Y002558D02*
X017837Y001958D01*
X016837Y001958D02*
X016837Y002558D01*
X014837Y002558D02*
X014837Y001958D01*
X013837Y001958D02*
X013837Y002558D01*
X012837Y002558D02*
X012837Y001958D01*
X011837Y001958D02*
X011837Y002558D01*
X010837Y002558D02*
X010837Y001958D01*
X009837Y001958D02*
X009837Y002558D01*
X008837Y002558D02*
X008837Y001958D01*
X007837Y001958D02*
X007837Y002558D01*
X005837Y016958D02*
X005837Y017558D01*
X004837Y017558D02*
X004837Y016958D01*
X003837Y016958D02*
X003837Y017558D01*
X002837Y017558D02*
X002837Y016958D01*
X001837Y016958D02*
X001837Y017558D01*
X007837Y020958D02*
X007837Y021558D01*
X008837Y021558D02*
X008837Y020958D01*
X009837Y020958D02*
X009837Y021558D01*
X010837Y021558D02*
X010837Y020958D01*
X011837Y020958D02*
X011837Y021558D01*
X012837Y021558D02*
X012837Y020958D01*
X013837Y020958D02*
X013837Y021558D01*
X014837Y021558D02*
X014837Y020958D01*
X016837Y020958D02*
X016837Y021558D01*
X017837Y021558D02*
X017837Y020958D01*
X018837Y020958D02*
X018837Y021558D01*
X019837Y021558D02*
X019837Y020958D01*
X020837Y020958D02*
X020837Y021558D01*
X021837Y021558D02*
X021837Y020958D01*
X022837Y020958D02*
X022837Y021558D01*
X023837Y021558D02*
X023837Y020958D01*
X025837Y020958D02*
X025837Y021558D01*
X026837Y021558D02*
X026837Y020958D01*
X027837Y020958D02*
X027837Y021558D01*
X028837Y021558D02*
X028837Y020958D01*
X029837Y020958D02*
X029837Y021558D01*
X030837Y021558D02*
X030837Y020958D01*
X031837Y020958D02*
X031837Y021558D01*
X032837Y021558D02*
X032837Y020958D01*
X034687Y013558D02*
X035287Y013558D01*
X035287Y012558D02*
X034687Y012558D01*
X034687Y011558D02*
X035287Y011558D01*
D12*
X006076Y018892D02*
X005483Y018892D01*
X004108Y018892D02*
X003514Y018892D01*
X003514Y019876D02*
X004108Y019876D01*
X005483Y019876D02*
X006076Y019876D01*
D13*
X003337Y013308D03*
X003337Y010258D03*
X003337Y007208D03*
M02*
