%
M48
M72
T01C0.0150
T02C0.0320
T03C0.0354
T04C0.0394
T05C0.0400
T06C0.1250
%
T01
X4574Y4368
X7634Y7388
X6454Y8208
X6774Y8888
X6794Y9748
X6814Y10288
X7094Y10888
X7774Y10608
X7134Y11408
X8714Y12088
X9114Y12648
X9554Y12648
X11494Y12188
X12194Y12148
X11534Y10948
X11134Y10248
X11214Y9328
X13094Y8248
X13294Y8648
X13974Y9168
X11974Y8088
X11974Y7688
X12974Y7648
X13874Y6848
X12914Y6688
X11954Y6528
X11154Y6208
X9854Y7568
X8734Y9728
X9474Y10468
X6734Y12808
X4734Y11448
X4014Y9888
X4654Y9208
X7914Y14608
X8374Y14688
X7214Y15328
X7214Y16168
X11054Y15648
X17494Y16928
X18534Y16928
X19534Y16808
X20534Y16968
X23174Y13808
X22534Y11888
X21694Y10608
X22174Y10328
X20094Y11068
X18554Y10248
X16294Y10088
X15574Y11248
X19574Y8538
X19894Y7688
X20994Y6608
X21954Y6768
X22914Y6928
X23954Y7088
X24394Y7528
X24884Y7248
X25674Y6008
X24884Y4248
X23954Y4088
X22914Y3928
X21954Y3768
X20994Y3608
X19954Y3288
X19494Y4448
X19954Y6288
X21694Y7728
X21694Y8328
X26554Y9488
X27734Y10428
X28294Y9428
X29014Y9428
X30494Y9128
X30774Y9488
X32134Y9448
X32314Y10288
X33294Y10608
X34354Y9428
X32334Y8568
X31614Y8248
X33014Y8088
X33954Y7328
X32914Y7168
X31874Y7008
X30914Y6848
X29954Y6688
X28914Y6368
X28174Y7868
X32914Y4168
X33954Y4328
X35614Y4568
X36734Y4248
X31874Y4008
X30914Y3848
X29954Y3688
X28914Y3368
X16594Y3088
X14914Y4008
X15954Y4168
X13874Y3848
X12914Y3688
X11954Y3528
X11154Y3208
X14914Y7008
X15954Y7168
X16594Y7568
X30134Y17088
X33174Y17088
X34414Y16368
X34454Y15968
X33454Y19128
T02
X32014Y18508
X31014Y18508
X30014Y18508
X29014Y18508
X28014Y18508
X27014Y18508
X26014Y18508
X25014Y18508
X24014Y18508
X23014Y18508
X22014Y18508
X21014Y18508
X20014Y18508
X19014Y18508
X18014Y18508
X17014Y18508
X16014Y18508
X15014Y18508
X14014Y18508
X13014Y18508
X13014Y12508
X14014Y12508
X15014Y12508
X16014Y12508
X17014Y12508
X18014Y12508
X19014Y12508
X20014Y12508
X21014Y12508
X22014Y12508
X23014Y12508
X24014Y12508
X25014Y12508
X26014Y12508
X27014Y12508
X28014Y12508
X29014Y12508
X30014Y12508
X31014Y12508
X32014Y12508
T03
X36014Y15569
X36014Y16947
T04
X7956Y18892
X7956Y19876
X5988Y19876
X5988Y18892
T05
X6014Y17258
X7014Y17258
X8014Y17258
X5014Y17258
X4014Y17258
X10014Y21258
X11014Y21258
X12014Y21258
X13014Y21258
X14014Y21258
X15014Y21258
X16014Y21258
X17014Y21258
X19014Y21258
X20014Y21258
X21014Y21258
X22014Y21258
X23014Y21258
X24014Y21258
X25014Y21258
X26014Y21258
X28014Y21258
X29014Y21258
X30014Y21258
X31014Y21258
X32014Y21258
X33014Y21258
X34014Y21258
X35014Y21258
X37164Y13258
X37164Y12258
X35014Y5258
X34014Y5258
X33014Y5258
X32014Y5258
X31014Y5258
X30014Y5258
X29014Y5258
X28014Y5258
X26014Y5258
X25014Y5258
X24014Y5258
X23014Y5258
X22014Y5258
X21014Y5258
X20014Y5258
X19014Y5258
X17014Y5258
X16014Y5258
X15014Y5258
X14014Y5258
X13014Y5258
X12014Y5258
X11014Y5258
X10014Y5258
X8014Y5258
X7014Y5258
X6014Y5258
X5014Y5258
X4014Y5258
X7173Y2708
X8354Y2708
X10014Y2258
X11014Y2258
X12014Y2258
X13014Y2258
X14014Y2258
X15014Y2258
X16014Y2258
X17014Y2258
X19014Y2258
X20014Y2258
X21014Y2258
X22014Y2258
X23014Y2258
X24014Y2258
X25014Y2258
X26014Y2258
X28014Y2258
X29014Y2258
X30014Y2258
X31014Y2258
X32014Y2258
X33014Y2258
X34014Y2258
X35014Y2258
T06
X4014Y2008
X37014Y2008
X37014Y21508
X4014Y21508
M30
