G75*
G70*
%OFA0B0*%
%FSLAX24Y24*%
%IPPOS*%
%LPD*%
%AMOC8*
5,1,8,0,0,1.08239X$1,22.5*
%
%ADD10C,0.0000*%
D10*
X003014Y001008D02*
X003014Y022508D01*
X038014Y022508D01*
X038014Y001008D01*
X003014Y001008D01*
X003389Y002008D02*
X003391Y002058D01*
X003397Y002107D01*
X003407Y002156D01*
X003420Y002203D01*
X003438Y002250D01*
X003459Y002295D01*
X003483Y002338D01*
X003511Y002379D01*
X003542Y002418D01*
X003576Y002454D01*
X003613Y002488D01*
X003653Y002518D01*
X003694Y002545D01*
X003738Y002569D01*
X003783Y002589D01*
X003830Y002605D01*
X003878Y002618D01*
X003927Y002627D01*
X003977Y002632D01*
X004026Y002633D01*
X004076Y002630D01*
X004125Y002623D01*
X004174Y002612D01*
X004221Y002598D01*
X004267Y002579D01*
X004312Y002557D01*
X004355Y002532D01*
X004395Y002503D01*
X004433Y002471D01*
X004469Y002437D01*
X004502Y002399D01*
X004531Y002359D01*
X004557Y002317D01*
X004580Y002273D01*
X004599Y002227D01*
X004615Y002180D01*
X004627Y002131D01*
X004635Y002082D01*
X004639Y002033D01*
X004639Y001983D01*
X004635Y001934D01*
X004627Y001885D01*
X004615Y001836D01*
X004599Y001789D01*
X004580Y001743D01*
X004557Y001699D01*
X004531Y001657D01*
X004502Y001617D01*
X004469Y001579D01*
X004433Y001545D01*
X004395Y001513D01*
X004355Y001484D01*
X004312Y001459D01*
X004267Y001437D01*
X004221Y001418D01*
X004174Y001404D01*
X004125Y001393D01*
X004076Y001386D01*
X004026Y001383D01*
X003977Y001384D01*
X003927Y001389D01*
X003878Y001398D01*
X003830Y001411D01*
X003783Y001427D01*
X003738Y001447D01*
X003694Y001471D01*
X003653Y001498D01*
X003613Y001528D01*
X003576Y001562D01*
X003542Y001598D01*
X003511Y001637D01*
X003483Y001678D01*
X003459Y001721D01*
X003438Y001766D01*
X003420Y001813D01*
X003407Y001860D01*
X003397Y001909D01*
X003391Y001958D01*
X003389Y002008D01*
X006973Y002708D02*
X006975Y002736D01*
X006981Y002763D01*
X006990Y002789D01*
X007003Y002814D01*
X007020Y002837D01*
X007039Y002857D01*
X007061Y002874D01*
X007085Y002888D01*
X007111Y002898D01*
X007138Y002905D01*
X007166Y002908D01*
X007194Y002907D01*
X007221Y002902D01*
X007248Y002893D01*
X007273Y002881D01*
X007296Y002866D01*
X007317Y002847D01*
X007335Y002826D01*
X007350Y002802D01*
X007361Y002776D01*
X007369Y002750D01*
X007373Y002722D01*
X007373Y002694D01*
X007369Y002666D01*
X007361Y002640D01*
X007350Y002614D01*
X007335Y002590D01*
X007317Y002569D01*
X007296Y002550D01*
X007273Y002535D01*
X007248Y002523D01*
X007221Y002514D01*
X007194Y002509D01*
X007166Y002508D01*
X007138Y002511D01*
X007111Y002518D01*
X007085Y002528D01*
X007061Y002542D01*
X007039Y002559D01*
X007020Y002579D01*
X007003Y002602D01*
X006990Y002627D01*
X006981Y002653D01*
X006975Y002680D01*
X006973Y002708D01*
X008154Y002708D02*
X008156Y002736D01*
X008162Y002763D01*
X008171Y002789D01*
X008184Y002814D01*
X008201Y002837D01*
X008220Y002857D01*
X008242Y002874D01*
X008266Y002888D01*
X008292Y002898D01*
X008319Y002905D01*
X008347Y002908D01*
X008375Y002907D01*
X008402Y002902D01*
X008429Y002893D01*
X008454Y002881D01*
X008477Y002866D01*
X008498Y002847D01*
X008516Y002826D01*
X008531Y002802D01*
X008542Y002776D01*
X008550Y002750D01*
X008554Y002722D01*
X008554Y002694D01*
X008550Y002666D01*
X008542Y002640D01*
X008531Y002614D01*
X008516Y002590D01*
X008498Y002569D01*
X008477Y002550D01*
X008454Y002535D01*
X008429Y002523D01*
X008402Y002514D01*
X008375Y002509D01*
X008347Y002508D01*
X008319Y002511D01*
X008292Y002518D01*
X008266Y002528D01*
X008242Y002542D01*
X008220Y002559D01*
X008201Y002579D01*
X008184Y002602D01*
X008171Y002627D01*
X008162Y002653D01*
X008156Y002680D01*
X008154Y002708D01*
X035837Y015569D02*
X035839Y015595D01*
X035845Y015621D01*
X035855Y015646D01*
X035868Y015669D01*
X035884Y015689D01*
X035904Y015707D01*
X035926Y015722D01*
X035949Y015734D01*
X035975Y015742D01*
X036001Y015746D01*
X036027Y015746D01*
X036053Y015742D01*
X036079Y015734D01*
X036103Y015722D01*
X036124Y015707D01*
X036144Y015689D01*
X036160Y015669D01*
X036173Y015646D01*
X036183Y015621D01*
X036189Y015595D01*
X036191Y015569D01*
X036189Y015543D01*
X036183Y015517D01*
X036173Y015492D01*
X036160Y015469D01*
X036144Y015449D01*
X036124Y015431D01*
X036102Y015416D01*
X036079Y015404D01*
X036053Y015396D01*
X036027Y015392D01*
X036001Y015392D01*
X035975Y015396D01*
X035949Y015404D01*
X035925Y015416D01*
X035904Y015431D01*
X035884Y015449D01*
X035868Y015469D01*
X035855Y015492D01*
X035845Y015517D01*
X035839Y015543D01*
X035837Y015569D01*
X035837Y016947D02*
X035839Y016973D01*
X035845Y016999D01*
X035855Y017024D01*
X035868Y017047D01*
X035884Y017067D01*
X035904Y017085D01*
X035926Y017100D01*
X035949Y017112D01*
X035975Y017120D01*
X036001Y017124D01*
X036027Y017124D01*
X036053Y017120D01*
X036079Y017112D01*
X036103Y017100D01*
X036124Y017085D01*
X036144Y017067D01*
X036160Y017047D01*
X036173Y017024D01*
X036183Y016999D01*
X036189Y016973D01*
X036191Y016947D01*
X036189Y016921D01*
X036183Y016895D01*
X036173Y016870D01*
X036160Y016847D01*
X036144Y016827D01*
X036124Y016809D01*
X036102Y016794D01*
X036079Y016782D01*
X036053Y016774D01*
X036027Y016770D01*
X036001Y016770D01*
X035975Y016774D01*
X035949Y016782D01*
X035925Y016794D01*
X035904Y016809D01*
X035884Y016827D01*
X035868Y016847D01*
X035855Y016870D01*
X035845Y016895D01*
X035839Y016921D01*
X035837Y016947D01*
X036389Y021508D02*
X036391Y021558D01*
X036397Y021607D01*
X036407Y021656D01*
X036420Y021703D01*
X036438Y021750D01*
X036459Y021795D01*
X036483Y021838D01*
X036511Y021879D01*
X036542Y021918D01*
X036576Y021954D01*
X036613Y021988D01*
X036653Y022018D01*
X036694Y022045D01*
X036738Y022069D01*
X036783Y022089D01*
X036830Y022105D01*
X036878Y022118D01*
X036927Y022127D01*
X036977Y022132D01*
X037026Y022133D01*
X037076Y022130D01*
X037125Y022123D01*
X037174Y022112D01*
X037221Y022098D01*
X037267Y022079D01*
X037312Y022057D01*
X037355Y022032D01*
X037395Y022003D01*
X037433Y021971D01*
X037469Y021937D01*
X037502Y021899D01*
X037531Y021859D01*
X037557Y021817D01*
X037580Y021773D01*
X037599Y021727D01*
X037615Y021680D01*
X037627Y021631D01*
X037635Y021582D01*
X037639Y021533D01*
X037639Y021483D01*
X037635Y021434D01*
X037627Y021385D01*
X037615Y021336D01*
X037599Y021289D01*
X037580Y021243D01*
X037557Y021199D01*
X037531Y021157D01*
X037502Y021117D01*
X037469Y021079D01*
X037433Y021045D01*
X037395Y021013D01*
X037355Y020984D01*
X037312Y020959D01*
X037267Y020937D01*
X037221Y020918D01*
X037174Y020904D01*
X037125Y020893D01*
X037076Y020886D01*
X037026Y020883D01*
X036977Y020884D01*
X036927Y020889D01*
X036878Y020898D01*
X036830Y020911D01*
X036783Y020927D01*
X036738Y020947D01*
X036694Y020971D01*
X036653Y020998D01*
X036613Y021028D01*
X036576Y021062D01*
X036542Y021098D01*
X036511Y021137D01*
X036483Y021178D01*
X036459Y021221D01*
X036438Y021266D01*
X036420Y021313D01*
X036407Y021360D01*
X036397Y021409D01*
X036391Y021458D01*
X036389Y021508D01*
X003389Y021508D02*
X003391Y021558D01*
X003397Y021607D01*
X003407Y021656D01*
X003420Y021703D01*
X003438Y021750D01*
X003459Y021795D01*
X003483Y021838D01*
X003511Y021879D01*
X003542Y021918D01*
X003576Y021954D01*
X003613Y021988D01*
X003653Y022018D01*
X003694Y022045D01*
X003738Y022069D01*
X003783Y022089D01*
X003830Y022105D01*
X003878Y022118D01*
X003927Y022127D01*
X003977Y022132D01*
X004026Y022133D01*
X004076Y022130D01*
X004125Y022123D01*
X004174Y022112D01*
X004221Y022098D01*
X004267Y022079D01*
X004312Y022057D01*
X004355Y022032D01*
X004395Y022003D01*
X004433Y021971D01*
X004469Y021937D01*
X004502Y021899D01*
X004531Y021859D01*
X004557Y021817D01*
X004580Y021773D01*
X004599Y021727D01*
X004615Y021680D01*
X004627Y021631D01*
X004635Y021582D01*
X004639Y021533D01*
X004639Y021483D01*
X004635Y021434D01*
X004627Y021385D01*
X004615Y021336D01*
X004599Y021289D01*
X004580Y021243D01*
X004557Y021199D01*
X004531Y021157D01*
X004502Y021117D01*
X004469Y021079D01*
X004433Y021045D01*
X004395Y021013D01*
X004355Y020984D01*
X004312Y020959D01*
X004267Y020937D01*
X004221Y020918D01*
X004174Y020904D01*
X004125Y020893D01*
X004076Y020886D01*
X004026Y020883D01*
X003977Y020884D01*
X003927Y020889D01*
X003878Y020898D01*
X003830Y020911D01*
X003783Y020927D01*
X003738Y020947D01*
X003694Y020971D01*
X003653Y020998D01*
X003613Y021028D01*
X003576Y021062D01*
X003542Y021098D01*
X003511Y021137D01*
X003483Y021178D01*
X003459Y021221D01*
X003438Y021266D01*
X003420Y021313D01*
X003407Y021360D01*
X003397Y021409D01*
X003391Y021458D01*
X003389Y021508D01*
X036389Y002008D02*
X036391Y002058D01*
X036397Y002107D01*
X036407Y002156D01*
X036420Y002203D01*
X036438Y002250D01*
X036459Y002295D01*
X036483Y002338D01*
X036511Y002379D01*
X036542Y002418D01*
X036576Y002454D01*
X036613Y002488D01*
X036653Y002518D01*
X036694Y002545D01*
X036738Y002569D01*
X036783Y002589D01*
X036830Y002605D01*
X036878Y002618D01*
X036927Y002627D01*
X036977Y002632D01*
X037026Y002633D01*
X037076Y002630D01*
X037125Y002623D01*
X037174Y002612D01*
X037221Y002598D01*
X037267Y002579D01*
X037312Y002557D01*
X037355Y002532D01*
X037395Y002503D01*
X037433Y002471D01*
X037469Y002437D01*
X037502Y002399D01*
X037531Y002359D01*
X037557Y002317D01*
X037580Y002273D01*
X037599Y002227D01*
X037615Y002180D01*
X037627Y002131D01*
X037635Y002082D01*
X037639Y002033D01*
X037639Y001983D01*
X037635Y001934D01*
X037627Y001885D01*
X037615Y001836D01*
X037599Y001789D01*
X037580Y001743D01*
X037557Y001699D01*
X037531Y001657D01*
X037502Y001617D01*
X037469Y001579D01*
X037433Y001545D01*
X037395Y001513D01*
X037355Y001484D01*
X037312Y001459D01*
X037267Y001437D01*
X037221Y001418D01*
X037174Y001404D01*
X037125Y001393D01*
X037076Y001386D01*
X037026Y001383D01*
X036977Y001384D01*
X036927Y001389D01*
X036878Y001398D01*
X036830Y001411D01*
X036783Y001427D01*
X036738Y001447D01*
X036694Y001471D01*
X036653Y001498D01*
X036613Y001528D01*
X036576Y001562D01*
X036542Y001598D01*
X036511Y001637D01*
X036483Y001678D01*
X036459Y001721D01*
X036438Y001766D01*
X036420Y001813D01*
X036407Y001860D01*
X036397Y001909D01*
X036391Y001958D01*
X036389Y002008D01*
M02*
