G75*
G70*
%OFA0B0*%
%FSLAX24Y24*%
%IPPOS*%
%LPD*%
%AMOC8*
5,1,8,0,0,1.08239X$1,22.5*
%
%ADD10R,0.0870X0.0240*%
%ADD11R,0.0512X0.0591*%
%ADD12R,0.0591X0.0157*%
%ADD13R,0.0310X0.0350*%
%ADD14R,0.0591X0.0512*%
%ADD15R,0.0472X0.0472*%
%ADD16R,0.0709X0.0394*%
%ADD17R,0.0866X0.0984*%
%ADD18R,0.0787X0.0197*%
%ADD19R,0.0630X0.0512*%
%ADD20R,0.0630X0.0460*%
%ADD21R,0.0748X0.0394*%
%ADD22R,0.2000X0.0700*%
%ADD23R,0.0512X0.0630*%
%ADD24R,0.0551X0.0551*%
%ADD25R,0.0350X0.0310*%
%ADD26R,0.0394X0.0591*%
%ADD27R,0.0551X0.1181*%
%ADD28R,0.0394X0.0551*%
D10*
X002867Y009518D03*
X002867Y010018D03*
X002867Y010518D03*
X002867Y011018D03*
X002867Y011898D03*
X002867Y012398D03*
X002867Y012898D03*
X002867Y013398D03*
X004927Y013398D03*
X004927Y012898D03*
X004927Y012398D03*
X004927Y011898D03*
X004927Y011018D03*
X004927Y010518D03*
X004927Y010018D03*
X004927Y009518D03*
X016557Y009258D03*
X016557Y008758D03*
X016557Y008258D03*
X016557Y007758D03*
X018617Y007758D03*
X018617Y008258D03*
X018617Y008758D03*
X018617Y009258D03*
D11*
X020213Y008758D03*
X020961Y008758D03*
X020961Y007758D03*
X020213Y007758D03*
X009461Y012508D03*
X008713Y012508D03*
X006711Y012258D03*
X005963Y012258D03*
X005963Y011508D03*
X006711Y011508D03*
X005461Y014258D03*
X004713Y014258D03*
X003711Y014508D03*
X002963Y014508D03*
X002863Y008838D03*
X003611Y008838D03*
X006393Y007008D03*
X007141Y007008D03*
X031963Y019258D03*
X032711Y019258D03*
D12*
X027764Y010671D03*
X027764Y010415D03*
X027764Y010159D03*
X027764Y009904D03*
X027764Y009648D03*
X027764Y009392D03*
X027764Y009136D03*
X027764Y008880D03*
X027764Y008624D03*
X027764Y008368D03*
X027764Y008112D03*
X027764Y007856D03*
X027764Y007600D03*
X027764Y007344D03*
X024909Y007344D03*
X024909Y007600D03*
X024909Y007856D03*
X024909Y008112D03*
X024909Y008368D03*
X024909Y008624D03*
X024909Y008880D03*
X024909Y009136D03*
X024909Y009392D03*
X024909Y009648D03*
X024909Y009904D03*
X024909Y010159D03*
X024909Y010415D03*
X024909Y010671D03*
D13*
X009457Y013108D03*
X008697Y013108D03*
X009077Y013908D03*
X006457Y015358D03*
X005697Y015358D03*
X006077Y016158D03*
X004707Y015358D03*
X003947Y015358D03*
X004327Y016158D03*
D14*
X006337Y014382D03*
X007507Y015254D03*
X007507Y016002D03*
X006337Y013634D03*
X010087Y011382D03*
X010087Y010634D03*
X009837Y009632D03*
X009837Y008884D03*
X011837Y008632D03*
X011837Y007884D03*
X013087Y007884D03*
X013087Y008632D03*
X007587Y009884D03*
X007587Y010632D03*
X001837Y010632D03*
X001837Y009884D03*
X001837Y008882D03*
X001837Y008134D03*
X001837Y011884D03*
X001837Y012632D03*
X001837Y013634D03*
X001837Y014382D03*
X022587Y010632D03*
X022587Y009884D03*
X031587Y010182D03*
X031587Y009434D03*
X034087Y007532D03*
X034937Y007532D03*
X034937Y006784D03*
X034087Y006784D03*
X031587Y014384D03*
X031587Y015132D03*
X031567Y016304D03*
X031567Y017052D03*
D15*
X033673Y019258D03*
X034500Y019258D03*
X034037Y005771D03*
X035037Y005771D03*
X035037Y004944D03*
X034037Y004944D03*
D16*
X015187Y008774D03*
X015187Y009758D03*
D17*
X033049Y014604D03*
X035136Y014604D03*
X035136Y017911D03*
X033049Y017911D03*
D18*
X032951Y016888D03*
X032951Y016573D03*
X032951Y016258D03*
X032951Y015943D03*
X032951Y015628D03*
D19*
X032087Y013402D03*
X032087Y012614D03*
X029337Y010152D03*
X029337Y009364D03*
X023837Y009114D03*
X023837Y009902D03*
D20*
X033337Y012708D03*
X033337Y013308D03*
D21*
X032734Y010345D03*
X034939Y010345D03*
X034939Y008731D03*
X032734Y008770D03*
D22*
X026737Y015108D03*
X022937Y015108D03*
D23*
X023193Y016858D03*
X023980Y016858D03*
X025943Y016858D03*
X026730Y016858D03*
X021230Y011158D03*
X020443Y011158D03*
X003230Y003758D03*
X002443Y003758D03*
D24*
X017089Y010258D03*
X017089Y011008D03*
X018585Y011008D03*
X018585Y010258D03*
X008447Y014620D03*
X008447Y016116D03*
X003165Y016258D03*
X001669Y016258D03*
X003789Y021668D03*
X005285Y021668D03*
D25*
X007187Y013898D03*
X007987Y013518D03*
X007187Y013138D03*
X007167Y008628D03*
X007857Y008258D03*
X007167Y007868D03*
X006367Y008248D03*
X005507Y007998D03*
X004707Y007618D03*
X005507Y007238D03*
X008657Y007878D03*
X008657Y008638D03*
D26*
X004602Y001606D03*
X005587Y001606D03*
X006571Y001606D03*
X006571Y003810D03*
X005587Y003810D03*
X004602Y003810D03*
D27*
X008507Y017273D03*
X008507Y019163D03*
D28*
X008463Y010941D03*
X009211Y010941D03*
X008837Y010075D03*
M02*
