G75*
G70*
%OFA0B0*%
%FSLAX24Y24*%
%IPPOS*%
%LPD*%
%AMOC8*
5,1,8,0,0,1.08239X$1,22.5*
%
%ADD10C,0.0000*%
%ADD11C,0.0030*%
%ADD12C,0.0060*%
%ADD13R,0.4750X0.1250*%
%ADD14R,0.1250X0.1500*%
%ADD15R,0.1500X0.1500*%
%ADD16R,0.4750X0.1500*%
%ADD17C,0.0080*%
%ADD18C,0.0040*%
D10*
X000837Y001008D02*
X000837Y022508D01*
X035837Y022508D01*
X035837Y001008D01*
X000837Y001008D01*
X001212Y002008D02*
X001214Y002058D01*
X001220Y002107D01*
X001230Y002156D01*
X001243Y002203D01*
X001261Y002250D01*
X001282Y002295D01*
X001306Y002338D01*
X001334Y002379D01*
X001365Y002418D01*
X001399Y002454D01*
X001436Y002488D01*
X001476Y002518D01*
X001517Y002545D01*
X001561Y002569D01*
X001606Y002589D01*
X001653Y002605D01*
X001701Y002618D01*
X001750Y002627D01*
X001800Y002632D01*
X001849Y002633D01*
X001899Y002630D01*
X001948Y002623D01*
X001997Y002612D01*
X002044Y002598D01*
X002090Y002579D01*
X002135Y002557D01*
X002178Y002532D01*
X002218Y002503D01*
X002256Y002471D01*
X002292Y002437D01*
X002325Y002399D01*
X002354Y002359D01*
X002380Y002317D01*
X002403Y002273D01*
X002422Y002227D01*
X002438Y002180D01*
X002450Y002131D01*
X002458Y002082D01*
X002462Y002033D01*
X002462Y001983D01*
X002458Y001934D01*
X002450Y001885D01*
X002438Y001836D01*
X002422Y001789D01*
X002403Y001743D01*
X002380Y001699D01*
X002354Y001657D01*
X002325Y001617D01*
X002292Y001579D01*
X002256Y001545D01*
X002218Y001513D01*
X002178Y001484D01*
X002135Y001459D01*
X002090Y001437D01*
X002044Y001418D01*
X001997Y001404D01*
X001948Y001393D01*
X001899Y001386D01*
X001849Y001383D01*
X001800Y001384D01*
X001750Y001389D01*
X001701Y001398D01*
X001653Y001411D01*
X001606Y001427D01*
X001561Y001447D01*
X001517Y001471D01*
X001476Y001498D01*
X001436Y001528D01*
X001399Y001562D01*
X001365Y001598D01*
X001334Y001637D01*
X001306Y001678D01*
X001282Y001721D01*
X001261Y001766D01*
X001243Y001813D01*
X001230Y001860D01*
X001220Y001909D01*
X001214Y001958D01*
X001212Y002008D01*
X004796Y002708D02*
X004798Y002736D01*
X004804Y002763D01*
X004813Y002789D01*
X004826Y002814D01*
X004843Y002837D01*
X004862Y002857D01*
X004884Y002874D01*
X004908Y002888D01*
X004934Y002898D01*
X004961Y002905D01*
X004989Y002908D01*
X005017Y002907D01*
X005044Y002902D01*
X005071Y002893D01*
X005096Y002881D01*
X005119Y002866D01*
X005140Y002847D01*
X005158Y002826D01*
X005173Y002802D01*
X005184Y002776D01*
X005192Y002750D01*
X005196Y002722D01*
X005196Y002694D01*
X005192Y002666D01*
X005184Y002640D01*
X005173Y002614D01*
X005158Y002590D01*
X005140Y002569D01*
X005119Y002550D01*
X005096Y002535D01*
X005071Y002523D01*
X005044Y002514D01*
X005017Y002509D01*
X004989Y002508D01*
X004961Y002511D01*
X004934Y002518D01*
X004908Y002528D01*
X004884Y002542D01*
X004862Y002559D01*
X004843Y002579D01*
X004826Y002602D01*
X004813Y002627D01*
X004804Y002653D01*
X004798Y002680D01*
X004796Y002708D01*
X005977Y002708D02*
X005979Y002736D01*
X005985Y002763D01*
X005994Y002789D01*
X006007Y002814D01*
X006024Y002837D01*
X006043Y002857D01*
X006065Y002874D01*
X006089Y002888D01*
X006115Y002898D01*
X006142Y002905D01*
X006170Y002908D01*
X006198Y002907D01*
X006225Y002902D01*
X006252Y002893D01*
X006277Y002881D01*
X006300Y002866D01*
X006321Y002847D01*
X006339Y002826D01*
X006354Y002802D01*
X006365Y002776D01*
X006373Y002750D01*
X006377Y002722D01*
X006377Y002694D01*
X006373Y002666D01*
X006365Y002640D01*
X006354Y002614D01*
X006339Y002590D01*
X006321Y002569D01*
X006300Y002550D01*
X006277Y002535D01*
X006252Y002523D01*
X006225Y002514D01*
X006198Y002509D01*
X006170Y002508D01*
X006142Y002511D01*
X006115Y002518D01*
X006089Y002528D01*
X006065Y002542D01*
X006043Y002559D01*
X006024Y002579D01*
X006007Y002602D01*
X005994Y002627D01*
X005985Y002653D01*
X005979Y002680D01*
X005977Y002708D01*
X033660Y015569D02*
X033662Y015595D01*
X033668Y015621D01*
X033678Y015646D01*
X033691Y015669D01*
X033707Y015689D01*
X033727Y015707D01*
X033749Y015722D01*
X033772Y015734D01*
X033798Y015742D01*
X033824Y015746D01*
X033850Y015746D01*
X033876Y015742D01*
X033902Y015734D01*
X033926Y015722D01*
X033947Y015707D01*
X033967Y015689D01*
X033983Y015669D01*
X033996Y015646D01*
X034006Y015621D01*
X034012Y015595D01*
X034014Y015569D01*
X034012Y015543D01*
X034006Y015517D01*
X033996Y015492D01*
X033983Y015469D01*
X033967Y015449D01*
X033947Y015431D01*
X033925Y015416D01*
X033902Y015404D01*
X033876Y015396D01*
X033850Y015392D01*
X033824Y015392D01*
X033798Y015396D01*
X033772Y015404D01*
X033748Y015416D01*
X033727Y015431D01*
X033707Y015449D01*
X033691Y015469D01*
X033678Y015492D01*
X033668Y015517D01*
X033662Y015543D01*
X033660Y015569D01*
X033660Y016947D02*
X033662Y016973D01*
X033668Y016999D01*
X033678Y017024D01*
X033691Y017047D01*
X033707Y017067D01*
X033727Y017085D01*
X033749Y017100D01*
X033772Y017112D01*
X033798Y017120D01*
X033824Y017124D01*
X033850Y017124D01*
X033876Y017120D01*
X033902Y017112D01*
X033926Y017100D01*
X033947Y017085D01*
X033967Y017067D01*
X033983Y017047D01*
X033996Y017024D01*
X034006Y016999D01*
X034012Y016973D01*
X034014Y016947D01*
X034012Y016921D01*
X034006Y016895D01*
X033996Y016870D01*
X033983Y016847D01*
X033967Y016827D01*
X033947Y016809D01*
X033925Y016794D01*
X033902Y016782D01*
X033876Y016774D01*
X033850Y016770D01*
X033824Y016770D01*
X033798Y016774D01*
X033772Y016782D01*
X033748Y016794D01*
X033727Y016809D01*
X033707Y016827D01*
X033691Y016847D01*
X033678Y016870D01*
X033668Y016895D01*
X033662Y016921D01*
X033660Y016947D01*
X034212Y021508D02*
X034214Y021558D01*
X034220Y021607D01*
X034230Y021656D01*
X034243Y021703D01*
X034261Y021750D01*
X034282Y021795D01*
X034306Y021838D01*
X034334Y021879D01*
X034365Y021918D01*
X034399Y021954D01*
X034436Y021988D01*
X034476Y022018D01*
X034517Y022045D01*
X034561Y022069D01*
X034606Y022089D01*
X034653Y022105D01*
X034701Y022118D01*
X034750Y022127D01*
X034800Y022132D01*
X034849Y022133D01*
X034899Y022130D01*
X034948Y022123D01*
X034997Y022112D01*
X035044Y022098D01*
X035090Y022079D01*
X035135Y022057D01*
X035178Y022032D01*
X035218Y022003D01*
X035256Y021971D01*
X035292Y021937D01*
X035325Y021899D01*
X035354Y021859D01*
X035380Y021817D01*
X035403Y021773D01*
X035422Y021727D01*
X035438Y021680D01*
X035450Y021631D01*
X035458Y021582D01*
X035462Y021533D01*
X035462Y021483D01*
X035458Y021434D01*
X035450Y021385D01*
X035438Y021336D01*
X035422Y021289D01*
X035403Y021243D01*
X035380Y021199D01*
X035354Y021157D01*
X035325Y021117D01*
X035292Y021079D01*
X035256Y021045D01*
X035218Y021013D01*
X035178Y020984D01*
X035135Y020959D01*
X035090Y020937D01*
X035044Y020918D01*
X034997Y020904D01*
X034948Y020893D01*
X034899Y020886D01*
X034849Y020883D01*
X034800Y020884D01*
X034750Y020889D01*
X034701Y020898D01*
X034653Y020911D01*
X034606Y020927D01*
X034561Y020947D01*
X034517Y020971D01*
X034476Y020998D01*
X034436Y021028D01*
X034399Y021062D01*
X034365Y021098D01*
X034334Y021137D01*
X034306Y021178D01*
X034282Y021221D01*
X034261Y021266D01*
X034243Y021313D01*
X034230Y021360D01*
X034220Y021409D01*
X034214Y021458D01*
X034212Y021508D01*
X034212Y002008D02*
X034214Y002058D01*
X034220Y002107D01*
X034230Y002156D01*
X034243Y002203D01*
X034261Y002250D01*
X034282Y002295D01*
X034306Y002338D01*
X034334Y002379D01*
X034365Y002418D01*
X034399Y002454D01*
X034436Y002488D01*
X034476Y002518D01*
X034517Y002545D01*
X034561Y002569D01*
X034606Y002589D01*
X034653Y002605D01*
X034701Y002618D01*
X034750Y002627D01*
X034800Y002632D01*
X034849Y002633D01*
X034899Y002630D01*
X034948Y002623D01*
X034997Y002612D01*
X035044Y002598D01*
X035090Y002579D01*
X035135Y002557D01*
X035178Y002532D01*
X035218Y002503D01*
X035256Y002471D01*
X035292Y002437D01*
X035325Y002399D01*
X035354Y002359D01*
X035380Y002317D01*
X035403Y002273D01*
X035422Y002227D01*
X035438Y002180D01*
X035450Y002131D01*
X035458Y002082D01*
X035462Y002033D01*
X035462Y001983D01*
X035458Y001934D01*
X035450Y001885D01*
X035438Y001836D01*
X035422Y001789D01*
X035403Y001743D01*
X035380Y001699D01*
X035354Y001657D01*
X035325Y001617D01*
X035292Y001579D01*
X035256Y001545D01*
X035218Y001513D01*
X035178Y001484D01*
X035135Y001459D01*
X035090Y001437D01*
X035044Y001418D01*
X034997Y001404D01*
X034948Y001393D01*
X034899Y001386D01*
X034849Y001383D01*
X034800Y001384D01*
X034750Y001389D01*
X034701Y001398D01*
X034653Y001411D01*
X034606Y001427D01*
X034561Y001447D01*
X034517Y001471D01*
X034476Y001498D01*
X034436Y001528D01*
X034399Y001562D01*
X034365Y001598D01*
X034334Y001637D01*
X034306Y001678D01*
X034282Y001721D01*
X034261Y001766D01*
X034243Y001813D01*
X034230Y001860D01*
X034220Y001909D01*
X034214Y001958D01*
X034212Y002008D01*
X001212Y021508D02*
X001214Y021558D01*
X001220Y021607D01*
X001230Y021656D01*
X001243Y021703D01*
X001261Y021750D01*
X001282Y021795D01*
X001306Y021838D01*
X001334Y021879D01*
X001365Y021918D01*
X001399Y021954D01*
X001436Y021988D01*
X001476Y022018D01*
X001517Y022045D01*
X001561Y022069D01*
X001606Y022089D01*
X001653Y022105D01*
X001701Y022118D01*
X001750Y022127D01*
X001800Y022132D01*
X001849Y022133D01*
X001899Y022130D01*
X001948Y022123D01*
X001997Y022112D01*
X002044Y022098D01*
X002090Y022079D01*
X002135Y022057D01*
X002178Y022032D01*
X002218Y022003D01*
X002256Y021971D01*
X002292Y021937D01*
X002325Y021899D01*
X002354Y021859D01*
X002380Y021817D01*
X002403Y021773D01*
X002422Y021727D01*
X002438Y021680D01*
X002450Y021631D01*
X002458Y021582D01*
X002462Y021533D01*
X002462Y021483D01*
X002458Y021434D01*
X002450Y021385D01*
X002438Y021336D01*
X002422Y021289D01*
X002403Y021243D01*
X002380Y021199D01*
X002354Y021157D01*
X002325Y021117D01*
X002292Y021079D01*
X002256Y021045D01*
X002218Y021013D01*
X002178Y020984D01*
X002135Y020959D01*
X002090Y020937D01*
X002044Y020918D01*
X001997Y020904D01*
X001948Y020893D01*
X001899Y020886D01*
X001849Y020883D01*
X001800Y020884D01*
X001750Y020889D01*
X001701Y020898D01*
X001653Y020911D01*
X001606Y020927D01*
X001561Y020947D01*
X001517Y020971D01*
X001476Y020998D01*
X001436Y021028D01*
X001399Y021062D01*
X001365Y021098D01*
X001334Y021137D01*
X001306Y021178D01*
X001282Y021221D01*
X001261Y021266D01*
X001243Y021313D01*
X001230Y021360D01*
X001220Y021409D01*
X001214Y021458D01*
X001212Y021508D01*
D11*
X007602Y020076D02*
X007602Y019953D01*
X007663Y019891D01*
X007602Y019770D02*
X007602Y019523D01*
X007848Y019770D01*
X007910Y019770D01*
X007972Y019708D01*
X007972Y019585D01*
X007910Y019523D01*
X007910Y019891D02*
X007972Y019953D01*
X007972Y020076D01*
X007910Y020138D01*
X007848Y020138D01*
X007787Y020076D01*
X007725Y020138D01*
X007663Y020138D01*
X007602Y020076D01*
X007787Y020076D02*
X007787Y020015D01*
X008602Y020138D02*
X008602Y019891D01*
X008848Y020138D01*
X008910Y020138D01*
X008972Y020076D01*
X008972Y019953D01*
X008910Y019891D01*
X008910Y019770D02*
X008972Y019708D01*
X008972Y019585D01*
X008910Y019523D01*
X008910Y019770D02*
X008848Y019770D01*
X008602Y019523D01*
X008602Y019770D01*
X009602Y019770D02*
X009602Y019523D01*
X009848Y019770D01*
X009910Y019770D01*
X009972Y019708D01*
X009972Y019585D01*
X009910Y019523D01*
X010602Y019523D02*
X010602Y019770D01*
X010663Y019891D02*
X010602Y019953D01*
X010602Y020076D01*
X010663Y020138D01*
X010910Y020138D01*
X010663Y019891D01*
X010910Y019891D01*
X010972Y019953D01*
X010972Y020076D01*
X010910Y020138D01*
X010910Y019770D02*
X010972Y019708D01*
X010972Y019585D01*
X010910Y019523D01*
X010910Y019770D02*
X010848Y019770D01*
X010602Y019523D01*
X009972Y020015D02*
X009602Y020015D01*
X009602Y020138D02*
X009602Y019891D01*
X009848Y019891D02*
X009972Y020015D01*
X011602Y020076D02*
X011663Y020138D01*
X011910Y020138D01*
X011972Y020076D01*
X011972Y019953D01*
X011910Y019891D01*
X011848Y019891D01*
X011787Y019953D01*
X011787Y020138D01*
X011602Y020076D02*
X011602Y019953D01*
X011663Y019891D01*
X011602Y019770D02*
X011602Y019523D01*
X011602Y019646D02*
X011972Y019646D01*
X011848Y019523D01*
X012602Y019523D02*
X012602Y019770D01*
X012602Y019646D02*
X012972Y019646D01*
X012848Y019523D01*
X012848Y019891D02*
X012787Y019953D01*
X012787Y020076D01*
X012725Y020138D01*
X012663Y020138D01*
X012602Y020076D01*
X012602Y019953D01*
X012663Y019891D01*
X012725Y019891D01*
X012787Y019953D01*
X012848Y019891D02*
X012910Y019891D01*
X012972Y019953D01*
X012972Y020076D01*
X012910Y020138D01*
X012848Y020138D01*
X012787Y020076D01*
X013602Y019891D02*
X013663Y019891D01*
X013910Y020138D01*
X013972Y020138D01*
X013972Y019891D01*
X013972Y019646D02*
X013602Y019646D01*
X013602Y019523D02*
X013602Y019770D01*
X013848Y019523D02*
X013972Y019646D01*
X014602Y019646D02*
X014972Y019646D01*
X014848Y019523D01*
X014602Y019523D02*
X014602Y019770D01*
X014663Y019891D02*
X014602Y019953D01*
X014602Y020076D01*
X014663Y020138D01*
X014725Y020138D01*
X014787Y020076D01*
X014787Y019891D01*
X014663Y019891D01*
X014787Y019891D02*
X014910Y020015D01*
X014972Y020138D01*
X016742Y020076D02*
X017112Y020076D01*
X017112Y020200D02*
X016742Y020200D01*
X016865Y020261D02*
X016865Y020015D01*
X016865Y019893D02*
X016803Y019893D01*
X016742Y019831D01*
X016742Y019708D01*
X016803Y019646D01*
X016803Y019525D02*
X016742Y019463D01*
X016742Y019340D01*
X016803Y019278D01*
X016927Y019340D02*
X016927Y019463D01*
X016865Y019525D01*
X016803Y019525D01*
X016927Y019708D02*
X016927Y019831D01*
X016865Y019893D01*
X016988Y020015D02*
X016988Y020200D01*
X016988Y020261D01*
X017050Y019893D02*
X017112Y019831D01*
X017112Y019708D01*
X017050Y019646D01*
X016988Y019646D01*
X016927Y019708D01*
X017050Y019525D02*
X017112Y019463D01*
X017112Y019340D01*
X017050Y019278D01*
X016988Y019278D01*
X016927Y019340D01*
X017622Y019379D02*
X017992Y019379D01*
X017868Y019256D01*
X017992Y019132D01*
X017622Y019132D01*
X017683Y019501D02*
X017622Y019562D01*
X017622Y019686D01*
X017683Y019748D01*
X017930Y019748D01*
X017992Y019686D01*
X017992Y019562D01*
X017930Y019501D01*
X017683Y019501D01*
X017683Y019869D02*
X017622Y019931D01*
X017622Y020054D01*
X017683Y020116D01*
X017745Y020116D01*
X017807Y020054D01*
X017807Y019931D01*
X017868Y019869D01*
X017930Y019869D01*
X017992Y019931D01*
X017992Y020054D01*
X017930Y020116D01*
X017992Y020237D02*
X017992Y020361D01*
X017992Y020299D02*
X017622Y020299D01*
X017622Y020237D02*
X017622Y020361D01*
X018622Y020260D02*
X018683Y020321D01*
X018930Y020321D01*
X018992Y020260D01*
X018992Y020136D01*
X018930Y020075D01*
X018683Y020075D01*
X018622Y020136D01*
X018622Y020260D01*
X018683Y019953D02*
X018622Y019891D01*
X018622Y019768D01*
X018683Y019706D01*
X018622Y019584D02*
X018622Y019461D01*
X018622Y019522D02*
X018992Y019522D01*
X018992Y019461D02*
X018992Y019584D01*
X018930Y019706D02*
X018868Y019706D01*
X018807Y019768D01*
X018807Y019891D01*
X018745Y019953D01*
X018683Y019953D01*
X018930Y019953D02*
X018992Y019891D01*
X018992Y019768D01*
X018930Y019706D01*
X018992Y019339D02*
X018622Y019339D01*
X018622Y019092D02*
X018992Y019092D01*
X018868Y019216D01*
X018992Y019339D01*
X019662Y019380D02*
X019723Y019318D01*
X019662Y019380D02*
X019662Y019503D01*
X019723Y019565D01*
X019785Y019565D01*
X019847Y019503D01*
X019847Y019380D01*
X019908Y019318D01*
X019970Y019318D01*
X020032Y019380D01*
X020032Y019503D01*
X019970Y019565D01*
X019970Y019686D02*
X019723Y019686D01*
X019662Y019748D01*
X019662Y019871D01*
X019723Y019933D01*
X019662Y020055D02*
X020032Y020055D01*
X019970Y019933D02*
X020032Y019871D01*
X020032Y019748D01*
X019970Y019686D01*
X019785Y020055D02*
X020032Y020301D01*
X019847Y020116D02*
X019662Y020301D01*
X020622Y020321D02*
X020622Y020075D01*
X020622Y019953D02*
X020622Y019706D01*
X020622Y019830D02*
X020992Y019830D01*
X020868Y019706D01*
X020868Y020075D02*
X020992Y020198D01*
X020622Y020198D01*
X021622Y020216D02*
X021683Y020155D01*
X021930Y020401D01*
X021683Y020401D01*
X021622Y020340D01*
X021622Y020216D01*
X021683Y020155D02*
X021930Y020155D01*
X021992Y020216D01*
X021992Y020340D01*
X021930Y020401D01*
X021622Y020033D02*
X021622Y019786D01*
X021622Y019910D02*
X021992Y019910D01*
X021868Y019786D01*
X022622Y020076D02*
X022622Y020200D01*
X022683Y020261D01*
X022930Y020261D01*
X022992Y020200D01*
X022992Y020076D01*
X022930Y020015D01*
X022868Y020015D01*
X022807Y020076D01*
X022807Y020261D01*
X022622Y020076D02*
X022683Y020015D01*
X023662Y020076D02*
X023723Y020015D01*
X023785Y020015D01*
X023847Y020076D01*
X023847Y020200D01*
X023785Y020261D01*
X023723Y020261D01*
X023662Y020200D01*
X023662Y020076D01*
X023847Y020076D02*
X023908Y020015D01*
X023970Y020015D01*
X024032Y020076D01*
X024032Y020200D01*
X023970Y020261D01*
X023908Y020261D01*
X023847Y020200D01*
X025602Y020256D02*
X025602Y020009D01*
X025602Y019888D02*
X025848Y019641D01*
X025787Y019520D02*
X025725Y019458D01*
X025725Y019273D01*
X025725Y019396D02*
X025602Y019520D01*
X025602Y019641D02*
X025848Y019888D01*
X025848Y020009D02*
X025972Y020133D01*
X025602Y020133D01*
X025787Y019520D02*
X025910Y019520D01*
X025972Y019458D01*
X025972Y019273D01*
X025602Y019273D01*
X026852Y019406D02*
X027222Y019406D01*
X027222Y019283D02*
X027222Y019530D01*
X027098Y019651D02*
X026852Y019898D01*
X026852Y020019D02*
X026852Y020266D01*
X026852Y020143D02*
X027222Y020143D01*
X027098Y020019D01*
X027098Y019898D02*
X026852Y019651D01*
X027602Y020085D02*
X027663Y020023D01*
X027602Y020085D02*
X027602Y020208D01*
X027663Y020270D01*
X027787Y020270D01*
X027848Y020208D01*
X027848Y020146D01*
X027787Y020023D01*
X027972Y020023D01*
X027972Y020270D01*
X028602Y020208D02*
X028972Y020208D01*
X028787Y020023D01*
X028787Y020270D01*
X029602Y020208D02*
X029602Y020085D01*
X029663Y020023D01*
X029787Y020146D02*
X029787Y020208D01*
X029725Y020270D01*
X029663Y020270D01*
X029602Y020208D01*
X029787Y020208D02*
X029848Y020270D01*
X029910Y020270D01*
X029972Y020208D01*
X029972Y020085D01*
X029910Y020023D01*
X030602Y020023D02*
X030848Y020270D01*
X030910Y020270D01*
X030972Y020208D01*
X030972Y020085D01*
X030910Y020023D01*
X030602Y020023D02*
X030602Y020270D01*
X031762Y020270D02*
X031762Y020023D01*
X031762Y020146D02*
X032132Y020146D01*
X032008Y020023D01*
X032722Y020085D02*
X032783Y020023D01*
X033030Y020270D01*
X032783Y020270D01*
X032722Y020208D01*
X032722Y020085D01*
X032783Y020023D02*
X033030Y020023D01*
X033092Y020085D01*
X033092Y020208D01*
X033030Y020270D01*
X031010Y008901D02*
X030763Y008654D01*
X030702Y008716D01*
X030702Y008840D01*
X030763Y008901D01*
X031010Y008901D01*
X031072Y008840D01*
X031072Y008716D01*
X031010Y008654D01*
X030763Y008654D01*
X030702Y008410D02*
X031072Y008410D01*
X031072Y008533D02*
X031072Y008286D01*
X031072Y008165D02*
X030702Y008165D01*
X031072Y007918D01*
X030702Y007918D01*
X030702Y007796D02*
X030702Y007672D01*
X030702Y007734D02*
X031072Y007734D01*
X031072Y007672D02*
X031072Y007796D01*
X031072Y007551D02*
X030702Y007304D01*
X030702Y007183D02*
X030702Y006936D01*
X030702Y006814D02*
X030948Y006567D01*
X030887Y006446D02*
X030825Y006384D01*
X030825Y006199D01*
X030702Y006199D02*
X031072Y006199D01*
X031072Y006384D01*
X031010Y006446D01*
X030887Y006446D01*
X030825Y006323D02*
X030702Y006446D01*
X030702Y006567D02*
X030948Y006814D01*
X030948Y006936D02*
X031072Y007059D01*
X030702Y007059D01*
X030072Y007090D02*
X029702Y007090D01*
X029702Y006966D02*
X030072Y006966D01*
X029948Y006905D02*
X029948Y007090D01*
X029948Y007151D01*
X029825Y007151D02*
X029825Y006905D01*
X029825Y006783D02*
X029763Y006783D01*
X029702Y006721D01*
X029702Y006598D01*
X029763Y006536D01*
X029763Y006415D02*
X029702Y006353D01*
X029702Y006230D01*
X029763Y006168D01*
X029887Y006230D02*
X029887Y006353D01*
X029825Y006415D01*
X029763Y006415D01*
X029887Y006598D02*
X029887Y006721D01*
X029825Y006783D01*
X030010Y006783D02*
X030072Y006721D01*
X030072Y006598D01*
X030010Y006536D01*
X029948Y006536D01*
X029887Y006598D01*
X030010Y006415D02*
X030072Y006353D01*
X030072Y006230D01*
X030010Y006168D01*
X029948Y006168D01*
X029887Y006230D01*
X029072Y006172D02*
X028948Y006296D01*
X029072Y006419D01*
X028702Y006419D01*
X028702Y006541D02*
X028702Y006664D01*
X028702Y006602D02*
X029072Y006602D01*
X029072Y006541D02*
X029072Y006664D01*
X029010Y006786D02*
X028948Y006786D01*
X028887Y006848D01*
X028887Y006971D01*
X028825Y007033D01*
X028763Y007033D01*
X028702Y006971D01*
X028702Y006848D01*
X028763Y006786D01*
X029010Y006786D02*
X029072Y006848D01*
X029072Y006971D01*
X029010Y007033D01*
X029010Y007155D02*
X028763Y007155D01*
X028702Y007216D01*
X028702Y007340D01*
X028763Y007401D01*
X029010Y007401D01*
X029072Y007340D01*
X029072Y007216D01*
X029010Y007155D01*
X028072Y007094D02*
X028072Y006971D01*
X028010Y006909D01*
X027948Y006909D01*
X027887Y006971D01*
X027887Y007094D01*
X027825Y007156D01*
X027763Y007156D01*
X027702Y007094D01*
X027702Y006971D01*
X027763Y006909D01*
X027763Y006788D02*
X028010Y006788D01*
X028072Y006726D01*
X028072Y006602D01*
X028010Y006541D01*
X027763Y006541D01*
X027702Y006602D01*
X027702Y006726D01*
X027763Y006788D01*
X027702Y006419D02*
X028072Y006419D01*
X027948Y006296D01*
X028072Y006172D01*
X027702Y006172D01*
X027072Y006230D02*
X027010Y006168D01*
X026948Y006168D01*
X026887Y006230D01*
X026887Y006353D01*
X026825Y006415D01*
X026763Y006415D01*
X026702Y006353D01*
X026702Y006230D01*
X026763Y006168D01*
X027072Y006230D02*
X027072Y006353D01*
X027010Y006415D01*
X027010Y006536D02*
X026763Y006536D01*
X026702Y006598D01*
X026702Y006721D01*
X026763Y006783D01*
X026702Y006905D02*
X027072Y006905D01*
X027010Y006783D02*
X027072Y006721D01*
X027072Y006598D01*
X027010Y006536D01*
X026825Y006905D02*
X027072Y007151D01*
X026887Y006966D02*
X026702Y007151D01*
X027702Y007277D02*
X027702Y007401D01*
X027702Y007339D02*
X028072Y007339D01*
X028072Y007277D02*
X028072Y007401D01*
X028010Y007156D02*
X028072Y007094D01*
X028702Y006172D02*
X029072Y006172D01*
X028910Y004743D02*
X028663Y004743D01*
X028602Y004681D01*
X028602Y004496D01*
X028972Y004496D01*
X028972Y004681D01*
X028910Y004743D01*
X028910Y004375D02*
X028663Y004375D01*
X028602Y004313D01*
X028602Y004189D01*
X028663Y004128D01*
X028910Y004128D01*
X028972Y004189D01*
X028972Y004313D01*
X028910Y004375D01*
X029602Y004375D02*
X029602Y004128D01*
X029972Y004128D01*
X029972Y004006D02*
X029663Y004006D01*
X029602Y003945D01*
X029602Y003821D01*
X029663Y003759D01*
X029972Y003759D01*
X029972Y003638D02*
X029972Y003391D01*
X029602Y003391D01*
X029787Y003391D02*
X029787Y003515D01*
X029787Y003270D02*
X029725Y003208D01*
X029725Y003023D01*
X029602Y003023D02*
X029972Y003023D01*
X029972Y003208D01*
X029910Y003270D01*
X029787Y003270D01*
X030602Y003208D02*
X030602Y003085D01*
X030663Y003023D01*
X030787Y003085D02*
X030787Y003208D01*
X030725Y003270D01*
X030663Y003270D01*
X030602Y003208D01*
X030602Y003391D02*
X030602Y003576D01*
X030663Y003638D01*
X030910Y003638D01*
X030972Y003576D01*
X030972Y003391D01*
X030602Y003391D01*
X030910Y003270D02*
X030972Y003208D01*
X030972Y003085D01*
X030910Y003023D01*
X030848Y003023D01*
X030787Y003085D01*
X031602Y003085D02*
X031663Y003023D01*
X031602Y003085D02*
X031602Y003208D01*
X031663Y003270D01*
X031725Y003270D01*
X031787Y003208D01*
X031787Y003085D01*
X031848Y003023D01*
X031910Y003023D01*
X031972Y003085D01*
X031972Y003208D01*
X031910Y003270D01*
X031910Y003391D02*
X031663Y003391D01*
X031602Y003453D01*
X031602Y003576D01*
X031663Y003638D01*
X031602Y003759D02*
X031602Y004006D01*
X031602Y003759D02*
X031972Y003759D01*
X031910Y003638D02*
X031972Y003576D01*
X031972Y003453D01*
X031910Y003391D01*
X032602Y003391D02*
X032848Y003391D01*
X032848Y003576D01*
X032787Y003638D01*
X032602Y003638D01*
X032663Y003759D02*
X032787Y003759D01*
X032848Y003821D01*
X032848Y004006D01*
X032972Y004006D02*
X032602Y004006D01*
X032602Y003821D01*
X032663Y003759D01*
X032663Y003270D02*
X032787Y003270D01*
X032787Y003146D01*
X032910Y003023D02*
X032663Y003023D01*
X032602Y003085D01*
X032602Y003208D01*
X032663Y003270D01*
X032910Y003270D02*
X032972Y003208D01*
X032972Y003085D01*
X032910Y003023D01*
X030972Y003883D02*
X030848Y003759D01*
X030602Y003759D01*
X030787Y003759D02*
X030787Y004006D01*
X030848Y004006D02*
X030602Y004006D01*
X030848Y004006D02*
X030972Y003883D01*
X029972Y004496D02*
X029602Y004496D01*
X029602Y004743D01*
X028910Y004006D02*
X028663Y004006D01*
X028602Y003945D01*
X028602Y003821D01*
X028663Y003759D01*
X028910Y003759D01*
X028972Y003821D01*
X028972Y003945D01*
X028910Y004006D01*
X028910Y003638D02*
X028972Y003576D01*
X028972Y003453D01*
X028910Y003391D01*
X028663Y003391D01*
X028602Y003453D01*
X028602Y003576D01*
X028663Y003638D01*
X028787Y003638D01*
X028787Y003515D01*
X028787Y003270D02*
X028725Y003208D01*
X028725Y003023D01*
X028602Y003023D02*
X028972Y003023D01*
X028972Y003208D01*
X028910Y003270D01*
X028787Y003270D01*
X027972Y003270D02*
X027725Y003270D01*
X027602Y003146D01*
X027725Y003023D01*
X027972Y003023D01*
X027910Y003391D02*
X027663Y003391D01*
X027602Y003453D01*
X027602Y003576D01*
X027663Y003638D01*
X027663Y003759D02*
X027602Y003821D01*
X027602Y003945D01*
X027663Y004006D01*
X027910Y004006D01*
X027972Y003945D01*
X027972Y003821D01*
X027910Y003759D01*
X027663Y003759D01*
X027910Y003638D02*
X027972Y003576D01*
X027972Y003453D01*
X027910Y003391D01*
X026972Y003391D02*
X026972Y003576D01*
X026910Y003638D01*
X026787Y003638D01*
X026725Y003576D01*
X026725Y003391D01*
X026602Y003391D02*
X026972Y003391D01*
X026848Y003270D02*
X026602Y003270D01*
X026787Y003270D02*
X026787Y003023D01*
X026848Y003023D02*
X026972Y003146D01*
X026848Y003270D01*
X026848Y003023D02*
X026602Y003023D01*
X025972Y003023D02*
X025725Y003023D01*
X025602Y003146D01*
X025725Y003270D01*
X025972Y003270D01*
X025848Y003453D02*
X025787Y003391D01*
X025663Y003391D01*
X025602Y003453D01*
X025602Y003638D01*
X025663Y003759D02*
X025602Y003821D01*
X025602Y004006D01*
X025848Y004006D02*
X025848Y003821D01*
X025787Y003759D01*
X025663Y003759D01*
X025848Y003638D02*
X025848Y003453D01*
X026602Y003638D02*
X026725Y003515D01*
X026787Y003759D02*
X026787Y003883D01*
X026972Y004006D02*
X026972Y003759D01*
X026602Y003759D01*
X026602Y004006D01*
X026602Y004128D02*
X026972Y004128D01*
X026972Y004375D01*
X026787Y004251D02*
X026787Y004128D01*
X027602Y004128D02*
X027972Y004128D01*
X027848Y004251D01*
X027972Y004375D01*
X027602Y004375D01*
X026072Y006168D02*
X025825Y006168D01*
X025702Y006291D01*
X025825Y006415D01*
X026072Y006415D01*
X025948Y006598D02*
X025948Y006783D01*
X025887Y006905D02*
X025763Y006905D01*
X025702Y006966D01*
X025702Y007151D01*
X025948Y007151D02*
X025948Y006966D01*
X025887Y006905D01*
X025702Y006783D02*
X025702Y006598D01*
X025763Y006536D01*
X025887Y006536D01*
X025948Y006598D01*
X024152Y006333D02*
X024152Y006210D01*
X024090Y006148D01*
X023843Y006148D01*
X023782Y006210D01*
X023782Y006333D01*
X023843Y006395D01*
X023967Y006395D01*
X023967Y006271D01*
X024090Y006395D02*
X024152Y006333D01*
X024028Y006516D02*
X024028Y006701D01*
X023967Y006763D01*
X023782Y006763D01*
X023843Y006885D02*
X023967Y006885D01*
X024028Y006946D01*
X024028Y007131D01*
X024152Y007131D02*
X023782Y007131D01*
X023782Y006946D01*
X023843Y006885D01*
X023782Y006516D02*
X024028Y006516D01*
X023072Y006809D02*
X022702Y006809D01*
X022702Y006686D02*
X022702Y006933D01*
X022702Y007054D02*
X023072Y007301D01*
X023072Y007422D02*
X023072Y007546D01*
X023072Y007484D02*
X022702Y007484D01*
X022702Y007422D02*
X022702Y007546D01*
X022702Y007668D02*
X023072Y007668D01*
X022702Y007915D01*
X023072Y007915D01*
X023072Y008036D02*
X023072Y008283D01*
X023072Y008160D02*
X022702Y008160D01*
X022702Y008404D02*
X022702Y008651D01*
X022702Y008528D02*
X023072Y008528D01*
X022948Y008404D01*
X022072Y008410D02*
X021702Y008410D01*
X021702Y008165D02*
X022072Y008165D01*
X022072Y008286D02*
X022072Y008533D01*
X022010Y008654D02*
X022072Y008716D01*
X022072Y008840D01*
X022010Y008901D01*
X021763Y008654D01*
X021702Y008716D01*
X021702Y008840D01*
X021763Y008901D01*
X022010Y008901D01*
X022010Y008654D02*
X021763Y008654D01*
X021702Y008165D02*
X022072Y007918D01*
X021702Y007918D01*
X021702Y007796D02*
X021702Y007672D01*
X021702Y007734D02*
X022072Y007734D01*
X022072Y007672D02*
X022072Y007796D01*
X022072Y007551D02*
X021702Y007304D01*
X021702Y007183D02*
X021702Y006936D01*
X021702Y006814D02*
X021948Y006567D01*
X022010Y006446D02*
X021887Y006446D01*
X021825Y006384D01*
X021825Y006199D01*
X021702Y006199D02*
X022072Y006199D01*
X022072Y006384D01*
X022010Y006446D01*
X021825Y006323D02*
X021702Y006446D01*
X021702Y006567D02*
X021948Y006814D01*
X021948Y006936D02*
X022072Y007059D01*
X021702Y007059D01*
X021072Y007090D02*
X020702Y007090D01*
X020702Y006966D02*
X021072Y006966D01*
X020948Y006905D02*
X020948Y007090D01*
X020948Y007151D01*
X020825Y007151D02*
X020825Y006905D01*
X020825Y006783D02*
X020763Y006783D01*
X020702Y006721D01*
X020702Y006598D01*
X020763Y006536D01*
X020763Y006415D02*
X020702Y006353D01*
X020702Y006230D01*
X020763Y006168D01*
X020887Y006230D02*
X020887Y006353D01*
X020825Y006415D01*
X020763Y006415D01*
X020887Y006598D02*
X020887Y006721D01*
X020825Y006783D01*
X021010Y006783D02*
X021072Y006721D01*
X021072Y006598D01*
X021010Y006536D01*
X020948Y006536D01*
X020887Y006598D01*
X021010Y006415D02*
X021072Y006353D01*
X021072Y006230D01*
X021010Y006168D01*
X020948Y006168D01*
X020887Y006230D01*
X020072Y006172D02*
X019948Y006296D01*
X020072Y006419D01*
X019702Y006419D01*
X019702Y006541D02*
X019702Y006664D01*
X019702Y006602D02*
X020072Y006602D01*
X020072Y006541D02*
X020072Y006664D01*
X020010Y006786D02*
X019948Y006786D01*
X019887Y006848D01*
X019887Y006971D01*
X019825Y007033D01*
X019763Y007033D01*
X019702Y006971D01*
X019702Y006848D01*
X019763Y006786D01*
X020010Y006786D02*
X020072Y006848D01*
X020072Y006971D01*
X020010Y007033D01*
X020010Y007155D02*
X019763Y007155D01*
X019702Y007216D01*
X019702Y007340D01*
X019763Y007401D01*
X020010Y007401D01*
X020072Y007340D01*
X020072Y007216D01*
X020010Y007155D01*
X019072Y007094D02*
X019072Y006971D01*
X019010Y006909D01*
X018948Y006909D01*
X018887Y006971D01*
X018887Y007094D01*
X018825Y007156D01*
X018763Y007156D01*
X018702Y007094D01*
X018702Y006971D01*
X018763Y006909D01*
X018763Y006788D02*
X019010Y006788D01*
X019072Y006726D01*
X019072Y006602D01*
X019010Y006541D01*
X018763Y006541D01*
X018702Y006602D01*
X018702Y006726D01*
X018763Y006788D01*
X018702Y006419D02*
X019072Y006419D01*
X018948Y006296D01*
X019072Y006172D01*
X018702Y006172D01*
X018072Y006230D02*
X018010Y006168D01*
X017948Y006168D01*
X017887Y006230D01*
X017887Y006353D01*
X017825Y006415D01*
X017763Y006415D01*
X017702Y006353D01*
X017702Y006230D01*
X017763Y006168D01*
X018072Y006230D02*
X018072Y006353D01*
X018010Y006415D01*
X018010Y006536D02*
X017763Y006536D01*
X017702Y006598D01*
X017702Y006721D01*
X017763Y006783D01*
X017702Y006905D02*
X018072Y006905D01*
X018010Y006783D02*
X018072Y006721D01*
X018072Y006598D01*
X018010Y006536D01*
X017825Y006905D02*
X018072Y007151D01*
X017887Y006966D02*
X017702Y007151D01*
X016948Y007151D02*
X016948Y006966D01*
X016887Y006905D01*
X016763Y006905D01*
X016702Y006966D01*
X016702Y007151D01*
X016702Y006783D02*
X016702Y006598D01*
X016763Y006536D01*
X016887Y006536D01*
X016948Y006598D01*
X016948Y006783D01*
X016825Y006415D02*
X017072Y006415D01*
X016825Y006415D02*
X016702Y006291D01*
X016825Y006168D01*
X017072Y006168D01*
X015152Y006210D02*
X015090Y006148D01*
X014843Y006148D01*
X014782Y006210D01*
X014782Y006333D01*
X014843Y006395D01*
X014967Y006395D01*
X014967Y006271D01*
X015090Y006395D02*
X015152Y006333D01*
X015152Y006210D01*
X015028Y006516D02*
X014782Y006516D01*
X015028Y006516D02*
X015028Y006701D01*
X014967Y006763D01*
X014782Y006763D01*
X014843Y006885D02*
X014967Y006885D01*
X015028Y006946D01*
X015028Y007131D01*
X015152Y007131D02*
X014782Y007131D01*
X014782Y006946D01*
X014843Y006885D01*
X014072Y006809D02*
X013702Y006809D01*
X013702Y006686D02*
X013702Y006933D01*
X013702Y007054D02*
X014072Y007301D01*
X014072Y007422D02*
X014072Y007546D01*
X014072Y007484D02*
X013702Y007484D01*
X013702Y007422D02*
X013702Y007546D01*
X013702Y007668D02*
X014072Y007668D01*
X013702Y007915D01*
X014072Y007915D01*
X014072Y008036D02*
X014072Y008283D01*
X014072Y008160D02*
X013702Y008160D01*
X013702Y008404D02*
X013702Y008651D01*
X013702Y008528D02*
X014072Y008528D01*
X013948Y008404D01*
X013072Y008410D02*
X012702Y008410D01*
X012702Y008165D02*
X013072Y008165D01*
X013072Y008286D02*
X013072Y008533D01*
X013010Y008654D02*
X013072Y008716D01*
X013072Y008840D01*
X013010Y008901D01*
X012763Y008654D01*
X012702Y008716D01*
X012702Y008840D01*
X012763Y008901D01*
X013010Y008901D01*
X013010Y008654D02*
X012763Y008654D01*
X012702Y008165D02*
X013072Y007918D01*
X012702Y007918D01*
X012702Y007796D02*
X012702Y007672D01*
X012702Y007734D02*
X013072Y007734D01*
X013072Y007672D02*
X013072Y007796D01*
X013072Y007551D02*
X012702Y007304D01*
X012702Y007183D02*
X012702Y006936D01*
X012702Y006814D02*
X012948Y006567D01*
X012887Y006446D02*
X012825Y006384D01*
X012825Y006199D01*
X012702Y006199D02*
X013072Y006199D01*
X013072Y006384D01*
X013010Y006446D01*
X012887Y006446D01*
X012825Y006323D02*
X012702Y006446D01*
X012702Y006567D02*
X012948Y006814D01*
X012948Y006936D02*
X013072Y007059D01*
X012702Y007059D01*
X012072Y007090D02*
X011702Y007090D01*
X011702Y006966D02*
X012072Y006966D01*
X011948Y006905D02*
X011948Y007090D01*
X011948Y007151D01*
X011825Y007151D02*
X011825Y006905D01*
X011825Y006783D02*
X011763Y006783D01*
X011702Y006721D01*
X011702Y006598D01*
X011763Y006536D01*
X011763Y006415D02*
X011702Y006353D01*
X011702Y006230D01*
X011763Y006168D01*
X011887Y006230D02*
X011887Y006353D01*
X011825Y006415D01*
X011763Y006415D01*
X011887Y006598D02*
X011887Y006721D01*
X011825Y006783D01*
X012010Y006783D02*
X012072Y006721D01*
X012072Y006598D01*
X012010Y006536D01*
X011948Y006536D01*
X011887Y006598D01*
X012010Y006415D02*
X012072Y006353D01*
X012072Y006230D01*
X012010Y006168D01*
X011948Y006168D01*
X011887Y006230D01*
X011072Y006172D02*
X010948Y006296D01*
X011072Y006419D01*
X010702Y006419D01*
X010702Y006541D02*
X010702Y006664D01*
X010702Y006602D02*
X011072Y006602D01*
X011072Y006541D02*
X011072Y006664D01*
X011010Y006786D02*
X010948Y006786D01*
X010887Y006848D01*
X010887Y006971D01*
X010825Y007033D01*
X010763Y007033D01*
X010702Y006971D01*
X010702Y006848D01*
X010763Y006786D01*
X011010Y006786D02*
X011072Y006848D01*
X011072Y006971D01*
X011010Y007033D01*
X011010Y007155D02*
X010763Y007155D01*
X010702Y007216D01*
X010702Y007340D01*
X010763Y007401D01*
X011010Y007401D01*
X011072Y007340D01*
X011072Y007216D01*
X011010Y007155D01*
X010072Y007094D02*
X010072Y006971D01*
X010010Y006909D01*
X009948Y006909D01*
X009887Y006971D01*
X009887Y007094D01*
X009825Y007156D01*
X009763Y007156D01*
X009702Y007094D01*
X009702Y006971D01*
X009763Y006909D01*
X009763Y006788D02*
X010010Y006788D01*
X010072Y006726D01*
X010072Y006602D01*
X010010Y006541D01*
X009763Y006541D01*
X009702Y006602D01*
X009702Y006726D01*
X009763Y006788D01*
X009702Y006419D02*
X010072Y006419D01*
X009948Y006296D01*
X010072Y006172D01*
X009702Y006172D01*
X009072Y006230D02*
X009010Y006168D01*
X008948Y006168D01*
X008887Y006230D01*
X008887Y006353D01*
X008825Y006415D01*
X008763Y006415D01*
X008702Y006353D01*
X008702Y006230D01*
X008763Y006168D01*
X009072Y006230D02*
X009072Y006353D01*
X009010Y006415D01*
X009010Y006536D02*
X008763Y006536D01*
X008702Y006598D01*
X008702Y006721D01*
X008763Y006783D01*
X008702Y006905D02*
X009072Y006905D01*
X009010Y006783D02*
X009072Y006721D01*
X009072Y006598D01*
X009010Y006536D01*
X008825Y006905D02*
X009072Y007151D01*
X008887Y006966D02*
X008702Y007151D01*
X007948Y007151D02*
X007948Y006966D01*
X007887Y006905D01*
X007763Y006905D01*
X007702Y006966D01*
X007702Y007151D01*
X007702Y006783D02*
X007702Y006598D01*
X007763Y006536D01*
X007887Y006536D01*
X007948Y006598D01*
X007948Y006783D01*
X007825Y006415D02*
X008072Y006415D01*
X007825Y006415D02*
X007702Y006291D01*
X007825Y006168D01*
X008072Y006168D01*
X009702Y007277D02*
X009702Y007401D01*
X009702Y007339D02*
X010072Y007339D01*
X010072Y007277D02*
X010072Y007401D01*
X010010Y007156D02*
X010072Y007094D01*
X010702Y006172D02*
X011072Y006172D01*
X010910Y004743D02*
X010972Y004681D01*
X010972Y004496D01*
X010602Y004496D01*
X010602Y004681D01*
X010663Y004743D01*
X010910Y004743D01*
X010910Y004375D02*
X010972Y004313D01*
X010972Y004189D01*
X010910Y004128D01*
X010663Y004128D01*
X010602Y004189D01*
X010602Y004313D01*
X010663Y004375D01*
X010910Y004375D01*
X010910Y004006D02*
X010972Y003945D01*
X010972Y003821D01*
X010910Y003759D01*
X010663Y003759D01*
X010602Y003821D01*
X010602Y003945D01*
X010663Y004006D01*
X010910Y004006D01*
X010910Y003638D02*
X010972Y003576D01*
X010972Y003453D01*
X010910Y003391D01*
X010663Y003391D01*
X010602Y003453D01*
X010602Y003576D01*
X010663Y003638D01*
X010787Y003638D01*
X010787Y003515D01*
X010787Y003270D02*
X010725Y003208D01*
X010725Y003023D01*
X010602Y003023D02*
X010972Y003023D01*
X010972Y003208D01*
X010910Y003270D01*
X010787Y003270D01*
X009972Y003270D02*
X009725Y003270D01*
X009602Y003146D01*
X009725Y003023D01*
X009972Y003023D01*
X009910Y003391D02*
X009663Y003391D01*
X009602Y003453D01*
X009602Y003576D01*
X009663Y003638D01*
X009663Y003759D02*
X009602Y003821D01*
X009602Y003945D01*
X009663Y004006D01*
X009910Y004006D01*
X009972Y003945D01*
X009972Y003821D01*
X009910Y003759D01*
X009663Y003759D01*
X009910Y003638D02*
X009972Y003576D01*
X009972Y003453D01*
X009910Y003391D01*
X008972Y003391D02*
X008972Y003576D01*
X008910Y003638D01*
X008787Y003638D01*
X008725Y003576D01*
X008725Y003391D01*
X008602Y003391D02*
X008972Y003391D01*
X008848Y003270D02*
X008602Y003270D01*
X008787Y003270D02*
X008787Y003023D01*
X008848Y003023D02*
X008972Y003146D01*
X008848Y003270D01*
X008848Y003023D02*
X008602Y003023D01*
X008725Y003515D02*
X008602Y003638D01*
X008602Y003759D02*
X008602Y004006D01*
X008602Y004128D02*
X008972Y004128D01*
X008972Y004375D01*
X008787Y004251D02*
X008787Y004128D01*
X008972Y004006D02*
X008972Y003759D01*
X008602Y003759D01*
X008787Y003759D02*
X008787Y003883D01*
X009602Y004128D02*
X009972Y004128D01*
X009848Y004251D01*
X009972Y004375D01*
X009602Y004375D01*
X007848Y004006D02*
X007848Y003821D01*
X007787Y003759D01*
X007663Y003759D01*
X007602Y003821D01*
X007602Y004006D01*
X007602Y003638D02*
X007602Y003453D01*
X007663Y003391D01*
X007787Y003391D01*
X007848Y003453D01*
X007848Y003638D01*
X007725Y003270D02*
X007972Y003270D01*
X007725Y003270D02*
X007602Y003146D01*
X007725Y003023D01*
X007972Y003023D01*
X005072Y003050D02*
X004825Y003050D01*
X004702Y003173D01*
X004825Y003296D01*
X005072Y003296D01*
X005072Y003418D02*
X004763Y003418D01*
X004702Y003480D01*
X004702Y003603D01*
X004763Y003665D01*
X005072Y003665D01*
X005010Y003786D02*
X004948Y003786D01*
X004887Y003848D01*
X004887Y003971D01*
X004825Y004033D01*
X004763Y004033D01*
X004702Y003971D01*
X004702Y003848D01*
X004763Y003786D01*
X005010Y003786D02*
X005072Y003848D01*
X005072Y003971D01*
X005010Y004033D01*
X005072Y004155D02*
X004702Y004155D01*
X004702Y004340D01*
X004763Y004401D01*
X004825Y004401D01*
X004887Y004340D01*
X004887Y004155D01*
X004887Y004340D02*
X004948Y004401D01*
X005010Y004401D01*
X005072Y004340D01*
X005072Y004155D01*
X004072Y004155D02*
X004072Y004401D01*
X004072Y004278D02*
X003702Y004278D01*
X003763Y004033D02*
X004072Y004033D01*
X004072Y003786D02*
X003763Y003786D01*
X003702Y003848D01*
X003702Y003971D01*
X003763Y004033D01*
X003763Y003665D02*
X004010Y003665D01*
X004072Y003603D01*
X004072Y003480D01*
X004010Y003418D01*
X003763Y003418D01*
X003702Y003480D01*
X003702Y003603D01*
X003763Y003665D01*
X003763Y003296D02*
X003887Y003296D01*
X003887Y003173D01*
X004010Y003050D02*
X003763Y003050D01*
X003702Y003111D01*
X003702Y003235D01*
X003763Y003296D01*
X004010Y003296D02*
X004072Y003235D01*
X004072Y003111D01*
X004010Y003050D01*
X004072Y002928D02*
X004072Y002681D01*
X003702Y002681D01*
X003702Y002928D01*
X003887Y002805D02*
X003887Y002681D01*
X003887Y002560D02*
X003825Y002498D01*
X003825Y002313D01*
X003825Y002192D02*
X004072Y002192D01*
X004072Y002313D02*
X003702Y002313D01*
X003825Y002192D02*
X003702Y002068D01*
X003825Y001945D01*
X004072Y001945D01*
X004072Y002313D02*
X004072Y002498D01*
X004010Y002560D01*
X003887Y002560D01*
X003825Y002436D02*
X003702Y002560D01*
X003072Y002498D02*
X003072Y002375D01*
X003010Y002313D01*
X002763Y002313D01*
X002702Y002375D01*
X002702Y002498D01*
X002763Y002560D01*
X002640Y002681D02*
X002640Y002928D01*
X002763Y003050D02*
X002702Y003111D01*
X002702Y003235D01*
X002763Y003296D01*
X003072Y003296D01*
X003072Y003418D02*
X002702Y003665D01*
X003072Y003665D01*
X003010Y003786D02*
X002948Y003786D01*
X002887Y003848D01*
X002887Y003971D01*
X002825Y004033D01*
X002763Y004033D01*
X002702Y003971D01*
X002702Y003848D01*
X002763Y003786D01*
X003010Y003786D02*
X003072Y003848D01*
X003072Y003971D01*
X003010Y004033D01*
X003072Y004155D02*
X002702Y004155D01*
X002825Y004278D01*
X002702Y004401D01*
X003072Y004401D01*
X003072Y003418D02*
X002702Y003418D01*
X002763Y003050D02*
X003072Y003050D01*
X003010Y002560D02*
X003072Y002498D01*
X003010Y002192D02*
X003072Y002130D01*
X003072Y002006D01*
X003010Y001945D01*
X002763Y001945D01*
X002702Y002006D01*
X002702Y002130D01*
X002763Y002192D01*
X002825Y001823D02*
X003072Y001823D01*
X003072Y001576D02*
X002825Y001576D01*
X002702Y001700D01*
X002825Y001823D01*
X001972Y006023D02*
X001602Y006023D01*
X001725Y006023D02*
X001725Y006208D01*
X001787Y006270D01*
X001910Y006270D01*
X001972Y006208D01*
X001972Y006023D01*
X001972Y006391D02*
X001602Y006391D01*
X001787Y006391D02*
X001787Y006515D01*
X001972Y006391D02*
X001972Y006638D01*
X001972Y006759D02*
X001663Y006759D01*
X001602Y006821D01*
X001602Y006945D01*
X001663Y007006D01*
X001972Y007006D01*
X001972Y007128D02*
X001602Y007128D01*
X001602Y007375D01*
X001602Y007496D02*
X001602Y007743D01*
X001725Y007864D02*
X001725Y008111D01*
X001848Y008111D02*
X001848Y008050D01*
X001848Y007864D01*
X001972Y007926D02*
X001602Y007926D01*
X001602Y008050D02*
X001972Y008050D01*
X001972Y007496D02*
X001602Y007496D01*
X005702Y007536D02*
X005702Y007721D01*
X005763Y007783D01*
X006010Y007783D01*
X006072Y007721D01*
X006072Y007536D01*
X005702Y007536D01*
X005763Y007415D02*
X006010Y007415D01*
X006072Y007353D01*
X006072Y007230D01*
X006010Y007168D01*
X005763Y007168D01*
X005702Y007230D01*
X005702Y007353D01*
X005763Y007415D01*
X005763Y007046D02*
X006010Y007046D01*
X006072Y006985D01*
X006072Y006861D01*
X006010Y006800D01*
X005763Y006800D01*
X005702Y006861D01*
X005702Y006985D01*
X005763Y007046D01*
X005763Y006678D02*
X005887Y006678D01*
X005887Y006555D01*
X006010Y006678D02*
X006072Y006616D01*
X006072Y006493D01*
X006010Y006431D01*
X005763Y006431D01*
X005702Y006493D01*
X005702Y006616D01*
X005763Y006678D01*
X005887Y006310D02*
X005825Y006248D01*
X005825Y006063D01*
X005702Y006063D02*
X006072Y006063D01*
X006072Y006248D01*
X006010Y006310D01*
X005887Y006310D01*
X005948Y007905D02*
X005948Y008090D01*
X005948Y008151D01*
X005825Y008151D02*
X005825Y007905D01*
X005702Y007966D02*
X006072Y007966D01*
X006072Y008090D02*
X005702Y008090D01*
X011602Y004743D02*
X011602Y004496D01*
X011972Y004496D01*
X011972Y004128D02*
X011602Y004128D01*
X011602Y004375D01*
X011663Y004006D02*
X011972Y004006D01*
X011972Y003759D02*
X011663Y003759D01*
X011602Y003821D01*
X011602Y003945D01*
X011663Y004006D01*
X011972Y003638D02*
X011972Y003391D01*
X011602Y003391D01*
X011787Y003391D02*
X011787Y003515D01*
X011787Y003270D02*
X011725Y003208D01*
X011725Y003023D01*
X011602Y003023D02*
X011972Y003023D01*
X011972Y003208D01*
X011910Y003270D01*
X011787Y003270D01*
X012602Y003208D02*
X012602Y003085D01*
X012663Y003023D01*
X012787Y003085D02*
X012787Y003208D01*
X012725Y003270D01*
X012663Y003270D01*
X012602Y003208D01*
X012602Y003391D02*
X012602Y003576D01*
X012663Y003638D01*
X012910Y003638D01*
X012972Y003576D01*
X012972Y003391D01*
X012602Y003391D01*
X012910Y003270D02*
X012972Y003208D01*
X012972Y003085D01*
X012910Y003023D01*
X012848Y003023D01*
X012787Y003085D01*
X012787Y003759D02*
X012787Y004006D01*
X012848Y004006D02*
X012602Y004006D01*
X012848Y004006D02*
X012972Y003883D01*
X012848Y003759D01*
X012602Y003759D01*
X013602Y003759D02*
X013602Y004006D01*
X013602Y003759D02*
X013972Y003759D01*
X013910Y003638D02*
X013972Y003576D01*
X013972Y003453D01*
X013910Y003391D01*
X013663Y003391D01*
X013602Y003453D01*
X013602Y003576D01*
X013663Y003638D01*
X013663Y003270D02*
X013602Y003208D01*
X013602Y003085D01*
X013663Y003023D01*
X013787Y003085D02*
X013787Y003208D01*
X013725Y003270D01*
X013663Y003270D01*
X013787Y003085D02*
X013848Y003023D01*
X013910Y003023D01*
X013972Y003085D01*
X013972Y003208D01*
X013910Y003270D01*
X014602Y003208D02*
X014602Y003085D01*
X014663Y003023D01*
X014910Y003023D01*
X014972Y003085D01*
X014972Y003208D01*
X014910Y003270D01*
X014787Y003270D02*
X014787Y003146D01*
X014787Y003270D02*
X014663Y003270D01*
X014602Y003208D01*
X014602Y003391D02*
X014848Y003391D01*
X014848Y003576D01*
X014787Y003638D01*
X014602Y003638D01*
X014663Y003759D02*
X014602Y003821D01*
X014602Y004006D01*
X014972Y004006D01*
X014848Y004006D02*
X014848Y003821D01*
X014787Y003759D01*
X014663Y003759D01*
X016602Y003821D02*
X016602Y004006D01*
X016602Y003821D02*
X016663Y003759D01*
X016787Y003759D01*
X016848Y003821D01*
X016848Y004006D01*
X016848Y003638D02*
X016848Y003453D01*
X016787Y003391D01*
X016663Y003391D01*
X016602Y003453D01*
X016602Y003638D01*
X016725Y003270D02*
X016972Y003270D01*
X016725Y003270D02*
X016602Y003146D01*
X016725Y003023D01*
X016972Y003023D01*
X017602Y003023D02*
X017848Y003023D01*
X017972Y003146D01*
X017848Y003270D01*
X017602Y003270D01*
X017602Y003391D02*
X017972Y003391D01*
X017972Y003576D01*
X017910Y003638D01*
X017787Y003638D01*
X017725Y003576D01*
X017725Y003391D01*
X017725Y003515D02*
X017602Y003638D01*
X017602Y003759D02*
X017602Y004006D01*
X017602Y004128D02*
X017972Y004128D01*
X017972Y004375D01*
X017787Y004251D02*
X017787Y004128D01*
X017972Y004006D02*
X017972Y003759D01*
X017602Y003759D01*
X017787Y003759D02*
X017787Y003883D01*
X018602Y003821D02*
X018602Y003945D01*
X018663Y004006D01*
X018910Y004006D01*
X018972Y003945D01*
X018972Y003821D01*
X018910Y003759D01*
X018663Y003759D01*
X018602Y003821D01*
X018663Y003638D02*
X018602Y003576D01*
X018602Y003453D01*
X018663Y003391D01*
X018910Y003391D01*
X018972Y003453D01*
X018972Y003576D01*
X018910Y003638D01*
X018972Y003270D02*
X018725Y003270D01*
X018602Y003146D01*
X018725Y003023D01*
X018972Y003023D01*
X019602Y003023D02*
X019972Y003023D01*
X019972Y003208D01*
X019910Y003270D01*
X019787Y003270D01*
X019725Y003208D01*
X019725Y003023D01*
X019663Y003391D02*
X019602Y003453D01*
X019602Y003576D01*
X019663Y003638D01*
X019787Y003638D01*
X019787Y003515D01*
X019910Y003638D02*
X019972Y003576D01*
X019972Y003453D01*
X019910Y003391D01*
X019663Y003391D01*
X019663Y003759D02*
X019602Y003821D01*
X019602Y003945D01*
X019663Y004006D01*
X019910Y004006D01*
X019972Y003945D01*
X019972Y003821D01*
X019910Y003759D01*
X019663Y003759D01*
X019663Y004128D02*
X019602Y004189D01*
X019602Y004313D01*
X019663Y004375D01*
X019910Y004375D01*
X019972Y004313D01*
X019972Y004189D01*
X019910Y004128D01*
X019663Y004128D01*
X019602Y004496D02*
X019602Y004681D01*
X019663Y004743D01*
X019910Y004743D01*
X019972Y004681D01*
X019972Y004496D01*
X019602Y004496D01*
X018972Y004375D02*
X018848Y004251D01*
X018972Y004128D01*
X018602Y004128D01*
X018602Y004375D02*
X018972Y004375D01*
X017787Y003270D02*
X017787Y003023D01*
X020602Y003023D02*
X020972Y003023D01*
X020972Y003208D01*
X020910Y003270D01*
X020787Y003270D01*
X020725Y003208D01*
X020725Y003023D01*
X020787Y003391D02*
X020787Y003515D01*
X020972Y003391D02*
X020972Y003638D01*
X020972Y003759D02*
X020663Y003759D01*
X020602Y003821D01*
X020602Y003945D01*
X020663Y004006D01*
X020972Y004006D01*
X020972Y004128D02*
X020602Y004128D01*
X020602Y004375D01*
X020602Y004496D02*
X020602Y004743D01*
X020602Y004496D02*
X020972Y004496D01*
X021602Y004006D02*
X021848Y004006D01*
X021972Y003883D01*
X021848Y003759D01*
X021602Y003759D01*
X021663Y003638D02*
X021910Y003638D01*
X021972Y003576D01*
X021972Y003391D01*
X021602Y003391D01*
X021602Y003576D01*
X021663Y003638D01*
X021787Y003759D02*
X021787Y004006D01*
X022602Y004006D02*
X022602Y003759D01*
X022972Y003759D01*
X022910Y003638D02*
X022972Y003576D01*
X022972Y003453D01*
X022910Y003391D01*
X022663Y003391D01*
X022602Y003453D01*
X022602Y003576D01*
X022663Y003638D01*
X022663Y003270D02*
X022602Y003208D01*
X022602Y003085D01*
X022663Y003023D01*
X022787Y003085D02*
X022787Y003208D01*
X022725Y003270D01*
X022663Y003270D01*
X022787Y003085D02*
X022848Y003023D01*
X022910Y003023D01*
X022972Y003085D01*
X022972Y003208D01*
X022910Y003270D01*
X023602Y003208D02*
X023602Y003085D01*
X023663Y003023D01*
X023910Y003023D01*
X023972Y003085D01*
X023972Y003208D01*
X023910Y003270D01*
X023787Y003270D02*
X023787Y003146D01*
X023787Y003270D02*
X023663Y003270D01*
X023602Y003208D01*
X023602Y003391D02*
X023848Y003391D01*
X023848Y003576D01*
X023787Y003638D01*
X023602Y003638D01*
X023663Y003759D02*
X023787Y003759D01*
X023848Y003821D01*
X023848Y004006D01*
X023972Y004006D02*
X023602Y004006D01*
X023602Y003821D01*
X023663Y003759D01*
X021972Y003208D02*
X021972Y003085D01*
X021910Y003023D01*
X021848Y003023D01*
X021787Y003085D01*
X021787Y003208D01*
X021725Y003270D01*
X021663Y003270D01*
X021602Y003208D01*
X021602Y003085D01*
X021663Y003023D01*
X021910Y003270D02*
X021972Y003208D01*
X020972Y003391D02*
X020602Y003391D01*
X022702Y006073D02*
X023072Y006073D01*
X023072Y006196D02*
X023072Y005949D01*
X022948Y006317D02*
X022702Y006564D01*
X022948Y006564D02*
X022702Y006317D01*
X022948Y006686D02*
X023072Y006809D01*
X020072Y006172D02*
X019702Y006172D01*
X019072Y007094D02*
X019010Y007156D01*
X019072Y007277D02*
X019072Y007401D01*
X019072Y007339D02*
X018702Y007339D01*
X018702Y007277D02*
X018702Y007401D01*
X014072Y006809D02*
X013948Y006686D01*
X013948Y006564D02*
X013702Y006317D01*
X013702Y006073D02*
X014072Y006073D01*
X014072Y006196D02*
X014072Y005949D01*
X013948Y006317D02*
X013702Y006564D01*
X004072Y014313D02*
X003825Y014313D01*
X003702Y014436D01*
X003825Y014560D01*
X004072Y014560D01*
X004072Y014681D02*
X003763Y014681D01*
X003702Y014743D01*
X003702Y014866D01*
X003763Y014928D01*
X004072Y014928D01*
X004072Y015050D02*
X003702Y015296D01*
X004072Y015296D01*
X004072Y015418D02*
X004072Y015603D01*
X004010Y015665D01*
X003887Y015665D01*
X003825Y015603D01*
X003825Y015418D01*
X003825Y015541D02*
X003702Y015665D01*
X003702Y015786D02*
X003702Y016033D01*
X003763Y016155D02*
X003702Y016216D01*
X003702Y016340D01*
X003763Y016401D01*
X003887Y016401D01*
X003887Y016278D01*
X004010Y016401D02*
X004072Y016340D01*
X004072Y016216D01*
X004010Y016155D01*
X003763Y016155D01*
X003887Y015910D02*
X003887Y015786D01*
X004072Y015786D02*
X003702Y015786D01*
X004072Y015786D02*
X004072Y016033D01*
X004702Y016033D02*
X005072Y016033D01*
X004887Y016155D02*
X004887Y016401D01*
X005010Y016278D02*
X004763Y016278D01*
X004702Y016033D02*
X005072Y015786D01*
X004702Y015786D01*
X004702Y015664D02*
X004702Y015541D01*
X004702Y015602D02*
X005072Y015602D01*
X005072Y015541D02*
X005072Y015664D01*
X005072Y015419D02*
X004825Y015419D01*
X004702Y015296D01*
X004825Y015172D01*
X005072Y015172D01*
X005702Y015173D02*
X005825Y015050D01*
X006072Y015050D01*
X005825Y015296D02*
X005702Y015173D01*
X005825Y015296D02*
X006072Y015296D01*
X006072Y015418D02*
X006072Y015603D01*
X006010Y015665D01*
X005887Y015665D01*
X005825Y015603D01*
X005825Y015418D01*
X005825Y015541D02*
X005702Y015665D01*
X005702Y015786D02*
X005702Y016033D01*
X005763Y016155D02*
X005702Y016216D01*
X005702Y016340D01*
X005763Y016401D01*
X005887Y016401D01*
X005887Y016278D01*
X006010Y016155D02*
X006072Y016216D01*
X006072Y016340D01*
X006010Y016401D01*
X006010Y016155D02*
X005763Y016155D01*
X005887Y015910D02*
X005887Y015786D01*
X006072Y015786D02*
X005702Y015786D01*
X006072Y015786D02*
X006072Y016033D01*
X006072Y015418D02*
X005702Y015418D01*
X004072Y015418D02*
X003702Y015418D01*
X003702Y015050D02*
X004072Y015050D01*
X003072Y015172D02*
X002825Y015172D01*
X002702Y015296D01*
X002825Y015419D01*
X003072Y015419D01*
X003072Y015541D02*
X003072Y015664D01*
X003072Y015602D02*
X002702Y015602D01*
X002702Y015541D02*
X002702Y015664D01*
X002702Y015786D02*
X003072Y015786D01*
X002702Y016033D01*
X003072Y016033D01*
X002887Y016155D02*
X002887Y016401D01*
X002072Y016340D02*
X002072Y016155D01*
X001702Y016155D01*
X001702Y016340D01*
X001763Y016401D01*
X002010Y016401D01*
X002072Y016340D01*
X002072Y016033D02*
X001702Y016033D01*
X002072Y015786D01*
X001702Y015786D01*
X001763Y015665D02*
X001887Y015665D01*
X001887Y015541D01*
X002010Y015418D02*
X001763Y015418D01*
X001702Y015480D01*
X001702Y015603D01*
X001763Y015665D01*
X002010Y015665D02*
X002072Y015603D01*
X002072Y015480D01*
X002010Y015418D01*
X031702Y008651D02*
X031702Y008404D01*
X031702Y008528D02*
X032072Y008528D01*
X031948Y008404D01*
X032072Y008283D02*
X032072Y008036D01*
X032072Y007915D02*
X031702Y007915D01*
X032072Y007668D01*
X031702Y007668D01*
X031702Y007546D02*
X031702Y007422D01*
X031702Y007484D02*
X032072Y007484D01*
X032072Y007422D02*
X032072Y007546D01*
X032072Y007301D02*
X031702Y007054D01*
X031702Y006933D02*
X031702Y006686D01*
X031702Y006564D02*
X031948Y006317D01*
X032072Y006196D02*
X032072Y005949D01*
X032072Y006073D02*
X031702Y006073D01*
X031702Y006317D02*
X031948Y006564D01*
X031948Y006686D02*
X032072Y006809D01*
X031702Y006809D01*
X032782Y006763D02*
X032967Y006763D01*
X033028Y006701D01*
X033028Y006516D01*
X032782Y006516D01*
X032843Y006395D02*
X032967Y006395D01*
X032967Y006271D01*
X033090Y006148D02*
X033152Y006210D01*
X033152Y006333D01*
X033090Y006395D01*
X032843Y006395D02*
X032782Y006333D01*
X032782Y006210D01*
X032843Y006148D01*
X033090Y006148D01*
X032967Y006885D02*
X032843Y006885D01*
X032782Y006946D01*
X032782Y007131D01*
X033152Y007131D01*
X033028Y007131D02*
X033028Y006946D01*
X032967Y006885D01*
X032072Y008160D02*
X031702Y008160D01*
D12*
X003057Y018858D02*
X002630Y018858D01*
X002412Y018751D02*
X002199Y018538D01*
X001985Y018751D01*
X001985Y019178D01*
X001767Y018965D02*
X001661Y018965D01*
X001661Y018538D01*
X001767Y018538D02*
X001554Y018538D01*
X001338Y018538D02*
X001338Y018965D01*
X001018Y018965D01*
X000911Y018858D01*
X000911Y018538D01*
X001661Y019178D02*
X001661Y019285D01*
X001661Y019538D02*
X001661Y019965D01*
X001767Y019965D01*
X001661Y020178D02*
X001661Y020285D01*
X001985Y020178D02*
X001985Y019751D01*
X002199Y019538D01*
X002412Y019751D01*
X002412Y020178D01*
X002630Y019858D02*
X003057Y019858D01*
X002843Y019645D02*
X002843Y020072D01*
X002412Y019178D02*
X002412Y018751D01*
X001767Y019538D02*
X001554Y019538D01*
X001338Y019538D02*
X001338Y019965D01*
X001018Y019965D01*
X000911Y019858D01*
X000911Y019538D01*
D13*
X003462Y011633D03*
D14*
X001712Y010258D03*
D15*
X005087Y010258D03*
D16*
X003462Y008758D03*
D17*
X004237Y007658D02*
X004637Y007658D01*
X005837Y008858D01*
X005837Y011658D01*
X004637Y012858D01*
X004237Y012858D01*
X002437Y012858D02*
X000837Y012858D01*
X000837Y012558D01*
X000837Y008058D01*
X000837Y007658D01*
X002437Y007658D01*
X000837Y008058D02*
X000944Y008183D01*
X001044Y008313D01*
X001138Y008447D01*
X001226Y008586D01*
X001307Y008730D01*
X001380Y008877D01*
X001446Y009027D01*
X001505Y009180D01*
X001557Y009336D01*
X001600Y009495D01*
X001636Y009655D01*
X001664Y009817D01*
X001684Y009980D01*
X001696Y010144D01*
X001700Y010308D01*
X001696Y010472D01*
X001684Y010636D01*
X001664Y010799D01*
X001636Y010961D01*
X001600Y011121D01*
X001557Y011280D01*
X001505Y011436D01*
X001446Y011589D01*
X001380Y011739D01*
X001307Y011886D01*
X001226Y012030D01*
X001138Y012169D01*
X001044Y012303D01*
X000944Y012433D01*
X000837Y012558D01*
D18*
X002033Y013271D02*
X002340Y013271D01*
X002187Y013118D02*
X002187Y013424D01*
X004287Y010324D02*
X004287Y010018D01*
X003520Y009264D02*
X003213Y009264D01*
X003137Y009188D01*
X003137Y009034D01*
X003213Y008957D01*
X003520Y009264D01*
X003597Y009188D01*
X003597Y009034D01*
X003520Y008957D01*
X003213Y008957D01*
X003213Y008804D02*
X003137Y008727D01*
X003137Y008574D01*
X003213Y008497D01*
X003520Y008804D01*
X003213Y008804D01*
X003213Y008497D02*
X003520Y008497D01*
X003597Y008574D01*
X003597Y008727D01*
X003520Y008804D01*
X003137Y008344D02*
X003137Y008037D01*
X003137Y008190D02*
X003597Y008190D01*
X003443Y008037D01*
X003443Y007883D02*
X003367Y007806D01*
X003367Y007576D01*
X003597Y007576D02*
X003597Y007806D01*
X003520Y007883D01*
X003443Y007883D01*
X003367Y007806D02*
X003290Y007883D01*
X003213Y007883D01*
X003137Y007806D01*
X003137Y007576D01*
X003597Y007576D01*
X002340Y006971D02*
X002033Y006971D01*
X002187Y006818D02*
X002187Y007124D01*
M02*
