G75*
G70*
%OFA0B0*%
%FSLAX24Y24*%
%IPPOS*%
%LPD*%
%AMOC8*
5,1,8,0,0,1.08239X$1,22.5*
%
%ADD10C,0.0520*%
%ADD11R,0.0870X0.0240*%
%ADD12R,0.0512X0.0591*%
%ADD13R,0.0591X0.0157*%
%ADD14C,0.0600*%
%ADD15R,0.0630X0.0512*%
%ADD16R,0.0310X0.0350*%
%ADD17R,0.0591X0.0512*%
%ADD18R,0.0472X0.0472*%
%ADD19R,0.0709X0.0394*%
%ADD20R,0.0866X0.0984*%
%ADD21R,0.0787X0.0197*%
%ADD22R,0.0630X0.0460*%
%ADD23R,0.0748X0.0394*%
%ADD24R,0.2000X0.0700*%
%ADD25R,0.0512X0.0630*%
%ADD26C,0.0594*%
%ADD27R,0.0551X0.0551*%
%ADD28R,0.0350X0.0310*%
%ADD29R,0.0394X0.0591*%
%ADD30R,0.0394X0.0551*%
%ADD31R,0.0551X0.1181*%
%ADD32R,0.0591X0.0177*%
D10*
X013014Y012248D02*
X013014Y012768D01*
X014014Y012768D02*
X014014Y012248D01*
X015014Y012248D02*
X015014Y012768D01*
X016014Y012768D02*
X016014Y012248D01*
X017014Y012248D02*
X017014Y012768D01*
X018014Y012768D02*
X018014Y012248D01*
X019014Y012248D02*
X019014Y012768D01*
X020014Y012768D02*
X020014Y012248D01*
X021014Y012248D02*
X021014Y012768D01*
X022014Y012768D02*
X022014Y012248D01*
X023014Y012248D02*
X023014Y012768D01*
X024014Y012768D02*
X024014Y012248D01*
X025014Y012248D02*
X025014Y012768D01*
X026014Y012768D02*
X026014Y012248D01*
X027014Y012248D02*
X027014Y012768D01*
X028014Y012768D02*
X028014Y012248D01*
X029014Y012248D02*
X029014Y012768D01*
X030014Y012768D02*
X030014Y012248D01*
X031014Y012248D02*
X031014Y012768D01*
X032014Y012768D02*
X032014Y012248D01*
X032014Y018248D02*
X032014Y018768D01*
X031014Y018768D02*
X031014Y018248D01*
X030014Y018248D02*
X030014Y018768D01*
X029014Y018768D02*
X029014Y018248D01*
X028014Y018248D02*
X028014Y018768D01*
X027014Y018768D02*
X027014Y018248D01*
X026014Y018248D02*
X026014Y018768D01*
X025014Y018768D02*
X025014Y018248D01*
X024014Y018248D02*
X024014Y018768D01*
X023014Y018768D02*
X023014Y018248D01*
X022014Y018248D02*
X022014Y018768D01*
X021014Y018768D02*
X021014Y018248D01*
X020014Y018248D02*
X020014Y018768D01*
X019014Y018768D02*
X019014Y018248D01*
X018014Y018248D02*
X018014Y018768D01*
X017014Y018768D02*
X017014Y018248D01*
X016014Y018248D02*
X016014Y018768D01*
X015014Y018768D02*
X015014Y018248D01*
X014014Y018248D02*
X014014Y018768D01*
X013014Y018768D02*
X013014Y018248D01*
D11*
X018734Y009258D03*
X018734Y008758D03*
X018734Y008258D03*
X018734Y007758D03*
X020794Y007758D03*
X020794Y008258D03*
X020794Y008758D03*
X020794Y009258D03*
D12*
X022390Y008758D03*
X023138Y008758D03*
X023138Y007758D03*
X022390Y007758D03*
X010638Y008508D03*
X009890Y008508D03*
X008388Y008508D03*
X007640Y008508D03*
X009640Y014758D03*
X010388Y014758D03*
X034140Y019258D03*
X034888Y019258D03*
D13*
X029941Y010671D03*
X029941Y010415D03*
X029941Y010159D03*
X029941Y009904D03*
X029941Y009648D03*
X029941Y009392D03*
X029941Y009136D03*
X029941Y008880D03*
X029941Y008624D03*
X029941Y008368D03*
X029941Y008112D03*
X029941Y007856D03*
X029941Y007600D03*
X029941Y007344D03*
X027086Y007344D03*
X027086Y007600D03*
X027086Y007856D03*
X027086Y008112D03*
X027086Y008368D03*
X027086Y008624D03*
X027086Y008880D03*
X027086Y009136D03*
X027086Y009392D03*
X027086Y009648D03*
X027086Y009904D03*
X027086Y010159D03*
X027086Y010415D03*
X027086Y010671D03*
D14*
X028014Y005558D02*
X028014Y004958D01*
X029014Y004958D02*
X029014Y005558D01*
X030014Y005558D02*
X030014Y004958D01*
X031014Y004958D02*
X031014Y005558D01*
X032014Y005558D02*
X032014Y004958D01*
X033014Y004958D02*
X033014Y005558D01*
X034014Y005558D02*
X034014Y004958D01*
X035014Y004958D02*
X035014Y005558D01*
X035014Y002558D02*
X035014Y001958D01*
X034014Y001958D02*
X034014Y002558D01*
X033014Y002558D02*
X033014Y001958D01*
X032014Y001958D02*
X032014Y002558D01*
X031014Y002558D02*
X031014Y001958D01*
X030014Y001958D02*
X030014Y002558D01*
X029014Y002558D02*
X029014Y001958D01*
X028014Y001958D02*
X028014Y002558D01*
X026014Y002558D02*
X026014Y001958D01*
X025014Y001958D02*
X025014Y002558D01*
X024014Y002558D02*
X024014Y001958D01*
X023014Y001958D02*
X023014Y002558D01*
X022014Y002558D02*
X022014Y001958D01*
X021014Y001958D02*
X021014Y002558D01*
X020014Y002558D02*
X020014Y001958D01*
X019014Y001958D02*
X019014Y002558D01*
X017014Y002558D02*
X017014Y001958D01*
X016014Y001958D02*
X016014Y002558D01*
X015014Y002558D02*
X015014Y001958D01*
X014014Y001958D02*
X014014Y002558D01*
X013014Y002558D02*
X013014Y001958D01*
X012014Y001958D02*
X012014Y002558D01*
X011014Y002558D02*
X011014Y001958D01*
X010014Y001958D02*
X010014Y002558D01*
X010014Y004958D02*
X010014Y005558D01*
X011014Y005558D02*
X011014Y004958D01*
X012014Y004958D02*
X012014Y005558D01*
X013014Y005558D02*
X013014Y004958D01*
X014014Y004958D02*
X014014Y005558D01*
X015014Y005558D02*
X015014Y004958D01*
X016014Y004958D02*
X016014Y005558D01*
X017014Y005558D02*
X017014Y004958D01*
X019014Y004958D02*
X019014Y005558D01*
X020014Y005558D02*
X020014Y004958D01*
X021014Y004958D02*
X021014Y005558D01*
X022014Y005558D02*
X022014Y004958D01*
X023014Y004958D02*
X023014Y005558D01*
X024014Y005558D02*
X024014Y004958D01*
X025014Y004958D02*
X025014Y005558D01*
X026014Y005558D02*
X026014Y004958D01*
X036864Y012258D02*
X037464Y012258D01*
X037464Y013258D02*
X036864Y013258D01*
X035014Y020958D02*
X035014Y021558D01*
X034014Y021558D02*
X034014Y020958D01*
X033014Y020958D02*
X033014Y021558D01*
X032014Y021558D02*
X032014Y020958D01*
X031014Y020958D02*
X031014Y021558D01*
X030014Y021558D02*
X030014Y020958D01*
X029014Y020958D02*
X029014Y021558D01*
X028014Y021558D02*
X028014Y020958D01*
X026014Y020958D02*
X026014Y021558D01*
X025014Y021558D02*
X025014Y020958D01*
X024014Y020958D02*
X024014Y021558D01*
X023014Y021558D02*
X023014Y020958D01*
X022014Y020958D02*
X022014Y021558D01*
X021014Y021558D02*
X021014Y020958D01*
X020014Y020958D02*
X020014Y021558D01*
X019014Y021558D02*
X019014Y020958D01*
X017014Y020958D02*
X017014Y021558D01*
X016014Y021558D02*
X016014Y020958D01*
X015014Y020958D02*
X015014Y021558D01*
X014014Y021558D02*
X014014Y020958D01*
X013014Y020958D02*
X013014Y021558D01*
X012014Y021558D02*
X012014Y020958D01*
X011014Y020958D02*
X011014Y021558D01*
X010014Y021558D02*
X010014Y020958D01*
X008014Y017558D02*
X008014Y016958D01*
X007014Y016958D02*
X007014Y017558D01*
X006014Y017558D02*
X006014Y016958D01*
X005014Y016958D02*
X005014Y017558D01*
X004014Y017558D02*
X004014Y016958D01*
X004014Y005558D02*
X004014Y004958D01*
X005014Y004958D02*
X005014Y005558D01*
X006014Y005558D02*
X006014Y004958D01*
X007014Y004958D02*
X007014Y005558D01*
X008014Y005558D02*
X008014Y004958D01*
D15*
X008384Y013374D03*
X008384Y014162D03*
X005824Y014062D03*
X005824Y013274D03*
X026014Y009902D03*
X026014Y009114D03*
X031514Y009364D03*
X031514Y010152D03*
X034264Y012614D03*
X034264Y013402D03*
D16*
X011384Y011608D03*
X010624Y011608D03*
X011004Y012408D03*
X010024Y012858D03*
X010404Y013658D03*
X009644Y013658D03*
X008634Y015358D03*
X007874Y015358D03*
X008254Y016158D03*
X006384Y015358D03*
X005624Y015358D03*
X006004Y016158D03*
D17*
X004014Y012882D03*
X004014Y012134D03*
X004014Y011132D03*
X004014Y010384D03*
X005264Y010132D03*
X005264Y009384D03*
X006264Y009384D03*
X006264Y010132D03*
X004014Y009382D03*
X004014Y008634D03*
X009264Y011134D03*
X009264Y011882D03*
X012014Y009382D03*
X012014Y008634D03*
X014014Y008632D03*
X014014Y007884D03*
X015264Y007884D03*
X015264Y008632D03*
X024764Y009884D03*
X024764Y010632D03*
X033764Y010182D03*
X033764Y009434D03*
X036264Y007532D03*
X037114Y007532D03*
X037114Y006784D03*
X036264Y006784D03*
X033764Y014384D03*
X033764Y015132D03*
X033744Y016304D03*
X033744Y017052D03*
D18*
X035850Y019258D03*
X036677Y019258D03*
X036214Y005771D03*
X037214Y005771D03*
X037214Y004944D03*
X036214Y004944D03*
D19*
X017364Y008774D03*
X017364Y009758D03*
D20*
X035226Y014604D03*
X037313Y014604D03*
X037313Y017911D03*
X035226Y017911D03*
D21*
X035128Y016888D03*
X035128Y016573D03*
X035128Y016258D03*
X035128Y015943D03*
X035128Y015628D03*
D22*
X035514Y013308D03*
X035514Y012708D03*
D23*
X034911Y010345D03*
X037116Y010345D03*
X037116Y008731D03*
X034911Y008770D03*
D24*
X028914Y015108D03*
X025114Y015108D03*
D25*
X004620Y003758D03*
X005407Y003758D03*
X022620Y011158D03*
X023407Y011158D03*
X025370Y016858D03*
X026157Y016858D03*
X028120Y016858D03*
X028907Y016858D03*
D26*
X008253Y018892D02*
X007660Y018892D01*
X006285Y018892D02*
X005691Y018892D01*
X005691Y019876D02*
X006285Y019876D01*
X007660Y019876D02*
X008253Y019876D01*
D27*
X004514Y015586D03*
X004514Y014090D03*
X019266Y011008D03*
X019266Y010258D03*
X020762Y010258D03*
X020762Y011008D03*
D28*
X010584Y010138D03*
X009784Y009758D03*
X010584Y009378D03*
X008414Y009368D03*
X007614Y009748D03*
X008414Y010128D03*
X007614Y011138D03*
X008414Y011518D03*
X007614Y011898D03*
D29*
X007764Y003810D03*
X008748Y003810D03*
X006779Y003810D03*
X006779Y001606D03*
X007764Y001606D03*
X008748Y001606D03*
D30*
X007528Y013395D03*
X006780Y013395D03*
X007154Y014261D03*
D31*
X010344Y016353D03*
X010344Y018243D03*
D32*
X006504Y011902D03*
X006504Y011646D03*
X006504Y011390D03*
X006504Y011134D03*
X005363Y011134D03*
X005363Y011390D03*
X005363Y011646D03*
X005363Y011902D03*
M02*
