G75*
G70*
%OFA0B0*%
%FSLAX24Y24*%
%IPPOS*%
%LPD*%
%AMOC8*
5,1,8,0,0,1.08239X$1,22.5*
%
%ADD10C,0.1330*%
%ADD11C,0.0600*%
%ADD12R,0.0950X0.0320*%
%ADD13R,0.0592X0.0671*%
%ADD14R,0.0671X0.0237*%
%ADD15C,0.0680*%
%ADD16R,0.0710X0.0592*%
%ADD17R,0.0390X0.0430*%
%ADD18R,0.0671X0.0592*%
%ADD19R,0.0552X0.0552*%
%ADD20R,0.0789X0.0474*%
%ADD21R,0.0946X0.1064*%
%ADD22C,0.0434*%
%ADD23R,0.0867X0.0277*%
%ADD24R,0.0710X0.0540*%
%ADD25R,0.0720X0.0060*%
%ADD26R,0.0828X0.0474*%
%ADD27R,0.2080X0.0780*%
%ADD28R,0.0592X0.0710*%
%ADD29C,0.0674*%
%ADD30R,0.0631X0.0631*%
%ADD31R,0.0430X0.0390*%
%ADD32C,0.0480*%
%ADD33R,0.0474X0.0671*%
%ADD34R,0.0474X0.0631*%
%ADD35R,0.0631X0.1261*%
%ADD36R,0.0671X0.0257*%
%ADD37C,0.0390*%
D10*
X004014Y002008D03*
X037014Y002008D03*
X037014Y021508D03*
X004014Y021508D03*
D11*
X013014Y018768D02*
X013014Y018248D01*
X014014Y018248D02*
X014014Y018768D01*
X015014Y018768D02*
X015014Y018248D01*
X016014Y018248D02*
X016014Y018768D01*
X017014Y018768D02*
X017014Y018248D01*
X018014Y018248D02*
X018014Y018768D01*
X019014Y018768D02*
X019014Y018248D01*
X020014Y018248D02*
X020014Y018768D01*
X021014Y018768D02*
X021014Y018248D01*
X022014Y018248D02*
X022014Y018768D01*
X023014Y018768D02*
X023014Y018248D01*
X024014Y018248D02*
X024014Y018768D01*
X025014Y018768D02*
X025014Y018248D01*
X026014Y018248D02*
X026014Y018768D01*
X027014Y018768D02*
X027014Y018248D01*
X028014Y018248D02*
X028014Y018768D01*
X029014Y018768D02*
X029014Y018248D01*
X030014Y018248D02*
X030014Y018768D01*
X031014Y018768D02*
X031014Y018248D01*
X032014Y018248D02*
X032014Y018768D01*
X032014Y012768D02*
X032014Y012248D01*
X031014Y012248D02*
X031014Y012768D01*
X030014Y012768D02*
X030014Y012248D01*
X029014Y012248D02*
X029014Y012768D01*
X028014Y012768D02*
X028014Y012248D01*
X027014Y012248D02*
X027014Y012768D01*
X026014Y012768D02*
X026014Y012248D01*
X025014Y012248D02*
X025014Y012768D01*
X024014Y012768D02*
X024014Y012248D01*
X023014Y012248D02*
X023014Y012768D01*
X022014Y012768D02*
X022014Y012248D01*
X021014Y012248D02*
X021014Y012768D01*
X020014Y012768D02*
X020014Y012248D01*
X019014Y012248D02*
X019014Y012768D01*
X018014Y012768D02*
X018014Y012248D01*
X017014Y012248D02*
X017014Y012768D01*
X016014Y012768D02*
X016014Y012248D01*
X015014Y012248D02*
X015014Y012768D01*
X014014Y012768D02*
X014014Y012248D01*
X013014Y012248D02*
X013014Y012768D01*
D12*
X018734Y009258D03*
X018734Y008758D03*
X018734Y008258D03*
X018734Y007758D03*
X020794Y007758D03*
X020794Y008258D03*
X020794Y008758D03*
X020794Y009258D03*
D13*
X022390Y008758D03*
X023138Y008758D03*
X023138Y007758D03*
X022390Y007758D03*
X010638Y008508D03*
X009890Y008508D03*
X008388Y008508D03*
X007640Y008508D03*
X009640Y014758D03*
X010388Y014758D03*
X034140Y019258D03*
X034888Y019258D03*
D14*
X029941Y010671D03*
X029941Y010415D03*
X029941Y010159D03*
X029941Y009904D03*
X029941Y009648D03*
X029941Y009392D03*
X029941Y009136D03*
X029941Y008880D03*
X029941Y008624D03*
X029941Y008368D03*
X029941Y008112D03*
X029941Y007856D03*
X029941Y007600D03*
X029941Y007344D03*
X027086Y007344D03*
X027086Y007600D03*
X027086Y007856D03*
X027086Y008112D03*
X027086Y008368D03*
X027086Y008624D03*
X027086Y008880D03*
X027086Y009136D03*
X027086Y009392D03*
X027086Y009648D03*
X027086Y009904D03*
X027086Y010159D03*
X027086Y010415D03*
X027086Y010671D03*
D15*
X028014Y005558D02*
X028014Y004958D01*
X029014Y004958D02*
X029014Y005558D01*
X030014Y005558D02*
X030014Y004958D01*
X031014Y004958D02*
X031014Y005558D01*
X032014Y005558D02*
X032014Y004958D01*
X033014Y004958D02*
X033014Y005558D01*
X034014Y005558D02*
X034014Y004958D01*
X035014Y004958D02*
X035014Y005558D01*
X035014Y002558D02*
X035014Y001958D01*
X034014Y001958D02*
X034014Y002558D01*
X033014Y002558D02*
X033014Y001958D01*
X032014Y001958D02*
X032014Y002558D01*
X031014Y002558D02*
X031014Y001958D01*
X030014Y001958D02*
X030014Y002558D01*
X029014Y002558D02*
X029014Y001958D01*
X028014Y001958D02*
X028014Y002558D01*
X026014Y002558D02*
X026014Y001958D01*
X025014Y001958D02*
X025014Y002558D01*
X024014Y002558D02*
X024014Y001958D01*
X023014Y001958D02*
X023014Y002558D01*
X022014Y002558D02*
X022014Y001958D01*
X021014Y001958D02*
X021014Y002558D01*
X020014Y002558D02*
X020014Y001958D01*
X019014Y001958D02*
X019014Y002558D01*
X017014Y002558D02*
X017014Y001958D01*
X016014Y001958D02*
X016014Y002558D01*
X015014Y002558D02*
X015014Y001958D01*
X014014Y001958D02*
X014014Y002558D01*
X013014Y002558D02*
X013014Y001958D01*
X012014Y001958D02*
X012014Y002558D01*
X011014Y002558D02*
X011014Y001958D01*
X010014Y001958D02*
X010014Y002558D01*
X010014Y004958D02*
X010014Y005558D01*
X011014Y005558D02*
X011014Y004958D01*
X012014Y004958D02*
X012014Y005558D01*
X013014Y005558D02*
X013014Y004958D01*
X014014Y004958D02*
X014014Y005558D01*
X015014Y005558D02*
X015014Y004958D01*
X016014Y004958D02*
X016014Y005558D01*
X017014Y005558D02*
X017014Y004958D01*
X019014Y004958D02*
X019014Y005558D01*
X020014Y005558D02*
X020014Y004958D01*
X021014Y004958D02*
X021014Y005558D01*
X022014Y005558D02*
X022014Y004958D01*
X023014Y004958D02*
X023014Y005558D01*
X024014Y005558D02*
X024014Y004958D01*
X025014Y004958D02*
X025014Y005558D01*
X026014Y005558D02*
X026014Y004958D01*
X036864Y012258D02*
X037464Y012258D01*
X037464Y013258D02*
X036864Y013258D01*
X035014Y020958D02*
X035014Y021558D01*
X034014Y021558D02*
X034014Y020958D01*
X033014Y020958D02*
X033014Y021558D01*
X032014Y021558D02*
X032014Y020958D01*
X031014Y020958D02*
X031014Y021558D01*
X030014Y021558D02*
X030014Y020958D01*
X029014Y020958D02*
X029014Y021558D01*
X028014Y021558D02*
X028014Y020958D01*
X026014Y020958D02*
X026014Y021558D01*
X025014Y021558D02*
X025014Y020958D01*
X024014Y020958D02*
X024014Y021558D01*
X023014Y021558D02*
X023014Y020958D01*
X022014Y020958D02*
X022014Y021558D01*
X021014Y021558D02*
X021014Y020958D01*
X020014Y020958D02*
X020014Y021558D01*
X019014Y021558D02*
X019014Y020958D01*
X017014Y020958D02*
X017014Y021558D01*
X016014Y021558D02*
X016014Y020958D01*
X015014Y020958D02*
X015014Y021558D01*
X014014Y021558D02*
X014014Y020958D01*
X013014Y020958D02*
X013014Y021558D01*
X012014Y021558D02*
X012014Y020958D01*
X011014Y020958D02*
X011014Y021558D01*
X010014Y021558D02*
X010014Y020958D01*
X008014Y017558D02*
X008014Y016958D01*
X007014Y016958D02*
X007014Y017558D01*
X006014Y017558D02*
X006014Y016958D01*
X005014Y016958D02*
X005014Y017558D01*
X004014Y017558D02*
X004014Y016958D01*
X004014Y005558D02*
X004014Y004958D01*
X005014Y004958D02*
X005014Y005558D01*
X006014Y005558D02*
X006014Y004958D01*
X007014Y004958D02*
X007014Y005558D01*
X008014Y005558D02*
X008014Y004958D01*
D16*
X008384Y013374D03*
X008384Y014162D03*
X005824Y014062D03*
X005824Y013274D03*
X026014Y009902D03*
X026014Y009114D03*
X031514Y009364D03*
X031514Y010152D03*
X034264Y012614D03*
X034264Y013402D03*
D17*
X011384Y011608D03*
X010624Y011608D03*
X011004Y012408D03*
X010024Y012858D03*
X010404Y013658D03*
X009644Y013658D03*
X008634Y015358D03*
X007874Y015358D03*
X008254Y016158D03*
X006384Y015358D03*
X005624Y015358D03*
X006004Y016158D03*
D18*
X004014Y012882D03*
X004014Y012134D03*
X004014Y011132D03*
X004014Y010384D03*
X005264Y010132D03*
X005264Y009384D03*
X006264Y009384D03*
X006264Y010132D03*
X004014Y009382D03*
X004014Y008634D03*
X009264Y011134D03*
X009264Y011882D03*
X012014Y009382D03*
X012014Y008634D03*
X014014Y008632D03*
X014014Y007884D03*
X015264Y007884D03*
X015264Y008632D03*
X024764Y009884D03*
X024764Y010632D03*
X033764Y010182D03*
X033764Y009434D03*
X036264Y007532D03*
X037114Y007532D03*
X037114Y006784D03*
X036264Y006784D03*
X033764Y014384D03*
X033764Y015132D03*
X033744Y016304D03*
X033744Y017052D03*
D19*
X035850Y019258D03*
X036677Y019258D03*
X036214Y005771D03*
X037214Y005771D03*
X037214Y004944D03*
X036214Y004944D03*
D20*
X017364Y008774D03*
X017364Y009758D03*
D21*
X035226Y014604D03*
X037313Y014604D03*
X037313Y017911D03*
X035226Y017911D03*
D22*
X036014Y016947D03*
X036014Y015569D03*
D23*
X035128Y015628D03*
X035128Y015943D03*
X035128Y016258D03*
X035128Y016573D03*
X035128Y016888D03*
D24*
X035514Y013308D03*
X035514Y012708D03*
D25*
X035514Y013008D03*
D26*
X034911Y010345D03*
X037116Y010345D03*
X037116Y008731D03*
X034911Y008770D03*
D27*
X028914Y015108D03*
X025114Y015108D03*
D28*
X025370Y016858D03*
X026157Y016858D03*
X028120Y016858D03*
X028907Y016858D03*
X023407Y011158D03*
X022620Y011158D03*
X005407Y003758D03*
X004620Y003758D03*
D29*
X005691Y018892D02*
X006285Y018892D01*
X007660Y018892D02*
X008253Y018892D01*
X008253Y019876D02*
X007660Y019876D01*
X006285Y019876D02*
X005691Y019876D01*
D30*
X004514Y015586D03*
X004514Y014090D03*
X019266Y011008D03*
X019266Y010258D03*
X020762Y010258D03*
X020762Y011008D03*
D31*
X010584Y010138D03*
X009784Y009758D03*
X010584Y009378D03*
X008414Y009368D03*
X007614Y009748D03*
X008414Y010128D03*
X007614Y011138D03*
X008414Y011518D03*
X007614Y011898D03*
D32*
X007173Y002708D03*
X008354Y002708D03*
D33*
X008748Y001606D03*
X007764Y001606D03*
X006779Y001606D03*
X006779Y003810D03*
X007764Y003810D03*
X008748Y003810D03*
D34*
X007528Y013395D03*
X006780Y013395D03*
X007154Y014261D03*
D35*
X010344Y016353D03*
X010344Y018243D03*
D36*
X006504Y011902D03*
X006504Y011646D03*
X006504Y011390D03*
X006504Y011134D03*
X005363Y011134D03*
X005363Y011390D03*
X005363Y011646D03*
X005363Y011902D03*
D37*
X004734Y011448D03*
X006814Y010288D03*
X007094Y010888D03*
X007774Y010608D03*
X007134Y011408D03*
X008714Y012088D03*
X009114Y012648D03*
X009554Y012648D03*
X011494Y012188D03*
X012194Y012148D03*
X011534Y010948D03*
X011134Y010248D03*
X011214Y009328D03*
X013094Y008248D03*
X013294Y008648D03*
X013974Y009168D03*
X011974Y008088D03*
X011974Y007688D03*
X012974Y007648D03*
X013874Y006848D03*
X012914Y006688D03*
X011954Y006528D03*
X011154Y006208D03*
X009854Y007568D03*
X007634Y007388D03*
X006454Y008208D03*
X006774Y008888D03*
X006794Y009748D03*
X008734Y009728D03*
X009474Y010468D03*
X006734Y012808D03*
X007914Y014608D03*
X008374Y014688D03*
X007214Y015328D03*
X007214Y016168D03*
X011054Y015648D03*
X017494Y016928D03*
X018534Y016928D03*
X019534Y016808D03*
X020534Y016968D03*
X023174Y013808D03*
X022534Y011888D03*
X021694Y010608D03*
X022174Y010328D03*
X020094Y011068D03*
X018554Y010248D03*
X016294Y010088D03*
X015574Y011248D03*
X019574Y008538D03*
X019894Y007688D03*
X020994Y006608D03*
X021954Y006768D03*
X022914Y006928D03*
X023954Y007088D03*
X024394Y007528D03*
X024884Y007248D03*
X025674Y006008D03*
X024884Y004248D03*
X023954Y004088D03*
X022914Y003928D03*
X021954Y003768D03*
X020994Y003608D03*
X019954Y003288D03*
X019494Y004448D03*
X019954Y006288D03*
X021694Y007728D03*
X021694Y008328D03*
X026554Y009488D03*
X027734Y010428D03*
X028294Y009428D03*
X029014Y009428D03*
X030494Y009128D03*
X030774Y009488D03*
X032134Y009448D03*
X032314Y010288D03*
X033294Y010608D03*
X034354Y009428D03*
X032334Y008568D03*
X031614Y008248D03*
X033014Y008088D03*
X033954Y007328D03*
X032914Y007168D03*
X031874Y007008D03*
X030914Y006848D03*
X029954Y006688D03*
X028914Y006368D03*
X028174Y007868D03*
X032914Y004168D03*
X033954Y004328D03*
X035614Y004568D03*
X036734Y004248D03*
X031874Y004008D03*
X030914Y003848D03*
X029954Y003688D03*
X028914Y003368D03*
X016594Y003088D03*
X014914Y004008D03*
X015954Y004168D03*
X013874Y003848D03*
X012914Y003688D03*
X011954Y003528D03*
X011154Y003208D03*
X014914Y007008D03*
X015954Y007168D03*
X016594Y007568D03*
X004654Y009208D03*
X004014Y009888D03*
X004574Y004368D03*
X030134Y017088D03*
X033174Y017088D03*
X034414Y016368D03*
X034454Y015968D03*
X033454Y019128D03*
M02*
