G75*
G70*
%OFA0B0*%
%FSLAX24Y24*%
%IPPOS*%
%LPD*%
%AMOC8*
5,1,8,0,0,1.08239X$1,22.5*
%
%ADD10C,0.0520*%
%ADD11R,0.0870X0.0240*%
%ADD12R,0.0512X0.0591*%
%ADD13R,0.0591X0.0157*%
%ADD14C,0.0600*%
%ADD15R,0.0310X0.0350*%
%ADD16R,0.0591X0.0512*%
%ADD17R,0.0472X0.0472*%
%ADD18R,0.0709X0.0394*%
%ADD19R,0.0866X0.0984*%
%ADD20R,0.0787X0.0197*%
%ADD21R,0.0630X0.0512*%
%ADD22R,0.0630X0.0460*%
%ADD23R,0.0748X0.0394*%
%ADD24R,0.2000X0.0700*%
%ADD25R,0.0512X0.0630*%
%ADD26C,0.0594*%
%ADD27R,0.0551X0.0551*%
%ADD28R,0.0350X0.0310*%
%ADD29R,0.0394X0.0591*%
%ADD30R,0.0551X0.1181*%
%ADD31R,0.0394X0.0551*%
D10*
X010837Y012248D02*
X010837Y012768D01*
X011837Y012768D02*
X011837Y012248D01*
X012837Y012248D02*
X012837Y012768D01*
X013837Y012768D02*
X013837Y012248D01*
X014837Y012248D02*
X014837Y012768D01*
X015837Y012768D02*
X015837Y012248D01*
X016837Y012248D02*
X016837Y012768D01*
X017837Y012768D02*
X017837Y012248D01*
X018837Y012248D02*
X018837Y012768D01*
X019837Y012768D02*
X019837Y012248D01*
X020837Y012248D02*
X020837Y012768D01*
X021837Y012768D02*
X021837Y012248D01*
X022837Y012248D02*
X022837Y012768D01*
X023837Y012768D02*
X023837Y012248D01*
X024837Y012248D02*
X024837Y012768D01*
X025837Y012768D02*
X025837Y012248D01*
X026837Y012248D02*
X026837Y012768D01*
X027837Y012768D02*
X027837Y012248D01*
X028837Y012248D02*
X028837Y012768D01*
X029837Y012768D02*
X029837Y012248D01*
X029837Y018248D02*
X029837Y018768D01*
X028837Y018768D02*
X028837Y018248D01*
X027837Y018248D02*
X027837Y018768D01*
X026837Y018768D02*
X026837Y018248D01*
X025837Y018248D02*
X025837Y018768D01*
X024837Y018768D02*
X024837Y018248D01*
X023837Y018248D02*
X023837Y018768D01*
X022837Y018768D02*
X022837Y018248D01*
X021837Y018248D02*
X021837Y018768D01*
X020837Y018768D02*
X020837Y018248D01*
X019837Y018248D02*
X019837Y018768D01*
X018837Y018768D02*
X018837Y018248D01*
X017837Y018248D02*
X017837Y018768D01*
X016837Y018768D02*
X016837Y018248D01*
X015837Y018248D02*
X015837Y018768D01*
X014837Y018768D02*
X014837Y018248D01*
X013837Y018248D02*
X013837Y018768D01*
X012837Y018768D02*
X012837Y018248D01*
X011837Y018248D02*
X011837Y018768D01*
X010837Y018768D02*
X010837Y018248D01*
D11*
X004927Y013398D03*
X004927Y012898D03*
X004927Y012398D03*
X004927Y011898D03*
X004927Y011018D03*
X004927Y010518D03*
X004927Y010018D03*
X004927Y009518D03*
X002867Y009518D03*
X002867Y010018D03*
X002867Y010518D03*
X002867Y011018D03*
X002867Y011898D03*
X002867Y012398D03*
X002867Y012898D03*
X002867Y013398D03*
X016557Y009258D03*
X016557Y008758D03*
X016557Y008258D03*
X016557Y007758D03*
X018617Y007758D03*
X018617Y008258D03*
X018617Y008758D03*
X018617Y009258D03*
D12*
X020213Y008758D03*
X020961Y008758D03*
X020961Y007758D03*
X020213Y007758D03*
X009461Y012508D03*
X008713Y012508D03*
X006711Y012258D03*
X005963Y012258D03*
X005963Y011508D03*
X006711Y011508D03*
X005461Y014258D03*
X004713Y014258D03*
X003711Y014508D03*
X002963Y014508D03*
X002863Y008838D03*
X003611Y008838D03*
X006393Y007008D03*
X007141Y007008D03*
X031963Y019258D03*
X032711Y019258D03*
D13*
X027764Y010671D03*
X027764Y010415D03*
X027764Y010159D03*
X027764Y009904D03*
X027764Y009648D03*
X027764Y009392D03*
X027764Y009136D03*
X027764Y008880D03*
X027764Y008624D03*
X027764Y008368D03*
X027764Y008112D03*
X027764Y007856D03*
X027764Y007600D03*
X027764Y007344D03*
X024909Y007344D03*
X024909Y007600D03*
X024909Y007856D03*
X024909Y008112D03*
X024909Y008368D03*
X024909Y008624D03*
X024909Y008880D03*
X024909Y009136D03*
X024909Y009392D03*
X024909Y009648D03*
X024909Y009904D03*
X024909Y010159D03*
X024909Y010415D03*
X024909Y010671D03*
D14*
X025837Y005558D02*
X025837Y004958D01*
X026837Y004958D02*
X026837Y005558D01*
X027837Y005558D02*
X027837Y004958D01*
X028837Y004958D02*
X028837Y005558D01*
X029837Y005558D02*
X029837Y004958D01*
X030837Y004958D02*
X030837Y005558D01*
X031837Y005558D02*
X031837Y004958D01*
X032837Y004958D02*
X032837Y005558D01*
X032837Y002558D02*
X032837Y001958D01*
X031837Y001958D02*
X031837Y002558D01*
X030837Y002558D02*
X030837Y001958D01*
X029837Y001958D02*
X029837Y002558D01*
X028837Y002558D02*
X028837Y001958D01*
X027837Y001958D02*
X027837Y002558D01*
X026837Y002558D02*
X026837Y001958D01*
X025837Y001958D02*
X025837Y002558D01*
X023837Y002558D02*
X023837Y001958D01*
X022837Y001958D02*
X022837Y002558D01*
X021837Y002558D02*
X021837Y001958D01*
X020837Y001958D02*
X020837Y002558D01*
X019837Y002558D02*
X019837Y001958D01*
X018837Y001958D02*
X018837Y002558D01*
X017837Y002558D02*
X017837Y001958D01*
X016837Y001958D02*
X016837Y002558D01*
X014837Y002558D02*
X014837Y001958D01*
X013837Y001958D02*
X013837Y002558D01*
X012837Y002558D02*
X012837Y001958D01*
X011837Y001958D02*
X011837Y002558D01*
X010837Y002558D02*
X010837Y001958D01*
X009837Y001958D02*
X009837Y002558D01*
X008837Y002558D02*
X008837Y001958D01*
X007837Y001958D02*
X007837Y002558D01*
X007837Y004958D02*
X007837Y005558D01*
X008837Y005558D02*
X008837Y004958D01*
X009837Y004958D02*
X009837Y005558D01*
X010837Y005558D02*
X010837Y004958D01*
X011837Y004958D02*
X011837Y005558D01*
X012837Y005558D02*
X012837Y004958D01*
X013837Y004958D02*
X013837Y005558D01*
X014837Y005558D02*
X014837Y004958D01*
X016837Y004958D02*
X016837Y005558D01*
X017837Y005558D02*
X017837Y004958D01*
X018837Y004958D02*
X018837Y005558D01*
X019837Y005558D02*
X019837Y004958D01*
X020837Y004958D02*
X020837Y005558D01*
X021837Y005558D02*
X021837Y004958D01*
X022837Y004958D02*
X022837Y005558D01*
X023837Y005558D02*
X023837Y004958D01*
X034687Y011558D02*
X035287Y011558D01*
X035287Y012558D02*
X034687Y012558D01*
X034687Y013558D02*
X035287Y013558D01*
X032837Y020958D02*
X032837Y021558D01*
X031837Y021558D02*
X031837Y020958D01*
X030837Y020958D02*
X030837Y021558D01*
X029837Y021558D02*
X029837Y020958D01*
X028837Y020958D02*
X028837Y021558D01*
X027837Y021558D02*
X027837Y020958D01*
X026837Y020958D02*
X026837Y021558D01*
X025837Y021558D02*
X025837Y020958D01*
X023837Y020958D02*
X023837Y021558D01*
X022837Y021558D02*
X022837Y020958D01*
X021837Y020958D02*
X021837Y021558D01*
X020837Y021558D02*
X020837Y020958D01*
X019837Y020958D02*
X019837Y021558D01*
X018837Y021558D02*
X018837Y020958D01*
X017837Y020958D02*
X017837Y021558D01*
X016837Y021558D02*
X016837Y020958D01*
X014837Y020958D02*
X014837Y021558D01*
X013837Y021558D02*
X013837Y020958D01*
X012837Y020958D02*
X012837Y021558D01*
X011837Y021558D02*
X011837Y020958D01*
X010837Y020958D02*
X010837Y021558D01*
X009837Y021558D02*
X009837Y020958D01*
X008837Y020958D02*
X008837Y021558D01*
X007837Y021558D02*
X007837Y020958D01*
X005837Y017558D02*
X005837Y016958D01*
X004837Y016958D02*
X004837Y017558D01*
X003837Y017558D02*
X003837Y016958D01*
X002837Y016958D02*
X002837Y017558D01*
X001837Y017558D02*
X001837Y016958D01*
X001837Y005558D02*
X001837Y004958D01*
X002837Y004958D02*
X002837Y005558D01*
X003837Y005558D02*
X003837Y004958D01*
X004837Y004958D02*
X004837Y005558D01*
X005837Y005558D02*
X005837Y004958D01*
D15*
X008697Y013108D03*
X009457Y013108D03*
X009077Y013908D03*
X006457Y015358D03*
X005697Y015358D03*
X006077Y016158D03*
X004707Y015358D03*
X003947Y015358D03*
X004327Y016158D03*
D16*
X006337Y014382D03*
X007507Y015254D03*
X007507Y016002D03*
X006337Y013634D03*
X010087Y011382D03*
X010087Y010634D03*
X009837Y009632D03*
X009837Y008884D03*
X011837Y008632D03*
X011837Y007884D03*
X013087Y007884D03*
X013087Y008632D03*
X007587Y009884D03*
X007587Y010632D03*
X001837Y010632D03*
X001837Y009884D03*
X001837Y008882D03*
X001837Y008134D03*
X001837Y011884D03*
X001837Y012632D03*
X001837Y013634D03*
X001837Y014382D03*
X022587Y010632D03*
X022587Y009884D03*
X031587Y010182D03*
X031587Y009434D03*
X034087Y007532D03*
X034937Y007532D03*
X034937Y006784D03*
X034087Y006784D03*
X031587Y014384D03*
X031587Y015132D03*
X031567Y016304D03*
X031567Y017052D03*
D17*
X033673Y019258D03*
X034500Y019258D03*
X034037Y005771D03*
X035037Y005771D03*
X035037Y004944D03*
X034037Y004944D03*
D18*
X015187Y008774D03*
X015187Y009758D03*
D19*
X033049Y014604D03*
X035136Y014604D03*
X035136Y017911D03*
X033049Y017911D03*
D20*
X032951Y016888D03*
X032951Y016573D03*
X032951Y016258D03*
X032951Y015943D03*
X032951Y015628D03*
D21*
X032087Y013402D03*
X032087Y012614D03*
X029337Y010152D03*
X029337Y009364D03*
X023837Y009114D03*
X023837Y009902D03*
D22*
X033337Y012708D03*
X033337Y013308D03*
D23*
X032734Y010345D03*
X034939Y010345D03*
X034939Y008731D03*
X032734Y008770D03*
D24*
X026737Y015108D03*
X022937Y015108D03*
D25*
X023193Y016858D03*
X023980Y016858D03*
X025943Y016858D03*
X026730Y016858D03*
X021230Y011158D03*
X020443Y011158D03*
X003230Y003758D03*
X002443Y003758D03*
D26*
X003514Y018892D02*
X004108Y018892D01*
X005483Y018892D02*
X006076Y018892D01*
X006076Y019876D02*
X005483Y019876D01*
X004108Y019876D02*
X003514Y019876D01*
D27*
X003789Y021668D03*
X005285Y021668D03*
X003165Y016258D03*
X001669Y016258D03*
X008447Y016116D03*
X008447Y014620D03*
X017089Y011008D03*
X017089Y010258D03*
X018585Y010258D03*
X018585Y011008D03*
D28*
X008657Y008638D03*
X007857Y008258D03*
X007167Y008628D03*
X006367Y008248D03*
X007167Y007868D03*
X008657Y007878D03*
X005507Y007998D03*
X004707Y007618D03*
X005507Y007238D03*
X007187Y013138D03*
X007987Y013518D03*
X007187Y013898D03*
D29*
X004602Y001606D03*
X005587Y001606D03*
X006571Y001606D03*
X006571Y003810D03*
X005587Y003810D03*
X004602Y003810D03*
D30*
X008507Y017273D03*
X008507Y019163D03*
D31*
X008463Y010941D03*
X009211Y010941D03*
X008837Y010075D03*
M02*
