G75*
G70*
%OFA0B0*%
%FSLAX24Y24*%
%IPPOS*%
%LPD*%
%AMOC8*
5,1,8,0,0,1.08239X$1,22.5*
%
%ADD10C,0.0000*%
%ADD11C,0.0030*%
%ADD12C,0.0060*%
%ADD13R,0.4750X0.1250*%
%ADD14R,0.1250X0.1500*%
%ADD15R,0.1500X0.1500*%
%ADD16R,0.4750X0.1500*%
%ADD17C,0.0080*%
%ADD18C,0.0040*%
D10*
X003014Y001008D02*
X003014Y022508D01*
X038014Y022508D01*
X038014Y001008D01*
X003014Y001008D01*
X003389Y002008D02*
X003391Y002058D01*
X003397Y002107D01*
X003407Y002156D01*
X003420Y002203D01*
X003438Y002250D01*
X003459Y002295D01*
X003483Y002338D01*
X003511Y002379D01*
X003542Y002418D01*
X003576Y002454D01*
X003613Y002488D01*
X003653Y002518D01*
X003694Y002545D01*
X003738Y002569D01*
X003783Y002589D01*
X003830Y002605D01*
X003878Y002618D01*
X003927Y002627D01*
X003977Y002632D01*
X004026Y002633D01*
X004076Y002630D01*
X004125Y002623D01*
X004174Y002612D01*
X004221Y002598D01*
X004267Y002579D01*
X004312Y002557D01*
X004355Y002532D01*
X004395Y002503D01*
X004433Y002471D01*
X004469Y002437D01*
X004502Y002399D01*
X004531Y002359D01*
X004557Y002317D01*
X004580Y002273D01*
X004599Y002227D01*
X004615Y002180D01*
X004627Y002131D01*
X004635Y002082D01*
X004639Y002033D01*
X004639Y001983D01*
X004635Y001934D01*
X004627Y001885D01*
X004615Y001836D01*
X004599Y001789D01*
X004580Y001743D01*
X004557Y001699D01*
X004531Y001657D01*
X004502Y001617D01*
X004469Y001579D01*
X004433Y001545D01*
X004395Y001513D01*
X004355Y001484D01*
X004312Y001459D01*
X004267Y001437D01*
X004221Y001418D01*
X004174Y001404D01*
X004125Y001393D01*
X004076Y001386D01*
X004026Y001383D01*
X003977Y001384D01*
X003927Y001389D01*
X003878Y001398D01*
X003830Y001411D01*
X003783Y001427D01*
X003738Y001447D01*
X003694Y001471D01*
X003653Y001498D01*
X003613Y001528D01*
X003576Y001562D01*
X003542Y001598D01*
X003511Y001637D01*
X003483Y001678D01*
X003459Y001721D01*
X003438Y001766D01*
X003420Y001813D01*
X003407Y001860D01*
X003397Y001909D01*
X003391Y001958D01*
X003389Y002008D01*
X006973Y002708D02*
X006975Y002736D01*
X006981Y002763D01*
X006990Y002789D01*
X007003Y002814D01*
X007020Y002837D01*
X007039Y002857D01*
X007061Y002874D01*
X007085Y002888D01*
X007111Y002898D01*
X007138Y002905D01*
X007166Y002908D01*
X007194Y002907D01*
X007221Y002902D01*
X007248Y002893D01*
X007273Y002881D01*
X007296Y002866D01*
X007317Y002847D01*
X007335Y002826D01*
X007350Y002802D01*
X007361Y002776D01*
X007369Y002750D01*
X007373Y002722D01*
X007373Y002694D01*
X007369Y002666D01*
X007361Y002640D01*
X007350Y002614D01*
X007335Y002590D01*
X007317Y002569D01*
X007296Y002550D01*
X007273Y002535D01*
X007248Y002523D01*
X007221Y002514D01*
X007194Y002509D01*
X007166Y002508D01*
X007138Y002511D01*
X007111Y002518D01*
X007085Y002528D01*
X007061Y002542D01*
X007039Y002559D01*
X007020Y002579D01*
X007003Y002602D01*
X006990Y002627D01*
X006981Y002653D01*
X006975Y002680D01*
X006973Y002708D01*
X008154Y002708D02*
X008156Y002736D01*
X008162Y002763D01*
X008171Y002789D01*
X008184Y002814D01*
X008201Y002837D01*
X008220Y002857D01*
X008242Y002874D01*
X008266Y002888D01*
X008292Y002898D01*
X008319Y002905D01*
X008347Y002908D01*
X008375Y002907D01*
X008402Y002902D01*
X008429Y002893D01*
X008454Y002881D01*
X008477Y002866D01*
X008498Y002847D01*
X008516Y002826D01*
X008531Y002802D01*
X008542Y002776D01*
X008550Y002750D01*
X008554Y002722D01*
X008554Y002694D01*
X008550Y002666D01*
X008542Y002640D01*
X008531Y002614D01*
X008516Y002590D01*
X008498Y002569D01*
X008477Y002550D01*
X008454Y002535D01*
X008429Y002523D01*
X008402Y002514D01*
X008375Y002509D01*
X008347Y002508D01*
X008319Y002511D01*
X008292Y002518D01*
X008266Y002528D01*
X008242Y002542D01*
X008220Y002559D01*
X008201Y002579D01*
X008184Y002602D01*
X008171Y002627D01*
X008162Y002653D01*
X008156Y002680D01*
X008154Y002708D01*
X035837Y015569D02*
X035839Y015595D01*
X035845Y015621D01*
X035855Y015646D01*
X035868Y015669D01*
X035884Y015689D01*
X035904Y015707D01*
X035926Y015722D01*
X035949Y015734D01*
X035975Y015742D01*
X036001Y015746D01*
X036027Y015746D01*
X036053Y015742D01*
X036079Y015734D01*
X036103Y015722D01*
X036124Y015707D01*
X036144Y015689D01*
X036160Y015669D01*
X036173Y015646D01*
X036183Y015621D01*
X036189Y015595D01*
X036191Y015569D01*
X036189Y015543D01*
X036183Y015517D01*
X036173Y015492D01*
X036160Y015469D01*
X036144Y015449D01*
X036124Y015431D01*
X036102Y015416D01*
X036079Y015404D01*
X036053Y015396D01*
X036027Y015392D01*
X036001Y015392D01*
X035975Y015396D01*
X035949Y015404D01*
X035925Y015416D01*
X035904Y015431D01*
X035884Y015449D01*
X035868Y015469D01*
X035855Y015492D01*
X035845Y015517D01*
X035839Y015543D01*
X035837Y015569D01*
X035837Y016947D02*
X035839Y016973D01*
X035845Y016999D01*
X035855Y017024D01*
X035868Y017047D01*
X035884Y017067D01*
X035904Y017085D01*
X035926Y017100D01*
X035949Y017112D01*
X035975Y017120D01*
X036001Y017124D01*
X036027Y017124D01*
X036053Y017120D01*
X036079Y017112D01*
X036103Y017100D01*
X036124Y017085D01*
X036144Y017067D01*
X036160Y017047D01*
X036173Y017024D01*
X036183Y016999D01*
X036189Y016973D01*
X036191Y016947D01*
X036189Y016921D01*
X036183Y016895D01*
X036173Y016870D01*
X036160Y016847D01*
X036144Y016827D01*
X036124Y016809D01*
X036102Y016794D01*
X036079Y016782D01*
X036053Y016774D01*
X036027Y016770D01*
X036001Y016770D01*
X035975Y016774D01*
X035949Y016782D01*
X035925Y016794D01*
X035904Y016809D01*
X035884Y016827D01*
X035868Y016847D01*
X035855Y016870D01*
X035845Y016895D01*
X035839Y016921D01*
X035837Y016947D01*
X036389Y021508D02*
X036391Y021558D01*
X036397Y021607D01*
X036407Y021656D01*
X036420Y021703D01*
X036438Y021750D01*
X036459Y021795D01*
X036483Y021838D01*
X036511Y021879D01*
X036542Y021918D01*
X036576Y021954D01*
X036613Y021988D01*
X036653Y022018D01*
X036694Y022045D01*
X036738Y022069D01*
X036783Y022089D01*
X036830Y022105D01*
X036878Y022118D01*
X036927Y022127D01*
X036977Y022132D01*
X037026Y022133D01*
X037076Y022130D01*
X037125Y022123D01*
X037174Y022112D01*
X037221Y022098D01*
X037267Y022079D01*
X037312Y022057D01*
X037355Y022032D01*
X037395Y022003D01*
X037433Y021971D01*
X037469Y021937D01*
X037502Y021899D01*
X037531Y021859D01*
X037557Y021817D01*
X037580Y021773D01*
X037599Y021727D01*
X037615Y021680D01*
X037627Y021631D01*
X037635Y021582D01*
X037639Y021533D01*
X037639Y021483D01*
X037635Y021434D01*
X037627Y021385D01*
X037615Y021336D01*
X037599Y021289D01*
X037580Y021243D01*
X037557Y021199D01*
X037531Y021157D01*
X037502Y021117D01*
X037469Y021079D01*
X037433Y021045D01*
X037395Y021013D01*
X037355Y020984D01*
X037312Y020959D01*
X037267Y020937D01*
X037221Y020918D01*
X037174Y020904D01*
X037125Y020893D01*
X037076Y020886D01*
X037026Y020883D01*
X036977Y020884D01*
X036927Y020889D01*
X036878Y020898D01*
X036830Y020911D01*
X036783Y020927D01*
X036738Y020947D01*
X036694Y020971D01*
X036653Y020998D01*
X036613Y021028D01*
X036576Y021062D01*
X036542Y021098D01*
X036511Y021137D01*
X036483Y021178D01*
X036459Y021221D01*
X036438Y021266D01*
X036420Y021313D01*
X036407Y021360D01*
X036397Y021409D01*
X036391Y021458D01*
X036389Y021508D01*
X003389Y021508D02*
X003391Y021558D01*
X003397Y021607D01*
X003407Y021656D01*
X003420Y021703D01*
X003438Y021750D01*
X003459Y021795D01*
X003483Y021838D01*
X003511Y021879D01*
X003542Y021918D01*
X003576Y021954D01*
X003613Y021988D01*
X003653Y022018D01*
X003694Y022045D01*
X003738Y022069D01*
X003783Y022089D01*
X003830Y022105D01*
X003878Y022118D01*
X003927Y022127D01*
X003977Y022132D01*
X004026Y022133D01*
X004076Y022130D01*
X004125Y022123D01*
X004174Y022112D01*
X004221Y022098D01*
X004267Y022079D01*
X004312Y022057D01*
X004355Y022032D01*
X004395Y022003D01*
X004433Y021971D01*
X004469Y021937D01*
X004502Y021899D01*
X004531Y021859D01*
X004557Y021817D01*
X004580Y021773D01*
X004599Y021727D01*
X004615Y021680D01*
X004627Y021631D01*
X004635Y021582D01*
X004639Y021533D01*
X004639Y021483D01*
X004635Y021434D01*
X004627Y021385D01*
X004615Y021336D01*
X004599Y021289D01*
X004580Y021243D01*
X004557Y021199D01*
X004531Y021157D01*
X004502Y021117D01*
X004469Y021079D01*
X004433Y021045D01*
X004395Y021013D01*
X004355Y020984D01*
X004312Y020959D01*
X004267Y020937D01*
X004221Y020918D01*
X004174Y020904D01*
X004125Y020893D01*
X004076Y020886D01*
X004026Y020883D01*
X003977Y020884D01*
X003927Y020889D01*
X003878Y020898D01*
X003830Y020911D01*
X003783Y020927D01*
X003738Y020947D01*
X003694Y020971D01*
X003653Y020998D01*
X003613Y021028D01*
X003576Y021062D01*
X003542Y021098D01*
X003511Y021137D01*
X003483Y021178D01*
X003459Y021221D01*
X003438Y021266D01*
X003420Y021313D01*
X003407Y021360D01*
X003397Y021409D01*
X003391Y021458D01*
X003389Y021508D01*
X036389Y002008D02*
X036391Y002058D01*
X036397Y002107D01*
X036407Y002156D01*
X036420Y002203D01*
X036438Y002250D01*
X036459Y002295D01*
X036483Y002338D01*
X036511Y002379D01*
X036542Y002418D01*
X036576Y002454D01*
X036613Y002488D01*
X036653Y002518D01*
X036694Y002545D01*
X036738Y002569D01*
X036783Y002589D01*
X036830Y002605D01*
X036878Y002618D01*
X036927Y002627D01*
X036977Y002632D01*
X037026Y002633D01*
X037076Y002630D01*
X037125Y002623D01*
X037174Y002612D01*
X037221Y002598D01*
X037267Y002579D01*
X037312Y002557D01*
X037355Y002532D01*
X037395Y002503D01*
X037433Y002471D01*
X037469Y002437D01*
X037502Y002399D01*
X037531Y002359D01*
X037557Y002317D01*
X037580Y002273D01*
X037599Y002227D01*
X037615Y002180D01*
X037627Y002131D01*
X037635Y002082D01*
X037639Y002033D01*
X037639Y001983D01*
X037635Y001934D01*
X037627Y001885D01*
X037615Y001836D01*
X037599Y001789D01*
X037580Y001743D01*
X037557Y001699D01*
X037531Y001657D01*
X037502Y001617D01*
X037469Y001579D01*
X037433Y001545D01*
X037395Y001513D01*
X037355Y001484D01*
X037312Y001459D01*
X037267Y001437D01*
X037221Y001418D01*
X037174Y001404D01*
X037125Y001393D01*
X037076Y001386D01*
X037026Y001383D01*
X036977Y001384D01*
X036927Y001389D01*
X036878Y001398D01*
X036830Y001411D01*
X036783Y001427D01*
X036738Y001447D01*
X036694Y001471D01*
X036653Y001498D01*
X036613Y001528D01*
X036576Y001562D01*
X036542Y001598D01*
X036511Y001637D01*
X036483Y001678D01*
X036459Y001721D01*
X036438Y001766D01*
X036420Y001813D01*
X036407Y001860D01*
X036397Y001909D01*
X036391Y001958D01*
X036389Y002008D01*
D11*
X035149Y003085D02*
X035087Y003023D01*
X034840Y003023D01*
X034779Y003085D01*
X034779Y003208D01*
X034840Y003270D01*
X034964Y003270D01*
X034964Y003146D01*
X035087Y003270D02*
X035149Y003208D01*
X035149Y003085D01*
X035025Y003391D02*
X034779Y003391D01*
X035025Y003391D02*
X035025Y003576D01*
X034964Y003638D01*
X034779Y003638D01*
X034840Y003759D02*
X034779Y003821D01*
X034779Y004006D01*
X035149Y004006D01*
X035025Y004006D02*
X035025Y003821D01*
X034964Y003759D01*
X034840Y003759D01*
X034149Y003759D02*
X033779Y003759D01*
X033779Y004006D01*
X033840Y003638D02*
X033779Y003576D01*
X033779Y003453D01*
X033840Y003391D01*
X034087Y003391D01*
X034149Y003453D01*
X034149Y003576D01*
X034087Y003638D01*
X034087Y003270D02*
X034149Y003208D01*
X034149Y003085D01*
X034087Y003023D01*
X034025Y003023D01*
X033964Y003085D01*
X033964Y003208D01*
X033902Y003270D01*
X033840Y003270D01*
X033779Y003208D01*
X033779Y003085D01*
X033840Y003023D01*
X033149Y003085D02*
X033087Y003023D01*
X033025Y003023D01*
X032964Y003085D01*
X032964Y003208D01*
X032902Y003270D01*
X032840Y003270D01*
X032779Y003208D01*
X032779Y003085D01*
X032840Y003023D01*
X033149Y003085D02*
X033149Y003208D01*
X033087Y003270D01*
X033149Y003391D02*
X033149Y003576D01*
X033087Y003638D01*
X032840Y003638D01*
X032779Y003576D01*
X032779Y003391D01*
X033149Y003391D01*
X033025Y003759D02*
X032779Y003759D01*
X032964Y003759D02*
X032964Y004006D01*
X033025Y004006D02*
X032779Y004006D01*
X033025Y004006D02*
X033149Y003883D01*
X033025Y003759D01*
X032149Y003759D02*
X031840Y003759D01*
X031779Y003821D01*
X031779Y003945D01*
X031840Y004006D01*
X032149Y004006D01*
X032149Y004128D02*
X031779Y004128D01*
X031779Y004375D01*
X031779Y004496D02*
X031779Y004743D01*
X031779Y004496D02*
X032149Y004496D01*
X031149Y004496D02*
X031149Y004681D01*
X031087Y004743D01*
X030840Y004743D01*
X030779Y004681D01*
X030779Y004496D01*
X031149Y004496D01*
X031087Y004375D02*
X031149Y004313D01*
X031149Y004189D01*
X031087Y004128D01*
X030840Y004128D01*
X030779Y004189D01*
X030779Y004313D01*
X030840Y004375D01*
X031087Y004375D01*
X031087Y004006D02*
X030840Y004006D01*
X030779Y003945D01*
X030779Y003821D01*
X030840Y003759D01*
X031087Y003759D01*
X031149Y003821D01*
X031149Y003945D01*
X031087Y004006D01*
X031087Y003638D02*
X031149Y003576D01*
X031149Y003453D01*
X031087Y003391D01*
X030840Y003391D01*
X030779Y003453D01*
X030779Y003576D01*
X030840Y003638D01*
X030964Y003638D01*
X030964Y003515D01*
X030964Y003270D02*
X030902Y003208D01*
X030902Y003023D01*
X030779Y003023D02*
X031149Y003023D01*
X031149Y003208D01*
X031087Y003270D01*
X030964Y003270D01*
X030149Y003270D02*
X029902Y003270D01*
X029779Y003146D01*
X029902Y003023D01*
X030149Y003023D01*
X030087Y003391D02*
X029840Y003391D01*
X029779Y003453D01*
X029779Y003576D01*
X029840Y003638D01*
X029840Y003759D02*
X029779Y003821D01*
X029779Y003945D01*
X029840Y004006D01*
X030087Y004006D01*
X030149Y003945D01*
X030149Y003821D01*
X030087Y003759D01*
X029840Y003759D01*
X030087Y003638D02*
X030149Y003576D01*
X030149Y003453D01*
X030087Y003391D01*
X029149Y003391D02*
X029149Y003576D01*
X029087Y003638D01*
X028964Y003638D01*
X028902Y003576D01*
X028902Y003391D01*
X028779Y003391D02*
X029149Y003391D01*
X029025Y003270D02*
X028779Y003270D01*
X028964Y003270D02*
X028964Y003023D01*
X029025Y003023D02*
X028779Y003023D01*
X029025Y003023D02*
X029149Y003146D01*
X029025Y003270D01*
X028902Y003515D02*
X028779Y003638D01*
X028779Y003759D02*
X028779Y004006D01*
X028779Y004128D02*
X029149Y004128D01*
X029149Y004375D01*
X028964Y004251D02*
X028964Y004128D01*
X029149Y004006D02*
X029149Y003759D01*
X028779Y003759D01*
X028964Y003759D02*
X028964Y003883D01*
X028025Y003821D02*
X027964Y003759D01*
X027840Y003759D01*
X027779Y003821D01*
X027779Y004006D01*
X028025Y004006D02*
X028025Y003821D01*
X028025Y003638D02*
X028025Y003453D01*
X027964Y003391D01*
X027840Y003391D01*
X027779Y003453D01*
X027779Y003638D01*
X027902Y003270D02*
X028149Y003270D01*
X027902Y003270D02*
X027779Y003146D01*
X027902Y003023D01*
X028149Y003023D01*
X029779Y004128D02*
X030149Y004128D01*
X030025Y004251D01*
X030149Y004375D01*
X029779Y004375D01*
X031779Y003391D02*
X032149Y003391D01*
X032149Y003638D01*
X031964Y003515D02*
X031964Y003391D01*
X031964Y003270D02*
X031902Y003208D01*
X031902Y003023D01*
X031779Y003023D02*
X032149Y003023D01*
X032149Y003208D01*
X032087Y003270D01*
X031964Y003270D01*
X033879Y006073D02*
X034249Y006073D01*
X034249Y006196D02*
X034249Y005949D01*
X034125Y006317D02*
X033879Y006564D01*
X033879Y006686D02*
X033879Y006933D01*
X033879Y007054D02*
X034249Y007301D01*
X034249Y007422D02*
X034249Y007546D01*
X034249Y007484D02*
X033879Y007484D01*
X033879Y007422D02*
X033879Y007546D01*
X033879Y007668D02*
X034249Y007668D01*
X033879Y007915D01*
X034249Y007915D01*
X034249Y008036D02*
X034249Y008283D01*
X034249Y008160D02*
X033879Y008160D01*
X033879Y008404D02*
X033879Y008651D01*
X033879Y008528D02*
X034249Y008528D01*
X034125Y008404D01*
X033249Y008410D02*
X032879Y008410D01*
X032879Y008165D02*
X033249Y008165D01*
X033249Y008286D02*
X033249Y008533D01*
X033187Y008654D02*
X033249Y008716D01*
X033249Y008840D01*
X033187Y008901D01*
X032940Y008654D01*
X032879Y008716D01*
X032879Y008840D01*
X032940Y008901D01*
X033187Y008901D01*
X033187Y008654D02*
X032940Y008654D01*
X032879Y008165D02*
X033249Y007918D01*
X032879Y007918D01*
X032879Y007796D02*
X032879Y007672D01*
X032879Y007734D02*
X033249Y007734D01*
X033249Y007672D02*
X033249Y007796D01*
X033249Y007551D02*
X032879Y007304D01*
X032879Y007183D02*
X032879Y006936D01*
X032879Y006814D02*
X033125Y006567D01*
X033064Y006446D02*
X033002Y006384D01*
X033002Y006199D01*
X032879Y006199D02*
X033249Y006199D01*
X033249Y006384D01*
X033187Y006446D01*
X033064Y006446D01*
X033002Y006323D02*
X032879Y006446D01*
X032879Y006567D02*
X033125Y006814D01*
X033125Y006936D02*
X033249Y007059D01*
X032879Y007059D01*
X032249Y007090D02*
X031879Y007090D01*
X031879Y006966D02*
X032249Y006966D01*
X032125Y006905D02*
X032125Y007090D01*
X032125Y007151D01*
X032002Y007151D02*
X032002Y006905D01*
X032002Y006783D02*
X031940Y006783D01*
X031879Y006721D01*
X031879Y006598D01*
X031940Y006536D01*
X031940Y006415D02*
X031879Y006353D01*
X031879Y006230D01*
X031940Y006168D01*
X032064Y006230D02*
X032064Y006353D01*
X032002Y006415D01*
X031940Y006415D01*
X032064Y006598D02*
X032064Y006721D01*
X032002Y006783D01*
X032187Y006783D02*
X032249Y006721D01*
X032249Y006598D01*
X032187Y006536D01*
X032125Y006536D01*
X032064Y006598D01*
X032187Y006415D02*
X032249Y006353D01*
X032249Y006230D01*
X032187Y006168D01*
X032125Y006168D01*
X032064Y006230D01*
X031249Y006172D02*
X031125Y006296D01*
X031249Y006419D01*
X030879Y006419D01*
X030879Y006541D02*
X030879Y006664D01*
X030879Y006602D02*
X031249Y006602D01*
X031249Y006541D02*
X031249Y006664D01*
X031187Y006786D02*
X031125Y006786D01*
X031064Y006848D01*
X031064Y006971D01*
X031002Y007033D01*
X030940Y007033D01*
X030879Y006971D01*
X030879Y006848D01*
X030940Y006786D01*
X031187Y006786D02*
X031249Y006848D01*
X031249Y006971D01*
X031187Y007033D01*
X031187Y007155D02*
X030940Y007155D01*
X030879Y007216D01*
X030879Y007340D01*
X030940Y007401D01*
X031187Y007401D01*
X031249Y007340D01*
X031249Y007216D01*
X031187Y007155D01*
X030249Y007094D02*
X030249Y006971D01*
X030187Y006909D01*
X030125Y006909D01*
X030064Y006971D01*
X030064Y007094D01*
X030002Y007156D01*
X029940Y007156D01*
X029879Y007094D01*
X029879Y006971D01*
X029940Y006909D01*
X029940Y006788D02*
X030187Y006788D01*
X030249Y006726D01*
X030249Y006602D01*
X030187Y006541D01*
X029940Y006541D01*
X029879Y006602D01*
X029879Y006726D01*
X029940Y006788D01*
X029879Y006419D02*
X030249Y006419D01*
X030125Y006296D01*
X030249Y006172D01*
X029879Y006172D01*
X029249Y006230D02*
X029187Y006168D01*
X029125Y006168D01*
X029064Y006230D01*
X029064Y006353D01*
X029002Y006415D01*
X028940Y006415D01*
X028879Y006353D01*
X028879Y006230D01*
X028940Y006168D01*
X029249Y006230D02*
X029249Y006353D01*
X029187Y006415D01*
X029187Y006536D02*
X028940Y006536D01*
X028879Y006598D01*
X028879Y006721D01*
X028940Y006783D01*
X028879Y006905D02*
X029249Y006905D01*
X029187Y006783D02*
X029249Y006721D01*
X029249Y006598D01*
X029187Y006536D01*
X029002Y006905D02*
X029249Y007151D01*
X029064Y006966D02*
X028879Y007151D01*
X028125Y007151D02*
X028125Y006966D01*
X028064Y006905D01*
X027940Y006905D01*
X027879Y006966D01*
X027879Y007151D01*
X027879Y006783D02*
X027879Y006598D01*
X027940Y006536D01*
X028064Y006536D01*
X028125Y006598D01*
X028125Y006783D01*
X028002Y006415D02*
X028249Y006415D01*
X028002Y006415D02*
X027879Y006291D01*
X028002Y006168D01*
X028249Y006168D01*
X029879Y007277D02*
X029879Y007401D01*
X029879Y007339D02*
X030249Y007339D01*
X030249Y007277D02*
X030249Y007401D01*
X030187Y007156D02*
X030249Y007094D01*
X030879Y006172D02*
X031249Y006172D01*
X033879Y006317D02*
X034125Y006564D01*
X034125Y006686D02*
X034249Y006809D01*
X033879Y006809D01*
X034959Y006763D02*
X035144Y006763D01*
X035205Y006701D01*
X035205Y006516D01*
X034959Y006516D01*
X035020Y006395D02*
X035144Y006395D01*
X035144Y006271D01*
X035267Y006148D02*
X035020Y006148D01*
X034959Y006210D01*
X034959Y006333D01*
X035020Y006395D01*
X035267Y006395D02*
X035329Y006333D01*
X035329Y006210D01*
X035267Y006148D01*
X035144Y006885D02*
X035205Y006946D01*
X035205Y007131D01*
X035329Y007131D02*
X034959Y007131D01*
X034959Y006946D01*
X035020Y006885D01*
X035144Y006885D01*
X026329Y007131D02*
X025959Y007131D01*
X025959Y006946D01*
X026020Y006885D01*
X026144Y006885D01*
X026205Y006946D01*
X026205Y007131D01*
X026144Y006763D02*
X025959Y006763D01*
X026144Y006763D02*
X026205Y006701D01*
X026205Y006516D01*
X025959Y006516D01*
X026020Y006395D02*
X026144Y006395D01*
X026144Y006271D01*
X026267Y006148D02*
X026020Y006148D01*
X025959Y006210D01*
X025959Y006333D01*
X026020Y006395D01*
X026267Y006395D02*
X026329Y006333D01*
X026329Y006210D01*
X026267Y006148D01*
X025249Y006196D02*
X025249Y005949D01*
X025249Y006073D02*
X024879Y006073D01*
X024879Y006317D02*
X025125Y006564D01*
X025125Y006686D02*
X025249Y006809D01*
X024879Y006809D01*
X024879Y006686D02*
X024879Y006933D01*
X024879Y007054D02*
X025249Y007301D01*
X025249Y007422D02*
X025249Y007546D01*
X025249Y007484D02*
X024879Y007484D01*
X024879Y007422D02*
X024879Y007546D01*
X024879Y007668D02*
X025249Y007668D01*
X024879Y007915D01*
X025249Y007915D01*
X025249Y008036D02*
X025249Y008283D01*
X025249Y008160D02*
X024879Y008160D01*
X024879Y008404D02*
X024879Y008651D01*
X024879Y008528D02*
X025249Y008528D01*
X025125Y008404D01*
X024249Y008410D02*
X023879Y008410D01*
X023879Y008165D02*
X024249Y008165D01*
X024249Y008286D02*
X024249Y008533D01*
X024187Y008654D02*
X024249Y008716D01*
X024249Y008840D01*
X024187Y008901D01*
X023940Y008654D01*
X023879Y008716D01*
X023879Y008840D01*
X023940Y008901D01*
X024187Y008901D01*
X024187Y008654D02*
X023940Y008654D01*
X023879Y008165D02*
X024249Y007918D01*
X023879Y007918D01*
X023879Y007796D02*
X023879Y007672D01*
X023879Y007734D02*
X024249Y007734D01*
X024249Y007672D02*
X024249Y007796D01*
X024249Y007551D02*
X023879Y007304D01*
X023879Y007183D02*
X023879Y006936D01*
X023879Y006814D02*
X024125Y006567D01*
X024064Y006446D02*
X024002Y006384D01*
X024002Y006199D01*
X023879Y006199D02*
X024249Y006199D01*
X024249Y006384D01*
X024187Y006446D01*
X024064Y006446D01*
X024002Y006323D02*
X023879Y006446D01*
X023879Y006567D02*
X024125Y006814D01*
X024125Y006936D02*
X024249Y007059D01*
X023879Y007059D01*
X023249Y007090D02*
X022879Y007090D01*
X022879Y006966D02*
X023249Y006966D01*
X023125Y006905D02*
X023125Y007090D01*
X023125Y007151D01*
X023002Y007151D02*
X023002Y006905D01*
X023002Y006783D02*
X022940Y006783D01*
X022879Y006721D01*
X022879Y006598D01*
X022940Y006536D01*
X022940Y006415D02*
X022879Y006353D01*
X022879Y006230D01*
X022940Y006168D01*
X023064Y006230D02*
X023064Y006353D01*
X023002Y006415D01*
X022940Y006415D01*
X023064Y006598D02*
X023064Y006721D01*
X023002Y006783D01*
X023187Y006783D02*
X023249Y006721D01*
X023249Y006598D01*
X023187Y006536D01*
X023125Y006536D01*
X023064Y006598D01*
X023187Y006415D02*
X023249Y006353D01*
X023249Y006230D01*
X023187Y006168D01*
X023125Y006168D01*
X023064Y006230D01*
X022249Y006172D02*
X022125Y006296D01*
X022249Y006419D01*
X021879Y006419D01*
X021879Y006541D02*
X021879Y006664D01*
X021879Y006602D02*
X022249Y006602D01*
X022249Y006541D02*
X022249Y006664D01*
X022187Y006786D02*
X022125Y006786D01*
X022064Y006848D01*
X022064Y006971D01*
X022002Y007033D01*
X021940Y007033D01*
X021879Y006971D01*
X021879Y006848D01*
X021940Y006786D01*
X022187Y006786D02*
X022249Y006848D01*
X022249Y006971D01*
X022187Y007033D01*
X022187Y007155D02*
X021940Y007155D01*
X021879Y007216D01*
X021879Y007340D01*
X021940Y007401D01*
X022187Y007401D01*
X022249Y007340D01*
X022249Y007216D01*
X022187Y007155D01*
X021249Y007094D02*
X021249Y006971D01*
X021187Y006909D01*
X021125Y006909D01*
X021064Y006971D01*
X021064Y007094D01*
X021002Y007156D01*
X020940Y007156D01*
X020879Y007094D01*
X020879Y006971D01*
X020940Y006909D01*
X020940Y006788D02*
X021187Y006788D01*
X021249Y006726D01*
X021249Y006602D01*
X021187Y006541D01*
X020940Y006541D01*
X020879Y006602D01*
X020879Y006726D01*
X020940Y006788D01*
X020879Y006419D02*
X021249Y006419D01*
X021125Y006296D01*
X021249Y006172D01*
X020879Y006172D01*
X020249Y006230D02*
X020187Y006168D01*
X020125Y006168D01*
X020064Y006230D01*
X020064Y006353D01*
X020002Y006415D01*
X019940Y006415D01*
X019879Y006353D01*
X019879Y006230D01*
X019940Y006168D01*
X020249Y006230D02*
X020249Y006353D01*
X020187Y006415D01*
X020187Y006536D02*
X019940Y006536D01*
X019879Y006598D01*
X019879Y006721D01*
X019940Y006783D01*
X019879Y006905D02*
X020249Y006905D01*
X020187Y006783D02*
X020249Y006721D01*
X020249Y006598D01*
X020187Y006536D01*
X020002Y006905D02*
X020249Y007151D01*
X020064Y006966D02*
X019879Y007151D01*
X019125Y007151D02*
X019125Y006966D01*
X019064Y006905D01*
X018940Y006905D01*
X018879Y006966D01*
X018879Y007151D01*
X018879Y006783D02*
X018879Y006598D01*
X018940Y006536D01*
X019064Y006536D01*
X019125Y006598D01*
X019125Y006783D01*
X019002Y006415D02*
X019249Y006415D01*
X019002Y006415D02*
X018879Y006291D01*
X019002Y006168D01*
X019249Y006168D01*
X017329Y006210D02*
X017267Y006148D01*
X017020Y006148D01*
X016959Y006210D01*
X016959Y006333D01*
X017020Y006395D01*
X017144Y006395D01*
X017144Y006271D01*
X017267Y006395D02*
X017329Y006333D01*
X017329Y006210D01*
X017205Y006516D02*
X016959Y006516D01*
X017205Y006516D02*
X017205Y006701D01*
X017144Y006763D01*
X016959Y006763D01*
X017020Y006885D02*
X016959Y006946D01*
X016959Y007131D01*
X017329Y007131D01*
X017205Y007131D02*
X017205Y006946D01*
X017144Y006885D01*
X017020Y006885D01*
X016249Y006809D02*
X015879Y006809D01*
X015879Y006686D02*
X015879Y006933D01*
X015879Y007054D02*
X016249Y007301D01*
X016249Y007422D02*
X016249Y007546D01*
X016249Y007484D02*
X015879Y007484D01*
X015879Y007422D02*
X015879Y007546D01*
X015879Y007668D02*
X016249Y007668D01*
X015879Y007915D01*
X016249Y007915D01*
X016249Y008036D02*
X016249Y008283D01*
X016249Y008160D02*
X015879Y008160D01*
X015879Y008404D02*
X015879Y008651D01*
X015879Y008528D02*
X016249Y008528D01*
X016125Y008404D01*
X015249Y008410D02*
X014879Y008410D01*
X014879Y008165D02*
X015249Y008165D01*
X015249Y008286D02*
X015249Y008533D01*
X015187Y008654D02*
X015249Y008716D01*
X015249Y008840D01*
X015187Y008901D01*
X014940Y008654D01*
X014879Y008716D01*
X014879Y008840D01*
X014940Y008901D01*
X015187Y008901D01*
X015187Y008654D02*
X014940Y008654D01*
X014879Y008165D02*
X015249Y007918D01*
X014879Y007918D01*
X014879Y007796D02*
X014879Y007672D01*
X014879Y007734D02*
X015249Y007734D01*
X015249Y007672D02*
X015249Y007796D01*
X015249Y007551D02*
X014879Y007304D01*
X014879Y007183D02*
X014879Y006936D01*
X014879Y006814D02*
X015125Y006567D01*
X015187Y006446D02*
X015064Y006446D01*
X015002Y006384D01*
X015002Y006199D01*
X014879Y006199D02*
X015249Y006199D01*
X015249Y006384D01*
X015187Y006446D01*
X015002Y006323D02*
X014879Y006446D01*
X014879Y006567D02*
X015125Y006814D01*
X015125Y006936D02*
X015249Y007059D01*
X014879Y007059D01*
X014249Y007090D02*
X013879Y007090D01*
X013879Y006966D02*
X014249Y006966D01*
X014125Y006905D02*
X014125Y007090D01*
X014125Y007151D01*
X014002Y007151D02*
X014002Y006905D01*
X014002Y006783D02*
X013940Y006783D01*
X013879Y006721D01*
X013879Y006598D01*
X013940Y006536D01*
X013940Y006415D02*
X013879Y006353D01*
X013879Y006230D01*
X013940Y006168D01*
X014064Y006230D02*
X014064Y006353D01*
X014002Y006415D01*
X013940Y006415D01*
X014064Y006598D02*
X014064Y006721D01*
X014002Y006783D01*
X014187Y006783D02*
X014249Y006721D01*
X014249Y006598D01*
X014187Y006536D01*
X014125Y006536D01*
X014064Y006598D01*
X014187Y006415D02*
X014249Y006353D01*
X014249Y006230D01*
X014187Y006168D01*
X014125Y006168D01*
X014064Y006230D01*
X013249Y006172D02*
X013125Y006296D01*
X013249Y006419D01*
X012879Y006419D01*
X012879Y006541D02*
X012879Y006664D01*
X012879Y006602D02*
X013249Y006602D01*
X013249Y006541D02*
X013249Y006664D01*
X013187Y006786D02*
X013125Y006786D01*
X013064Y006848D01*
X013064Y006971D01*
X013002Y007033D01*
X012940Y007033D01*
X012879Y006971D01*
X012879Y006848D01*
X012940Y006786D01*
X013187Y006786D02*
X013249Y006848D01*
X013249Y006971D01*
X013187Y007033D01*
X013187Y007155D02*
X012940Y007155D01*
X012879Y007216D01*
X012879Y007340D01*
X012940Y007401D01*
X013187Y007401D01*
X013249Y007340D01*
X013249Y007216D01*
X013187Y007155D01*
X012249Y007094D02*
X012249Y006971D01*
X012187Y006909D01*
X012125Y006909D01*
X012064Y006971D01*
X012064Y007094D01*
X012002Y007156D01*
X011940Y007156D01*
X011879Y007094D01*
X011879Y006971D01*
X011940Y006909D01*
X011940Y006788D02*
X012187Y006788D01*
X012249Y006726D01*
X012249Y006602D01*
X012187Y006541D01*
X011940Y006541D01*
X011879Y006602D01*
X011879Y006726D01*
X011940Y006788D01*
X011879Y006419D02*
X012249Y006419D01*
X012125Y006296D01*
X012249Y006172D01*
X011879Y006172D01*
X011249Y006230D02*
X011187Y006168D01*
X011125Y006168D01*
X011064Y006230D01*
X011064Y006353D01*
X011002Y006415D01*
X010940Y006415D01*
X010879Y006353D01*
X010879Y006230D01*
X010940Y006168D01*
X011249Y006230D02*
X011249Y006353D01*
X011187Y006415D01*
X011187Y006536D02*
X010940Y006536D01*
X010879Y006598D01*
X010879Y006721D01*
X010940Y006783D01*
X010879Y006905D02*
X011249Y006905D01*
X011187Y006783D02*
X011249Y006721D01*
X011249Y006598D01*
X011187Y006536D01*
X011002Y006905D02*
X011249Y007151D01*
X011064Y006966D02*
X010879Y007151D01*
X010125Y007151D02*
X010125Y006966D01*
X010064Y006905D01*
X009940Y006905D01*
X009879Y006966D01*
X009879Y007151D01*
X009879Y006783D02*
X009879Y006598D01*
X009940Y006536D01*
X010064Y006536D01*
X010125Y006598D01*
X010125Y006783D01*
X010002Y006415D02*
X010249Y006415D01*
X010002Y006415D02*
X009879Y006291D01*
X010002Y006168D01*
X010249Y006168D01*
X011879Y007277D02*
X011879Y007401D01*
X011879Y007339D02*
X012249Y007339D01*
X012249Y007277D02*
X012249Y007401D01*
X012187Y007156D02*
X012249Y007094D01*
X012879Y006172D02*
X013249Y006172D01*
X013087Y004743D02*
X013149Y004681D01*
X013149Y004496D01*
X012779Y004496D01*
X012779Y004681D01*
X012840Y004743D01*
X013087Y004743D01*
X013087Y004375D02*
X013149Y004313D01*
X013149Y004189D01*
X013087Y004128D01*
X012840Y004128D01*
X012779Y004189D01*
X012779Y004313D01*
X012840Y004375D01*
X013087Y004375D01*
X013087Y004006D02*
X013149Y003945D01*
X013149Y003821D01*
X013087Y003759D01*
X012840Y003759D01*
X012779Y003821D01*
X012779Y003945D01*
X012840Y004006D01*
X013087Y004006D01*
X013087Y003638D02*
X013149Y003576D01*
X013149Y003453D01*
X013087Y003391D01*
X012840Y003391D01*
X012779Y003453D01*
X012779Y003576D01*
X012840Y003638D01*
X012964Y003638D01*
X012964Y003515D01*
X012964Y003270D02*
X012902Y003208D01*
X012902Y003023D01*
X012779Y003023D02*
X013149Y003023D01*
X013149Y003208D01*
X013087Y003270D01*
X012964Y003270D01*
X012149Y003270D02*
X011902Y003270D01*
X011779Y003146D01*
X011902Y003023D01*
X012149Y003023D01*
X012087Y003391D02*
X011840Y003391D01*
X011779Y003453D01*
X011779Y003576D01*
X011840Y003638D01*
X011840Y003759D02*
X011779Y003821D01*
X011779Y003945D01*
X011840Y004006D01*
X012087Y004006D01*
X012149Y003945D01*
X012149Y003821D01*
X012087Y003759D01*
X011840Y003759D01*
X012087Y003638D02*
X012149Y003576D01*
X012149Y003453D01*
X012087Y003391D01*
X011149Y003391D02*
X011149Y003576D01*
X011087Y003638D01*
X010964Y003638D01*
X010902Y003576D01*
X010902Y003391D01*
X010779Y003391D02*
X011149Y003391D01*
X011025Y003270D02*
X010779Y003270D01*
X010964Y003270D02*
X010964Y003023D01*
X011025Y003023D02*
X011149Y003146D01*
X011025Y003270D01*
X011025Y003023D02*
X010779Y003023D01*
X010149Y003023D02*
X009902Y003023D01*
X009779Y003146D01*
X009902Y003270D01*
X010149Y003270D01*
X010025Y003453D02*
X009964Y003391D01*
X009840Y003391D01*
X009779Y003453D01*
X009779Y003638D01*
X009840Y003759D02*
X009779Y003821D01*
X009779Y004006D01*
X010025Y004006D02*
X010025Y003821D01*
X009964Y003759D01*
X009840Y003759D01*
X010025Y003638D02*
X010025Y003453D01*
X010779Y003638D02*
X010902Y003515D01*
X010964Y003759D02*
X010964Y003883D01*
X011149Y004006D02*
X011149Y003759D01*
X010779Y003759D01*
X010779Y004006D01*
X010779Y004128D02*
X011149Y004128D01*
X011149Y004375D01*
X010964Y004251D02*
X010964Y004128D01*
X011779Y004128D02*
X012149Y004128D01*
X012025Y004251D01*
X012149Y004375D01*
X011779Y004375D01*
X013779Y004375D02*
X013779Y004128D01*
X014149Y004128D01*
X014149Y004006D02*
X013840Y004006D01*
X013779Y003945D01*
X013779Y003821D01*
X013840Y003759D01*
X014149Y003759D01*
X014149Y003638D02*
X014149Y003391D01*
X013779Y003391D01*
X013964Y003391D02*
X013964Y003515D01*
X013964Y003270D02*
X013902Y003208D01*
X013902Y003023D01*
X013779Y003023D02*
X014149Y003023D01*
X014149Y003208D01*
X014087Y003270D01*
X013964Y003270D01*
X014779Y003208D02*
X014779Y003085D01*
X014840Y003023D01*
X014964Y003085D02*
X014964Y003208D01*
X014902Y003270D01*
X014840Y003270D01*
X014779Y003208D01*
X014779Y003391D02*
X014779Y003576D01*
X014840Y003638D01*
X015087Y003638D01*
X015149Y003576D01*
X015149Y003391D01*
X014779Y003391D01*
X015087Y003270D02*
X015149Y003208D01*
X015149Y003085D01*
X015087Y003023D01*
X015025Y003023D01*
X014964Y003085D01*
X015779Y003085D02*
X015840Y003023D01*
X015779Y003085D02*
X015779Y003208D01*
X015840Y003270D01*
X015902Y003270D01*
X015964Y003208D01*
X015964Y003085D01*
X016025Y003023D01*
X016087Y003023D01*
X016149Y003085D01*
X016149Y003208D01*
X016087Y003270D01*
X016087Y003391D02*
X015840Y003391D01*
X015779Y003453D01*
X015779Y003576D01*
X015840Y003638D01*
X015779Y003759D02*
X015779Y004006D01*
X015779Y003759D02*
X016149Y003759D01*
X016087Y003638D02*
X016149Y003576D01*
X016149Y003453D01*
X016087Y003391D01*
X016779Y003391D02*
X017025Y003391D01*
X017025Y003576D01*
X016964Y003638D01*
X016779Y003638D01*
X016840Y003759D02*
X016964Y003759D01*
X017025Y003821D01*
X017025Y004006D01*
X017149Y004006D02*
X016779Y004006D01*
X016779Y003821D01*
X016840Y003759D01*
X016840Y003270D02*
X016964Y003270D01*
X016964Y003146D01*
X017087Y003023D02*
X016840Y003023D01*
X016779Y003085D01*
X016779Y003208D01*
X016840Y003270D01*
X017087Y003270D02*
X017149Y003208D01*
X017149Y003085D01*
X017087Y003023D01*
X018779Y003146D02*
X018902Y003270D01*
X019149Y003270D01*
X019025Y003453D02*
X018964Y003391D01*
X018840Y003391D01*
X018779Y003453D01*
X018779Y003638D01*
X018840Y003759D02*
X018779Y003821D01*
X018779Y004006D01*
X019025Y004006D02*
X019025Y003821D01*
X018964Y003759D01*
X018840Y003759D01*
X019025Y003638D02*
X019025Y003453D01*
X018779Y003146D02*
X018902Y003023D01*
X019149Y003023D01*
X019779Y003023D02*
X020025Y003023D01*
X020149Y003146D01*
X020025Y003270D01*
X019779Y003270D01*
X019779Y003391D02*
X020149Y003391D01*
X020149Y003576D01*
X020087Y003638D01*
X019964Y003638D01*
X019902Y003576D01*
X019902Y003391D01*
X019902Y003515D02*
X019779Y003638D01*
X019779Y003759D02*
X019779Y004006D01*
X019779Y004128D02*
X020149Y004128D01*
X020149Y004375D01*
X019964Y004251D02*
X019964Y004128D01*
X020149Y004006D02*
X020149Y003759D01*
X019779Y003759D01*
X019964Y003759D02*
X019964Y003883D01*
X020779Y003821D02*
X020779Y003945D01*
X020840Y004006D01*
X021087Y004006D01*
X021149Y003945D01*
X021149Y003821D01*
X021087Y003759D01*
X020840Y003759D01*
X020779Y003821D01*
X020840Y003638D02*
X020779Y003576D01*
X020779Y003453D01*
X020840Y003391D01*
X021087Y003391D01*
X021149Y003453D01*
X021149Y003576D01*
X021087Y003638D01*
X021149Y003270D02*
X020902Y003270D01*
X020779Y003146D01*
X020902Y003023D01*
X021149Y003023D01*
X021779Y003023D02*
X022149Y003023D01*
X022149Y003208D01*
X022087Y003270D01*
X021964Y003270D01*
X021902Y003208D01*
X021902Y003023D01*
X021840Y003391D02*
X021779Y003453D01*
X021779Y003576D01*
X021840Y003638D01*
X021964Y003638D01*
X021964Y003515D01*
X022087Y003638D02*
X022149Y003576D01*
X022149Y003453D01*
X022087Y003391D01*
X021840Y003391D01*
X021840Y003759D02*
X021779Y003821D01*
X021779Y003945D01*
X021840Y004006D01*
X022087Y004006D01*
X022149Y003945D01*
X022149Y003821D01*
X022087Y003759D01*
X021840Y003759D01*
X021840Y004128D02*
X021779Y004189D01*
X021779Y004313D01*
X021840Y004375D01*
X022087Y004375D01*
X022149Y004313D01*
X022149Y004189D01*
X022087Y004128D01*
X021840Y004128D01*
X021779Y004496D02*
X021779Y004681D01*
X021840Y004743D01*
X022087Y004743D01*
X022149Y004681D01*
X022149Y004496D01*
X021779Y004496D01*
X021149Y004375D02*
X021025Y004251D01*
X021149Y004128D01*
X020779Y004128D01*
X020779Y004375D02*
X021149Y004375D01*
X022779Y004375D02*
X022779Y004128D01*
X023149Y004128D01*
X023149Y004006D02*
X022840Y004006D01*
X022779Y003945D01*
X022779Y003821D01*
X022840Y003759D01*
X023149Y003759D01*
X023149Y003638D02*
X023149Y003391D01*
X022779Y003391D01*
X022964Y003391D02*
X022964Y003515D01*
X022964Y003270D02*
X022902Y003208D01*
X022902Y003023D01*
X022779Y003023D02*
X023149Y003023D01*
X023149Y003208D01*
X023087Y003270D01*
X022964Y003270D01*
X023779Y003208D02*
X023779Y003085D01*
X023840Y003023D01*
X023964Y003085D02*
X023964Y003208D01*
X023902Y003270D01*
X023840Y003270D01*
X023779Y003208D01*
X023779Y003391D02*
X023779Y003576D01*
X023840Y003638D01*
X024087Y003638D01*
X024149Y003576D01*
X024149Y003391D01*
X023779Y003391D01*
X024087Y003270D02*
X024149Y003208D01*
X024149Y003085D01*
X024087Y003023D01*
X024025Y003023D01*
X023964Y003085D01*
X024779Y003085D02*
X024840Y003023D01*
X024779Y003085D02*
X024779Y003208D01*
X024840Y003270D01*
X024902Y003270D01*
X024964Y003208D01*
X024964Y003085D01*
X025025Y003023D01*
X025087Y003023D01*
X025149Y003085D01*
X025149Y003208D01*
X025087Y003270D01*
X025087Y003391D02*
X024840Y003391D01*
X024779Y003453D01*
X024779Y003576D01*
X024840Y003638D01*
X024779Y003759D02*
X024779Y004006D01*
X024779Y003759D02*
X025149Y003759D01*
X025087Y003638D02*
X025149Y003576D01*
X025149Y003453D01*
X025087Y003391D01*
X025779Y003391D02*
X026025Y003391D01*
X026025Y003576D01*
X025964Y003638D01*
X025779Y003638D01*
X025840Y003759D02*
X025964Y003759D01*
X026025Y003821D01*
X026025Y004006D01*
X026149Y004006D02*
X025779Y004006D01*
X025779Y003821D01*
X025840Y003759D01*
X025840Y003270D02*
X025964Y003270D01*
X025964Y003146D01*
X026087Y003023D02*
X025840Y003023D01*
X025779Y003085D01*
X025779Y003208D01*
X025840Y003270D01*
X026087Y003270D02*
X026149Y003208D01*
X026149Y003085D01*
X026087Y003023D01*
X024149Y003883D02*
X024025Y003759D01*
X023779Y003759D01*
X023964Y003759D02*
X023964Y004006D01*
X024025Y004006D02*
X023779Y004006D01*
X024025Y004006D02*
X024149Y003883D01*
X023149Y004496D02*
X022779Y004496D01*
X022779Y004743D01*
X022249Y006172D02*
X021879Y006172D01*
X021249Y007094D02*
X021187Y007156D01*
X021249Y007277D02*
X021249Y007401D01*
X021249Y007339D02*
X020879Y007339D01*
X020879Y007277D02*
X020879Y007401D01*
X024879Y006564D02*
X025125Y006317D01*
X019964Y003270D02*
X019964Y003023D01*
X015149Y003883D02*
X015025Y004006D01*
X014779Y004006D01*
X014964Y004006D02*
X014964Y003759D01*
X015025Y003759D02*
X015149Y003883D01*
X015025Y003759D02*
X014779Y003759D01*
X014149Y004496D02*
X013779Y004496D01*
X013779Y004743D01*
X015879Y006073D02*
X016249Y006073D01*
X016249Y006196D02*
X016249Y005949D01*
X016125Y006317D02*
X015879Y006564D01*
X016125Y006564D02*
X015879Y006317D01*
X016125Y006686D02*
X016249Y006809D01*
X008249Y006861D02*
X008187Y006800D01*
X007940Y006800D01*
X007879Y006861D01*
X007879Y006985D01*
X007940Y007046D01*
X008187Y007046D01*
X008249Y006985D01*
X008249Y006861D01*
X008187Y006678D02*
X008249Y006616D01*
X008249Y006493D01*
X008187Y006431D01*
X007940Y006431D01*
X007879Y006493D01*
X007879Y006616D01*
X007940Y006678D01*
X008064Y006678D01*
X008064Y006555D01*
X008064Y006310D02*
X008002Y006248D01*
X008002Y006063D01*
X007879Y006063D02*
X008249Y006063D01*
X008249Y006248D01*
X008187Y006310D01*
X008064Y006310D01*
X008187Y007168D02*
X007940Y007168D01*
X007879Y007230D01*
X007879Y007353D01*
X007940Y007415D01*
X008187Y007415D01*
X008249Y007353D01*
X008249Y007230D01*
X008187Y007168D01*
X008249Y007536D02*
X007879Y007536D01*
X007879Y007721D01*
X007940Y007783D01*
X008187Y007783D01*
X008249Y007721D01*
X008249Y007536D01*
X008125Y007905D02*
X008125Y008090D01*
X008125Y008151D01*
X008002Y008151D02*
X008002Y007905D01*
X007879Y007966D02*
X008249Y007966D01*
X008249Y008090D02*
X007879Y008090D01*
X004149Y008050D02*
X003779Y008050D01*
X003779Y007926D02*
X004149Y007926D01*
X004025Y007864D02*
X004025Y008050D01*
X004025Y008111D01*
X003902Y008111D02*
X003902Y007864D01*
X003779Y007743D02*
X003779Y007496D01*
X004149Y007496D01*
X004149Y007128D02*
X003779Y007128D01*
X003779Y007375D01*
X003840Y007006D02*
X004149Y007006D01*
X004149Y006759D02*
X003840Y006759D01*
X003779Y006821D01*
X003779Y006945D01*
X003840Y007006D01*
X004149Y006638D02*
X004149Y006391D01*
X003779Y006391D01*
X003964Y006391D02*
X003964Y006515D01*
X003964Y006270D02*
X003902Y006208D01*
X003902Y006023D01*
X003779Y006023D02*
X004149Y006023D01*
X004149Y006208D01*
X004087Y006270D01*
X003964Y006270D01*
X004879Y004401D02*
X005249Y004401D01*
X005249Y004155D02*
X004879Y004155D01*
X005002Y004278D01*
X004879Y004401D01*
X004940Y004033D02*
X004879Y003971D01*
X004879Y003848D01*
X004940Y003786D01*
X004879Y003665D02*
X005249Y003665D01*
X005187Y003786D02*
X005125Y003786D01*
X005064Y003848D01*
X005064Y003971D01*
X005002Y004033D01*
X004940Y004033D01*
X005187Y004033D02*
X005249Y003971D01*
X005249Y003848D01*
X005187Y003786D01*
X004879Y003665D02*
X005249Y003418D01*
X004879Y003418D01*
X004940Y003296D02*
X005249Y003296D01*
X005249Y003050D02*
X004940Y003050D01*
X004879Y003111D01*
X004879Y003235D01*
X004940Y003296D01*
X004817Y002928D02*
X004817Y002681D01*
X004940Y002560D02*
X004879Y002498D01*
X004879Y002375D01*
X004940Y002313D01*
X005187Y002313D01*
X005249Y002375D01*
X005249Y002498D01*
X005187Y002560D01*
X005187Y002192D02*
X005249Y002130D01*
X005249Y002006D01*
X005187Y001945D01*
X004940Y001945D01*
X004879Y002006D01*
X004879Y002130D01*
X004940Y002192D01*
X005002Y001823D02*
X005249Y001823D01*
X005249Y001576D02*
X005002Y001576D01*
X004879Y001700D01*
X005002Y001823D01*
X005879Y002068D02*
X006002Y001945D01*
X006249Y001945D01*
X006249Y002192D02*
X006002Y002192D01*
X005879Y002068D01*
X005879Y002313D02*
X006249Y002313D01*
X006249Y002498D01*
X006187Y002560D01*
X006064Y002560D01*
X006002Y002498D01*
X006002Y002313D01*
X006002Y002436D02*
X005879Y002560D01*
X005879Y002681D02*
X005879Y002928D01*
X005940Y003050D02*
X005879Y003111D01*
X005879Y003235D01*
X005940Y003296D01*
X006064Y003296D01*
X006064Y003173D01*
X006187Y003050D02*
X005940Y003050D01*
X006187Y003050D02*
X006249Y003111D01*
X006249Y003235D01*
X006187Y003296D01*
X006187Y003418D02*
X005940Y003418D01*
X005879Y003480D01*
X005879Y003603D01*
X005940Y003665D01*
X006187Y003665D01*
X006249Y003603D01*
X006249Y003480D01*
X006187Y003418D01*
X006879Y003480D02*
X006879Y003603D01*
X006940Y003665D01*
X007249Y003665D01*
X007187Y003786D02*
X007125Y003786D01*
X007064Y003848D01*
X007064Y003971D01*
X007002Y004033D01*
X006940Y004033D01*
X006879Y003971D01*
X006879Y003848D01*
X006940Y003786D01*
X007187Y003786D02*
X007249Y003848D01*
X007249Y003971D01*
X007187Y004033D01*
X007249Y004155D02*
X006879Y004155D01*
X006879Y004340D01*
X006940Y004401D01*
X007002Y004401D01*
X007064Y004340D01*
X007064Y004155D01*
X007064Y004340D02*
X007125Y004401D01*
X007187Y004401D01*
X007249Y004340D01*
X007249Y004155D01*
X006249Y004155D02*
X006249Y004401D01*
X006249Y004278D02*
X005879Y004278D01*
X005940Y004033D02*
X006249Y004033D01*
X006249Y003786D02*
X005940Y003786D01*
X005879Y003848D01*
X005879Y003971D01*
X005940Y004033D01*
X006879Y003480D02*
X006940Y003418D01*
X007249Y003418D01*
X007249Y003296D02*
X007002Y003296D01*
X006879Y003173D01*
X007002Y003050D01*
X007249Y003050D01*
X006249Y002928D02*
X006249Y002681D01*
X005879Y002681D01*
X006064Y002681D02*
X006064Y002805D01*
X006002Y014313D02*
X005879Y014436D01*
X006002Y014560D01*
X006249Y014560D01*
X006249Y014681D02*
X005940Y014681D01*
X005879Y014743D01*
X005879Y014866D01*
X005940Y014928D01*
X006249Y014928D01*
X006249Y015050D02*
X005879Y015296D01*
X006249Y015296D01*
X006249Y015418D02*
X006249Y015603D01*
X006187Y015665D01*
X006064Y015665D01*
X006002Y015603D01*
X006002Y015418D01*
X006002Y015541D02*
X005879Y015665D01*
X005879Y015786D02*
X005879Y016033D01*
X005940Y016155D02*
X005879Y016216D01*
X005879Y016340D01*
X005940Y016401D01*
X006064Y016401D01*
X006064Y016278D01*
X006187Y016401D02*
X006249Y016340D01*
X006249Y016216D01*
X006187Y016155D01*
X005940Y016155D01*
X006064Y015910D02*
X006064Y015786D01*
X006249Y015786D02*
X005879Y015786D01*
X006249Y015786D02*
X006249Y016033D01*
X006879Y016033D02*
X007249Y016033D01*
X007064Y016155D02*
X007064Y016401D01*
X007187Y016278D02*
X006940Y016278D01*
X006879Y016033D02*
X007249Y015786D01*
X006879Y015786D01*
X006879Y015664D02*
X006879Y015541D01*
X006879Y015602D02*
X007249Y015602D01*
X007249Y015541D02*
X007249Y015664D01*
X007249Y015419D02*
X007002Y015419D01*
X006879Y015296D01*
X007002Y015172D01*
X007249Y015172D01*
X007879Y015173D02*
X008002Y015050D01*
X008249Y015050D01*
X008002Y015296D02*
X007879Y015173D01*
X008002Y015296D02*
X008249Y015296D01*
X008249Y015418D02*
X008249Y015603D01*
X008187Y015665D01*
X008064Y015665D01*
X008002Y015603D01*
X008002Y015418D01*
X008002Y015541D02*
X007879Y015665D01*
X007879Y015786D02*
X007879Y016033D01*
X007940Y016155D02*
X007879Y016216D01*
X007879Y016340D01*
X007940Y016401D01*
X008064Y016401D01*
X008064Y016278D01*
X008187Y016155D02*
X007940Y016155D01*
X008187Y016155D02*
X008249Y016216D01*
X008249Y016340D01*
X008187Y016401D01*
X008249Y016033D02*
X008249Y015786D01*
X007879Y015786D01*
X008064Y015786D02*
X008064Y015910D01*
X007879Y015418D02*
X008249Y015418D01*
X006249Y015418D02*
X005879Y015418D01*
X005879Y015050D02*
X006249Y015050D01*
X006249Y014313D02*
X006002Y014313D01*
X005249Y015172D02*
X005002Y015172D01*
X004879Y015296D01*
X005002Y015419D01*
X005249Y015419D01*
X005249Y015541D02*
X005249Y015664D01*
X005249Y015602D02*
X004879Y015602D01*
X004879Y015541D02*
X004879Y015664D01*
X004879Y015786D02*
X005249Y015786D01*
X004879Y016033D01*
X005249Y016033D01*
X005064Y016155D02*
X005064Y016401D01*
X004249Y016340D02*
X004249Y016155D01*
X003879Y016155D01*
X003879Y016340D01*
X003940Y016401D01*
X004187Y016401D01*
X004249Y016340D01*
X004249Y016033D02*
X003879Y016033D01*
X004249Y015786D01*
X003879Y015786D01*
X003940Y015665D02*
X004064Y015665D01*
X004064Y015541D01*
X004187Y015418D02*
X003940Y015418D01*
X003879Y015480D01*
X003879Y015603D01*
X003940Y015665D01*
X004187Y015665D02*
X004249Y015603D01*
X004249Y015480D01*
X004187Y015418D01*
X009779Y019523D02*
X010025Y019770D01*
X010087Y019770D01*
X010149Y019708D01*
X010149Y019585D01*
X010087Y019523D01*
X009779Y019523D02*
X009779Y019770D01*
X009840Y019891D02*
X009779Y019953D01*
X009779Y020076D01*
X009840Y020138D01*
X009902Y020138D01*
X009964Y020076D01*
X009964Y020015D01*
X009964Y020076D02*
X010025Y020138D01*
X010087Y020138D01*
X010149Y020076D01*
X010149Y019953D01*
X010087Y019891D01*
X010779Y019891D02*
X010779Y020138D01*
X011025Y020138D02*
X010779Y019891D01*
X010779Y019770D02*
X010779Y019523D01*
X011025Y019770D01*
X011087Y019770D01*
X011149Y019708D01*
X011149Y019585D01*
X011087Y019523D01*
X011087Y019891D02*
X011149Y019953D01*
X011149Y020076D01*
X011087Y020138D01*
X011025Y020138D01*
X011779Y020138D02*
X011779Y019891D01*
X011779Y019770D02*
X011779Y019523D01*
X012025Y019770D01*
X012087Y019770D01*
X012149Y019708D01*
X012149Y019585D01*
X012087Y019523D01*
X012025Y019891D02*
X012149Y020015D01*
X011779Y020015D01*
X012779Y020076D02*
X012779Y019953D01*
X012840Y019891D01*
X013087Y020138D01*
X012840Y020138D01*
X012779Y020076D01*
X012840Y019891D02*
X013087Y019891D01*
X013149Y019953D01*
X013149Y020076D01*
X013087Y020138D01*
X013087Y019770D02*
X013149Y019708D01*
X013149Y019585D01*
X013087Y019523D01*
X013087Y019770D02*
X013025Y019770D01*
X012779Y019523D01*
X012779Y019770D01*
X013779Y019770D02*
X013779Y019523D01*
X013779Y019646D02*
X014149Y019646D01*
X014025Y019523D01*
X014025Y019891D02*
X013964Y019953D01*
X013964Y020138D01*
X014087Y020138D02*
X014149Y020076D01*
X014149Y019953D01*
X014087Y019891D01*
X014025Y019891D01*
X013840Y019891D02*
X013779Y019953D01*
X013779Y020076D01*
X013840Y020138D01*
X014087Y020138D01*
X014779Y020076D02*
X014779Y019953D01*
X014840Y019891D01*
X014902Y019891D01*
X014964Y019953D01*
X014964Y020076D01*
X014902Y020138D01*
X014840Y020138D01*
X014779Y020076D01*
X014964Y020076D02*
X015025Y020138D01*
X015087Y020138D01*
X015149Y020076D01*
X015149Y019953D01*
X015087Y019891D01*
X015025Y019891D01*
X014964Y019953D01*
X014779Y019770D02*
X014779Y019523D01*
X014779Y019646D02*
X015149Y019646D01*
X015025Y019523D01*
X015779Y019523D02*
X015779Y019770D01*
X015779Y019891D02*
X015840Y019891D01*
X016087Y020138D01*
X016149Y020138D01*
X016149Y019891D01*
X016149Y019646D02*
X015779Y019646D01*
X016025Y019523D02*
X016149Y019646D01*
X016779Y019646D02*
X017149Y019646D01*
X017025Y019523D01*
X016779Y019523D02*
X016779Y019770D01*
X016840Y019891D02*
X016779Y019953D01*
X016779Y020076D01*
X016840Y020138D01*
X016902Y020138D01*
X016964Y020076D01*
X016964Y019891D01*
X016840Y019891D01*
X016964Y019891D02*
X017087Y020015D01*
X017149Y020138D01*
X018919Y020076D02*
X019289Y020076D01*
X019289Y020200D02*
X018919Y020200D01*
X019042Y020261D02*
X019042Y020015D01*
X019042Y019893D02*
X018980Y019893D01*
X018919Y019831D01*
X018919Y019708D01*
X018980Y019646D01*
X018980Y019525D02*
X018919Y019463D01*
X018919Y019340D01*
X018980Y019278D01*
X019104Y019340D02*
X019104Y019463D01*
X019042Y019525D01*
X018980Y019525D01*
X019104Y019708D02*
X019104Y019831D01*
X019042Y019893D01*
X019165Y020015D02*
X019165Y020200D01*
X019165Y020261D01*
X019227Y019893D02*
X019289Y019831D01*
X019289Y019708D01*
X019227Y019646D01*
X019165Y019646D01*
X019104Y019708D01*
X019227Y019525D02*
X019289Y019463D01*
X019289Y019340D01*
X019227Y019278D01*
X019165Y019278D01*
X019104Y019340D01*
X019799Y019379D02*
X020169Y019379D01*
X020045Y019256D01*
X020169Y019132D01*
X019799Y019132D01*
X019860Y019501D02*
X019799Y019562D01*
X019799Y019686D01*
X019860Y019748D01*
X020107Y019748D01*
X020169Y019686D01*
X020169Y019562D01*
X020107Y019501D01*
X019860Y019501D01*
X019860Y019869D02*
X019799Y019931D01*
X019799Y020054D01*
X019860Y020116D01*
X019922Y020116D01*
X019984Y020054D01*
X019984Y019931D01*
X020045Y019869D01*
X020107Y019869D01*
X020169Y019931D01*
X020169Y020054D01*
X020107Y020116D01*
X020169Y020237D02*
X020169Y020361D01*
X020169Y020299D02*
X019799Y020299D01*
X019799Y020237D02*
X019799Y020361D01*
X020799Y020260D02*
X020860Y020321D01*
X021107Y020321D01*
X021169Y020260D01*
X021169Y020136D01*
X021107Y020075D01*
X020860Y020075D01*
X020799Y020136D01*
X020799Y020260D01*
X020860Y019953D02*
X020799Y019891D01*
X020799Y019768D01*
X020860Y019706D01*
X020799Y019584D02*
X020799Y019461D01*
X020799Y019522D02*
X021169Y019522D01*
X021169Y019461D02*
X021169Y019584D01*
X021107Y019706D02*
X021045Y019706D01*
X020984Y019768D01*
X020984Y019891D01*
X020922Y019953D01*
X020860Y019953D01*
X021107Y019953D02*
X021169Y019891D01*
X021169Y019768D01*
X021107Y019706D01*
X021169Y019339D02*
X020799Y019339D01*
X020799Y019092D02*
X021169Y019092D01*
X021045Y019216D01*
X021169Y019339D01*
X021839Y019380D02*
X021900Y019318D01*
X021839Y019380D02*
X021839Y019503D01*
X021900Y019565D01*
X021962Y019565D01*
X022024Y019503D01*
X022024Y019380D01*
X022085Y019318D01*
X022147Y019318D01*
X022209Y019380D01*
X022209Y019503D01*
X022147Y019565D01*
X022147Y019686D02*
X021900Y019686D01*
X021839Y019748D01*
X021839Y019871D01*
X021900Y019933D01*
X021839Y020055D02*
X022209Y020055D01*
X022147Y019933D02*
X022209Y019871D01*
X022209Y019748D01*
X022147Y019686D01*
X021962Y020055D02*
X022209Y020301D01*
X022024Y020116D02*
X021839Y020301D01*
X022799Y020321D02*
X022799Y020075D01*
X022799Y019953D02*
X022799Y019706D01*
X022799Y019830D02*
X023169Y019830D01*
X023045Y019706D01*
X023045Y020075D02*
X023169Y020198D01*
X022799Y020198D01*
X023799Y020216D02*
X023860Y020155D01*
X024107Y020401D01*
X023860Y020401D01*
X023799Y020340D01*
X023799Y020216D01*
X023860Y020155D02*
X024107Y020155D01*
X024169Y020216D01*
X024169Y020340D01*
X024107Y020401D01*
X023799Y020033D02*
X023799Y019786D01*
X023799Y019910D02*
X024169Y019910D01*
X024045Y019786D01*
X024799Y020076D02*
X024799Y020200D01*
X024860Y020261D01*
X025107Y020261D01*
X025169Y020200D01*
X025169Y020076D01*
X025107Y020015D01*
X025045Y020015D01*
X024984Y020076D01*
X024984Y020261D01*
X024799Y020076D02*
X024860Y020015D01*
X025839Y020076D02*
X025900Y020015D01*
X025962Y020015D01*
X026024Y020076D01*
X026024Y020200D01*
X025962Y020261D01*
X025900Y020261D01*
X025839Y020200D01*
X025839Y020076D01*
X026024Y020076D02*
X026085Y020015D01*
X026147Y020015D01*
X026209Y020076D01*
X026209Y020200D01*
X026147Y020261D01*
X026085Y020261D01*
X026024Y020200D01*
X027779Y020256D02*
X027779Y020009D01*
X027779Y019888D02*
X028025Y019641D01*
X027964Y019520D02*
X027902Y019458D01*
X027902Y019273D01*
X027902Y019396D02*
X027779Y019520D01*
X027779Y019641D02*
X028025Y019888D01*
X028025Y020009D02*
X028149Y020133D01*
X027779Y020133D01*
X027964Y019520D02*
X028087Y019520D01*
X028149Y019458D01*
X028149Y019273D01*
X027779Y019273D01*
X029029Y019406D02*
X029399Y019406D01*
X029399Y019283D02*
X029399Y019530D01*
X029275Y019651D02*
X029029Y019898D01*
X029029Y020019D02*
X029029Y020266D01*
X029029Y020143D02*
X029399Y020143D01*
X029275Y020019D01*
X029275Y019898D02*
X029029Y019651D01*
X029779Y020085D02*
X029840Y020023D01*
X029779Y020085D02*
X029779Y020208D01*
X029840Y020270D01*
X029964Y020270D01*
X030025Y020208D01*
X030025Y020146D01*
X029964Y020023D01*
X030149Y020023D01*
X030149Y020270D01*
X030779Y020208D02*
X031149Y020208D01*
X030964Y020023D01*
X030964Y020270D01*
X031779Y020208D02*
X031779Y020085D01*
X031840Y020023D01*
X031964Y020146D02*
X031964Y020208D01*
X031902Y020270D01*
X031840Y020270D01*
X031779Y020208D01*
X031964Y020208D02*
X032025Y020270D01*
X032087Y020270D01*
X032149Y020208D01*
X032149Y020085D01*
X032087Y020023D01*
X032779Y020023D02*
X032779Y020270D01*
X033025Y020270D02*
X032779Y020023D01*
X033087Y020023D02*
X033149Y020085D01*
X033149Y020208D01*
X033087Y020270D01*
X033025Y020270D01*
X033939Y020270D02*
X033939Y020023D01*
X033939Y020146D02*
X034309Y020146D01*
X034185Y020023D01*
X034899Y020085D02*
X034960Y020023D01*
X035207Y020270D01*
X034960Y020270D01*
X034899Y020208D01*
X034899Y020085D01*
X034960Y020023D02*
X035207Y020023D01*
X035269Y020085D01*
X035269Y020208D01*
X035207Y020270D01*
D12*
X005234Y019858D02*
X004807Y019858D01*
X004589Y019751D02*
X004376Y019538D01*
X004162Y019751D01*
X004162Y020178D01*
X003944Y019965D02*
X003838Y019965D01*
X003838Y019538D01*
X003944Y019538D02*
X003731Y019538D01*
X003515Y019538D02*
X003515Y019965D01*
X003195Y019965D01*
X003088Y019858D01*
X003088Y019538D01*
X003195Y018965D02*
X003088Y018858D01*
X003088Y018538D01*
X003515Y018538D02*
X003515Y018965D01*
X003195Y018965D01*
X003838Y018965D02*
X003838Y018538D01*
X003944Y018538D02*
X003731Y018538D01*
X004162Y018751D02*
X004162Y019178D01*
X003944Y018965D02*
X003838Y018965D01*
X003838Y019178D02*
X003838Y019285D01*
X004162Y018751D02*
X004376Y018538D01*
X004589Y018751D01*
X004589Y019178D01*
X004807Y018858D02*
X005234Y018858D01*
X005020Y019645D02*
X005020Y020072D01*
X004589Y020178D02*
X004589Y019751D01*
X003838Y020178D02*
X003838Y020285D01*
D13*
X005639Y011633D03*
D14*
X003889Y010258D03*
D15*
X007264Y010258D03*
D16*
X005639Y008758D03*
D17*
X006414Y007658D02*
X006814Y007658D01*
X008014Y008858D01*
X008014Y011658D01*
X006814Y012858D01*
X006414Y012858D01*
X004614Y012858D02*
X003014Y012858D01*
X003014Y012558D01*
X003014Y008058D01*
X003014Y007658D01*
X004614Y007658D01*
X003014Y008058D02*
X003121Y008183D01*
X003221Y008313D01*
X003315Y008447D01*
X003403Y008586D01*
X003484Y008730D01*
X003557Y008877D01*
X003623Y009027D01*
X003682Y009180D01*
X003734Y009336D01*
X003777Y009495D01*
X003813Y009655D01*
X003841Y009817D01*
X003861Y009980D01*
X003873Y010144D01*
X003877Y010308D01*
X003873Y010472D01*
X003861Y010636D01*
X003841Y010799D01*
X003813Y010961D01*
X003777Y011121D01*
X003734Y011280D01*
X003682Y011436D01*
X003623Y011589D01*
X003557Y011739D01*
X003484Y011886D01*
X003403Y012030D01*
X003315Y012169D01*
X003221Y012303D01*
X003121Y012433D01*
X003014Y012558D01*
D18*
X004210Y013271D02*
X004517Y013271D01*
X004364Y013118D02*
X004364Y013424D01*
X006464Y010324D02*
X006464Y010018D01*
X005314Y009264D02*
X005314Y008957D01*
X005314Y009111D02*
X005774Y009111D01*
X005620Y008957D01*
X005620Y008804D02*
X005544Y008727D01*
X005544Y008497D01*
X005774Y008497D02*
X005774Y008727D01*
X005697Y008804D01*
X005620Y008804D01*
X005544Y008727D02*
X005467Y008804D01*
X005390Y008804D01*
X005314Y008727D01*
X005314Y008497D01*
X005774Y008497D01*
X004364Y007124D02*
X004364Y006818D01*
X004517Y006971D02*
X004210Y006971D01*
M02*
