%
M48
M72
T01C0.0150
T02C0.0320
T03C0.0354
T04C0.0394
T05C0.0400
T06C0.1250
%
T01
X1377Y4088
X2397Y4368
X5897Y6768
X6417Y6428
X5917Y7428
X6757Y7808
X7857Y7568
X9797Y7688
X9797Y8088
X10797Y7648
X10917Y8248
X11117Y8648
X11797Y9168
X12437Y8248
X13777Y7168
X14417Y7568
X12737Y7008
X11697Y6848
X10737Y6688
X9777Y6528
X8977Y6208
X12737Y4008
X13777Y4168
X14417Y3088
X11697Y3848
X10737Y3688
X9777Y3528
X8977Y3208
X17317Y4448
X18817Y3608
X19777Y3768
X20737Y3928
X21777Y4088
X22707Y4248
X23497Y6008
X22707Y7248
X22217Y7528
X21777Y7088
X20737Y6928
X19777Y6768
X18817Y6608
X17777Y6288
X17717Y7688
X17397Y8538
X19517Y8328
X19517Y7728
X16377Y10248
X17917Y11068
X19517Y10608
X19997Y10328
X20357Y11888
X20997Y13808
X17357Y16808
X16357Y16928
X15317Y16928
X18357Y16968
X12277Y14168
X9077Y13488
X7517Y14748
X6457Y14948
X6957Y15968
X8997Y16408
X9197Y18688
X4377Y15708
X4677Y14948
X1857Y15228
X5957Y12808
X3637Y11448
X5717Y10968
X6277Y9888
X7117Y9468
X7297Y9088
X6677Y9048
X7857Y9188
X9277Y10188
X5397Y8908
X13397Y11248
X14117Y10088
X24377Y9488
X25557Y10428
X26117Y9428
X26837Y9428
X28317Y9128
X28597Y9488
X29957Y9448
X30137Y10288
X31117Y10608
X32177Y9428
X30117Y8528
X29437Y8248
X30837Y8088
X31777Y7328
X30737Y7168
X29697Y7008
X28737Y6848
X27777Y6688
X26737Y6368
X25997Y7868
X29117Y11368
X32277Y15968
X32237Y16368
X30997Y17088
X28157Y17088
X31277Y19128
X33437Y4568
X34557Y4248
X31777Y4328
X30737Y4168
X29697Y4008
X28737Y3848
X27777Y3688
X26737Y3368
X17777Y3288
T02
X17837Y12508
X16837Y12508
X15837Y12508
X14837Y12508
X13837Y12508
X12837Y12508
X11837Y12508
X10837Y12508
X18837Y12508
X19837Y12508
X20837Y12508
X21837Y12508
X22837Y12508
X23837Y12508
X24837Y12508
X25837Y12508
X26837Y12508
X27837Y12508
X28837Y12508
X29837Y12508
X29837Y18508
X28837Y18508
X27837Y18508
X26837Y18508
X25837Y18508
X24837Y18508
X23837Y18508
X22837Y18508
X21837Y18508
X20837Y18508
X19837Y18508
X18837Y18508
X17837Y18508
X16837Y18508
X15837Y18508
X14837Y18508
X13837Y18508
X12837Y18508
X11837Y18508
X10837Y18508
T03
X33837Y16947
X33837Y15569
T04
X5779Y18892
X5779Y19876
X3811Y19876
X3811Y18892
T05
X3837Y17258
X4837Y17258
X5837Y17258
X2837Y17258
X1837Y17258
X7837Y21258
X8837Y21258
X9837Y21258
X10837Y21258
X11837Y21258
X12837Y21258
X13837Y21258
X14837Y21258
X16837Y21258
X17837Y21258
X18837Y21258
X19837Y21258
X20837Y21258
X21837Y21258
X22837Y21258
X23837Y21258
X25837Y21258
X26837Y21258
X27837Y21258
X28837Y21258
X29837Y21258
X30837Y21258
X31837Y21258
X32837Y21258
X34987Y13558
X34987Y12558
X34987Y11558
X32837Y5258
X31837Y5258
X30837Y5258
X29837Y5258
X28837Y5258
X27837Y5258
X26837Y5258
X25837Y5258
X23837Y5258
X22837Y5258
X21837Y5258
X20837Y5258
X19837Y5258
X18837Y5258
X17837Y5258
X16837Y5258
X14837Y5258
X13837Y5258
X12837Y5258
X11837Y5258
X10837Y5258
X9837Y5258
X8837Y5258
X7837Y5258
X5837Y5258
X4837Y5258
X3837Y5258
X2837Y5258
X1837Y5258
X4996Y2708
X6177Y2708
X7837Y2258
X8837Y2258
X9837Y2258
X10837Y2258
X11837Y2258
X12837Y2258
X13837Y2258
X14837Y2258
X16837Y2258
X17837Y2258
X18837Y2258
X19837Y2258
X20837Y2258
X21837Y2258
X22837Y2258
X23837Y2258
X25837Y2258
X26837Y2258
X27837Y2258
X28837Y2258
X29837Y2258
X30837Y2258
X31837Y2258
X32837Y2258
T06
X1837Y2008
X1837Y21508
X34837Y21508
X34837Y2008
M30
