G75*
G70*
%OFA0B0*%
%FSLAX24Y24*%
%IPPOS*%
%LPD*%
%AMOC8*
5,1,8,0,0,1.08239X$1,22.5*
%
%ADD10C,0.0000*%
D10*
X000837Y001008D02*
X000837Y022508D01*
X035837Y022508D01*
X035837Y001008D01*
X000837Y001008D01*
X001212Y002008D02*
X001214Y002058D01*
X001220Y002107D01*
X001230Y002156D01*
X001243Y002203D01*
X001261Y002250D01*
X001282Y002295D01*
X001306Y002338D01*
X001334Y002379D01*
X001365Y002418D01*
X001399Y002454D01*
X001436Y002488D01*
X001476Y002518D01*
X001517Y002545D01*
X001561Y002569D01*
X001606Y002589D01*
X001653Y002605D01*
X001701Y002618D01*
X001750Y002627D01*
X001800Y002632D01*
X001849Y002633D01*
X001899Y002630D01*
X001948Y002623D01*
X001997Y002612D01*
X002044Y002598D01*
X002090Y002579D01*
X002135Y002557D01*
X002178Y002532D01*
X002218Y002503D01*
X002256Y002471D01*
X002292Y002437D01*
X002325Y002399D01*
X002354Y002359D01*
X002380Y002317D01*
X002403Y002273D01*
X002422Y002227D01*
X002438Y002180D01*
X002450Y002131D01*
X002458Y002082D01*
X002462Y002033D01*
X002462Y001983D01*
X002458Y001934D01*
X002450Y001885D01*
X002438Y001836D01*
X002422Y001789D01*
X002403Y001743D01*
X002380Y001699D01*
X002354Y001657D01*
X002325Y001617D01*
X002292Y001579D01*
X002256Y001545D01*
X002218Y001513D01*
X002178Y001484D01*
X002135Y001459D01*
X002090Y001437D01*
X002044Y001418D01*
X001997Y001404D01*
X001948Y001393D01*
X001899Y001386D01*
X001849Y001383D01*
X001800Y001384D01*
X001750Y001389D01*
X001701Y001398D01*
X001653Y001411D01*
X001606Y001427D01*
X001561Y001447D01*
X001517Y001471D01*
X001476Y001498D01*
X001436Y001528D01*
X001399Y001562D01*
X001365Y001598D01*
X001334Y001637D01*
X001306Y001678D01*
X001282Y001721D01*
X001261Y001766D01*
X001243Y001813D01*
X001230Y001860D01*
X001220Y001909D01*
X001214Y001958D01*
X001212Y002008D01*
X004796Y002708D02*
X004798Y002736D01*
X004804Y002763D01*
X004813Y002789D01*
X004826Y002814D01*
X004843Y002837D01*
X004862Y002857D01*
X004884Y002874D01*
X004908Y002888D01*
X004934Y002898D01*
X004961Y002905D01*
X004989Y002908D01*
X005017Y002907D01*
X005044Y002902D01*
X005071Y002893D01*
X005096Y002881D01*
X005119Y002866D01*
X005140Y002847D01*
X005158Y002826D01*
X005173Y002802D01*
X005184Y002776D01*
X005192Y002750D01*
X005196Y002722D01*
X005196Y002694D01*
X005192Y002666D01*
X005184Y002640D01*
X005173Y002614D01*
X005158Y002590D01*
X005140Y002569D01*
X005119Y002550D01*
X005096Y002535D01*
X005071Y002523D01*
X005044Y002514D01*
X005017Y002509D01*
X004989Y002508D01*
X004961Y002511D01*
X004934Y002518D01*
X004908Y002528D01*
X004884Y002542D01*
X004862Y002559D01*
X004843Y002579D01*
X004826Y002602D01*
X004813Y002627D01*
X004804Y002653D01*
X004798Y002680D01*
X004796Y002708D01*
X005977Y002708D02*
X005979Y002736D01*
X005985Y002763D01*
X005994Y002789D01*
X006007Y002814D01*
X006024Y002837D01*
X006043Y002857D01*
X006065Y002874D01*
X006089Y002888D01*
X006115Y002898D01*
X006142Y002905D01*
X006170Y002908D01*
X006198Y002907D01*
X006225Y002902D01*
X006252Y002893D01*
X006277Y002881D01*
X006300Y002866D01*
X006321Y002847D01*
X006339Y002826D01*
X006354Y002802D01*
X006365Y002776D01*
X006373Y002750D01*
X006377Y002722D01*
X006377Y002694D01*
X006373Y002666D01*
X006365Y002640D01*
X006354Y002614D01*
X006339Y002590D01*
X006321Y002569D01*
X006300Y002550D01*
X006277Y002535D01*
X006252Y002523D01*
X006225Y002514D01*
X006198Y002509D01*
X006170Y002508D01*
X006142Y002511D01*
X006115Y002518D01*
X006089Y002528D01*
X006065Y002542D01*
X006043Y002559D01*
X006024Y002579D01*
X006007Y002602D01*
X005994Y002627D01*
X005985Y002653D01*
X005979Y002680D01*
X005977Y002708D01*
X033660Y015569D02*
X033662Y015595D01*
X033668Y015621D01*
X033678Y015646D01*
X033691Y015669D01*
X033707Y015689D01*
X033727Y015707D01*
X033749Y015722D01*
X033772Y015734D01*
X033798Y015742D01*
X033824Y015746D01*
X033850Y015746D01*
X033876Y015742D01*
X033902Y015734D01*
X033926Y015722D01*
X033947Y015707D01*
X033967Y015689D01*
X033983Y015669D01*
X033996Y015646D01*
X034006Y015621D01*
X034012Y015595D01*
X034014Y015569D01*
X034012Y015543D01*
X034006Y015517D01*
X033996Y015492D01*
X033983Y015469D01*
X033967Y015449D01*
X033947Y015431D01*
X033925Y015416D01*
X033902Y015404D01*
X033876Y015396D01*
X033850Y015392D01*
X033824Y015392D01*
X033798Y015396D01*
X033772Y015404D01*
X033748Y015416D01*
X033727Y015431D01*
X033707Y015449D01*
X033691Y015469D01*
X033678Y015492D01*
X033668Y015517D01*
X033662Y015543D01*
X033660Y015569D01*
X033660Y016947D02*
X033662Y016973D01*
X033668Y016999D01*
X033678Y017024D01*
X033691Y017047D01*
X033707Y017067D01*
X033727Y017085D01*
X033749Y017100D01*
X033772Y017112D01*
X033798Y017120D01*
X033824Y017124D01*
X033850Y017124D01*
X033876Y017120D01*
X033902Y017112D01*
X033926Y017100D01*
X033947Y017085D01*
X033967Y017067D01*
X033983Y017047D01*
X033996Y017024D01*
X034006Y016999D01*
X034012Y016973D01*
X034014Y016947D01*
X034012Y016921D01*
X034006Y016895D01*
X033996Y016870D01*
X033983Y016847D01*
X033967Y016827D01*
X033947Y016809D01*
X033925Y016794D01*
X033902Y016782D01*
X033876Y016774D01*
X033850Y016770D01*
X033824Y016770D01*
X033798Y016774D01*
X033772Y016782D01*
X033748Y016794D01*
X033727Y016809D01*
X033707Y016827D01*
X033691Y016847D01*
X033678Y016870D01*
X033668Y016895D01*
X033662Y016921D01*
X033660Y016947D01*
X034212Y021508D02*
X034214Y021558D01*
X034220Y021607D01*
X034230Y021656D01*
X034243Y021703D01*
X034261Y021750D01*
X034282Y021795D01*
X034306Y021838D01*
X034334Y021879D01*
X034365Y021918D01*
X034399Y021954D01*
X034436Y021988D01*
X034476Y022018D01*
X034517Y022045D01*
X034561Y022069D01*
X034606Y022089D01*
X034653Y022105D01*
X034701Y022118D01*
X034750Y022127D01*
X034800Y022132D01*
X034849Y022133D01*
X034899Y022130D01*
X034948Y022123D01*
X034997Y022112D01*
X035044Y022098D01*
X035090Y022079D01*
X035135Y022057D01*
X035178Y022032D01*
X035218Y022003D01*
X035256Y021971D01*
X035292Y021937D01*
X035325Y021899D01*
X035354Y021859D01*
X035380Y021817D01*
X035403Y021773D01*
X035422Y021727D01*
X035438Y021680D01*
X035450Y021631D01*
X035458Y021582D01*
X035462Y021533D01*
X035462Y021483D01*
X035458Y021434D01*
X035450Y021385D01*
X035438Y021336D01*
X035422Y021289D01*
X035403Y021243D01*
X035380Y021199D01*
X035354Y021157D01*
X035325Y021117D01*
X035292Y021079D01*
X035256Y021045D01*
X035218Y021013D01*
X035178Y020984D01*
X035135Y020959D01*
X035090Y020937D01*
X035044Y020918D01*
X034997Y020904D01*
X034948Y020893D01*
X034899Y020886D01*
X034849Y020883D01*
X034800Y020884D01*
X034750Y020889D01*
X034701Y020898D01*
X034653Y020911D01*
X034606Y020927D01*
X034561Y020947D01*
X034517Y020971D01*
X034476Y020998D01*
X034436Y021028D01*
X034399Y021062D01*
X034365Y021098D01*
X034334Y021137D01*
X034306Y021178D01*
X034282Y021221D01*
X034261Y021266D01*
X034243Y021313D01*
X034230Y021360D01*
X034220Y021409D01*
X034214Y021458D01*
X034212Y021508D01*
X034212Y002008D02*
X034214Y002058D01*
X034220Y002107D01*
X034230Y002156D01*
X034243Y002203D01*
X034261Y002250D01*
X034282Y002295D01*
X034306Y002338D01*
X034334Y002379D01*
X034365Y002418D01*
X034399Y002454D01*
X034436Y002488D01*
X034476Y002518D01*
X034517Y002545D01*
X034561Y002569D01*
X034606Y002589D01*
X034653Y002605D01*
X034701Y002618D01*
X034750Y002627D01*
X034800Y002632D01*
X034849Y002633D01*
X034899Y002630D01*
X034948Y002623D01*
X034997Y002612D01*
X035044Y002598D01*
X035090Y002579D01*
X035135Y002557D01*
X035178Y002532D01*
X035218Y002503D01*
X035256Y002471D01*
X035292Y002437D01*
X035325Y002399D01*
X035354Y002359D01*
X035380Y002317D01*
X035403Y002273D01*
X035422Y002227D01*
X035438Y002180D01*
X035450Y002131D01*
X035458Y002082D01*
X035462Y002033D01*
X035462Y001983D01*
X035458Y001934D01*
X035450Y001885D01*
X035438Y001836D01*
X035422Y001789D01*
X035403Y001743D01*
X035380Y001699D01*
X035354Y001657D01*
X035325Y001617D01*
X035292Y001579D01*
X035256Y001545D01*
X035218Y001513D01*
X035178Y001484D01*
X035135Y001459D01*
X035090Y001437D01*
X035044Y001418D01*
X034997Y001404D01*
X034948Y001393D01*
X034899Y001386D01*
X034849Y001383D01*
X034800Y001384D01*
X034750Y001389D01*
X034701Y001398D01*
X034653Y001411D01*
X034606Y001427D01*
X034561Y001447D01*
X034517Y001471D01*
X034476Y001498D01*
X034436Y001528D01*
X034399Y001562D01*
X034365Y001598D01*
X034334Y001637D01*
X034306Y001678D01*
X034282Y001721D01*
X034261Y001766D01*
X034243Y001813D01*
X034230Y001860D01*
X034220Y001909D01*
X034214Y001958D01*
X034212Y002008D01*
X001212Y021508D02*
X001214Y021558D01*
X001220Y021607D01*
X001230Y021656D01*
X001243Y021703D01*
X001261Y021750D01*
X001282Y021795D01*
X001306Y021838D01*
X001334Y021879D01*
X001365Y021918D01*
X001399Y021954D01*
X001436Y021988D01*
X001476Y022018D01*
X001517Y022045D01*
X001561Y022069D01*
X001606Y022089D01*
X001653Y022105D01*
X001701Y022118D01*
X001750Y022127D01*
X001800Y022132D01*
X001849Y022133D01*
X001899Y022130D01*
X001948Y022123D01*
X001997Y022112D01*
X002044Y022098D01*
X002090Y022079D01*
X002135Y022057D01*
X002178Y022032D01*
X002218Y022003D01*
X002256Y021971D01*
X002292Y021937D01*
X002325Y021899D01*
X002354Y021859D01*
X002380Y021817D01*
X002403Y021773D01*
X002422Y021727D01*
X002438Y021680D01*
X002450Y021631D01*
X002458Y021582D01*
X002462Y021533D01*
X002462Y021483D01*
X002458Y021434D01*
X002450Y021385D01*
X002438Y021336D01*
X002422Y021289D01*
X002403Y021243D01*
X002380Y021199D01*
X002354Y021157D01*
X002325Y021117D01*
X002292Y021079D01*
X002256Y021045D01*
X002218Y021013D01*
X002178Y020984D01*
X002135Y020959D01*
X002090Y020937D01*
X002044Y020918D01*
X001997Y020904D01*
X001948Y020893D01*
X001899Y020886D01*
X001849Y020883D01*
X001800Y020884D01*
X001750Y020889D01*
X001701Y020898D01*
X001653Y020911D01*
X001606Y020927D01*
X001561Y020947D01*
X001517Y020971D01*
X001476Y020998D01*
X001436Y021028D01*
X001399Y021062D01*
X001365Y021098D01*
X001334Y021137D01*
X001306Y021178D01*
X001282Y021221D01*
X001261Y021266D01*
X001243Y021313D01*
X001230Y021360D01*
X001220Y021409D01*
X001214Y021458D01*
X001212Y021508D01*
M02*
