%
M48
M72
T01C0.0150
T02C0.0400
%
T01
X2337Y3651
X2997Y3501
X2357Y5621
X1497Y6881
X2877Y10501
X2317Y11881
X3797Y11981
X4537Y12201
X4117Y8261
X4647Y7341
X4937Y6901
X4857Y6141
X4577Y5461
T02
X1877Y1141
X2877Y1141
X3877Y1141
X4877Y1141
X5877Y1141
X5877Y3891
X5877Y5641
X5877Y6641
X5877Y7641
X5877Y9391
X5877Y10391
X5877Y11391
X5877Y13141
X4877Y13141
X3877Y13141
X2877Y13141
X1877Y13141
X3877Y3891
X4877Y3891
M30
