G75*
G70*
%OFA0B0*%
%FSLAX24Y24*%
%IPPOS*%
%LPD*%
%AMOC8*
5,1,8,0,0,1.08239X$1,22.5*
%
%ADD10C,0.0000*%
%ADD11C,0.0040*%
D10*
X000877Y000141D02*
X006877Y000141D01*
X006877Y014141D01*
X000877Y014141D01*
X000877Y000141D01*
D11*
X002194Y002201D02*
X002117Y002278D01*
X002117Y002431D01*
X002194Y002508D01*
X002347Y002508D01*
X002424Y002431D01*
X002424Y002355D01*
X002347Y002201D01*
X002577Y002201D01*
X002577Y002508D01*
X002347Y002661D02*
X002347Y002968D01*
X002500Y003122D02*
X002577Y003199D01*
X002577Y003352D01*
X002500Y003429D01*
X002424Y003429D01*
X002117Y003122D01*
X002117Y003429D01*
X002194Y003582D02*
X002117Y003659D01*
X002117Y003812D01*
X002194Y003889D01*
X002500Y003889D01*
X002194Y003582D01*
X002500Y003582D01*
X002577Y003659D01*
X002577Y003812D01*
X002500Y003889D01*
X002577Y004043D02*
X002270Y004043D01*
X002117Y004196D01*
X002270Y004349D01*
X002577Y004349D01*
X002424Y004503D02*
X002577Y004656D01*
X002424Y004810D01*
X002117Y004810D01*
X002194Y004963D02*
X002117Y005040D01*
X002117Y005193D01*
X002194Y005270D01*
X002194Y004963D02*
X002500Y004963D01*
X002577Y005040D01*
X002577Y005193D01*
X002500Y005270D01*
X002347Y004810D02*
X002347Y004503D01*
X002424Y004503D02*
X002117Y004503D01*
X001777Y005160D02*
X001777Y005390D01*
X001700Y005467D01*
X001547Y005467D01*
X001470Y005390D01*
X001470Y005160D01*
X001317Y005160D02*
X001777Y005160D01*
X001547Y005620D02*
X001394Y005620D01*
X001317Y005697D01*
X001317Y005850D01*
X001394Y005927D01*
X001547Y005927D01*
X001624Y005850D01*
X001624Y005697D01*
X001547Y005620D01*
X001624Y006081D02*
X001394Y006081D01*
X001317Y006157D01*
X001394Y006234D01*
X001317Y006311D01*
X001394Y006387D01*
X001624Y006387D01*
X001547Y006541D02*
X001624Y006618D01*
X001624Y006771D01*
X001547Y006848D01*
X001470Y006848D01*
X001470Y006541D01*
X001394Y006541D02*
X001547Y006541D01*
X001394Y006541D02*
X001317Y006618D01*
X001317Y006771D01*
X001317Y007001D02*
X001624Y007001D01*
X001624Y007155D02*
X001624Y007231D01*
X001624Y007155D02*
X001470Y007001D01*
X001394Y007845D02*
X001317Y007922D01*
X001317Y008075D01*
X001394Y008152D01*
X001470Y008152D01*
X001547Y008075D01*
X001547Y007922D01*
X001624Y007845D01*
X001700Y007845D01*
X001777Y007922D01*
X001777Y008075D01*
X001700Y008152D01*
X001777Y008306D02*
X001317Y008306D01*
X001317Y008612D02*
X001547Y008612D01*
X001624Y008536D01*
X001624Y008382D01*
X001547Y008306D01*
X001624Y008766D02*
X001624Y008843D01*
X001317Y008843D01*
X001317Y008919D02*
X001317Y008766D01*
X001394Y009073D02*
X001547Y009073D01*
X001624Y009150D01*
X001624Y009303D01*
X001547Y009380D01*
X001470Y009380D01*
X001470Y009073D01*
X001394Y009073D02*
X001317Y009150D01*
X001317Y009303D01*
X001317Y009533D02*
X001317Y009687D01*
X001317Y009610D02*
X001777Y009610D01*
X001777Y009533D01*
X001547Y009840D02*
X001624Y009917D01*
X001624Y010147D01*
X001777Y010147D02*
X001317Y010147D01*
X001317Y009917D01*
X001394Y009840D01*
X001547Y009840D01*
X001777Y008843D02*
X001854Y008843D01*
X002117Y008799D02*
X002194Y008723D01*
X002117Y008799D02*
X002117Y008953D01*
X002194Y009030D01*
X002270Y009030D01*
X002347Y008953D01*
X002347Y008876D01*
X002347Y008953D02*
X002424Y009030D01*
X002500Y009030D01*
X002577Y008953D01*
X002577Y008799D01*
X002500Y008723D01*
X002500Y008339D02*
X002424Y008339D01*
X002347Y008262D01*
X002270Y008339D01*
X002194Y008339D01*
X002117Y008262D01*
X002117Y008109D01*
X002194Y008032D01*
X002347Y008186D02*
X002347Y008262D01*
X002500Y008339D02*
X002577Y008262D01*
X002577Y008109D01*
X002500Y008032D01*
X002194Y008493D02*
X002194Y008569D01*
X002117Y008569D01*
X002117Y008493D01*
X002194Y008493D01*
X002270Y009183D02*
X002117Y009337D01*
X002270Y009490D01*
X002577Y009490D01*
X002577Y009183D02*
X002270Y009183D01*
X002194Y010104D02*
X002117Y010181D01*
X002117Y010334D01*
X002194Y010411D01*
X002347Y010411D01*
X002424Y010334D01*
X002424Y010181D01*
X002347Y010104D01*
X002194Y010104D01*
X002194Y010564D02*
X002117Y010641D01*
X002117Y010871D01*
X002424Y010871D01*
X002424Y011025D02*
X002424Y011178D01*
X002500Y011101D02*
X002194Y011101D01*
X002117Y011178D01*
X002194Y010564D02*
X002424Y010564D01*
X002917Y010429D02*
X003224Y010429D01*
X003224Y010659D01*
X003147Y010736D01*
X002917Y010736D01*
X002917Y011120D02*
X003377Y011120D01*
X003147Y010890D01*
X003147Y011197D01*
X003147Y011350D02*
X003224Y011427D01*
X003224Y011580D01*
X003147Y011657D01*
X003070Y011657D01*
X003070Y011350D01*
X002994Y011350D02*
X003147Y011350D01*
X002994Y011350D02*
X002917Y011427D01*
X002917Y011580D01*
X002994Y011810D02*
X003070Y011887D01*
X003070Y012117D01*
X003147Y012117D02*
X002917Y012117D01*
X002917Y011887D01*
X002994Y011810D01*
X003224Y012041D02*
X003147Y012117D01*
X003224Y012041D02*
X003224Y011887D01*
X003147Y010276D02*
X002917Y010276D01*
X002917Y010122D02*
X003147Y010122D01*
X003224Y010199D01*
X003147Y010276D01*
X003147Y010122D02*
X003224Y010046D01*
X003224Y009969D01*
X002917Y009969D01*
X003224Y009739D02*
X003070Y009585D01*
X002917Y009585D02*
X003224Y009585D01*
X003224Y009739D02*
X003224Y009816D01*
X003300Y009432D02*
X002994Y009432D01*
X002917Y009355D01*
X002917Y009125D01*
X003377Y009125D01*
X003377Y009355D01*
X003300Y009432D01*
X003377Y008511D02*
X002917Y008204D01*
X002917Y007590D02*
X002917Y007284D01*
X002994Y007130D02*
X002917Y007053D01*
X002917Y006900D01*
X002994Y006823D01*
X003300Y007130D01*
X002994Y007130D01*
X002994Y006823D02*
X003300Y006823D01*
X003377Y006900D01*
X003377Y007053D01*
X003300Y007130D01*
X003224Y007284D02*
X003377Y007437D01*
X002917Y007437D01*
X002577Y007418D02*
X002117Y007112D01*
X002117Y006498D02*
X002347Y006498D01*
X002424Y006421D01*
X002424Y006191D01*
X002117Y006191D01*
X002117Y006037D02*
X002117Y005884D01*
X002117Y005961D02*
X002424Y005961D01*
X002424Y005884D01*
X002577Y005961D02*
X002654Y005961D01*
X002917Y005979D02*
X002994Y005903D01*
X003300Y006209D01*
X002994Y006209D01*
X002917Y006133D01*
X002917Y005979D01*
X002994Y005903D02*
X003300Y005903D01*
X003377Y005979D01*
X003377Y006133D01*
X003300Y006209D01*
X003147Y006363D02*
X003300Y006516D01*
X003377Y006670D01*
X003147Y006593D02*
X003147Y006363D01*
X002994Y006363D01*
X002917Y006440D01*
X002917Y006593D01*
X002994Y006670D01*
X003070Y006670D01*
X003147Y006593D01*
X002917Y005749D02*
X002917Y005442D01*
X002917Y005289D02*
X002917Y004982D01*
X002917Y005135D02*
X003377Y005135D01*
X003224Y004982D01*
X003300Y004828D02*
X002994Y004521D01*
X002917Y004598D01*
X002917Y004752D01*
X002994Y004828D01*
X003300Y004828D01*
X003377Y004752D01*
X003377Y004598D01*
X003300Y004521D01*
X002994Y004521D01*
X002917Y004368D02*
X002917Y004061D01*
X003224Y004368D01*
X003300Y004368D01*
X003377Y004291D01*
X003377Y004138D01*
X003300Y004061D01*
X003224Y005442D02*
X003377Y005596D01*
X002917Y005596D01*
X001624Y004469D02*
X001624Y004316D01*
X001547Y004239D01*
X001394Y004239D01*
X001317Y004316D01*
X001317Y004469D01*
X001394Y004546D01*
X001547Y004546D01*
X001624Y004469D01*
X001624Y004086D02*
X001317Y003779D01*
X001317Y004086D01*
X001470Y003625D02*
X001470Y003318D01*
X001394Y003318D02*
X001547Y003318D01*
X001624Y003395D01*
X001624Y003549D01*
X001547Y003625D01*
X001470Y003625D01*
X001317Y003549D02*
X001317Y003395D01*
X001394Y003318D01*
X001317Y003165D02*
X001317Y003012D01*
X001317Y003088D02*
X001624Y003088D01*
X001624Y003012D01*
X001777Y003088D02*
X001854Y003088D01*
X001700Y002858D02*
X001547Y002858D01*
X001470Y002781D01*
X001470Y002551D01*
X001317Y002551D02*
X001777Y002551D01*
X001777Y002781D01*
X001700Y002858D01*
X001624Y003779D02*
X001624Y004086D01*
X004443Y006986D02*
X004443Y007063D01*
X004520Y007140D01*
X004904Y007140D01*
X004904Y006909D01*
X004827Y006833D01*
X004674Y006833D01*
X004597Y006909D01*
X004597Y007140D01*
X004674Y007293D02*
X004597Y007370D01*
X004597Y007523D01*
X004674Y007293D02*
X004827Y007293D01*
X004904Y007370D01*
X004904Y007523D01*
X004827Y007600D01*
X004750Y007600D01*
X004750Y007293D01*
X004750Y006679D02*
X004750Y006449D01*
X004674Y006372D01*
X004597Y006449D01*
X004597Y006679D01*
X004827Y006679D01*
X004904Y006602D01*
X004904Y006449D01*
X004904Y006219D02*
X004904Y006142D01*
X004750Y005989D01*
X004674Y005835D02*
X004827Y005835D01*
X004904Y005759D01*
X004904Y005605D01*
X004827Y005528D01*
X004674Y005528D01*
X004597Y005605D01*
X004597Y005759D01*
X004674Y005835D01*
X004597Y005989D02*
X004904Y005989D01*
X004904Y005375D02*
X004904Y005221D01*
X004980Y005298D02*
X004674Y005298D01*
X004597Y005375D01*
X004674Y005068D02*
X004597Y004991D01*
X004597Y004838D01*
X004674Y004761D01*
X004827Y004838D02*
X004827Y004991D01*
X004750Y005068D01*
X004674Y005068D01*
X004827Y004838D02*
X004904Y004761D01*
X004980Y004761D01*
X005057Y004838D01*
X005057Y004991D01*
X004980Y005068D01*
X006150Y004911D02*
X006457Y004911D01*
X006304Y004758D02*
X006304Y005065D01*
X004980Y008214D02*
X004674Y008214D01*
X004597Y008290D01*
X004597Y008444D01*
X004674Y008521D01*
X004674Y008674D02*
X004750Y008751D01*
X004750Y008981D01*
X004827Y008981D02*
X004597Y008981D01*
X004597Y008751D01*
X004674Y008674D01*
X004904Y008904D02*
X004827Y008981D01*
X004904Y008904D02*
X004904Y008751D01*
X004980Y008521D02*
X005057Y008444D01*
X005057Y008290D01*
X004980Y008214D01*
X004904Y009134D02*
X004904Y009365D01*
X004827Y009441D01*
X004674Y009441D01*
X004597Y009365D01*
X004597Y009134D01*
X004443Y009134D02*
X004904Y009134D01*
X004904Y010055D02*
X004750Y010055D01*
X004597Y010209D01*
X004597Y010362D02*
X004904Y010669D01*
X004980Y010669D01*
X005057Y010592D01*
X005057Y010439D01*
X004980Y010362D01*
X005057Y010209D02*
X004904Y010055D01*
X004597Y010362D02*
X004597Y010669D01*
X004674Y010822D02*
X004597Y010899D01*
X004597Y011053D01*
X004674Y011129D01*
X004827Y011129D01*
X004904Y011053D01*
X004904Y010976D01*
X004827Y010822D01*
X005057Y010822D01*
X005057Y011129D01*
X005057Y011283D02*
X004750Y011283D01*
X004597Y011436D01*
X004750Y011590D01*
X005057Y011590D01*
X005057Y011743D02*
X004904Y011897D01*
X004750Y011897D01*
X004597Y011743D01*
X006190Y011991D02*
X006497Y011991D01*
M02*
