G75*
G70*
%OFA0B0*%
%FSLAX24Y24*%
%IPPOS*%
%LPD*%
%AMOC8*
5,1,8,0,0,1.08239X$1,22.5*
%
%ADD10C,0.0100*%
%ADD11R,0.0512X0.0591*%
%ADD12R,0.1100X0.0820*%
%ADD13R,0.0120X0.0350*%
%ADD14R,0.0787X0.0472*%
%ADD15R,0.1181X0.0551*%
%ADD16R,0.0591X0.0512*%
%ADD17R,0.0310X0.0350*%
%ADD18R,0.0354X0.0276*%
D10*
X004557Y006221D02*
X004557Y006941D01*
X004837Y006661D01*
X004997Y006661D01*
X004997Y006381D01*
X004797Y006381D01*
X004637Y006221D01*
X004557Y006221D01*
X004557Y006251D02*
X004667Y006251D01*
X004765Y006349D02*
X004557Y006349D01*
X004557Y006448D02*
X004997Y006448D01*
X004997Y006546D02*
X004557Y006546D01*
X004557Y006645D02*
X004997Y006645D01*
X004754Y006744D02*
X004557Y006744D01*
X004557Y006842D02*
X004656Y006842D01*
X004557Y006941D02*
X004557Y006941D01*
D11*
X004501Y008891D03*
X003753Y008891D03*
X002751Y008891D03*
X002003Y008891D03*
X004003Y002641D03*
X004751Y002641D03*
D12*
X003877Y006641D03*
D13*
X003877Y005811D03*
X004074Y005811D03*
X004271Y005811D03*
X003680Y005811D03*
X003483Y005811D03*
X003483Y007472D03*
X003680Y007472D03*
X003877Y007472D03*
X004074Y007472D03*
X004271Y007472D03*
D14*
X002377Y007521D03*
X002377Y006261D03*
D15*
X001932Y010891D03*
X003822Y010891D03*
D16*
X002877Y005015D03*
X002877Y004267D03*
X001877Y004267D03*
X001877Y005015D03*
D17*
X001947Y003031D03*
X002327Y002231D03*
X002707Y003031D03*
D18*
X004877Y010997D03*
X004877Y011397D03*
X004877Y011797D03*
M02*
