G75*
G70*
%OFA0B0*%
%FSLAX24Y24*%
%IPPOS*%
%LPD*%
%AMOC8*
5,1,8,0,0,1.08239X$1,22.5*
%
%ADD10R,0.1181X0.0551*%
%ADD11R,0.0120X0.0490*%
%ADD12R,0.0910X0.0910*%
%ADD13R,0.0433X0.0394*%
%ADD14R,0.0512X0.0591*%
%ADD15C,0.0354*%
%ADD16R,0.0350X0.0310*%
D10*
X004685Y010891D03*
X006575Y010891D03*
D11*
X006505Y005441D03*
X006255Y005441D03*
X006005Y005441D03*
X005755Y005441D03*
X006755Y005441D03*
X007005Y005441D03*
X007255Y005441D03*
X007505Y005441D03*
X007755Y005441D03*
X008005Y005441D03*
X008005Y002841D03*
X007755Y002841D03*
X007505Y002841D03*
X007255Y002841D03*
X007005Y002841D03*
X006755Y002841D03*
X006505Y002841D03*
X006255Y002841D03*
X006005Y002841D03*
X005755Y002841D03*
D12*
X006230Y007041D03*
X007530Y007041D03*
X007530Y008741D03*
X006230Y008741D03*
X004530Y008741D03*
X004530Y007041D03*
X009230Y007041D03*
X009230Y008741D03*
D13*
X004296Y004641D03*
X004965Y004641D03*
X004965Y005641D03*
X004296Y005641D03*
X005546Y002061D03*
X006215Y002061D03*
X008796Y004641D03*
X009465Y004641D03*
X009465Y005641D03*
X008796Y005641D03*
D14*
X008754Y010141D03*
X008006Y010141D03*
X008006Y011391D03*
X008754Y011391D03*
D15*
X008800Y002091D03*
X008330Y001931D03*
D16*
X008730Y002771D03*
X008730Y003531D03*
X009530Y003151D03*
M02*
