G75*
G70*
%OFA0B0*%
%FSLAX24Y24*%
%IPPOS*%
%LPD*%
%AMOC8*
5,1,8,0,0,1.08239X$1,22.5*
%
%ADD10C,0.0600*%
%ADD11C,0.0080*%
%ADD12C,0.0310*%
%ADD13C,0.0100*%
%ADD14C,0.0320*%
%ADD15C,0.0160*%
D10*
X004330Y002891D02*
X004930Y002891D01*
X004930Y003891D02*
X004330Y003891D01*
X004880Y001441D02*
X004880Y000841D01*
X005880Y000841D02*
X005880Y001441D01*
X006880Y001441D02*
X006880Y000841D01*
X007880Y000841D02*
X007880Y001441D01*
X008880Y001441D02*
X008880Y000841D01*
X008880Y012841D02*
X008880Y013441D01*
X007880Y013441D02*
X007880Y012841D01*
X006880Y012841D02*
X006880Y013441D01*
X005880Y013441D02*
X005880Y012841D01*
X004880Y012841D02*
X004880Y013441D01*
D11*
X004320Y002451D02*
X004320Y000581D01*
X004490Y000581D01*
X004420Y000750D01*
X004420Y001533D01*
X004490Y001702D01*
X004620Y001831D01*
X004789Y001901D01*
X004972Y001901D01*
X005141Y001831D01*
X005270Y001702D01*
X005340Y001533D01*
X005340Y000750D01*
X005270Y000581D01*
X005490Y000581D01*
X005420Y000750D01*
X005420Y001533D01*
X005490Y001702D01*
X005620Y001831D01*
X005789Y001901D01*
X005972Y001901D01*
X006141Y001831D01*
X006270Y001702D01*
X006340Y001533D01*
X006340Y000750D01*
X006270Y000581D01*
X006490Y000581D01*
X006420Y000750D01*
X006420Y001533D01*
X006490Y001702D01*
X006572Y001784D01*
X006503Y001853D01*
X006455Y001968D01*
X006455Y002007D01*
X005028Y003434D01*
X005022Y003431D01*
X004320Y003431D01*
X004320Y003331D01*
X004590Y003331D01*
X004590Y002931D01*
X004670Y002931D01*
X004670Y003331D01*
X005018Y003331D01*
X005180Y003264D01*
X005303Y003140D01*
X005370Y002979D01*
X005370Y002931D01*
X004670Y002931D01*
X004670Y002851D01*
X004670Y002451D01*
X005018Y002451D01*
X005180Y002518D01*
X005303Y002642D01*
X005370Y002804D01*
X005370Y002851D01*
X004670Y002851D01*
X004590Y002851D01*
X004590Y002451D01*
X004320Y002451D01*
X004320Y002419D02*
X006043Y002419D01*
X005965Y002497D02*
X005130Y002497D01*
X005237Y002576D02*
X005886Y002576D01*
X005807Y002654D02*
X005309Y002654D01*
X005341Y002733D02*
X005729Y002733D01*
X005650Y002812D02*
X005370Y002812D01*
X005370Y002969D02*
X005493Y002969D01*
X005415Y003047D02*
X005342Y003047D01*
X005336Y003126D02*
X005309Y003126D01*
X005258Y003204D02*
X005239Y003204D01*
X005179Y003283D02*
X005134Y003283D01*
X005101Y003361D02*
X004320Y003361D01*
X004590Y003283D02*
X004670Y003283D01*
X004670Y003204D02*
X004590Y003204D01*
X004590Y003126D02*
X004670Y003126D01*
X004670Y003047D02*
X004590Y003047D01*
X004590Y002969D02*
X004670Y002969D01*
X004670Y002890D02*
X005572Y002890D01*
X005858Y003283D02*
X007430Y003283D01*
X007430Y003361D02*
X005779Y003361D01*
X005701Y003440D02*
X007430Y003440D01*
X007430Y003518D02*
X005622Y003518D01*
X005544Y003597D02*
X007430Y003597D01*
X007430Y003676D02*
X005465Y003676D01*
X005387Y003754D02*
X007430Y003754D01*
X007430Y003833D02*
X005390Y003833D01*
X005390Y003800D02*
X005390Y003983D01*
X005320Y004152D01*
X005191Y004281D01*
X005022Y004351D01*
X004320Y004351D01*
X004320Y013701D01*
X004518Y013701D01*
X004507Y013690D01*
X004440Y013529D01*
X004440Y013181D01*
X004840Y013181D01*
X004840Y013101D01*
X004440Y013101D01*
X004440Y012754D01*
X004507Y012592D01*
X004631Y012468D01*
X004793Y012401D01*
X004840Y012401D01*
X004840Y013101D01*
X004920Y013101D01*
X004920Y012401D01*
X004968Y012401D01*
X005130Y012468D01*
X005253Y012592D01*
X005320Y012754D01*
X005320Y013101D01*
X004920Y013101D01*
X004840Y013101D01*
X004840Y013179D02*
X004320Y013179D01*
X004320Y013101D02*
X004440Y013101D01*
X004440Y013022D02*
X004320Y013022D01*
X004320Y012944D02*
X004440Y012944D01*
X004440Y012865D02*
X004320Y012865D01*
X004320Y012787D02*
X004440Y012787D01*
X004459Y012708D02*
X004320Y012708D01*
X004320Y012629D02*
X004492Y012629D01*
X004548Y012551D02*
X004320Y012551D01*
X004320Y012472D02*
X004627Y012472D01*
X004840Y012472D02*
X004920Y012472D01*
X004920Y012551D02*
X004840Y012551D01*
X004840Y012629D02*
X004920Y012629D01*
X004920Y012708D02*
X004840Y012708D01*
X004840Y012787D02*
X004920Y012787D01*
X004920Y012865D02*
X004840Y012865D01*
X004840Y012944D02*
X004920Y012944D01*
X004920Y013022D02*
X004840Y013022D01*
X004920Y013101D02*
X004920Y013181D01*
X005320Y013181D01*
X005320Y013529D01*
X005253Y013690D01*
X005242Y013701D01*
X005490Y013701D01*
X005420Y013533D01*
X005420Y012750D01*
X005490Y012581D01*
X005620Y012451D01*
X005789Y012381D01*
X005972Y012381D01*
X006141Y012451D01*
X006270Y012581D01*
X006340Y012750D01*
X006340Y013533D01*
X006270Y013701D01*
X006490Y013701D01*
X006420Y013533D01*
X006420Y012750D01*
X006490Y012581D01*
X006510Y012561D01*
X006510Y010839D01*
X006510Y009689D01*
X006510Y009593D01*
X006547Y009505D01*
X007430Y008622D01*
X007430Y002231D01*
X007336Y002136D01*
X007288Y002136D01*
X007172Y002088D01*
X007085Y002001D01*
X007085Y002094D01*
X007037Y002210D01*
X006949Y002298D01*
X006833Y002346D01*
X006795Y002346D01*
X005376Y003765D01*
X005390Y003800D01*
X005390Y003911D02*
X007430Y003911D01*
X007430Y003990D02*
X005387Y003990D01*
X005355Y004068D02*
X007430Y004068D01*
X007430Y004147D02*
X005322Y004147D01*
X005247Y004225D02*
X007430Y004225D01*
X007430Y004304D02*
X005136Y004304D01*
X004320Y004382D02*
X007430Y004382D01*
X007430Y004461D02*
X004320Y004461D01*
X004320Y004540D02*
X007430Y004540D01*
X007430Y004618D02*
X004320Y004618D01*
X004320Y004697D02*
X007430Y004697D01*
X007430Y004775D02*
X004320Y004775D01*
X004320Y004854D02*
X007430Y004854D01*
X007430Y004932D02*
X004320Y004932D01*
X004320Y005011D02*
X007430Y005011D01*
X007430Y005089D02*
X004320Y005089D01*
X004320Y005168D02*
X007430Y005168D01*
X007430Y005246D02*
X004320Y005246D01*
X004320Y005325D02*
X007430Y005325D01*
X007430Y005404D02*
X004320Y005404D01*
X004320Y005482D02*
X007430Y005482D01*
X007430Y005561D02*
X004320Y005561D01*
X004320Y005639D02*
X007430Y005639D01*
X007430Y005718D02*
X004320Y005718D01*
X004320Y005796D02*
X007430Y005796D01*
X007430Y005875D02*
X007124Y005875D01*
X007103Y005866D02*
X007219Y005914D01*
X007307Y006003D01*
X007355Y006118D01*
X007355Y006244D01*
X007307Y006360D01*
X007250Y006417D01*
X007250Y008124D01*
X007250Y008298D01*
X006920Y008628D01*
X006797Y008751D01*
X006147Y008751D01*
X005973Y008751D01*
X005623Y008401D01*
X005500Y008278D01*
X005500Y008147D01*
X005443Y008090D01*
X005395Y007974D01*
X005395Y007848D01*
X005443Y007733D01*
X005532Y007644D01*
X005648Y007596D01*
X005773Y007596D01*
X005870Y007636D01*
X005870Y006554D01*
X005829Y006512D01*
X005780Y006395D01*
X005780Y006267D01*
X005829Y006150D01*
X005919Y006060D01*
X006037Y006011D01*
X006057Y006011D01*
X006514Y006011D01*
X006632Y006060D01*
X006634Y006062D01*
X006639Y006064D01*
X006725Y006151D01*
X006725Y006118D01*
X006773Y006003D01*
X006862Y005914D01*
X006978Y005866D01*
X007103Y005866D01*
X006957Y005875D02*
X004320Y005875D01*
X004320Y005953D02*
X006823Y005953D01*
X006761Y006032D02*
X006564Y006032D01*
X006685Y006110D02*
X006729Y006110D01*
X007258Y005953D02*
X007430Y005953D01*
X007430Y006032D02*
X007319Y006032D01*
X007352Y006110D02*
X007430Y006110D01*
X007430Y006189D02*
X007355Y006189D01*
X007345Y006267D02*
X007430Y006267D01*
X007430Y006346D02*
X007313Y006346D01*
X007250Y006425D02*
X007430Y006425D01*
X007430Y006503D02*
X007250Y006503D01*
X007250Y006582D02*
X007430Y006582D01*
X007430Y006660D02*
X007250Y006660D01*
X007250Y006739D02*
X007430Y006739D01*
X007430Y006817D02*
X007250Y006817D01*
X007250Y006896D02*
X007430Y006896D01*
X007430Y006974D02*
X007250Y006974D01*
X007250Y007053D02*
X007430Y007053D01*
X007430Y007131D02*
X007250Y007131D01*
X007250Y007210D02*
X007430Y007210D01*
X007430Y007289D02*
X007250Y007289D01*
X007250Y007367D02*
X007430Y007367D01*
X007430Y007446D02*
X007250Y007446D01*
X007250Y007524D02*
X007430Y007524D01*
X007430Y007603D02*
X007250Y007603D01*
X007250Y007681D02*
X007430Y007681D01*
X007430Y007760D02*
X007250Y007760D01*
X007250Y007838D02*
X007430Y007838D01*
X007430Y007917D02*
X007250Y007917D01*
X007250Y007995D02*
X007430Y007995D01*
X007430Y008074D02*
X007250Y008074D01*
X007250Y008153D02*
X007430Y008153D01*
X007430Y008231D02*
X007250Y008231D01*
X007239Y008310D02*
X007430Y008310D01*
X007430Y008388D02*
X007160Y008388D01*
X007082Y008467D02*
X007430Y008467D01*
X007430Y008545D02*
X007003Y008545D01*
X006925Y008624D02*
X007428Y008624D01*
X007350Y008702D02*
X006846Y008702D01*
X007114Y008938D02*
X004320Y008938D01*
X004320Y009016D02*
X007035Y009016D01*
X006957Y009095D02*
X004320Y009095D01*
X004320Y009174D02*
X006878Y009174D01*
X006800Y009252D02*
X004320Y009252D01*
X004320Y009331D02*
X006721Y009331D01*
X006643Y009409D02*
X004320Y009409D01*
X004320Y009488D02*
X006564Y009488D01*
X006521Y009566D02*
X004320Y009566D01*
X004320Y009645D02*
X006510Y009645D01*
X006510Y009723D02*
X004320Y009723D01*
X004320Y009802D02*
X006510Y009802D01*
X006510Y009880D02*
X004320Y009880D01*
X004320Y009959D02*
X006510Y009959D01*
X006510Y010038D02*
X004320Y010038D01*
X004320Y010116D02*
X006510Y010116D01*
X006510Y010195D02*
X004320Y010195D01*
X004320Y010273D02*
X006510Y010273D01*
X006510Y010352D02*
X004320Y010352D01*
X004320Y010430D02*
X006510Y010430D01*
X006510Y010509D02*
X004320Y010509D01*
X004320Y010587D02*
X006510Y010587D01*
X006510Y010666D02*
X004320Y010666D01*
X004320Y010744D02*
X006510Y010744D01*
X006510Y010823D02*
X004320Y010823D01*
X004320Y010902D02*
X006510Y010902D01*
X006510Y010980D02*
X004320Y010980D01*
X004320Y011059D02*
X006510Y011059D01*
X006510Y011137D02*
X004320Y011137D01*
X004320Y011216D02*
X006510Y011216D01*
X006510Y011294D02*
X004320Y011294D01*
X004320Y011373D02*
X006510Y011373D01*
X006510Y011451D02*
X004320Y011451D01*
X004320Y011530D02*
X006510Y011530D01*
X006510Y011608D02*
X004320Y011608D01*
X004320Y011687D02*
X006510Y011687D01*
X006510Y011766D02*
X004320Y011766D01*
X004320Y011844D02*
X006510Y011844D01*
X006510Y011923D02*
X004320Y011923D01*
X004320Y012001D02*
X006510Y012001D01*
X006510Y012080D02*
X004320Y012080D01*
X004320Y012158D02*
X006510Y012158D01*
X006510Y012237D02*
X004320Y012237D01*
X004320Y012315D02*
X006510Y012315D01*
X006510Y012394D02*
X006003Y012394D01*
X006162Y012472D02*
X006510Y012472D01*
X006510Y012551D02*
X006241Y012551D01*
X006291Y012629D02*
X006470Y012629D01*
X006438Y012708D02*
X006323Y012708D01*
X006340Y012787D02*
X006420Y012787D01*
X006420Y012865D02*
X006340Y012865D01*
X006340Y012944D02*
X006420Y012944D01*
X006420Y013022D02*
X006340Y013022D01*
X006340Y013101D02*
X006420Y013101D01*
X006420Y013179D02*
X006340Y013179D01*
X006340Y013258D02*
X006420Y013258D01*
X006420Y013336D02*
X006340Y013336D01*
X006340Y013415D02*
X006420Y013415D01*
X006420Y013493D02*
X006340Y013493D01*
X006324Y013572D02*
X006437Y013572D01*
X006469Y013651D02*
X006291Y013651D01*
X005469Y013651D02*
X005270Y013651D01*
X005302Y013572D02*
X005437Y013572D01*
X005420Y013493D02*
X005320Y013493D01*
X005320Y013415D02*
X005420Y013415D01*
X005420Y013336D02*
X005320Y013336D01*
X005320Y013258D02*
X005420Y013258D01*
X005420Y013179D02*
X004920Y013179D01*
X005320Y013101D02*
X005420Y013101D01*
X005420Y013022D02*
X005320Y013022D01*
X005320Y012944D02*
X005420Y012944D01*
X005420Y012865D02*
X005320Y012865D01*
X005320Y012787D02*
X005420Y012787D01*
X005438Y012708D02*
X005301Y012708D01*
X005269Y012629D02*
X005470Y012629D01*
X005520Y012551D02*
X005212Y012551D01*
X005134Y012472D02*
X005598Y012472D01*
X005758Y012394D02*
X004320Y012394D01*
X004320Y013258D02*
X004440Y013258D01*
X004440Y013336D02*
X004320Y013336D01*
X004320Y013415D02*
X004440Y013415D01*
X004440Y013493D02*
X004320Y013493D01*
X004320Y013572D02*
X004458Y013572D01*
X004491Y013651D02*
X004320Y013651D01*
X006990Y012389D02*
X006990Y011031D01*
X007245Y011031D01*
X007282Y011068D01*
X007398Y011116D01*
X007523Y011116D01*
X007639Y011068D01*
X007727Y010980D01*
X009440Y010980D01*
X009440Y010902D02*
X007760Y010902D01*
X007775Y010864D02*
X007727Y010980D01*
X007648Y011059D02*
X009440Y011059D01*
X009440Y011137D02*
X006990Y011137D01*
X006990Y011059D02*
X007272Y011059D01*
X007440Y010791D02*
X007440Y010781D01*
X007460Y010801D01*
X007692Y010587D02*
X009440Y010587D01*
X009440Y010509D02*
X007578Y010509D01*
X007523Y010486D02*
X007639Y010534D01*
X007727Y010623D01*
X007775Y010738D01*
X007775Y010864D01*
X007775Y010823D02*
X009440Y010823D01*
X009440Y010744D02*
X007775Y010744D01*
X007745Y010666D02*
X009440Y010666D01*
X009440Y010430D02*
X006990Y010430D01*
X006990Y010352D02*
X009440Y010352D01*
X009440Y010273D02*
X006990Y010273D01*
X006990Y010195D02*
X009440Y010195D01*
X009440Y010116D02*
X006990Y010116D01*
X006990Y010038D02*
X009440Y010038D01*
X009440Y009959D02*
X006990Y009959D01*
X006990Y009880D02*
X009440Y009880D01*
X009440Y009802D02*
X006990Y009802D01*
X006990Y009741D02*
X006990Y010551D01*
X007265Y010551D01*
X007282Y010534D01*
X007398Y010486D01*
X007523Y010486D01*
X007343Y010509D02*
X006990Y010509D01*
X006990Y011216D02*
X009440Y011216D01*
X009440Y011294D02*
X006990Y011294D01*
X006990Y011373D02*
X009440Y011373D01*
X009440Y011451D02*
X006990Y011451D01*
X006990Y011530D02*
X009440Y011530D01*
X009440Y011608D02*
X006990Y011608D01*
X006990Y011687D02*
X009440Y011687D01*
X009440Y011766D02*
X006990Y011766D01*
X006990Y011844D02*
X009440Y011844D01*
X009440Y011923D02*
X006990Y011923D01*
X006990Y012001D02*
X009440Y012001D01*
X009440Y012080D02*
X006990Y012080D01*
X006990Y012158D02*
X009440Y012158D01*
X009440Y012237D02*
X006990Y012237D01*
X006990Y012315D02*
X009440Y012315D01*
X009440Y012394D02*
X009003Y012394D01*
X008972Y012381D02*
X009141Y012451D01*
X009270Y012581D01*
X009340Y012750D01*
X009340Y013533D01*
X009270Y013701D01*
X009440Y013701D01*
X009440Y008236D01*
X009408Y008236D01*
X009396Y008231D01*
X009178Y008231D01*
X009154Y008241D01*
X009027Y008241D01*
X008909Y008192D01*
X008819Y008102D01*
X008770Y007985D01*
X008770Y007857D01*
X008770Y007847D01*
X008810Y007751D01*
X008810Y006255D01*
X008810Y006127D01*
X008859Y006010D01*
X008949Y005920D01*
X008959Y005910D01*
X009077Y005861D01*
X009204Y005861D01*
X009228Y005871D01*
X009436Y005871D01*
X009440Y005869D01*
X009440Y000581D01*
X009270Y000581D01*
X009340Y000750D01*
X009340Y001533D01*
X009270Y001702D01*
X009141Y001831D01*
X008972Y001901D01*
X008789Y001901D01*
X008620Y001831D01*
X008490Y001702D01*
X008420Y001533D01*
X008420Y000750D01*
X008490Y000581D01*
X008270Y000581D01*
X008340Y000750D01*
X008340Y001533D01*
X008270Y001702D01*
X008141Y001831D01*
X007972Y001901D01*
X007789Y001901D01*
X007773Y001895D01*
X007874Y001995D01*
X007910Y002083D01*
X007910Y002179D01*
X007910Y008769D01*
X007874Y008857D01*
X007806Y008925D01*
X006990Y009741D01*
X007007Y009723D02*
X009440Y009723D01*
X009440Y009645D02*
X007086Y009645D01*
X007164Y009566D02*
X009440Y009566D01*
X009440Y009488D02*
X007243Y009488D01*
X007322Y009409D02*
X009440Y009409D01*
X009440Y009331D02*
X007400Y009331D01*
X007479Y009252D02*
X009440Y009252D01*
X009440Y009174D02*
X007557Y009174D01*
X007636Y009095D02*
X009440Y009095D01*
X009440Y009016D02*
X007714Y009016D01*
X007793Y008938D02*
X009440Y008938D01*
X009440Y008859D02*
X007871Y008859D01*
X007905Y008781D02*
X009440Y008781D01*
X009440Y008702D02*
X007910Y008702D01*
X007910Y008624D02*
X009440Y008624D01*
X009440Y008545D02*
X007910Y008545D01*
X007910Y008467D02*
X009440Y008467D01*
X009440Y008388D02*
X007910Y008388D01*
X007910Y008310D02*
X009440Y008310D01*
X009396Y008231D02*
X009194Y008231D01*
X009178Y008231D01*
X009002Y008231D02*
X007910Y008231D01*
X007910Y008153D02*
X008869Y008153D01*
X008807Y008074D02*
X007910Y008074D01*
X007910Y007995D02*
X008775Y007995D01*
X008770Y007917D02*
X007910Y007917D01*
X007910Y007838D02*
X008774Y007838D01*
X008807Y007760D02*
X007910Y007760D01*
X007910Y007681D02*
X008810Y007681D01*
X008810Y007603D02*
X007910Y007603D01*
X007910Y007524D02*
X008810Y007524D01*
X008810Y007446D02*
X007910Y007446D01*
X007910Y007367D02*
X008810Y007367D01*
X008810Y007289D02*
X007910Y007289D01*
X007910Y007210D02*
X008810Y007210D01*
X008810Y007131D02*
X007910Y007131D01*
X007910Y007053D02*
X008810Y007053D01*
X008810Y006974D02*
X007910Y006974D01*
X007910Y006896D02*
X008810Y006896D01*
X008810Y006817D02*
X007910Y006817D01*
X007910Y006739D02*
X008810Y006739D01*
X008810Y006660D02*
X007910Y006660D01*
X007910Y006582D02*
X008810Y006582D01*
X008810Y006503D02*
X007910Y006503D01*
X007910Y006425D02*
X008810Y006425D01*
X008810Y006346D02*
X007910Y006346D01*
X007910Y006267D02*
X008810Y006267D01*
X008810Y006189D02*
X007910Y006189D01*
X007910Y006110D02*
X008817Y006110D01*
X008850Y006032D02*
X007910Y006032D01*
X007910Y005953D02*
X008916Y005953D01*
X008949Y005920D02*
X008949Y005920D01*
X009044Y005875D02*
X007910Y005875D01*
X007910Y005796D02*
X009440Y005796D01*
X009440Y005718D02*
X007910Y005718D01*
X007910Y005639D02*
X009440Y005639D01*
X009440Y005561D02*
X007910Y005561D01*
X007910Y005482D02*
X009440Y005482D01*
X009440Y005404D02*
X007910Y005404D01*
X007910Y005325D02*
X009440Y005325D01*
X009440Y005246D02*
X007910Y005246D01*
X007910Y005168D02*
X009440Y005168D01*
X009440Y005089D02*
X007910Y005089D01*
X007910Y005011D02*
X009440Y005011D01*
X009440Y004932D02*
X007910Y004932D01*
X007910Y004854D02*
X009440Y004854D01*
X009440Y004775D02*
X007910Y004775D01*
X007910Y004697D02*
X009440Y004697D01*
X009440Y004618D02*
X007910Y004618D01*
X007910Y004540D02*
X009440Y004540D01*
X009440Y004461D02*
X007910Y004461D01*
X007910Y004382D02*
X009440Y004382D01*
X009440Y004304D02*
X007910Y004304D01*
X007910Y004225D02*
X009440Y004225D01*
X009440Y004147D02*
X007910Y004147D01*
X007910Y004068D02*
X009440Y004068D01*
X009440Y003990D02*
X007910Y003990D01*
X007910Y003911D02*
X009440Y003911D01*
X009440Y003833D02*
X007910Y003833D01*
X007910Y003754D02*
X009440Y003754D01*
X009440Y003676D02*
X007910Y003676D01*
X007910Y003597D02*
X009440Y003597D01*
X009440Y003518D02*
X007910Y003518D01*
X007910Y003440D02*
X009440Y003440D01*
X009440Y003361D02*
X007910Y003361D01*
X007910Y003283D02*
X009440Y003283D01*
X009440Y003204D02*
X007910Y003204D01*
X007910Y003126D02*
X009440Y003126D01*
X009440Y003047D02*
X007910Y003047D01*
X007910Y002969D02*
X009440Y002969D01*
X009440Y002890D02*
X007910Y002890D01*
X007910Y002812D02*
X009440Y002812D01*
X009440Y002733D02*
X007910Y002733D01*
X007910Y002654D02*
X009440Y002654D01*
X009440Y002576D02*
X007910Y002576D01*
X007910Y002497D02*
X009440Y002497D01*
X009440Y002419D02*
X007910Y002419D01*
X007910Y002340D02*
X009440Y002340D01*
X009440Y002262D02*
X007910Y002262D01*
X007910Y002183D02*
X009440Y002183D01*
X009440Y002105D02*
X007910Y002105D01*
X007887Y002026D02*
X009440Y002026D01*
X009440Y001948D02*
X007826Y001948D01*
X008049Y001869D02*
X008712Y001869D01*
X008579Y001791D02*
X008181Y001791D01*
X008260Y001712D02*
X008501Y001712D01*
X008462Y001633D02*
X008299Y001633D01*
X008331Y001555D02*
X008430Y001555D01*
X008420Y001476D02*
X008340Y001476D01*
X008340Y001398D02*
X008420Y001398D01*
X008420Y001319D02*
X008340Y001319D01*
X008340Y001241D02*
X008420Y001241D01*
X008420Y001162D02*
X008340Y001162D01*
X008340Y001084D02*
X008420Y001084D01*
X008420Y001005D02*
X008340Y001005D01*
X008340Y000927D02*
X008420Y000927D01*
X008420Y000848D02*
X008340Y000848D01*
X008340Y000769D02*
X008420Y000769D01*
X008445Y000691D02*
X008316Y000691D01*
X008283Y000612D02*
X008477Y000612D01*
X009283Y000612D02*
X009440Y000612D01*
X009440Y000691D02*
X009316Y000691D01*
X009340Y000769D02*
X009440Y000769D01*
X009440Y000848D02*
X009340Y000848D01*
X009340Y000927D02*
X009440Y000927D01*
X009440Y001005D02*
X009340Y001005D01*
X009340Y001084D02*
X009440Y001084D01*
X009440Y001162D02*
X009340Y001162D01*
X009340Y001241D02*
X009440Y001241D01*
X009440Y001319D02*
X009340Y001319D01*
X009340Y001398D02*
X009440Y001398D01*
X009440Y001476D02*
X009340Y001476D01*
X009331Y001555D02*
X009440Y001555D01*
X009440Y001633D02*
X009299Y001633D01*
X009260Y001712D02*
X009440Y001712D01*
X009440Y001791D02*
X009181Y001791D01*
X009049Y001869D02*
X009440Y001869D01*
X007430Y002262D02*
X006985Y002262D01*
X007048Y002183D02*
X007383Y002183D01*
X007430Y002340D02*
X006847Y002340D01*
X006722Y002419D02*
X007430Y002419D01*
X007430Y002497D02*
X006643Y002497D01*
X006565Y002576D02*
X007430Y002576D01*
X007430Y002654D02*
X006486Y002654D01*
X006408Y002733D02*
X007430Y002733D01*
X007430Y002812D02*
X006329Y002812D01*
X006251Y002890D02*
X007430Y002890D01*
X007430Y002969D02*
X006172Y002969D01*
X006094Y003047D02*
X007430Y003047D01*
X007430Y003126D02*
X006015Y003126D01*
X005936Y003204D02*
X007430Y003204D01*
X007212Y002105D02*
X007081Y002105D01*
X007085Y002026D02*
X007110Y002026D01*
X006565Y001791D02*
X006181Y001791D01*
X006260Y001712D02*
X006501Y001712D01*
X006462Y001633D02*
X006299Y001633D01*
X006331Y001555D02*
X006430Y001555D01*
X006420Y001476D02*
X006340Y001476D01*
X006340Y001398D02*
X006420Y001398D01*
X006420Y001319D02*
X006340Y001319D01*
X006340Y001241D02*
X006420Y001241D01*
X006420Y001162D02*
X006340Y001162D01*
X006340Y001084D02*
X006420Y001084D01*
X006420Y001005D02*
X006340Y001005D01*
X006340Y000927D02*
X006420Y000927D01*
X006420Y000848D02*
X006340Y000848D01*
X006340Y000769D02*
X006420Y000769D01*
X006445Y000691D02*
X006316Y000691D01*
X006283Y000612D02*
X006477Y000612D01*
X005501Y001712D02*
X005260Y001712D01*
X005299Y001633D02*
X005462Y001633D01*
X005430Y001555D02*
X005331Y001555D01*
X005340Y001476D02*
X005420Y001476D01*
X005420Y001398D02*
X005340Y001398D01*
X005340Y001319D02*
X005420Y001319D01*
X005420Y001241D02*
X005340Y001241D01*
X005340Y001162D02*
X005420Y001162D01*
X005420Y001084D02*
X005340Y001084D01*
X005340Y001005D02*
X005420Y001005D01*
X005420Y000927D02*
X005340Y000927D01*
X005340Y000848D02*
X005420Y000848D01*
X005420Y000769D02*
X005340Y000769D01*
X005316Y000691D02*
X005445Y000691D01*
X005477Y000612D02*
X005283Y000612D01*
X004477Y000612D02*
X004320Y000612D01*
X004320Y000691D02*
X004445Y000691D01*
X004420Y000769D02*
X004320Y000769D01*
X004320Y000848D02*
X004420Y000848D01*
X004420Y000927D02*
X004320Y000927D01*
X004320Y001005D02*
X004420Y001005D01*
X004420Y001084D02*
X004320Y001084D01*
X004320Y001162D02*
X004420Y001162D01*
X004420Y001241D02*
X004320Y001241D01*
X004320Y001319D02*
X004420Y001319D01*
X004420Y001398D02*
X004320Y001398D01*
X004320Y001476D02*
X004420Y001476D01*
X004430Y001555D02*
X004320Y001555D01*
X004320Y001633D02*
X004462Y001633D01*
X004501Y001712D02*
X004320Y001712D01*
X004320Y001791D02*
X004579Y001791D01*
X004712Y001869D02*
X004320Y001869D01*
X004320Y001948D02*
X006464Y001948D01*
X006436Y002026D02*
X004320Y002026D01*
X004320Y002105D02*
X006357Y002105D01*
X006279Y002183D02*
X004320Y002183D01*
X004320Y002262D02*
X006200Y002262D01*
X006122Y002340D02*
X004320Y002340D01*
X004590Y002497D02*
X004670Y002497D01*
X004670Y002576D02*
X004590Y002576D01*
X004590Y002654D02*
X004670Y002654D01*
X004670Y002733D02*
X004590Y002733D01*
X004590Y002812D02*
X004670Y002812D01*
X005049Y001869D02*
X005712Y001869D01*
X005579Y001791D02*
X005181Y001791D01*
X006049Y001869D02*
X006496Y001869D01*
X005986Y006032D02*
X004320Y006032D01*
X004320Y006110D02*
X005868Y006110D01*
X005813Y006189D02*
X004320Y006189D01*
X004320Y006267D02*
X005780Y006267D01*
X005780Y006346D02*
X004320Y006346D01*
X004320Y006425D02*
X005793Y006425D01*
X005825Y006503D02*
X004320Y006503D01*
X004320Y006582D02*
X005870Y006582D01*
X005870Y006660D02*
X004320Y006660D01*
X004320Y006739D02*
X005870Y006739D01*
X005870Y006817D02*
X004320Y006817D01*
X004320Y006896D02*
X005870Y006896D01*
X005870Y006974D02*
X004320Y006974D01*
X004320Y007053D02*
X005870Y007053D01*
X005870Y007131D02*
X004320Y007131D01*
X004320Y007210D02*
X005870Y007210D01*
X005870Y007289D02*
X004320Y007289D01*
X004320Y007367D02*
X005870Y007367D01*
X005870Y007446D02*
X004320Y007446D01*
X004320Y007524D02*
X005870Y007524D01*
X005870Y007603D02*
X005789Y007603D01*
X005632Y007603D02*
X004320Y007603D01*
X004320Y007681D02*
X005495Y007681D01*
X005432Y007760D02*
X004320Y007760D01*
X004320Y007838D02*
X005399Y007838D01*
X005395Y007917D02*
X004320Y007917D01*
X004320Y007995D02*
X005404Y007995D01*
X005437Y008074D02*
X004320Y008074D01*
X004320Y008153D02*
X005500Y008153D01*
X005500Y008231D02*
X004320Y008231D01*
X004320Y008310D02*
X005532Y008310D01*
X005610Y008388D02*
X004320Y008388D01*
X004320Y008467D02*
X005689Y008467D01*
X005767Y008545D02*
X004320Y008545D01*
X004320Y008624D02*
X005846Y008624D01*
X005925Y008702D02*
X004320Y008702D01*
X004320Y008781D02*
X007271Y008781D01*
X007193Y008859D02*
X004320Y008859D01*
X006990Y012389D02*
X007141Y012451D01*
X007270Y012581D01*
X007340Y012750D01*
X007340Y013533D01*
X007270Y013701D01*
X007490Y013701D01*
X007420Y013533D01*
X007420Y012750D01*
X007490Y012581D01*
X007620Y012451D01*
X007789Y012381D01*
X007972Y012381D01*
X008141Y012451D01*
X008270Y012581D01*
X008340Y012750D01*
X008340Y013533D01*
X008270Y013701D01*
X008490Y013701D01*
X008420Y013533D01*
X008420Y012750D01*
X008490Y012581D01*
X008620Y012451D01*
X008789Y012381D01*
X008972Y012381D01*
X009162Y012472D02*
X009440Y012472D01*
X009440Y012551D02*
X009241Y012551D01*
X009291Y012629D02*
X009440Y012629D01*
X009440Y012708D02*
X009323Y012708D01*
X009340Y012787D02*
X009440Y012787D01*
X009440Y012865D02*
X009340Y012865D01*
X009340Y012944D02*
X009440Y012944D01*
X009440Y013022D02*
X009340Y013022D01*
X009340Y013101D02*
X009440Y013101D01*
X009440Y013179D02*
X009340Y013179D01*
X009340Y013258D02*
X009440Y013258D01*
X009440Y013336D02*
X009340Y013336D01*
X009340Y013415D02*
X009440Y013415D01*
X009440Y013493D02*
X009340Y013493D01*
X009324Y013572D02*
X009440Y013572D01*
X009440Y013651D02*
X009291Y013651D01*
X008469Y013651D02*
X008291Y013651D01*
X008324Y013572D02*
X008437Y013572D01*
X008420Y013493D02*
X008340Y013493D01*
X008340Y013415D02*
X008420Y013415D01*
X008420Y013336D02*
X008340Y013336D01*
X008340Y013258D02*
X008420Y013258D01*
X008420Y013179D02*
X008340Y013179D01*
X008340Y013101D02*
X008420Y013101D01*
X008420Y013022D02*
X008340Y013022D01*
X008340Y012944D02*
X008420Y012944D01*
X008420Y012865D02*
X008340Y012865D01*
X008340Y012787D02*
X008420Y012787D01*
X008438Y012708D02*
X008323Y012708D01*
X008291Y012629D02*
X008470Y012629D01*
X008520Y012551D02*
X008241Y012551D01*
X008162Y012472D02*
X008598Y012472D01*
X008758Y012394D02*
X008003Y012394D01*
X007758Y012394D02*
X007003Y012394D01*
X007162Y012472D02*
X007598Y012472D01*
X007520Y012551D02*
X007241Y012551D01*
X007291Y012629D02*
X007470Y012629D01*
X007438Y012708D02*
X007323Y012708D01*
X007340Y012787D02*
X007420Y012787D01*
X007420Y012865D02*
X007340Y012865D01*
X007340Y012944D02*
X007420Y012944D01*
X007420Y013022D02*
X007340Y013022D01*
X007340Y013101D02*
X007420Y013101D01*
X007420Y013179D02*
X007340Y013179D01*
X007340Y013258D02*
X007420Y013258D01*
X007420Y013336D02*
X007340Y013336D01*
X007340Y013415D02*
X007420Y013415D01*
X007420Y013493D02*
X007340Y013493D01*
X007324Y013572D02*
X007437Y013572D01*
X007469Y013651D02*
X007291Y013651D01*
X009090Y007921D02*
X009080Y007901D01*
X009090Y007911D01*
D12*
X009090Y007921D03*
X009470Y007921D03*
X008380Y006391D03*
X009140Y006181D03*
X009510Y006181D03*
X008210Y003921D03*
X006770Y002031D03*
X007350Y001821D03*
X006240Y004281D03*
X004980Y006131D03*
X006100Y006331D03*
X006460Y006331D03*
X007040Y006181D03*
X005710Y007911D03*
X006190Y008031D03*
X006530Y008021D03*
X007460Y010801D03*
D13*
X006710Y008541D02*
X006060Y008541D01*
X005710Y008191D01*
X005710Y007911D01*
X006710Y008541D02*
X007040Y008211D01*
X007040Y006181D01*
D14*
X006460Y006341D02*
X006450Y006331D01*
X006120Y006331D01*
X006100Y006331D01*
X006120Y006331D02*
X006190Y006331D01*
X006190Y008021D01*
X006530Y008021D01*
X006190Y008021D02*
X006190Y008031D01*
X009090Y007921D02*
X009100Y007911D01*
X009130Y007911D01*
X009130Y006191D01*
X009480Y006191D01*
X009140Y006181D02*
X009130Y006191D01*
X009090Y007911D02*
X009470Y007911D01*
D15*
X007670Y008721D02*
X007670Y002131D01*
X007480Y001941D01*
X007350Y001821D01*
X006770Y002031D02*
X004910Y003891D01*
X004630Y003891D01*
X007670Y008721D02*
X006750Y009641D01*
X006750Y010791D01*
X006750Y013011D01*
X006880Y013141D01*
X006750Y010791D02*
X007440Y010791D01*
X007460Y010791D01*
M02*
