G75*
G70*
%OFA0B0*%
%FSLAX24Y24*%
%IPPOS*%
%LPD*%
%AMOC8*
5,1,8,0,0,1.08239X$1,22.5*
%
%ADD10C,0.0680*%
%ADD11R,0.1261X0.0631*%
%ADD12R,0.0200X0.0570*%
%ADD13R,0.0990X0.0990*%
%ADD14R,0.0513X0.0474*%
%ADD15R,0.0592X0.0671*%
%ADD16C,0.0434*%
%ADD17R,0.0430X0.0390*%
%ADD18C,0.0390*%
D10*
X004330Y002891D02*
X004930Y002891D01*
X004930Y003891D02*
X004330Y003891D01*
X004880Y001441D02*
X004880Y000841D01*
X005880Y000841D02*
X005880Y001441D01*
X006880Y001441D02*
X006880Y000841D01*
X007880Y000841D02*
X007880Y001441D01*
X008880Y001441D02*
X008880Y000841D01*
X008880Y012841D02*
X008880Y013441D01*
X007880Y013441D02*
X007880Y012841D01*
X006880Y012841D02*
X006880Y013441D01*
X005880Y013441D02*
X005880Y012841D01*
X004880Y012841D02*
X004880Y013441D01*
D11*
X004685Y010891D03*
X006575Y010891D03*
D12*
X006505Y005441D03*
X006255Y005441D03*
X006005Y005441D03*
X005755Y005441D03*
X006755Y005441D03*
X007005Y005441D03*
X007255Y005441D03*
X007505Y005441D03*
X007755Y005441D03*
X008005Y005441D03*
X008005Y002841D03*
X007755Y002841D03*
X007505Y002841D03*
X007255Y002841D03*
X007005Y002841D03*
X006755Y002841D03*
X006505Y002841D03*
X006255Y002841D03*
X006005Y002841D03*
X005755Y002841D03*
D13*
X006230Y007041D03*
X007530Y007041D03*
X007530Y008741D03*
X006230Y008741D03*
X004530Y008741D03*
X004530Y007041D03*
X009230Y007041D03*
X009230Y008741D03*
D14*
X009465Y005641D03*
X008796Y005641D03*
X008796Y004641D03*
X009465Y004641D03*
X006215Y002061D03*
X005546Y002061D03*
X004965Y004641D03*
X004296Y004641D03*
X004296Y005641D03*
X004965Y005641D03*
D15*
X008006Y010141D03*
X008754Y010141D03*
X008754Y011391D03*
X008006Y011391D03*
D16*
X008800Y002091D03*
X008330Y001931D03*
D17*
X008730Y002771D03*
X008730Y003531D03*
X009530Y003151D03*
D18*
X008210Y003921D03*
X006770Y002031D03*
X007350Y001821D03*
X006240Y004281D03*
X004980Y006131D03*
X006100Y006331D03*
X006460Y006331D03*
X007040Y006181D03*
X008380Y006391D03*
X009140Y006181D03*
X009510Y006181D03*
X009470Y007921D03*
X009090Y007921D03*
X006530Y008021D03*
X006190Y008031D03*
X005710Y007911D03*
X007460Y010801D03*
M02*
