%
M48
M72
T01C0.0150
T02C0.0400
%
T01
X4980Y6131
X6100Y6331
X6460Y6331
X7040Y6181
X8380Y6391
X9140Y6181
X9510Y6181
X9470Y7921
X9090Y7921
X6530Y8021
X6190Y8031
X5710Y7911
X7460Y10801
X6240Y4281
X8210Y3921
X6770Y2031
X7350Y1821
T02
X4630Y2891
X4630Y3891
X4880Y1141
X5880Y1141
X6880Y1141
X7880Y1141
X8880Y1141
X8880Y13141
X7880Y13141
X6880Y13141
X5880Y13141
X4880Y13141
M30
