G75*
G70*
%OFA0B0*%
%FSLAX24Y24*%
%IPPOS*%
%LPD*%
%AMOC8*
5,1,8,0,0,1.08239X$1,22.5*
%
%ADD10C,0.0680*%
%ADD11C,0.0440*%
D10*
X001214Y001051D02*
X001214Y001651D01*
X002214Y001651D02*
X002214Y001051D01*
X003214Y001051D02*
X003214Y001651D01*
X004214Y001651D02*
X004214Y001051D01*
X005214Y001051D02*
X005214Y001651D01*
X006214Y001651D02*
X006214Y001051D01*
X007214Y001051D02*
X007214Y001651D01*
X008214Y001651D02*
X008214Y001051D01*
X008214Y017051D02*
X008214Y017651D01*
X007214Y017651D02*
X007214Y017051D01*
X006214Y017051D02*
X006214Y017651D01*
X005214Y017651D02*
X005214Y017051D01*
X004214Y017051D02*
X004214Y017651D01*
X003214Y017651D02*
X003214Y017051D01*
X002214Y017051D02*
X002214Y017651D01*
X001214Y017651D02*
X001214Y017051D01*
D11*
X002774Y014141D03*
X002354Y013061D03*
X002864Y012561D03*
X003584Y013561D03*
X002354Y010751D03*
X002214Y009301D03*
X002254Y008411D03*
X001424Y007741D03*
X002544Y006061D03*
X001184Y004751D03*
X005424Y005141D03*
X005544Y006431D03*
X006634Y004031D03*
X007594Y008301D03*
M02*
