G75*
G70*
%OFA0B0*%
%FSLAX24Y24*%
%IPPOS*%
%LPD*%
%AMOC8*
5,1,8,0,0,1.08239X$1,22.5*
%
%ADD10C,0.0000*%
%ADD11C,0.0040*%
%ADD12C,0.0080*%
%ADD13C,0.0100*%
%ADD14R,0.0200X0.0200*%
%ADD15C,0.0060*%
%ADD16C,0.0030*%
%ADD17R,0.0571X0.0295*%
%ADD18R,0.0200X0.0150*%
%ADD19C,0.0050*%
%ADD20R,0.0551X0.0256*%
D10*
X001502Y000101D02*
X001502Y018601D01*
X010002Y018601D01*
X010002Y000101D01*
X001502Y000101D01*
D11*
X002111Y005101D02*
X002111Y005331D01*
X002188Y005408D01*
X002342Y005408D01*
X002418Y005331D01*
X002418Y005101D01*
X002418Y005254D02*
X002572Y005408D01*
X002572Y005561D02*
X002265Y005868D01*
X002188Y005868D01*
X002111Y005791D01*
X002111Y005638D01*
X002188Y005561D01*
X002111Y005101D02*
X002572Y005101D01*
X002572Y005561D02*
X002572Y005868D01*
X001945Y008651D02*
X001638Y008651D01*
X001561Y008727D01*
X001561Y008881D01*
X001638Y008958D01*
X001638Y009111D02*
X001561Y009188D01*
X001561Y009341D01*
X001638Y009418D01*
X001715Y009418D01*
X002022Y009111D01*
X002022Y009418D01*
X002182Y009131D02*
X002182Y008831D01*
X002022Y008881D02*
X001945Y008958D01*
X002022Y008881D02*
X002022Y008727D01*
X001945Y008651D01*
X002702Y008841D02*
X002702Y009131D01*
X007118Y016031D02*
X007425Y016031D01*
X007502Y016107D01*
X007502Y016261D01*
X007425Y016338D01*
X007502Y016491D02*
X007502Y016721D01*
X007425Y016798D01*
X007118Y016798D01*
X007041Y016721D01*
X007041Y016491D01*
X007502Y016491D01*
X007118Y016338D02*
X007041Y016261D01*
X007041Y016107D01*
X007118Y016031D01*
X008011Y016072D02*
X008011Y015841D01*
X008472Y015841D01*
X008472Y016072D01*
X008395Y016148D01*
X008088Y016148D01*
X008011Y016072D01*
X008011Y016302D02*
X008472Y016609D01*
X008011Y016609D01*
X008011Y016302D02*
X008472Y016302D01*
X008472Y015688D02*
X008011Y015688D01*
X008242Y015688D02*
X008242Y015381D01*
X008318Y015228D02*
X008395Y015228D01*
X008472Y015151D01*
X008472Y014997D01*
X008395Y014921D01*
X008242Y014997D02*
X008242Y015151D01*
X008318Y015228D01*
X008088Y015228D02*
X008011Y015151D01*
X008011Y014997D01*
X008088Y014921D01*
X008165Y014921D01*
X008242Y014997D01*
X008472Y015381D02*
X008011Y015381D01*
X007756Y013705D02*
X007756Y013399D01*
X007756Y013552D02*
X007296Y013552D01*
X007449Y013399D01*
X007373Y013245D02*
X007296Y013168D01*
X007296Y013015D01*
X007373Y012938D01*
X007449Y012938D01*
X007526Y013015D01*
X007526Y013168D01*
X007603Y013245D01*
X007679Y013245D01*
X007756Y013168D01*
X007756Y013015D01*
X007679Y012938D01*
X007679Y012785D02*
X007296Y012785D01*
X007296Y012478D02*
X007679Y012478D01*
X007756Y012555D01*
X007756Y012708D01*
X007679Y012785D01*
X007833Y013092D02*
X007219Y013092D01*
X008831Y013477D02*
X008831Y013631D01*
X008908Y013708D01*
X008985Y013708D01*
X009062Y013631D01*
X009138Y013708D01*
X009215Y013708D01*
X009292Y013631D01*
X009292Y013477D01*
X009215Y013401D01*
X009062Y013554D02*
X009062Y013631D01*
X008908Y013401D02*
X008831Y013477D01*
X008908Y012748D02*
X008831Y012671D01*
X008831Y012517D01*
X008908Y012441D01*
X008908Y012748D02*
X008985Y012748D01*
X009292Y012441D01*
X009292Y012748D01*
X009252Y011828D02*
X009252Y011521D01*
X009252Y011674D02*
X008791Y011674D01*
X008945Y011521D01*
X009348Y015621D02*
X009655Y015621D01*
X009732Y015697D01*
X009732Y015851D01*
X009655Y015928D01*
X009655Y016081D02*
X009732Y016158D01*
X009732Y016311D01*
X009655Y016388D01*
X009578Y016388D01*
X009502Y016311D01*
X009502Y016158D01*
X009425Y016081D01*
X009348Y016081D01*
X009271Y016158D01*
X009271Y016311D01*
X009348Y016388D01*
X009348Y015928D02*
X009271Y015851D01*
X009271Y015697D01*
X009348Y015621D01*
X009145Y018091D02*
X009068Y018091D01*
X008992Y018167D01*
X009145Y018091D02*
X009222Y018167D01*
X009222Y018551D01*
X009145Y018551D02*
X009299Y018551D01*
X009452Y018321D02*
X009759Y018321D01*
X009682Y018551D02*
X009452Y018321D01*
X009682Y018091D02*
X009682Y018551D01*
X007259Y000801D02*
X007106Y000724D01*
X006952Y000571D01*
X007182Y000571D01*
X007259Y000494D01*
X007259Y000417D01*
X007182Y000341D01*
X007029Y000341D01*
X006952Y000417D01*
X006952Y000571D01*
X006799Y000801D02*
X006645Y000801D01*
X006722Y000801D02*
X006722Y000417D01*
X006645Y000341D01*
X006568Y000341D01*
X006492Y000417D01*
D12*
X008186Y004391D02*
X003422Y004391D01*
X003422Y004666D01*
X003422Y005729D02*
X003422Y006910D01*
X003422Y007973D02*
X003422Y009903D01*
X008619Y009903D01*
X009445Y008997D02*
X009446Y008965D01*
X009442Y008934D01*
X009435Y008903D01*
X009424Y008873D01*
X009410Y008845D01*
X009392Y008819D01*
X009371Y008795D01*
X009347Y008774D01*
X009321Y008756D01*
X009293Y008742D01*
X009263Y008731D01*
X009232Y008724D01*
X009201Y008720D01*
X009169Y008721D01*
X009445Y008997D02*
X009445Y009312D01*
X009721Y008721D02*
X009721Y004391D01*
X010351Y004391D02*
X010351Y008721D01*
X011571Y008721D02*
X011571Y004391D01*
X008776Y008328D02*
X008779Y008366D01*
X008785Y008404D01*
X008795Y008441D01*
X008809Y008477D01*
X008825Y008512D01*
X008845Y008544D01*
X008868Y008575D01*
X008894Y008604D01*
X008923Y008630D01*
X008954Y008653D01*
X008986Y008673D01*
X009021Y008689D01*
X009057Y008703D01*
X009094Y008713D01*
X009132Y008719D01*
X009170Y008722D01*
X008776Y008328D02*
X008776Y005021D01*
X008703Y011661D02*
X008705Y011699D01*
X008711Y011736D01*
X008720Y011773D01*
X008734Y011809D01*
X008751Y011843D01*
X008771Y011875D01*
X008795Y011905D01*
X008821Y011932D01*
X008851Y011956D01*
X008882Y011977D01*
X008916Y011995D01*
X008951Y012010D01*
X008987Y012020D01*
X009025Y012027D01*
X009062Y012030D01*
X009100Y012029D01*
X009138Y012024D01*
X009175Y012015D01*
X009211Y012003D01*
X009245Y011987D01*
X009278Y011967D01*
X009308Y011944D01*
X009336Y011919D01*
X009361Y011890D01*
X009383Y011859D01*
X009402Y011826D01*
X009417Y011791D01*
X009429Y011755D01*
X009437Y011718D01*
X009441Y011680D01*
X009441Y011642D01*
X009437Y011604D01*
X009429Y011567D01*
X009417Y011531D01*
X009402Y011496D01*
X009383Y011463D01*
X009361Y011432D01*
X009336Y011403D01*
X009308Y011378D01*
X009278Y011355D01*
X009245Y011335D01*
X009211Y011319D01*
X009175Y011307D01*
X009138Y011298D01*
X009100Y011293D01*
X009062Y011292D01*
X009025Y011295D01*
X008987Y011302D01*
X008951Y011312D01*
X008916Y011327D01*
X008882Y011345D01*
X008851Y011366D01*
X008821Y011390D01*
X008795Y011417D01*
X008771Y011447D01*
X008751Y011479D01*
X008734Y011513D01*
X008720Y011549D01*
X008711Y011586D01*
X008705Y011623D01*
X008703Y011661D01*
X008703Y012581D02*
X008705Y012619D01*
X008711Y012656D01*
X008720Y012693D01*
X008734Y012729D01*
X008751Y012763D01*
X008771Y012795D01*
X008795Y012825D01*
X008821Y012852D01*
X008851Y012876D01*
X008882Y012897D01*
X008916Y012915D01*
X008951Y012930D01*
X008987Y012940D01*
X009025Y012947D01*
X009062Y012950D01*
X009100Y012949D01*
X009138Y012944D01*
X009175Y012935D01*
X009211Y012923D01*
X009245Y012907D01*
X009278Y012887D01*
X009308Y012864D01*
X009336Y012839D01*
X009361Y012810D01*
X009383Y012779D01*
X009402Y012746D01*
X009417Y012711D01*
X009429Y012675D01*
X009437Y012638D01*
X009441Y012600D01*
X009441Y012562D01*
X009437Y012524D01*
X009429Y012487D01*
X009417Y012451D01*
X009402Y012416D01*
X009383Y012383D01*
X009361Y012352D01*
X009336Y012323D01*
X009308Y012298D01*
X009278Y012275D01*
X009245Y012255D01*
X009211Y012239D01*
X009175Y012227D01*
X009138Y012218D01*
X009100Y012213D01*
X009062Y012212D01*
X009025Y012215D01*
X008987Y012222D01*
X008951Y012232D01*
X008916Y012247D01*
X008882Y012265D01*
X008851Y012286D01*
X008821Y012310D01*
X008795Y012337D01*
X008771Y012367D01*
X008751Y012399D01*
X008734Y012433D01*
X008720Y012469D01*
X008711Y012506D01*
X008705Y012543D01*
X008703Y012581D01*
X008703Y013541D02*
X008705Y013579D01*
X008711Y013616D01*
X008720Y013653D01*
X008734Y013689D01*
X008751Y013723D01*
X008771Y013755D01*
X008795Y013785D01*
X008821Y013812D01*
X008851Y013836D01*
X008882Y013857D01*
X008916Y013875D01*
X008951Y013890D01*
X008987Y013900D01*
X009025Y013907D01*
X009062Y013910D01*
X009100Y013909D01*
X009138Y013904D01*
X009175Y013895D01*
X009211Y013883D01*
X009245Y013867D01*
X009278Y013847D01*
X009308Y013824D01*
X009336Y013799D01*
X009361Y013770D01*
X009383Y013739D01*
X009402Y013706D01*
X009417Y013671D01*
X009429Y013635D01*
X009437Y013598D01*
X009441Y013560D01*
X009441Y013522D01*
X009437Y013484D01*
X009429Y013447D01*
X009417Y013411D01*
X009402Y013376D01*
X009383Y013343D01*
X009361Y013312D01*
X009336Y013283D01*
X009308Y013258D01*
X009278Y013235D01*
X009245Y013215D01*
X009211Y013199D01*
X009175Y013187D01*
X009138Y013178D01*
X009100Y013173D01*
X009062Y013172D01*
X009025Y013175D01*
X008987Y013182D01*
X008951Y013192D01*
X008916Y013207D01*
X008882Y013225D01*
X008851Y013246D01*
X008821Y013270D01*
X008795Y013297D01*
X008771Y013327D01*
X008751Y013359D01*
X008734Y013393D01*
X008720Y013429D01*
X008711Y013466D01*
X008705Y013503D01*
X008703Y013541D01*
D13*
X009002Y000601D02*
X008752Y000351D01*
X009252Y000351D01*
X009002Y000601D01*
D14*
X009252Y001351D03*
X008252Y001351D03*
X007252Y001351D03*
X006252Y001351D03*
X005252Y001351D03*
X004252Y001351D03*
X003252Y001351D03*
X002252Y001351D03*
X002252Y017351D03*
X003252Y017351D03*
X004252Y017351D03*
X005252Y017351D03*
X006252Y017351D03*
X007252Y017351D03*
X008252Y017351D03*
X009252Y017351D03*
D15*
X009752Y017851D02*
X009752Y016851D01*
X001752Y016851D01*
X001752Y017851D01*
X001752Y018101D01*
X009752Y018101D01*
X009752Y017851D01*
X001752Y017851D01*
X002172Y006972D02*
X002172Y006649D01*
X002672Y006649D02*
X002672Y006972D01*
X002672Y004151D02*
X002372Y004151D01*
X002372Y003011D01*
X002672Y003011D01*
X002672Y004151D01*
X001752Y002101D02*
X009752Y002101D01*
X009752Y001851D01*
X009752Y000851D01*
X001752Y000851D01*
X001752Y001851D01*
X001752Y002101D01*
X001752Y001851D02*
X009752Y001851D01*
D16*
X009736Y009876D02*
X009978Y009876D01*
X010027Y009925D01*
X010027Y010022D01*
X009978Y010070D01*
X009736Y010070D01*
X009785Y010171D02*
X009736Y010219D01*
X009736Y010316D01*
X009785Y010365D01*
X009833Y010365D01*
X010027Y010171D01*
X010027Y010365D01*
D17*
X002441Y009268D03*
X002441Y008698D03*
D18*
X002252Y003956D03*
X002792Y003576D03*
X002252Y003196D03*
D19*
X002806Y003896D02*
X002806Y004346D01*
X002656Y004346D02*
X002956Y004346D01*
X003116Y004196D02*
X003266Y004346D01*
X003266Y003896D01*
X003116Y003896D02*
X003417Y003896D01*
X002512Y010237D02*
X007020Y010237D01*
X007020Y014941D01*
X002512Y014941D01*
X002512Y010237D01*
X002501Y010237D01*
X003615Y012461D02*
X003733Y012579D01*
X003615Y012697D01*
X003615Y012461D01*
X003733Y012579D02*
X003339Y012579D01*
X000898Y010256D02*
X000898Y014941D01*
D20*
X002421Y007099D03*
X002421Y006519D03*
M02*
