G75*
G70*
%OFA0B0*%
%FSLAX24Y24*%
%IPPOS*%
%LPD*%
%AMOC8*
5,1,8,0,0,1.08239X$1,22.5*
%
%ADD10C,0.0600*%
%ADD11R,0.0551X0.0709*%
%ADD12R,0.0748X0.0551*%
%ADD13R,0.0591X0.0315*%
%ADD14R,0.0531X0.0591*%
%ADD15R,0.0394X0.0551*%
%ADD16R,0.0512X0.0394*%
%ADD17R,0.0591X0.0295*%
%ADD18R,0.0591X0.0512*%
%ADD19R,0.0350X0.0310*%
%ADD20C,0.0100*%
%ADD21C,0.0360*%
%ADD22C,0.0160*%
%ADD23C,0.0120*%
D10*
X001214Y001051D02*
X001214Y001651D01*
X002214Y001651D02*
X002214Y001051D01*
X003214Y001051D02*
X003214Y001651D01*
X004214Y001651D02*
X004214Y001051D01*
X005214Y001051D02*
X005214Y001651D01*
X006214Y001651D02*
X006214Y001051D01*
X007214Y001051D02*
X007214Y001651D01*
X008214Y001651D02*
X008214Y001051D01*
X008214Y017051D02*
X008214Y017651D01*
X007214Y017651D02*
X007214Y017051D01*
X006214Y017051D02*
X006214Y017651D01*
X005214Y017651D02*
X005214Y017051D01*
X004214Y017051D02*
X004214Y017651D01*
X003214Y017651D02*
X003214Y017051D01*
X002214Y017051D02*
X002214Y017651D01*
X001214Y017651D02*
X001214Y017051D01*
D11*
X002541Y007442D03*
X002541Y005198D03*
D12*
X007718Y004568D03*
X008112Y009745D03*
D13*
X006596Y007910D03*
X006439Y007477D03*
X006596Y007044D03*
X006675Y006611D03*
X006596Y006178D03*
X006675Y005745D03*
X006596Y005312D03*
X006596Y004879D03*
D14*
X007513Y010600D03*
X007907Y015974D03*
D15*
X006322Y010541D03*
D16*
X001499Y010768D03*
D17*
X001479Y011299D03*
X001479Y011732D03*
X001479Y012165D03*
X001479Y012598D03*
X001479Y013031D03*
X001479Y013464D03*
X001479Y013898D03*
X001479Y014331D03*
D18*
X001404Y009315D03*
X001404Y008646D03*
X001384Y007185D03*
X001384Y006437D03*
D19*
X001084Y003961D03*
X001084Y003201D03*
X001884Y003581D03*
D20*
X001104Y001461D02*
X001214Y001351D01*
X001104Y003181D02*
X001084Y003201D01*
X001084Y003961D02*
X001094Y003971D01*
X001094Y004441D01*
X001184Y004531D01*
X001184Y004751D01*
X001944Y003621D02*
X001884Y003581D01*
X002429Y003876D02*
X002429Y003926D01*
X002541Y005198D02*
X002504Y005221D01*
X002594Y005311D01*
X002544Y005361D01*
X002544Y006061D01*
X002564Y007401D02*
X002504Y007461D01*
X002541Y007442D01*
X002564Y007401D02*
X003064Y007401D01*
X003554Y007891D01*
X003554Y010211D01*
X003364Y010751D02*
X006214Y013601D01*
X006214Y017351D01*
X007804Y018201D02*
X007904Y018101D01*
X007974Y018101D01*
X008214Y017861D01*
X008214Y017351D01*
X007804Y018201D02*
X003994Y018201D01*
X003724Y017931D01*
X003724Y016761D01*
X002074Y015111D01*
X002074Y014091D01*
X001884Y013901D01*
X001504Y013901D01*
X001479Y013898D01*
X001479Y013464D02*
X001504Y013461D01*
X001924Y013461D01*
X002564Y014101D01*
X002734Y014101D01*
X002774Y014141D01*
X002354Y013061D02*
X002314Y013021D01*
X002844Y012581D02*
X002864Y012561D01*
X002844Y012581D02*
X001504Y012581D01*
X001479Y012598D01*
X001479Y012165D02*
X001464Y012141D01*
X001224Y012141D01*
X001479Y011732D02*
X001504Y011741D01*
X003064Y011741D01*
X003584Y012261D01*
X003584Y013561D01*
X003364Y010751D02*
X002354Y010751D01*
X001704Y010741D01*
X001499Y010768D01*
X001504Y010781D01*
X002214Y009341D02*
X002214Y009301D01*
X001424Y007741D02*
X001424Y007225D01*
X001384Y007185D01*
X001504Y013021D02*
X001479Y013031D01*
X006104Y007041D02*
X005544Y006481D01*
X005544Y006431D01*
X006094Y005931D02*
X006094Y005771D01*
X005464Y005141D01*
X005424Y005141D01*
X005964Y005031D02*
X005964Y004561D01*
X006494Y004031D01*
X006634Y004031D01*
X005964Y005031D02*
X006254Y005321D01*
X006564Y005321D01*
X006584Y005301D01*
X006596Y005312D01*
X006675Y005745D02*
X006864Y005741D01*
X006904Y005701D01*
X006824Y005741D02*
X006704Y005741D01*
X006675Y005745D01*
X006584Y006141D02*
X006424Y006141D01*
X006394Y006111D01*
X006274Y006111D01*
X006094Y005931D01*
X006584Y006141D02*
X006596Y006178D01*
X006664Y006581D02*
X006675Y006611D01*
X006584Y007021D02*
X006564Y007041D01*
X006104Y007041D01*
X006439Y007477D02*
X006464Y007501D01*
X006514Y007451D01*
X007214Y007451D01*
X007594Y007831D01*
X007594Y008301D01*
X008104Y009701D02*
X008112Y009745D01*
X008104Y009781D01*
X007504Y010581D02*
X007513Y010600D01*
X007344Y010541D01*
X007513Y010600D02*
X007544Y010621D01*
X007904Y010981D01*
X007904Y015941D01*
X007907Y015974D01*
X006344Y010581D02*
X006322Y010541D01*
X006304Y010501D01*
X006596Y007044D02*
X006584Y007021D01*
X007724Y004601D02*
X007704Y004581D01*
X007718Y004568D01*
X007704Y004541D01*
X007994Y001571D02*
X008214Y001351D01*
D21*
X006634Y004031D03*
X005424Y005141D03*
X005544Y006431D03*
X007594Y008301D03*
X003584Y013561D03*
X002864Y012561D03*
X002354Y013061D03*
X002774Y014141D03*
X002354Y010751D03*
X002214Y009301D03*
X002254Y008411D03*
X001424Y007741D03*
X002544Y006061D03*
X001184Y004751D03*
D22*
X001784Y005701D02*
X001984Y005701D01*
X001984Y007901D01*
X001944Y007941D01*
X001984Y008181D01*
X002254Y008411D01*
X001984Y008181D02*
X001574Y008181D01*
X001534Y008271D01*
X001424Y008381D01*
X001424Y008626D01*
X001404Y008646D01*
X001404Y009315D02*
X001384Y009335D01*
X001384Y010211D01*
X001044Y010211D01*
X001384Y010211D02*
X003554Y010211D01*
X005374Y010211D01*
X005704Y010541D01*
X006322Y010541D01*
X006344Y010581D02*
X007504Y010581D01*
X007344Y010541D02*
X008104Y009781D01*
X008112Y009745D02*
X008112Y005889D01*
X007924Y005701D01*
X006904Y005701D01*
X006664Y006581D02*
X006194Y006581D01*
X005984Y006371D01*
X005984Y006191D01*
X005644Y005851D01*
X005144Y005851D01*
X003914Y004621D01*
X001834Y004621D01*
X001834Y005291D01*
X001984Y005441D01*
X001984Y005701D01*
X001784Y005701D02*
X001424Y006061D01*
X001424Y006397D01*
X001384Y006437D01*
X001834Y004621D02*
X001834Y004521D01*
X002429Y003926D01*
X002429Y003876D02*
X002134Y003581D01*
X001984Y003581D01*
X001944Y003621D01*
X001104Y003181D02*
X001104Y001461D01*
X001074Y012141D02*
X001224Y012141D01*
X001504Y013021D02*
X002314Y013021D01*
X007924Y005701D02*
X007724Y005501D01*
X007724Y004601D01*
X007718Y004568D02*
X007718Y002366D01*
X007994Y002091D01*
X007994Y001571D01*
D23*
X000914Y011981D02*
X001074Y012141D01*
X000914Y011981D02*
X000914Y010341D01*
X001044Y010211D01*
M02*
