%
M48
M72
T01C0.0200
T02C0.0400
%
T01
X1184Y4751
X2544Y6061
X1424Y7741
X2254Y8411
X2214Y9301
X2354Y10751
X2864Y12561
X2354Y13061
X2774Y14141
X3584Y13561
X5544Y6431
X5424Y5141
X6634Y4031
X7594Y8301
T02
X1214Y1351
X2214Y1351
X3214Y1351
X4214Y1351
X5214Y1351
X6214Y1351
X7214Y1351
X8214Y1351
X8214Y17351
X7214Y17351
X6214Y17351
X5214Y17351
X4214Y17351
X3214Y17351
X2214Y17351
X1214Y17351
M30
