G75*
G70*
%OFA0B0*%
%FSLAX24Y24*%
%IPPOS*%
%LPD*%
%AMOC8*
5,1,8,0,0,1.08239X$1,22.5*
%
%ADD10C,0.0600*%
%ADD11R,0.0551X0.0709*%
%ADD12R,0.0748X0.0551*%
%ADD13R,0.0591X0.0315*%
%ADD14R,0.0591X0.0512*%
%ADD15R,0.0350X0.0310*%
%ADD16R,0.0787X0.0276*%
%ADD17R,0.0591X0.0591*%
%ADD18R,0.0394X0.0787*%
%ADD19R,0.0551X0.0315*%
%ADD20R,0.0610X0.0591*%
%ADD21C,0.0100*%
%ADD22C,0.0360*%
%ADD23C,0.0160*%
%ADD24C,0.0120*%
D10*
X002252Y001051D02*
X002252Y001651D01*
X003252Y001651D02*
X003252Y001051D01*
X004252Y001051D02*
X004252Y001651D01*
X005252Y001651D02*
X005252Y001051D01*
X006252Y001051D02*
X006252Y001651D01*
X007252Y001651D02*
X007252Y001051D01*
X008252Y001051D02*
X008252Y001651D01*
X009252Y001651D02*
X009252Y001051D01*
X009252Y017051D02*
X009252Y017651D01*
X008252Y017651D02*
X008252Y017051D01*
X007252Y017051D02*
X007252Y017651D01*
X006252Y017651D02*
X006252Y017051D01*
X005252Y017051D02*
X005252Y017651D01*
X004252Y017651D02*
X004252Y017051D01*
X003252Y017051D02*
X003252Y017651D01*
X002252Y017651D02*
X002252Y017051D01*
D11*
X003579Y007442D03*
X003579Y005198D03*
D12*
X008756Y004568D03*
X009150Y009745D03*
D13*
X007634Y007910D03*
X007477Y007477D03*
X007634Y007044D03*
X007713Y006611D03*
X007634Y006178D03*
X007713Y005745D03*
X007634Y005312D03*
X007634Y004879D03*
X005642Y014961D03*
D14*
X002650Y014823D03*
X002442Y009315D03*
X002442Y008646D03*
X002422Y007185D03*
X002422Y006437D03*
D15*
X002122Y003961D03*
X002122Y003201D03*
X002922Y003581D03*
D16*
X002552Y011319D03*
X002552Y011752D03*
X002552Y012185D03*
X002552Y012619D03*
X002552Y013052D03*
X002552Y013485D03*
X002552Y013918D03*
X002552Y014351D03*
D17*
X002650Y010355D03*
D18*
X006233Y014725D03*
D19*
X005898Y010217D03*
D20*
X006843Y010309D03*
D21*
X002142Y001461D02*
X002252Y001351D01*
X002142Y003181D02*
X002122Y003201D01*
X002122Y003961D02*
X002132Y003971D01*
X002132Y004441D01*
X002222Y004531D01*
X002222Y004751D01*
X002982Y003621D02*
X002922Y003581D01*
X003467Y003876D02*
X003467Y003926D01*
X003579Y005198D02*
X003542Y005221D01*
X003632Y005311D01*
X003582Y005361D01*
X003582Y006061D01*
X003602Y007401D02*
X004102Y007401D01*
X004592Y007891D01*
X004592Y010211D01*
X004402Y010751D02*
X007252Y013601D01*
X007252Y015351D01*
X006352Y015351D01*
X006252Y015251D01*
X006252Y014744D01*
X006233Y014725D01*
X007252Y015351D02*
X007252Y017351D01*
X008842Y018201D02*
X008942Y018101D01*
X009012Y018101D01*
X009252Y017861D01*
X009252Y017351D01*
X008842Y018201D02*
X005032Y018201D01*
X004762Y017931D01*
X004762Y016761D01*
X003262Y015261D01*
X003262Y014241D01*
X002922Y013901D01*
X002582Y013901D01*
X002582Y013941D01*
X002552Y013918D01*
X002542Y013901D02*
X002582Y013901D01*
X002582Y013501D02*
X002552Y013485D01*
X002542Y013461D02*
X002582Y013461D01*
X002582Y013501D01*
X002582Y013461D02*
X002962Y013461D01*
X003602Y014101D01*
X003772Y014101D01*
X003812Y014141D01*
X003392Y013061D02*
X003352Y013021D01*
X003882Y012581D02*
X003902Y012561D01*
X003882Y012581D02*
X002582Y012581D01*
X002582Y012621D01*
X002552Y012619D01*
X002542Y012581D02*
X002582Y012581D01*
X002552Y012185D02*
X002542Y012181D01*
X002542Y012141D01*
X002262Y012141D01*
X002047Y012076D02*
X002022Y012101D01*
X002022Y014541D01*
X002302Y014821D01*
X002622Y014821D01*
X002650Y014823D01*
X002582Y013061D02*
X002552Y013052D01*
X002582Y013061D02*
X002582Y013021D01*
X002582Y011781D02*
X002552Y011752D01*
X002542Y011741D02*
X002582Y011741D01*
X002582Y011781D01*
X002582Y011741D02*
X004102Y011741D01*
X004622Y012261D01*
X004622Y013561D01*
X004402Y010751D02*
X003392Y010751D01*
X002662Y010341D02*
X002662Y010211D01*
X002662Y010341D02*
X002650Y010355D01*
X003252Y009341D02*
X003252Y009301D01*
X002462Y007741D02*
X002462Y007225D01*
X002422Y007185D01*
X003542Y007461D02*
X003602Y007401D01*
X003579Y007442D02*
X003542Y007461D01*
X006462Y005141D02*
X006502Y005141D01*
X007132Y005771D01*
X007132Y005931D01*
X007312Y006111D01*
X007432Y006111D01*
X007462Y006141D01*
X007622Y006141D01*
X007634Y006178D01*
X007702Y006581D02*
X007713Y006611D01*
X007622Y007021D02*
X007602Y007041D01*
X007142Y007041D01*
X006582Y006481D01*
X006582Y006431D01*
X007292Y005321D02*
X007002Y005031D01*
X007002Y004561D01*
X007532Y004031D01*
X007672Y004031D01*
X007622Y005301D02*
X007602Y005321D01*
X007292Y005321D01*
X007622Y005301D02*
X007634Y005312D01*
X007713Y005745D02*
X007902Y005741D01*
X007942Y005701D01*
X007862Y005741D02*
X007742Y005741D01*
X007713Y005745D01*
X007622Y007021D02*
X007634Y007044D01*
X007552Y007451D02*
X008252Y007451D01*
X008632Y007831D01*
X008632Y008301D01*
X009142Y009701D02*
X009150Y009745D01*
X009142Y009781D01*
X007502Y007501D02*
X007552Y007451D01*
X007502Y007501D02*
X007477Y007477D01*
X008762Y004601D02*
X008742Y004581D01*
X008756Y004568D01*
X008742Y004541D01*
X009032Y001571D02*
X009252Y001351D01*
D22*
X007672Y004031D03*
X006462Y005141D03*
X006582Y006431D03*
X008632Y008301D03*
X004622Y013561D03*
X003902Y012561D03*
X003392Y013061D03*
X003812Y014141D03*
X003392Y010751D03*
X003252Y009301D03*
X003292Y008411D03*
X002462Y007741D03*
X003582Y006061D03*
X002222Y004751D03*
D23*
X002872Y004621D02*
X002872Y004521D01*
X003467Y003926D01*
X003467Y003876D02*
X003172Y003581D01*
X003022Y003581D01*
X002982Y003621D01*
X002872Y004621D02*
X004952Y004621D01*
X006182Y005851D01*
X006682Y005851D01*
X007022Y006191D01*
X007022Y006371D01*
X007232Y006581D01*
X007702Y006581D01*
X007942Y005701D02*
X008962Y005701D01*
X009150Y005889D01*
X009150Y009745D01*
X009142Y009781D02*
X008613Y010309D01*
X006843Y010309D01*
X006693Y010309D01*
X006352Y010651D01*
X005032Y010651D01*
X004592Y010211D01*
X002662Y010211D01*
X002422Y010211D01*
X002422Y009335D01*
X002442Y009315D01*
X002442Y008646D02*
X002462Y008626D01*
X002462Y008381D01*
X002572Y008271D01*
X002612Y008181D01*
X003022Y008181D01*
X002982Y007941D01*
X003022Y007901D01*
X003022Y005701D01*
X002822Y005701D01*
X002462Y006061D01*
X002462Y006397D01*
X002422Y006437D01*
X003022Y005701D02*
X003022Y005441D01*
X002872Y005291D01*
X002872Y004621D01*
X002142Y003181D02*
X002142Y001461D01*
X003022Y008181D02*
X003292Y008411D01*
X002422Y010211D02*
X002082Y010211D01*
X002112Y012141D02*
X002262Y012141D01*
X002542Y013021D02*
X002582Y013021D01*
X003352Y013021D01*
X008962Y005701D02*
X008762Y005501D01*
X008762Y004601D01*
X008756Y004568D02*
X008756Y002366D01*
X009032Y002091D01*
X009032Y001571D01*
D24*
X002047Y012076D02*
X002112Y012141D01*
X002047Y012076D02*
X001952Y011981D01*
X001952Y010341D01*
X002082Y010211D01*
M02*
