G75*
G70*
%OFA0B0*%
%FSLAX24Y24*%
%IPPOS*%
%LPD*%
%AMOC8*
5,1,8,0,0,1.08239X$1,22.5*
%
%ADD10C,0.0600*%
%ADD11C,0.0360*%
%ADD12C,0.0100*%
%ADD13C,0.0160*%
D10*
X002252Y001051D02*
X002252Y001651D01*
X003252Y001651D02*
X003252Y001051D01*
X004252Y001051D02*
X004252Y001651D01*
X005252Y001651D02*
X005252Y001051D01*
X006252Y001051D02*
X006252Y001651D01*
X007252Y001651D02*
X007252Y001051D01*
X008252Y001051D02*
X008252Y001651D01*
X009252Y001651D02*
X009252Y001051D01*
X009252Y017051D02*
X009252Y017651D01*
X008252Y017651D02*
X008252Y017051D01*
X007252Y017051D02*
X007252Y017651D01*
X006252Y017651D02*
X006252Y017051D01*
X005252Y017051D02*
X005252Y017651D01*
X004252Y017651D02*
X004252Y017051D01*
X003252Y017051D02*
X003252Y017651D01*
X002252Y017651D02*
X002252Y017051D01*
D11*
X003812Y014141D03*
X003392Y013061D03*
X003902Y012561D03*
X004622Y013561D03*
X003392Y010751D03*
X003252Y009301D03*
X003292Y008411D03*
X002462Y007741D03*
X003582Y006061D03*
X002222Y004751D03*
X006462Y005141D03*
X006582Y006431D03*
X007672Y004031D03*
X008632Y008301D03*
D12*
X008632Y009251D01*
X007922Y009961D01*
X007932Y015441D01*
X009252Y016761D01*
X009252Y017351D01*
X008252Y017351D02*
X008252Y016881D01*
X007592Y016221D01*
X003062Y016221D01*
X002062Y015221D01*
X002062Y004911D01*
X002222Y004751D01*
X003582Y006061D02*
X002462Y007181D01*
X002462Y007741D01*
X002502Y007781D01*
X002502Y008781D01*
X003022Y009301D01*
X003252Y009301D01*
X003252Y010621D01*
X003342Y010621D01*
X003392Y010751D01*
X003902Y012561D02*
X006022Y010441D01*
X006022Y006131D01*
X006462Y005691D01*
X006462Y005141D01*
X006382Y005141D01*
X003282Y002041D01*
X003282Y001401D01*
X003262Y001381D01*
X003252Y001351D01*
X004232Y001371D02*
X004252Y001351D01*
X004262Y001381D01*
X004232Y001371D02*
X004232Y001791D01*
X004442Y002001D01*
X004552Y002001D01*
X007002Y004451D01*
X007002Y005671D01*
X006782Y005891D01*
X006582Y006431D01*
X006722Y006481D01*
X006722Y010621D01*
X003812Y013531D01*
X003812Y014141D01*
X003392Y013061D02*
X003372Y013041D01*
X004622Y013561D02*
X005472Y013561D01*
X007662Y011371D01*
X007662Y004041D01*
X007672Y004031D01*
X005842Y002201D01*
X005512Y002201D01*
X005262Y001951D01*
X005262Y001381D01*
X005252Y001351D01*
X006462Y005141D02*
X006462Y005181D01*
D13*
X004032Y008891D02*
X003592Y008571D01*
X003292Y008411D01*
X004032Y008891D02*
X004032Y011381D01*
X003372Y012041D01*
X003372Y013041D01*
M02*
