G75*
G70*
%OFA0B0*%
%FSLAX24Y24*%
%IPPOS*%
%LPD*%
%AMOC8*
5,1,8,0,0,1.08239X$1,22.5*
%
%ADD10C,0.0680*%
%ADD11R,0.0631X0.0789*%
%ADD12R,0.0828X0.0631*%
%ADD13R,0.0671X0.0395*%
%ADD14R,0.0611X0.0671*%
%ADD15R,0.0474X0.0631*%
%ADD16R,0.0592X0.0474*%
%ADD17R,0.0671X0.0375*%
%ADD18R,0.0671X0.0592*%
%ADD19R,0.0430X0.0390*%
%ADD20C,0.0440*%
D10*
X001214Y001051D02*
X001214Y001651D01*
X002214Y001651D02*
X002214Y001051D01*
X003214Y001051D02*
X003214Y001651D01*
X004214Y001651D02*
X004214Y001051D01*
X005214Y001051D02*
X005214Y001651D01*
X006214Y001651D02*
X006214Y001051D01*
X007214Y001051D02*
X007214Y001651D01*
X008214Y001651D02*
X008214Y001051D01*
X008214Y017051D02*
X008214Y017651D01*
X007214Y017651D02*
X007214Y017051D01*
X006214Y017051D02*
X006214Y017651D01*
X005214Y017651D02*
X005214Y017051D01*
X004214Y017051D02*
X004214Y017651D01*
X003214Y017651D02*
X003214Y017051D01*
X002214Y017051D02*
X002214Y017651D01*
X001214Y017651D02*
X001214Y017051D01*
D11*
X002541Y007442D03*
X002541Y005198D03*
D12*
X007718Y004568D03*
X008112Y009745D03*
D13*
X006596Y007910D03*
X006439Y007477D03*
X006596Y007044D03*
X006675Y006611D03*
X006596Y006178D03*
X006675Y005745D03*
X006596Y005312D03*
X006596Y004879D03*
D14*
X007513Y010600D03*
X007907Y015974D03*
D15*
X006322Y010541D03*
D16*
X001499Y010768D03*
D17*
X001479Y011299D03*
X001479Y011732D03*
X001479Y012165D03*
X001479Y012598D03*
X001479Y013031D03*
X001479Y013464D03*
X001479Y013898D03*
X001479Y014331D03*
D18*
X001404Y009315D03*
X001404Y008646D03*
X001384Y007185D03*
X001384Y006437D03*
D19*
X001084Y003961D03*
X001084Y003201D03*
X001884Y003581D03*
D20*
X001184Y004751D03*
X002544Y006061D03*
X001424Y007741D03*
X002254Y008411D03*
X002214Y009301D03*
X002354Y010751D03*
X002864Y012561D03*
X002354Y013061D03*
X002774Y014141D03*
X003584Y013561D03*
X005544Y006431D03*
X005424Y005141D03*
X006634Y004031D03*
X007594Y008301D03*
M02*
