%
M48
M72
T01C0.0200
T02C0.0400
%
T01
X2222Y4751
X3582Y6061
X2462Y7741
X3292Y8411
X3252Y9301
X3392Y10751
X3902Y12561
X3392Y13061
X3812Y14141
X4622Y13561
X8632Y8301
X6582Y6431
X6462Y5141
X7672Y4031
T02
X2252Y1351
X3252Y1351
X4252Y1351
X5252Y1351
X6252Y1351
X7252Y1351
X8252Y1351
X9252Y1351
X9252Y17351
X8252Y17351
X7252Y17351
X6252Y17351
X5252Y17351
X4252Y17351
X3252Y17351
X2252Y17351
M30
