G75*
G70*
%OFA0B0*%
%FSLAX24Y24*%
%IPPOS*%
%LPD*%
%AMOC8*
5,1,8,0,0,1.08239X$1,22.5*
%
%ADD10C,0.0600*%
%ADD11R,0.0886X0.0394*%
%ADD12R,0.0394X0.0886*%
%ADD13R,0.0276X0.0354*%
%ADD14C,0.0591*%
%ADD15R,0.0354X0.0276*%
%ADD16R,0.0591X0.0512*%
%ADD17C,0.0160*%
%ADD18C,0.0080*%
%ADD19C,0.0310*%
D10*
X000921Y010384D02*
X000921Y010984D01*
X001921Y010984D02*
X001921Y010384D01*
X002921Y010384D02*
X002921Y010984D01*
X003921Y010984D02*
X003921Y010384D01*
X004921Y010384D02*
X004921Y010984D01*
X005921Y010984D02*
X005921Y010384D01*
X006921Y010384D02*
X006921Y010984D01*
X007921Y010984D02*
X007921Y010384D01*
X007921Y026384D02*
X007921Y026984D01*
X006921Y026984D02*
X006921Y026384D01*
X005921Y026384D02*
X005921Y026984D01*
X004921Y026984D02*
X004921Y026384D01*
X003921Y026384D02*
X003921Y026984D01*
X002921Y026984D02*
X002921Y026384D01*
X001921Y026384D02*
X001921Y026984D01*
X000921Y026984D02*
X000921Y026384D01*
D11*
X000921Y020584D03*
X000921Y019797D03*
X000921Y019009D03*
D12*
X001315Y015860D03*
X002102Y015860D03*
X002890Y015860D03*
X003677Y015860D03*
X004465Y015860D03*
X005252Y015860D03*
X006039Y015860D03*
X006039Y023734D03*
X005252Y023734D03*
X004465Y023734D03*
X003677Y023734D03*
X002890Y023734D03*
X002102Y023734D03*
X001315Y023734D03*
D13*
X004827Y014534D03*
X005227Y014534D03*
X005627Y014534D03*
X005627Y013784D03*
X005227Y013784D03*
X004827Y013784D03*
X004827Y013034D03*
X005227Y013034D03*
X005627Y013034D03*
D14*
X004121Y014784D03*
X002121Y014984D03*
D15*
X007021Y013590D03*
X007021Y013190D03*
X004471Y024728D03*
X004471Y025128D03*
X004471Y025528D03*
X003671Y025528D03*
X003671Y025128D03*
X003671Y024728D03*
D16*
X001221Y014658D03*
X001221Y013910D03*
D17*
X001221Y013534D01*
X001071Y013384D01*
X000671Y013384D01*
X000671Y018634D01*
X000621Y018684D01*
X000621Y018934D01*
X000671Y018984D01*
X000896Y018984D01*
X000921Y019009D01*
X000921Y020584D02*
X000671Y020834D01*
X000671Y021184D01*
X001315Y015860D02*
X001271Y015816D01*
X001271Y015234D01*
X001221Y015184D01*
X001221Y014658D01*
X000671Y013384D02*
X000671Y013134D01*
X000921Y012884D01*
X000921Y010684D01*
D18*
X000461Y009724D02*
X000461Y018561D01*
X000471Y018551D01*
X000471Y013301D01*
X000471Y013051D01*
X000588Y012934D01*
X000721Y012801D01*
X000721Y011355D01*
X000683Y011340D01*
X000565Y011222D01*
X000501Y011067D01*
X000501Y010300D01*
X000565Y010146D01*
X000683Y010028D01*
X000838Y009964D01*
X001005Y009964D01*
X001159Y010028D01*
X001277Y010146D01*
X001341Y010300D01*
X001341Y011067D01*
X001277Y011222D01*
X001159Y011340D01*
X001121Y011355D01*
X001121Y012801D01*
X001121Y012967D01*
X000904Y013184D01*
X001154Y013184D01*
X001271Y013301D01*
X001304Y013334D01*
X001344Y013374D01*
X001938Y013374D01*
X002031Y013467D01*
X002485Y013922D01*
X002517Y013909D01*
X002626Y013909D01*
X002727Y013951D01*
X002800Y014024D01*
X004282Y014024D01*
X004266Y014017D01*
X004188Y013939D01*
X004146Y013838D01*
X004146Y013729D01*
X004188Y013628D01*
X004266Y013551D01*
X004367Y013509D01*
X004476Y013509D01*
X004576Y013550D01*
X004640Y013487D01*
X004667Y013487D01*
X004667Y013331D01*
X004640Y013331D01*
X004569Y013261D01*
X004569Y012807D01*
X004640Y012737D01*
X005011Y012737D01*
X005011Y012550D01*
X005011Y012417D01*
X005161Y012267D01*
X005161Y011750D01*
X004855Y011444D01*
X004799Y011388D01*
X004683Y011340D01*
X004565Y011222D01*
X004501Y011067D01*
X004501Y010300D01*
X004565Y010146D01*
X004683Y010028D01*
X004838Y009964D01*
X005005Y009964D01*
X005159Y010028D01*
X005277Y010146D01*
X005341Y010300D01*
X005341Y011067D01*
X005277Y011222D01*
X005181Y011318D01*
X005481Y011617D01*
X005481Y011750D01*
X005481Y012400D01*
X005388Y012494D01*
X005331Y012550D01*
X005331Y012737D01*
X005411Y012737D01*
X005431Y012717D01*
X005598Y012717D01*
X005598Y013005D01*
X005656Y013005D01*
X005656Y013063D01*
X005905Y013063D01*
X005905Y013224D01*
X006161Y012967D01*
X006161Y011750D01*
X005855Y011444D01*
X005799Y011388D01*
X005683Y011340D01*
X005565Y011222D01*
X005501Y011067D01*
X005501Y010300D01*
X005565Y010146D01*
X005683Y010028D01*
X005838Y009964D01*
X006005Y009964D01*
X006159Y010028D01*
X006277Y010146D01*
X006341Y010300D01*
X006341Y011067D01*
X006277Y011222D01*
X006181Y011318D01*
X006481Y011617D01*
X006481Y011750D01*
X006481Y013100D01*
X006388Y013194D01*
X005988Y013594D01*
X005885Y013594D01*
X005885Y013624D01*
X006005Y013624D01*
X006138Y013624D01*
X006288Y013774D01*
X006292Y013774D01*
X006366Y013701D01*
X006371Y013698D01*
X006371Y013534D01*
X006724Y013181D01*
X006724Y013002D01*
X006794Y012932D01*
X006861Y012932D01*
X006861Y012867D01*
X007111Y012617D01*
X007111Y011800D01*
X006855Y011544D01*
X006761Y011450D01*
X006761Y011372D01*
X006683Y011340D01*
X006565Y011222D01*
X006501Y011067D01*
X006501Y010300D01*
X006565Y010146D01*
X006683Y010028D01*
X006838Y009964D01*
X007005Y009964D01*
X007159Y010028D01*
X007277Y010146D01*
X007341Y010300D01*
X007341Y011067D01*
X007277Y011222D01*
X007159Y011340D01*
X007120Y011356D01*
X007431Y011667D01*
X007431Y011800D01*
X007431Y012474D01*
X008381Y011524D01*
X008381Y009724D01*
X000461Y009724D01*
X000461Y009748D02*
X008381Y009748D01*
X008381Y009826D02*
X000461Y009826D01*
X000461Y009905D02*
X008381Y009905D01*
X008381Y009984D02*
X008105Y009984D01*
X008171Y010011D02*
X008009Y009944D01*
X007961Y009944D01*
X007961Y010644D01*
X007881Y010644D01*
X007481Y010644D01*
X007481Y010296D01*
X007548Y010134D01*
X007672Y010011D01*
X007834Y009944D01*
X007881Y009944D01*
X007881Y010644D01*
X007881Y010724D01*
X007881Y011424D01*
X007834Y011424D01*
X007672Y011357D01*
X007548Y011233D01*
X007481Y011071D01*
X007481Y010724D01*
X007881Y010724D01*
X007961Y010724D01*
X007961Y011424D01*
X008009Y011424D01*
X008171Y011357D01*
X008294Y011233D01*
X008361Y011071D01*
X008361Y010724D01*
X007961Y010724D01*
X007961Y010644D01*
X008361Y010644D01*
X008361Y010296D01*
X008294Y010134D01*
X008171Y010011D01*
X008222Y010062D02*
X008381Y010062D01*
X008381Y010141D02*
X008297Y010141D01*
X008329Y010219D02*
X008381Y010219D01*
X008381Y010298D02*
X008361Y010298D01*
X008361Y010376D02*
X008381Y010376D01*
X008381Y010455D02*
X008361Y010455D01*
X008361Y010533D02*
X008381Y010533D01*
X008381Y010612D02*
X008361Y010612D01*
X008381Y010690D02*
X007961Y010690D01*
X007961Y010612D02*
X007881Y010612D01*
X007881Y010690D02*
X007341Y010690D01*
X007341Y010612D02*
X007481Y010612D01*
X007481Y010533D02*
X007341Y010533D01*
X007341Y010455D02*
X007481Y010455D01*
X007481Y010376D02*
X007341Y010376D01*
X007340Y010298D02*
X007481Y010298D01*
X007513Y010219D02*
X007308Y010219D01*
X007272Y010141D02*
X007546Y010141D01*
X007621Y010062D02*
X007194Y010062D01*
X007053Y009984D02*
X007738Y009984D01*
X007881Y009984D02*
X007961Y009984D01*
X007961Y010062D02*
X007881Y010062D01*
X007881Y010141D02*
X007961Y010141D01*
X007961Y010219D02*
X007881Y010219D01*
X007881Y010298D02*
X007961Y010298D01*
X007961Y010376D02*
X007881Y010376D01*
X007881Y010455D02*
X007961Y010455D01*
X007961Y010533D02*
X007881Y010533D01*
X007881Y010769D02*
X007961Y010769D01*
X007961Y010847D02*
X007881Y010847D01*
X007881Y010926D02*
X007961Y010926D01*
X007961Y011005D02*
X007881Y011005D01*
X007881Y011083D02*
X007961Y011083D01*
X007961Y011162D02*
X007881Y011162D01*
X007881Y011240D02*
X007961Y011240D01*
X007961Y011319D02*
X007881Y011319D01*
X007881Y011397D02*
X007961Y011397D01*
X008073Y011397D02*
X008381Y011397D01*
X008381Y011319D02*
X008209Y011319D01*
X008287Y011240D02*
X008381Y011240D01*
X008381Y011162D02*
X008324Y011162D01*
X008356Y011083D02*
X008381Y011083D01*
X008381Y011005D02*
X008361Y011005D01*
X008361Y010926D02*
X008381Y010926D01*
X008381Y010847D02*
X008361Y010847D01*
X008361Y010769D02*
X008381Y010769D01*
X008381Y011476D02*
X007240Y011476D01*
X007318Y011554D02*
X008351Y011554D01*
X008272Y011633D02*
X007397Y011633D01*
X007431Y011711D02*
X008194Y011711D01*
X008115Y011790D02*
X007431Y011790D01*
X007431Y011869D02*
X008036Y011869D01*
X007958Y011947D02*
X007431Y011947D01*
X007431Y012026D02*
X007879Y012026D01*
X007801Y012104D02*
X007431Y012104D01*
X007431Y012183D02*
X007722Y012183D01*
X007644Y012261D02*
X007431Y012261D01*
X007431Y012340D02*
X007565Y012340D01*
X007487Y012418D02*
X007431Y012418D01*
X007271Y012684D02*
X007271Y011734D01*
X006921Y011384D01*
X006921Y010684D01*
X007341Y010769D02*
X007481Y010769D01*
X007481Y010847D02*
X007341Y010847D01*
X007341Y010926D02*
X007481Y010926D01*
X007481Y011005D02*
X007341Y011005D01*
X007335Y011083D02*
X007486Y011083D01*
X007519Y011162D02*
X007302Y011162D01*
X007259Y011240D02*
X007556Y011240D01*
X007634Y011319D02*
X007180Y011319D01*
X007161Y011397D02*
X007770Y011397D01*
X007101Y011790D02*
X006481Y011790D01*
X006481Y011869D02*
X007111Y011869D01*
X007111Y011947D02*
X006481Y011947D01*
X006481Y012026D02*
X007111Y012026D01*
X007111Y012104D02*
X006481Y012104D01*
X006481Y012183D02*
X007111Y012183D01*
X007111Y012261D02*
X006481Y012261D01*
X006481Y012340D02*
X007111Y012340D01*
X007111Y012418D02*
X006481Y012418D01*
X006481Y012497D02*
X007111Y012497D01*
X007111Y012575D02*
X006481Y012575D01*
X006481Y012654D02*
X007075Y012654D01*
X006996Y012733D02*
X006481Y012733D01*
X006481Y012811D02*
X006918Y012811D01*
X006861Y012890D02*
X006481Y012890D01*
X006481Y012968D02*
X006758Y012968D01*
X006724Y013047D02*
X006481Y013047D01*
X006456Y013125D02*
X006724Y013125D01*
X006701Y013204D02*
X006377Y013204D01*
X006299Y013282D02*
X006623Y013282D01*
X006544Y013361D02*
X006220Y013361D01*
X006142Y013439D02*
X006466Y013439D01*
X006387Y013518D02*
X006063Y013518D01*
X005921Y013434D02*
X006321Y013034D01*
X006321Y011684D01*
X005921Y011284D01*
X005921Y010684D01*
X006341Y010690D02*
X006501Y010690D01*
X006501Y010612D02*
X006341Y010612D01*
X006341Y010533D02*
X006501Y010533D01*
X006501Y010455D02*
X006341Y010455D01*
X006341Y010376D02*
X006501Y010376D01*
X006502Y010298D02*
X006340Y010298D01*
X006308Y010219D02*
X006535Y010219D01*
X006570Y010141D02*
X006272Y010141D01*
X006194Y010062D02*
X006649Y010062D01*
X006790Y009984D02*
X006053Y009984D01*
X005790Y009984D02*
X005053Y009984D01*
X005194Y010062D02*
X005649Y010062D01*
X005570Y010141D02*
X005272Y010141D01*
X005308Y010219D02*
X005535Y010219D01*
X005502Y010298D02*
X005340Y010298D01*
X005341Y010376D02*
X005501Y010376D01*
X005501Y010455D02*
X005341Y010455D01*
X005341Y010533D02*
X005501Y010533D01*
X005501Y010612D02*
X005341Y010612D01*
X005341Y010690D02*
X005501Y010690D01*
X005501Y010769D02*
X005341Y010769D01*
X005341Y010847D02*
X005501Y010847D01*
X005501Y010926D02*
X005341Y010926D01*
X005341Y011005D02*
X005501Y011005D01*
X005508Y011083D02*
X005335Y011083D01*
X005302Y011162D02*
X005540Y011162D01*
X005584Y011240D02*
X005259Y011240D01*
X005183Y011319D02*
X005662Y011319D01*
X005809Y011397D02*
X005261Y011397D01*
X005340Y011476D02*
X005887Y011476D01*
X005966Y011554D02*
X005418Y011554D01*
X005481Y011633D02*
X006044Y011633D01*
X006123Y011711D02*
X005481Y011711D01*
X005481Y011790D02*
X006161Y011790D01*
X006161Y011869D02*
X005481Y011869D01*
X005481Y011947D02*
X006161Y011947D01*
X006161Y012026D02*
X005481Y012026D01*
X005481Y012104D02*
X006161Y012104D01*
X006161Y012183D02*
X005481Y012183D01*
X005481Y012261D02*
X006161Y012261D01*
X006161Y012340D02*
X005481Y012340D01*
X005463Y012418D02*
X006161Y012418D01*
X006161Y012497D02*
X005384Y012497D01*
X005331Y012575D02*
X006161Y012575D01*
X006161Y012654D02*
X005331Y012654D01*
X005331Y012733D02*
X005415Y012733D01*
X005598Y012733D02*
X005656Y012733D01*
X005656Y012717D02*
X005823Y012717D01*
X005905Y012799D01*
X005905Y013005D01*
X005656Y013005D01*
X005656Y012717D01*
X005656Y012811D02*
X005598Y012811D01*
X005598Y012890D02*
X005656Y012890D01*
X005656Y012968D02*
X005598Y012968D01*
X005656Y013047D02*
X006082Y013047D01*
X006004Y013125D02*
X005905Y013125D01*
X005905Y013204D02*
X005925Y013204D01*
X005921Y013434D02*
X005271Y013434D01*
X005221Y013484D01*
X005221Y013778D01*
X005227Y013784D01*
X005627Y013784D02*
X006071Y013784D01*
X006221Y013934D01*
X006521Y013934D01*
X006313Y013754D02*
X006267Y013754D01*
X006189Y013675D02*
X006371Y013675D01*
X006371Y013596D02*
X005885Y013596D01*
X005921Y014184D02*
X002571Y014184D01*
X002521Y014184D01*
X001871Y013534D01*
X001221Y013534D01*
X001331Y013361D02*
X004667Y013361D01*
X004667Y013439D02*
X002003Y013439D01*
X002082Y013518D02*
X004344Y013518D01*
X004220Y013596D02*
X002160Y013596D01*
X002239Y013675D02*
X004169Y013675D01*
X004146Y013754D02*
X002317Y013754D01*
X002396Y013832D02*
X004146Y013832D01*
X004176Y013911D02*
X002631Y013911D01*
X002512Y013911D02*
X002475Y013911D01*
X002766Y013989D02*
X004238Y013989D01*
X004421Y013784D02*
X004827Y013784D01*
X004827Y013034D01*
X004569Y013047D02*
X001041Y013047D01*
X000963Y013125D02*
X004569Y013125D01*
X004569Y013204D02*
X001174Y013204D01*
X001253Y013282D02*
X004591Y013282D01*
X004608Y013518D02*
X004498Y013518D01*
X004569Y012968D02*
X001120Y012968D01*
X001121Y012890D02*
X004569Y012890D01*
X004569Y012811D02*
X001121Y012811D01*
X001121Y012733D02*
X005011Y012733D01*
X005011Y012654D02*
X001121Y012654D01*
X001121Y012575D02*
X003286Y012575D01*
X003266Y012567D02*
X003188Y012489D01*
X003146Y012388D01*
X003146Y012279D01*
X003188Y012178D01*
X003261Y012105D01*
X003261Y011250D01*
X003255Y011244D01*
X003159Y011340D01*
X003005Y011404D01*
X002838Y011404D01*
X002683Y011340D01*
X002565Y011222D01*
X002501Y011067D01*
X002501Y010300D01*
X002565Y010146D01*
X002683Y010028D01*
X002838Y009964D01*
X003005Y009964D01*
X003159Y010028D01*
X003277Y010146D01*
X003341Y010300D01*
X003341Y010877D01*
X003488Y011024D01*
X003501Y011037D01*
X003501Y010300D01*
X003565Y010146D01*
X003683Y010028D01*
X003838Y009964D01*
X004005Y009964D01*
X004159Y010028D01*
X004277Y010146D01*
X004341Y010300D01*
X004341Y010877D01*
X004388Y010924D01*
X004481Y011017D01*
X004481Y012105D01*
X004554Y012178D01*
X004596Y012279D01*
X004596Y012388D01*
X004554Y012489D01*
X004477Y012567D01*
X004376Y012609D01*
X004267Y012609D01*
X004166Y012567D01*
X004088Y012489D01*
X004046Y012388D01*
X004046Y012279D01*
X004088Y012178D01*
X004161Y012105D01*
X004161Y011338D01*
X004159Y011340D01*
X004005Y011404D01*
X003838Y011404D01*
X003683Y011340D01*
X003581Y011238D01*
X003581Y012105D01*
X003654Y012178D01*
X003696Y012279D01*
X003696Y012388D01*
X003654Y012489D01*
X003577Y012567D01*
X003476Y012609D01*
X003367Y012609D01*
X003266Y012567D01*
X003196Y012497D02*
X002647Y012497D01*
X002627Y012517D02*
X002526Y012559D01*
X002417Y012559D01*
X002316Y012517D01*
X002238Y012439D01*
X002196Y012338D01*
X002196Y012229D01*
X002238Y012128D01*
X002264Y012102D01*
X002111Y011950D01*
X002111Y011817D01*
X002111Y011360D01*
X002005Y011404D01*
X001838Y011404D01*
X001683Y011340D01*
X001565Y011222D01*
X001501Y011067D01*
X001501Y010300D01*
X001565Y010146D01*
X001683Y010028D01*
X001838Y009964D01*
X002005Y009964D01*
X002159Y010028D01*
X002277Y010146D01*
X002341Y010300D01*
X002341Y010877D01*
X002431Y010967D01*
X002431Y011817D01*
X002538Y011924D01*
X002631Y012017D01*
X002631Y012055D01*
X002704Y012128D01*
X002746Y012229D01*
X002746Y012338D01*
X002704Y012439D01*
X002627Y012517D01*
X002713Y012418D02*
X003159Y012418D01*
X003146Y012340D02*
X002746Y012340D01*
X002746Y012261D02*
X003154Y012261D01*
X003186Y012183D02*
X002727Y012183D01*
X002681Y012104D02*
X003261Y012104D01*
X003261Y012026D02*
X002631Y012026D01*
X002561Y011947D02*
X003261Y011947D01*
X003261Y011869D02*
X002482Y011869D01*
X002431Y011790D02*
X003261Y011790D01*
X003261Y011711D02*
X002431Y011711D01*
X002431Y011633D02*
X003261Y011633D01*
X003261Y011554D02*
X002431Y011554D01*
X002431Y011476D02*
X003261Y011476D01*
X003261Y011397D02*
X003020Y011397D01*
X003180Y011319D02*
X003261Y011319D01*
X003421Y011184D02*
X003421Y012334D01*
X003696Y012340D02*
X004046Y012340D01*
X004054Y012261D02*
X003689Y012261D01*
X003656Y012183D02*
X004086Y012183D01*
X004161Y012104D02*
X003581Y012104D01*
X003581Y012026D02*
X004161Y012026D01*
X004161Y011947D02*
X003581Y011947D01*
X003581Y011869D02*
X004161Y011869D01*
X004161Y011790D02*
X003581Y011790D01*
X003581Y011711D02*
X004161Y011711D01*
X004161Y011633D02*
X003581Y011633D01*
X003581Y011554D02*
X004161Y011554D01*
X004161Y011476D02*
X003581Y011476D01*
X003581Y011397D02*
X003822Y011397D01*
X003662Y011319D02*
X003581Y011319D01*
X003581Y011240D02*
X003584Y011240D01*
X003421Y011184D02*
X002921Y010684D01*
X002501Y010690D02*
X002341Y010690D01*
X002341Y010612D02*
X002501Y010612D01*
X002501Y010533D02*
X002341Y010533D01*
X002341Y010455D02*
X002501Y010455D01*
X002501Y010376D02*
X002341Y010376D01*
X002340Y010298D02*
X002502Y010298D01*
X002535Y010219D02*
X002308Y010219D01*
X002272Y010141D02*
X002570Y010141D01*
X002649Y010062D02*
X002194Y010062D01*
X002053Y009984D02*
X002790Y009984D01*
X003053Y009984D02*
X003790Y009984D01*
X003649Y010062D02*
X003194Y010062D01*
X003272Y010141D02*
X003570Y010141D01*
X003535Y010219D02*
X003308Y010219D01*
X003340Y010298D02*
X003502Y010298D01*
X003501Y010376D02*
X003341Y010376D01*
X003341Y010455D02*
X003501Y010455D01*
X003501Y010533D02*
X003341Y010533D01*
X003341Y010612D02*
X003501Y010612D01*
X003501Y010690D02*
X003341Y010690D01*
X003341Y010769D02*
X003501Y010769D01*
X003501Y010847D02*
X003341Y010847D01*
X003390Y010926D02*
X003501Y010926D01*
X003501Y011005D02*
X003468Y011005D01*
X003921Y010684D02*
X004321Y011084D01*
X004321Y012334D01*
X004596Y012340D02*
X005089Y012340D01*
X005161Y012261D02*
X004589Y012261D01*
X004556Y012183D02*
X005161Y012183D01*
X005161Y012104D02*
X004481Y012104D01*
X004481Y012026D02*
X005161Y012026D01*
X005161Y011947D02*
X004481Y011947D01*
X004481Y011869D02*
X005161Y011869D01*
X005161Y011790D02*
X004481Y011790D01*
X004481Y011711D02*
X005123Y011711D01*
X005044Y011633D02*
X004481Y011633D01*
X004481Y011554D02*
X004966Y011554D01*
X004887Y011476D02*
X004481Y011476D01*
X004481Y011397D02*
X004809Y011397D01*
X004921Y011284D02*
X004921Y010684D01*
X004501Y010690D02*
X004341Y010690D01*
X004341Y010612D02*
X004501Y010612D01*
X004501Y010533D02*
X004341Y010533D01*
X004341Y010455D02*
X004501Y010455D01*
X004501Y010376D02*
X004341Y010376D01*
X004340Y010298D02*
X004502Y010298D01*
X004535Y010219D02*
X004308Y010219D01*
X004272Y010141D02*
X004570Y010141D01*
X004649Y010062D02*
X004194Y010062D01*
X004053Y009984D02*
X004790Y009984D01*
X004501Y010769D02*
X004341Y010769D01*
X004341Y010847D02*
X004501Y010847D01*
X004501Y010926D02*
X004390Y010926D01*
X004468Y011005D02*
X004501Y011005D01*
X004508Y011083D02*
X004481Y011083D01*
X004481Y011162D02*
X004540Y011162D01*
X004584Y011240D02*
X004481Y011240D01*
X004481Y011319D02*
X004662Y011319D01*
X004921Y011284D02*
X005321Y011684D01*
X005321Y012334D01*
X005171Y012484D01*
X005171Y012978D01*
X005227Y013034D01*
X005011Y012575D02*
X004456Y012575D01*
X004547Y012497D02*
X005011Y012497D01*
X005011Y012418D02*
X004584Y012418D01*
X004186Y012575D02*
X003556Y012575D01*
X003647Y012497D02*
X004096Y012497D01*
X004059Y012418D02*
X003684Y012418D01*
X004020Y011397D02*
X004161Y011397D01*
X002822Y011397D02*
X002431Y011397D01*
X002431Y011319D02*
X002662Y011319D01*
X002584Y011240D02*
X002431Y011240D01*
X002431Y011162D02*
X002540Y011162D01*
X002508Y011083D02*
X002431Y011083D01*
X002431Y011005D02*
X002501Y011005D01*
X002501Y010926D02*
X002390Y010926D01*
X002341Y010847D02*
X002501Y010847D01*
X002501Y010769D02*
X002341Y010769D01*
X002271Y011034D02*
X002271Y011884D01*
X002471Y012084D01*
X002471Y012284D01*
X002262Y012104D02*
X001121Y012104D01*
X001121Y012026D02*
X002187Y012026D01*
X002111Y011947D02*
X001121Y011947D01*
X001121Y011869D02*
X002111Y011869D01*
X002111Y011790D02*
X001121Y011790D01*
X001121Y011711D02*
X002111Y011711D01*
X002111Y011633D02*
X001121Y011633D01*
X001121Y011554D02*
X002111Y011554D01*
X002111Y011476D02*
X001121Y011476D01*
X001121Y011397D02*
X001822Y011397D01*
X001662Y011319D02*
X001180Y011319D01*
X001259Y011240D02*
X001584Y011240D01*
X001540Y011162D02*
X001302Y011162D01*
X001335Y011083D02*
X001508Y011083D01*
X001501Y011005D02*
X001341Y011005D01*
X001341Y010926D02*
X001501Y010926D01*
X001501Y010847D02*
X001341Y010847D01*
X001341Y010769D02*
X001501Y010769D01*
X001501Y010690D02*
X001341Y010690D01*
X001341Y010612D02*
X001501Y010612D01*
X001501Y010533D02*
X001341Y010533D01*
X001341Y010455D02*
X001501Y010455D01*
X001501Y010376D02*
X001341Y010376D01*
X001340Y010298D02*
X001502Y010298D01*
X001535Y010219D02*
X001308Y010219D01*
X001272Y010141D02*
X001570Y010141D01*
X001649Y010062D02*
X001194Y010062D01*
X001053Y009984D02*
X001790Y009984D01*
X001921Y010684D02*
X002271Y011034D01*
X002111Y011397D02*
X002020Y011397D01*
X002215Y012183D02*
X001121Y012183D01*
X001121Y012261D02*
X002196Y012261D01*
X002197Y012340D02*
X001121Y012340D01*
X001121Y012418D02*
X002229Y012418D01*
X002296Y012497D02*
X001121Y012497D01*
X000721Y012497D02*
X000461Y012497D01*
X000461Y012575D02*
X000721Y012575D01*
X000721Y012654D02*
X000461Y012654D01*
X000461Y012733D02*
X000721Y012733D01*
X000711Y012811D02*
X000461Y012811D01*
X000461Y012890D02*
X000633Y012890D01*
X000554Y012968D02*
X000461Y012968D01*
X000461Y013047D02*
X000475Y013047D01*
X000471Y013125D02*
X000461Y013125D01*
X000461Y013204D02*
X000471Y013204D01*
X000461Y013282D02*
X000471Y013282D01*
X000461Y013361D02*
X000471Y013361D01*
X000461Y013439D02*
X000471Y013439D01*
X000461Y013518D02*
X000471Y013518D01*
X000461Y013596D02*
X000471Y013596D01*
X000461Y013675D02*
X000471Y013675D01*
X000461Y013754D02*
X000471Y013754D01*
X000461Y013832D02*
X000471Y013832D01*
X000461Y013911D02*
X000471Y013911D01*
X000461Y013989D02*
X000471Y013989D01*
X000461Y014068D02*
X000471Y014068D01*
X000461Y014146D02*
X000471Y014146D01*
X000461Y014225D02*
X000471Y014225D01*
X000461Y014303D02*
X000471Y014303D01*
X000461Y014382D02*
X000471Y014382D01*
X000461Y014460D02*
X000471Y014460D01*
X000461Y014539D02*
X000471Y014539D01*
X000461Y014618D02*
X000471Y014618D01*
X000461Y014696D02*
X000471Y014696D01*
X000461Y014775D02*
X000471Y014775D01*
X000461Y014853D02*
X000471Y014853D01*
X000461Y014932D02*
X000471Y014932D01*
X000461Y015010D02*
X000471Y015010D01*
X000461Y015089D02*
X000471Y015089D01*
X000461Y015167D02*
X000471Y015167D01*
X000461Y015246D02*
X000471Y015246D01*
X000461Y015324D02*
X000471Y015324D01*
X000461Y015403D02*
X000471Y015403D01*
X000461Y015482D02*
X000471Y015482D01*
X000461Y015560D02*
X000471Y015560D01*
X000461Y015639D02*
X000471Y015639D01*
X000461Y015717D02*
X000471Y015717D01*
X000461Y015796D02*
X000471Y015796D01*
X000461Y015874D02*
X000471Y015874D01*
X000461Y015953D02*
X000471Y015953D01*
X000461Y016031D02*
X000471Y016031D01*
X000461Y016110D02*
X000471Y016110D01*
X000461Y016188D02*
X000471Y016188D01*
X000461Y016267D02*
X000471Y016267D01*
X000461Y016346D02*
X000471Y016346D01*
X000461Y016424D02*
X000471Y016424D01*
X000461Y016503D02*
X000471Y016503D01*
X000461Y016581D02*
X000471Y016581D01*
X000461Y016660D02*
X000471Y016660D01*
X000461Y016738D02*
X000471Y016738D01*
X000461Y016817D02*
X000471Y016817D01*
X000461Y016895D02*
X000471Y016895D01*
X000461Y016974D02*
X000471Y016974D01*
X000461Y017052D02*
X000471Y017052D01*
X000461Y017131D02*
X000471Y017131D01*
X000461Y017209D02*
X000471Y017209D01*
X000461Y017288D02*
X000471Y017288D01*
X000461Y017367D02*
X000471Y017367D01*
X000461Y017445D02*
X000471Y017445D01*
X000461Y017524D02*
X000471Y017524D01*
X000461Y017602D02*
X000471Y017602D01*
X000461Y017681D02*
X000471Y017681D01*
X000461Y017759D02*
X000471Y017759D01*
X000461Y017838D02*
X000471Y017838D01*
X000461Y017916D02*
X000471Y017916D01*
X000461Y017995D02*
X000471Y017995D01*
X000461Y018073D02*
X000471Y018073D01*
X000461Y018152D02*
X000471Y018152D01*
X000461Y018231D02*
X000471Y018231D01*
X000461Y018309D02*
X000471Y018309D01*
X000461Y018388D02*
X000471Y018388D01*
X000461Y018466D02*
X000471Y018466D01*
X000461Y018545D02*
X000471Y018545D01*
X000871Y018545D02*
X000881Y018545D01*
X000871Y018551D02*
X000871Y018692D01*
X000881Y018692D01*
X000881Y015843D01*
X000905Y015820D01*
X000978Y015820D01*
X000978Y015359D01*
X001060Y015277D01*
X001275Y015277D01*
X001275Y015820D01*
X001355Y015820D01*
X001355Y015277D01*
X001570Y015277D01*
X001652Y015359D01*
X001652Y015820D01*
X001786Y015820D01*
X001786Y015367D01*
X001852Y015301D01*
X001769Y015219D01*
X001706Y015066D01*
X001706Y014901D01*
X001769Y014748D01*
X001886Y014632D01*
X002039Y014568D01*
X002204Y014568D01*
X002357Y014632D01*
X002473Y014748D01*
X002537Y014901D01*
X002537Y015066D01*
X002473Y015219D01*
X002372Y015320D01*
X002419Y015367D01*
X002419Y015820D01*
X002573Y015820D01*
X002573Y015367D01*
X002627Y015313D01*
X002596Y015238D01*
X002596Y015129D01*
X002638Y015028D01*
X002716Y014951D01*
X002817Y014909D01*
X002926Y014909D01*
X003027Y014951D01*
X003104Y015028D01*
X003146Y015129D01*
X003146Y015238D01*
X003122Y015297D01*
X003136Y015297D01*
X003207Y015367D01*
X003207Y015820D01*
X003360Y015820D01*
X003360Y015367D01*
X003424Y015304D01*
X003396Y015238D01*
X003396Y015129D01*
X003438Y015028D01*
X003516Y014951D01*
X003617Y014909D01*
X003724Y014909D01*
X003706Y014866D01*
X003706Y014701D01*
X003769Y014548D01*
X003886Y014432D01*
X004039Y014368D01*
X004204Y014368D01*
X004357Y014432D01*
X004473Y014548D01*
X004537Y014701D01*
X004537Y014866D01*
X004476Y015012D01*
X004581Y015117D01*
X004581Y015250D01*
X004581Y015297D01*
X004711Y015297D01*
X004781Y015367D01*
X004781Y015820D01*
X004935Y015820D01*
X004935Y015367D01*
X005005Y015297D01*
X005092Y015297D01*
X005092Y014831D01*
X005043Y014831D01*
X005023Y014851D01*
X004856Y014851D01*
X004856Y014563D01*
X004798Y014563D01*
X004798Y014851D01*
X004631Y014851D01*
X004549Y014769D01*
X004549Y014563D01*
X004798Y014563D01*
X004798Y014505D01*
X004549Y014505D01*
X004549Y014344D01*
X002800Y014344D01*
X002727Y014417D01*
X002626Y014459D01*
X002517Y014459D01*
X002416Y014417D01*
X002338Y014339D01*
X002296Y014238D01*
X002296Y014185D01*
X001805Y013694D01*
X001637Y013694D01*
X001637Y014215D01*
X001582Y014270D01*
X001657Y014344D01*
X001657Y014618D01*
X001261Y014618D01*
X001261Y014698D01*
X001181Y014698D01*
X001181Y015054D01*
X000871Y015054D01*
X000871Y018551D01*
X000871Y018623D02*
X000881Y018623D01*
X000871Y018466D02*
X000881Y018466D01*
X000871Y018388D02*
X000881Y018388D01*
X000871Y018309D02*
X000881Y018309D01*
X000871Y018231D02*
X000881Y018231D01*
X000871Y018152D02*
X000881Y018152D01*
X000871Y018073D02*
X000881Y018073D01*
X000871Y017995D02*
X000881Y017995D01*
X000871Y017916D02*
X000881Y017916D01*
X000871Y017838D02*
X000881Y017838D01*
X000871Y017759D02*
X000881Y017759D01*
X000871Y017681D02*
X000881Y017681D01*
X000871Y017602D02*
X000881Y017602D01*
X000871Y017524D02*
X000881Y017524D01*
X000871Y017445D02*
X000881Y017445D01*
X000871Y017367D02*
X000881Y017367D01*
X000871Y017288D02*
X000881Y017288D01*
X000871Y017209D02*
X000881Y017209D01*
X000871Y017131D02*
X000881Y017131D01*
X000871Y017052D02*
X000881Y017052D01*
X000871Y016974D02*
X000881Y016974D01*
X000871Y016895D02*
X000881Y016895D01*
X000871Y016817D02*
X000881Y016817D01*
X000871Y016738D02*
X000881Y016738D01*
X000871Y016660D02*
X000881Y016660D01*
X000871Y016581D02*
X000881Y016581D01*
X000871Y016503D02*
X000881Y016503D01*
X000871Y016424D02*
X000881Y016424D01*
X000871Y016346D02*
X000881Y016346D01*
X000871Y016267D02*
X000881Y016267D01*
X000871Y016188D02*
X000881Y016188D01*
X000871Y016110D02*
X000881Y016110D01*
X000871Y016031D02*
X000881Y016031D01*
X000871Y015953D02*
X000881Y015953D01*
X000871Y015874D02*
X000881Y015874D01*
X000871Y015796D02*
X000978Y015796D01*
X000978Y015717D02*
X000871Y015717D01*
X000871Y015639D02*
X000978Y015639D01*
X000978Y015560D02*
X000871Y015560D01*
X000871Y015482D02*
X000978Y015482D01*
X000978Y015403D02*
X000871Y015403D01*
X000871Y015324D02*
X001012Y015324D01*
X000871Y015246D02*
X001796Y015246D01*
X001828Y015324D02*
X001618Y015324D01*
X001652Y015403D02*
X001786Y015403D01*
X001786Y015482D02*
X001652Y015482D01*
X001652Y015560D02*
X001786Y015560D01*
X001786Y015639D02*
X001652Y015639D01*
X001652Y015717D02*
X001786Y015717D01*
X001786Y015796D02*
X001652Y015796D01*
X001355Y015796D02*
X001275Y015796D01*
X001275Y015717D02*
X001355Y015717D01*
X001355Y015639D02*
X001275Y015639D01*
X001275Y015560D02*
X001355Y015560D01*
X001355Y015482D02*
X001275Y015482D01*
X001275Y015403D02*
X001355Y015403D01*
X001355Y015324D02*
X001275Y015324D01*
X001261Y015054D02*
X001261Y014698D01*
X001657Y014698D01*
X001657Y014972D01*
X001575Y015054D01*
X001261Y015054D01*
X001261Y015010D02*
X001181Y015010D01*
X001181Y014932D02*
X001261Y014932D01*
X001261Y014853D02*
X001181Y014853D01*
X001181Y014775D02*
X001261Y014775D01*
X001261Y014696D02*
X001822Y014696D01*
X001758Y014775D02*
X001657Y014775D01*
X001657Y014853D02*
X001726Y014853D01*
X001706Y014932D02*
X001657Y014932D01*
X001618Y015010D02*
X001706Y015010D01*
X001715Y015089D02*
X000871Y015089D01*
X000871Y015167D02*
X001748Y015167D01*
X002121Y014984D02*
X002121Y015841D01*
X002102Y015860D01*
X002419Y015796D02*
X002573Y015796D01*
X002573Y015717D02*
X002419Y015717D01*
X002419Y015639D02*
X002573Y015639D01*
X002573Y015560D02*
X002419Y015560D01*
X002419Y015482D02*
X002573Y015482D01*
X002573Y015403D02*
X002419Y015403D01*
X002377Y015324D02*
X002616Y015324D01*
X002599Y015246D02*
X002446Y015246D01*
X002495Y015167D02*
X002596Y015167D01*
X002613Y015089D02*
X002527Y015089D01*
X002537Y015010D02*
X002656Y015010D01*
X002761Y014932D02*
X002537Y014932D01*
X002517Y014853D02*
X003706Y014853D01*
X003706Y014775D02*
X002484Y014775D01*
X002421Y014696D02*
X003708Y014696D01*
X003741Y014618D02*
X002322Y014618D01*
X002381Y014382D02*
X001657Y014382D01*
X001657Y014460D02*
X003857Y014460D01*
X003779Y014539D02*
X001657Y014539D01*
X001657Y014618D02*
X001920Y014618D01*
X001616Y014303D02*
X002323Y014303D01*
X002296Y014225D02*
X001627Y014225D01*
X001637Y014146D02*
X002258Y014146D01*
X002179Y014068D02*
X001637Y014068D01*
X001637Y013989D02*
X002101Y013989D01*
X002022Y013911D02*
X001637Y013911D01*
X001637Y013832D02*
X001944Y013832D01*
X001865Y013754D02*
X001637Y013754D01*
X001304Y013334D02*
X001304Y013334D01*
X001271Y013301D02*
X001271Y013301D01*
X000721Y012418D02*
X000461Y012418D01*
X000461Y012340D02*
X000721Y012340D01*
X000721Y012261D02*
X000461Y012261D01*
X000461Y012183D02*
X000721Y012183D01*
X000721Y012104D02*
X000461Y012104D01*
X000461Y012026D02*
X000721Y012026D01*
X000721Y011947D02*
X000461Y011947D01*
X000461Y011869D02*
X000721Y011869D01*
X000721Y011790D02*
X000461Y011790D01*
X000461Y011711D02*
X000721Y011711D01*
X000721Y011633D02*
X000461Y011633D01*
X000461Y011554D02*
X000721Y011554D01*
X000721Y011476D02*
X000461Y011476D01*
X000461Y011397D02*
X000721Y011397D01*
X000662Y011319D02*
X000461Y011319D01*
X000461Y011240D02*
X000584Y011240D01*
X000540Y011162D02*
X000461Y011162D01*
X000461Y011083D02*
X000508Y011083D01*
X000501Y011005D02*
X000461Y011005D01*
X000461Y010926D02*
X000501Y010926D01*
X000501Y010847D02*
X000461Y010847D01*
X000461Y010769D02*
X000501Y010769D01*
X000501Y010690D02*
X000461Y010690D01*
X000461Y010612D02*
X000501Y010612D01*
X000501Y010533D02*
X000461Y010533D01*
X000461Y010455D02*
X000501Y010455D01*
X000501Y010376D02*
X000461Y010376D01*
X000461Y010298D02*
X000502Y010298D01*
X000535Y010219D02*
X000461Y010219D01*
X000461Y010141D02*
X000570Y010141D01*
X000649Y010062D02*
X000461Y010062D01*
X000461Y009984D02*
X000790Y009984D01*
X002762Y014382D02*
X004006Y014382D01*
X004236Y014382D02*
X004549Y014382D01*
X004549Y014460D02*
X004385Y014460D01*
X004464Y014539D02*
X004798Y014539D01*
X004798Y014618D02*
X004856Y014618D01*
X004856Y014696D02*
X004798Y014696D01*
X004798Y014775D02*
X004856Y014775D01*
X005092Y014853D02*
X004537Y014853D01*
X004537Y014775D02*
X004555Y014775D01*
X004549Y014696D02*
X004534Y014696D01*
X004549Y014618D02*
X004502Y014618D01*
X004509Y014932D02*
X005092Y014932D01*
X005092Y015010D02*
X004477Y015010D01*
X004553Y015089D02*
X005092Y015089D01*
X005092Y015167D02*
X004581Y015167D01*
X004581Y015246D02*
X005092Y015246D01*
X004978Y015324D02*
X004739Y015324D01*
X004781Y015403D02*
X004935Y015403D01*
X004935Y015482D02*
X004781Y015482D01*
X004781Y015560D02*
X004935Y015560D01*
X004935Y015639D02*
X004781Y015639D01*
X004781Y015717D02*
X004935Y015717D01*
X004935Y015796D02*
X004781Y015796D01*
X004465Y015860D02*
X004421Y015816D01*
X004421Y015184D01*
X004021Y014784D01*
X004121Y014784D01*
X003561Y014932D02*
X002982Y014932D01*
X003087Y015010D02*
X003456Y015010D01*
X003413Y015089D02*
X003130Y015089D01*
X003146Y015167D02*
X003396Y015167D01*
X003399Y015246D02*
X003143Y015246D01*
X003164Y015324D02*
X003403Y015324D01*
X003360Y015403D02*
X003207Y015403D01*
X003207Y015482D02*
X003360Y015482D01*
X003360Y015560D02*
X003207Y015560D01*
X003207Y015639D02*
X003360Y015639D01*
X003360Y015717D02*
X003207Y015717D01*
X003207Y015796D02*
X003360Y015796D01*
X003671Y015854D02*
X003671Y015184D01*
X003671Y015854D02*
X003677Y015860D01*
X002890Y015860D02*
X002871Y015841D01*
X002871Y015184D01*
X005227Y014534D02*
X005252Y014559D01*
X005252Y015860D01*
X005621Y015084D02*
X005771Y015084D01*
X006021Y015334D01*
X006021Y015842D01*
X006039Y015860D01*
X005921Y014534D02*
X005627Y014534D01*
X005921Y014534D02*
X006021Y014434D01*
X006021Y014284D01*
X005921Y014184D01*
X005905Y012968D02*
X006161Y012968D01*
X006161Y012890D02*
X005905Y012890D01*
X005905Y012811D02*
X006161Y012811D01*
X006161Y012733D02*
X005839Y012733D01*
X006481Y011711D02*
X007023Y011711D01*
X006944Y011633D02*
X006481Y011633D01*
X006418Y011554D02*
X006866Y011554D01*
X006787Y011476D02*
X006340Y011476D01*
X006261Y011397D02*
X006761Y011397D01*
X006662Y011319D02*
X006183Y011319D01*
X006259Y011240D02*
X006584Y011240D01*
X006540Y011162D02*
X006302Y011162D01*
X006335Y011083D02*
X006508Y011083D01*
X006501Y011005D02*
X006341Y011005D01*
X006341Y010926D02*
X006501Y010926D01*
X006501Y010847D02*
X006341Y010847D01*
X006341Y010769D02*
X006501Y010769D01*
X007271Y012684D02*
X007021Y012934D01*
X007021Y013190D01*
X007021Y013590D02*
X007071Y013640D01*
X007071Y014184D01*
X006039Y023734D02*
X006039Y024602D01*
X006071Y024484D01*
X005819Y024593D02*
X005545Y024593D01*
X005546Y024588D02*
X005504Y024689D01*
X005427Y024767D01*
X005326Y024809D01*
X005217Y024809D01*
X005116Y024767D01*
X005038Y024689D01*
X004996Y024588D01*
X004996Y024479D01*
X005038Y024378D01*
X005092Y024324D01*
X005092Y024297D01*
X005005Y024297D01*
X004935Y024226D01*
X004935Y023774D01*
X004781Y023774D01*
X004781Y024118D01*
X004981Y024317D01*
X004981Y024450D01*
X004981Y025150D01*
X004888Y025244D01*
X004844Y025288D01*
X004768Y025288D01*
X004768Y025312D01*
X004788Y025332D01*
X004788Y025499D01*
X004500Y025499D01*
X004500Y025557D01*
X004776Y025557D01*
X004788Y025528D01*
X004866Y025451D01*
X004967Y025409D01*
X005076Y025409D01*
X005177Y025451D01*
X005254Y025528D01*
X005273Y025574D01*
X006371Y025574D01*
X006371Y023774D01*
X006356Y023774D01*
X006356Y024226D01*
X006286Y024297D01*
X006273Y024297D01*
X006304Y024328D01*
X006346Y024429D01*
X006346Y024538D01*
X006304Y024639D01*
X006227Y024717D01*
X006126Y024759D01*
X006109Y024759D01*
X006106Y024762D01*
X006082Y024762D01*
X006062Y024774D01*
X006018Y024762D01*
X005973Y024762D01*
X005956Y024745D01*
X005934Y024739D01*
X005923Y024720D01*
X005916Y024717D01*
X005838Y024639D01*
X005796Y024538D01*
X005796Y024429D01*
X005838Y024328D01*
X005870Y024297D01*
X005793Y024297D01*
X005723Y024226D01*
X005723Y023774D01*
X005569Y023774D01*
X005569Y024226D01*
X005499Y024297D01*
X005417Y024297D01*
X005427Y024301D01*
X005504Y024378D01*
X005546Y024479D01*
X005546Y024588D01*
X005546Y024514D02*
X005796Y024514D01*
X005796Y024435D02*
X005528Y024435D01*
X005483Y024357D02*
X005826Y024357D01*
X005775Y024278D02*
X005517Y024278D01*
X005569Y024200D02*
X005723Y024200D01*
X005723Y024121D02*
X005569Y024121D01*
X005569Y024043D02*
X005723Y024043D01*
X005723Y023964D02*
X005569Y023964D01*
X005569Y023886D02*
X005723Y023886D01*
X005723Y023807D02*
X005569Y023807D01*
X005252Y023734D02*
X005252Y024414D01*
X005271Y024534D01*
X005014Y024435D02*
X004981Y024435D01*
X004981Y024357D02*
X005059Y024357D01*
X004987Y024278D02*
X004942Y024278D01*
X004935Y024200D02*
X004864Y024200D01*
X004935Y024121D02*
X004785Y024121D01*
X004781Y024043D02*
X004935Y024043D01*
X004935Y023964D02*
X004781Y023964D01*
X004781Y023886D02*
X004935Y023886D01*
X004935Y023807D02*
X004781Y023807D01*
X004621Y023890D02*
X004465Y023734D01*
X004621Y023890D02*
X004621Y024184D01*
X004821Y024384D01*
X004821Y025084D01*
X004777Y025128D01*
X004471Y025128D01*
X004768Y025299D02*
X006371Y025299D01*
X006371Y025221D02*
X004910Y025221D01*
X004981Y025142D02*
X006371Y025142D01*
X006371Y025064D02*
X004981Y025064D01*
X004981Y024985D02*
X006371Y024985D01*
X006371Y024907D02*
X004981Y024907D01*
X004981Y024828D02*
X006371Y024828D01*
X006371Y024750D02*
X006148Y024750D01*
X006273Y024671D02*
X006371Y024671D01*
X006371Y024593D02*
X006324Y024593D01*
X006346Y024514D02*
X006371Y024514D01*
X006371Y024435D02*
X006346Y024435D01*
X006371Y024357D02*
X006316Y024357D01*
X006304Y024278D02*
X006371Y024278D01*
X006371Y024200D02*
X006356Y024200D01*
X006356Y024121D02*
X006371Y024121D01*
X006371Y024043D02*
X006356Y024043D01*
X006356Y023964D02*
X006371Y023964D01*
X006371Y023886D02*
X006356Y023886D01*
X006356Y023807D02*
X006371Y023807D01*
X005870Y024671D02*
X005512Y024671D01*
X005444Y024750D02*
X005961Y024750D01*
X006371Y025378D02*
X004788Y025378D01*
X004788Y025457D02*
X004860Y025457D01*
X004785Y025535D02*
X004500Y025535D01*
X004471Y025528D02*
X003671Y025528D01*
X003665Y025534D01*
X003121Y025534D01*
X002890Y025302D01*
X002890Y023734D01*
X002930Y023774D02*
X002850Y023774D01*
X002850Y024317D01*
X002635Y024317D01*
X002553Y024235D01*
X002553Y023774D01*
X002439Y023774D01*
X002439Y024235D01*
X002357Y024317D01*
X002142Y024317D01*
X002142Y023774D01*
X002062Y023774D01*
X002062Y024317D01*
X001848Y024317D01*
X001766Y024235D01*
X001766Y023774D01*
X001632Y023774D01*
X001632Y024226D01*
X001562Y024297D01*
X001475Y024297D01*
X001475Y024361D01*
X001881Y024767D01*
X001881Y024900D01*
X001881Y025567D01*
X002038Y025724D01*
X003354Y025724D01*
X003354Y025557D01*
X003642Y025557D01*
X003642Y025499D01*
X003354Y025499D01*
X003354Y025332D01*
X003374Y025312D01*
X003374Y025288D01*
X003299Y025288D01*
X003255Y025244D01*
X003161Y025150D01*
X003161Y024500D01*
X003161Y024367D01*
X003360Y024168D01*
X003360Y023774D01*
X003227Y023774D01*
X003227Y024235D01*
X003145Y024317D01*
X002930Y024317D01*
X002930Y023774D01*
X002930Y023807D02*
X002850Y023807D01*
X002850Y023886D02*
X002930Y023886D01*
X002930Y023964D02*
X002850Y023964D01*
X002850Y024043D02*
X002930Y024043D01*
X002930Y024121D02*
X002850Y024121D01*
X002850Y024200D02*
X002930Y024200D01*
X002930Y024278D02*
X002850Y024278D01*
X002597Y024278D02*
X002395Y024278D01*
X002439Y024200D02*
X002553Y024200D01*
X002553Y024121D02*
X002439Y024121D01*
X002439Y024043D02*
X002553Y024043D01*
X002553Y023964D02*
X002439Y023964D01*
X002439Y023886D02*
X002553Y023886D01*
X002553Y023807D02*
X002439Y023807D01*
X002142Y023807D02*
X002062Y023807D01*
X002062Y023886D02*
X002142Y023886D01*
X002142Y023964D02*
X002062Y023964D01*
X002062Y024043D02*
X002142Y024043D01*
X002142Y024121D02*
X002062Y024121D01*
X002062Y024200D02*
X002142Y024200D01*
X002142Y024278D02*
X002062Y024278D01*
X001809Y024278D02*
X001580Y024278D01*
X001632Y024200D02*
X001766Y024200D01*
X001766Y024121D02*
X001632Y024121D01*
X001632Y024043D02*
X001766Y024043D01*
X001766Y023964D02*
X001632Y023964D01*
X001632Y023886D02*
X001766Y023886D01*
X001766Y023807D02*
X001632Y023807D01*
X001315Y023734D02*
X001315Y024427D01*
X001721Y024834D01*
X001721Y025634D01*
X001971Y025884D01*
X004521Y025884D01*
X004921Y026284D01*
X004921Y026684D01*
X004501Y026713D02*
X004341Y026713D01*
X004341Y026635D02*
X004501Y026635D01*
X004501Y026556D02*
X004341Y026556D01*
X004341Y026478D02*
X004501Y026478D01*
X004501Y026399D02*
X004341Y026399D01*
X004341Y026321D02*
X004501Y026321D01*
X004501Y026300D02*
X004563Y026152D01*
X004455Y026044D01*
X004175Y026044D01*
X004277Y026146D01*
X004341Y026300D01*
X004341Y027067D01*
X004277Y027222D01*
X004159Y027340D01*
X004005Y027404D01*
X003838Y027404D01*
X003683Y027340D01*
X003565Y027222D01*
X003501Y027067D01*
X003501Y026300D01*
X003565Y026146D01*
X003667Y026044D01*
X003175Y026044D01*
X003277Y026146D01*
X003341Y026300D01*
X003341Y027067D01*
X003277Y027222D01*
X003159Y027340D01*
X003005Y027404D01*
X002838Y027404D01*
X002683Y027340D01*
X002565Y027222D01*
X002501Y027067D01*
X002501Y026300D01*
X002565Y026146D01*
X002667Y026044D01*
X002175Y026044D01*
X002277Y026146D01*
X002341Y026300D01*
X002341Y027067D01*
X002277Y027222D01*
X002159Y027340D01*
X002005Y027404D01*
X001838Y027404D01*
X001683Y027340D01*
X001565Y027222D01*
X001501Y027067D01*
X001501Y026300D01*
X001565Y026146D01*
X001683Y026028D01*
X001829Y025967D01*
X001655Y025794D01*
X001561Y025700D01*
X001561Y024900D01*
X001249Y024587D01*
X001155Y024494D01*
X001155Y024297D01*
X001068Y024297D01*
X000998Y024226D01*
X000998Y023774D01*
X000905Y023774D01*
X000881Y023750D01*
X000881Y020921D01*
X000461Y020921D01*
X000461Y027644D01*
X006371Y027644D01*
X006371Y025894D01*
X005200Y025894D01*
X005177Y025917D01*
X005076Y025959D01*
X004967Y025959D01*
X004866Y025917D01*
X004788Y025839D01*
X004754Y025758D01*
X004706Y025806D01*
X004669Y025806D01*
X004681Y025817D01*
X004831Y025967D01*
X004838Y025964D01*
X005005Y025964D01*
X005159Y026028D01*
X005277Y026146D01*
X005341Y026300D01*
X005341Y027067D01*
X005277Y027222D01*
X005159Y027340D01*
X005005Y027404D01*
X004838Y027404D01*
X004683Y027340D01*
X004565Y027222D01*
X004501Y027067D01*
X004501Y026300D01*
X004525Y026242D02*
X004317Y026242D01*
X004285Y026163D02*
X004558Y026163D01*
X004496Y026085D02*
X004216Y026085D01*
X004154Y025724D02*
X004154Y025724D01*
X003988Y025724D01*
X003988Y025724D01*
X003988Y025557D01*
X003700Y025557D01*
X003700Y025499D01*
X003988Y025499D01*
X003988Y025332D01*
X003968Y025312D01*
X003968Y024940D01*
X003956Y024928D01*
X003968Y024915D01*
X003968Y024888D01*
X004005Y024888D01*
X004138Y024888D01*
X004174Y024888D01*
X004174Y024915D01*
X004187Y024928D01*
X004174Y024940D01*
X004174Y025312D01*
X004154Y025332D01*
X004154Y025499D01*
X004442Y025499D01*
X004442Y025557D01*
X004154Y025557D01*
X004154Y025724D01*
X004154Y025692D02*
X003988Y025692D01*
X003988Y025614D02*
X004154Y025614D01*
X004154Y025457D02*
X003988Y025457D01*
X003988Y025378D02*
X004154Y025378D01*
X004174Y025299D02*
X003968Y025299D01*
X003968Y025221D02*
X004174Y025221D01*
X004174Y025142D02*
X003968Y025142D01*
X003968Y025064D02*
X004174Y025064D01*
X004174Y024985D02*
X003968Y024985D01*
X003968Y024907D02*
X004174Y024907D01*
X004071Y024728D02*
X004071Y024484D01*
X004071Y024728D02*
X004471Y024728D01*
X004071Y024728D02*
X003671Y024728D01*
X003671Y025128D02*
X003365Y025128D01*
X003321Y025084D01*
X003321Y024434D01*
X003521Y024234D01*
X003521Y023890D01*
X003677Y023734D01*
X003360Y023807D02*
X003227Y023807D01*
X003227Y023886D02*
X003360Y023886D01*
X003360Y023964D02*
X003227Y023964D01*
X003227Y024043D02*
X003360Y024043D01*
X003360Y024121D02*
X003227Y024121D01*
X003227Y024200D02*
X003329Y024200D01*
X003250Y024278D02*
X003183Y024278D01*
X003172Y024357D02*
X001475Y024357D01*
X001549Y024435D02*
X003161Y024435D01*
X003161Y024514D02*
X001628Y024514D01*
X001706Y024593D02*
X003161Y024593D01*
X003161Y024671D02*
X001785Y024671D01*
X001864Y024750D02*
X003161Y024750D01*
X003161Y024828D02*
X001881Y024828D01*
X001881Y024907D02*
X003161Y024907D01*
X003161Y024985D02*
X001881Y024985D01*
X001881Y025064D02*
X003161Y025064D01*
X003161Y025142D02*
X001881Y025142D01*
X001881Y025221D02*
X003232Y025221D01*
X003374Y025299D02*
X001881Y025299D01*
X001881Y025378D02*
X003354Y025378D01*
X003354Y025457D02*
X001881Y025457D01*
X001881Y025535D02*
X003642Y025535D01*
X003700Y025535D02*
X004442Y025535D01*
X004741Y025771D02*
X004760Y025771D01*
X004798Y025849D02*
X004713Y025849D01*
X004792Y025928D02*
X004892Y025928D01*
X005108Y026006D02*
X005735Y026006D01*
X005683Y026028D02*
X005838Y025964D01*
X006005Y025964D01*
X006159Y026028D01*
X006277Y026146D01*
X006341Y026300D01*
X006341Y027067D01*
X006277Y027222D01*
X006159Y027340D01*
X006005Y027404D01*
X005838Y027404D01*
X005683Y027340D01*
X005565Y027222D01*
X005501Y027067D01*
X005501Y026300D01*
X005565Y026146D01*
X005683Y026028D01*
X005626Y026085D02*
X005216Y026085D01*
X005285Y026163D02*
X005558Y026163D01*
X005525Y026242D02*
X005317Y026242D01*
X005341Y026321D02*
X005501Y026321D01*
X005501Y026399D02*
X005341Y026399D01*
X005341Y026478D02*
X005501Y026478D01*
X005501Y026556D02*
X005341Y026556D01*
X005341Y026635D02*
X005501Y026635D01*
X005501Y026713D02*
X005341Y026713D01*
X005341Y026792D02*
X005501Y026792D01*
X005501Y026870D02*
X005341Y026870D01*
X005341Y026949D02*
X005501Y026949D01*
X005501Y027027D02*
X005341Y027027D01*
X005325Y027106D02*
X005517Y027106D01*
X005550Y027184D02*
X005293Y027184D01*
X005236Y027263D02*
X005607Y027263D01*
X005688Y027342D02*
X005155Y027342D01*
X004688Y027342D02*
X004155Y027342D01*
X004236Y027263D02*
X004607Y027263D01*
X004550Y027184D02*
X004293Y027184D01*
X004325Y027106D02*
X004517Y027106D01*
X004501Y027027D02*
X004341Y027027D01*
X004341Y026949D02*
X004501Y026949D01*
X004501Y026870D02*
X004341Y026870D01*
X004341Y026792D02*
X004501Y026792D01*
X005151Y025928D02*
X006371Y025928D01*
X006371Y026006D02*
X006108Y026006D01*
X006216Y026085D02*
X006371Y026085D01*
X006371Y026163D02*
X006285Y026163D01*
X006317Y026242D02*
X006371Y026242D01*
X006371Y026321D02*
X006341Y026321D01*
X006341Y026399D02*
X006371Y026399D01*
X006371Y026478D02*
X006341Y026478D01*
X006341Y026556D02*
X006371Y026556D01*
X006371Y026635D02*
X006341Y026635D01*
X006341Y026713D02*
X006371Y026713D01*
X006371Y026792D02*
X006341Y026792D01*
X006341Y026870D02*
X006371Y026870D01*
X006371Y026949D02*
X006341Y026949D01*
X006341Y027027D02*
X006371Y027027D01*
X006371Y027106D02*
X006325Y027106D01*
X006293Y027184D02*
X006371Y027184D01*
X006371Y027263D02*
X006236Y027263D01*
X006155Y027342D02*
X006371Y027342D01*
X006371Y027420D02*
X000461Y027420D01*
X000461Y027342D02*
X000688Y027342D01*
X000683Y027340D02*
X000565Y027222D01*
X000501Y027067D01*
X000501Y026300D01*
X000565Y026146D01*
X000683Y026028D01*
X000838Y025964D01*
X001005Y025964D01*
X001159Y026028D01*
X001277Y026146D01*
X001341Y026300D01*
X001341Y027067D01*
X001277Y027222D01*
X001159Y027340D01*
X001005Y027404D01*
X000838Y027404D01*
X000683Y027340D01*
X000607Y027263D02*
X000461Y027263D01*
X000461Y027184D02*
X000550Y027184D01*
X000517Y027106D02*
X000461Y027106D01*
X000461Y027027D02*
X000501Y027027D01*
X000501Y026949D02*
X000461Y026949D01*
X000461Y026870D02*
X000501Y026870D01*
X000501Y026792D02*
X000461Y026792D01*
X000461Y026713D02*
X000501Y026713D01*
X000501Y026635D02*
X000461Y026635D01*
X000461Y026556D02*
X000501Y026556D01*
X000501Y026478D02*
X000461Y026478D01*
X000461Y026399D02*
X000501Y026399D01*
X000501Y026321D02*
X000461Y026321D01*
X000461Y026242D02*
X000525Y026242D01*
X000558Y026163D02*
X000461Y026163D01*
X000461Y026085D02*
X000626Y026085D01*
X000735Y026006D02*
X000461Y026006D01*
X000461Y025928D02*
X001789Y025928D01*
X001735Y026006D02*
X001108Y026006D01*
X001216Y026085D02*
X001626Y026085D01*
X001558Y026163D02*
X001285Y026163D01*
X001317Y026242D02*
X001525Y026242D01*
X001501Y026321D02*
X001341Y026321D01*
X001341Y026399D02*
X001501Y026399D01*
X001501Y026478D02*
X001341Y026478D01*
X001341Y026556D02*
X001501Y026556D01*
X001501Y026635D02*
X001341Y026635D01*
X001341Y026713D02*
X001501Y026713D01*
X001501Y026792D02*
X001341Y026792D01*
X001341Y026870D02*
X001501Y026870D01*
X001501Y026949D02*
X001341Y026949D01*
X001341Y027027D02*
X001501Y027027D01*
X001517Y027106D02*
X001325Y027106D01*
X001293Y027184D02*
X001550Y027184D01*
X001607Y027263D02*
X001236Y027263D01*
X001155Y027342D02*
X001688Y027342D01*
X002155Y027342D02*
X002688Y027342D01*
X002607Y027263D02*
X002236Y027263D01*
X002293Y027184D02*
X002550Y027184D01*
X002517Y027106D02*
X002325Y027106D01*
X002341Y027027D02*
X002501Y027027D01*
X002501Y026949D02*
X002341Y026949D01*
X002341Y026870D02*
X002501Y026870D01*
X002501Y026792D02*
X002341Y026792D01*
X002341Y026713D02*
X002501Y026713D01*
X002501Y026635D02*
X002341Y026635D01*
X002341Y026556D02*
X002501Y026556D01*
X002501Y026478D02*
X002341Y026478D01*
X002341Y026399D02*
X002501Y026399D01*
X002501Y026321D02*
X002341Y026321D01*
X002317Y026242D02*
X002525Y026242D01*
X002558Y026163D02*
X002285Y026163D01*
X002216Y026085D02*
X002626Y026085D01*
X002006Y025692D02*
X003354Y025692D01*
X003354Y025724D02*
X003354Y025724D01*
X003354Y025614D02*
X001928Y025614D01*
X001711Y025849D02*
X000461Y025849D01*
X000461Y025771D02*
X001632Y025771D01*
X001561Y025692D02*
X000461Y025692D01*
X000461Y025614D02*
X001561Y025614D01*
X001561Y025535D02*
X000461Y025535D01*
X000461Y025457D02*
X001561Y025457D01*
X001561Y025378D02*
X000461Y025378D01*
X000461Y025299D02*
X001561Y025299D01*
X001561Y025221D02*
X000461Y025221D01*
X000461Y025142D02*
X001561Y025142D01*
X001561Y025064D02*
X000461Y025064D01*
X000461Y024985D02*
X001561Y024985D01*
X001561Y024907D02*
X000461Y024907D01*
X000461Y024828D02*
X001490Y024828D01*
X001411Y024750D02*
X000461Y024750D01*
X000461Y024671D02*
X001332Y024671D01*
X001254Y024593D02*
X000461Y024593D01*
X000461Y024514D02*
X001175Y024514D01*
X001155Y024435D02*
X000461Y024435D01*
X000461Y024357D02*
X001155Y024357D01*
X001050Y024278D02*
X000461Y024278D01*
X000461Y024200D02*
X000998Y024200D01*
X000998Y024121D02*
X000461Y024121D01*
X000461Y024043D02*
X000998Y024043D01*
X000998Y023964D02*
X000461Y023964D01*
X000461Y023886D02*
X000998Y023886D01*
X000998Y023807D02*
X000461Y023807D01*
X000461Y023729D02*
X000881Y023729D01*
X000881Y023650D02*
X000461Y023650D01*
X000461Y023571D02*
X000881Y023571D01*
X000881Y023493D02*
X000461Y023493D01*
X000461Y023414D02*
X000881Y023414D01*
X000881Y023336D02*
X000461Y023336D01*
X000461Y023257D02*
X000881Y023257D01*
X000881Y023179D02*
X000461Y023179D01*
X000461Y023100D02*
X000881Y023100D01*
X000881Y023022D02*
X000461Y023022D01*
X000461Y022943D02*
X000881Y022943D01*
X000881Y022865D02*
X000461Y022865D01*
X000461Y022786D02*
X000881Y022786D01*
X000881Y022708D02*
X000461Y022708D01*
X000461Y022629D02*
X000881Y022629D01*
X000881Y022550D02*
X000461Y022550D01*
X000461Y022472D02*
X000881Y022472D01*
X000881Y022393D02*
X000461Y022393D01*
X000461Y022315D02*
X000881Y022315D01*
X000881Y022236D02*
X000461Y022236D01*
X000461Y022158D02*
X000881Y022158D01*
X000881Y022079D02*
X000461Y022079D01*
X000461Y022001D02*
X000881Y022001D01*
X000881Y021922D02*
X000461Y021922D01*
X000461Y021844D02*
X000881Y021844D01*
X000881Y021765D02*
X000461Y021765D01*
X000461Y021686D02*
X000881Y021686D01*
X000881Y021608D02*
X000461Y021608D01*
X000461Y021529D02*
X000881Y021529D01*
X000881Y021451D02*
X000461Y021451D01*
X000461Y021372D02*
X000881Y021372D01*
X000881Y021294D02*
X000461Y021294D01*
X000461Y021215D02*
X000881Y021215D01*
X000881Y021137D02*
X000461Y021137D01*
X000461Y021058D02*
X000881Y021058D01*
X000881Y020980D02*
X000461Y020980D01*
X000621Y020084D02*
X000634Y020084D01*
X000921Y019797D01*
X003216Y026085D02*
X003626Y026085D01*
X003558Y026163D02*
X003285Y026163D01*
X003317Y026242D02*
X003525Y026242D01*
X003501Y026321D02*
X003341Y026321D01*
X003341Y026399D02*
X003501Y026399D01*
X003501Y026478D02*
X003341Y026478D01*
X003341Y026556D02*
X003501Y026556D01*
X003501Y026635D02*
X003341Y026635D01*
X003341Y026713D02*
X003501Y026713D01*
X003501Y026792D02*
X003341Y026792D01*
X003341Y026870D02*
X003501Y026870D01*
X003501Y026949D02*
X003341Y026949D01*
X003341Y027027D02*
X003501Y027027D01*
X003517Y027106D02*
X003325Y027106D01*
X003293Y027184D02*
X003550Y027184D01*
X003607Y027263D02*
X003236Y027263D01*
X003155Y027342D02*
X003688Y027342D01*
X005021Y025684D02*
X005121Y025734D01*
X007721Y025734D01*
X007921Y025934D01*
X007921Y026684D01*
X006371Y027499D02*
X000461Y027499D01*
X000461Y027577D02*
X006371Y027577D01*
X006371Y025535D02*
X005257Y025535D01*
X005183Y025457D02*
X006371Y025457D01*
X005098Y024750D02*
X004981Y024750D01*
X004981Y024671D02*
X005031Y024671D01*
X004998Y024593D02*
X004981Y024593D01*
X004981Y024514D02*
X004996Y024514D01*
D19*
X005271Y024534D03*
X006071Y024484D03*
X005021Y025684D03*
X004071Y024484D03*
X002171Y025234D03*
X001321Y025234D03*
X000621Y020084D03*
X001071Y015184D03*
X002571Y014184D03*
X002871Y015184D03*
X003671Y015184D03*
X004421Y013784D03*
X004321Y012334D03*
X003421Y012334D03*
X002471Y012284D03*
X005621Y015084D03*
X006521Y013934D03*
X007071Y014184D03*
M02*
