G75*
G70*
%OFA0B0*%
%FSLAX24Y24*%
%IPPOS*%
%LPD*%
%AMOC8*
5,1,8,0,0,1.08239X$1,22.5*
%
%ADD10C,0.0000*%
%ADD11C,0.0030*%
%ADD12C,0.0040*%
%ADD13C,0.0080*%
%ADD14C,0.0160*%
%ADD15R,0.0200X0.0200*%
%ADD16C,0.0060*%
%ADD17C,0.0100*%
%ADD18C,0.0050*%
%ADD19R,0.0571X0.0295*%
D10*
X000171Y009434D02*
X000171Y027934D01*
X008671Y027934D01*
X008671Y009434D01*
X000171Y009434D01*
D11*
X000786Y011699D02*
X001033Y011699D01*
X001156Y011822D01*
X001033Y011946D01*
X000786Y011946D01*
X000909Y012129D02*
X000971Y012067D01*
X001095Y012067D01*
X001156Y012129D01*
X001156Y012314D01*
X001095Y012435D02*
X001156Y012497D01*
X001156Y012682D01*
X000909Y012682D02*
X000909Y012497D01*
X000971Y012435D01*
X001095Y012435D01*
X000909Y012314D02*
X000909Y012129D01*
X001786Y012129D02*
X001848Y012067D01*
X002095Y012067D01*
X002156Y012129D01*
X002156Y012252D01*
X002095Y012314D01*
X002156Y012435D02*
X001786Y012435D01*
X001848Y012314D02*
X001786Y012252D01*
X001786Y012129D01*
X001848Y011946D02*
X001786Y011884D01*
X001786Y011760D01*
X001848Y011699D01*
X001909Y011699D01*
X001971Y011760D01*
X001971Y011884D01*
X002033Y011946D01*
X002095Y011946D01*
X002156Y011884D01*
X002156Y011760D01*
X002095Y011699D01*
X002033Y012435D02*
X001786Y012682D01*
X001971Y012497D02*
X002156Y012682D01*
X002786Y012620D02*
X002786Y012497D01*
X002848Y012435D01*
X002909Y012435D01*
X002971Y012497D01*
X002971Y012620D01*
X003033Y012682D01*
X003095Y012682D01*
X003156Y012620D01*
X003156Y012497D01*
X003095Y012435D01*
X003095Y012314D02*
X002848Y012314D01*
X002786Y012252D01*
X002786Y012129D01*
X002848Y012067D01*
X003095Y012067D01*
X003156Y012129D01*
X003156Y012252D01*
X003095Y012314D01*
X003156Y011946D02*
X002786Y011946D01*
X002909Y011822D01*
X002786Y011699D01*
X003156Y011699D01*
X002786Y012620D02*
X002848Y012682D01*
X002786Y012804D02*
X002786Y012927D01*
X002786Y012865D02*
X003156Y012865D01*
X003156Y012804D02*
X003156Y012927D01*
X003786Y012866D02*
X003848Y012928D01*
X004095Y012928D01*
X004156Y012866D01*
X004156Y012743D01*
X004095Y012681D01*
X003848Y012681D01*
X003786Y012743D01*
X003786Y012866D01*
X003848Y012559D02*
X003786Y012498D01*
X003786Y012374D01*
X003848Y012313D01*
X003909Y012313D01*
X003971Y012374D01*
X003971Y012498D01*
X004033Y012559D01*
X004095Y012559D01*
X004156Y012498D01*
X004156Y012374D01*
X004095Y012313D01*
X004156Y012190D02*
X004156Y012067D01*
X004156Y012129D02*
X003786Y012129D01*
X003786Y012190D02*
X003786Y012067D01*
X003786Y011946D02*
X004156Y011946D01*
X004156Y011699D02*
X003786Y011699D01*
X003909Y011822D01*
X003786Y011946D01*
X004786Y011884D02*
X004786Y011760D01*
X004848Y011699D01*
X004909Y011699D01*
X004971Y011760D01*
X004971Y011884D01*
X005033Y011946D01*
X005095Y011946D01*
X005156Y011884D01*
X005156Y011760D01*
X005095Y011699D01*
X004848Y011946D02*
X004786Y011884D01*
X004848Y012067D02*
X004909Y012067D01*
X004971Y012129D01*
X004971Y012252D01*
X005033Y012314D01*
X005095Y012314D01*
X005156Y012252D01*
X005156Y012129D01*
X005095Y012067D01*
X004848Y012067D02*
X004786Y012129D01*
X004786Y012252D01*
X004848Y012314D01*
X005786Y012559D02*
X006156Y012559D01*
X006156Y012682D02*
X006156Y012435D01*
X006156Y012314D02*
X005909Y012067D01*
X005848Y011946D02*
X005971Y011946D01*
X006033Y011884D01*
X006033Y011699D01*
X006033Y011822D02*
X006156Y011946D01*
X006156Y012067D02*
X005909Y012314D01*
X005909Y012435D02*
X005786Y012559D01*
X005961Y012849D02*
X005900Y012910D01*
X005961Y012849D02*
X006023Y012849D01*
X006085Y012910D01*
X006085Y013219D01*
X006023Y013219D02*
X006147Y013219D01*
X006268Y013034D02*
X006515Y013034D01*
X006453Y012849D02*
X006453Y013219D01*
X006268Y013034D01*
X006330Y013599D02*
X006268Y013660D01*
X006330Y013599D02*
X006453Y013599D01*
X006515Y013660D01*
X006515Y013784D01*
X006453Y013846D01*
X006391Y013846D01*
X006268Y013784D01*
X006268Y013969D01*
X006515Y013969D01*
X006453Y014349D02*
X006330Y014349D01*
X006268Y014410D01*
X006268Y014534D01*
X006453Y014534D01*
X006515Y014472D01*
X006515Y014410D01*
X006453Y014349D01*
X006268Y014534D02*
X006391Y014657D01*
X006515Y014719D01*
X006147Y014719D02*
X006023Y014719D01*
X006085Y014719D02*
X006085Y014410D01*
X006023Y014349D01*
X005961Y014349D01*
X005900Y014410D01*
X006023Y013969D02*
X006147Y013969D01*
X006085Y013969D02*
X006085Y013660D01*
X006023Y013599D01*
X005961Y013599D01*
X005900Y013660D01*
X006786Y012559D02*
X007156Y012559D01*
X007156Y012682D02*
X007156Y012435D01*
X007156Y012314D02*
X006909Y012067D01*
X006786Y011946D02*
X006786Y011699D01*
X006786Y011822D02*
X007156Y011822D01*
X007156Y012067D02*
X006909Y012314D01*
X006909Y012435D02*
X006786Y012559D01*
X007336Y013086D02*
X007336Y013209D01*
X007336Y013147D02*
X007645Y013147D01*
X007706Y013086D01*
X007706Y013024D01*
X007645Y012962D01*
X007786Y012682D02*
X008156Y012682D01*
X008156Y012497D01*
X008095Y012435D01*
X007971Y012435D01*
X007909Y012497D01*
X007909Y012682D01*
X007971Y012314D02*
X008156Y012314D01*
X007971Y012314D02*
X007909Y012252D01*
X007909Y012067D01*
X008156Y012067D01*
X008095Y011946D02*
X008156Y011884D01*
X008156Y011760D01*
X008095Y011699D01*
X007848Y011699D01*
X007786Y011760D01*
X007786Y011884D01*
X007848Y011946D01*
X007971Y011946D02*
X007971Y011822D01*
X007971Y011946D02*
X008095Y011946D01*
X008328Y010934D02*
X008266Y010872D01*
X008266Y010749D01*
X008328Y010687D01*
X008266Y010566D02*
X008266Y010442D01*
X008266Y010504D02*
X008575Y010504D01*
X008636Y010442D01*
X008636Y010380D01*
X008575Y010319D01*
X008636Y010687D02*
X008389Y010934D01*
X008328Y010934D01*
X008636Y010934D02*
X008636Y010687D01*
X007645Y013330D02*
X007706Y013392D01*
X007706Y013516D01*
X007645Y013577D01*
X007583Y013577D01*
X007521Y013516D01*
X007521Y013454D01*
X007521Y013516D02*
X007459Y013577D01*
X007398Y013577D01*
X007336Y013516D01*
X007336Y013392D01*
X007398Y013330D01*
X006156Y011699D02*
X005786Y011699D01*
X005786Y011884D01*
X005848Y011946D01*
X005045Y024349D02*
X005106Y024410D01*
X005106Y024472D01*
X005045Y024534D01*
X004736Y024534D01*
X004736Y024472D02*
X004736Y024596D01*
X004736Y024717D02*
X004736Y024964D01*
X004798Y024964D01*
X005045Y024717D01*
X005106Y024717D01*
X005059Y025399D02*
X005121Y025460D01*
X005121Y025584D01*
X005183Y025646D01*
X005245Y025646D01*
X005306Y025584D01*
X005306Y025460D01*
X005245Y025399D01*
X005059Y025399D02*
X004998Y025399D01*
X004936Y025460D01*
X004936Y025584D01*
X004998Y025646D01*
X004998Y025767D02*
X005059Y025767D01*
X005121Y025829D01*
X005121Y025952D01*
X005183Y026014D01*
X005245Y026014D01*
X005306Y025952D01*
X005306Y025829D01*
X005245Y025767D01*
X004998Y025767D02*
X004936Y025829D01*
X004936Y025952D01*
X004998Y026014D01*
X005736Y026000D02*
X005798Y026000D01*
X005921Y025877D01*
X006106Y025877D01*
X005921Y025877D02*
X005798Y025754D01*
X005736Y025754D01*
X005798Y025632D02*
X005736Y025570D01*
X005736Y025385D01*
X006106Y025385D01*
X006106Y025570D01*
X006045Y025632D01*
X005798Y025632D01*
X005798Y025264D02*
X005921Y025264D01*
X005983Y025202D01*
X005983Y025017D01*
X005983Y024896D02*
X006045Y024896D01*
X006106Y024834D01*
X006106Y024710D01*
X006045Y024649D01*
X005921Y024710D02*
X005921Y024834D01*
X005983Y024896D01*
X006106Y025017D02*
X005736Y025017D01*
X005736Y025202D01*
X005798Y025264D01*
X005983Y025140D02*
X006106Y025264D01*
X005798Y024896D02*
X005736Y024834D01*
X005736Y024710D01*
X005798Y024649D01*
X005859Y024649D01*
X005921Y024710D01*
X006736Y024599D02*
X006859Y024722D01*
X006736Y024846D01*
X007106Y024846D01*
X007106Y024967D02*
X006736Y024967D01*
X006736Y025152D01*
X006798Y025214D01*
X006921Y025214D01*
X006983Y025152D01*
X006983Y024967D01*
X006983Y025090D02*
X007106Y025214D01*
X007106Y025335D02*
X007106Y025520D01*
X007045Y025582D01*
X006798Y025582D01*
X006736Y025520D01*
X006736Y025335D01*
X007106Y025335D01*
X006798Y025704D02*
X006921Y025827D01*
X007106Y025827D01*
X006921Y025827D02*
X006798Y025950D01*
X006736Y025950D01*
X006736Y025704D02*
X006798Y025704D01*
X006736Y024599D02*
X007106Y024599D01*
X007736Y024667D02*
X008106Y024667D01*
X008106Y024914D01*
X008045Y025035D02*
X008106Y025097D01*
X008106Y025220D01*
X008045Y025282D01*
X007983Y025282D01*
X007921Y025220D01*
X007921Y025097D01*
X007859Y025035D01*
X007798Y025035D01*
X007736Y025097D01*
X007736Y025220D01*
X007798Y025282D01*
X007736Y025404D02*
X008106Y025404D01*
X008106Y025650D01*
X007921Y025527D02*
X007921Y025404D01*
X007736Y025404D02*
X007736Y025650D01*
X007736Y025772D02*
X007736Y026019D01*
X007736Y025895D02*
X008106Y025895D01*
X007736Y024914D02*
X007736Y024667D01*
X007798Y024546D02*
X007921Y024546D01*
X007983Y024484D01*
X007983Y024299D01*
X007983Y024422D02*
X008106Y024546D01*
X007921Y024667D02*
X007921Y024790D01*
X007798Y024546D02*
X007736Y024484D01*
X007736Y024299D01*
X008106Y024299D01*
X003406Y024310D02*
X003406Y024372D01*
X003345Y024434D01*
X003036Y024434D01*
X003036Y024372D02*
X003036Y024496D01*
X003098Y024617D02*
X003159Y024617D01*
X003221Y024679D01*
X003221Y024802D01*
X003283Y024864D01*
X003345Y024864D01*
X003406Y024802D01*
X003406Y024679D01*
X003345Y024617D01*
X003283Y024617D01*
X003221Y024679D01*
X003221Y024802D02*
X003159Y024864D01*
X003098Y024864D01*
X003036Y024802D01*
X003036Y024679D01*
X003098Y024617D01*
X003406Y024310D02*
X003345Y024249D01*
D12*
X003738Y025424D02*
X003661Y025500D01*
X003738Y025424D02*
X003815Y025424D01*
X003891Y025500D01*
X003891Y025884D01*
X003815Y025884D02*
X003968Y025884D01*
X004122Y025731D02*
X004275Y025884D01*
X004275Y025424D01*
X004122Y025424D02*
X004429Y025424D01*
X000761Y022627D02*
X000761Y022320D01*
X000761Y022474D02*
X000300Y022474D01*
X000454Y022320D01*
X000300Y022167D02*
X000684Y022167D01*
X000761Y022090D01*
X000761Y021937D01*
X000684Y021860D01*
X000300Y021860D01*
X000701Y021458D02*
X000701Y020998D01*
X000548Y020998D02*
X000855Y020998D01*
X000548Y021305D02*
X000701Y021458D01*
X000801Y014721D02*
X000801Y014414D01*
X000801Y014567D02*
X000341Y014567D01*
X000494Y014414D01*
X000418Y014261D02*
X000341Y014184D01*
X000341Y014030D01*
X000418Y013954D01*
X000725Y013954D01*
X000801Y014030D01*
X000801Y014184D01*
X000725Y014261D01*
X000961Y014134D02*
X000961Y014434D01*
X001481Y014434D02*
X001481Y014144D01*
X001861Y013731D02*
X002015Y013884D01*
X002015Y013424D01*
X002168Y013424D02*
X001861Y013424D01*
X002781Y013384D02*
X003088Y013691D01*
X003088Y013767D01*
X003011Y013844D01*
X002858Y013844D01*
X002781Y013767D01*
X002781Y013384D02*
X003088Y013384D01*
X003741Y013460D02*
X003818Y013384D01*
X003971Y013384D01*
X004048Y013460D01*
X004048Y013537D01*
X003971Y013614D01*
X003895Y013614D01*
X003971Y013614D02*
X004048Y013691D01*
X004048Y013767D01*
X003971Y013844D01*
X003818Y013844D01*
X003741Y013767D01*
D13*
X003512Y013604D02*
X003514Y013642D01*
X003520Y013679D01*
X003529Y013716D01*
X003543Y013752D01*
X003560Y013786D01*
X003580Y013818D01*
X003604Y013848D01*
X003630Y013875D01*
X003660Y013899D01*
X003691Y013920D01*
X003725Y013938D01*
X003760Y013953D01*
X003796Y013963D01*
X003834Y013970D01*
X003871Y013973D01*
X003909Y013972D01*
X003947Y013967D01*
X003984Y013958D01*
X004020Y013946D01*
X004054Y013930D01*
X004087Y013910D01*
X004117Y013887D01*
X004145Y013862D01*
X004170Y013833D01*
X004192Y013802D01*
X004211Y013769D01*
X004226Y013734D01*
X004238Y013698D01*
X004246Y013661D01*
X004250Y013623D01*
X004250Y013585D01*
X004246Y013547D01*
X004238Y013510D01*
X004226Y013474D01*
X004211Y013439D01*
X004192Y013406D01*
X004170Y013375D01*
X004145Y013346D01*
X004117Y013321D01*
X004087Y013298D01*
X004054Y013278D01*
X004020Y013262D01*
X003984Y013250D01*
X003947Y013241D01*
X003909Y013236D01*
X003871Y013235D01*
X003834Y013238D01*
X003796Y013245D01*
X003760Y013255D01*
X003725Y013270D01*
X003691Y013288D01*
X003660Y013309D01*
X003630Y013333D01*
X003604Y013360D01*
X003580Y013390D01*
X003560Y013422D01*
X003543Y013456D01*
X003529Y013492D01*
X003520Y013529D01*
X003514Y013566D01*
X003512Y013604D01*
X002552Y013604D02*
X002554Y013642D01*
X002560Y013679D01*
X002569Y013716D01*
X002583Y013752D01*
X002600Y013786D01*
X002620Y013818D01*
X002644Y013848D01*
X002670Y013875D01*
X002700Y013899D01*
X002731Y013920D01*
X002765Y013938D01*
X002800Y013953D01*
X002836Y013963D01*
X002874Y013970D01*
X002911Y013973D01*
X002949Y013972D01*
X002987Y013967D01*
X003024Y013958D01*
X003060Y013946D01*
X003094Y013930D01*
X003127Y013910D01*
X003157Y013887D01*
X003185Y013862D01*
X003210Y013833D01*
X003232Y013802D01*
X003251Y013769D01*
X003266Y013734D01*
X003278Y013698D01*
X003286Y013661D01*
X003290Y013623D01*
X003290Y013585D01*
X003286Y013547D01*
X003278Y013510D01*
X003266Y013474D01*
X003251Y013439D01*
X003232Y013406D01*
X003210Y013375D01*
X003185Y013346D01*
X003157Y013321D01*
X003127Y013298D01*
X003094Y013278D01*
X003060Y013262D01*
X003024Y013250D01*
X002987Y013241D01*
X002949Y013236D01*
X002911Y013235D01*
X002874Y013238D01*
X002836Y013245D01*
X002800Y013255D01*
X002765Y013270D01*
X002731Y013288D01*
X002700Y013309D01*
X002670Y013333D01*
X002644Y013360D01*
X002620Y013390D01*
X002600Y013422D01*
X002583Y013456D01*
X002569Y013492D01*
X002560Y013529D01*
X002554Y013566D01*
X002552Y013604D01*
X001632Y013604D02*
X001634Y013642D01*
X001640Y013679D01*
X001649Y013716D01*
X001663Y013752D01*
X001680Y013786D01*
X001700Y013818D01*
X001724Y013848D01*
X001750Y013875D01*
X001780Y013899D01*
X001811Y013920D01*
X001845Y013938D01*
X001880Y013953D01*
X001916Y013963D01*
X001954Y013970D01*
X001991Y013973D01*
X002029Y013972D01*
X002067Y013967D01*
X002104Y013958D01*
X002140Y013946D01*
X002174Y013930D01*
X002207Y013910D01*
X002237Y013887D01*
X002265Y013862D01*
X002290Y013833D01*
X002312Y013802D01*
X002331Y013769D01*
X002346Y013734D01*
X002358Y013698D01*
X002366Y013661D01*
X002370Y013623D01*
X002370Y013585D01*
X002366Y013547D01*
X002358Y013510D01*
X002346Y013474D01*
X002331Y013439D01*
X002312Y013406D01*
X002290Y013375D01*
X002265Y013346D01*
X002237Y013321D01*
X002207Y013298D01*
X002174Y013278D01*
X002140Y013262D01*
X002104Y013250D01*
X002067Y013241D01*
X002029Y013236D01*
X001991Y013235D01*
X001954Y013238D01*
X001916Y013245D01*
X001880Y013255D01*
X001845Y013270D01*
X001811Y013288D01*
X001780Y013309D01*
X001750Y013333D01*
X001724Y013360D01*
X001700Y013390D01*
X001680Y013422D01*
X001663Y013456D01*
X001649Y013492D01*
X001640Y013529D01*
X001634Y013566D01*
X001632Y013604D01*
X004771Y013584D02*
X004770Y013555D01*
X004772Y013526D01*
X004779Y013497D01*
X004788Y013470D01*
X004802Y013444D01*
X004818Y013419D01*
X004838Y013398D01*
X004860Y013379D01*
X004884Y013363D01*
X004910Y013350D01*
X004938Y013341D01*
X004967Y013335D01*
X004996Y013333D01*
X005025Y013335D01*
X005054Y013341D01*
X005082Y013350D01*
X005108Y013363D01*
X005132Y013379D01*
X005154Y013398D01*
X005174Y013419D01*
X005190Y013444D01*
X005204Y013470D01*
X005213Y013497D01*
X005220Y013526D01*
X005222Y013555D01*
X005221Y013584D01*
X005221Y014334D02*
X005220Y014305D01*
X005222Y014276D01*
X005229Y014247D01*
X005238Y014220D01*
X005252Y014194D01*
X005268Y014169D01*
X005288Y014148D01*
X005310Y014129D01*
X005334Y014113D01*
X005360Y014100D01*
X005388Y014091D01*
X005417Y014085D01*
X005446Y014083D01*
X005475Y014085D01*
X005504Y014091D01*
X005532Y014100D01*
X005558Y014113D01*
X005582Y014129D01*
X005604Y014148D01*
X005624Y014169D01*
X005640Y014194D01*
X005654Y014220D01*
X005663Y014247D01*
X005670Y014276D01*
X005672Y014305D01*
X005671Y014334D01*
X005671Y012834D02*
X005672Y012805D01*
X005670Y012776D01*
X005663Y012747D01*
X005654Y012720D01*
X005640Y012694D01*
X005624Y012669D01*
X005604Y012648D01*
X005582Y012629D01*
X005558Y012613D01*
X005532Y012600D01*
X005504Y012591D01*
X005475Y012585D01*
X005446Y012583D01*
X005417Y012585D01*
X005388Y012591D01*
X005360Y012600D01*
X005334Y012613D01*
X005310Y012629D01*
X005288Y012648D01*
X005268Y012669D01*
X005252Y012694D01*
X005238Y012720D01*
X005229Y012747D01*
X005222Y012776D01*
X005220Y012805D01*
X005221Y012834D01*
X004671Y025134D02*
X004700Y025133D01*
X004729Y025135D01*
X004758Y025142D01*
X004785Y025151D01*
X004811Y025165D01*
X004836Y025181D01*
X004857Y025201D01*
X004876Y025223D01*
X004892Y025247D01*
X004905Y025273D01*
X004914Y025301D01*
X004920Y025330D01*
X004922Y025359D01*
X004920Y025388D01*
X004914Y025417D01*
X004905Y025445D01*
X004892Y025471D01*
X004876Y025495D01*
X004857Y025517D01*
X004836Y025537D01*
X004811Y025553D01*
X004785Y025567D01*
X004758Y025576D01*
X004729Y025583D01*
X004700Y025585D01*
X004671Y025584D01*
X003871Y025584D02*
X003900Y025585D01*
X003929Y025583D01*
X003958Y025576D01*
X003985Y025567D01*
X004011Y025553D01*
X004036Y025537D01*
X004057Y025517D01*
X004076Y025495D01*
X004092Y025471D01*
X004105Y025445D01*
X004114Y025417D01*
X004120Y025388D01*
X004122Y025359D01*
X004120Y025330D01*
X004114Y025301D01*
X004105Y025273D01*
X004092Y025247D01*
X004076Y025223D01*
X004057Y025201D01*
X004036Y025181D01*
X004011Y025165D01*
X003985Y025151D01*
X003958Y025142D01*
X003929Y025135D01*
X003900Y025133D01*
X003871Y025134D01*
D14*
X003973Y023734D02*
X004169Y023734D01*
X004760Y023734D02*
X004957Y023734D01*
X005547Y023734D02*
X005744Y023734D01*
X006335Y023734D02*
X008795Y023734D01*
X008795Y015860D01*
X006335Y015860D01*
X005744Y015860D02*
X005547Y015860D01*
X004957Y015860D02*
X004760Y015860D01*
X004169Y015860D02*
X003973Y015860D01*
X003382Y015860D02*
X003185Y015860D01*
X002595Y015860D02*
X002398Y015860D01*
X001807Y015860D02*
X001610Y015860D01*
X001020Y015860D02*
X000921Y015860D01*
X000921Y018714D01*
X000921Y019305D02*
X000921Y019501D01*
X000921Y020092D02*
X000921Y020289D01*
X000921Y020879D02*
X000921Y023734D01*
X001020Y023734D01*
X001610Y023734D02*
X001807Y023734D01*
X002398Y023734D02*
X002595Y023734D01*
X003185Y023734D02*
X003382Y023734D01*
X007921Y009934D02*
X007671Y009684D01*
X008171Y009684D01*
X007921Y009934D01*
D15*
X007921Y010684D03*
X006921Y010684D03*
X005921Y010684D03*
X004921Y010684D03*
X003921Y010684D03*
X002921Y010684D03*
X001921Y010684D03*
X000921Y010684D03*
X000921Y026684D03*
X001921Y026684D03*
X002921Y026684D03*
X003921Y026684D03*
X004921Y026684D03*
X005921Y026684D03*
X006921Y026684D03*
X007921Y026684D03*
D16*
X008421Y027184D02*
X008421Y027434D01*
X000421Y027434D01*
X000421Y027184D01*
X008421Y027184D01*
X008421Y026184D01*
X000421Y026184D01*
X000421Y027184D01*
X000421Y011434D02*
X008421Y011434D01*
X008421Y011184D01*
X008421Y010184D01*
X000421Y010184D01*
X000421Y011184D01*
X000421Y011434D01*
X000421Y011184D02*
X008421Y011184D01*
D17*
X001007Y022737D02*
X000921Y022737D01*
X000921Y022651D02*
X000921Y023734D01*
X001020Y023734D01*
X001020Y023242D01*
X001512Y023242D01*
X001610Y023340D01*
X001610Y023734D01*
X001807Y023734D01*
X001807Y023537D01*
X000921Y022651D01*
X000921Y022836D02*
X001106Y022836D01*
X001204Y022934D02*
X000921Y022934D01*
X000921Y023033D02*
X001303Y023033D01*
X001402Y023131D02*
X000921Y023131D01*
X000921Y023230D02*
X001500Y023230D01*
X001610Y023427D02*
X001697Y023427D01*
X001610Y023525D02*
X001796Y023525D01*
X001807Y023624D02*
X001610Y023624D01*
X001610Y023722D02*
X001807Y023722D01*
X001020Y023722D02*
X000921Y023722D01*
X000921Y023624D02*
X001020Y023624D01*
X001020Y023525D02*
X000921Y023525D01*
X000921Y023427D02*
X001020Y023427D01*
X001020Y023328D02*
X000921Y023328D01*
X000725Y024029D02*
X000727Y024048D01*
X000732Y024067D01*
X000742Y024083D01*
X000754Y024098D01*
X000769Y024110D01*
X000785Y024120D01*
X000804Y024125D01*
X000823Y024127D01*
X000842Y024125D01*
X000861Y024120D01*
X000877Y024110D01*
X000892Y024098D01*
X000904Y024083D01*
X000914Y024067D01*
X000919Y024048D01*
X000921Y024029D01*
X000919Y024010D01*
X000914Y023991D01*
X000904Y023975D01*
X000892Y023960D01*
X000877Y023948D01*
X000861Y023938D01*
X000842Y023933D01*
X000823Y023931D01*
X000804Y023933D01*
X000785Y023938D01*
X000769Y023948D01*
X000754Y023960D01*
X000742Y023975D01*
X000732Y023991D01*
X000727Y024010D01*
X000725Y024029D01*
D18*
X003471Y024534D02*
X003471Y025734D01*
X003871Y025734D01*
X003871Y024534D01*
X003471Y024534D01*
X003621Y024534D02*
X003623Y024547D01*
X003628Y024560D01*
X003637Y024571D01*
X003648Y024578D01*
X003661Y024583D01*
X003674Y024584D01*
X003688Y024581D01*
X003700Y024575D01*
X003710Y024566D01*
X003717Y024554D01*
X003721Y024541D01*
X003721Y024527D01*
X003717Y024514D01*
X003710Y024502D01*
X003700Y024493D01*
X003688Y024487D01*
X003674Y024484D01*
X003661Y024485D01*
X003648Y024490D01*
X003637Y024497D01*
X003628Y024508D01*
X003623Y024521D01*
X003621Y024534D01*
X004271Y024534D02*
X004271Y025734D01*
X004671Y025734D01*
X004671Y024534D01*
X004271Y024534D01*
X004421Y024534D02*
X004423Y024547D01*
X004428Y024560D01*
X004437Y024571D01*
X004448Y024578D01*
X004461Y024583D01*
X004474Y024584D01*
X004488Y024581D01*
X004500Y024575D01*
X004510Y024566D01*
X004517Y024554D01*
X004521Y024541D01*
X004521Y024527D01*
X004517Y024514D01*
X004510Y024502D01*
X004500Y024493D01*
X004488Y024487D01*
X004474Y024484D01*
X004461Y024485D01*
X004448Y024490D01*
X004437Y024497D01*
X004428Y024508D01*
X004423Y024521D01*
X004421Y024534D01*
X004621Y014734D02*
X004621Y014334D01*
X005821Y014334D01*
X005821Y014734D01*
X004621Y014734D01*
X004621Y013984D02*
X004621Y013584D01*
X005821Y013584D01*
X005821Y013984D01*
X004621Y013984D01*
X004621Y013234D02*
X004621Y012834D01*
X005821Y012834D01*
X005821Y013234D01*
X004621Y013234D01*
X005771Y013034D02*
X005773Y013047D01*
X005778Y013060D01*
X005787Y013071D01*
X005798Y013078D01*
X005811Y013083D01*
X005824Y013084D01*
X005838Y013081D01*
X005850Y013075D01*
X005860Y013066D01*
X005867Y013054D01*
X005871Y013041D01*
X005871Y013027D01*
X005867Y013014D01*
X005860Y013002D01*
X005850Y012993D01*
X005838Y012987D01*
X005824Y012984D01*
X005811Y012985D01*
X005798Y012990D01*
X005787Y012997D01*
X005778Y013008D01*
X005773Y013021D01*
X005771Y013034D01*
X005771Y013784D02*
X005773Y013797D01*
X005778Y013810D01*
X005787Y013821D01*
X005798Y013828D01*
X005811Y013833D01*
X005824Y013834D01*
X005838Y013831D01*
X005850Y013825D01*
X005860Y013816D01*
X005867Y013804D01*
X005871Y013791D01*
X005871Y013777D01*
X005867Y013764D01*
X005860Y013752D01*
X005850Y013743D01*
X005838Y013737D01*
X005824Y013734D01*
X005811Y013735D01*
X005798Y013740D01*
X005787Y013747D01*
X005778Y013758D01*
X005773Y013771D01*
X005771Y013784D01*
X005771Y014534D02*
X005773Y014547D01*
X005778Y014560D01*
X005787Y014571D01*
X005798Y014578D01*
X005811Y014583D01*
X005824Y014584D01*
X005838Y014581D01*
X005850Y014575D01*
X005860Y014566D01*
X005867Y014554D01*
X005871Y014541D01*
X005871Y014527D01*
X005867Y014514D01*
X005860Y014502D01*
X005850Y014493D01*
X005838Y014487D01*
X005824Y014484D01*
X005811Y014485D01*
X005798Y014490D01*
X005787Y014497D01*
X005778Y014508D01*
X005773Y014521D01*
X005771Y014534D01*
X006821Y013784D02*
X006821Y012984D01*
X007221Y012984D01*
X007221Y013784D01*
X006821Y013784D01*
X006971Y013784D02*
X006973Y013797D01*
X006978Y013810D01*
X006987Y013821D01*
X006998Y013828D01*
X007011Y013833D01*
X007024Y013834D01*
X007038Y013831D01*
X007050Y013825D01*
X007060Y013816D01*
X007067Y013804D01*
X007071Y013791D01*
X007071Y013777D01*
X007067Y013764D01*
X007060Y013752D01*
X007050Y013743D01*
X007038Y013737D01*
X007024Y013734D01*
X007011Y013735D01*
X006998Y013740D01*
X006987Y013747D01*
X006978Y013758D01*
X006973Y013771D01*
X006971Y013784D01*
D19*
X001221Y014001D03*
X001221Y014571D03*
M02*
