%
M48
M72
T01C0.0150
T02C0.0400
%
T01
X2471Y12284
X3421Y12334
X4321Y12334
X4421Y13784
X3671Y15184
X2871Y15184
X2571Y14184
X1071Y15184
X621Y20084
X1321Y25234
X2171Y25234
X4071Y24484
X5021Y25684
X5271Y24534
X6071Y24484
X5621Y15084
X6521Y13934
X7071Y14184
T02
X921Y10684
X1921Y10684
X2921Y10684
X3921Y10684
X4921Y10684
X5921Y10684
X6921Y10684
X7921Y10684
X7921Y26684
X6921Y26684
X5921Y26684
X4921Y26684
X3921Y26684
X2921Y26684
X1921Y26684
X921Y26684
M30
