G75*
G70*
%OFA0B0*%
%FSLAX24Y24*%
%IPPOS*%
%LPD*%
%AMOC8*
5,1,8,0,0,1.08239X$1,22.5*
%
%ADD10C,0.0600*%
%ADD11C,0.0310*%
%ADD12C,0.0080*%
D10*
X000921Y010384D02*
X000921Y010984D01*
X001921Y010984D02*
X001921Y010384D01*
X002921Y010384D02*
X002921Y010984D01*
X003921Y010984D02*
X003921Y010384D01*
X004921Y010384D02*
X004921Y010984D01*
X005921Y010984D02*
X005921Y010384D01*
X006921Y010384D02*
X006921Y010984D01*
X007921Y010984D02*
X007921Y010384D01*
X007921Y026384D02*
X007921Y026984D01*
X006921Y026984D02*
X006921Y026384D01*
X005921Y026384D02*
X005921Y026984D01*
X004921Y026984D02*
X004921Y026384D01*
X003921Y026384D02*
X003921Y026984D01*
X002921Y026984D02*
X002921Y026384D01*
X001921Y026384D02*
X001921Y026984D01*
X000921Y026984D02*
X000921Y026384D01*
D11*
X001321Y025234D03*
X002171Y025234D03*
X004071Y024484D03*
X005021Y025684D03*
X005271Y024534D03*
X006071Y024484D03*
X000621Y020084D03*
X001071Y015184D03*
X002571Y014184D03*
X002871Y015184D03*
X003671Y015184D03*
X004421Y013784D03*
X004321Y012334D03*
X003421Y012334D03*
X002471Y012284D03*
X005621Y015084D03*
X006521Y013934D03*
X007071Y014184D03*
D12*
X000461Y009724D02*
X000461Y019855D01*
X000466Y019851D01*
X000567Y019809D01*
X000676Y019809D01*
X000777Y019851D01*
X000854Y019928D01*
X000896Y020029D01*
X000896Y020138D01*
X000854Y020239D01*
X000854Y020240D01*
X000981Y020367D01*
X000981Y020500D01*
X000981Y025217D01*
X001338Y025574D01*
X004769Y025574D01*
X004782Y025544D01*
X004705Y025544D01*
X004611Y025450D01*
X004461Y025300D01*
X004461Y025167D01*
X004461Y024320D01*
X004346Y024435D01*
X004346Y024538D01*
X004304Y024639D01*
X004227Y024717D01*
X004126Y024759D01*
X004017Y024759D01*
X003916Y024717D01*
X003838Y024639D01*
X003796Y024538D01*
X003796Y024429D01*
X003838Y024328D01*
X003916Y024251D01*
X004017Y024209D01*
X004120Y024209D01*
X004261Y024067D01*
X004261Y018250D01*
X002205Y016194D01*
X002111Y016100D01*
X002111Y015000D01*
X002111Y014867D01*
X002411Y014567D01*
X002411Y014413D01*
X002338Y014339D01*
X002296Y014238D01*
X002296Y014129D01*
X002338Y014028D01*
X002416Y013951D01*
X002517Y013909D01*
X002626Y013909D01*
X002727Y013951D01*
X002804Y014028D01*
X002846Y014129D01*
X002846Y014238D01*
X002804Y014339D01*
X002731Y014413D01*
X002731Y014597D01*
X002755Y014574D01*
X002888Y014574D01*
X003755Y014574D01*
X004161Y014167D01*
X004161Y013875D01*
X004146Y013838D01*
X004146Y013729D01*
X004188Y013628D01*
X004266Y013551D01*
X004367Y013509D01*
X004476Y013509D01*
X004577Y013551D01*
X004654Y013628D01*
X004696Y013729D01*
X004696Y013838D01*
X004654Y013939D01*
X004577Y014017D01*
X004481Y014056D01*
X004481Y014167D01*
X004481Y014300D01*
X003981Y014800D01*
X003888Y014894D01*
X002888Y014894D01*
X002873Y014909D01*
X002926Y014909D01*
X003027Y014951D01*
X003104Y015028D01*
X003146Y015129D01*
X003146Y015238D01*
X003104Y015339D01*
X003031Y015413D01*
X003031Y015717D01*
X003511Y015717D01*
X003511Y015639D02*
X003031Y015639D01*
X003031Y015717D02*
X003511Y016197D01*
X003511Y015413D01*
X003438Y015339D01*
X003396Y015238D01*
X003396Y015129D01*
X003438Y015028D01*
X003516Y014951D01*
X003617Y014909D01*
X003726Y014909D01*
X003827Y014951D01*
X003904Y015028D01*
X003946Y015129D01*
X003946Y015238D01*
X003904Y015339D01*
X003831Y015413D01*
X003831Y016167D01*
X005181Y017517D01*
X005181Y017650D01*
X005181Y024273D01*
X005217Y024259D01*
X005326Y024259D01*
X005361Y024273D01*
X005361Y024217D01*
X005361Y016017D01*
X005455Y015924D01*
X005911Y015467D01*
X005911Y014317D01*
X006005Y014224D01*
X006246Y013982D01*
X006246Y013879D01*
X006288Y013778D01*
X006361Y013705D01*
X006361Y013100D01*
X005955Y012694D01*
X004888Y012694D01*
X004758Y012824D01*
X004805Y012824D01*
X004938Y012824D01*
X005388Y013274D01*
X005481Y013367D01*
X005481Y014567D01*
X005688Y014774D01*
X005756Y014842D01*
X005777Y014851D01*
X005854Y014928D01*
X005896Y015029D01*
X005896Y015138D01*
X005854Y015239D01*
X005777Y015317D01*
X005676Y015359D01*
X005567Y015359D01*
X005466Y015317D01*
X005388Y015239D01*
X005346Y015138D01*
X005346Y015029D01*
X005388Y014928D01*
X005389Y014927D01*
X005161Y014700D01*
X005161Y014567D01*
X005161Y013500D01*
X004805Y013144D01*
X003105Y013144D01*
X003011Y013050D01*
X002520Y012559D01*
X002417Y012559D01*
X002316Y012517D01*
X002238Y012439D01*
X002196Y012338D01*
X002196Y012229D01*
X002238Y012128D01*
X002316Y012051D01*
X002417Y012009D01*
X002526Y012009D01*
X002627Y012051D01*
X002704Y012128D01*
X002746Y012229D01*
X002746Y012332D01*
X003238Y012824D01*
X003685Y012824D01*
X003661Y012800D01*
X003470Y012609D01*
X003367Y012609D01*
X003266Y012567D01*
X003188Y012489D01*
X003146Y012388D01*
X003146Y012279D01*
X003188Y012178D01*
X003266Y012101D01*
X003367Y012059D01*
X003476Y012059D01*
X003577Y012101D01*
X003654Y012178D01*
X003696Y012279D01*
X003696Y012382D01*
X003888Y012574D01*
X004182Y012574D01*
X004166Y012567D01*
X004088Y012489D01*
X004046Y012388D01*
X004046Y012279D01*
X004088Y012178D01*
X004166Y012101D01*
X004267Y012059D01*
X004376Y012059D01*
X004477Y012101D01*
X004550Y012174D01*
X006555Y012174D01*
X006688Y012174D01*
X007138Y012624D01*
X007209Y012696D01*
X008381Y011524D01*
X008381Y009724D01*
X000461Y009724D01*
X000461Y009748D02*
X008381Y009748D01*
X008381Y009826D02*
X000461Y009826D01*
X000461Y009905D02*
X008381Y009905D01*
X008381Y009984D02*
X008105Y009984D01*
X008171Y010011D02*
X008009Y009944D01*
X007961Y009944D01*
X007961Y010644D01*
X007881Y010644D01*
X007481Y010644D01*
X007481Y010296D01*
X007548Y010134D01*
X007672Y010011D01*
X007834Y009944D01*
X007881Y009944D01*
X007881Y010644D01*
X007881Y010724D01*
X007881Y011424D01*
X007834Y011424D01*
X007672Y011357D01*
X007548Y011233D01*
X007481Y011071D01*
X007481Y010724D01*
X007881Y010724D01*
X007961Y010724D01*
X007961Y011424D01*
X008009Y011424D01*
X008171Y011357D01*
X008294Y011233D01*
X008361Y011071D01*
X008361Y010724D01*
X007961Y010724D01*
X007961Y010644D01*
X008361Y010644D01*
X008361Y010296D01*
X008294Y010134D01*
X008171Y010011D01*
X008222Y010062D02*
X008381Y010062D01*
X008381Y010141D02*
X008297Y010141D01*
X008329Y010219D02*
X008381Y010219D01*
X008381Y010298D02*
X008361Y010298D01*
X008361Y010376D02*
X008381Y010376D01*
X008381Y010455D02*
X008361Y010455D01*
X008361Y010533D02*
X008381Y010533D01*
X008381Y010612D02*
X008361Y010612D01*
X008381Y010690D02*
X007961Y010690D01*
X007961Y010612D02*
X007881Y010612D01*
X007881Y010690D02*
X007341Y010690D01*
X007341Y010612D02*
X007481Y010612D01*
X007481Y010533D02*
X007341Y010533D01*
X007341Y010455D02*
X007481Y010455D01*
X007481Y010376D02*
X007341Y010376D01*
X007341Y010300D02*
X007341Y011067D01*
X007277Y011222D01*
X007159Y011340D01*
X007005Y011404D01*
X006838Y011404D01*
X006683Y011340D01*
X006565Y011222D01*
X006501Y011067D01*
X006501Y010300D01*
X006565Y010146D01*
X006683Y010028D01*
X006838Y009964D01*
X007005Y009964D01*
X007159Y010028D01*
X007277Y010146D01*
X007341Y010300D01*
X007340Y010298D02*
X007481Y010298D01*
X007513Y010219D02*
X007308Y010219D01*
X007272Y010141D02*
X007546Y010141D01*
X007621Y010062D02*
X007194Y010062D01*
X007053Y009984D02*
X007738Y009984D01*
X007881Y009984D02*
X007961Y009984D01*
X007961Y010062D02*
X007881Y010062D01*
X007881Y010141D02*
X007961Y010141D01*
X007961Y010219D02*
X007881Y010219D01*
X007881Y010298D02*
X007961Y010298D01*
X007961Y010376D02*
X007881Y010376D01*
X007881Y010455D02*
X007961Y010455D01*
X007961Y010533D02*
X007881Y010533D01*
X007881Y010769D02*
X007961Y010769D01*
X007961Y010847D02*
X007881Y010847D01*
X007881Y010926D02*
X007961Y010926D01*
X007961Y011005D02*
X007881Y011005D01*
X007881Y011083D02*
X007961Y011083D01*
X007961Y011162D02*
X007881Y011162D01*
X007881Y011240D02*
X007961Y011240D01*
X007961Y011319D02*
X007881Y011319D01*
X007881Y011397D02*
X007961Y011397D01*
X008073Y011397D02*
X008381Y011397D01*
X008381Y011319D02*
X008209Y011319D01*
X008287Y011240D02*
X008381Y011240D01*
X008381Y011162D02*
X008324Y011162D01*
X008356Y011083D02*
X008381Y011083D01*
X008381Y011005D02*
X008361Y011005D01*
X008361Y010926D02*
X008381Y010926D01*
X008381Y010847D02*
X008361Y010847D01*
X008361Y010769D02*
X008381Y010769D01*
X008381Y011476D02*
X000461Y011476D01*
X000461Y011554D02*
X008351Y011554D01*
X008272Y011633D02*
X000461Y011633D01*
X000461Y011711D02*
X008194Y011711D01*
X008115Y011790D02*
X000461Y011790D01*
X000461Y011869D02*
X008036Y011869D01*
X007958Y011947D02*
X000461Y011947D01*
X000461Y012026D02*
X002376Y012026D01*
X002262Y012104D02*
X000461Y012104D01*
X000461Y012183D02*
X002215Y012183D01*
X002196Y012261D02*
X000461Y012261D01*
X000461Y012340D02*
X002197Y012340D01*
X002229Y012418D02*
X000461Y012418D01*
X000461Y012497D02*
X002296Y012497D01*
X002537Y012575D02*
X000461Y012575D01*
X000461Y012654D02*
X002615Y012654D01*
X002694Y012733D02*
X000461Y012733D01*
X000461Y012811D02*
X002772Y012811D01*
X002851Y012890D02*
X000461Y012890D01*
X000461Y012968D02*
X002930Y012968D01*
X003008Y013047D02*
X000461Y013047D01*
X000461Y013125D02*
X003087Y013125D01*
X003171Y012984D02*
X004871Y012984D01*
X005321Y013434D01*
X005321Y014634D01*
X005621Y014934D01*
X005621Y015084D01*
X005346Y015089D02*
X003930Y015089D01*
X003946Y015167D02*
X005358Y015167D01*
X005395Y015246D02*
X003943Y015246D01*
X003911Y015324D02*
X005484Y015324D01*
X005759Y015324D02*
X005911Y015324D01*
X005911Y015246D02*
X005848Y015246D01*
X005884Y015167D02*
X005911Y015167D01*
X005911Y015089D02*
X005896Y015089D01*
X005889Y015010D02*
X005911Y015010D01*
X005911Y014932D02*
X005856Y014932D01*
X005911Y014853D02*
X005780Y014853D01*
X005689Y014775D02*
X005911Y014775D01*
X005911Y014696D02*
X005610Y014696D01*
X005531Y014618D02*
X005911Y014618D01*
X005911Y014539D02*
X005481Y014539D01*
X005481Y014460D02*
X005911Y014460D01*
X005911Y014382D02*
X005481Y014382D01*
X005481Y014303D02*
X005925Y014303D01*
X006004Y014225D02*
X005481Y014225D01*
X005481Y014146D02*
X006082Y014146D01*
X006161Y014068D02*
X005481Y014068D01*
X005481Y013989D02*
X006240Y013989D01*
X006246Y013911D02*
X005481Y013911D01*
X005481Y013832D02*
X006266Y013832D01*
X006313Y013754D02*
X005481Y013754D01*
X005481Y013675D02*
X006361Y013675D01*
X006361Y013596D02*
X005481Y013596D01*
X005481Y013518D02*
X006361Y013518D01*
X006361Y013439D02*
X005481Y013439D01*
X005475Y013361D02*
X006361Y013361D01*
X006361Y013282D02*
X005396Y013282D01*
X005318Y013204D02*
X006361Y013204D01*
X006361Y013125D02*
X005239Y013125D01*
X005161Y013047D02*
X006308Y013047D01*
X006230Y012968D02*
X005082Y012968D01*
X005004Y012890D02*
X006151Y012890D01*
X006072Y012811D02*
X004770Y012811D01*
X004849Y012733D02*
X005994Y012733D01*
X006021Y012534D02*
X006521Y013034D01*
X006521Y013934D01*
X006071Y014384D01*
X006071Y015534D01*
X005521Y016084D01*
X005521Y024284D01*
X005721Y024484D01*
X006071Y024484D01*
X005971Y024184D02*
X006321Y024184D01*
X006421Y024284D01*
X006421Y024684D01*
X006321Y024784D01*
X005571Y024784D01*
X005321Y024534D01*
X005271Y024534D01*
X005181Y024200D02*
X005361Y024200D01*
X005361Y024121D02*
X005181Y024121D01*
X005181Y024043D02*
X005361Y024043D01*
X005361Y023964D02*
X005181Y023964D01*
X005181Y023886D02*
X005361Y023886D01*
X005361Y023807D02*
X005181Y023807D01*
X005181Y023729D02*
X005361Y023729D01*
X005361Y023650D02*
X005181Y023650D01*
X005181Y023571D02*
X005361Y023571D01*
X005361Y023493D02*
X005181Y023493D01*
X005181Y023414D02*
X005361Y023414D01*
X005361Y023336D02*
X005181Y023336D01*
X005181Y023257D02*
X005361Y023257D01*
X005361Y023179D02*
X005181Y023179D01*
X005181Y023100D02*
X005361Y023100D01*
X005361Y023022D02*
X005181Y023022D01*
X005181Y022943D02*
X005361Y022943D01*
X005361Y022865D02*
X005181Y022865D01*
X005181Y022786D02*
X005361Y022786D01*
X005361Y022708D02*
X005181Y022708D01*
X005181Y022629D02*
X005361Y022629D01*
X005361Y022550D02*
X005181Y022550D01*
X005181Y022472D02*
X005361Y022472D01*
X005361Y022393D02*
X005181Y022393D01*
X005181Y022315D02*
X005361Y022315D01*
X005361Y022236D02*
X005181Y022236D01*
X005181Y022158D02*
X005361Y022158D01*
X005361Y022079D02*
X005181Y022079D01*
X005181Y022001D02*
X005361Y022001D01*
X005361Y021922D02*
X005181Y021922D01*
X005181Y021844D02*
X005361Y021844D01*
X005361Y021765D02*
X005181Y021765D01*
X005181Y021686D02*
X005361Y021686D01*
X005361Y021608D02*
X005181Y021608D01*
X005181Y021529D02*
X005361Y021529D01*
X005361Y021451D02*
X005181Y021451D01*
X005181Y021372D02*
X005361Y021372D01*
X005361Y021294D02*
X005181Y021294D01*
X005181Y021215D02*
X005361Y021215D01*
X005361Y021137D02*
X005181Y021137D01*
X005181Y021058D02*
X005361Y021058D01*
X005361Y020980D02*
X005181Y020980D01*
X005181Y020901D02*
X005361Y020901D01*
X005361Y020822D02*
X005181Y020822D01*
X005181Y020744D02*
X005361Y020744D01*
X005361Y020665D02*
X005181Y020665D01*
X005181Y020587D02*
X005361Y020587D01*
X005361Y020508D02*
X005181Y020508D01*
X005181Y020430D02*
X005361Y020430D01*
X005361Y020351D02*
X005181Y020351D01*
X005181Y020273D02*
X005361Y020273D01*
X005361Y020194D02*
X005181Y020194D01*
X005181Y020116D02*
X005361Y020116D01*
X005361Y020037D02*
X005181Y020037D01*
X005181Y019959D02*
X005361Y019959D01*
X005361Y019880D02*
X005181Y019880D01*
X005181Y019801D02*
X005361Y019801D01*
X005361Y019723D02*
X005181Y019723D01*
X005181Y019644D02*
X005361Y019644D01*
X005361Y019566D02*
X005181Y019566D01*
X005181Y019487D02*
X005361Y019487D01*
X005361Y019409D02*
X005181Y019409D01*
X005181Y019330D02*
X005361Y019330D01*
X005361Y019252D02*
X005181Y019252D01*
X005181Y019173D02*
X005361Y019173D01*
X005361Y019095D02*
X005181Y019095D01*
X005181Y019016D02*
X005361Y019016D01*
X005361Y018937D02*
X005181Y018937D01*
X005181Y018859D02*
X005361Y018859D01*
X005361Y018780D02*
X005181Y018780D01*
X005181Y018702D02*
X005361Y018702D01*
X005361Y018623D02*
X005181Y018623D01*
X005181Y018545D02*
X005361Y018545D01*
X005361Y018466D02*
X005181Y018466D01*
X005181Y018388D02*
X005361Y018388D01*
X005361Y018309D02*
X005181Y018309D01*
X005181Y018231D02*
X005361Y018231D01*
X005361Y018152D02*
X005181Y018152D01*
X005181Y018073D02*
X005361Y018073D01*
X005361Y017995D02*
X005181Y017995D01*
X005181Y017916D02*
X005361Y017916D01*
X005361Y017838D02*
X005181Y017838D01*
X005181Y017759D02*
X005361Y017759D01*
X005361Y017681D02*
X005181Y017681D01*
X005181Y017602D02*
X005361Y017602D01*
X005361Y017524D02*
X005181Y017524D01*
X005109Y017445D02*
X005361Y017445D01*
X005361Y017367D02*
X005030Y017367D01*
X004952Y017288D02*
X005361Y017288D01*
X005361Y017209D02*
X004873Y017209D01*
X004795Y017131D02*
X005361Y017131D01*
X005361Y017052D02*
X004716Y017052D01*
X004638Y016974D02*
X005361Y016974D01*
X005361Y016895D02*
X004559Y016895D01*
X004481Y016817D02*
X005361Y016817D01*
X005361Y016738D02*
X004402Y016738D01*
X004324Y016660D02*
X005361Y016660D01*
X005361Y016581D02*
X004245Y016581D01*
X004166Y016503D02*
X005361Y016503D01*
X005361Y016424D02*
X004088Y016424D01*
X004009Y016346D02*
X005361Y016346D01*
X005361Y016267D02*
X003931Y016267D01*
X003852Y016188D02*
X005361Y016188D01*
X005361Y016110D02*
X003831Y016110D01*
X003831Y016031D02*
X005361Y016031D01*
X005426Y015953D02*
X003831Y015953D01*
X003831Y015874D02*
X005504Y015874D01*
X005583Y015796D02*
X003831Y015796D01*
X003831Y015717D02*
X005662Y015717D01*
X005740Y015639D02*
X003831Y015639D01*
X003831Y015560D02*
X005819Y015560D01*
X005897Y015482D02*
X003831Y015482D01*
X003841Y015403D02*
X005911Y015403D01*
X006271Y014984D02*
X006271Y015834D01*
X005821Y016284D01*
X005821Y024034D01*
X005971Y024184D01*
X006621Y024984D02*
X005121Y024984D01*
X005021Y024884D01*
X005021Y017584D01*
X003671Y016234D01*
X003671Y015184D01*
X003413Y015089D02*
X003130Y015089D01*
X003146Y015167D02*
X003396Y015167D01*
X003399Y015246D02*
X003143Y015246D01*
X003111Y015324D02*
X003432Y015324D01*
X003502Y015403D02*
X003041Y015403D01*
X003031Y015482D02*
X003511Y015482D01*
X003511Y015560D02*
X003031Y015560D01*
X003110Y015796D02*
X003511Y015796D01*
X003511Y015874D02*
X003188Y015874D01*
X003267Y015953D02*
X003511Y015953D01*
X003511Y016031D02*
X003345Y016031D01*
X003424Y016110D02*
X003511Y016110D01*
X003502Y016188D02*
X003511Y016188D01*
X002985Y016974D02*
X000461Y016974D01*
X000461Y017052D02*
X003064Y017052D01*
X003142Y017131D02*
X000461Y017131D01*
X000461Y017209D02*
X003221Y017209D01*
X003299Y017288D02*
X000461Y017288D01*
X000461Y017367D02*
X003378Y017367D01*
X003456Y017445D02*
X000461Y017445D01*
X000461Y017524D02*
X003535Y017524D01*
X003614Y017602D02*
X000461Y017602D01*
X000461Y017681D02*
X003692Y017681D01*
X003771Y017759D02*
X000461Y017759D01*
X000461Y017838D02*
X003849Y017838D01*
X003928Y017916D02*
X000461Y017916D01*
X000461Y017995D02*
X004006Y017995D01*
X004085Y018073D02*
X000461Y018073D01*
X000461Y018152D02*
X004163Y018152D01*
X004242Y018231D02*
X000461Y018231D01*
X000461Y018309D02*
X004261Y018309D01*
X004261Y018388D02*
X000461Y018388D01*
X000461Y018466D02*
X004261Y018466D01*
X004261Y018545D02*
X000461Y018545D01*
X000461Y018623D02*
X004261Y018623D01*
X004261Y018702D02*
X000461Y018702D01*
X000461Y018780D02*
X004261Y018780D01*
X004261Y018859D02*
X000461Y018859D01*
X000461Y018937D02*
X004261Y018937D01*
X004261Y019016D02*
X000461Y019016D01*
X000461Y019095D02*
X004261Y019095D01*
X004261Y019173D02*
X000461Y019173D01*
X000461Y019252D02*
X004261Y019252D01*
X004261Y019330D02*
X000461Y019330D01*
X000461Y019409D02*
X004261Y019409D01*
X004261Y019487D02*
X000461Y019487D01*
X000461Y019566D02*
X004261Y019566D01*
X004261Y019644D02*
X000461Y019644D01*
X000461Y019723D02*
X004261Y019723D01*
X004261Y019801D02*
X000461Y019801D01*
X000621Y020084D02*
X000621Y020234D01*
X000821Y020434D01*
X000821Y025284D01*
X001271Y025734D01*
X004921Y025734D01*
X005021Y025684D01*
X004696Y025535D02*
X001299Y025535D01*
X001220Y025457D02*
X004618Y025457D01*
X004539Y025378D02*
X001142Y025378D01*
X001063Y025299D02*
X004461Y025299D01*
X004461Y025221D02*
X000985Y025221D01*
X000981Y025142D02*
X004461Y025142D01*
X004461Y025064D02*
X000981Y025064D01*
X000981Y024985D02*
X004461Y024985D01*
X004461Y024907D02*
X000981Y024907D01*
X000981Y024828D02*
X004461Y024828D01*
X004461Y024750D02*
X004148Y024750D01*
X004273Y024671D02*
X004461Y024671D01*
X004461Y024593D02*
X004324Y024593D01*
X004346Y024514D02*
X004461Y024514D01*
X004461Y024435D02*
X004346Y024435D01*
X004424Y024357D02*
X004461Y024357D01*
X004421Y024134D02*
X004421Y018184D01*
X002271Y016034D01*
X002271Y014934D01*
X002571Y014634D01*
X002571Y014184D01*
X002381Y014382D02*
X000461Y014382D01*
X000461Y014460D02*
X002411Y014460D01*
X002411Y014539D02*
X000461Y014539D01*
X000461Y014618D02*
X002361Y014618D01*
X002283Y014696D02*
X000461Y014696D01*
X000461Y014775D02*
X002204Y014775D01*
X002126Y014853D02*
X000461Y014853D01*
X000461Y014932D02*
X002111Y014932D01*
X002111Y015010D02*
X000461Y015010D01*
X000461Y015089D02*
X002111Y015089D01*
X002111Y015167D02*
X000461Y015167D01*
X000461Y015246D02*
X002111Y015246D01*
X002111Y015324D02*
X000461Y015324D01*
X000461Y015403D02*
X002111Y015403D01*
X002111Y015482D02*
X000461Y015482D01*
X000461Y015560D02*
X002111Y015560D01*
X002111Y015639D02*
X000461Y015639D01*
X000461Y015717D02*
X002111Y015717D01*
X002111Y015796D02*
X000461Y015796D01*
X000461Y015874D02*
X002111Y015874D01*
X002111Y015953D02*
X000461Y015953D01*
X000461Y016031D02*
X002111Y016031D01*
X002121Y016110D02*
X000461Y016110D01*
X000461Y016188D02*
X002200Y016188D01*
X002278Y016267D02*
X000461Y016267D01*
X000461Y016346D02*
X002357Y016346D01*
X002435Y016424D02*
X000461Y016424D01*
X000461Y016503D02*
X002514Y016503D01*
X002593Y016581D02*
X000461Y016581D01*
X000461Y016660D02*
X002671Y016660D01*
X002750Y016738D02*
X000461Y016738D01*
X000461Y016817D02*
X002828Y016817D01*
X002907Y016895D02*
X000461Y016895D01*
X000461Y014303D02*
X002323Y014303D01*
X002296Y014225D02*
X000461Y014225D01*
X000461Y014146D02*
X002296Y014146D01*
X002322Y014068D02*
X000461Y014068D01*
X000461Y013989D02*
X002377Y013989D01*
X002512Y013911D02*
X000461Y013911D01*
X000461Y013832D02*
X004146Y013832D01*
X004146Y013754D02*
X000461Y013754D01*
X000461Y013675D02*
X004169Y013675D01*
X004220Y013596D02*
X000461Y013596D01*
X000461Y013518D02*
X004344Y013518D01*
X004498Y013518D02*
X005161Y013518D01*
X005161Y013596D02*
X004623Y013596D01*
X004674Y013675D02*
X005161Y013675D01*
X005161Y013754D02*
X004696Y013754D01*
X004696Y013832D02*
X005161Y013832D01*
X005161Y013911D02*
X004666Y013911D01*
X004605Y013989D02*
X005161Y013989D01*
X005161Y014068D02*
X004481Y014068D01*
X004481Y014146D02*
X005161Y014146D01*
X005161Y014225D02*
X004481Y014225D01*
X004478Y014303D02*
X005161Y014303D01*
X005161Y014382D02*
X004399Y014382D01*
X004321Y014460D02*
X005161Y014460D01*
X005161Y014539D02*
X004242Y014539D01*
X004164Y014618D02*
X005161Y014618D01*
X005161Y014696D02*
X004085Y014696D01*
X004007Y014775D02*
X005236Y014775D01*
X005315Y014853D02*
X003928Y014853D01*
X003821Y014734D02*
X002821Y014734D01*
X002471Y015084D01*
X002471Y015934D01*
X004621Y018084D01*
X004621Y025234D01*
X004771Y025384D01*
X005271Y025384D01*
X005521Y025634D01*
X005521Y025834D01*
X004921Y026434D01*
X004921Y026684D01*
X004921Y025184D02*
X004821Y025084D01*
X004821Y017734D01*
X002871Y015784D01*
X002871Y015184D01*
X002982Y014932D02*
X003561Y014932D01*
X003456Y015010D02*
X003087Y015010D01*
X002731Y014539D02*
X003790Y014539D01*
X003868Y014460D02*
X002731Y014460D01*
X002762Y014382D02*
X003947Y014382D01*
X004025Y014303D02*
X002819Y014303D01*
X002846Y014225D02*
X004104Y014225D01*
X004161Y014146D02*
X002846Y014146D01*
X002821Y014068D02*
X004161Y014068D01*
X004161Y013989D02*
X002766Y013989D01*
X002631Y013911D02*
X004161Y013911D01*
X004321Y013884D02*
X004421Y013784D01*
X004321Y013884D02*
X004321Y014234D01*
X003821Y014734D01*
X003782Y014932D02*
X005387Y014932D01*
X005354Y015010D02*
X003887Y015010D01*
X004865Y013204D02*
X000461Y013204D01*
X000461Y013282D02*
X004944Y013282D01*
X005022Y013361D02*
X000461Y013361D01*
X000461Y013439D02*
X005101Y013439D01*
X004621Y012734D02*
X004821Y012534D01*
X006021Y012534D01*
X006621Y012334D02*
X007071Y012784D01*
X007071Y014184D01*
X006271Y014984D01*
X007168Y012654D02*
X007251Y012654D01*
X007330Y012575D02*
X007089Y012575D01*
X007011Y012497D02*
X007408Y012497D01*
X007487Y012418D02*
X006932Y012418D01*
X006854Y012340D02*
X007565Y012340D01*
X007644Y012261D02*
X006775Y012261D01*
X006697Y012183D02*
X007722Y012183D01*
X007801Y012104D02*
X004481Y012104D01*
X004321Y012334D02*
X006621Y012334D01*
X006822Y011397D02*
X006020Y011397D01*
X006005Y011404D02*
X005838Y011404D01*
X005683Y011340D01*
X005565Y011222D01*
X005501Y011067D01*
X005501Y010300D01*
X005565Y010146D01*
X005683Y010028D01*
X005838Y009964D01*
X006005Y009964D01*
X006159Y010028D01*
X006277Y010146D01*
X006341Y010300D01*
X006341Y011067D01*
X006277Y011222D01*
X006159Y011340D01*
X006005Y011404D01*
X005822Y011397D02*
X005020Y011397D01*
X005005Y011404D02*
X004838Y011404D01*
X004683Y011340D01*
X004565Y011222D01*
X004501Y011067D01*
X004501Y010300D01*
X004565Y010146D01*
X004683Y010028D01*
X004838Y009964D01*
X005005Y009964D01*
X005159Y010028D01*
X005277Y010146D01*
X005341Y010300D01*
X005341Y011067D01*
X005277Y011222D01*
X005159Y011340D01*
X005005Y011404D01*
X004822Y011397D02*
X004020Y011397D01*
X004005Y011404D02*
X003838Y011404D01*
X003683Y011340D01*
X003565Y011222D01*
X003501Y011067D01*
X003501Y010300D01*
X003565Y010146D01*
X003683Y010028D01*
X003838Y009964D01*
X004005Y009964D01*
X004159Y010028D01*
X004277Y010146D01*
X004341Y010300D01*
X004341Y011067D01*
X004277Y011222D01*
X004159Y011340D01*
X004005Y011404D01*
X003822Y011397D02*
X003020Y011397D01*
X003005Y011404D02*
X002838Y011404D01*
X002683Y011340D01*
X002565Y011222D01*
X002501Y011067D01*
X002501Y010300D01*
X002565Y010146D01*
X002683Y010028D01*
X002838Y009964D01*
X003005Y009964D01*
X003159Y010028D01*
X003277Y010146D01*
X003341Y010300D01*
X003341Y011067D01*
X003277Y011222D01*
X003159Y011340D01*
X003005Y011404D01*
X002822Y011397D02*
X002020Y011397D01*
X002005Y011404D02*
X001838Y011404D01*
X001683Y011340D01*
X001565Y011222D01*
X001501Y011067D01*
X001501Y010300D01*
X001565Y010146D01*
X001683Y010028D01*
X001838Y009964D01*
X002005Y009964D01*
X002159Y010028D01*
X002277Y010146D01*
X002341Y010300D01*
X002341Y011067D01*
X002277Y011222D01*
X002159Y011340D01*
X002005Y011404D01*
X001822Y011397D02*
X001020Y011397D01*
X001005Y011404D02*
X000838Y011404D01*
X000683Y011340D01*
X000565Y011222D01*
X000501Y011067D01*
X000501Y010300D01*
X000565Y010146D01*
X000683Y010028D01*
X000838Y009964D01*
X001005Y009964D01*
X001159Y010028D01*
X001277Y010146D01*
X001341Y010300D01*
X001341Y011067D01*
X001277Y011222D01*
X001159Y011340D01*
X001005Y011404D01*
X000822Y011397D02*
X000461Y011397D01*
X000461Y011319D02*
X000662Y011319D01*
X000584Y011240D02*
X000461Y011240D01*
X000461Y011162D02*
X000540Y011162D01*
X000508Y011083D02*
X000461Y011083D01*
X000461Y011005D02*
X000501Y011005D01*
X000501Y010926D02*
X000461Y010926D01*
X000461Y010847D02*
X000501Y010847D01*
X000501Y010769D02*
X000461Y010769D01*
X000461Y010690D02*
X000501Y010690D01*
X000501Y010612D02*
X000461Y010612D01*
X000461Y010533D02*
X000501Y010533D01*
X000501Y010455D02*
X000461Y010455D01*
X000461Y010376D02*
X000501Y010376D01*
X000502Y010298D02*
X000461Y010298D01*
X000461Y010219D02*
X000535Y010219D01*
X000570Y010141D02*
X000461Y010141D01*
X000461Y010062D02*
X000649Y010062D01*
X000790Y009984D02*
X000461Y009984D01*
X001053Y009984D02*
X001790Y009984D01*
X001649Y010062D02*
X001194Y010062D01*
X001272Y010141D02*
X001570Y010141D01*
X001535Y010219D02*
X001308Y010219D01*
X001340Y010298D02*
X001502Y010298D01*
X001501Y010376D02*
X001341Y010376D01*
X001341Y010455D02*
X001501Y010455D01*
X001501Y010533D02*
X001341Y010533D01*
X001341Y010612D02*
X001501Y010612D01*
X001501Y010690D02*
X001341Y010690D01*
X001341Y010769D02*
X001501Y010769D01*
X001501Y010847D02*
X001341Y010847D01*
X001341Y010926D02*
X001501Y010926D01*
X001501Y011005D02*
X001341Y011005D01*
X001335Y011083D02*
X001508Y011083D01*
X001540Y011162D02*
X001302Y011162D01*
X001259Y011240D02*
X001584Y011240D01*
X001662Y011319D02*
X001180Y011319D01*
X002180Y011319D02*
X002662Y011319D01*
X002584Y011240D02*
X002259Y011240D01*
X002302Y011162D02*
X002540Y011162D01*
X002508Y011083D02*
X002335Y011083D01*
X002341Y011005D02*
X002501Y011005D01*
X002501Y010926D02*
X002341Y010926D01*
X002341Y010847D02*
X002501Y010847D01*
X002501Y010769D02*
X002341Y010769D01*
X002341Y010690D02*
X002501Y010690D01*
X002501Y010612D02*
X002341Y010612D01*
X002341Y010533D02*
X002501Y010533D01*
X002501Y010455D02*
X002341Y010455D01*
X002341Y010376D02*
X002501Y010376D01*
X002502Y010298D02*
X002340Y010298D01*
X002308Y010219D02*
X002535Y010219D01*
X002570Y010141D02*
X002272Y010141D01*
X002194Y010062D02*
X002649Y010062D01*
X002790Y009984D02*
X002053Y009984D01*
X003053Y009984D02*
X003790Y009984D01*
X003649Y010062D02*
X003194Y010062D01*
X003272Y010141D02*
X003570Y010141D01*
X003535Y010219D02*
X003308Y010219D01*
X003340Y010298D02*
X003502Y010298D01*
X003501Y010376D02*
X003341Y010376D01*
X003341Y010455D02*
X003501Y010455D01*
X003501Y010533D02*
X003341Y010533D01*
X003341Y010612D02*
X003501Y010612D01*
X003501Y010690D02*
X003341Y010690D01*
X003341Y010769D02*
X003501Y010769D01*
X003501Y010847D02*
X003341Y010847D01*
X003341Y010926D02*
X003501Y010926D01*
X003501Y011005D02*
X003341Y011005D01*
X003335Y011083D02*
X003508Y011083D01*
X003540Y011162D02*
X003302Y011162D01*
X003259Y011240D02*
X003584Y011240D01*
X003662Y011319D02*
X003180Y011319D01*
X003262Y012104D02*
X002681Y012104D01*
X002727Y012183D02*
X003186Y012183D01*
X003154Y012261D02*
X002746Y012261D01*
X002754Y012340D02*
X003146Y012340D01*
X003159Y012418D02*
X002832Y012418D01*
X002911Y012497D02*
X003196Y012497D01*
X003286Y012575D02*
X002989Y012575D01*
X003068Y012654D02*
X003515Y012654D01*
X003594Y012733D02*
X003146Y012733D01*
X003225Y012811D02*
X003672Y012811D01*
X003821Y012734D02*
X003421Y012334D01*
X003696Y012340D02*
X004046Y012340D01*
X004054Y012261D02*
X003689Y012261D01*
X003656Y012183D02*
X004086Y012183D01*
X004162Y012104D02*
X003581Y012104D01*
X003732Y012418D02*
X004059Y012418D01*
X004096Y012497D02*
X003811Y012497D01*
X003821Y012734D02*
X004621Y012734D01*
X004662Y011319D02*
X004180Y011319D01*
X004259Y011240D02*
X004584Y011240D01*
X004540Y011162D02*
X004302Y011162D01*
X004335Y011083D02*
X004508Y011083D01*
X004501Y011005D02*
X004341Y011005D01*
X004341Y010926D02*
X004501Y010926D01*
X004501Y010847D02*
X004341Y010847D01*
X004341Y010769D02*
X004501Y010769D01*
X004501Y010690D02*
X004341Y010690D01*
X004341Y010612D02*
X004501Y010612D01*
X004501Y010533D02*
X004341Y010533D01*
X004341Y010455D02*
X004501Y010455D01*
X004501Y010376D02*
X004341Y010376D01*
X004340Y010298D02*
X004502Y010298D01*
X004535Y010219D02*
X004308Y010219D01*
X004272Y010141D02*
X004570Y010141D01*
X004649Y010062D02*
X004194Y010062D01*
X004053Y009984D02*
X004790Y009984D01*
X005053Y009984D02*
X005790Y009984D01*
X005649Y010062D02*
X005194Y010062D01*
X005272Y010141D02*
X005570Y010141D01*
X005535Y010219D02*
X005308Y010219D01*
X005340Y010298D02*
X005502Y010298D01*
X005501Y010376D02*
X005341Y010376D01*
X005341Y010455D02*
X005501Y010455D01*
X005501Y010533D02*
X005341Y010533D01*
X005341Y010612D02*
X005501Y010612D01*
X005501Y010690D02*
X005341Y010690D01*
X005341Y010769D02*
X005501Y010769D01*
X005501Y010847D02*
X005341Y010847D01*
X005341Y010926D02*
X005501Y010926D01*
X005501Y011005D02*
X005341Y011005D01*
X005335Y011083D02*
X005508Y011083D01*
X005540Y011162D02*
X005302Y011162D01*
X005259Y011240D02*
X005584Y011240D01*
X005662Y011319D02*
X005180Y011319D01*
X006053Y009984D02*
X006790Y009984D01*
X006649Y010062D02*
X006194Y010062D01*
X006272Y010141D02*
X006570Y010141D01*
X006535Y010219D02*
X006308Y010219D01*
X006340Y010298D02*
X006502Y010298D01*
X006501Y010376D02*
X006341Y010376D01*
X006341Y010455D02*
X006501Y010455D01*
X006501Y010533D02*
X006341Y010533D01*
X006341Y010612D02*
X006501Y010612D01*
X006501Y010690D02*
X006341Y010690D01*
X006341Y010769D02*
X006501Y010769D01*
X006501Y010847D02*
X006341Y010847D01*
X006341Y010926D02*
X006501Y010926D01*
X006501Y011005D02*
X006341Y011005D01*
X006335Y011083D02*
X006508Y011083D01*
X006540Y011162D02*
X006302Y011162D01*
X006259Y011240D02*
X006584Y011240D01*
X006662Y011319D02*
X006180Y011319D01*
X007020Y011397D02*
X007770Y011397D01*
X007634Y011319D02*
X007180Y011319D01*
X007259Y011240D02*
X007556Y011240D01*
X007519Y011162D02*
X007302Y011162D01*
X007335Y011083D02*
X007486Y011083D01*
X007481Y011005D02*
X007341Y011005D01*
X007341Y010926D02*
X007481Y010926D01*
X007481Y010847D02*
X007341Y010847D01*
X007341Y010769D02*
X007481Y010769D01*
X007879Y012026D02*
X002567Y012026D01*
X002471Y012284D02*
X003171Y012984D01*
X004261Y019880D02*
X000806Y019880D01*
X000867Y019959D02*
X004261Y019959D01*
X004261Y020037D02*
X000896Y020037D01*
X000896Y020116D02*
X004261Y020116D01*
X004261Y020194D02*
X000873Y020194D01*
X000887Y020273D02*
X004261Y020273D01*
X004261Y020351D02*
X000965Y020351D01*
X000981Y020430D02*
X004261Y020430D01*
X004261Y020508D02*
X000981Y020508D01*
X000981Y020587D02*
X004261Y020587D01*
X004261Y020665D02*
X000981Y020665D01*
X000981Y020744D02*
X004261Y020744D01*
X004261Y020822D02*
X000981Y020822D01*
X000981Y020901D02*
X004261Y020901D01*
X004261Y020980D02*
X000981Y020980D01*
X000981Y021058D02*
X004261Y021058D01*
X004261Y021137D02*
X000981Y021137D01*
X000981Y021215D02*
X004261Y021215D01*
X004261Y021294D02*
X000981Y021294D01*
X000981Y021372D02*
X004261Y021372D01*
X004261Y021451D02*
X000981Y021451D01*
X000981Y021529D02*
X004261Y021529D01*
X004261Y021608D02*
X000981Y021608D01*
X000981Y021686D02*
X004261Y021686D01*
X004261Y021765D02*
X000981Y021765D01*
X000981Y021844D02*
X004261Y021844D01*
X004261Y021922D02*
X000981Y021922D01*
X000981Y022001D02*
X004261Y022001D01*
X004261Y022079D02*
X000981Y022079D01*
X000981Y022158D02*
X004261Y022158D01*
X004261Y022236D02*
X000981Y022236D01*
X000981Y022315D02*
X004261Y022315D01*
X004261Y022393D02*
X000981Y022393D01*
X000981Y022472D02*
X004261Y022472D01*
X004261Y022550D02*
X000981Y022550D01*
X000981Y022629D02*
X004261Y022629D01*
X004261Y022708D02*
X000981Y022708D01*
X000981Y022786D02*
X004261Y022786D01*
X004261Y022865D02*
X000981Y022865D01*
X000981Y022943D02*
X004261Y022943D01*
X004261Y023022D02*
X000981Y023022D01*
X000981Y023100D02*
X004261Y023100D01*
X004261Y023179D02*
X000981Y023179D01*
X000981Y023257D02*
X004261Y023257D01*
X004261Y023336D02*
X000981Y023336D01*
X000981Y023414D02*
X004261Y023414D01*
X004261Y023493D02*
X000981Y023493D01*
X000981Y023571D02*
X004261Y023571D01*
X004261Y023650D02*
X000981Y023650D01*
X000981Y023729D02*
X004261Y023729D01*
X004261Y023807D02*
X000981Y023807D01*
X000981Y023886D02*
X004261Y023886D01*
X004261Y023964D02*
X000981Y023964D01*
X000981Y024043D02*
X004261Y024043D01*
X004207Y024121D02*
X000981Y024121D01*
X000981Y024200D02*
X004129Y024200D01*
X003888Y024278D02*
X000981Y024278D01*
X000981Y024357D02*
X003826Y024357D01*
X003796Y024435D02*
X000981Y024435D01*
X000981Y024514D02*
X003796Y024514D01*
X003819Y024593D02*
X000981Y024593D01*
X000981Y024671D02*
X003870Y024671D01*
X003995Y024750D02*
X000981Y024750D01*
X004071Y024484D02*
X004421Y024134D01*
X004921Y025184D02*
X005621Y025184D01*
X005921Y025484D01*
X005921Y026684D01*
X006921Y026684D02*
X006921Y025284D01*
X006621Y024984D01*
M02*
