G75*
G70*
%OFA0B0*%
%FSLAX24Y24*%
%IPPOS*%
%LPD*%
%AMOC8*
5,1,8,0,0,1.08239X$1,22.5*
%
%ADD10C,0.0000*%
%ADD11C,0.0160*%
%ADD12C,0.0060*%
%ADD13C,0.0040*%
%ADD14C,0.0080*%
%ADD15C,0.0157*%
%ADD16C,0.0030*%
%ADD17C,0.0050*%
%ADD18R,0.0200X0.0200*%
D10*
X000302Y000510D02*
X000302Y015260D01*
X006302Y015260D01*
X006302Y000510D01*
X000302Y000510D01*
D11*
X005642Y003270D02*
X005842Y003070D01*
X006042Y003270D01*
X005642Y003270D01*
X005750Y003162D02*
X005935Y003162D01*
D12*
X002802Y003260D02*
X002802Y004260D01*
X002802Y004510D01*
X000802Y004510D01*
X000802Y004260D01*
X002802Y004260D01*
X002802Y003260D02*
X000802Y003260D01*
X000802Y004260D01*
X001092Y004850D02*
X001519Y004850D01*
X001306Y005064D02*
X001306Y004637D01*
X001492Y005860D02*
X001492Y006160D01*
X002632Y006160D01*
X002632Y005860D01*
X001492Y005860D01*
D13*
X002519Y008229D02*
X002442Y008306D01*
X002442Y008459D01*
X002519Y008536D01*
X002519Y008689D02*
X002442Y008766D01*
X002442Y008920D01*
X002519Y008996D01*
X002595Y008996D01*
X002902Y008689D01*
X002902Y008996D01*
X002826Y008536D02*
X002902Y008459D01*
X002902Y008306D01*
X002826Y008229D01*
X002519Y008229D01*
X001882Y010889D02*
X001422Y010889D01*
X001422Y011119D01*
X001499Y011196D01*
X001652Y011196D01*
X001729Y011119D01*
X001729Y010889D01*
X001729Y011043D02*
X001882Y011196D01*
X001882Y011349D02*
X001882Y011656D01*
X001882Y011503D02*
X001422Y011503D01*
X001575Y011349D01*
X002662Y011230D02*
X002662Y011000D01*
X003122Y011000D01*
X003122Y011230D01*
X003046Y011307D01*
X002739Y011307D01*
X002662Y011230D01*
X002815Y011460D02*
X002662Y011614D01*
X003122Y011614D01*
X003122Y011767D02*
X003122Y011460D01*
X002922Y004497D02*
X002922Y004191D01*
X002922Y004344D02*
X003382Y004344D01*
X003382Y004037D02*
X003075Y004037D01*
X002922Y003884D01*
X003075Y003730D01*
X003382Y003730D01*
X003306Y003577D02*
X003382Y003500D01*
X003382Y003270D01*
X002922Y003270D01*
X002922Y003500D01*
X002999Y003577D01*
X003075Y003577D01*
X003152Y003500D01*
X003152Y003270D01*
X003152Y003500D02*
X003229Y003577D01*
X003306Y003577D01*
X003152Y003730D02*
X003152Y004037D01*
X004852Y004069D02*
X004852Y003839D01*
X005312Y003839D01*
X005312Y004069D01*
X005236Y004146D01*
X004929Y004146D01*
X004852Y004069D01*
X004929Y004299D02*
X004852Y004376D01*
X004852Y004530D01*
X004929Y004606D01*
X005005Y004606D01*
X005312Y004299D01*
X005312Y004606D01*
D14*
X005333Y007849D02*
X005333Y009030D01*
X004152Y009030D02*
X004152Y007849D01*
D15*
X004290Y007987D03*
D16*
X004049Y007878D02*
X004049Y007631D01*
X004049Y007754D02*
X003678Y007754D01*
X003802Y007631D01*
X003678Y007510D02*
X003987Y007510D01*
X004049Y007448D01*
X004049Y007324D01*
X003987Y007263D01*
X003678Y007263D01*
X005176Y011020D02*
X005237Y011082D01*
X005237Y011143D01*
X005176Y011205D01*
X004867Y011205D01*
X004867Y011143D02*
X004867Y011267D01*
X004991Y011388D02*
X004867Y011512D01*
X005237Y011512D01*
X005237Y011635D02*
X005237Y011388D01*
X005176Y011757D02*
X004929Y012003D01*
X005176Y012003D01*
X005237Y011942D01*
X005237Y011818D01*
X005176Y011757D01*
X004929Y011757D01*
X004867Y011818D01*
X004867Y011942D01*
X004929Y012003D01*
X005827Y011860D02*
X006197Y011860D01*
X006197Y011737D02*
X006197Y011983D01*
X006197Y011615D02*
X006197Y011368D01*
X006197Y011492D02*
X005827Y011492D01*
X005951Y011368D01*
X005827Y011247D02*
X005827Y011123D01*
X005827Y011185D02*
X006136Y011185D01*
X006197Y011123D01*
X006197Y011062D01*
X006136Y011000D01*
X005951Y011737D02*
X005827Y011860D01*
X005852Y007013D02*
X005852Y006828D01*
X005791Y006767D01*
X005729Y006767D01*
X005667Y006828D01*
X005667Y006952D01*
X005729Y007013D01*
X005976Y007013D01*
X006037Y006952D01*
X006037Y006828D01*
X005976Y006767D01*
X005976Y006583D02*
X005667Y006583D01*
X005667Y006522D02*
X005667Y006645D01*
X005976Y006583D02*
X006037Y006522D01*
X006037Y006460D01*
X005976Y006398D01*
X000951Y012275D02*
X001013Y012337D01*
X001013Y012398D01*
X000951Y012460D01*
X000766Y012460D01*
X000766Y012337D01*
X000827Y012275D01*
X000951Y012275D01*
X000766Y012460D02*
X000889Y012583D01*
X001013Y012645D01*
X000644Y012645D02*
X000521Y012645D01*
X000583Y012645D02*
X000583Y012337D01*
X000521Y012275D01*
X000459Y012275D01*
X000397Y012337D01*
X000459Y014795D02*
X000521Y014795D01*
X000583Y014857D01*
X000583Y015165D01*
X000644Y015165D02*
X000521Y015165D01*
X000397Y014857D02*
X000459Y014795D01*
X000766Y014857D02*
X000766Y014918D01*
X000827Y014980D01*
X000951Y014980D01*
X001013Y014918D01*
X001013Y014857D01*
X000951Y014795D01*
X000827Y014795D01*
X000766Y014857D01*
X000827Y014980D02*
X000766Y015042D01*
X000766Y015103D01*
X000827Y015165D01*
X000951Y015165D01*
X001013Y015103D01*
X001013Y015042D01*
X000951Y014980D01*
X000933Y002245D02*
X000686Y002245D01*
X000564Y002245D02*
X000441Y002245D01*
X000503Y002245D02*
X000503Y001937D01*
X000441Y001875D01*
X000379Y001875D01*
X000317Y001937D01*
X000441Y001485D02*
X000564Y001485D01*
X000503Y001485D02*
X000503Y001177D01*
X000441Y001115D01*
X000379Y001115D01*
X000317Y001177D01*
X000686Y001177D02*
X000747Y001115D01*
X000871Y001115D01*
X000933Y001177D01*
X000933Y001300D01*
X000871Y001362D01*
X000809Y001362D01*
X000686Y001300D01*
X000686Y001485D01*
X000933Y001485D01*
X000686Y001875D02*
X000686Y001937D01*
X000933Y002183D01*
X000933Y002245D01*
D17*
X000802Y002010D02*
X000802Y001760D01*
X001052Y001760D01*
X000802Y002010D01*
X000802Y001988D02*
X000824Y001988D01*
X000802Y001939D02*
X000873Y001939D01*
X000921Y001891D02*
X000802Y001891D01*
X000802Y001842D02*
X000970Y001842D01*
X001018Y001794D02*
X000802Y001794D01*
X000802Y001760D02*
X000802Y002760D01*
X005802Y002760D01*
X005802Y001760D01*
X000802Y001760D01*
X000802Y000760D01*
X000802Y001010D01*
X001052Y000760D01*
X000802Y000760D01*
X005802Y000760D01*
X005802Y001760D01*
X000802Y001760D01*
X000802Y000969D02*
X000844Y000969D01*
X000802Y000920D02*
X000892Y000920D01*
X000941Y000871D02*
X000802Y000871D01*
X000802Y000823D02*
X000989Y000823D01*
X001038Y000774D02*
X000802Y000774D01*
X001477Y006815D02*
X001477Y007265D01*
X001327Y007265D02*
X001628Y007265D01*
X001788Y007115D02*
X001938Y007265D01*
X001938Y006815D01*
X001788Y006815D02*
X002088Y006815D01*
X003552Y011039D02*
X003552Y011135D01*
X003365Y011135D01*
X003552Y011135D02*
X003365Y011385D01*
X003552Y011385D01*
X003552Y011481D01*
X003552Y011385D02*
X003740Y011385D01*
X003552Y011135D01*
X003740Y011135D01*
X004352Y011110D02*
X004752Y011110D01*
X004752Y011910D01*
X004352Y011910D01*
X004352Y011110D01*
X004502Y011910D02*
X004504Y011923D01*
X004509Y011936D01*
X004518Y011947D01*
X004529Y011954D01*
X004542Y011959D01*
X004555Y011960D01*
X004569Y011957D01*
X004581Y011951D01*
X004591Y011942D01*
X004598Y011930D01*
X004602Y011917D01*
X004602Y011903D01*
X004598Y011890D01*
X004591Y011878D01*
X004581Y011869D01*
X004569Y011863D01*
X004555Y011860D01*
X004542Y011861D01*
X004529Y011866D01*
X004518Y011873D01*
X004509Y011884D01*
X004504Y011897D01*
X004502Y011910D01*
X005352Y011610D02*
X005352Y010410D01*
X005752Y010410D01*
X005752Y011610D01*
X005352Y011610D01*
X005502Y011610D02*
X005504Y011623D01*
X005509Y011636D01*
X005518Y011647D01*
X005529Y011654D01*
X005542Y011659D01*
X005555Y011660D01*
X005569Y011657D01*
X005581Y011651D01*
X005591Y011642D01*
X005598Y011630D01*
X005602Y011617D01*
X005602Y011603D01*
X005598Y011590D01*
X005591Y011578D01*
X005581Y011569D01*
X005569Y011563D01*
X005555Y011560D01*
X005542Y011561D01*
X005529Y011566D01*
X005518Y011573D01*
X005509Y011584D01*
X005504Y011597D01*
X005502Y011610D01*
X005802Y012760D02*
X000802Y012760D01*
X000802Y013010D01*
X001052Y012760D01*
X000802Y012760D01*
X000802Y013760D01*
X000802Y014010D01*
X001052Y013760D01*
X000802Y013760D01*
X000802Y014760D01*
X005802Y014760D01*
X005802Y013760D01*
X000802Y013760D01*
X005802Y013760D01*
X005802Y012760D01*
X005752Y006360D02*
X005352Y006360D01*
X005352Y005160D01*
X005752Y005160D01*
X005752Y006360D01*
X005502Y006360D02*
X005504Y006373D01*
X005509Y006386D01*
X005518Y006397D01*
X005529Y006404D01*
X005542Y006409D01*
X005555Y006410D01*
X005569Y006407D01*
X005581Y006401D01*
X005591Y006392D01*
X005598Y006380D01*
X005602Y006367D01*
X005602Y006353D01*
X005598Y006340D01*
X005591Y006328D01*
X005581Y006319D01*
X005569Y006313D01*
X005555Y006310D01*
X005542Y006311D01*
X005529Y006316D01*
X005518Y006323D01*
X005509Y006334D01*
X005504Y006347D01*
X005502Y006360D01*
X004490Y004385D02*
X004302Y004385D01*
X004302Y004481D01*
X004302Y004385D02*
X004115Y004385D01*
X004302Y004385D02*
X004115Y004135D01*
X004302Y004135D01*
X004302Y004039D01*
X004302Y004135D02*
X004490Y004135D01*
X004302Y004385D01*
X001048Y012765D02*
X000802Y012765D01*
X000802Y012813D02*
X000999Y012813D01*
X000951Y012862D02*
X000802Y012862D01*
X000802Y012910D02*
X000902Y012910D01*
X000853Y012959D02*
X000802Y012959D01*
X000802Y013007D02*
X000805Y013007D01*
X000802Y013784D02*
X001028Y013784D01*
X000980Y013833D02*
X000802Y013833D01*
X000802Y013881D02*
X000931Y013881D01*
X000883Y013930D02*
X000802Y013930D01*
X000802Y013978D02*
X000834Y013978D01*
D18*
X001302Y003760D03*
X002302Y003760D03*
M02*
