G75*
G70*
%OFA0B0*%
%FSLAX24Y24*%
%IPPOS*%
%LPD*%
%AMOC8*
5,1,8,0,0,1.08239X$1,22.5*
%
%ADD10R,0.0591X0.0512*%
%ADD11R,0.0157X0.0600*%
%ADD12R,0.0700X0.0620*%
%ADD13R,0.0600X0.0600*%
%ADD14R,0.0827X0.0591*%
%ADD15R,0.0354X0.0276*%
%ADD16R,0.0310X0.0350*%
%ADD17C,0.0600*%
D10*
X003302Y008136D03*
X003302Y008884D03*
X002302Y010886D03*
X002302Y011634D03*
D11*
X004359Y009307D03*
X004614Y009307D03*
X004870Y009307D03*
X005126Y009307D03*
X005126Y007573D03*
X004870Y007573D03*
X004614Y007573D03*
X004359Y007573D03*
D12*
X004742Y008440D03*
D13*
X001302Y001260D03*
X001302Y002260D03*
X002302Y002260D03*
X002302Y001260D03*
X003302Y001260D03*
X003302Y002260D03*
X004302Y002260D03*
X004302Y001260D03*
X005302Y001260D03*
X005302Y002260D03*
X005302Y013260D03*
X005302Y014260D03*
X004302Y014260D03*
X004302Y013260D03*
X003302Y013260D03*
X003302Y014260D03*
X002302Y014260D03*
X002302Y013260D03*
X001302Y013260D03*
X001302Y014260D03*
D14*
X003552Y011969D03*
X003552Y010551D03*
X004302Y004969D03*
X004302Y003551D03*
D15*
X005552Y005366D03*
X005552Y005766D03*
X005552Y006166D03*
X005552Y010616D03*
X005552Y011016D03*
X005552Y011416D03*
X004552Y011316D03*
X004552Y011716D03*
D16*
X002442Y006410D03*
X002062Y005610D03*
X001682Y006410D03*
D17*
X001302Y004060D02*
X001302Y003460D01*
X002302Y003460D02*
X002302Y004060D01*
M02*
