G75*
G70*
%OFA0B0*%
%FSLAX24Y24*%
%IPPOS*%
%LPD*%
%AMOC8*
5,1,8,0,0,1.08239X$1,22.5*
%
%ADD10C,0.0000*%
%ADD11C,0.0160*%
%ADD12C,0.0060*%
%ADD13C,0.0030*%
%ADD14C,0.0040*%
%ADD15C,0.0080*%
%ADD16C,0.0157*%
%ADD17C,0.0050*%
%ADD18R,0.0200X0.0200*%
D10*
X000302Y000510D02*
X000302Y015260D01*
X006302Y015260D01*
X006302Y000510D01*
X000302Y000510D01*
D11*
X005642Y003270D02*
X005842Y003070D01*
X006042Y003270D01*
X005642Y003270D01*
X005750Y003162D02*
X005935Y003162D01*
D12*
X002802Y003260D02*
X002802Y004260D01*
X002802Y004510D01*
X000802Y004510D01*
X000802Y004260D01*
X002802Y004260D01*
X002802Y003260D02*
X000802Y003260D01*
X000802Y004260D01*
X001092Y004850D02*
X001519Y004850D01*
X001306Y005064D02*
X001306Y004637D01*
X001492Y005860D02*
X001492Y006160D01*
X002632Y006160D01*
X002632Y005860D01*
X001492Y005860D01*
D13*
X001327Y005963D02*
X001327Y006210D01*
X001327Y006087D02*
X000957Y006087D01*
X001081Y005963D01*
X000957Y005842D02*
X000957Y005718D01*
X000957Y005780D02*
X001266Y005780D01*
X001327Y005718D01*
X001327Y005657D01*
X001266Y005595D01*
X000891Y006251D02*
X000767Y006375D01*
X000767Y006313D01*
X000706Y006313D01*
X000706Y006375D01*
X000767Y006375D01*
X000706Y006497D02*
X000767Y006559D01*
X000767Y006620D01*
X000706Y006682D01*
X000397Y006682D01*
X000397Y006620D02*
X000397Y006744D01*
X000582Y006865D02*
X000397Y007050D01*
X000767Y007050D01*
X000957Y007007D02*
X001019Y006945D01*
X000957Y007007D02*
X000957Y007130D01*
X001019Y007192D01*
X001081Y007192D01*
X001327Y006945D01*
X001327Y007192D01*
X001266Y006762D02*
X000957Y006762D01*
X000957Y006700D02*
X000957Y006824D01*
X001266Y006762D02*
X001327Y006700D01*
X001327Y006639D01*
X001266Y006577D01*
X001266Y006455D02*
X001266Y006393D01*
X001327Y006393D01*
X001327Y006455D01*
X001266Y006455D01*
X001327Y006455D02*
X001451Y006331D01*
X000767Y006068D02*
X000767Y005945D01*
X000706Y005883D01*
X000582Y006007D02*
X000582Y006068D01*
X000644Y006130D01*
X000706Y006130D01*
X000767Y006068D01*
X000582Y006068D02*
X000521Y006130D01*
X000459Y006130D01*
X000397Y006068D01*
X000397Y005945D01*
X000459Y005883D01*
X000397Y005762D02*
X000397Y005638D01*
X000397Y005700D02*
X000706Y005700D01*
X000767Y005638D01*
X000767Y005577D01*
X000706Y005515D01*
X000582Y006865D02*
X000582Y007112D01*
X000521Y007602D02*
X000521Y007725D01*
X000459Y007664D02*
X000706Y007664D01*
X000767Y007725D01*
X000706Y007847D02*
X000767Y007909D01*
X000767Y008033D01*
X000706Y008094D01*
X000582Y008094D01*
X000521Y008033D01*
X000521Y007909D01*
X000582Y007847D01*
X000706Y007847D01*
X001019Y007744D02*
X001266Y007744D01*
X001327Y007805D01*
X001266Y007927D02*
X001327Y007989D01*
X001327Y008113D01*
X001266Y008174D01*
X001142Y008174D01*
X001081Y008113D01*
X001081Y007989D01*
X001142Y007927D01*
X001266Y007927D01*
X001081Y007805D02*
X001081Y007682D01*
X000767Y008584D02*
X000397Y008584D01*
X000521Y008707D01*
X000397Y008831D01*
X000767Y008831D01*
X000706Y008952D02*
X000644Y009014D01*
X000644Y009199D01*
X000582Y009199D02*
X000767Y009199D01*
X000767Y009014D01*
X000706Y008952D01*
X000521Y009137D02*
X000582Y009199D01*
X000521Y009137D02*
X000521Y009014D01*
X000521Y009321D02*
X000521Y009382D01*
X000767Y009382D01*
X000767Y009321D02*
X000767Y009444D01*
X000767Y009566D02*
X000521Y009566D01*
X000521Y009751D01*
X000582Y009813D01*
X000767Y009813D01*
X000767Y009934D02*
X000767Y010120D01*
X000706Y010181D01*
X000582Y010181D01*
X000521Y010120D01*
X000521Y009934D01*
X000397Y009934D02*
X000767Y009934D01*
X000957Y009893D02*
X000957Y009769D01*
X001019Y009708D01*
X001081Y009708D01*
X001142Y009769D01*
X001142Y009893D01*
X001204Y009954D01*
X001266Y009954D01*
X001327Y009893D01*
X001327Y009769D01*
X001266Y009708D01*
X001081Y009586D02*
X001081Y009524D01*
X001204Y009401D01*
X001327Y009401D02*
X001081Y009401D01*
X001081Y009279D02*
X001266Y009279D01*
X001327Y009217D01*
X001266Y009156D01*
X001327Y009094D01*
X001266Y009032D01*
X001081Y009032D01*
X001019Y008911D02*
X001142Y008911D01*
X001204Y008849D01*
X001204Y008664D01*
X001327Y008664D02*
X000957Y008664D01*
X000957Y008849D01*
X001019Y008911D01*
X000957Y009893D02*
X001019Y009954D01*
X000957Y010076D02*
X001327Y010076D01*
X001327Y010323D02*
X001142Y010323D01*
X001081Y010261D01*
X001081Y010138D01*
X001142Y010076D01*
X001081Y010444D02*
X001081Y010506D01*
X001327Y010506D01*
X001327Y010444D02*
X001327Y010568D01*
X001266Y010690D02*
X001142Y010690D01*
X001081Y010751D01*
X001081Y010875D01*
X001142Y010936D01*
X001204Y010936D01*
X001204Y010690D01*
X001266Y010690D02*
X001327Y010751D01*
X001327Y010875D01*
X001327Y011058D02*
X001327Y011181D01*
X001327Y011120D02*
X000957Y011120D01*
X000957Y011058D01*
X000767Y011039D02*
X000521Y011039D01*
X000644Y011039D02*
X000521Y011163D01*
X000521Y011225D01*
X000582Y011346D02*
X000521Y011408D01*
X000521Y011593D01*
X000397Y011593D02*
X000767Y011593D01*
X000767Y011408D01*
X000706Y011346D01*
X000582Y011346D01*
X000582Y010918D02*
X000521Y010856D01*
X000521Y010733D01*
X000644Y010733D02*
X000644Y010918D01*
X000582Y010918D02*
X000767Y010918D01*
X000767Y010733D01*
X000706Y010671D01*
X000644Y010733D01*
X000706Y010550D02*
X000582Y010550D01*
X000521Y010488D01*
X000521Y010364D01*
X000582Y010303D01*
X000706Y010303D01*
X000767Y010364D01*
X000767Y010488D01*
X000706Y010550D01*
X000895Y010506D02*
X000957Y010506D01*
X001142Y011303D02*
X001081Y011365D01*
X001081Y011550D01*
X001142Y011303D02*
X001266Y011303D01*
X001327Y011365D01*
X001327Y011550D01*
X000957Y011550D01*
X000951Y012275D02*
X000951Y012645D01*
X000766Y012460D01*
X001013Y012460D01*
X000644Y012645D02*
X000521Y012645D01*
X000583Y012645D02*
X000583Y012337D01*
X000521Y012275D01*
X000459Y012275D01*
X000397Y012337D01*
X000459Y014795D02*
X000521Y014795D01*
X000583Y014857D01*
X000583Y015165D01*
X000644Y015165D02*
X000521Y015165D01*
X000397Y014857D02*
X000459Y014795D01*
X000766Y014795D02*
X001013Y015042D01*
X001013Y015103D01*
X000951Y015165D01*
X000827Y015165D01*
X000766Y015103D01*
X000766Y014795D02*
X001013Y014795D01*
X000397Y009382D02*
X000335Y009382D01*
X003678Y007754D02*
X004049Y007754D01*
X004049Y007631D02*
X004049Y007878D01*
X003802Y007631D02*
X003678Y007754D01*
X003678Y007510D02*
X003987Y007510D01*
X004049Y007448D01*
X004049Y007324D01*
X003987Y007263D01*
X003678Y007263D01*
X004827Y006173D02*
X004889Y006050D01*
X005012Y005927D01*
X005012Y006112D01*
X005074Y006173D01*
X005136Y006173D01*
X005197Y006112D01*
X005197Y005988D01*
X005136Y005927D01*
X005012Y005927D01*
X005136Y005743D02*
X004827Y005743D01*
X004827Y005682D02*
X004827Y005805D01*
X005136Y005743D02*
X005197Y005682D01*
X005197Y005620D01*
X005136Y005558D01*
X005837Y005546D02*
X006022Y005360D01*
X006022Y005607D01*
X006146Y005729D02*
X006146Y005790D01*
X006207Y005790D01*
X006207Y005729D01*
X006146Y005729D01*
X006207Y005913D02*
X006207Y006160D01*
X006207Y006281D02*
X006084Y006405D01*
X005961Y006405D01*
X005837Y006281D01*
X005837Y006036D02*
X006207Y006036D01*
X005961Y005913D02*
X005837Y006036D01*
X005837Y005546D02*
X006207Y005546D01*
X006207Y005238D02*
X006084Y005115D01*
X005961Y005115D01*
X005837Y005238D01*
X005899Y004794D02*
X006146Y004547D01*
X006207Y004609D01*
X006207Y004732D01*
X006146Y004794D01*
X005899Y004794D01*
X005837Y004732D01*
X005837Y004609D01*
X005899Y004547D01*
X006146Y004547D01*
X006146Y004425D02*
X006207Y004425D01*
X006207Y004363D01*
X006146Y004363D01*
X006146Y004425D01*
X006207Y004180D02*
X005837Y004180D01*
X006022Y003995D01*
X006022Y004242D01*
X006022Y006715D02*
X006022Y006962D01*
X006146Y007083D02*
X006146Y007145D01*
X006207Y007145D01*
X006207Y007083D01*
X006146Y007083D01*
X006207Y006900D02*
X005837Y006900D01*
X006022Y006715D01*
X005899Y007267D02*
X005837Y007329D01*
X005837Y007452D01*
X005899Y007514D01*
X005961Y007514D01*
X006207Y007267D01*
X006207Y007514D01*
X006207Y010035D02*
X005961Y010282D01*
X005899Y010282D01*
X005837Y010220D01*
X005837Y010097D01*
X005899Y010035D01*
X006207Y010035D02*
X006207Y010282D01*
X006207Y010403D02*
X006207Y010465D01*
X006146Y010465D01*
X006146Y010403D01*
X006207Y010403D01*
X006207Y010587D02*
X006146Y010587D01*
X005899Y010834D01*
X005837Y010834D01*
X005837Y010587D01*
X005899Y011195D02*
X005837Y011257D01*
X005837Y011380D01*
X005899Y011442D01*
X005961Y011442D01*
X006022Y011380D01*
X006084Y011442D01*
X006146Y011442D01*
X006207Y011380D01*
X006207Y011257D01*
X006146Y011195D01*
X006022Y011318D02*
X006022Y011380D01*
X006146Y011563D02*
X006146Y011625D01*
X006207Y011625D01*
X006207Y011563D01*
X006146Y011563D01*
X006207Y011747D02*
X005961Y011994D01*
X005899Y011994D01*
X005837Y011932D01*
X005837Y011809D01*
X005899Y011747D01*
X006207Y011747D02*
X006207Y011994D01*
X005517Y012097D02*
X005456Y012097D01*
X005209Y012343D01*
X005147Y012343D01*
X005147Y012097D01*
X005147Y011975D02*
X005147Y011852D01*
X005147Y011913D02*
X005456Y011913D01*
X005517Y011852D01*
X005517Y011790D01*
X005456Y011728D01*
X004757Y012090D02*
X004757Y012152D01*
X004696Y012213D01*
X004387Y012213D01*
X004387Y012152D02*
X004387Y012275D01*
X004387Y012397D02*
X004572Y012397D01*
X004511Y012520D01*
X004511Y012582D01*
X004572Y012643D01*
X004696Y012643D01*
X004757Y012582D01*
X004757Y012458D01*
X004696Y012397D01*
X004757Y012090D02*
X004696Y012028D01*
X004387Y012397D02*
X004387Y012643D01*
X000809Y002245D02*
X000809Y001875D01*
X000686Y001875D02*
X000933Y001875D01*
X000686Y002122D02*
X000809Y002245D01*
X000564Y002245D02*
X000441Y002245D01*
X000503Y002245D02*
X000503Y001937D01*
X000441Y001875D01*
X000379Y001875D01*
X000317Y001937D01*
X000441Y001485D02*
X000564Y001485D01*
X000503Y001485D02*
X000503Y001177D01*
X000441Y001115D01*
X000379Y001115D01*
X000317Y001177D01*
X000686Y001177D02*
X000747Y001115D01*
X000871Y001115D01*
X000933Y001177D01*
X000933Y001238D01*
X000871Y001300D01*
X000809Y001300D01*
X000871Y001300D02*
X000933Y001362D01*
X000933Y001423D01*
X000871Y001485D01*
X000747Y001485D01*
X000686Y001423D01*
D14*
X002922Y003270D02*
X002922Y003500D01*
X002999Y003577D01*
X003075Y003577D01*
X003152Y003500D01*
X003152Y003270D01*
X003152Y003500D02*
X003229Y003577D01*
X003306Y003577D01*
X003382Y003500D01*
X003382Y003270D01*
X002922Y003270D01*
X003075Y003730D02*
X002922Y003884D01*
X003075Y004037D01*
X003382Y004037D01*
X003152Y004037D02*
X003152Y003730D01*
X003075Y003730D02*
X003382Y003730D01*
X003382Y004344D02*
X002922Y004344D01*
X002922Y004191D02*
X002922Y004497D01*
X004852Y004530D02*
X004852Y004376D01*
X004929Y004299D01*
X004929Y004146D02*
X004852Y004069D01*
X004852Y003839D01*
X005312Y003839D01*
X005312Y004069D01*
X005236Y004146D01*
X004929Y004146D01*
X004852Y004530D02*
X004929Y004606D01*
X005005Y004606D01*
X005312Y004299D01*
X005312Y004606D01*
X002826Y008229D02*
X002902Y008306D01*
X002902Y008459D01*
X002826Y008536D01*
X002902Y008689D02*
X002902Y008996D01*
X002902Y008843D02*
X002442Y008843D01*
X002595Y008689D01*
X002519Y008536D02*
X002442Y008459D01*
X002442Y008306D01*
X002519Y008229D01*
X002826Y008229D01*
X002522Y009809D02*
X002062Y009809D01*
X002062Y010039D01*
X002139Y010116D01*
X002292Y010116D01*
X002369Y010039D01*
X002369Y009809D01*
X002369Y009963D02*
X002522Y010116D01*
X002522Y010269D02*
X002522Y010576D01*
X002522Y010423D02*
X002062Y010423D01*
X002215Y010269D01*
X002662Y011000D02*
X002662Y011230D01*
X002739Y011307D01*
X003046Y011307D01*
X003122Y011230D01*
X003122Y011000D01*
X002662Y011000D01*
X002815Y011460D02*
X002662Y011614D01*
X003122Y011614D01*
X003122Y011767D02*
X003122Y011460D01*
D15*
X004152Y009030D02*
X004152Y007849D01*
X005333Y007849D02*
X005333Y009030D01*
D16*
X004290Y007987D03*
D17*
X005352Y006360D02*
X005352Y005160D01*
X005752Y005160D01*
X005752Y006360D01*
X005352Y006360D01*
X005502Y006360D02*
X005504Y006373D01*
X005509Y006386D01*
X005518Y006397D01*
X005529Y006404D01*
X005542Y006409D01*
X005555Y006410D01*
X005569Y006407D01*
X005581Y006401D01*
X005591Y006392D01*
X005598Y006380D01*
X005602Y006367D01*
X005602Y006353D01*
X005598Y006340D01*
X005591Y006328D01*
X005581Y006319D01*
X005569Y006313D01*
X005555Y006310D01*
X005542Y006311D01*
X005529Y006316D01*
X005518Y006323D01*
X005509Y006334D01*
X005504Y006347D01*
X005502Y006360D01*
X004490Y004385D02*
X004302Y004385D01*
X004302Y004481D01*
X004302Y004385D02*
X004115Y004385D01*
X004302Y004385D02*
X004115Y004135D01*
X004302Y004135D01*
X004302Y004039D01*
X004302Y004135D02*
X004490Y004135D01*
X004302Y004385D01*
X003128Y005295D02*
X002828Y005295D01*
X002978Y005295D02*
X002978Y005745D01*
X002828Y005595D01*
X002668Y005745D02*
X002367Y005745D01*
X002517Y005745D02*
X002517Y005295D01*
X000802Y002760D02*
X000802Y001760D01*
X000802Y002010D01*
X001052Y001760D01*
X000802Y001760D01*
X005802Y001760D01*
X005802Y002760D01*
X000802Y002760D01*
X000802Y001988D02*
X000824Y001988D01*
X000802Y001939D02*
X000873Y001939D01*
X000921Y001891D02*
X000802Y001891D01*
X000802Y001842D02*
X000970Y001842D01*
X001018Y001794D02*
X000802Y001794D01*
X000802Y001760D02*
X000802Y000760D01*
X000802Y001010D01*
X001052Y000760D01*
X000802Y000760D01*
X005802Y000760D01*
X005802Y001760D01*
X000802Y001760D01*
X000802Y000969D02*
X000844Y000969D01*
X000802Y000920D02*
X000892Y000920D01*
X000941Y000871D02*
X000802Y000871D01*
X000802Y000823D02*
X000989Y000823D01*
X001038Y000774D02*
X000802Y000774D01*
X005352Y010410D02*
X005752Y010410D01*
X005752Y011610D01*
X005352Y011610D01*
X005352Y010410D01*
X004752Y011110D02*
X004752Y011910D01*
X004352Y011910D01*
X004352Y011110D01*
X004752Y011110D01*
X004502Y011910D02*
X004504Y011923D01*
X004509Y011936D01*
X004518Y011947D01*
X004529Y011954D01*
X004542Y011959D01*
X004555Y011960D01*
X004569Y011957D01*
X004581Y011951D01*
X004591Y011942D01*
X004598Y011930D01*
X004602Y011917D01*
X004602Y011903D01*
X004598Y011890D01*
X004591Y011878D01*
X004581Y011869D01*
X004569Y011863D01*
X004555Y011860D01*
X004542Y011861D01*
X004529Y011866D01*
X004518Y011873D01*
X004509Y011884D01*
X004504Y011897D01*
X004502Y011910D01*
X003740Y011385D02*
X003552Y011385D01*
X003552Y011481D01*
X003552Y011385D02*
X003365Y011385D01*
X003552Y011135D01*
X003552Y011039D01*
X003552Y011135D02*
X003365Y011135D01*
X003552Y011135D02*
X003740Y011135D01*
X003552Y011135D02*
X003740Y011385D01*
X005502Y011610D02*
X005504Y011623D01*
X005509Y011636D01*
X005518Y011647D01*
X005529Y011654D01*
X005542Y011659D01*
X005555Y011660D01*
X005569Y011657D01*
X005581Y011651D01*
X005591Y011642D01*
X005598Y011630D01*
X005602Y011617D01*
X005602Y011603D01*
X005598Y011590D01*
X005591Y011578D01*
X005581Y011569D01*
X005569Y011563D01*
X005555Y011560D01*
X005542Y011561D01*
X005529Y011566D01*
X005518Y011573D01*
X005509Y011584D01*
X005504Y011597D01*
X005502Y011610D01*
X005802Y012760D02*
X000802Y012760D01*
X000802Y013010D01*
X001052Y012760D01*
X000802Y012760D01*
X000802Y013760D01*
X000802Y014010D01*
X001052Y013760D01*
X000802Y013760D01*
X000802Y014760D01*
X005802Y014760D01*
X005802Y013760D01*
X000802Y013760D01*
X005802Y013760D01*
X005802Y012760D01*
X001048Y012765D02*
X000802Y012765D01*
X000802Y012813D02*
X000999Y012813D01*
X000951Y012862D02*
X000802Y012862D01*
X000802Y012910D02*
X000902Y012910D01*
X000853Y012959D02*
X000802Y012959D01*
X000802Y013007D02*
X000805Y013007D01*
X000802Y013784D02*
X001028Y013784D01*
X000980Y013833D02*
X000802Y013833D01*
X000802Y013881D02*
X000931Y013881D01*
X000883Y013930D02*
X000802Y013930D01*
X000802Y013978D02*
X000834Y013978D01*
D18*
X001302Y003760D03*
X002302Y003760D03*
M02*
