G75*
G70*
%OFA0B0*%
%FSLAX24Y24*%
%IPPOS*%
%LPD*%
%AMOC8*
5,1,8,0,0,1.08239X$1,22.5*
%
%ADD10R,0.0600X0.0600*%
%ADD11C,0.0600*%
%ADD12R,0.1000X0.1300*%
%ADD13C,0.0080*%
%ADD14C,0.0310*%
%ADD15C,0.0160*%
D10*
X001302Y001260D03*
X001302Y002260D03*
X002302Y002260D03*
X002302Y001260D03*
X003302Y001260D03*
X003302Y002260D03*
X004302Y002260D03*
X004302Y001260D03*
X005302Y001260D03*
X005302Y002260D03*
X005302Y013260D03*
X005302Y014260D03*
X004302Y014260D03*
X004302Y013260D03*
X003302Y013260D03*
X003302Y014260D03*
X002302Y014260D03*
X002302Y013260D03*
X001302Y013260D03*
X001302Y014260D03*
D11*
X001302Y004060D02*
X001302Y003460D01*
X002302Y003460D02*
X002302Y004060D01*
D12*
X002302Y011760D03*
X004302Y011760D03*
D13*
X000742Y014820D02*
X000742Y000950D01*
X000802Y000950D01*
X000802Y001643D01*
X000919Y001760D01*
X001685Y001760D01*
X001802Y001877D01*
X001802Y002643D01*
X001685Y002760D01*
X000919Y002760D01*
X000802Y002643D01*
X000802Y001877D01*
X000919Y001760D01*
X001685Y001760D01*
X001802Y001643D01*
X001802Y000950D01*
X001802Y000950D01*
X001802Y001643D01*
X001919Y001760D01*
X002685Y001760D01*
X002802Y001877D01*
X002802Y002643D01*
X002685Y002760D01*
X001919Y002760D01*
X001802Y002643D01*
X001802Y001877D01*
X001919Y001760D01*
X002685Y001760D01*
X002802Y001643D01*
X002802Y000950D01*
X002802Y000950D01*
X002802Y001643D01*
X002919Y001760D01*
X003685Y001760D01*
X003802Y001877D01*
X003802Y002643D01*
X003685Y002760D01*
X002919Y002760D01*
X002802Y002643D01*
X002802Y001877D01*
X002919Y001760D01*
X003685Y001760D01*
X003802Y001643D01*
X003802Y000950D01*
X003802Y000950D01*
X003802Y001643D01*
X003919Y001760D01*
X004685Y001760D01*
X004802Y001877D01*
X004802Y002643D01*
X004685Y002760D01*
X003919Y002760D01*
X003802Y002643D01*
X003802Y001877D01*
X003919Y001760D01*
X004685Y001760D01*
X004802Y001643D01*
X004802Y000950D01*
X004802Y000950D01*
X004802Y001643D01*
X004919Y001760D01*
X005685Y001760D01*
X005802Y001877D01*
X005802Y002643D01*
X005685Y002760D01*
X004919Y002760D01*
X004802Y002643D01*
X004802Y001877D01*
X004919Y001760D01*
X005685Y001760D01*
X005802Y001643D01*
X005802Y000950D01*
X005862Y000950D01*
X005862Y003904D01*
X005541Y003582D01*
X005438Y003540D01*
X005327Y003540D01*
X003807Y003540D01*
X003704Y003582D01*
X003625Y003661D01*
X002706Y004580D01*
X001542Y004580D01*
X001542Y004502D01*
X001586Y004484D01*
X001726Y004343D01*
X001802Y004159D01*
X001802Y003360D01*
X001726Y003177D01*
X001586Y003036D01*
X001402Y002960D01*
X001203Y002960D01*
X001019Y003036D01*
X000878Y003177D01*
X000802Y003360D01*
X000802Y004159D01*
X000878Y004343D01*
X000982Y004447D01*
X000982Y004644D01*
X000982Y004756D01*
X001025Y004858D01*
X001185Y005018D01*
X001264Y005097D01*
X001367Y005140D01*
X002767Y005140D01*
X002878Y005140D01*
X002981Y005097D01*
X003978Y004100D01*
X005266Y004100D01*
X005582Y004416D01*
X005582Y005380D01*
X005487Y005380D01*
X004620Y005380D01*
X004603Y005339D01*
X004503Y005239D01*
X004373Y005185D01*
X004232Y005185D01*
X004101Y005239D01*
X004001Y005339D01*
X003947Y005469D01*
X003947Y005610D01*
X004001Y005741D01*
X004101Y005841D01*
X004232Y005895D01*
X004373Y005895D01*
X004379Y005892D01*
X004384Y005897D01*
X004426Y005915D01*
X004467Y005935D01*
X004477Y005936D01*
X004487Y005940D01*
X004533Y005940D01*
X004578Y005943D01*
X004588Y005940D01*
X005262Y005940D01*
X005262Y006549D01*
X005253Y006545D01*
X005112Y006545D01*
X004981Y006599D01*
X004881Y006699D01*
X004881Y006700D01*
X002724Y006700D01*
X002663Y006639D01*
X002533Y006585D01*
X002392Y006585D01*
X002261Y006639D01*
X002161Y006739D01*
X002107Y006869D01*
X002107Y007010D01*
X002161Y007141D01*
X002261Y007241D01*
X002392Y007295D01*
X002533Y007295D01*
X002663Y007241D01*
X002724Y007180D01*
X004960Y007180D01*
X004981Y007201D01*
X005112Y007255D01*
X005253Y007255D01*
X005262Y007251D01*
X005262Y008424D01*
X005026Y008660D01*
X004198Y008660D01*
X004087Y008660D01*
X003984Y008702D01*
X003304Y009382D01*
X003225Y009461D01*
X003182Y009564D01*
X003182Y009798D01*
X003121Y009859D01*
X003067Y009989D01*
X003067Y010130D01*
X003121Y010261D01*
X003221Y010361D01*
X003352Y010415D01*
X003493Y010415D01*
X003623Y010361D01*
X003723Y010261D01*
X003777Y010130D01*
X003777Y009989D01*
X003742Y009905D01*
X003742Y009736D01*
X004258Y009220D01*
X005106Y009220D01*
X004755Y009571D01*
X004693Y009545D01*
X004552Y009545D01*
X004421Y009599D01*
X004321Y009699D01*
X004301Y009747D01*
X004186Y009805D01*
X004144Y009822D01*
X004137Y009830D01*
X004127Y009834D01*
X004097Y009869D01*
X004065Y009901D01*
X004061Y009911D01*
X004054Y009918D01*
X004040Y009962D01*
X004022Y010004D01*
X004022Y010014D01*
X004019Y010024D01*
X004022Y010070D01*
X004022Y010910D01*
X003719Y010910D01*
X003602Y011027D01*
X003602Y012493D01*
X003719Y012610D01*
X004885Y012610D01*
X005002Y012493D01*
X005002Y011027D01*
X004885Y010910D01*
X004582Y010910D01*
X004582Y010255D01*
X004693Y010255D01*
X004823Y010201D01*
X004844Y010180D01*
X004878Y010180D01*
X004981Y010137D01*
X005060Y010058D01*
X005862Y009256D01*
X005862Y014820D01*
X000742Y014820D01*
X000742Y014769D02*
X005862Y014769D01*
X005862Y014691D02*
X005754Y014691D01*
X005802Y014643D02*
X005685Y014760D01*
X004919Y014760D01*
X004802Y014643D01*
X004685Y014760D01*
X003919Y014760D01*
X003802Y014643D01*
X003685Y014760D01*
X002919Y014760D01*
X002802Y014643D01*
X002685Y014760D01*
X001919Y014760D01*
X001802Y014643D01*
X001802Y013877D01*
X001919Y013760D01*
X002685Y013760D01*
X002802Y013877D01*
X002802Y014643D01*
X002802Y013877D01*
X002919Y013760D01*
X003685Y013760D01*
X003802Y013877D01*
X003802Y014643D01*
X003802Y013877D01*
X003919Y013760D01*
X004685Y013760D01*
X004802Y013877D01*
X004802Y014643D01*
X004802Y013877D01*
X004919Y013760D01*
X005685Y013760D01*
X005802Y013877D01*
X005802Y014643D01*
X005802Y014612D02*
X005862Y014612D01*
X005862Y014534D02*
X005802Y014534D01*
X005802Y014455D02*
X005862Y014455D01*
X005862Y014377D02*
X005802Y014377D01*
X005802Y014298D02*
X005862Y014298D01*
X005862Y014219D02*
X005802Y014219D01*
X005802Y014141D02*
X005862Y014141D01*
X005862Y014062D02*
X005802Y014062D01*
X005802Y013984D02*
X005862Y013984D01*
X005862Y013905D02*
X005802Y013905D01*
X005752Y013827D02*
X005862Y013827D01*
X005862Y013748D02*
X005697Y013748D01*
X005685Y013760D02*
X004919Y013760D01*
X004802Y013643D01*
X004685Y013760D01*
X003919Y013760D01*
X003802Y013643D01*
X003685Y013760D01*
X002919Y013760D01*
X002802Y013643D01*
X002685Y013760D01*
X001919Y013760D01*
X001802Y013643D01*
X001802Y012877D01*
X001919Y012760D01*
X002685Y012760D01*
X002802Y012877D01*
X002802Y013643D01*
X002802Y012877D01*
X002919Y012760D01*
X003685Y012760D01*
X003802Y012877D01*
X003802Y013643D01*
X003802Y012877D01*
X003919Y012760D01*
X004685Y012760D01*
X004802Y012877D01*
X004802Y013643D01*
X004802Y012877D01*
X004919Y012760D01*
X005685Y012760D01*
X005802Y012877D01*
X005802Y013643D01*
X005685Y013760D01*
X005775Y013670D02*
X005862Y013670D01*
X005862Y013591D02*
X005802Y013591D01*
X005802Y013513D02*
X005862Y013513D01*
X005862Y013434D02*
X005802Y013434D01*
X005802Y013356D02*
X005862Y013356D01*
X005862Y013277D02*
X005802Y013277D01*
X005802Y013198D02*
X005862Y013198D01*
X005862Y013120D02*
X005802Y013120D01*
X005802Y013041D02*
X005862Y013041D01*
X005862Y012963D02*
X005802Y012963D01*
X005802Y012884D02*
X005862Y012884D01*
X005862Y012806D02*
X005731Y012806D01*
X005862Y012727D02*
X000742Y012727D01*
X000742Y012649D02*
X005862Y012649D01*
X005862Y012570D02*
X004925Y012570D01*
X005002Y012492D02*
X005862Y012492D01*
X005862Y012413D02*
X005002Y012413D01*
X005002Y012334D02*
X005862Y012334D01*
X005862Y012256D02*
X005002Y012256D01*
X005002Y012177D02*
X005862Y012177D01*
X005862Y012099D02*
X005002Y012099D01*
X005002Y012020D02*
X005862Y012020D01*
X005862Y011942D02*
X005002Y011942D01*
X005002Y011863D02*
X005862Y011863D01*
X005862Y011785D02*
X005002Y011785D01*
X005002Y011706D02*
X005862Y011706D01*
X005862Y011628D02*
X005002Y011628D01*
X005002Y011549D02*
X005862Y011549D01*
X005862Y011470D02*
X005002Y011470D01*
X005002Y011392D02*
X005862Y011392D01*
X005862Y011313D02*
X005002Y011313D01*
X005002Y011235D02*
X005862Y011235D01*
X005862Y011156D02*
X005002Y011156D01*
X005002Y011078D02*
X005862Y011078D01*
X005862Y010999D02*
X004975Y010999D01*
X004896Y010921D02*
X005862Y010921D01*
X005862Y010842D02*
X004582Y010842D01*
X004582Y010764D02*
X005862Y010764D01*
X005862Y010685D02*
X004582Y010685D01*
X004582Y010606D02*
X005862Y010606D01*
X005862Y010528D02*
X004582Y010528D01*
X004582Y010449D02*
X005862Y010449D01*
X005862Y010371D02*
X004582Y010371D01*
X004582Y010292D02*
X005862Y010292D01*
X005862Y010214D02*
X004792Y010214D01*
X004983Y010135D02*
X005862Y010135D01*
X005862Y010057D02*
X005061Y010057D01*
X005140Y009978D02*
X005862Y009978D01*
X005862Y009900D02*
X005219Y009900D01*
X005297Y009821D02*
X005862Y009821D01*
X005862Y009743D02*
X005376Y009743D01*
X005454Y009664D02*
X005862Y009664D01*
X005862Y009585D02*
X005533Y009585D01*
X005611Y009507D02*
X005862Y009507D01*
X005862Y009428D02*
X005690Y009428D01*
X005768Y009350D02*
X005862Y009350D01*
X005862Y009271D02*
X005847Y009271D01*
X005262Y008407D02*
X000742Y008407D01*
X000742Y008329D02*
X005262Y008329D01*
X005262Y008250D02*
X000742Y008250D01*
X000742Y008172D02*
X005262Y008172D01*
X005262Y008093D02*
X000742Y008093D01*
X000742Y008015D02*
X005262Y008015D01*
X005262Y007936D02*
X000742Y007936D01*
X000742Y007857D02*
X005262Y007857D01*
X005262Y007779D02*
X000742Y007779D01*
X000742Y007700D02*
X005262Y007700D01*
X005262Y007622D02*
X000742Y007622D01*
X000742Y007543D02*
X005262Y007543D01*
X005262Y007465D02*
X000742Y007465D01*
X000742Y007386D02*
X005262Y007386D01*
X005262Y007308D02*
X000742Y007308D01*
X000742Y007229D02*
X002250Y007229D01*
X002171Y007151D02*
X000742Y007151D01*
X000742Y007072D02*
X002133Y007072D01*
X002107Y006994D02*
X000742Y006994D01*
X000742Y006915D02*
X002107Y006915D01*
X002121Y006836D02*
X000742Y006836D01*
X000742Y006758D02*
X002153Y006758D01*
X002221Y006679D02*
X000742Y006679D01*
X000742Y006601D02*
X002353Y006601D01*
X002571Y006601D02*
X004979Y006601D01*
X004901Y006679D02*
X002704Y006679D01*
X002462Y006940D02*
X005142Y006940D01*
X005182Y006900D01*
X005050Y007229D02*
X002675Y007229D01*
X003651Y009036D02*
X000742Y009036D01*
X000742Y009114D02*
X003572Y009114D01*
X003494Y009193D02*
X000742Y009193D01*
X000742Y009271D02*
X003415Y009271D01*
X003336Y009350D02*
X000742Y009350D01*
X000742Y009428D02*
X003258Y009428D01*
X003206Y009507D02*
X000742Y009507D01*
X000742Y009585D02*
X003182Y009585D01*
X003182Y009664D02*
X000742Y009664D01*
X000742Y009743D02*
X003182Y009743D01*
X003159Y009821D02*
X000742Y009821D01*
X000742Y009900D02*
X003104Y009900D01*
X003072Y009978D02*
X000742Y009978D01*
X000742Y010057D02*
X003067Y010057D01*
X003069Y010135D02*
X000742Y010135D01*
X000742Y010214D02*
X003102Y010214D01*
X003153Y010292D02*
X000742Y010292D01*
X000742Y010371D02*
X003246Y010371D01*
X003599Y010371D02*
X004022Y010371D01*
X004022Y010449D02*
X000742Y010449D01*
X000742Y010528D02*
X004022Y010528D01*
X004022Y010606D02*
X000742Y010606D01*
X000742Y010685D02*
X004022Y010685D01*
X004022Y010764D02*
X000742Y010764D01*
X000742Y010842D02*
X004022Y010842D01*
X003709Y010921D02*
X000742Y010921D01*
X000742Y010999D02*
X003630Y010999D01*
X003602Y011078D02*
X000742Y011078D01*
X000742Y011156D02*
X003602Y011156D01*
X003602Y011235D02*
X000742Y011235D01*
X000742Y011313D02*
X003602Y011313D01*
X003602Y011392D02*
X000742Y011392D01*
X000742Y011470D02*
X003602Y011470D01*
X003602Y011549D02*
X000742Y011549D01*
X000742Y011628D02*
X003602Y011628D01*
X003602Y011706D02*
X000742Y011706D01*
X000742Y011785D02*
X003602Y011785D01*
X003602Y011863D02*
X000742Y011863D01*
X000742Y011942D02*
X003602Y011942D01*
X003602Y012020D02*
X000742Y012020D01*
X000742Y012099D02*
X003602Y012099D01*
X003602Y012177D02*
X000742Y012177D01*
X000742Y012256D02*
X003602Y012256D01*
X003602Y012334D02*
X000742Y012334D01*
X000742Y012413D02*
X003602Y012413D01*
X003602Y012492D02*
X000742Y012492D01*
X000742Y012570D02*
X003680Y012570D01*
X003731Y012806D02*
X003874Y012806D01*
X003802Y012884D02*
X003802Y012884D01*
X003802Y012963D02*
X003802Y012963D01*
X003802Y013041D02*
X003802Y013041D01*
X003802Y013120D02*
X003802Y013120D01*
X003802Y013198D02*
X003802Y013198D01*
X003802Y013277D02*
X003802Y013277D01*
X003802Y013356D02*
X003802Y013356D01*
X003802Y013434D02*
X003802Y013434D01*
X003802Y013513D02*
X003802Y013513D01*
X003802Y013591D02*
X003802Y013591D01*
X003775Y013670D02*
X003829Y013670D01*
X003908Y013748D02*
X003697Y013748D01*
X003752Y013827D02*
X003853Y013827D01*
X003802Y013905D02*
X003802Y013905D01*
X003802Y013984D02*
X003802Y013984D01*
X003802Y014062D02*
X003802Y014062D01*
X003802Y014141D02*
X003802Y014141D01*
X003802Y014219D02*
X003802Y014219D01*
X003802Y014298D02*
X003802Y014298D01*
X003802Y014377D02*
X003802Y014377D01*
X003802Y014455D02*
X003802Y014455D01*
X003802Y014534D02*
X003802Y014534D01*
X003802Y014612D02*
X003802Y014612D01*
X003754Y014691D02*
X003850Y014691D01*
X004754Y014691D02*
X004850Y014691D01*
X004802Y014612D02*
X004802Y014612D01*
X004802Y014534D02*
X004802Y014534D01*
X004802Y014455D02*
X004802Y014455D01*
X004802Y014377D02*
X004802Y014377D01*
X004802Y014298D02*
X004802Y014298D01*
X004802Y014219D02*
X004802Y014219D01*
X004802Y014141D02*
X004802Y014141D01*
X004802Y014062D02*
X004802Y014062D01*
X004802Y013984D02*
X004802Y013984D01*
X004802Y013905D02*
X004802Y013905D01*
X004752Y013827D02*
X004853Y013827D01*
X004908Y013748D02*
X004697Y013748D01*
X004775Y013670D02*
X004829Y013670D01*
X004802Y013591D02*
X004802Y013591D01*
X004802Y013513D02*
X004802Y013513D01*
X004802Y013434D02*
X004802Y013434D01*
X004802Y013356D02*
X004802Y013356D01*
X004802Y013277D02*
X004802Y013277D01*
X004802Y013198D02*
X004802Y013198D01*
X004802Y013120D02*
X004802Y013120D01*
X004802Y013041D02*
X004802Y013041D01*
X004802Y012963D02*
X004802Y012963D01*
X004802Y012884D02*
X004802Y012884D01*
X004731Y012806D02*
X004874Y012806D01*
X004022Y010292D02*
X003692Y010292D01*
X003743Y010214D02*
X004022Y010214D01*
X004022Y010135D02*
X003775Y010135D01*
X003777Y010057D02*
X004021Y010057D01*
X004033Y009978D02*
X003773Y009978D01*
X003742Y009900D02*
X004067Y009900D01*
X004147Y009821D02*
X003742Y009821D01*
X003742Y009743D02*
X004303Y009743D01*
X004356Y009664D02*
X003814Y009664D01*
X003893Y009585D02*
X004454Y009585D01*
X004207Y009271D02*
X005055Y009271D01*
X004976Y009350D02*
X004128Y009350D01*
X004050Y009428D02*
X004898Y009428D01*
X004819Y009507D02*
X003971Y009507D01*
X003729Y008957D02*
X000742Y008957D01*
X000742Y008879D02*
X003808Y008879D01*
X003886Y008800D02*
X000742Y008800D01*
X000742Y008721D02*
X003965Y008721D01*
X005043Y008643D02*
X000742Y008643D01*
X000742Y008564D02*
X005122Y008564D01*
X005200Y008486D02*
X000742Y008486D01*
X000742Y006522D02*
X005262Y006522D01*
X005262Y006444D02*
X000742Y006444D01*
X000742Y006365D02*
X005262Y006365D01*
X005262Y006287D02*
X000742Y006287D01*
X000742Y006208D02*
X005262Y006208D01*
X005262Y006130D02*
X000742Y006130D01*
X000742Y006051D02*
X005262Y006051D01*
X005262Y005972D02*
X000742Y005972D01*
X000742Y005894D02*
X004230Y005894D01*
X004375Y005894D02*
X004380Y005894D01*
X004076Y005815D02*
X000742Y005815D01*
X000742Y005737D02*
X004000Y005737D01*
X003967Y005658D02*
X000742Y005658D01*
X000742Y005580D02*
X003947Y005580D01*
X003947Y005501D02*
X000742Y005501D01*
X000742Y005423D02*
X003967Y005423D01*
X003999Y005344D02*
X000742Y005344D01*
X000742Y005266D02*
X004075Y005266D01*
X004226Y005187D02*
X000742Y005187D01*
X000742Y005108D02*
X001291Y005108D01*
X001196Y005030D02*
X000742Y005030D01*
X000742Y004951D02*
X001118Y004951D01*
X001039Y004873D02*
X000742Y004873D01*
X000742Y004794D02*
X000998Y004794D01*
X000982Y004716D02*
X000742Y004716D01*
X000742Y004637D02*
X000982Y004637D01*
X000982Y004559D02*
X000742Y004559D01*
X000742Y004480D02*
X000982Y004480D01*
X000937Y004402D02*
X000742Y004402D01*
X000742Y004323D02*
X000870Y004323D01*
X000838Y004244D02*
X000742Y004244D01*
X000742Y004166D02*
X000805Y004166D01*
X000802Y004087D02*
X000742Y004087D01*
X000742Y004009D02*
X000802Y004009D01*
X000802Y003930D02*
X000742Y003930D01*
X000742Y003852D02*
X000802Y003852D01*
X000802Y003773D02*
X000742Y003773D01*
X000742Y003695D02*
X000802Y003695D01*
X000802Y003616D02*
X000742Y003616D01*
X000742Y003538D02*
X000802Y003538D01*
X000802Y003459D02*
X000742Y003459D01*
X000742Y003381D02*
X000802Y003381D01*
X000827Y003302D02*
X000742Y003302D01*
X000742Y003223D02*
X000859Y003223D01*
X000910Y003145D02*
X000742Y003145D01*
X000742Y003066D02*
X000989Y003066D01*
X001135Y002988D02*
X000742Y002988D01*
X000742Y002909D02*
X005862Y002909D01*
X005862Y002831D02*
X000742Y002831D01*
X000742Y002752D02*
X000912Y002752D01*
X000833Y002674D02*
X000742Y002674D01*
X000742Y002595D02*
X000802Y002595D01*
X000802Y002517D02*
X000742Y002517D01*
X000742Y002438D02*
X000802Y002438D01*
X000802Y002359D02*
X000742Y002359D01*
X000742Y002281D02*
X000802Y002281D01*
X000802Y002202D02*
X000742Y002202D01*
X000742Y002124D02*
X000802Y002124D01*
X000802Y002045D02*
X000742Y002045D01*
X000742Y001967D02*
X000802Y001967D01*
X000802Y001888D02*
X000742Y001888D01*
X000742Y001810D02*
X000870Y001810D01*
X000891Y001731D02*
X000742Y001731D01*
X000742Y001653D02*
X000812Y001653D01*
X000802Y001574D02*
X000742Y001574D01*
X000742Y001495D02*
X000802Y001495D01*
X000802Y001417D02*
X000742Y001417D01*
X000742Y001338D02*
X000802Y001338D01*
X000802Y001260D02*
X000742Y001260D01*
X000742Y001181D02*
X000802Y001181D01*
X000802Y001103D02*
X000742Y001103D01*
X000742Y001024D02*
X000802Y001024D01*
X001693Y002752D02*
X001912Y002752D01*
X001833Y002674D02*
X001771Y002674D01*
X001802Y002595D02*
X001802Y002595D01*
X001802Y002517D02*
X001802Y002517D01*
X001802Y002438D02*
X001802Y002438D01*
X001802Y002359D02*
X001802Y002359D01*
X001802Y002281D02*
X001802Y002281D01*
X001802Y002202D02*
X001802Y002202D01*
X001802Y002124D02*
X001802Y002124D01*
X001802Y002045D02*
X001802Y002045D01*
X001802Y001967D02*
X001802Y001967D01*
X001802Y001888D02*
X001802Y001888D01*
X001735Y001810D02*
X001870Y001810D01*
X001891Y001731D02*
X001714Y001731D01*
X001792Y001653D02*
X001812Y001653D01*
X001802Y001574D02*
X001802Y001574D01*
X001802Y001495D02*
X001802Y001495D01*
X001802Y001417D02*
X001802Y001417D01*
X001802Y001338D02*
X001802Y001338D01*
X001802Y001260D02*
X001802Y001260D01*
X001802Y001181D02*
X001802Y001181D01*
X001802Y001103D02*
X001802Y001103D01*
X001802Y001024D02*
X001802Y001024D01*
X002714Y001731D02*
X002891Y001731D01*
X002870Y001810D02*
X002735Y001810D01*
X002802Y001888D02*
X002802Y001888D01*
X002802Y001967D02*
X002802Y001967D01*
X002802Y002045D02*
X002802Y002045D01*
X002802Y002124D02*
X002802Y002124D01*
X002802Y002202D02*
X002802Y002202D01*
X002802Y002281D02*
X002802Y002281D01*
X002802Y002359D02*
X002802Y002359D01*
X002802Y002438D02*
X002802Y002438D01*
X002802Y002517D02*
X002802Y002517D01*
X002802Y002595D02*
X002802Y002595D01*
X002771Y002674D02*
X002833Y002674D01*
X002912Y002752D02*
X002693Y002752D01*
X002792Y001653D02*
X002812Y001653D01*
X002802Y001574D02*
X002802Y001574D01*
X002802Y001495D02*
X002802Y001495D01*
X002802Y001417D02*
X002802Y001417D01*
X002802Y001338D02*
X002802Y001338D01*
X002802Y001260D02*
X002802Y001260D01*
X002802Y001181D02*
X002802Y001181D01*
X002802Y001103D02*
X002802Y001103D01*
X002802Y001024D02*
X002802Y001024D01*
X003693Y002752D02*
X003912Y002752D01*
X003833Y002674D02*
X003771Y002674D01*
X003802Y002595D02*
X003802Y002595D01*
X003802Y002517D02*
X003802Y002517D01*
X003802Y002438D02*
X003802Y002438D01*
X003802Y002359D02*
X003802Y002359D01*
X003802Y002281D02*
X003802Y002281D01*
X003802Y002202D02*
X003802Y002202D01*
X003802Y002124D02*
X003802Y002124D01*
X003802Y002045D02*
X003802Y002045D01*
X003802Y001967D02*
X003802Y001967D01*
X003802Y001888D02*
X003802Y001888D01*
X003735Y001810D02*
X003870Y001810D01*
X003891Y001731D02*
X003714Y001731D01*
X003792Y001653D02*
X003812Y001653D01*
X003802Y001574D02*
X003802Y001574D01*
X003802Y001495D02*
X003802Y001495D01*
X003802Y001417D02*
X003802Y001417D01*
X003802Y001338D02*
X003802Y001338D01*
X003802Y001260D02*
X003802Y001260D01*
X003802Y001181D02*
X003802Y001181D01*
X003802Y001103D02*
X003802Y001103D01*
X003802Y001024D02*
X003802Y001024D01*
X004714Y001731D02*
X004891Y001731D01*
X004870Y001810D02*
X004735Y001810D01*
X004802Y001888D02*
X004802Y001888D01*
X004802Y001967D02*
X004802Y001967D01*
X004802Y002045D02*
X004802Y002045D01*
X004802Y002124D02*
X004802Y002124D01*
X004802Y002202D02*
X004802Y002202D01*
X004802Y002281D02*
X004802Y002281D01*
X004802Y002359D02*
X004802Y002359D01*
X004802Y002438D02*
X004802Y002438D01*
X004802Y002517D02*
X004802Y002517D01*
X004802Y002595D02*
X004802Y002595D01*
X004771Y002674D02*
X004833Y002674D01*
X004912Y002752D02*
X004693Y002752D01*
X004792Y001653D02*
X004812Y001653D01*
X004802Y001574D02*
X004802Y001574D01*
X004802Y001495D02*
X004802Y001495D01*
X004802Y001417D02*
X004802Y001417D01*
X004802Y001338D02*
X004802Y001338D01*
X004802Y001260D02*
X004802Y001260D01*
X004802Y001181D02*
X004802Y001181D01*
X004802Y001103D02*
X004802Y001103D01*
X004802Y001024D02*
X004802Y001024D01*
X005714Y001731D02*
X005862Y001731D01*
X005862Y001653D02*
X005792Y001653D01*
X005802Y001574D02*
X005862Y001574D01*
X005862Y001495D02*
X005802Y001495D01*
X005802Y001417D02*
X005862Y001417D01*
X005862Y001338D02*
X005802Y001338D01*
X005802Y001260D02*
X005862Y001260D01*
X005862Y001181D02*
X005802Y001181D01*
X005802Y001103D02*
X005862Y001103D01*
X005862Y001024D02*
X005802Y001024D01*
X005735Y001810D02*
X005862Y001810D01*
X005862Y001888D02*
X005802Y001888D01*
X005802Y001967D02*
X005862Y001967D01*
X005862Y002045D02*
X005802Y002045D01*
X005802Y002124D02*
X005862Y002124D01*
X005862Y002202D02*
X005802Y002202D01*
X005802Y002281D02*
X005862Y002281D01*
X005862Y002359D02*
X005802Y002359D01*
X005802Y002438D02*
X005862Y002438D01*
X005862Y002517D02*
X005802Y002517D01*
X005802Y002595D02*
X005862Y002595D01*
X005862Y002674D02*
X005771Y002674D01*
X005693Y002752D02*
X005862Y002752D01*
X005862Y002988D02*
X001469Y002988D01*
X001616Y003066D02*
X005862Y003066D01*
X005862Y003145D02*
X001694Y003145D01*
X001746Y003223D02*
X005862Y003223D01*
X005862Y003302D02*
X001778Y003302D01*
X001802Y003381D02*
X005862Y003381D01*
X005862Y003459D02*
X001802Y003459D01*
X001802Y003538D02*
X005862Y003538D01*
X005862Y003616D02*
X005575Y003616D01*
X005653Y003695D02*
X005862Y003695D01*
X005862Y003773D02*
X005732Y003773D01*
X005810Y003852D02*
X005862Y003852D01*
X005490Y004323D02*
X003755Y004323D01*
X003677Y004402D02*
X005568Y004402D01*
X005582Y004480D02*
X003598Y004480D01*
X003519Y004559D02*
X005582Y004559D01*
X005582Y004637D02*
X003441Y004637D01*
X003362Y004716D02*
X005582Y004716D01*
X005582Y004794D02*
X003284Y004794D01*
X003205Y004873D02*
X005582Y004873D01*
X005582Y004951D02*
X003127Y004951D01*
X003048Y005030D02*
X005582Y005030D01*
X005582Y005108D02*
X002954Y005108D01*
X002728Y004559D02*
X001542Y004559D01*
X001589Y004480D02*
X002806Y004480D01*
X002885Y004402D02*
X001668Y004402D01*
X001735Y004323D02*
X002963Y004323D01*
X003042Y004244D02*
X001767Y004244D01*
X001800Y004166D02*
X003120Y004166D01*
X003199Y004087D02*
X001802Y004087D01*
X001802Y004009D02*
X003277Y004009D01*
X003356Y003930D02*
X001802Y003930D01*
X001802Y003852D02*
X003434Y003852D01*
X003513Y003773D02*
X001802Y003773D01*
X001802Y003695D02*
X003592Y003695D01*
X003670Y003616D02*
X001802Y003616D01*
X003834Y004244D02*
X005411Y004244D01*
X005333Y004166D02*
X003912Y004166D01*
X004378Y005187D02*
X005582Y005187D01*
X005582Y005266D02*
X004530Y005266D01*
X004605Y005344D02*
X005582Y005344D01*
X002874Y012806D02*
X002731Y012806D01*
X002802Y012884D02*
X002802Y012884D01*
X002802Y012963D02*
X002802Y012963D01*
X002802Y013041D02*
X002802Y013041D01*
X002802Y013120D02*
X002802Y013120D01*
X002802Y013198D02*
X002802Y013198D01*
X002802Y013277D02*
X002802Y013277D01*
X002802Y013356D02*
X002802Y013356D01*
X002802Y013434D02*
X002802Y013434D01*
X002802Y013513D02*
X002802Y013513D01*
X002802Y013591D02*
X002802Y013591D01*
X002775Y013670D02*
X002829Y013670D01*
X002908Y013748D02*
X002697Y013748D01*
X002752Y013827D02*
X002853Y013827D01*
X002802Y013905D02*
X002802Y013905D01*
X002802Y013984D02*
X002802Y013984D01*
X002802Y014062D02*
X002802Y014062D01*
X002802Y014141D02*
X002802Y014141D01*
X002802Y014219D02*
X002802Y014219D01*
X002802Y014298D02*
X002802Y014298D01*
X002802Y014377D02*
X002802Y014377D01*
X002802Y014455D02*
X002802Y014455D01*
X002802Y014534D02*
X002802Y014534D01*
X002802Y014612D02*
X002802Y014612D01*
X002754Y014691D02*
X002850Y014691D01*
X001908Y013748D02*
X000742Y013748D01*
X000742Y013670D02*
X001829Y013670D01*
X001802Y013591D02*
X000742Y013591D01*
X000742Y013513D02*
X001802Y013513D01*
X001802Y013434D02*
X000742Y013434D01*
X000742Y013356D02*
X001802Y013356D01*
X001802Y013277D02*
X000742Y013277D01*
X000742Y013198D02*
X001802Y013198D01*
X001802Y013120D02*
X000742Y013120D01*
X000742Y013041D02*
X001802Y013041D01*
X001802Y012963D02*
X000742Y012963D01*
X000742Y012884D02*
X001802Y012884D01*
X001874Y012806D02*
X000742Y012806D01*
X000742Y013827D02*
X001853Y013827D01*
X001802Y013905D02*
X000742Y013905D01*
X000742Y013984D02*
X001802Y013984D01*
X001802Y014062D02*
X000742Y014062D01*
X000742Y014141D02*
X001802Y014141D01*
X001802Y014219D02*
X000742Y014219D01*
X000742Y014298D02*
X001802Y014298D01*
X001802Y014377D02*
X000742Y014377D01*
X000742Y014455D02*
X001802Y014455D01*
X001802Y014534D02*
X000742Y014534D01*
X000742Y014612D02*
X001802Y014612D01*
X001850Y014691D02*
X000742Y014691D01*
D14*
X003422Y010060D03*
X003902Y008060D03*
X004582Y008300D03*
X004742Y008580D03*
X004942Y008300D03*
X005182Y006900D03*
X004302Y005540D03*
X002462Y006940D03*
X001742Y009060D03*
X004622Y009900D03*
D15*
X004822Y009900D01*
X005862Y008860D01*
X005862Y004300D01*
X005382Y003820D01*
X003862Y003820D01*
X002822Y004860D01*
X001422Y004860D01*
X001262Y004700D01*
X001262Y003800D01*
X001302Y003760D01*
X004142Y008940D02*
X003462Y009620D01*
X003462Y010020D01*
X003422Y010060D01*
X004142Y008940D02*
X005142Y008940D01*
X005542Y008540D01*
X005542Y005660D01*
X004542Y005660D01*
X004302Y005540D01*
X004622Y009900D02*
X004302Y010060D01*
X004302Y011760D01*
M02*
