%
M48
M72
T01C0.0150
T02C0.0400
%
T01
X2462Y6940
X1742Y9060
X3422Y10060
X3902Y8060
X4582Y8300
X4742Y8580
X4942Y8300
X5182Y6900
X4302Y5540
X4622Y9900
T02
X1302Y1260
X1302Y2260
X1302Y3760
X2302Y3760
X2302Y2260
X2302Y1260
X3302Y1260
X3302Y2260
X4302Y2260
X4302Y1260
X5302Y1260
X5302Y2260
X5302Y13260
X5302Y14260
X4302Y14260
X4302Y13260
X3302Y13260
X3302Y14260
X2302Y14260
X2302Y13260
X1302Y13260
X1302Y14260
M30
