G75*
G70*
%OFA0B0*%
%FSLAX24Y24*%
%IPPOS*%
%LPD*%
%AMOC8*
5,1,8,0,0,1.08239X$1,22.5*
%
%ADD10R,0.0671X0.0592*%
%ADD11R,0.0237X0.0680*%
%ADD12R,0.0780X0.0700*%
%ADD13R,0.0680X0.0680*%
%ADD14R,0.0907X0.0671*%
%ADD15R,0.0434X0.0356*%
%ADD16R,0.0390X0.0430*%
%ADD17C,0.0680*%
%ADD18C,0.0390*%
D10*
X003302Y008136D03*
X003302Y008884D03*
X002302Y010886D03*
X002302Y011634D03*
D11*
X004359Y009307D03*
X004614Y009307D03*
X004870Y009307D03*
X005126Y009307D03*
X005126Y007573D03*
X004870Y007573D03*
X004614Y007573D03*
X004359Y007573D03*
D12*
X004742Y008440D03*
D13*
X001302Y001260D03*
X001302Y002260D03*
X002302Y002260D03*
X002302Y001260D03*
X003302Y001260D03*
X003302Y002260D03*
X004302Y002260D03*
X004302Y001260D03*
X005302Y001260D03*
X005302Y002260D03*
X005302Y013260D03*
X005302Y014260D03*
X004302Y014260D03*
X004302Y013260D03*
X003302Y013260D03*
X003302Y014260D03*
X002302Y014260D03*
X002302Y013260D03*
X001302Y013260D03*
X001302Y014260D03*
D14*
X003552Y011969D03*
X003552Y010551D03*
X004302Y004969D03*
X004302Y003551D03*
D15*
X005552Y005366D03*
X005552Y005766D03*
X005552Y006166D03*
X005552Y010616D03*
X005552Y011016D03*
X005552Y011416D03*
X004552Y011316D03*
X004552Y011716D03*
D16*
X002442Y006410D03*
X002062Y005610D03*
X001682Y006410D03*
D17*
X001302Y004060D02*
X001302Y003460D01*
X002302Y003460D02*
X002302Y004060D01*
D18*
X002462Y006940D03*
X001742Y009060D03*
X003422Y010060D03*
X003902Y008060D03*
X004582Y008300D03*
X004742Y008580D03*
X004942Y008300D03*
X005182Y006900D03*
X004302Y005540D03*
X004622Y009900D03*
M02*
