G75*
G70*
%OFA0B0*%
%FSLAX24Y24*%
%IPPOS*%
%LPD*%
%AMOC8*
5,1,8,0,0,1.08239X$1,22.5*
%
%ADD10R,0.0591X0.0512*%
%ADD11R,0.0157X0.0600*%
%ADD12R,0.0700X0.0620*%
%ADD13R,0.0600X0.0600*%
%ADD14R,0.0827X0.0591*%
%ADD15R,0.0354X0.0276*%
%ADD16R,0.0310X0.0350*%
%ADD17C,0.0600*%
%ADD18C,0.0080*%
%ADD19C,0.0160*%
%ADD20C,0.0120*%
%ADD21C,0.0310*%
D10*
X003302Y008136D03*
X003302Y008884D03*
X002302Y010886D03*
X002302Y011634D03*
D11*
X004359Y009307D03*
X004614Y009307D03*
X004870Y009307D03*
X005126Y009307D03*
X005126Y007573D03*
X004870Y007573D03*
X004614Y007573D03*
X004359Y007573D03*
D12*
X004742Y008440D03*
D13*
X004302Y013260D03*
X004302Y014260D03*
X003302Y014260D03*
X003302Y013260D03*
X002302Y013260D03*
X002302Y014260D03*
X001302Y014260D03*
X001302Y013260D03*
X005302Y013260D03*
X005302Y014260D03*
X005302Y002260D03*
X005302Y001260D03*
X004302Y001260D03*
X004302Y002260D03*
X003302Y002260D03*
X003302Y001260D03*
X002302Y001260D03*
X002302Y002260D03*
X001302Y002260D03*
X001302Y001260D03*
D14*
X004302Y003551D03*
X004302Y004969D03*
X003552Y010551D03*
X003552Y011969D03*
D15*
X004552Y011716D03*
X004552Y011316D03*
X005552Y011416D03*
X005552Y011016D03*
X005552Y010616D03*
X005552Y006166D03*
X005552Y005766D03*
X005552Y005366D03*
D16*
X002442Y006410D03*
X002062Y005610D03*
X001682Y006410D03*
D17*
X001302Y004060D02*
X001302Y003460D01*
X002302Y003460D02*
X002302Y004060D01*
D18*
X000742Y000950D02*
X000742Y014820D01*
X005862Y014820D01*
X005862Y011703D01*
X005812Y011754D01*
X005780Y011754D01*
X005746Y011836D01*
X005666Y011916D01*
X005598Y011983D01*
X005510Y012020D01*
X005230Y012020D01*
X005135Y012020D01*
X005046Y011983D01*
X004929Y011866D01*
X004929Y011936D01*
X004822Y012044D01*
X004822Y012164D01*
X004822Y012276D01*
X004780Y012378D01*
X004500Y012658D01*
X004421Y012737D01*
X004366Y012760D01*
X004685Y012760D01*
X004802Y012877D01*
X004802Y013643D01*
X004685Y013760D01*
X004802Y013877D01*
X004802Y014643D01*
X004685Y014760D01*
X003919Y014760D01*
X003802Y014643D01*
X003685Y014760D01*
X002919Y014760D01*
X002802Y014643D01*
X002685Y014760D01*
X001919Y014760D01*
X001802Y014643D01*
X001802Y013877D01*
X001919Y013760D01*
X002022Y013760D01*
X002022Y013760D01*
X001919Y013760D01*
X001802Y013643D01*
X001802Y012877D01*
X001919Y012760D01*
X002685Y012760D01*
X002702Y012777D01*
X002702Y012776D01*
X002626Y012700D01*
X002007Y012700D01*
X001904Y012657D01*
X001825Y012578D01*
X001505Y012258D01*
X001462Y012156D01*
X001462Y012044D01*
X001462Y010364D01*
X001505Y010261D01*
X001584Y010182D01*
X001704Y010062D01*
X001807Y010020D01*
X001902Y010020D01*
X001902Y010004D01*
X001945Y009901D01*
X002024Y009822D01*
X002384Y009462D01*
X002422Y009446D01*
X002422Y007836D01*
X002422Y007724D01*
X002465Y007621D01*
X003225Y006861D01*
X003304Y006782D01*
X003407Y006740D01*
X004222Y006740D01*
X004222Y006092D01*
X004259Y006004D01*
X004326Y005936D01*
X004368Y005895D01*
X004232Y005895D01*
X004101Y005841D01*
X004001Y005741D01*
X003947Y005610D01*
X003947Y005469D01*
X003950Y005464D01*
X003806Y005464D01*
X003689Y005347D01*
X003689Y004590D01*
X003806Y004473D01*
X004799Y004473D01*
X004916Y004590D01*
X004916Y005347D01*
X004799Y005464D01*
X004655Y005464D01*
X004657Y005469D01*
X004657Y005605D01*
X005086Y005176D01*
X005175Y005140D01*
X005180Y005140D01*
X005292Y005028D01*
X005812Y005028D01*
X005862Y005078D01*
X005862Y000950D01*
X005802Y000950D01*
X005802Y001643D01*
X005685Y001760D01*
X005802Y001877D01*
X005802Y002643D01*
X005685Y002760D01*
X004919Y002760D01*
X004802Y002643D01*
X004685Y002760D01*
X004582Y002760D01*
X004582Y003056D01*
X004799Y003056D01*
X004916Y003173D01*
X004916Y003929D01*
X004799Y004046D01*
X003806Y004046D01*
X003689Y003929D01*
X003689Y003173D01*
X003806Y003056D01*
X004022Y003056D01*
X004022Y002760D01*
X003919Y002760D01*
X003802Y002643D01*
X003685Y002760D01*
X002942Y002760D01*
X003118Y002936D01*
X003186Y003004D01*
X003222Y003092D01*
X003222Y004452D01*
X003222Y004548D01*
X003186Y004636D01*
X002417Y005404D01*
X002417Y005868D01*
X002300Y005985D01*
X001824Y005985D01*
X001707Y005868D01*
X001707Y005352D01*
X001824Y005235D01*
X001908Y005235D01*
X001926Y005216D01*
X002742Y004400D01*
X002742Y003239D01*
X002683Y003180D01*
X002645Y003180D01*
X002675Y003211D01*
X002742Y003372D01*
X002742Y003720D01*
X002343Y003720D01*
X002343Y003800D01*
X002742Y003800D01*
X002742Y004147D01*
X002675Y004309D01*
X002552Y004433D01*
X002390Y004500D01*
X002342Y004500D01*
X002342Y003800D01*
X002262Y003800D01*
X002262Y003720D01*
X001862Y003720D01*
X001862Y003372D01*
X001929Y003211D01*
X001960Y003180D01*
X001895Y003180D01*
X001806Y003143D01*
X001739Y003076D01*
X001619Y002956D01*
X001582Y002868D01*
X001582Y002772D01*
X001582Y002760D01*
X000919Y002760D01*
X000802Y002643D01*
X000802Y001877D01*
X000919Y001760D01*
X001463Y001760D01*
X001463Y001760D01*
X000919Y001760D01*
X000802Y001643D01*
X000802Y000950D01*
X000742Y000950D01*
X000742Y001024D02*
X000802Y001024D01*
X000802Y001103D02*
X000742Y001103D01*
X000742Y001181D02*
X000802Y001181D01*
X000802Y001260D02*
X000742Y001260D01*
X000742Y001338D02*
X000802Y001338D01*
X000802Y001417D02*
X000742Y001417D01*
X000742Y001495D02*
X000802Y001495D01*
X000802Y001574D02*
X000742Y001574D01*
X000742Y001653D02*
X000812Y001653D01*
X000742Y001731D02*
X000891Y001731D01*
X000870Y001810D02*
X000742Y001810D01*
X000742Y001888D02*
X000802Y001888D01*
X000802Y001967D02*
X000742Y001967D01*
X000742Y002045D02*
X000802Y002045D01*
X000802Y002124D02*
X000742Y002124D01*
X000742Y002202D02*
X000802Y002202D01*
X000802Y002281D02*
X000742Y002281D01*
X000742Y002359D02*
X000802Y002359D01*
X000802Y002438D02*
X000742Y002438D01*
X000742Y002517D02*
X000802Y002517D01*
X000802Y002595D02*
X000742Y002595D01*
X000742Y002674D02*
X000833Y002674D01*
X000912Y002752D02*
X000742Y002752D01*
X000742Y002831D02*
X001582Y002831D01*
X001600Y002909D02*
X000742Y002909D01*
X000742Y002988D02*
X001135Y002988D01*
X001203Y002960D02*
X001402Y002960D01*
X001586Y003036D01*
X001726Y003177D01*
X001802Y003360D01*
X001802Y004159D01*
X001726Y004343D01*
X001586Y004484D01*
X001402Y004560D01*
X001203Y004560D01*
X001019Y004484D01*
X000878Y004343D01*
X000802Y004159D01*
X000802Y003360D01*
X000878Y003177D01*
X001019Y003036D01*
X001203Y002960D01*
X000989Y003066D02*
X000742Y003066D01*
X000742Y003145D02*
X000910Y003145D01*
X000859Y003223D02*
X000742Y003223D01*
X000742Y003302D02*
X000827Y003302D01*
X000802Y003381D02*
X000742Y003381D01*
X000742Y003459D02*
X000802Y003459D01*
X000802Y003538D02*
X000742Y003538D01*
X000742Y003616D02*
X000802Y003616D01*
X000802Y003695D02*
X000742Y003695D01*
X000742Y003773D02*
X000802Y003773D01*
X000802Y003852D02*
X000742Y003852D01*
X000742Y003930D02*
X000802Y003930D01*
X000802Y004009D02*
X000742Y004009D01*
X000742Y004087D02*
X000802Y004087D01*
X000805Y004166D02*
X000742Y004166D01*
X000742Y004244D02*
X000838Y004244D01*
X000870Y004323D02*
X000742Y004323D01*
X000742Y004402D02*
X000937Y004402D01*
X001016Y004480D02*
X000742Y004480D01*
X000742Y004559D02*
X001200Y004559D01*
X001405Y004559D02*
X002584Y004559D01*
X002663Y004480D02*
X002437Y004480D01*
X002342Y004480D02*
X002262Y004480D01*
X002262Y004500D02*
X002215Y004500D01*
X002053Y004433D01*
X001929Y004309D01*
X001862Y004147D01*
X001862Y003800D01*
X002262Y003800D01*
X002262Y004500D01*
X002262Y004402D02*
X002342Y004402D01*
X002342Y004323D02*
X002262Y004323D01*
X002262Y004244D02*
X002342Y004244D01*
X002342Y004166D02*
X002262Y004166D01*
X002262Y004087D02*
X002342Y004087D01*
X002342Y004009D02*
X002262Y004009D01*
X002262Y003930D02*
X002342Y003930D01*
X002342Y003852D02*
X002262Y003852D01*
X002262Y003773D02*
X001802Y003773D01*
X001802Y003695D02*
X001862Y003695D01*
X001862Y003616D02*
X001802Y003616D01*
X001802Y003538D02*
X001862Y003538D01*
X001862Y003459D02*
X001802Y003459D01*
X001802Y003381D02*
X001862Y003381D01*
X001891Y003302D02*
X001778Y003302D01*
X001746Y003223D02*
X001924Y003223D01*
X001810Y003145D02*
X001694Y003145D01*
X001729Y003066D02*
X001616Y003066D01*
X001651Y002988D02*
X001469Y002988D01*
X001802Y003852D02*
X001862Y003852D01*
X001862Y003930D02*
X001802Y003930D01*
X001802Y004009D02*
X001862Y004009D01*
X001862Y004087D02*
X001802Y004087D01*
X001800Y004166D02*
X001870Y004166D01*
X001903Y004244D02*
X001767Y004244D01*
X001735Y004323D02*
X001943Y004323D01*
X002022Y004402D02*
X001668Y004402D01*
X001589Y004480D02*
X002167Y004480D01*
X002270Y004873D02*
X000742Y004873D01*
X000742Y004951D02*
X002191Y004951D01*
X002113Y005030D02*
X000742Y005030D01*
X000742Y005108D02*
X002034Y005108D01*
X001956Y005187D02*
X000742Y005187D01*
X000742Y005266D02*
X001794Y005266D01*
X001715Y005344D02*
X000742Y005344D01*
X000742Y005423D02*
X001707Y005423D01*
X001707Y005501D02*
X000742Y005501D01*
X000742Y005580D02*
X001707Y005580D01*
X001707Y005658D02*
X000742Y005658D01*
X000742Y005737D02*
X001707Y005737D01*
X001707Y005815D02*
X000742Y005815D01*
X000742Y005894D02*
X001734Y005894D01*
X001720Y006095D02*
X001895Y006095D01*
X001977Y006177D01*
X001977Y006372D01*
X001720Y006372D01*
X001720Y006095D01*
X001720Y006130D02*
X001645Y006130D01*
X001645Y006095D02*
X001645Y006372D01*
X001720Y006372D01*
X001720Y006447D01*
X001977Y006447D01*
X001977Y006643D01*
X001895Y006725D01*
X001720Y006725D01*
X001720Y006448D01*
X001645Y006448D01*
X001645Y006725D01*
X001469Y006725D01*
X001387Y006643D01*
X001387Y006447D01*
X001645Y006447D01*
X001645Y006372D01*
X001387Y006372D01*
X001387Y006177D01*
X001469Y006095D01*
X001645Y006095D01*
X001645Y006208D02*
X001720Y006208D01*
X001720Y006287D02*
X001645Y006287D01*
X001645Y006365D02*
X001720Y006365D01*
X001720Y006444D02*
X002087Y006444D01*
X002087Y006522D02*
X001977Y006522D01*
X001977Y006601D02*
X002087Y006601D01*
X002087Y006668D02*
X002087Y006152D01*
X002204Y006035D01*
X002680Y006035D01*
X002797Y006152D01*
X002797Y006668D01*
X002745Y006720D01*
X002763Y006739D01*
X002817Y006869D01*
X002817Y007010D01*
X002763Y007141D01*
X002663Y007241D01*
X002533Y007295D01*
X002392Y007295D01*
X002261Y007241D01*
X002161Y007141D01*
X002107Y007010D01*
X002107Y006869D01*
X002161Y006741D01*
X002087Y006668D01*
X002099Y006679D02*
X001941Y006679D01*
X002121Y006836D02*
X000742Y006836D01*
X000742Y006758D02*
X002153Y006758D01*
X002107Y006915D02*
X000742Y006915D01*
X000742Y006994D02*
X002107Y006994D01*
X002133Y007072D02*
X000742Y007072D01*
X000742Y007151D02*
X002171Y007151D01*
X002250Y007229D02*
X000742Y007229D01*
X000742Y007308D02*
X002779Y007308D01*
X002857Y007229D02*
X002675Y007229D01*
X002754Y007151D02*
X002936Y007151D01*
X003014Y007072D02*
X002792Y007072D01*
X002817Y006994D02*
X003093Y006994D01*
X003171Y006915D02*
X002817Y006915D01*
X002804Y006836D02*
X003250Y006836D01*
X003363Y006758D02*
X002771Y006758D01*
X002786Y006679D02*
X004222Y006679D01*
X004222Y006601D02*
X002797Y006601D01*
X002797Y006522D02*
X004222Y006522D01*
X004222Y006444D02*
X002797Y006444D01*
X002797Y006365D02*
X004222Y006365D01*
X004222Y006287D02*
X002797Y006287D01*
X002797Y006208D02*
X004222Y006208D01*
X004222Y006130D02*
X002775Y006130D01*
X002696Y006051D02*
X004239Y006051D01*
X004290Y005972D02*
X002313Y005972D01*
X002391Y005894D02*
X004230Y005894D01*
X004076Y005815D02*
X002417Y005815D01*
X002417Y005737D02*
X004000Y005737D01*
X003967Y005658D02*
X002417Y005658D01*
X002417Y005580D02*
X003947Y005580D01*
X003947Y005501D02*
X002417Y005501D01*
X002417Y005423D02*
X003765Y005423D01*
X003689Y005344D02*
X002477Y005344D01*
X002556Y005266D02*
X003689Y005266D01*
X003689Y005187D02*
X002635Y005187D01*
X002713Y005108D02*
X003689Y005108D01*
X003689Y005030D02*
X002792Y005030D01*
X002870Y004951D02*
X003689Y004951D01*
X003689Y004873D02*
X002949Y004873D01*
X003027Y004794D02*
X003689Y004794D01*
X003689Y004716D02*
X003106Y004716D01*
X003184Y004637D02*
X003689Y004637D01*
X003721Y004559D02*
X003218Y004559D01*
X003222Y004480D02*
X003799Y004480D01*
X003769Y004009D02*
X003222Y004009D01*
X003222Y004087D02*
X005862Y004087D01*
X005862Y004009D02*
X004836Y004009D01*
X004915Y003930D02*
X005862Y003930D01*
X005862Y003852D02*
X004916Y003852D01*
X004916Y003773D02*
X005862Y003773D01*
X005862Y003695D02*
X004916Y003695D01*
X004916Y003616D02*
X005862Y003616D01*
X005862Y003538D02*
X004916Y003538D01*
X004916Y003459D02*
X005862Y003459D01*
X005862Y003381D02*
X004916Y003381D01*
X004916Y003302D02*
X005862Y003302D01*
X005862Y003223D02*
X004916Y003223D01*
X004888Y003145D02*
X005862Y003145D01*
X005862Y003066D02*
X004809Y003066D01*
X004912Y002752D02*
X004693Y002752D01*
X004771Y002674D02*
X004833Y002674D01*
X004802Y002643D02*
X004802Y001877D01*
X004802Y002643D01*
X004802Y002595D02*
X004802Y002595D01*
X004802Y002517D02*
X004802Y002517D01*
X004802Y002438D02*
X004802Y002438D01*
X004802Y002359D02*
X004802Y002359D01*
X004802Y002281D02*
X004802Y002281D01*
X004802Y002202D02*
X004802Y002202D01*
X004802Y002124D02*
X004802Y002124D01*
X004802Y002045D02*
X004802Y002045D01*
X004802Y001967D02*
X004802Y001967D01*
X004802Y001888D02*
X004802Y001888D01*
X004802Y001877D02*
X004919Y001760D01*
X005685Y001760D01*
X004919Y001760D01*
X004802Y001643D01*
X004685Y001760D01*
X004802Y001877D01*
X004735Y001810D02*
X004870Y001810D01*
X004891Y001731D02*
X004714Y001731D01*
X004685Y001760D02*
X004582Y001760D01*
X004582Y001760D01*
X004685Y001760D01*
X004792Y001653D02*
X004812Y001653D01*
X004802Y001643D02*
X004802Y000950D01*
X004802Y001643D01*
X004802Y001574D02*
X004802Y001574D01*
X004802Y001495D02*
X004802Y001495D01*
X004802Y001417D02*
X004802Y001417D01*
X004802Y001338D02*
X004802Y001338D01*
X004802Y001260D02*
X004802Y001260D01*
X004802Y001181D02*
X004802Y001181D01*
X004802Y001103D02*
X004802Y001103D01*
X004802Y001024D02*
X004802Y001024D01*
X004802Y000950D02*
X004802Y000950D01*
X004022Y001760D02*
X003919Y001760D01*
X004022Y001760D01*
X004022Y001760D01*
X003919Y001760D02*
X003802Y001643D01*
X003685Y001760D01*
X003802Y001877D01*
X003802Y002643D01*
X003802Y001877D01*
X003919Y001760D01*
X003891Y001731D02*
X003714Y001731D01*
X003685Y001760D02*
X003582Y001760D01*
X003582Y001760D01*
X003685Y001760D01*
X003735Y001810D02*
X003870Y001810D01*
X003812Y001653D02*
X003792Y001653D01*
X003802Y001643D02*
X003802Y000950D01*
X003802Y000950D01*
X003802Y001643D01*
X003802Y001574D02*
X003802Y001574D01*
X003802Y001495D02*
X003802Y001495D01*
X003802Y001417D02*
X003802Y001417D01*
X003802Y001338D02*
X003802Y001338D01*
X003802Y001260D02*
X003802Y001260D01*
X003802Y001181D02*
X003802Y001181D01*
X003802Y001103D02*
X003802Y001103D01*
X003802Y001024D02*
X003802Y001024D01*
X003802Y001888D02*
X003802Y001888D01*
X003802Y001967D02*
X003802Y001967D01*
X003802Y002045D02*
X003802Y002045D01*
X003802Y002124D02*
X003802Y002124D01*
X003802Y002202D02*
X003802Y002202D01*
X003802Y002281D02*
X003802Y002281D01*
X003802Y002359D02*
X003802Y002359D01*
X003802Y002438D02*
X003802Y002438D01*
X003802Y002517D02*
X003802Y002517D01*
X003802Y002595D02*
X003802Y002595D01*
X003771Y002674D02*
X003833Y002674D01*
X003912Y002752D02*
X003693Y002752D01*
X003796Y003066D02*
X003212Y003066D01*
X003222Y003145D02*
X003717Y003145D01*
X003689Y003223D02*
X003222Y003223D01*
X003222Y003302D02*
X003689Y003302D01*
X003689Y003381D02*
X003222Y003381D01*
X003222Y003459D02*
X003689Y003459D01*
X003689Y003538D02*
X003222Y003538D01*
X003222Y003616D02*
X003689Y003616D01*
X003689Y003695D02*
X003222Y003695D01*
X003222Y003773D02*
X003689Y003773D01*
X003689Y003852D02*
X003222Y003852D01*
X003222Y003930D02*
X003690Y003930D01*
X004022Y002988D02*
X003170Y002988D01*
X003091Y002909D02*
X004022Y002909D01*
X004022Y002831D02*
X003013Y002831D01*
X002782Y002940D02*
X002982Y003140D01*
X002982Y004500D01*
X002062Y005420D01*
X002062Y005610D01*
X001812Y005972D02*
X000742Y005972D01*
X000742Y006051D02*
X002188Y006051D01*
X002110Y006130D02*
X001930Y006130D01*
X001977Y006208D02*
X002087Y006208D01*
X002087Y006287D02*
X001977Y006287D01*
X001977Y006365D02*
X002087Y006365D01*
X002442Y006410D02*
X002442Y006920D01*
X002462Y006940D01*
X002700Y007386D02*
X000742Y007386D01*
X000742Y007465D02*
X002621Y007465D01*
X002543Y007543D02*
X000742Y007543D01*
X000742Y007622D02*
X002465Y007622D01*
X002432Y007700D02*
X000742Y007700D01*
X000742Y007779D02*
X002422Y007779D01*
X002422Y007857D02*
X000742Y007857D01*
X000742Y007936D02*
X002422Y007936D01*
X002422Y008015D02*
X000742Y008015D01*
X000742Y008093D02*
X002422Y008093D01*
X002422Y008172D02*
X000742Y008172D01*
X000742Y008250D02*
X002422Y008250D01*
X002422Y008329D02*
X000742Y008329D01*
X000742Y008407D02*
X002422Y008407D01*
X002422Y008486D02*
X000742Y008486D01*
X000742Y008564D02*
X002422Y008564D01*
X002422Y008643D02*
X000742Y008643D01*
X000742Y008721D02*
X002422Y008721D01*
X002422Y008800D02*
X000742Y008800D01*
X000742Y008879D02*
X002422Y008879D01*
X002422Y008957D02*
X000742Y008957D01*
X000742Y009036D02*
X002422Y009036D01*
X002422Y009114D02*
X000742Y009114D01*
X000742Y009193D02*
X002422Y009193D01*
X002422Y009271D02*
X000742Y009271D01*
X000742Y009350D02*
X002422Y009350D01*
X002422Y009428D02*
X000742Y009428D01*
X000742Y009507D02*
X002339Y009507D01*
X002261Y009585D02*
X000742Y009585D01*
X000742Y009664D02*
X002182Y009664D01*
X002104Y009743D02*
X000742Y009743D01*
X000742Y009821D02*
X002025Y009821D01*
X001947Y009900D02*
X000742Y009900D01*
X000742Y009978D02*
X001913Y009978D01*
X001718Y010057D02*
X000742Y010057D01*
X000742Y010135D02*
X001631Y010135D01*
X001552Y010214D02*
X000742Y010214D01*
X000742Y010292D02*
X001492Y010292D01*
X001462Y010371D02*
X000742Y010371D01*
X000742Y010449D02*
X001462Y010449D01*
X001462Y010528D02*
X000742Y010528D01*
X000742Y010606D02*
X001462Y010606D01*
X001462Y010685D02*
X000742Y010685D01*
X000742Y010764D02*
X001462Y010764D01*
X001462Y010842D02*
X000742Y010842D01*
X000742Y010921D02*
X001462Y010921D01*
X001462Y010999D02*
X000742Y010999D01*
X000742Y011078D02*
X001462Y011078D01*
X001462Y011156D02*
X000742Y011156D01*
X000742Y011235D02*
X001462Y011235D01*
X001462Y011313D02*
X000742Y011313D01*
X000742Y011392D02*
X001462Y011392D01*
X001462Y011470D02*
X000742Y011470D01*
X000742Y011549D02*
X001462Y011549D01*
X001462Y011628D02*
X000742Y011628D01*
X000742Y011706D02*
X001462Y011706D01*
X001462Y011785D02*
X000742Y011785D01*
X000742Y011863D02*
X001462Y011863D01*
X001462Y011942D02*
X000742Y011942D01*
X000742Y012020D02*
X001462Y012020D01*
X001462Y012099D02*
X000742Y012099D01*
X000742Y012177D02*
X001471Y012177D01*
X001504Y012256D02*
X000742Y012256D01*
X000742Y012334D02*
X001581Y012334D01*
X001660Y012413D02*
X000742Y012413D01*
X000742Y012492D02*
X001738Y012492D01*
X001817Y012570D02*
X000742Y012570D01*
X000742Y012649D02*
X001895Y012649D01*
X001874Y012806D02*
X000742Y012806D01*
X000742Y012884D02*
X000880Y012884D01*
X000862Y012902D02*
X000944Y012820D01*
X001262Y012820D01*
X001262Y013220D01*
X000862Y013220D01*
X000862Y012902D01*
X000862Y012963D02*
X000742Y012963D01*
X000742Y013041D02*
X000862Y013041D01*
X000862Y013120D02*
X000742Y013120D01*
X000742Y013198D02*
X000862Y013198D01*
X000862Y013300D02*
X001262Y013300D01*
X001262Y013220D01*
X001342Y013220D01*
X001342Y012820D01*
X001660Y012820D01*
X001742Y012902D01*
X001742Y013220D01*
X001343Y013220D01*
X001343Y013300D01*
X001742Y013300D01*
X001742Y013618D01*
X001660Y013700D01*
X001342Y013700D01*
X001342Y013300D01*
X001262Y013300D01*
X001262Y013700D01*
X000944Y013700D01*
X000862Y013618D01*
X000862Y013300D01*
X000862Y013356D02*
X000742Y013356D01*
X000742Y013434D02*
X000862Y013434D01*
X000862Y013513D02*
X000742Y013513D01*
X000742Y013591D02*
X000862Y013591D01*
X000914Y013670D02*
X000742Y013670D01*
X000742Y013748D02*
X001908Y013748D01*
X001853Y013827D02*
X001667Y013827D01*
X001660Y013820D02*
X001742Y013902D01*
X001742Y014220D01*
X001343Y014220D01*
X001343Y014300D01*
X001742Y014300D01*
X001742Y014618D01*
X001660Y014700D01*
X001342Y014700D01*
X001342Y014300D01*
X001262Y014300D01*
X001262Y014220D01*
X000862Y014220D01*
X000862Y013902D01*
X000944Y013820D01*
X001262Y013820D01*
X001262Y014220D01*
X001342Y014220D01*
X001342Y013820D01*
X001660Y013820D01*
X001690Y013670D02*
X001829Y013670D01*
X001802Y013591D02*
X001742Y013591D01*
X001742Y013513D02*
X001802Y013513D01*
X001802Y013434D02*
X001742Y013434D01*
X001742Y013356D02*
X001802Y013356D01*
X001802Y013277D02*
X001343Y013277D01*
X001342Y013356D02*
X001262Y013356D01*
X001262Y013434D02*
X001342Y013434D01*
X001342Y013513D02*
X001262Y013513D01*
X001262Y013591D02*
X001342Y013591D01*
X001342Y013670D02*
X001262Y013670D01*
X001262Y013827D02*
X001342Y013827D01*
X001342Y013905D02*
X001262Y013905D01*
X001262Y013984D02*
X001342Y013984D01*
X001342Y014062D02*
X001262Y014062D01*
X001262Y014141D02*
X001342Y014141D01*
X001342Y014219D02*
X001262Y014219D01*
X001262Y014298D02*
X000742Y014298D01*
X000742Y014219D02*
X000862Y014219D01*
X000862Y014141D02*
X000742Y014141D01*
X000742Y014062D02*
X000862Y014062D01*
X000862Y013984D02*
X000742Y013984D01*
X000742Y013905D02*
X000862Y013905D01*
X000937Y013827D02*
X000742Y013827D01*
X000862Y014300D02*
X001262Y014300D01*
X001262Y014700D01*
X000944Y014700D01*
X000862Y014618D01*
X000862Y014300D01*
X000862Y014377D02*
X000742Y014377D01*
X000742Y014455D02*
X000862Y014455D01*
X000862Y014534D02*
X000742Y014534D01*
X000742Y014612D02*
X000862Y014612D01*
X000935Y014691D02*
X000742Y014691D01*
X000742Y014769D02*
X005862Y014769D01*
X005862Y014691D02*
X005754Y014691D01*
X005802Y014643D02*
X005685Y014760D01*
X004919Y014760D01*
X004802Y014643D01*
X004802Y013877D01*
X004919Y013760D01*
X005022Y013760D01*
X005022Y013760D01*
X004919Y013760D01*
X004802Y013643D01*
X004802Y012877D01*
X004919Y012760D01*
X005685Y012760D01*
X005802Y012877D01*
X005802Y013643D01*
X005685Y013760D01*
X005802Y013877D01*
X005802Y014643D01*
X005802Y014612D02*
X005862Y014612D01*
X005862Y014534D02*
X005802Y014534D01*
X005802Y014455D02*
X005862Y014455D01*
X005862Y014377D02*
X005802Y014377D01*
X005802Y014298D02*
X005862Y014298D01*
X005862Y014219D02*
X005802Y014219D01*
X005802Y014141D02*
X005862Y014141D01*
X005862Y014062D02*
X005802Y014062D01*
X005802Y013984D02*
X005862Y013984D01*
X005862Y013905D02*
X005802Y013905D01*
X005752Y013827D02*
X005862Y013827D01*
X005862Y013748D02*
X005697Y013748D01*
X005685Y013760D02*
X005582Y013760D01*
X005582Y013760D01*
X005685Y013760D01*
X005775Y013670D02*
X005862Y013670D01*
X005862Y013591D02*
X005802Y013591D01*
X005802Y013513D02*
X005862Y013513D01*
X005862Y013434D02*
X005802Y013434D01*
X005802Y013356D02*
X005862Y013356D01*
X005862Y013277D02*
X005802Y013277D01*
X005802Y013198D02*
X005862Y013198D01*
X005862Y013120D02*
X005802Y013120D01*
X005802Y013041D02*
X005862Y013041D01*
X005862Y012963D02*
X005802Y012963D01*
X005802Y012884D02*
X005862Y012884D01*
X005862Y012806D02*
X005731Y012806D01*
X005862Y012727D02*
X004431Y012727D01*
X004509Y012649D02*
X005862Y012649D01*
X005862Y012570D02*
X004588Y012570D01*
X004667Y012492D02*
X005862Y012492D01*
X005862Y012413D02*
X004745Y012413D01*
X004798Y012334D02*
X005862Y012334D01*
X005862Y012256D02*
X004822Y012256D01*
X004822Y012177D02*
X005862Y012177D01*
X005862Y012099D02*
X004822Y012099D01*
X004846Y012020D02*
X005862Y012020D01*
X005862Y011942D02*
X005640Y011942D01*
X005718Y011863D02*
X005862Y011863D01*
X005862Y011785D02*
X005767Y011785D01*
X005860Y011706D02*
X005862Y011706D01*
X005552Y011416D02*
X005542Y011426D01*
X005542Y011700D01*
X005462Y011780D01*
X005182Y011780D01*
X004982Y011580D01*
X004982Y010940D01*
X004822Y010780D01*
X004822Y010540D01*
X004342Y010060D01*
X004342Y009580D01*
X004062Y009267D02*
X004080Y009225D01*
X004080Y008924D01*
X004197Y008807D01*
X004252Y008807D01*
X004252Y008480D01*
X004702Y008480D01*
X004702Y008400D01*
X004252Y008400D01*
X004252Y008073D01*
X004197Y008073D01*
X004080Y007956D01*
X004080Y007300D01*
X003578Y007300D01*
X003138Y007740D01*
X003262Y007740D01*
X003262Y008096D01*
X003342Y008096D01*
X003342Y007740D01*
X003656Y007740D01*
X003738Y007822D01*
X003738Y008096D01*
X003342Y008096D01*
X003342Y008176D01*
X003738Y008176D01*
X003738Y008450D01*
X003720Y008467D01*
X003798Y008545D01*
X003798Y009223D01*
X003769Y009251D01*
X003938Y009420D01*
X004062Y009420D01*
X004062Y009267D01*
X004062Y009271D02*
X003790Y009271D01*
X003798Y009193D02*
X004080Y009193D01*
X004080Y009114D02*
X003798Y009114D01*
X003798Y009036D02*
X004080Y009036D01*
X004080Y008957D02*
X003798Y008957D01*
X003798Y008879D02*
X004125Y008879D01*
X004252Y008800D02*
X003798Y008800D01*
X003798Y008721D02*
X004252Y008721D01*
X004252Y008643D02*
X003798Y008643D01*
X003798Y008564D02*
X004252Y008564D01*
X004252Y008486D02*
X003738Y008486D01*
X003738Y008407D02*
X004702Y008407D01*
X004702Y008400D02*
X004782Y008400D01*
X004782Y008073D01*
X004709Y008073D01*
X004702Y008073D01*
X004702Y008400D01*
X004702Y008329D02*
X004782Y008329D01*
X004782Y008400D02*
X004782Y008480D01*
X004702Y008480D01*
X004702Y008807D01*
X004776Y008807D01*
X004782Y008813D01*
X004782Y008480D01*
X005232Y008480D01*
X005232Y008807D01*
X005288Y008807D01*
X005405Y008924D01*
X005405Y009620D01*
X005470Y009620D01*
X005558Y009656D01*
X005626Y009724D01*
X005862Y009960D01*
X005862Y006369D01*
X005788Y006444D01*
X005581Y006444D01*
X005581Y006195D01*
X005523Y006195D01*
X005523Y006137D01*
X005245Y006137D01*
X005110Y006271D01*
X005110Y006545D01*
X005112Y006545D01*
X005253Y006545D01*
X005383Y006599D01*
X005483Y006699D01*
X005537Y006829D01*
X005537Y006970D01*
X005483Y007101D01*
X005412Y007172D01*
X005405Y007190D01*
X005405Y007956D01*
X005288Y008073D01*
X005232Y008073D01*
X005232Y008400D01*
X004782Y008400D01*
X004782Y008407D02*
X005862Y008407D01*
X005862Y008329D02*
X005232Y008329D01*
X005232Y008250D02*
X005862Y008250D01*
X005862Y008172D02*
X005232Y008172D01*
X005232Y008093D02*
X005862Y008093D01*
X005862Y008015D02*
X005346Y008015D01*
X005405Y007936D02*
X005862Y007936D01*
X005862Y007857D02*
X005405Y007857D01*
X005405Y007779D02*
X005862Y007779D01*
X005862Y007700D02*
X005405Y007700D01*
X005405Y007622D02*
X005862Y007622D01*
X005862Y007543D02*
X005405Y007543D01*
X005405Y007465D02*
X005862Y007465D01*
X005862Y007386D02*
X005405Y007386D01*
X005405Y007308D02*
X005862Y007308D01*
X005862Y007229D02*
X005405Y007229D01*
X005405Y007190D02*
X005405Y007190D01*
X005434Y007151D02*
X005862Y007151D01*
X005862Y007072D02*
X005495Y007072D01*
X005528Y006994D02*
X005862Y006994D01*
X005862Y006915D02*
X005537Y006915D01*
X005537Y006836D02*
X005862Y006836D01*
X005862Y006758D02*
X005508Y006758D01*
X005464Y006679D02*
X005862Y006679D01*
X005862Y006601D02*
X005385Y006601D01*
X005317Y006444D02*
X005235Y006362D01*
X005235Y006195D01*
X005523Y006195D01*
X005523Y006444D01*
X005317Y006444D01*
X005239Y006365D02*
X005110Y006365D01*
X005110Y006287D02*
X005235Y006287D01*
X005235Y006208D02*
X005174Y006208D01*
X005110Y006444D02*
X005862Y006444D01*
X005862Y006522D02*
X005110Y006522D01*
X005182Y006900D02*
X005182Y007100D01*
X005142Y007140D01*
X005142Y007557D01*
X005126Y007573D01*
X004870Y007573D02*
X004870Y006172D01*
X005262Y005780D01*
X005538Y005780D01*
X005552Y005766D01*
X005538Y005380D02*
X005222Y005380D01*
X004462Y006140D01*
X004462Y007020D01*
X004080Y007308D02*
X003570Y007308D01*
X003492Y007386D02*
X004080Y007386D01*
X004080Y007465D02*
X003413Y007465D01*
X003335Y007543D02*
X004080Y007543D01*
X004080Y007622D02*
X003256Y007622D01*
X003178Y007700D02*
X004080Y007700D01*
X004080Y007779D02*
X003695Y007779D01*
X003738Y007857D02*
X004080Y007857D01*
X004080Y007936D02*
X003738Y007936D01*
X003738Y008015D02*
X004139Y008015D01*
X004252Y008093D02*
X003738Y008093D01*
X003738Y008250D02*
X004252Y008250D01*
X004252Y008172D02*
X003342Y008172D01*
X003342Y008093D02*
X003262Y008093D01*
X003262Y008015D02*
X003342Y008015D01*
X003342Y007936D02*
X003262Y007936D01*
X003262Y007857D02*
X003342Y007857D01*
X003342Y007779D02*
X003262Y007779D01*
X003738Y008329D02*
X004252Y008329D01*
X004062Y009350D02*
X003868Y009350D01*
X004702Y008800D02*
X004782Y008800D01*
X004782Y008721D02*
X004702Y008721D01*
X004702Y008643D02*
X004782Y008643D01*
X004782Y008564D02*
X004702Y008564D01*
X004702Y008486D02*
X004782Y008486D01*
X004782Y008250D02*
X004702Y008250D01*
X004702Y008172D02*
X004782Y008172D01*
X004782Y008093D02*
X004702Y008093D01*
X004870Y009307D02*
X004902Y009315D01*
X004902Y009700D01*
X005552Y010350D01*
X005552Y010616D01*
X005523Y010606D02*
X005062Y010606D01*
X005062Y010588D02*
X005062Y010680D01*
X005176Y010794D01*
X005235Y010735D01*
X005235Y010645D01*
X005523Y010645D01*
X005523Y010587D01*
X005235Y010587D01*
X005235Y010420D01*
X005317Y010338D01*
X005523Y010338D01*
X005523Y010587D01*
X005581Y010587D01*
X005581Y010358D01*
X005323Y010100D01*
X005255Y010100D01*
X005166Y010063D01*
X005006Y009903D01*
X004977Y009874D01*
X004977Y009970D01*
X004923Y010101D01*
X004823Y010201D01*
X005026Y010404D01*
X005062Y010492D01*
X005062Y010588D01*
X005062Y010528D02*
X005235Y010528D01*
X005235Y010449D02*
X005045Y010449D01*
X004993Y010371D02*
X005284Y010371D01*
X005358Y010135D02*
X004889Y010135D01*
X004823Y010201D02*
X004823Y010201D01*
X004836Y010214D02*
X005437Y010214D01*
X005515Y010292D02*
X004914Y010292D01*
X004942Y010057D02*
X005160Y010057D01*
X005081Y009978D02*
X004974Y009978D01*
X004977Y009900D02*
X005003Y009900D01*
X005142Y009700D02*
X005142Y009323D01*
X005126Y009307D01*
X005142Y009700D02*
X005302Y009860D01*
X005422Y009860D01*
X005902Y010340D01*
X005902Y010940D01*
X005826Y011016D01*
X005552Y011016D01*
X005523Y010528D02*
X005581Y010528D01*
X005581Y010449D02*
X005523Y010449D01*
X005523Y010371D02*
X005581Y010371D01*
X005801Y009900D02*
X005862Y009900D01*
X005862Y009821D02*
X005723Y009821D01*
X005644Y009743D02*
X005862Y009743D01*
X005862Y009664D02*
X005566Y009664D01*
X005405Y009585D02*
X005862Y009585D01*
X005862Y009507D02*
X005405Y009507D01*
X005405Y009428D02*
X005862Y009428D01*
X005862Y009350D02*
X005405Y009350D01*
X005405Y009271D02*
X005862Y009271D01*
X005862Y009193D02*
X005405Y009193D01*
X005405Y009114D02*
X005862Y009114D01*
X005862Y009036D02*
X005405Y009036D01*
X005405Y008957D02*
X005862Y008957D01*
X005862Y008879D02*
X005359Y008879D01*
X005232Y008800D02*
X005862Y008800D01*
X005862Y008721D02*
X005232Y008721D01*
X005232Y008643D02*
X005862Y008643D01*
X005862Y008564D02*
X005232Y008564D01*
X005232Y008486D02*
X005862Y008486D01*
X005581Y006365D02*
X005523Y006365D01*
X005523Y006287D02*
X005581Y006287D01*
X005581Y006208D02*
X005523Y006208D01*
X005538Y005380D02*
X005552Y005366D01*
X005290Y005030D02*
X004916Y005030D01*
X004916Y005108D02*
X005212Y005108D01*
X005076Y005187D02*
X004916Y005187D01*
X004916Y005266D02*
X004997Y005266D01*
X004919Y005344D02*
X004916Y005344D01*
X004840Y005423D02*
X004840Y005423D01*
X004762Y005501D02*
X004657Y005501D01*
X004657Y005580D02*
X004683Y005580D01*
X004916Y004951D02*
X005862Y004951D01*
X005862Y004873D02*
X004916Y004873D01*
X004916Y004794D02*
X005862Y004794D01*
X005862Y004716D02*
X004916Y004716D01*
X004916Y004637D02*
X005862Y004637D01*
X005862Y004559D02*
X004884Y004559D01*
X004805Y004480D02*
X005862Y004480D01*
X005862Y004402D02*
X003222Y004402D01*
X003222Y004323D02*
X005862Y004323D01*
X005862Y004244D02*
X003222Y004244D01*
X003222Y004166D02*
X005862Y004166D01*
X005862Y005030D02*
X005814Y005030D01*
X005862Y002988D02*
X004582Y002988D01*
X004582Y002909D02*
X005862Y002909D01*
X005862Y002831D02*
X004582Y002831D01*
X005693Y002752D02*
X005862Y002752D01*
X005862Y002674D02*
X005771Y002674D01*
X005802Y002595D02*
X005862Y002595D01*
X005862Y002517D02*
X005802Y002517D01*
X005802Y002438D02*
X005862Y002438D01*
X005862Y002359D02*
X005802Y002359D01*
X005802Y002281D02*
X005862Y002281D01*
X005862Y002202D02*
X005802Y002202D01*
X005802Y002124D02*
X005862Y002124D01*
X005862Y002045D02*
X005802Y002045D01*
X005802Y001967D02*
X005862Y001967D01*
X005862Y001888D02*
X005802Y001888D01*
X005862Y001810D02*
X005735Y001810D01*
X005714Y001731D02*
X005862Y001731D01*
X005862Y001653D02*
X005792Y001653D01*
X005802Y001574D02*
X005862Y001574D01*
X005862Y001495D02*
X005802Y001495D01*
X005802Y001417D02*
X005862Y001417D01*
X005862Y001338D02*
X005802Y001338D01*
X005802Y001260D02*
X005862Y001260D01*
X005862Y001181D02*
X005802Y001181D01*
X005802Y001103D02*
X005862Y001103D01*
X005862Y001024D02*
X005802Y001024D01*
X002782Y002940D02*
X001942Y002940D01*
X001822Y002820D01*
X001822Y001780D01*
X001302Y001260D01*
X002343Y003773D02*
X002742Y003773D01*
X002742Y003695D02*
X002742Y003695D01*
X002742Y003616D02*
X002742Y003616D01*
X002742Y003538D02*
X002742Y003538D01*
X002742Y003459D02*
X002742Y003459D01*
X002742Y003381D02*
X002742Y003381D01*
X002742Y003302D02*
X002713Y003302D01*
X002727Y003223D02*
X002681Y003223D01*
X002742Y003852D02*
X002742Y003852D01*
X002742Y003930D02*
X002742Y003930D01*
X002742Y004009D02*
X002742Y004009D01*
X002742Y004087D02*
X002742Y004087D01*
X002735Y004166D02*
X002742Y004166D01*
X002742Y004244D02*
X002702Y004244D01*
X002742Y004323D02*
X002661Y004323D01*
X002583Y004402D02*
X002741Y004402D01*
X002506Y004637D02*
X000742Y004637D01*
X000742Y004716D02*
X002427Y004716D01*
X002348Y004794D02*
X000742Y004794D01*
X000742Y006130D02*
X001435Y006130D01*
X001387Y006208D02*
X000742Y006208D01*
X000742Y006287D02*
X001387Y006287D01*
X001387Y006365D02*
X000742Y006365D01*
X000742Y006444D02*
X001645Y006444D01*
X001645Y006522D02*
X001720Y006522D01*
X001720Y006601D02*
X001645Y006601D01*
X001645Y006679D02*
X001720Y006679D01*
X001424Y006679D02*
X000742Y006679D01*
X000742Y006601D02*
X001387Y006601D01*
X001387Y006522D02*
X000742Y006522D01*
X000742Y012727D02*
X002654Y012727D01*
X002802Y013156D02*
X002802Y013643D01*
X002685Y013760D01*
X002802Y013877D01*
X002802Y014643D01*
X002802Y013877D01*
X002919Y013760D01*
X003406Y013760D01*
X003406Y013760D01*
X002919Y013760D01*
X002802Y013643D01*
X002802Y013156D01*
X002802Y013156D01*
X002802Y013198D02*
X002802Y013198D01*
X002802Y013277D02*
X002802Y013277D01*
X002802Y013356D02*
X002802Y013356D01*
X002802Y013434D02*
X002802Y013434D01*
X002802Y013513D02*
X002802Y013513D01*
X002802Y013591D02*
X002802Y013591D01*
X002775Y013670D02*
X002829Y013670D01*
X002853Y013827D02*
X002752Y013827D01*
X002802Y013905D02*
X002802Y013905D01*
X002802Y013984D02*
X002802Y013984D01*
X002802Y014062D02*
X002802Y014062D01*
X002802Y014141D02*
X002802Y014141D01*
X002802Y014219D02*
X002802Y014219D01*
X002802Y014298D02*
X002802Y014298D01*
X002802Y014377D02*
X002802Y014377D01*
X002802Y014455D02*
X002802Y014455D01*
X002802Y014534D02*
X002802Y014534D01*
X002802Y014612D02*
X002802Y014612D01*
X002754Y014691D02*
X002850Y014691D01*
X002908Y013748D02*
X002697Y013748D01*
X002685Y013760D02*
X002582Y013760D01*
X002582Y013760D01*
X002685Y013760D01*
X001850Y014691D02*
X001669Y014691D01*
X001742Y014612D02*
X001802Y014612D01*
X001802Y014534D02*
X001742Y014534D01*
X001742Y014455D02*
X001802Y014455D01*
X001802Y014377D02*
X001742Y014377D01*
X001802Y014298D02*
X001343Y014298D01*
X001342Y014377D02*
X001262Y014377D01*
X001262Y014455D02*
X001342Y014455D01*
X001342Y014534D02*
X001262Y014534D01*
X001262Y014612D02*
X001342Y014612D01*
X001342Y014691D02*
X001262Y014691D01*
X001742Y014219D02*
X001802Y014219D01*
X001802Y014141D02*
X001742Y014141D01*
X001742Y014062D02*
X001802Y014062D01*
X001802Y013984D02*
X001742Y013984D01*
X001742Y013905D02*
X001802Y013905D01*
X001802Y013198D02*
X001742Y013198D01*
X001742Y013120D02*
X001802Y013120D01*
X001802Y013041D02*
X001742Y013041D01*
X001742Y012963D02*
X001802Y012963D01*
X001802Y012884D02*
X001725Y012884D01*
X001342Y012884D02*
X001262Y012884D01*
X001262Y012963D02*
X001342Y012963D01*
X001342Y013041D02*
X001262Y013041D01*
X001262Y013120D02*
X001342Y013120D01*
X001342Y013198D02*
X001262Y013198D01*
X001262Y013277D02*
X000742Y013277D01*
X003802Y014156D02*
X003802Y014643D01*
X003802Y014156D01*
X003802Y014156D01*
X003802Y014219D02*
X003802Y014219D01*
X003802Y014298D02*
X003802Y014298D01*
X003802Y014377D02*
X003802Y014377D01*
X003802Y014455D02*
X003802Y014455D01*
X003802Y014534D02*
X003802Y014534D01*
X003802Y014612D02*
X003802Y014612D01*
X003754Y014691D02*
X003850Y014691D01*
X004582Y013760D02*
X004685Y013760D01*
X004582Y013760D01*
X004582Y013760D01*
X004697Y013748D02*
X004908Y013748D01*
X004853Y013827D02*
X004752Y013827D01*
X004802Y013905D02*
X004802Y013905D01*
X004802Y013984D02*
X004802Y013984D01*
X004802Y014062D02*
X004802Y014062D01*
X004802Y014141D02*
X004802Y014141D01*
X004802Y014219D02*
X004802Y014219D01*
X004802Y014298D02*
X004802Y014298D01*
X004802Y014377D02*
X004802Y014377D01*
X004802Y014455D02*
X004802Y014455D01*
X004802Y014534D02*
X004802Y014534D01*
X004802Y014612D02*
X004802Y014612D01*
X004754Y014691D02*
X004850Y014691D01*
X004829Y013670D02*
X004775Y013670D01*
X004802Y013591D02*
X004802Y013591D01*
X004802Y013513D02*
X004802Y013513D01*
X004802Y013434D02*
X004802Y013434D01*
X004802Y013356D02*
X004802Y013356D01*
X004802Y013277D02*
X004802Y013277D01*
X004802Y013198D02*
X004802Y013198D01*
X004802Y013120D02*
X004802Y013120D01*
X004802Y013041D02*
X004802Y013041D01*
X004802Y012963D02*
X004802Y012963D01*
X004802Y012884D02*
X004802Y012884D01*
X004731Y012806D02*
X004874Y012806D01*
X004924Y011942D02*
X005005Y011942D01*
X005145Y010764D02*
X005207Y010764D01*
X005235Y010685D02*
X005067Y010685D01*
D19*
X004552Y010590D02*
X003942Y009980D01*
X003382Y009980D01*
X003362Y010000D01*
X003422Y010060D01*
X003552Y010190D01*
X003552Y010551D01*
X003362Y010000D02*
X003342Y009980D01*
X003022Y009980D01*
X002862Y010140D01*
X002862Y011900D01*
X002662Y012100D01*
X002422Y012100D01*
X002302Y011980D01*
X002302Y011634D01*
X001742Y012100D02*
X002062Y012420D01*
X002742Y012420D01*
X002982Y012660D01*
X002982Y012940D01*
X003302Y013260D01*
X003822Y013740D02*
X003302Y014260D01*
X003822Y012700D02*
X003552Y012430D01*
X003552Y011969D01*
X004022Y012500D02*
X003822Y012700D01*
X004022Y012500D02*
X004262Y012500D01*
X004542Y012220D01*
X004542Y011716D01*
X004552Y011716D01*
X004552Y011316D02*
X004552Y010590D01*
X004222Y009700D02*
X003822Y009700D01*
X003302Y009180D01*
X003302Y008884D01*
X003822Y009700D02*
X002702Y009700D01*
X002702Y007780D01*
X003462Y007020D01*
X004462Y007020D01*
X004622Y007180D01*
X004302Y005540D02*
X004302Y004969D01*
X004302Y003551D02*
X004302Y002260D01*
X004302Y001260D01*
X003302Y001260D02*
X003302Y002260D01*
X002302Y002260D02*
X002302Y001260D01*
X004359Y009307D02*
X004342Y009323D01*
X004342Y009580D01*
X004222Y009700D01*
X002702Y009700D02*
X002542Y009700D01*
X002182Y010060D01*
X002182Y010300D01*
X001862Y010300D01*
X001742Y010420D01*
X001742Y012100D01*
X001302Y013260D02*
X001302Y014260D01*
X002302Y014260D02*
X002302Y013260D01*
X002302Y010886D02*
X002302Y010420D01*
X002182Y010300D01*
X004302Y013260D02*
X004302Y014260D01*
X005302Y014260D02*
X005302Y013260D01*
D20*
X004622Y009900D02*
X004622Y009315D01*
X004614Y009307D01*
X004862Y009299D02*
X004862Y008820D01*
X004742Y008700D01*
X004742Y008580D01*
X004742Y008440D01*
X004614Y007573D02*
X004622Y007565D01*
X004622Y007180D01*
X004862Y009299D02*
X004870Y009307D01*
X003822Y012700D02*
X003822Y013740D01*
D21*
X003422Y010060D03*
X003902Y008060D03*
X004582Y008300D03*
X004742Y008580D03*
X004942Y008300D03*
X005182Y006900D03*
X004302Y005540D03*
X002462Y006940D03*
X001742Y009060D03*
X004622Y009900D03*
M02*
