G75*
G70*
%OFA0B0*%
%FSLAX24Y24*%
%IPPOS*%
%LPD*%
%AMOC8*
5,1,8,0,0,1.08239X$1,22.5*
%
%ADD10C,0.0680*%
%ADD11R,0.1655X0.0237*%
%ADD12R,0.0592X0.0671*%
%ADD13R,0.0356X0.0434*%
%ADD14C,0.0390*%
D10*
X004429Y001202D02*
X004429Y001802D01*
X005429Y001802D02*
X005429Y001202D01*
X006429Y001202D02*
X006429Y001802D01*
X007429Y001802D02*
X007429Y001202D01*
X008429Y001202D02*
X008429Y001802D01*
X009429Y001802D02*
X009429Y001202D01*
X010429Y001202D02*
X010429Y001802D01*
X011429Y001802D02*
X011429Y001202D01*
X011429Y017202D02*
X011429Y017802D01*
X010429Y017802D02*
X010429Y017202D01*
X009429Y017202D02*
X009429Y017802D01*
X008429Y017802D02*
X008429Y017202D01*
X007429Y017202D02*
X007429Y017802D01*
X006429Y017802D02*
X006429Y017202D01*
X005429Y017202D02*
X005429Y017802D01*
X004429Y017802D02*
X004429Y017202D01*
D11*
X006929Y013748D03*
X006929Y013472D03*
X006929Y013197D03*
X006929Y012921D03*
X006929Y012646D03*
X006929Y012370D03*
X006929Y012094D03*
X006929Y011819D03*
X006929Y011543D03*
X006929Y011268D03*
X006929Y010992D03*
X006929Y010717D03*
X006929Y010441D03*
X006929Y010165D03*
X006929Y009890D03*
X006929Y009614D03*
X006929Y009339D03*
X006929Y009063D03*
X006929Y008787D03*
X006929Y008512D03*
X006929Y008236D03*
X006929Y007961D03*
X006929Y007685D03*
X006929Y007409D03*
X006929Y007134D03*
X006929Y006858D03*
X006929Y006583D03*
X006929Y006307D03*
X006929Y006031D03*
X006929Y005756D03*
D12*
X008585Y004332D03*
X009333Y004332D03*
X010225Y005252D03*
X009553Y006162D03*
X010225Y006752D03*
X010973Y006752D03*
X010973Y008252D03*
X010225Y008252D03*
X009433Y007782D03*
X008685Y007782D03*
X008555Y009002D03*
X008555Y009962D03*
X009303Y009962D03*
X009303Y009002D03*
X010385Y011812D03*
X011133Y011812D03*
X011263Y013502D03*
X010515Y013502D03*
X009723Y013502D03*
X008975Y013502D03*
X008765Y012592D03*
X009513Y012592D03*
X009553Y014502D03*
X008805Y014502D03*
X008805Y015502D03*
X009553Y015502D03*
X010305Y015502D03*
X011053Y015502D03*
X007303Y015252D03*
X006555Y015252D03*
X005803Y014752D03*
X005055Y014752D03*
X008805Y006162D03*
X010973Y005252D03*
D13*
X006073Y004002D03*
X005673Y004002D03*
X005273Y004002D03*
D14*
X005239Y004532D03*
X005279Y005852D03*
X007319Y004572D03*
X008399Y004932D03*
X011199Y004612D03*
X010639Y010372D03*
X010839Y010852D03*
X010279Y010572D03*
X009359Y011172D03*
X009679Y011812D03*
X008959Y011452D03*
X008279Y011332D03*
X010199Y012972D03*
X009999Y014492D03*
M02*
