G75*
G70*
%OFA0B0*%
%FSLAX24Y24*%
%IPPOS*%
%LPD*%
%AMOC8*
5,1,8,0,0,1.08239X$1,22.5*
%
%ADD10C,0.0600*%
%ADD11C,0.0310*%
%ADD12C,0.0160*%
%ADD13C,0.0080*%
D10*
X004429Y001202D02*
X004429Y001802D01*
X005429Y001802D02*
X005429Y001202D01*
X006429Y001202D02*
X006429Y001802D01*
X007429Y001802D02*
X007429Y001202D01*
X008429Y001202D02*
X008429Y001802D01*
X009429Y001802D02*
X009429Y001202D01*
X010429Y001202D02*
X010429Y001802D01*
X011429Y001802D02*
X011429Y001202D01*
X011429Y017202D02*
X011429Y017802D01*
X010429Y017802D02*
X010429Y017202D01*
X009429Y017202D02*
X009429Y017802D01*
X008429Y017802D02*
X008429Y017202D01*
X007429Y017202D02*
X007429Y017802D01*
X006429Y017802D02*
X006429Y017202D01*
X005429Y017202D02*
X005429Y017802D01*
X004429Y017802D02*
X004429Y017202D01*
D11*
X008279Y011332D03*
X008959Y011452D03*
X009359Y011172D03*
X009679Y011812D03*
X010199Y012972D03*
X009999Y014492D03*
X010839Y010852D03*
X010639Y010372D03*
X010279Y010572D03*
X008399Y004932D03*
X007319Y004572D03*
X005279Y005852D03*
X005239Y004532D03*
X011199Y004612D03*
D12*
X011599Y005012D01*
X011599Y011292D01*
X011079Y011812D01*
X009679Y011812D01*
X005279Y005852D02*
X005239Y005812D01*
X005239Y004532D01*
X007319Y004572D02*
X007679Y004932D01*
X008399Y004932D01*
D13*
X009429Y001502D02*
X009429Y009882D01*
X010279Y010572D01*
X010559Y010812D02*
X010399Y010972D01*
X009759Y010972D01*
X009559Y010772D01*
X009079Y010772D01*
X008639Y011212D01*
X008639Y011772D01*
X005479Y014932D01*
X005479Y017452D01*
X005429Y017502D01*
X006429Y017502D02*
X006429Y014342D01*
X008959Y011812D01*
X008959Y011452D01*
X009239Y011732D02*
X009239Y012052D01*
X007429Y013862D01*
X007429Y017502D01*
X009999Y014492D02*
X010199Y014292D01*
X010199Y012972D01*
X009239Y011732D02*
X009359Y011612D01*
X009359Y011172D01*
X010429Y009722D02*
X010959Y010252D01*
X010959Y010652D01*
X010759Y010852D01*
X010839Y010852D01*
X010559Y010812D02*
X010559Y010692D01*
X010639Y010612D01*
X010639Y010372D01*
X010429Y009722D02*
X010429Y001502D01*
X008279Y011332D02*
X004559Y011332D01*
X004479Y011412D01*
X004479Y017452D01*
X004429Y017502D01*
M02*
