G75*
G70*
%OFA0B0*%
%FSLAX24Y24*%
%IPPOS*%
%LPD*%
%AMOC8*
5,1,8,0,0,1.08239X$1,22.5*
%
%ADD10R,0.1575X0.0157*%
%ADD11R,0.0512X0.0591*%
%ADD12R,0.0276X0.0354*%
D10*
X006929Y005756D03*
X006929Y006031D03*
X006929Y006307D03*
X006929Y006583D03*
X006929Y006858D03*
X006929Y007134D03*
X006929Y007409D03*
X006929Y007685D03*
X006929Y007961D03*
X006929Y008236D03*
X006929Y008512D03*
X006929Y008787D03*
X006929Y009063D03*
X006929Y009339D03*
X006929Y009614D03*
X006929Y009890D03*
X006929Y010165D03*
X006929Y010441D03*
X006929Y010717D03*
X006929Y010992D03*
X006929Y011268D03*
X006929Y011543D03*
X006929Y011819D03*
X006929Y012094D03*
X006929Y012370D03*
X006929Y012646D03*
X006929Y012921D03*
X006929Y013197D03*
X006929Y013472D03*
X006929Y013748D03*
D11*
X007303Y015252D03*
X006555Y015252D03*
X005803Y014752D03*
X005055Y014752D03*
X008555Y009962D03*
X008555Y009002D03*
X009303Y009002D03*
X009303Y009962D03*
X010225Y008252D03*
X010973Y008252D03*
X010973Y006752D03*
X010225Y006752D03*
X009553Y006162D03*
X010225Y005252D03*
X010973Y005252D03*
X009333Y004332D03*
X008585Y004332D03*
X008805Y006162D03*
X008685Y007782D03*
X009433Y007782D03*
X010385Y011812D03*
X011133Y011812D03*
X011263Y013502D03*
X010515Y013502D03*
X009723Y013502D03*
X008975Y013502D03*
X008765Y012592D03*
X009513Y012592D03*
X009553Y014502D03*
X008805Y014502D03*
X008805Y015502D03*
X009553Y015502D03*
X010305Y015502D03*
X011053Y015502D03*
D12*
X005273Y004002D03*
X005673Y004002D03*
X006073Y004002D03*
M02*
