G75*
G70*
%OFA0B0*%
%FSLAX24Y24*%
%IPPOS*%
%LPD*%
%AMOC8*
5,1,8,0,0,1.08239X$1,22.5*
%
%ADD10R,0.1575X0.0157*%
%ADD11R,0.0413X0.0425*%
%ADD12R,0.0433X0.0394*%
%ADD13R,0.0512X0.0591*%
%ADD14R,0.0276X0.0354*%
D10*
X006929Y005756D03*
X006929Y006031D03*
X006929Y006307D03*
X006929Y006583D03*
X006929Y006858D03*
X006929Y007134D03*
X006929Y007409D03*
X006929Y007685D03*
X006929Y007961D03*
X006929Y008236D03*
X006929Y008512D03*
X006929Y008787D03*
X006929Y009063D03*
X006929Y009339D03*
X006929Y009614D03*
X006929Y009890D03*
X006929Y010165D03*
X006929Y010441D03*
X006929Y010717D03*
X006929Y010992D03*
X006929Y011268D03*
X006929Y011543D03*
X006929Y011819D03*
X006929Y012094D03*
X006929Y012370D03*
X006929Y012646D03*
X006929Y012921D03*
X006929Y013197D03*
X006929Y013472D03*
X006929Y013748D03*
D11*
X005773Y014752D03*
X005084Y014752D03*
X008584Y010002D03*
X009273Y010002D03*
X009273Y009002D03*
X008584Y009002D03*
X008834Y007502D03*
X009523Y007502D03*
X010334Y008252D03*
X011023Y008252D03*
X011023Y006752D03*
X010334Y006752D03*
X009523Y006002D03*
X008834Y006002D03*
X008774Y004412D03*
X009463Y004412D03*
X010334Y005252D03*
X011023Y005252D03*
X011023Y012252D03*
X010334Y012252D03*
X009523Y012752D03*
X009773Y013502D03*
X009523Y014502D03*
X008834Y014502D03*
X009084Y013502D03*
X008834Y012752D03*
X010584Y013502D03*
X011273Y013502D03*
X011023Y015502D03*
X010334Y015502D03*
D12*
X009513Y015502D03*
X008844Y015502D03*
D13*
X007303Y015252D03*
X006555Y015252D03*
D14*
X005273Y004002D03*
X005673Y004002D03*
X006073Y004002D03*
M02*
