%
M48
M72
T01C0.0150
T02C0.0400
%
T01
X5239Y4532
X5279Y5852
X7319Y4572
X8399Y4932
X11199Y4612
X10639Y10372
X10839Y10852
X10279Y10572
X9359Y11172
X9679Y11812
X8959Y11452
X8279Y11332
X10199Y12972
X9999Y14492
T02
X4429Y1502
X5429Y1502
X6429Y1502
X7429Y1502
X8429Y1502
X9429Y1502
X10429Y1502
X11429Y1502
X11429Y17502
X10429Y17502
X9429Y17502
X8429Y17502
X7429Y17502
X6429Y17502
X5429Y17502
X4429Y17502
M30
