G75*
G70*
%OFA0B0*%
%FSLAX24Y24*%
%IPPOS*%
%LPD*%
%AMOC8*
5,1,8,0,0,1.08239X$1,22.5*
%
%ADD10C,0.0000*%
%ADD11C,0.0040*%
%ADD12C,0.0030*%
%ADD13C,0.0160*%
%ADD14R,0.0157X0.0413*%
%ADD15C,0.0157*%
%ADD16C,0.0050*%
D10*
X003679Y000252D02*
X003679Y018752D01*
X012179Y018752D01*
X012179Y000252D01*
X003679Y000252D01*
D11*
X003948Y005737D02*
X003948Y005967D01*
X004025Y006044D01*
X004102Y006044D01*
X004179Y005967D01*
X004179Y005737D01*
X004179Y005967D02*
X004255Y006044D01*
X004332Y006044D01*
X004409Y005967D01*
X004409Y005737D01*
X003948Y005737D01*
X004102Y006198D02*
X004102Y006274D01*
X004409Y006274D01*
X004409Y006198D02*
X004409Y006351D01*
X004409Y006504D02*
X004409Y006735D01*
X004332Y006811D01*
X004255Y006735D01*
X004255Y006581D01*
X004179Y006504D01*
X004102Y006581D01*
X004102Y006811D01*
X004102Y006965D02*
X004102Y007118D01*
X004025Y007041D02*
X004332Y007041D01*
X004409Y007118D01*
X004332Y007272D02*
X004255Y007348D01*
X004255Y007579D01*
X004179Y007579D02*
X004409Y007579D01*
X004409Y007348D01*
X004332Y007272D01*
X004102Y007348D02*
X004102Y007502D01*
X004179Y007579D01*
X004102Y007732D02*
X004102Y007962D01*
X004179Y008039D01*
X004332Y008039D01*
X004409Y007962D01*
X004409Y007732D01*
X003948Y007732D01*
X003948Y008192D02*
X003948Y008269D01*
X004409Y008269D01*
X004409Y008192D02*
X004409Y008346D01*
X004332Y008499D02*
X004179Y008499D01*
X004102Y008576D01*
X004102Y008729D01*
X004179Y008806D01*
X004255Y008806D01*
X004255Y008499D01*
X004332Y008499D02*
X004409Y008576D01*
X004409Y008729D01*
X004948Y008688D02*
X004948Y008534D01*
X005025Y008458D01*
X005102Y008458D01*
X005179Y008534D01*
X005179Y008688D01*
X005255Y008764D01*
X005332Y008764D01*
X005409Y008688D01*
X005409Y008534D01*
X005332Y008458D01*
X005409Y008304D02*
X005409Y008151D01*
X005409Y008227D02*
X004948Y008227D01*
X004948Y008151D02*
X004948Y008304D01*
X004948Y007997D02*
X005409Y007997D01*
X005409Y007690D02*
X004948Y007690D01*
X004948Y007537D02*
X004948Y007230D01*
X004948Y007383D02*
X005409Y007383D01*
X005179Y007690D02*
X005179Y007997D01*
X004948Y008688D02*
X005025Y008764D01*
X005025Y009378D02*
X004948Y009455D01*
X004948Y009608D01*
X005025Y009685D01*
X005179Y009608D02*
X005179Y009455D01*
X005102Y009378D01*
X005025Y009378D01*
X005179Y009608D02*
X005255Y009685D01*
X005332Y009685D01*
X005409Y009608D01*
X005409Y009455D01*
X005332Y009378D01*
X005409Y009839D02*
X005409Y009992D01*
X005409Y009915D02*
X004948Y009915D01*
X004948Y009839D02*
X004948Y009992D01*
X004948Y010146D02*
X004948Y010376D01*
X005025Y010452D01*
X005332Y010452D01*
X005409Y010376D01*
X005409Y010146D01*
X004948Y010146D01*
X004948Y010606D02*
X005409Y010606D01*
X005409Y010913D01*
X005179Y010759D02*
X005179Y010606D01*
X004948Y010606D02*
X004948Y010913D01*
X004562Y010648D02*
X004102Y010648D01*
X004102Y010878D01*
X004179Y010954D01*
X004332Y010954D01*
X004409Y010878D01*
X004409Y010648D01*
X004332Y010494D02*
X004255Y010417D01*
X004255Y010264D01*
X004179Y010187D01*
X004102Y010264D01*
X004102Y010494D01*
X004332Y010494D02*
X004409Y010417D01*
X004409Y010187D01*
X004409Y010034D02*
X004409Y009880D01*
X004409Y009957D02*
X004102Y009957D01*
X004102Y009880D01*
X004025Y009727D02*
X003948Y009650D01*
X003948Y009420D01*
X004409Y009420D01*
X004409Y009650D01*
X004332Y009727D01*
X004025Y009727D01*
X003948Y009957D02*
X003872Y009957D01*
X003948Y011108D02*
X003948Y011185D01*
X004409Y011185D01*
X004409Y011261D02*
X004409Y011108D01*
X004332Y011415D02*
X004255Y011492D01*
X004255Y011722D01*
X004179Y011722D02*
X004409Y011722D01*
X004409Y011492D01*
X004332Y011415D01*
X004102Y011492D02*
X004102Y011645D01*
X004179Y011722D01*
X004102Y011875D02*
X004332Y011875D01*
X004409Y011952D01*
X004409Y012182D01*
X004485Y012182D02*
X004562Y012105D01*
X004562Y012029D01*
X004485Y012182D02*
X004102Y012182D01*
X004102Y012796D02*
X004025Y012796D01*
X003948Y012873D01*
X003948Y013026D01*
X004025Y013103D01*
X003948Y013256D02*
X004409Y013256D01*
X004332Y013103D02*
X004409Y013026D01*
X004409Y012873D01*
X004332Y012796D01*
X004179Y012873D02*
X004179Y013026D01*
X004255Y013103D01*
X004332Y013103D01*
X004179Y013256D02*
X004102Y013333D01*
X004102Y013486D01*
X004179Y013563D01*
X004409Y013563D01*
X004409Y013717D02*
X004409Y013870D01*
X004409Y013793D02*
X004102Y013793D01*
X004102Y013717D01*
X003948Y013793D02*
X003872Y013793D01*
X004102Y014100D02*
X004179Y014024D01*
X004332Y014024D01*
X004409Y014100D01*
X004409Y014254D01*
X004255Y014330D02*
X004255Y014024D01*
X004102Y014100D02*
X004102Y014254D01*
X004179Y014330D01*
X004255Y014330D01*
X004409Y014484D02*
X004409Y014637D01*
X004409Y014561D02*
X003948Y014561D01*
X003948Y014484D01*
X004179Y014791D02*
X004102Y014867D01*
X004102Y015098D01*
X003948Y015098D02*
X004409Y015098D01*
X004409Y014867D01*
X004332Y014791D01*
X004179Y014791D01*
X004872Y013368D02*
X005179Y013368D01*
X005332Y013368D02*
X005409Y013368D01*
X005409Y013215D02*
X004948Y013215D01*
X004948Y012908D02*
X005409Y013215D01*
X005409Y012908D02*
X004948Y012908D01*
X004948Y012754D02*
X005409Y012754D01*
X005255Y012601D01*
X005409Y012447D01*
X004948Y012447D01*
X005025Y012294D02*
X004948Y012217D01*
X004948Y012064D01*
X005025Y011987D01*
X005332Y011987D01*
X005409Y012064D01*
X005409Y012217D01*
X005332Y012294D01*
X005025Y012294D01*
X005025Y011833D02*
X004948Y011757D01*
X004948Y011527D01*
X005409Y011527D01*
X005409Y011757D01*
X005332Y011833D01*
X005025Y011833D01*
X004102Y012796D02*
X004179Y012873D01*
X006518Y014352D02*
X006518Y014812D01*
X006748Y014812D01*
X006825Y014736D01*
X006825Y014582D01*
X006748Y014505D01*
X006518Y014505D01*
X006671Y014505D02*
X006825Y014352D01*
X006978Y014352D02*
X007285Y014659D01*
X007285Y014736D01*
X007209Y014812D01*
X007055Y014812D01*
X006978Y014736D01*
X006978Y014352D02*
X007285Y014352D01*
X008878Y015922D02*
X008878Y016382D01*
X009108Y016382D01*
X009185Y016306D01*
X009185Y016152D01*
X009108Y016075D01*
X008878Y016075D01*
X009031Y016075D02*
X009185Y015922D01*
X009338Y015922D02*
X009645Y015922D01*
X009492Y015922D02*
X009492Y016382D01*
X009338Y016229D01*
X003948Y006274D02*
X003872Y006274D01*
D12*
X004297Y005007D02*
X004421Y005007D01*
X004359Y005007D02*
X004359Y004699D01*
X004297Y004637D01*
X004235Y004637D01*
X004174Y004699D01*
X004236Y004237D02*
X004236Y003990D01*
X004112Y003867D01*
X003989Y003990D01*
X003989Y004237D01*
X004357Y004052D02*
X004357Y003929D01*
X004419Y003867D01*
X004604Y003867D01*
X004725Y003929D02*
X004725Y004052D01*
X004787Y004114D01*
X004972Y004114D01*
X004972Y003867D02*
X004787Y003867D01*
X004725Y003929D01*
X004604Y004114D02*
X004419Y004114D01*
X004357Y004052D01*
X004542Y004637D02*
X004789Y004637D01*
X004665Y004637D02*
X004665Y005007D01*
X004542Y004884D01*
X004974Y004790D02*
X005159Y004790D01*
X005221Y004852D01*
X005221Y004976D01*
X005159Y005037D01*
X004974Y005037D01*
X004974Y004667D01*
X005342Y004729D02*
X005404Y004667D01*
X005527Y004667D01*
X005589Y004729D01*
X005589Y004852D01*
X005527Y004914D01*
X005404Y004914D01*
X005342Y004852D01*
X005342Y004729D01*
X005710Y004729D02*
X005772Y004667D01*
X005834Y004729D01*
X005896Y004667D01*
X005957Y004729D01*
X005957Y004914D01*
X006079Y004852D02*
X006079Y004729D01*
X006140Y004667D01*
X006264Y004667D01*
X006326Y004790D02*
X006079Y004790D01*
X006079Y004852D02*
X006140Y004914D01*
X006264Y004914D01*
X006326Y004852D01*
X006326Y004790D01*
X006447Y004790D02*
X006570Y004914D01*
X006632Y004914D01*
X006447Y004914D02*
X006447Y004667D01*
X006405Y004197D02*
X006343Y004136D01*
X006343Y003889D01*
X006405Y003827D01*
X006528Y003827D01*
X006590Y003889D01*
X006590Y004012D01*
X006467Y004012D01*
X006590Y004136D02*
X006528Y004197D01*
X006405Y004197D01*
X006712Y004197D02*
X006712Y003827D01*
X006712Y003950D02*
X006897Y003950D01*
X006958Y004012D01*
X006958Y004136D01*
X006897Y004197D01*
X006712Y004197D01*
X007080Y004197D02*
X007203Y004197D01*
X007142Y004197D02*
X007142Y003827D01*
X007203Y003827D02*
X007080Y003827D01*
X007325Y003889D02*
X007387Y003827D01*
X007511Y003827D01*
X007572Y003889D01*
X007572Y004136D01*
X007511Y004197D01*
X007387Y004197D01*
X007325Y004136D01*
X007325Y003889D01*
X007334Y003137D02*
X007457Y003137D01*
X007519Y003076D01*
X007272Y002829D01*
X007334Y002767D01*
X007457Y002767D01*
X007519Y002829D01*
X007519Y003076D01*
X007334Y003137D02*
X007272Y003076D01*
X007272Y002829D01*
X007150Y002767D02*
X006904Y002767D01*
X007150Y003014D01*
X007150Y003076D01*
X007089Y003137D01*
X006965Y003137D01*
X006904Y003076D01*
X006782Y003076D02*
X006535Y002829D01*
X006535Y002767D01*
X006414Y002829D02*
X006352Y002767D01*
X006229Y002767D01*
X006167Y002829D01*
X006414Y003076D01*
X006414Y002829D01*
X006414Y003076D02*
X006352Y003137D01*
X006229Y003137D01*
X006167Y003076D01*
X006167Y002829D01*
X006046Y002767D02*
X005799Y002767D01*
X005677Y002767D02*
X005430Y002767D01*
X005554Y002767D02*
X005554Y003137D01*
X005430Y003014D01*
X005309Y003076D02*
X005309Y002829D01*
X005247Y002767D01*
X005124Y002767D01*
X005062Y002829D01*
X005309Y003076D01*
X005247Y003137D01*
X005124Y003137D01*
X005062Y003076D01*
X005062Y002829D01*
X004941Y002767D02*
X004694Y002767D01*
X004941Y003014D01*
X004941Y003076D01*
X004879Y003137D01*
X004755Y003137D01*
X004694Y003076D01*
X005799Y003014D02*
X005922Y003137D01*
X005922Y002767D01*
X006535Y003137D02*
X006782Y003137D01*
X006782Y003076D01*
X005710Y004729D02*
X005710Y004914D01*
X005842Y005651D02*
X005534Y005651D01*
X005534Y005898D02*
X005842Y005898D01*
X005904Y005836D01*
X005904Y005713D01*
X005842Y005651D01*
X005904Y006019D02*
X005904Y006266D01*
X005904Y006143D02*
X005534Y006143D01*
X005657Y006019D01*
X007317Y005369D02*
X007688Y005369D01*
X007688Y005492D02*
X007688Y005245D01*
X007441Y005245D02*
X007317Y005369D01*
X008754Y007021D02*
X008692Y007083D01*
X008692Y007330D01*
X008754Y007391D01*
X008877Y007391D01*
X008939Y007330D01*
X009060Y007391D02*
X009060Y007206D01*
X009184Y007268D01*
X009246Y007268D01*
X009307Y007206D01*
X009307Y007083D01*
X009246Y007021D01*
X009122Y007021D01*
X009060Y007083D01*
X008939Y007083D02*
X008877Y007021D01*
X008754Y007021D01*
X009060Y007391D02*
X009307Y007391D01*
X009714Y008811D02*
X009837Y008811D01*
X009899Y008873D01*
X010020Y008873D02*
X010020Y008811D01*
X010020Y008873D02*
X010267Y009120D01*
X010267Y009181D01*
X010020Y009181D01*
X009899Y009120D02*
X009837Y009181D01*
X009714Y009181D01*
X009652Y009120D01*
X009652Y008873D01*
X009714Y008811D01*
X009770Y009783D02*
X009709Y009845D01*
X009709Y010091D01*
X009770Y010153D01*
X009894Y010153D01*
X009956Y010091D01*
X010077Y010091D02*
X010139Y010153D01*
X010262Y010153D01*
X010324Y010091D01*
X010324Y010030D01*
X010262Y009968D01*
X010139Y009968D01*
X010077Y010030D01*
X010077Y010091D01*
X010139Y009968D02*
X010077Y009906D01*
X010077Y009845D01*
X010139Y009783D01*
X010262Y009783D01*
X010324Y009845D01*
X010324Y009906D01*
X010262Y009968D01*
X009956Y009845D02*
X009894Y009783D01*
X009770Y009783D01*
X010574Y009021D02*
X010512Y008960D01*
X010512Y008713D01*
X010574Y008651D01*
X010697Y008651D01*
X010759Y008713D01*
X010880Y008713D02*
X010880Y008836D01*
X011066Y008836D01*
X011127Y008774D01*
X011127Y008713D01*
X011066Y008651D01*
X010942Y008651D01*
X010880Y008713D01*
X010880Y008836D02*
X011004Y008960D01*
X011127Y009021D01*
X010759Y008960D02*
X010697Y009021D01*
X010574Y009021D01*
X010654Y007481D02*
X010592Y007420D01*
X010592Y007173D01*
X010654Y007111D01*
X010777Y007111D01*
X010839Y007173D01*
X010960Y007296D02*
X011207Y007296D01*
X011146Y007111D02*
X011146Y007481D01*
X010960Y007296D01*
X010839Y007420D02*
X010777Y007481D01*
X010654Y007481D01*
X010694Y005981D02*
X010632Y005920D01*
X010632Y005673D01*
X010694Y005611D01*
X010817Y005611D01*
X010879Y005673D01*
X011000Y005611D02*
X011247Y005858D01*
X011247Y005920D01*
X011186Y005981D01*
X011062Y005981D01*
X011000Y005920D01*
X010879Y005920D02*
X010817Y005981D01*
X010694Y005981D01*
X011000Y005611D02*
X011247Y005611D01*
X010342Y003137D02*
X010157Y002952D01*
X010404Y002952D01*
X010525Y002952D02*
X010525Y002829D01*
X010587Y002767D01*
X010710Y002767D01*
X010772Y002890D02*
X010525Y002890D01*
X010525Y002952D02*
X010587Y003014D01*
X010710Y003014D01*
X010772Y002952D01*
X010772Y002890D01*
X010894Y002829D02*
X010955Y002890D01*
X011140Y002890D01*
X011140Y002952D02*
X011140Y002767D01*
X010955Y002767D01*
X010894Y002829D01*
X010955Y003014D02*
X011079Y003014D01*
X011140Y002952D01*
X010342Y002767D02*
X010342Y003137D01*
X010035Y002952D02*
X010035Y002767D01*
X010035Y002952D02*
X009974Y003014D01*
X009789Y003014D01*
X009789Y002767D01*
X009667Y002767D02*
X009667Y002952D01*
X009605Y003014D01*
X009544Y002952D01*
X009544Y002767D01*
X009420Y002767D02*
X009420Y003014D01*
X009482Y003014D01*
X009544Y002952D01*
X009299Y003014D02*
X009237Y003014D01*
X009113Y002890D01*
X009113Y002767D02*
X009113Y003014D01*
X008992Y003076D02*
X008992Y002829D01*
X008930Y002767D01*
X008745Y002767D01*
X008745Y003137D01*
X008930Y003137D01*
X008992Y003076D01*
X008255Y003137D02*
X008009Y002767D01*
X008800Y004763D02*
X008924Y004763D01*
X008986Y004825D01*
X009107Y004763D02*
X009354Y004763D01*
X009231Y004763D02*
X009231Y005133D01*
X009107Y005010D01*
X008986Y005071D02*
X008924Y005133D01*
X008800Y005133D01*
X008739Y005071D01*
X008739Y004825D01*
X008800Y004763D01*
X008834Y005441D02*
X008772Y005503D01*
X008772Y005750D01*
X008834Y005811D01*
X008957Y005811D01*
X009019Y005750D01*
X009140Y005750D02*
X009202Y005811D01*
X009326Y005811D01*
X009387Y005750D01*
X009387Y005688D01*
X009326Y005626D01*
X009387Y005564D01*
X009387Y005503D01*
X009326Y005441D01*
X009202Y005441D01*
X009140Y005503D01*
X009019Y005503D02*
X008957Y005441D01*
X008834Y005441D01*
X009264Y005626D02*
X009326Y005626D01*
X010285Y011091D02*
X010224Y011153D01*
X010224Y011400D01*
X010285Y011461D01*
X010409Y011461D01*
X010471Y011400D01*
X010592Y011338D02*
X010716Y011461D01*
X010716Y011091D01*
X010839Y011091D02*
X010592Y011091D01*
X010471Y011153D02*
X010409Y011091D01*
X010285Y011091D01*
X010960Y011153D02*
X011022Y011091D01*
X011146Y011091D01*
X011207Y011153D01*
X011207Y011214D01*
X011146Y011276D01*
X011084Y011276D01*
X011146Y011276D02*
X011207Y011338D01*
X011207Y011400D01*
X011146Y011461D01*
X011022Y011461D01*
X010960Y011400D01*
X010926Y012781D02*
X010926Y013151D01*
X010802Y013028D01*
X010681Y013090D02*
X010619Y013151D01*
X010495Y013151D01*
X010434Y013090D01*
X010434Y012843D01*
X010495Y012781D01*
X010619Y012781D01*
X010681Y012843D01*
X010802Y012781D02*
X011049Y012781D01*
X011170Y012781D02*
X011417Y012781D01*
X011294Y012781D02*
X011294Y013151D01*
X011170Y013028D01*
X011242Y014333D02*
X010995Y014333D01*
X011242Y014580D01*
X011242Y014641D01*
X011181Y014703D01*
X011057Y014703D01*
X010995Y014641D01*
X010874Y014333D02*
X010627Y014333D01*
X010751Y014333D02*
X010751Y014703D01*
X010627Y014580D01*
X010506Y014641D02*
X010444Y014703D01*
X010320Y014703D01*
X010259Y014641D01*
X010259Y014395D01*
X010320Y014333D01*
X010444Y014333D01*
X010506Y014395D01*
X010507Y015983D02*
X010754Y015983D01*
X010631Y015983D02*
X010631Y016353D01*
X010507Y016230D01*
X010386Y016291D02*
X010324Y016353D01*
X010200Y016353D01*
X010139Y016291D01*
X010139Y016045D01*
X010200Y015983D01*
X010324Y015983D01*
X010386Y016045D01*
X010875Y016168D02*
X011122Y016168D01*
X011061Y015983D02*
X011061Y016353D01*
X010875Y016168D01*
X008656Y013691D02*
X008717Y013630D01*
X008470Y013383D01*
X008532Y013321D01*
X008656Y013321D01*
X008717Y013383D01*
X008717Y013630D01*
X008656Y013691D02*
X008532Y013691D01*
X008470Y013630D01*
X008470Y013383D01*
X008349Y013321D02*
X008102Y013321D01*
X008226Y013321D02*
X008226Y013691D01*
X008102Y013568D01*
X007981Y013630D02*
X007919Y013691D01*
X007795Y013691D01*
X007734Y013630D01*
X007734Y013383D01*
X007795Y013321D01*
X007919Y013321D01*
X007981Y013383D01*
X008794Y012201D02*
X008732Y012140D01*
X008732Y011893D01*
X008794Y011831D01*
X008917Y011831D01*
X008979Y011893D01*
X009100Y011893D02*
X009162Y011831D01*
X009286Y011831D01*
X009347Y011893D01*
X009347Y012140D01*
X009286Y012201D01*
X009162Y012201D01*
X009100Y012140D01*
X009100Y012078D01*
X009162Y012016D01*
X009347Y012016D01*
X008979Y012140D02*
X008917Y012201D01*
X008794Y012201D01*
X005851Y015143D02*
X005727Y015143D01*
X005665Y015205D01*
X005665Y015328D02*
X005789Y015390D01*
X005851Y015390D01*
X005912Y015328D01*
X005912Y015205D01*
X005851Y015143D01*
X005665Y015328D02*
X005665Y015513D01*
X005912Y015513D01*
X005544Y015143D02*
X005297Y015143D01*
X005421Y015143D02*
X005421Y015513D01*
X005297Y015390D01*
X005176Y015451D02*
X005114Y015513D01*
X004990Y015513D01*
X004929Y015451D01*
X004929Y015205D01*
X004990Y015143D01*
X005114Y015143D01*
X005176Y015205D01*
D13*
X004009Y000652D02*
X004011Y000664D01*
X004017Y000676D01*
X004025Y000684D01*
X004037Y000690D01*
X004049Y000692D01*
X004061Y000690D01*
X004073Y000684D01*
X004081Y000676D01*
X004087Y000664D01*
X004089Y000652D01*
X004087Y000640D01*
X004081Y000628D01*
X004073Y000620D01*
X004061Y000614D01*
X004049Y000612D01*
X004037Y000614D01*
X004025Y000620D01*
X004017Y000628D01*
X004011Y000640D01*
X004009Y000652D01*
D14*
X006456Y005431D03*
X006456Y014073D03*
D15*
X006220Y005461D02*
X006222Y005469D01*
X006227Y005476D01*
X006234Y005480D01*
X006242Y005481D01*
X006250Y005478D01*
X006256Y005473D01*
X006260Y005465D01*
X006260Y005457D01*
X006256Y005449D01*
X006250Y005444D01*
X006242Y005441D01*
X006234Y005442D01*
X006227Y005446D01*
X006222Y005453D01*
X006220Y005461D01*
D16*
X006279Y004202D02*
X005079Y004202D01*
X005079Y003802D01*
X006279Y003802D01*
X006279Y004202D01*
X005029Y004002D02*
X005031Y004015D01*
X005036Y004028D01*
X005045Y004039D01*
X005056Y004046D01*
X005069Y004051D01*
X005082Y004052D01*
X005096Y004049D01*
X005108Y004043D01*
X005118Y004034D01*
X005125Y004022D01*
X005129Y004009D01*
X005129Y003995D01*
X005125Y003982D01*
X005118Y003970D01*
X005108Y003961D01*
X005096Y003955D01*
X005082Y003952D01*
X005069Y003953D01*
X005056Y003958D01*
X005045Y003965D01*
X005036Y003976D01*
X005031Y003989D01*
X005029Y004002D01*
M02*
