G75*
G70*
%OFA0B0*%
%FSLAX24Y24*%
%IPPOS*%
%LPD*%
%AMOC8*
5,1,8,0,0,1.08239X$1,22.5*
%
%ADD10C,0.0600*%
%ADD11R,0.1575X0.0157*%
%ADD12R,0.0413X0.0425*%
%ADD13R,0.0433X0.0394*%
%ADD14R,0.0512X0.0591*%
%ADD15R,0.0276X0.0354*%
%ADD16C,0.0080*%
%ADD17C,0.0160*%
%ADD18C,0.0310*%
D10*
X004429Y001202D02*
X004429Y001802D01*
X005429Y001802D02*
X005429Y001202D01*
X006429Y001202D02*
X006429Y001802D01*
X007429Y001802D02*
X007429Y001202D01*
X008429Y001202D02*
X008429Y001802D01*
X009429Y001802D02*
X009429Y001202D01*
X010429Y001202D02*
X010429Y001802D01*
X011429Y001802D02*
X011429Y001202D01*
X011429Y017202D02*
X011429Y017802D01*
X010429Y017802D02*
X010429Y017202D01*
X009429Y017202D02*
X009429Y017802D01*
X008429Y017802D02*
X008429Y017202D01*
X007429Y017202D02*
X007429Y017802D01*
X006429Y017802D02*
X006429Y017202D01*
X005429Y017202D02*
X005429Y017802D01*
X004429Y017802D02*
X004429Y017202D01*
D11*
X006929Y013748D03*
X006929Y013472D03*
X006929Y013197D03*
X006929Y012921D03*
X006929Y012646D03*
X006929Y012370D03*
X006929Y012094D03*
X006929Y011819D03*
X006929Y011543D03*
X006929Y011268D03*
X006929Y010992D03*
X006929Y010717D03*
X006929Y010441D03*
X006929Y010165D03*
X006929Y009890D03*
X006929Y009614D03*
X006929Y009339D03*
X006929Y009063D03*
X006929Y008787D03*
X006929Y008512D03*
X006929Y008236D03*
X006929Y007961D03*
X006929Y007685D03*
X006929Y007409D03*
X006929Y007134D03*
X006929Y006858D03*
X006929Y006583D03*
X006929Y006307D03*
X006929Y006031D03*
X006929Y005756D03*
D12*
X008774Y004412D03*
X009463Y004412D03*
X010334Y005252D03*
X011023Y005252D03*
X011023Y006752D03*
X010334Y006752D03*
X009523Y007502D03*
X008834Y007502D03*
X008834Y006002D03*
X009523Y006002D03*
X010334Y008252D03*
X011023Y008252D03*
X009273Y009002D03*
X008584Y009002D03*
X008584Y010002D03*
X009273Y010002D03*
X010334Y012252D03*
X011023Y012252D03*
X011273Y013502D03*
X010584Y013502D03*
X009773Y013502D03*
X009523Y012752D03*
X009084Y013502D03*
X008834Y012752D03*
X008834Y014502D03*
X009523Y014502D03*
X010334Y015502D03*
X011023Y015502D03*
X005773Y014752D03*
X005084Y014752D03*
D13*
X008844Y015502D03*
X009513Y015502D03*
D14*
X007303Y015252D03*
X006555Y015252D03*
D15*
X006073Y004002D03*
X005673Y004002D03*
X005273Y004002D03*
D16*
X006948Y006012D02*
X007759Y006012D01*
X007879Y005892D01*
X007879Y005132D01*
X007939Y005072D01*
X008039Y005452D02*
X008559Y004932D01*
X008599Y005252D02*
X010334Y005252D01*
X009999Y005692D02*
X011239Y005692D01*
X011359Y005572D01*
X011359Y005292D01*
X011319Y005252D01*
X011023Y005252D01*
X011599Y006012D02*
X009683Y006012D01*
X009523Y006002D01*
X009839Y005532D02*
X009999Y005692D01*
X009839Y005532D02*
X008599Y005532D01*
X008359Y005772D01*
X008359Y006572D01*
X008079Y006852D01*
X006935Y006852D01*
X006929Y006858D01*
X006929Y006583D02*
X006939Y006572D01*
X007839Y006572D01*
X008199Y006212D01*
X008199Y005652D01*
X008599Y005252D01*
X008599Y006012D02*
X008519Y006092D01*
X008519Y006652D01*
X008159Y007012D01*
X007919Y007012D01*
X007797Y007134D01*
X006929Y007134D01*
X006929Y007409D02*
X007761Y007409D01*
X007999Y007172D01*
X008239Y007172D01*
X008599Y006812D01*
X010274Y006812D01*
X010334Y006752D01*
X009879Y007092D02*
X009999Y007212D01*
X011159Y007212D01*
X011359Y007012D01*
X011359Y006812D01*
X011319Y006772D01*
X011043Y006772D01*
X011023Y006752D01*
X011599Y007492D02*
X009783Y007492D01*
X009523Y007502D01*
X009879Y007092D02*
X008599Y007092D01*
X008006Y007685D01*
X006929Y007685D01*
X006929Y007961D02*
X008050Y007961D01*
X008479Y007532D01*
X008804Y007532D01*
X008834Y007502D01*
X008063Y008236D02*
X008079Y008252D01*
X010334Y008252D01*
X009919Y008692D02*
X009739Y008512D01*
X006929Y008512D01*
X006929Y008236D02*
X008063Y008236D01*
X008094Y008787D02*
X006929Y008787D01*
X006929Y009063D02*
X007970Y009063D01*
X008399Y009492D01*
X009479Y009492D01*
X009639Y009652D01*
X009639Y009932D01*
X009559Y010012D01*
X009283Y010012D01*
X009273Y010002D01*
X009799Y010372D02*
X010239Y009932D01*
X011599Y009932D01*
X011599Y008972D02*
X009303Y008972D01*
X009273Y009002D01*
X008584Y009002D02*
X008574Y009012D01*
X008319Y009012D01*
X008094Y008787D01*
X007885Y009339D02*
X006929Y009339D01*
X006927Y009612D02*
X005919Y009612D01*
X005559Y009972D01*
X005559Y013332D01*
X005699Y013472D01*
X006929Y013472D01*
X006949Y013452D01*
X007879Y013452D01*
X008199Y013772D01*
X008199Y014492D01*
X008824Y014492D01*
X008834Y014502D01*
X008759Y013932D02*
X010039Y013932D01*
X010199Y013772D01*
X010199Y013502D01*
X009773Y013502D01*
X010199Y013502D02*
X010584Y013502D01*
X010199Y012972D02*
X009879Y012652D01*
X009879Y012452D01*
X009719Y012292D01*
X008599Y012292D01*
X008521Y012370D01*
X006929Y012370D01*
X006929Y012646D02*
X008392Y012646D01*
X008519Y012772D01*
X008814Y012772D01*
X008834Y012752D01*
X008228Y012921D02*
X008799Y013492D01*
X009074Y013492D01*
X009084Y013502D01*
X008759Y013932D02*
X008039Y013212D01*
X006944Y013212D01*
X006929Y013197D01*
X006929Y012921D02*
X008228Y012921D01*
X008159Y011652D02*
X008399Y011652D01*
X008479Y011572D01*
X008839Y011572D01*
X008959Y011452D01*
X009359Y011172D02*
X009199Y011012D01*
X006949Y011012D01*
X006929Y010992D01*
X006944Y011252D02*
X008199Y011252D01*
X008279Y011332D01*
X008039Y011532D02*
X008159Y011652D01*
X008039Y011532D02*
X006940Y011532D01*
X006929Y011543D01*
X006929Y011268D02*
X006944Y011252D01*
X006944Y010732D02*
X007879Y010732D01*
X007999Y010852D01*
X010839Y010852D01*
X010639Y010372D02*
X010479Y010212D01*
X010239Y010212D01*
X009919Y010532D01*
X008159Y010532D01*
X007959Y010332D01*
X007959Y010252D01*
X007879Y010172D01*
X006935Y010172D01*
X006929Y010165D01*
X006958Y010412D02*
X007799Y010412D01*
X008079Y010692D01*
X010119Y010692D01*
X010239Y010572D01*
X010279Y010572D01*
X009799Y010372D02*
X008239Y010372D01*
X008119Y010252D01*
X008119Y010012D01*
X007999Y009892D01*
X006931Y009892D01*
X006929Y009890D01*
X006929Y009614D02*
X006927Y009612D01*
X006958Y010412D02*
X006929Y010441D01*
X006929Y010717D02*
X006944Y010732D01*
X008039Y009652D02*
X008039Y009492D01*
X007885Y009339D01*
X008039Y009652D02*
X008359Y009972D01*
X008554Y009972D01*
X008584Y010002D01*
X009919Y008692D02*
X011239Y008692D01*
X011359Y008572D01*
X011359Y008332D01*
X011279Y008252D01*
X011023Y008252D01*
X008824Y006012D02*
X008834Y006002D01*
X008824Y006012D02*
X008599Y006012D01*
X008039Y006092D02*
X008039Y005452D01*
X008039Y006092D02*
X007839Y006292D01*
X006944Y006292D01*
X006929Y006307D01*
X006929Y006031D02*
X006948Y006012D01*
X008039Y004492D02*
X008694Y004492D01*
X008774Y004412D01*
X011063Y012212D02*
X011599Y012212D01*
X011063Y012212D02*
X011023Y012252D01*
X011283Y013492D02*
X011679Y013492D01*
X011283Y013492D02*
X011273Y013502D01*
X009999Y014492D02*
X009533Y014492D01*
X009523Y014502D01*
X009513Y015502D02*
X010334Y015502D01*
X011023Y015502D02*
X011033Y015492D01*
X011439Y015972D02*
X011679Y015732D01*
X011679Y015292D01*
X011439Y015972D02*
X008479Y015972D01*
X007999Y015492D01*
X007999Y014812D01*
X007439Y014252D01*
X004799Y014252D01*
X004639Y014412D01*
X004639Y014652D01*
X004739Y014752D01*
X005084Y014752D01*
X005773Y014752D02*
X005793Y014732D01*
X006039Y014732D01*
X006159Y014612D01*
X007519Y014612D01*
X007759Y014852D01*
X007759Y015212D01*
X007343Y015212D01*
X007303Y015252D01*
X007759Y015212D02*
X007759Y015572D01*
X008439Y016252D01*
X009679Y016252D01*
X010429Y017002D01*
X010429Y017502D01*
X009429Y017502D02*
X009429Y016882D01*
X009039Y016492D01*
X008279Y016492D01*
X007679Y015892D01*
X006359Y015892D01*
X006079Y015612D01*
X006079Y015372D01*
X006199Y015252D01*
X006555Y015252D01*
X008199Y015212D02*
X008199Y014492D01*
X008199Y015212D02*
X008489Y015502D01*
X008844Y015502D01*
X009523Y012752D02*
X009543Y012732D01*
X009799Y012732D01*
X009879Y012652D01*
D17*
X010079Y012252D02*
X010334Y012252D01*
X010079Y012252D02*
X009699Y011872D01*
X009699Y011832D01*
X009679Y011812D01*
X009639Y011812D02*
X009699Y011872D01*
X009639Y011812D02*
X008599Y011812D01*
X008319Y012092D01*
X007999Y012092D01*
X007999Y011892D01*
X007919Y011812D01*
X006936Y011812D01*
X006929Y011819D01*
X006931Y012092D02*
X007999Y012092D01*
X006931Y012092D02*
X006929Y012094D01*
X005279Y015852D02*
X004639Y015852D01*
X004279Y015492D01*
X004279Y007772D01*
X005279Y006772D01*
X005279Y005852D01*
X004959Y004932D02*
X007639Y004932D01*
X007779Y005072D01*
X007939Y005072D01*
X008039Y004972D01*
X008039Y004492D01*
X008039Y004132D01*
X008359Y003812D01*
X011119Y003812D01*
X011599Y004292D01*
X011599Y006012D01*
X011599Y007492D01*
X011599Y008972D01*
X011599Y009932D01*
X011599Y012212D01*
X011679Y012292D01*
X011679Y013492D01*
X011679Y015292D01*
X011679Y015332D01*
X011439Y015492D01*
X011033Y015492D01*
X008429Y017502D02*
X008279Y017352D01*
X008279Y016852D01*
X007759Y016332D01*
X005759Y016332D01*
X005279Y015852D01*
X004959Y004932D02*
X004439Y004412D01*
X004439Y001512D01*
X004429Y001502D01*
X005273Y004002D02*
X005273Y004498D01*
X005239Y004532D01*
X005679Y004292D02*
X005679Y004008D01*
X005673Y004002D01*
X005679Y004292D02*
X005959Y004572D01*
X007319Y004572D01*
X006639Y004012D02*
X007199Y003452D01*
X010439Y003452D01*
X011429Y002462D01*
X011429Y001502D01*
X009719Y004412D02*
X009463Y004412D01*
X009719Y004412D02*
X009839Y004532D01*
X009839Y004612D01*
X011199Y004612D01*
X009839Y004612D02*
X009839Y004732D01*
X009639Y004932D01*
X008559Y004932D01*
X008399Y004932D01*
X006639Y004012D02*
X006083Y004012D01*
X006073Y004002D01*
D18*
X005239Y004532D03*
X005279Y005852D03*
X007319Y004572D03*
X008399Y004932D03*
X011199Y004612D03*
X010639Y010372D03*
X010839Y010852D03*
X010279Y010572D03*
X009359Y011172D03*
X009679Y011812D03*
X008959Y011452D03*
X008279Y011332D03*
X010199Y012972D03*
X009999Y014492D03*
M02*
