G75*
G70*
%OFA0B0*%
%FSLAX24Y24*%
%IPPOS*%
%LPD*%
%AMOC8*
5,1,8,0,0,1.08239X$1,22.5*
%
%ADD10C,0.0600*%
%ADD11R,0.0512X0.0591*%
%ADD12R,0.0350X0.0310*%
%ADD13R,0.0110X0.0335*%
%ADD14R,0.0335X0.0110*%
%ADD15R,0.0669X0.0669*%
%ADD16R,0.0591X0.0512*%
%ADD17R,0.1000X0.2280*%
%ADD18R,0.0354X0.0276*%
D10*
X001282Y000841D02*
X001282Y001441D01*
X002282Y001441D02*
X002282Y000841D01*
X003282Y000841D02*
X003282Y001441D01*
X004282Y001441D02*
X004282Y000841D01*
X005282Y000841D02*
X005282Y001441D01*
X005032Y011091D02*
X005032Y011691D01*
X005282Y012841D02*
X005282Y013441D01*
X004282Y013441D02*
X004282Y012841D01*
X004032Y011691D02*
X004032Y011091D01*
X003282Y012841D02*
X003282Y013441D01*
X003032Y011691D02*
X003032Y011091D01*
X002282Y012841D02*
X002282Y013441D01*
X001282Y013441D02*
X001282Y012841D01*
D11*
X003908Y007141D03*
X004656Y007141D03*
D12*
X004882Y003031D03*
X004882Y002271D03*
X005682Y002651D03*
D13*
X002577Y006560D03*
X002381Y006560D03*
X002184Y006560D03*
X001987Y006560D03*
X001987Y007722D03*
X002184Y007722D03*
X002381Y007722D03*
X002577Y007722D03*
D14*
X002863Y007446D03*
X002863Y007249D03*
X002863Y007053D03*
X002863Y006856D03*
X001701Y006846D03*
X001701Y007043D03*
X001701Y007240D03*
X001701Y007436D03*
D15*
X002282Y007141D03*
D16*
X002532Y008767D03*
X002532Y009515D03*
X002282Y010517D03*
X002282Y011265D03*
X001282Y011265D03*
X001282Y010517D03*
X001282Y009515D03*
X001282Y008767D03*
X001532Y005265D03*
X001532Y004517D03*
X001532Y003515D03*
X001532Y002767D03*
X002532Y002767D03*
X002532Y003515D03*
X002532Y004517D03*
X002532Y005265D03*
X003782Y005015D03*
X003782Y004267D03*
X003782Y003265D03*
X003782Y002517D03*
X005282Y004267D03*
X005282Y005015D03*
D17*
X005382Y009141D03*
X003682Y009141D03*
D18*
X005692Y006677D03*
X005692Y006277D03*
X005692Y005877D03*
M02*
