G75*
G70*
%OFA0B0*%
%FSLAX24Y24*%
%IPPOS*%
%LPD*%
%AMOC8*
5,1,8,0,0,1.08239X$1,22.5*
%
%ADD10C,0.0600*%
%ADD11R,0.0354X0.0276*%
%ADD12C,0.0080*%
%ADD13C,0.0310*%
%ADD14C,0.0160*%
D10*
X001282Y000841D02*
X001282Y001441D01*
X002282Y001441D02*
X002282Y000841D01*
X003282Y000841D02*
X003282Y001441D01*
X004282Y001441D02*
X004282Y000841D01*
X005282Y000841D02*
X005282Y001441D01*
X005032Y011091D02*
X005032Y011691D01*
X005282Y012841D02*
X005282Y013441D01*
X004282Y013441D02*
X004282Y012841D01*
X004032Y011691D02*
X004032Y011091D01*
X003282Y012841D02*
X003282Y013441D01*
X003032Y011691D02*
X003032Y011091D01*
X002282Y012841D02*
X002282Y013441D01*
X001282Y013441D02*
X001282Y012841D01*
D11*
X001282Y005735D03*
X001282Y005335D03*
D12*
X000722Y000581D02*
X000722Y013701D01*
X000920Y013701D01*
X000909Y013690D01*
X000842Y013529D01*
X000842Y013181D01*
X001242Y013181D01*
X001242Y013101D01*
X000842Y013101D01*
X000842Y012754D01*
X000909Y012592D01*
X001033Y012468D01*
X001195Y012401D01*
X001242Y012401D01*
X001242Y013101D01*
X001322Y013101D01*
X001322Y012401D01*
X001370Y012401D01*
X001531Y012468D01*
X001655Y012592D01*
X001722Y012754D01*
X001722Y013101D01*
X001322Y013101D01*
X001242Y013101D01*
X001242Y013179D02*
X000722Y013179D01*
X000722Y013101D02*
X000842Y013101D01*
X000842Y013022D02*
X000722Y013022D01*
X000722Y012944D02*
X000842Y012944D01*
X000842Y012865D02*
X000722Y012865D01*
X000722Y012787D02*
X000842Y012787D01*
X000861Y012708D02*
X000722Y012708D01*
X000722Y012629D02*
X000894Y012629D01*
X000950Y012551D02*
X000722Y012551D01*
X000722Y012472D02*
X001029Y012472D01*
X001242Y012472D02*
X001322Y012472D01*
X001322Y012551D02*
X001242Y012551D01*
X001242Y012629D02*
X001322Y012629D01*
X001322Y012708D02*
X001242Y012708D01*
X001242Y012787D02*
X001322Y012787D01*
X001322Y012865D02*
X001242Y012865D01*
X001242Y012944D02*
X001322Y012944D01*
X001322Y013022D02*
X001242Y013022D01*
X001322Y013101D02*
X001322Y013181D01*
X001722Y013181D01*
X001722Y013529D01*
X001655Y013690D01*
X001644Y013701D01*
X001920Y013701D01*
X001909Y013690D01*
X001842Y013529D01*
X001842Y013181D01*
X002242Y013181D01*
X002242Y013101D01*
X001842Y013101D01*
X001842Y012754D01*
X001909Y012592D01*
X002033Y012468D01*
X002195Y012401D01*
X002242Y012401D01*
X002242Y013101D01*
X002322Y013101D01*
X002322Y012401D01*
X002370Y012401D01*
X002531Y012468D01*
X002655Y012592D01*
X002722Y012754D01*
X002722Y013101D01*
X002322Y013101D01*
X002242Y013101D01*
X002242Y013179D02*
X001322Y013179D01*
X001672Y013651D02*
X001893Y013651D01*
X001860Y013572D02*
X001704Y013572D01*
X001722Y013493D02*
X001842Y013493D01*
X001842Y013415D02*
X001722Y013415D01*
X001722Y013336D02*
X001842Y013336D01*
X001842Y013258D02*
X001722Y013258D01*
X001722Y013101D02*
X001842Y013101D01*
X001842Y013022D02*
X001722Y013022D01*
X001722Y012944D02*
X001842Y012944D01*
X001842Y012865D02*
X001722Y012865D01*
X001722Y012787D02*
X001842Y012787D01*
X001861Y012708D02*
X001703Y012708D01*
X001671Y012629D02*
X001894Y012629D01*
X001950Y012551D02*
X001614Y012551D01*
X001536Y012472D02*
X002029Y012472D01*
X002242Y012472D02*
X002322Y012472D01*
X002322Y012551D02*
X002242Y012551D01*
X002242Y012629D02*
X002322Y012629D01*
X002322Y012708D02*
X002242Y012708D01*
X002242Y012787D02*
X002322Y012787D01*
X002322Y012865D02*
X002242Y012865D01*
X002242Y012944D02*
X002322Y012944D01*
X002322Y013022D02*
X002242Y013022D01*
X002322Y013101D02*
X002322Y013181D01*
X002722Y013181D01*
X002722Y013529D01*
X002655Y013690D01*
X002644Y013701D01*
X002892Y013701D01*
X002822Y013533D01*
X002822Y012750D01*
X002892Y012581D01*
X003022Y012451D01*
X003042Y012443D01*
X003042Y012413D01*
X003079Y012325D01*
X003239Y012165D01*
X003306Y012098D01*
X003394Y012061D01*
X003780Y012061D01*
X003659Y011940D01*
X003592Y011779D01*
X003592Y011431D01*
X003992Y011431D01*
X003992Y011351D01*
X003592Y011351D01*
X003592Y011004D01*
X003659Y010842D01*
X003783Y010718D01*
X003945Y010651D01*
X003992Y010651D01*
X003992Y011351D01*
X004072Y011351D01*
X004072Y010651D01*
X004120Y010651D01*
X004281Y010718D01*
X004405Y010842D01*
X004472Y011004D01*
X004472Y011351D01*
X004072Y011351D01*
X004072Y011431D01*
X004472Y011431D01*
X004472Y011779D01*
X004405Y011940D01*
X004284Y012061D01*
X004752Y012061D01*
X004642Y011952D01*
X004572Y011783D01*
X004572Y011000D01*
X004642Y010831D01*
X004772Y010701D01*
X004792Y010693D01*
X004792Y010663D01*
X004829Y010575D01*
X004896Y010508D01*
X004896Y010508D01*
X004943Y010461D01*
X003325Y010461D01*
X003119Y010461D01*
X003002Y010344D01*
X003002Y010178D01*
X003002Y008018D01*
X003119Y007901D01*
X003159Y007861D01*
X003325Y007861D01*
X004802Y007861D01*
X004802Y007853D01*
X004802Y007161D01*
X004463Y006821D01*
X003808Y006821D01*
X003781Y006848D01*
X003665Y006896D01*
X003540Y006896D01*
X003424Y006848D01*
X003335Y006760D01*
X003287Y006644D01*
X003287Y006518D01*
X003335Y006403D01*
X003424Y006314D01*
X003540Y006266D01*
X003665Y006266D01*
X003781Y006314D01*
X003808Y006341D01*
X004514Y006341D01*
X004607Y006341D01*
X004607Y006238D01*
X004655Y006123D01*
X004744Y006034D01*
X004860Y005986D01*
X004985Y005986D01*
X005101Y006034D01*
X005189Y006123D01*
X005237Y006238D01*
X005237Y006364D01*
X005228Y006387D01*
X005458Y006618D01*
X005526Y006685D01*
X005562Y006773D01*
X005562Y007346D01*
X005660Y007306D01*
X005785Y007306D01*
X005842Y007330D01*
X005842Y000581D01*
X005672Y000581D01*
X005742Y000750D01*
X005742Y001533D01*
X005672Y001702D01*
X005543Y001831D01*
X005374Y001901D01*
X005191Y001901D01*
X005022Y001831D01*
X004892Y001702D01*
X004822Y001533D01*
X004822Y000750D01*
X004892Y000581D01*
X004672Y000581D01*
X004742Y000750D01*
X004742Y001533D01*
X004672Y001702D01*
X004543Y001831D01*
X004374Y001901D01*
X004191Y001901D01*
X004022Y001831D01*
X003892Y001702D01*
X003822Y001533D01*
X003822Y000750D01*
X003892Y000581D01*
X003672Y000581D01*
X003742Y000750D01*
X003742Y001533D01*
X003672Y001702D01*
X003543Y001831D01*
X003374Y001901D01*
X003191Y001901D01*
X003022Y001831D01*
X002892Y001702D01*
X002822Y001533D01*
X002822Y000750D01*
X002892Y000581D01*
X002672Y000581D01*
X002742Y000750D01*
X002742Y001533D01*
X002672Y001702D01*
X002543Y001831D01*
X002374Y001901D01*
X002191Y001901D01*
X002022Y001831D01*
X001892Y001702D01*
X001822Y001533D01*
X001822Y000750D01*
X001892Y000581D01*
X001672Y000581D01*
X001742Y000750D01*
X001742Y001533D01*
X001672Y001702D01*
X001543Y001831D01*
X001374Y001901D01*
X001191Y001901D01*
X001022Y001831D01*
X000892Y001702D01*
X000822Y001533D01*
X000822Y000750D01*
X000892Y000581D01*
X000722Y000581D01*
X000722Y000612D02*
X000879Y000612D01*
X000846Y000691D02*
X000722Y000691D01*
X000722Y000769D02*
X000822Y000769D01*
X000822Y000848D02*
X000722Y000848D01*
X000722Y000927D02*
X000822Y000927D01*
X000822Y001005D02*
X000722Y001005D01*
X000722Y001084D02*
X000822Y001084D01*
X000822Y001162D02*
X000722Y001162D01*
X000722Y001241D02*
X000822Y001241D01*
X000822Y001319D02*
X000722Y001319D01*
X000722Y001398D02*
X000822Y001398D01*
X000822Y001476D02*
X000722Y001476D01*
X000722Y001555D02*
X000831Y001555D01*
X000864Y001633D02*
X000722Y001633D01*
X000722Y001712D02*
X000903Y001712D01*
X000981Y001791D02*
X000722Y001791D01*
X000722Y001869D02*
X001113Y001869D01*
X001451Y001869D02*
X002113Y001869D01*
X001981Y001791D02*
X001583Y001791D01*
X001662Y001712D02*
X001903Y001712D01*
X001864Y001633D02*
X001700Y001633D01*
X001733Y001555D02*
X001831Y001555D01*
X001822Y001476D02*
X001742Y001476D01*
X001742Y001398D02*
X001822Y001398D01*
X001822Y001319D02*
X001742Y001319D01*
X001742Y001241D02*
X001822Y001241D01*
X001822Y001162D02*
X001742Y001162D01*
X001742Y001084D02*
X001822Y001084D01*
X001822Y001005D02*
X001742Y001005D01*
X001742Y000927D02*
X001822Y000927D01*
X001822Y000848D02*
X001742Y000848D01*
X001742Y000769D02*
X001822Y000769D01*
X001846Y000691D02*
X001718Y000691D01*
X001685Y000612D02*
X001879Y000612D01*
X002451Y001869D02*
X003113Y001869D01*
X002981Y001791D02*
X002583Y001791D01*
X002662Y001712D02*
X002903Y001712D01*
X002864Y001633D02*
X002700Y001633D01*
X002733Y001555D02*
X002831Y001555D01*
X002822Y001476D02*
X002742Y001476D01*
X002742Y001398D02*
X002822Y001398D01*
X002822Y001319D02*
X002742Y001319D01*
X002742Y001241D02*
X002822Y001241D01*
X002822Y001162D02*
X002742Y001162D01*
X002742Y001084D02*
X002822Y001084D01*
X002822Y001005D02*
X002742Y001005D01*
X002742Y000927D02*
X002822Y000927D01*
X002822Y000848D02*
X002742Y000848D01*
X002742Y000769D02*
X002822Y000769D01*
X002846Y000691D02*
X002718Y000691D01*
X002685Y000612D02*
X002879Y000612D01*
X003451Y001869D02*
X004113Y001869D01*
X003981Y001791D02*
X003583Y001791D01*
X003662Y001712D02*
X003903Y001712D01*
X003864Y001633D02*
X003700Y001633D01*
X003733Y001555D02*
X003831Y001555D01*
X003822Y001476D02*
X003742Y001476D01*
X003742Y001398D02*
X003822Y001398D01*
X003822Y001319D02*
X003742Y001319D01*
X003742Y001241D02*
X003822Y001241D01*
X003822Y001162D02*
X003742Y001162D01*
X003742Y001084D02*
X003822Y001084D01*
X003822Y001005D02*
X003742Y001005D01*
X003742Y000927D02*
X003822Y000927D01*
X003822Y000848D02*
X003742Y000848D01*
X003742Y000769D02*
X003822Y000769D01*
X003846Y000691D02*
X003718Y000691D01*
X003685Y000612D02*
X003879Y000612D01*
X004451Y001869D02*
X005113Y001869D01*
X004981Y001791D02*
X004583Y001791D01*
X004662Y001712D02*
X004903Y001712D01*
X004864Y001633D02*
X004700Y001633D01*
X004733Y001555D02*
X004831Y001555D01*
X004822Y001476D02*
X004742Y001476D01*
X004742Y001398D02*
X004822Y001398D01*
X004822Y001319D02*
X004742Y001319D01*
X004742Y001241D02*
X004822Y001241D01*
X004822Y001162D02*
X004742Y001162D01*
X004742Y001084D02*
X004822Y001084D01*
X004822Y001005D02*
X004742Y001005D01*
X004742Y000927D02*
X004822Y000927D01*
X004822Y000848D02*
X004742Y000848D01*
X004742Y000769D02*
X004822Y000769D01*
X004846Y000691D02*
X004718Y000691D01*
X004685Y000612D02*
X004879Y000612D01*
X005451Y001869D02*
X005842Y001869D01*
X005842Y001791D02*
X005583Y001791D01*
X005662Y001712D02*
X005842Y001712D01*
X005842Y001633D02*
X005700Y001633D01*
X005733Y001555D02*
X005842Y001555D01*
X005842Y001476D02*
X005742Y001476D01*
X005742Y001398D02*
X005842Y001398D01*
X005842Y001319D02*
X005742Y001319D01*
X005742Y001241D02*
X005842Y001241D01*
X005842Y001162D02*
X005742Y001162D01*
X005742Y001084D02*
X005842Y001084D01*
X005842Y001005D02*
X005742Y001005D01*
X005742Y000927D02*
X005842Y000927D01*
X005842Y000848D02*
X005742Y000848D01*
X005742Y000769D02*
X005842Y000769D01*
X005842Y000691D02*
X005718Y000691D01*
X005685Y000612D02*
X005842Y000612D01*
X005842Y001948D02*
X000722Y001948D01*
X000722Y002026D02*
X005842Y002026D01*
X005842Y002105D02*
X000722Y002105D01*
X000722Y002183D02*
X005842Y002183D01*
X005842Y002262D02*
X000722Y002262D01*
X000722Y002340D02*
X005842Y002340D01*
X005842Y002419D02*
X000722Y002419D01*
X000722Y002497D02*
X005842Y002497D01*
X005842Y002576D02*
X000722Y002576D01*
X000722Y002654D02*
X005842Y002654D01*
X005842Y002733D02*
X000722Y002733D01*
X000722Y002812D02*
X005842Y002812D01*
X005842Y002890D02*
X000722Y002890D01*
X000722Y002969D02*
X005842Y002969D01*
X005842Y003047D02*
X000722Y003047D01*
X000722Y003126D02*
X005842Y003126D01*
X005842Y003204D02*
X000722Y003204D01*
X000722Y003283D02*
X005842Y003283D01*
X005842Y003361D02*
X004628Y003361D01*
X004621Y003354D02*
X004709Y003443D01*
X004757Y003558D01*
X004757Y003684D01*
X004709Y003800D01*
X004642Y003867D01*
X004642Y005664D01*
X004642Y005744D01*
X004402Y005984D01*
X004285Y006101D01*
X003928Y006101D01*
X003861Y006168D01*
X003745Y006216D01*
X003620Y006216D01*
X003504Y006168D01*
X003415Y006080D01*
X003367Y005964D01*
X003367Y005838D01*
X003415Y005723D01*
X003504Y005634D01*
X003620Y005586D01*
X003745Y005586D01*
X003861Y005634D01*
X003928Y005701D01*
X004119Y005701D01*
X004242Y005578D01*
X004242Y003867D01*
X004175Y003800D01*
X004127Y003684D01*
X004127Y003558D01*
X004175Y003443D01*
X004264Y003354D01*
X004380Y003306D01*
X004505Y003306D01*
X004621Y003354D01*
X004706Y003440D02*
X005842Y003440D01*
X005842Y003518D02*
X004741Y003518D01*
X004757Y003597D02*
X005842Y003597D01*
X005842Y003676D02*
X004757Y003676D01*
X004728Y003754D02*
X005842Y003754D01*
X005842Y003833D02*
X004676Y003833D01*
X004642Y003911D02*
X005842Y003911D01*
X005842Y003990D02*
X004642Y003990D01*
X004642Y004068D02*
X005842Y004068D01*
X005842Y004147D02*
X004642Y004147D01*
X004642Y004225D02*
X005842Y004225D01*
X005842Y004304D02*
X004642Y004304D01*
X004642Y004382D02*
X005842Y004382D01*
X005842Y004461D02*
X004642Y004461D01*
X004642Y004540D02*
X005842Y004540D01*
X005842Y004618D02*
X004642Y004618D01*
X004642Y004697D02*
X005842Y004697D01*
X005842Y004775D02*
X004642Y004775D01*
X004642Y004854D02*
X005842Y004854D01*
X005842Y004932D02*
X004642Y004932D01*
X004642Y005011D02*
X005842Y005011D01*
X005842Y005089D02*
X004642Y005089D01*
X004642Y005168D02*
X005842Y005168D01*
X005842Y005246D02*
X004642Y005246D01*
X004642Y005325D02*
X005842Y005325D01*
X005842Y005404D02*
X004642Y005404D01*
X004642Y005482D02*
X005842Y005482D01*
X005842Y005561D02*
X004642Y005561D01*
X004642Y005639D02*
X005842Y005639D01*
X005842Y005718D02*
X004642Y005718D01*
X004590Y005796D02*
X005842Y005796D01*
X005842Y005875D02*
X004511Y005875D01*
X004433Y005953D02*
X005842Y005953D01*
X005842Y006032D02*
X005095Y006032D01*
X005177Y006110D02*
X005842Y006110D01*
X005842Y006189D02*
X005217Y006189D01*
X005237Y006267D02*
X005842Y006267D01*
X005842Y006346D02*
X005237Y006346D01*
X005265Y006425D02*
X005842Y006425D01*
X005842Y006503D02*
X005344Y006503D01*
X005422Y006582D02*
X005842Y006582D01*
X005842Y006660D02*
X005501Y006660D01*
X005548Y006739D02*
X005842Y006739D01*
X005842Y006817D02*
X005562Y006817D01*
X005562Y006896D02*
X005842Y006896D01*
X005842Y006974D02*
X005562Y006974D01*
X005562Y007053D02*
X005842Y007053D01*
X005842Y007131D02*
X005562Y007131D01*
X005562Y007210D02*
X005842Y007210D01*
X005842Y007289D02*
X005562Y007289D01*
X004802Y007289D02*
X003322Y007289D01*
X003322Y007309D02*
X003338Y007356D01*
X003322Y007388D01*
X003322Y007424D01*
X003287Y007460D01*
X003264Y007505D01*
X003230Y007516D01*
X002685Y008061D01*
X002519Y008061D01*
X001965Y008061D01*
X001799Y008061D01*
X001519Y007781D01*
X001049Y007781D01*
X001018Y007797D01*
X000970Y007781D01*
X000919Y007781D01*
X000894Y007756D01*
X000860Y007745D01*
X000838Y007700D01*
X000802Y007664D01*
X000802Y007628D01*
X000798Y007620D01*
X000762Y007584D01*
X000762Y007548D01*
X000746Y007516D01*
X000762Y007469D01*
X000762Y005538D01*
X000879Y005421D01*
X000965Y005421D01*
X000965Y005364D01*
X001253Y005364D01*
X001253Y005306D01*
X001311Y005306D01*
X001311Y005057D01*
X001517Y005057D01*
X001599Y005139D01*
X001599Y005306D01*
X001311Y005306D01*
X001311Y005364D01*
X001599Y005364D01*
X001599Y005421D01*
X002725Y005421D01*
X002842Y005538D01*
X003002Y005698D01*
X003002Y005864D01*
X003002Y006618D01*
X003081Y006697D01*
X003126Y006719D01*
X003137Y006753D01*
X003162Y006778D01*
X003162Y006829D01*
X003297Y007233D01*
X003322Y007258D01*
X003322Y007309D01*
X003333Y007367D02*
X004802Y007367D01*
X004802Y007446D02*
X003300Y007446D01*
X003222Y007524D02*
X004802Y007524D01*
X004802Y007603D02*
X003143Y007603D01*
X003065Y007681D02*
X004802Y007681D01*
X004802Y007760D02*
X002986Y007760D01*
X002908Y007838D02*
X004802Y007838D01*
X004802Y007210D02*
X003289Y007210D01*
X003263Y007131D02*
X004773Y007131D01*
X004695Y007053D02*
X003237Y007053D01*
X003211Y006974D02*
X004616Y006974D01*
X004538Y006896D02*
X003665Y006896D01*
X003539Y006896D02*
X003185Y006896D01*
X003162Y006817D02*
X003393Y006817D01*
X003327Y006739D02*
X003132Y006739D01*
X003044Y006660D02*
X003294Y006660D01*
X003287Y006582D02*
X003002Y006582D01*
X003002Y006503D02*
X003294Y006503D01*
X003326Y006425D02*
X003002Y006425D01*
X003002Y006346D02*
X003392Y006346D01*
X003536Y006267D02*
X003002Y006267D01*
X003002Y006189D02*
X003554Y006189D01*
X003446Y006110D02*
X003002Y006110D01*
X003002Y006032D02*
X003395Y006032D01*
X003367Y005953D02*
X003002Y005953D01*
X003002Y005875D02*
X003367Y005875D01*
X003385Y005796D02*
X003002Y005796D01*
X003002Y005718D02*
X003420Y005718D01*
X003499Y005639D02*
X002943Y005639D01*
X002865Y005561D02*
X004242Y005561D01*
X004242Y005482D02*
X002786Y005482D01*
X002642Y005621D02*
X002802Y005781D01*
X002802Y006701D01*
X002962Y006861D01*
X003122Y007341D01*
X002602Y007861D01*
X001882Y007861D01*
X001602Y007581D01*
X001002Y007581D01*
X000962Y007501D01*
X000962Y005621D01*
X000965Y005621D01*
X000965Y005706D01*
X001253Y005706D01*
X001253Y005764D01*
X000965Y005764D01*
X000965Y005931D01*
X001047Y006013D01*
X001253Y006013D01*
X001253Y005764D01*
X001311Y005764D01*
X001311Y006013D01*
X001517Y006013D01*
X001599Y005931D01*
X001599Y005764D01*
X001311Y005764D01*
X001311Y005706D01*
X001599Y005706D01*
X001599Y005621D01*
X002642Y005621D01*
X002660Y005639D02*
X001599Y005639D01*
X001599Y005796D02*
X002802Y005796D01*
X002802Y005875D02*
X001599Y005875D01*
X001577Y005953D02*
X002802Y005953D01*
X002802Y006032D02*
X000962Y006032D01*
X000962Y006110D02*
X002802Y006110D01*
X002802Y006189D02*
X000962Y006189D01*
X000962Y006267D02*
X002802Y006267D01*
X002802Y006346D02*
X000962Y006346D01*
X000962Y006425D02*
X002802Y006425D01*
X002802Y006503D02*
X000962Y006503D01*
X000962Y006582D02*
X002802Y006582D01*
X002802Y006660D02*
X000962Y006660D01*
X000962Y006739D02*
X002840Y006739D01*
X002918Y006817D02*
X000962Y006817D01*
X000962Y006896D02*
X002974Y006896D01*
X003000Y006974D02*
X000962Y006974D01*
X000962Y007053D02*
X003026Y007053D01*
X003052Y007131D02*
X000962Y007131D01*
X000962Y007210D02*
X003079Y007210D01*
X003105Y007289D02*
X000962Y007289D01*
X000962Y007367D02*
X003096Y007367D01*
X003018Y007446D02*
X000962Y007446D01*
X000974Y007524D02*
X002939Y007524D01*
X002861Y007603D02*
X001624Y007603D01*
X001577Y007838D02*
X000722Y007838D01*
X000722Y007760D02*
X000898Y007760D01*
X000820Y007681D02*
X000722Y007681D01*
X000722Y007603D02*
X000781Y007603D01*
X000750Y007524D02*
X000722Y007524D01*
X000722Y007446D02*
X000762Y007446D01*
X000762Y007367D02*
X000722Y007367D01*
X000722Y007289D02*
X000762Y007289D01*
X000762Y007210D02*
X000722Y007210D01*
X000722Y007131D02*
X000762Y007131D01*
X000762Y007053D02*
X000722Y007053D01*
X000722Y006974D02*
X000762Y006974D01*
X000762Y006896D02*
X000722Y006896D01*
X000722Y006817D02*
X000762Y006817D01*
X000762Y006739D02*
X000722Y006739D01*
X000722Y006660D02*
X000762Y006660D01*
X000762Y006582D02*
X000722Y006582D01*
X000722Y006503D02*
X000762Y006503D01*
X000762Y006425D02*
X000722Y006425D01*
X000722Y006346D02*
X000762Y006346D01*
X000762Y006267D02*
X000722Y006267D01*
X000722Y006189D02*
X000762Y006189D01*
X000762Y006110D02*
X000722Y006110D01*
X000722Y006032D02*
X000762Y006032D01*
X000762Y005953D02*
X000722Y005953D01*
X000722Y005875D02*
X000762Y005875D01*
X000762Y005796D02*
X000722Y005796D01*
X000722Y005718D02*
X000762Y005718D01*
X000762Y005639D02*
X000722Y005639D01*
X000722Y005561D02*
X000762Y005561D01*
X000722Y005482D02*
X000818Y005482D01*
X000722Y005404D02*
X000965Y005404D01*
X000965Y005306D02*
X000965Y005139D01*
X001047Y005057D01*
X001253Y005057D01*
X001253Y005306D01*
X000965Y005306D01*
X000965Y005246D02*
X000722Y005246D01*
X000722Y005168D02*
X000965Y005168D01*
X001015Y005089D02*
X000722Y005089D01*
X000722Y005011D02*
X004242Y005011D01*
X004242Y005089D02*
X001549Y005089D01*
X001599Y005168D02*
X004242Y005168D01*
X004242Y005246D02*
X001599Y005246D01*
X001599Y005404D02*
X004242Y005404D01*
X004242Y005325D02*
X001311Y005325D01*
X001253Y005325D02*
X000722Y005325D01*
X000722Y004932D02*
X004242Y004932D01*
X004242Y004854D02*
X000722Y004854D01*
X000722Y004775D02*
X004242Y004775D01*
X004242Y004697D02*
X000722Y004697D01*
X000722Y004618D02*
X004242Y004618D01*
X004242Y004540D02*
X000722Y004540D01*
X000722Y004461D02*
X004242Y004461D01*
X004242Y004382D02*
X000722Y004382D01*
X000722Y004304D02*
X004242Y004304D01*
X004242Y004225D02*
X000722Y004225D01*
X000722Y004147D02*
X004242Y004147D01*
X004242Y004068D02*
X000722Y004068D01*
X000722Y003990D02*
X004242Y003990D01*
X004242Y003911D02*
X000722Y003911D01*
X000722Y003833D02*
X004208Y003833D01*
X004156Y003754D02*
X000722Y003754D01*
X000722Y003676D02*
X004127Y003676D01*
X004127Y003597D02*
X000722Y003597D01*
X000722Y003518D02*
X004144Y003518D01*
X004178Y003440D02*
X000722Y003440D01*
X000722Y003361D02*
X004256Y003361D01*
X004442Y003621D02*
X004442Y005581D01*
X004442Y005661D01*
X004202Y005901D01*
X003682Y005901D01*
X003810Y006189D02*
X004628Y006189D01*
X004607Y006267D02*
X003668Y006267D01*
X003918Y006110D02*
X004667Y006110D01*
X004749Y006032D02*
X004354Y006032D01*
X004181Y005639D02*
X003866Y005639D01*
X003104Y007917D02*
X002829Y007917D01*
X002751Y007995D02*
X003025Y007995D01*
X003002Y008074D02*
X000722Y008074D01*
X000722Y008153D02*
X003002Y008153D01*
X003002Y008231D02*
X000722Y008231D01*
X000722Y008310D02*
X003002Y008310D01*
X003002Y008388D02*
X000722Y008388D01*
X000722Y008467D02*
X003002Y008467D01*
X003002Y008545D02*
X000722Y008545D01*
X000722Y008624D02*
X003002Y008624D01*
X003002Y008702D02*
X000722Y008702D01*
X000722Y008781D02*
X003002Y008781D01*
X003002Y008859D02*
X000722Y008859D01*
X000722Y008938D02*
X003002Y008938D01*
X003002Y009016D02*
X000722Y009016D01*
X000722Y009095D02*
X003002Y009095D01*
X003002Y009174D02*
X000722Y009174D01*
X000722Y009252D02*
X003002Y009252D01*
X003002Y009331D02*
X000722Y009331D01*
X000722Y009409D02*
X003002Y009409D01*
X003002Y009488D02*
X000722Y009488D01*
X000722Y009566D02*
X003002Y009566D01*
X003002Y009645D02*
X000722Y009645D01*
X000722Y009723D02*
X003002Y009723D01*
X003002Y009802D02*
X000722Y009802D01*
X000722Y009880D02*
X003002Y009880D01*
X003002Y009959D02*
X000722Y009959D01*
X000722Y010038D02*
X003002Y010038D01*
X003002Y010116D02*
X000722Y010116D01*
X000722Y010195D02*
X003002Y010195D01*
X003002Y010273D02*
X000722Y010273D01*
X000722Y010352D02*
X003010Y010352D01*
X003089Y010430D02*
X000722Y010430D01*
X000722Y010509D02*
X004895Y010509D01*
X004824Y010587D02*
X000722Y010587D01*
X000722Y010666D02*
X002909Y010666D01*
X002945Y010651D02*
X002783Y010718D01*
X002659Y010842D01*
X002592Y011004D01*
X002592Y011351D01*
X002992Y011351D01*
X002992Y011431D01*
X002592Y011431D01*
X002592Y011779D01*
X002659Y011940D01*
X002783Y012064D01*
X002945Y012131D01*
X002992Y012131D01*
X002992Y011431D01*
X003072Y011431D01*
X003072Y012131D01*
X003120Y012131D01*
X003281Y012064D01*
X003405Y011940D01*
X003472Y011779D01*
X003472Y011431D01*
X003072Y011431D01*
X003072Y011351D01*
X003072Y010651D01*
X003120Y010651D01*
X003281Y010718D01*
X003405Y010842D01*
X003472Y011004D01*
X003472Y011351D01*
X003072Y011351D01*
X002992Y011351D01*
X002992Y010651D01*
X002945Y010651D01*
X002992Y010666D02*
X003072Y010666D01*
X003072Y010744D02*
X002992Y010744D01*
X002992Y010823D02*
X003072Y010823D01*
X003072Y010902D02*
X002992Y010902D01*
X002992Y010980D02*
X003072Y010980D01*
X003072Y011059D02*
X002992Y011059D01*
X002992Y011137D02*
X003072Y011137D01*
X003072Y011216D02*
X002992Y011216D01*
X002992Y011294D02*
X003072Y011294D01*
X003072Y011373D02*
X003992Y011373D01*
X003992Y011294D02*
X004072Y011294D01*
X004072Y011216D02*
X003992Y011216D01*
X003992Y011137D02*
X004072Y011137D01*
X004072Y011059D02*
X003992Y011059D01*
X003992Y010980D02*
X004072Y010980D01*
X004072Y010902D02*
X003992Y010902D01*
X003992Y010823D02*
X004072Y010823D01*
X004072Y010744D02*
X003992Y010744D01*
X003992Y010666D02*
X004072Y010666D01*
X004155Y010666D02*
X004792Y010666D01*
X004728Y010744D02*
X004308Y010744D01*
X004386Y010823D02*
X004650Y010823D01*
X004613Y010902D02*
X004430Y010902D01*
X004462Y010980D02*
X004580Y010980D01*
X004572Y011059D02*
X004472Y011059D01*
X004472Y011137D02*
X004572Y011137D01*
X004572Y011216D02*
X004472Y011216D01*
X004472Y011294D02*
X004572Y011294D01*
X004572Y011373D02*
X004072Y011373D01*
X004344Y012001D02*
X004692Y012001D01*
X004630Y011923D02*
X004413Y011923D01*
X004445Y011844D02*
X004598Y011844D01*
X004572Y011766D02*
X004472Y011766D01*
X004472Y011687D02*
X004572Y011687D01*
X004572Y011608D02*
X004472Y011608D01*
X004472Y011530D02*
X004572Y011530D01*
X004572Y011451D02*
X004472Y011451D01*
X003909Y010666D02*
X003155Y010666D01*
X003308Y010744D02*
X003757Y010744D01*
X003678Y010823D02*
X003386Y010823D01*
X003430Y010902D02*
X003634Y010902D01*
X003602Y010980D02*
X003462Y010980D01*
X003472Y011059D02*
X003592Y011059D01*
X003592Y011137D02*
X003472Y011137D01*
X003472Y011216D02*
X003592Y011216D01*
X003592Y011294D02*
X003472Y011294D01*
X003472Y011451D02*
X003592Y011451D01*
X003592Y011530D02*
X003472Y011530D01*
X003472Y011608D02*
X003592Y011608D01*
X003592Y011687D02*
X003472Y011687D01*
X003472Y011766D02*
X003592Y011766D01*
X003619Y011844D02*
X003445Y011844D01*
X003413Y011923D02*
X003652Y011923D01*
X003720Y012001D02*
X003344Y012001D01*
X003350Y012080D02*
X003244Y012080D01*
X003246Y012158D02*
X000722Y012158D01*
X000722Y012080D02*
X002821Y012080D01*
X002720Y012001D02*
X000722Y012001D01*
X000722Y011923D02*
X002652Y011923D01*
X002619Y011844D02*
X000722Y011844D01*
X000722Y011766D02*
X002592Y011766D01*
X002592Y011687D02*
X000722Y011687D01*
X000722Y011608D02*
X002592Y011608D01*
X002592Y011530D02*
X000722Y011530D01*
X000722Y011451D02*
X002592Y011451D01*
X002592Y011294D02*
X000722Y011294D01*
X000722Y011216D02*
X002592Y011216D01*
X002592Y011137D02*
X000722Y011137D01*
X000722Y011059D02*
X002592Y011059D01*
X002602Y010980D02*
X000722Y010980D01*
X000722Y010902D02*
X002634Y010902D01*
X002678Y010823D02*
X000722Y010823D01*
X000722Y010744D02*
X002757Y010744D01*
X002992Y011373D02*
X000722Y011373D01*
X000722Y012237D02*
X003167Y012237D01*
X003239Y012165D02*
X003239Y012165D01*
X003072Y012080D02*
X002992Y012080D01*
X002992Y012001D02*
X003072Y012001D01*
X003072Y011923D02*
X002992Y011923D01*
X002992Y011844D02*
X003072Y011844D01*
X003072Y011766D02*
X002992Y011766D01*
X002992Y011687D02*
X003072Y011687D01*
X003072Y011608D02*
X002992Y011608D01*
X002992Y011530D02*
X003072Y011530D01*
X003072Y011451D02*
X002992Y011451D01*
X003089Y012315D02*
X000722Y012315D01*
X000722Y012394D02*
X003050Y012394D01*
X003000Y012472D02*
X002536Y012472D01*
X002614Y012551D02*
X002922Y012551D01*
X002872Y012629D02*
X002671Y012629D01*
X002703Y012708D02*
X002839Y012708D01*
X002822Y012787D02*
X002722Y012787D01*
X002722Y012865D02*
X002822Y012865D01*
X002822Y012944D02*
X002722Y012944D01*
X002722Y013022D02*
X002822Y013022D01*
X002822Y013101D02*
X002722Y013101D01*
X002722Y013258D02*
X002822Y013258D01*
X002822Y013336D02*
X002722Y013336D01*
X002722Y013415D02*
X002822Y013415D01*
X002822Y013493D02*
X002722Y013493D01*
X002704Y013572D02*
X002839Y013572D01*
X002871Y013651D02*
X002672Y013651D01*
X002822Y013179D02*
X002322Y013179D01*
X000893Y013651D02*
X000722Y013651D01*
X000722Y013572D02*
X000860Y013572D01*
X000842Y013493D02*
X000722Y013493D01*
X000722Y013415D02*
X000842Y013415D01*
X000842Y013336D02*
X000722Y013336D01*
X000722Y013258D02*
X000842Y013258D01*
X000722Y007995D02*
X001734Y007995D01*
X001655Y007917D02*
X000722Y007917D01*
X000962Y005953D02*
X000987Y005953D01*
X000962Y005875D02*
X000965Y005875D01*
X000962Y005796D02*
X000965Y005796D01*
X000962Y005718D02*
X001253Y005718D01*
X001311Y005718D02*
X002739Y005718D01*
X002782Y007681D02*
X001702Y007681D01*
X001781Y007760D02*
X002704Y007760D01*
X002625Y007838D02*
X001859Y007838D01*
X001311Y005953D02*
X001253Y005953D01*
X001253Y005875D02*
X001311Y005875D01*
X001311Y005796D02*
X001253Y005796D01*
X001253Y005246D02*
X001311Y005246D01*
X001311Y005168D02*
X001253Y005168D01*
X001253Y005089D02*
X001311Y005089D01*
X000965Y005639D02*
X000962Y005639D01*
D13*
X001482Y007901D03*
X002122Y007301D03*
X002122Y006981D03*
X002442Y006981D03*
X002442Y007301D03*
X002922Y008021D03*
X003122Y006541D03*
X003602Y006581D03*
X003682Y005901D03*
X004692Y007631D03*
X004922Y006301D03*
X005722Y007621D03*
X005322Y003621D03*
X004442Y003621D03*
X004442Y002621D03*
X003122Y002501D03*
X001282Y002141D03*
X001252Y010021D03*
X002842Y010061D03*
D14*
X003442Y012301D02*
X005082Y012301D01*
X005562Y011821D01*
X005562Y008021D01*
X005322Y007741D01*
X005322Y006821D01*
X004922Y006421D01*
X004922Y006301D01*
X004562Y006581D02*
X005042Y007061D01*
X005042Y007901D01*
X005282Y008141D01*
X005282Y010461D01*
X005032Y010711D01*
X005032Y011391D01*
X005802Y011981D02*
X005282Y012461D01*
X005282Y013141D01*
X005802Y011981D02*
X005802Y007661D01*
X005722Y007621D01*
X004562Y006581D02*
X003602Y006581D01*
X003442Y012301D02*
X003282Y012461D01*
X003282Y013141D01*
M02*
