G75*
G70*
%OFA0B0*%
%FSLAX24Y24*%
%IPPOS*%
%LPD*%
%AMOC8*
5,1,8,0,0,1.08239X$1,22.5*
%
%ADD10C,0.0000*%
%ADD11C,0.0040*%
%ADD12C,0.0030*%
%ADD13C,0.0050*%
D10*
X000282Y000141D02*
X006282Y000141D01*
X006282Y014141D01*
X000282Y014141D01*
X000282Y000141D01*
D11*
X001412Y010058D02*
X001335Y010135D01*
X001335Y010518D01*
X001335Y010211D02*
X001565Y010211D01*
X001642Y010288D01*
X001642Y010518D01*
X001795Y010518D02*
X001872Y010518D01*
X002025Y010365D01*
X002025Y010518D02*
X002025Y010211D01*
X002179Y010365D02*
X002179Y010442D01*
X002256Y010518D01*
X002409Y010518D01*
X002486Y010442D01*
X002486Y010288D01*
X002409Y010211D01*
X002256Y010211D01*
X002179Y010365D02*
X002486Y010365D01*
X002639Y010518D02*
X002793Y010518D01*
X002716Y010595D02*
X002716Y010288D01*
X002639Y010211D01*
X002946Y010211D02*
X003023Y010288D01*
X003023Y010595D01*
X003099Y010518D02*
X002946Y010518D01*
X003253Y010442D02*
X003253Y010211D01*
X003483Y010211D01*
X003560Y010288D01*
X003483Y010365D01*
X003253Y010365D01*
X003253Y010442D02*
X003330Y010518D01*
X003483Y010518D01*
X003713Y010518D02*
X003790Y010442D01*
X004020Y010442D01*
X004020Y010672D02*
X003790Y010672D01*
X003713Y010595D01*
X003713Y010518D01*
X003790Y010442D02*
X003713Y010365D01*
X003713Y010288D01*
X003790Y010211D01*
X004020Y010211D01*
X004020Y010672D01*
X004174Y010672D02*
X004481Y010211D01*
X004634Y010288D02*
X004711Y010211D01*
X004941Y010211D01*
X004941Y010058D02*
X004941Y010518D01*
X004711Y010518D01*
X004634Y010442D01*
X004634Y010288D01*
X005094Y010211D02*
X005325Y010211D01*
X005401Y010288D01*
X005325Y010365D01*
X005094Y010365D01*
X005094Y010442D02*
X005094Y010211D01*
X005094Y010442D02*
X005171Y010518D01*
X005325Y010518D01*
X005555Y010595D02*
X005631Y010672D01*
X005785Y010672D01*
X005862Y010595D01*
X005862Y010288D01*
X005785Y010211D01*
X005631Y010211D01*
X005555Y010288D01*
X005572Y011251D02*
X005572Y011558D01*
X005419Y011405D02*
X005726Y011405D01*
X001488Y010058D02*
X001412Y010058D01*
D12*
X001722Y009883D02*
X001722Y009760D01*
X001846Y009636D01*
X001968Y009636D02*
X002030Y009636D01*
X002030Y009698D01*
X001968Y009698D01*
X001968Y009636D01*
X002151Y009636D02*
X002151Y009821D01*
X002213Y009883D01*
X002398Y009883D01*
X002398Y009636D01*
X002520Y009636D02*
X002644Y009636D01*
X002582Y009636D02*
X002582Y009883D01*
X002644Y009883D01*
X002582Y010006D02*
X002582Y010068D01*
X002827Y009883D02*
X002765Y009821D01*
X002765Y009636D01*
X002888Y009636D02*
X002888Y009821D01*
X002827Y009883D01*
X002888Y009821D02*
X002950Y009883D01*
X003012Y009883D01*
X003012Y009636D01*
X003502Y010006D02*
X003748Y010006D01*
X003748Y009636D01*
X003748Y009821D02*
X003625Y009821D01*
X003870Y009883D02*
X003870Y009636D01*
X004055Y009636D01*
X004117Y009698D01*
X004117Y009883D01*
X004238Y009945D02*
X004238Y009698D01*
X004300Y009636D01*
X004423Y009636D01*
X004485Y009698D01*
X004238Y009945D01*
X004300Y010006D01*
X004423Y010006D01*
X004485Y009945D01*
X004485Y009698D01*
X004607Y009698D02*
X004607Y009945D01*
X004853Y009698D01*
X004792Y009636D01*
X004668Y009636D01*
X004607Y009698D01*
X004607Y009945D02*
X004668Y010006D01*
X004792Y010006D01*
X004853Y009945D01*
X004853Y009698D01*
X004975Y009636D02*
X005222Y009636D01*
X005344Y009636D02*
X005467Y009760D01*
X005467Y009883D01*
X005344Y010006D01*
X005222Y009883D02*
X005098Y010006D01*
X005098Y009636D01*
X005104Y009194D02*
X005104Y009070D01*
X005166Y009132D02*
X004919Y009132D01*
X004857Y009194D01*
X004857Y008949D02*
X005104Y008949D01*
X005104Y008702D02*
X004919Y008702D01*
X004857Y008764D01*
X004857Y008949D01*
X004919Y008581D02*
X005042Y008581D01*
X005104Y008519D01*
X005104Y008395D01*
X005042Y008334D01*
X004919Y008334D01*
X004857Y008395D01*
X004857Y008519D01*
X004919Y008581D01*
X004981Y007844D02*
X004857Y007721D01*
X004981Y007597D01*
X005228Y007597D01*
X005166Y007476D02*
X005228Y007414D01*
X005228Y007291D01*
X005166Y007229D01*
X005166Y007476D02*
X005104Y007476D01*
X004857Y007229D01*
X004857Y007476D01*
X004981Y007844D02*
X005228Y007844D01*
X005519Y007274D02*
X005457Y007213D01*
X005457Y007089D01*
X005519Y007028D01*
X005766Y007274D01*
X005519Y007274D01*
X005519Y007028D02*
X005766Y007028D01*
X005828Y007089D01*
X005828Y007213D01*
X005766Y007274D01*
X005704Y006906D02*
X005704Y006844D01*
X005581Y006721D01*
X005704Y006721D02*
X005457Y006721D01*
X005457Y006599D02*
X005457Y006352D01*
X005457Y006476D02*
X005828Y006476D01*
X005704Y006352D01*
X005704Y006231D02*
X005457Y006108D01*
X005704Y005984D01*
X005704Y005494D02*
X005704Y005370D01*
X005766Y005432D02*
X005519Y005432D01*
X005457Y005494D01*
X005519Y005249D02*
X005457Y005187D01*
X005457Y005002D01*
X005519Y004881D02*
X005642Y004881D01*
X005704Y004819D01*
X005704Y004695D01*
X005642Y004634D01*
X005519Y004634D01*
X005457Y004695D01*
X005457Y004819D01*
X005519Y004881D01*
X005642Y005002D02*
X005581Y005064D01*
X005581Y005187D01*
X005519Y005249D01*
X005704Y005064D02*
X005642Y005002D01*
X005704Y005064D02*
X005704Y005249D01*
X005642Y004512D02*
X005519Y004512D01*
X005457Y004451D01*
X005457Y004327D01*
X005519Y004265D01*
X005642Y004265D01*
X005704Y004327D01*
X005704Y004451D01*
X005642Y004512D01*
X005581Y004144D02*
X005519Y004144D01*
X005457Y004082D01*
X005457Y003897D01*
X005828Y003897D01*
X005828Y004082D01*
X005766Y004144D01*
X005704Y004144D01*
X005642Y004082D01*
X005642Y003897D01*
X005704Y003776D02*
X005396Y003776D01*
X005334Y003714D01*
X005334Y003652D01*
X005228Y003853D02*
X004981Y003853D01*
X004857Y003976D01*
X004981Y004100D01*
X005228Y004100D01*
X005457Y003776D02*
X005457Y003590D01*
X005519Y003529D01*
X005704Y003529D01*
X005642Y003407D02*
X005457Y003407D01*
X005457Y003160D02*
X005704Y003160D01*
X005704Y003346D01*
X005642Y003407D01*
X005457Y003038D02*
X005457Y002915D01*
X005457Y002977D02*
X005704Y002977D01*
X005704Y002915D01*
X005642Y002794D02*
X005457Y002794D01*
X005457Y002608D01*
X005519Y002547D01*
X005581Y002608D01*
X005581Y002794D01*
X005642Y002794D02*
X005704Y002732D01*
X005704Y002608D01*
X005642Y002425D02*
X005581Y002364D01*
X005581Y002178D01*
X005581Y002302D02*
X005457Y002425D01*
X005457Y002178D02*
X005828Y002178D01*
X005828Y002364D01*
X005766Y002425D01*
X005642Y002425D01*
X005828Y002977D02*
X005889Y002977D01*
X005642Y004082D02*
X005581Y004144D01*
X005289Y004651D02*
X005228Y004651D01*
X005104Y004651D02*
X004857Y004651D01*
X004857Y004589D02*
X004857Y004713D01*
X004857Y004835D02*
X005104Y004835D01*
X005104Y005020D01*
X005042Y005082D01*
X004857Y005082D01*
X005042Y005571D02*
X005042Y005818D01*
X004857Y005940D02*
X005042Y006187D01*
X005228Y005940D01*
X005042Y006676D02*
X005042Y006923D01*
X004919Y007045D02*
X004919Y007106D01*
X004857Y007106D01*
X004857Y007045D01*
X004919Y007045D01*
X004857Y006862D02*
X005228Y006862D01*
X005042Y006676D01*
X004268Y006599D02*
X004268Y006784D01*
X004206Y006846D01*
X003959Y006846D01*
X003897Y006784D01*
X003897Y006599D01*
X004268Y006599D01*
X004144Y006968D02*
X003897Y006968D01*
X004021Y006968D02*
X004144Y007091D01*
X004144Y007153D01*
X004144Y007274D02*
X004144Y007336D01*
X004082Y007398D01*
X004144Y007460D01*
X004082Y007521D01*
X003897Y007521D01*
X003897Y007643D02*
X004144Y007643D01*
X004144Y007828D01*
X004082Y007890D01*
X003897Y007890D01*
X003897Y008196D02*
X004268Y008196D01*
X004082Y008011D01*
X004082Y008258D01*
X004082Y008379D02*
X004144Y008441D01*
X004144Y008564D01*
X004082Y008626D01*
X004021Y008626D01*
X004021Y008379D01*
X004082Y008379D02*
X003959Y008379D01*
X003897Y008441D01*
X003897Y008564D01*
X003959Y008748D02*
X003897Y008809D01*
X003897Y008994D01*
X004082Y008994D01*
X004144Y008933D01*
X004144Y008809D01*
X004021Y008809D02*
X004021Y008994D01*
X004021Y008809D02*
X003959Y008748D01*
X003897Y007398D02*
X004082Y007398D01*
X004144Y007274D02*
X003897Y007274D01*
X004268Y006109D02*
X003897Y005863D01*
X003959Y005373D02*
X003897Y005311D01*
X003897Y005188D01*
X003959Y005126D01*
X004021Y005126D01*
X004082Y005188D01*
X004082Y005311D01*
X004021Y005373D01*
X003959Y005373D01*
X004082Y005311D02*
X004144Y005373D01*
X004206Y005373D01*
X004268Y005311D01*
X004268Y005188D01*
X004206Y005126D01*
X004144Y005126D01*
X004082Y005188D01*
X004144Y005005D02*
X004206Y005005D01*
X004268Y004943D01*
X004268Y004819D01*
X004206Y004758D01*
X004268Y004513D02*
X003897Y004513D01*
X003897Y004636D02*
X003897Y004389D01*
X003959Y004268D02*
X003897Y004206D01*
X003897Y004083D01*
X003959Y004021D01*
X004206Y004268D01*
X003959Y004268D01*
X003959Y004021D02*
X004206Y004021D01*
X004268Y004083D01*
X004268Y004206D01*
X004206Y004268D01*
X004144Y004389D02*
X004268Y004513D01*
X003897Y004758D02*
X004144Y005005D01*
X003897Y005005D02*
X003897Y004758D01*
X003897Y003900D02*
X003897Y003653D01*
X004144Y003900D01*
X004206Y003900D01*
X004268Y003838D01*
X004268Y003714D01*
X004206Y003653D01*
X004268Y003408D02*
X003897Y003408D01*
X003897Y003531D02*
X003897Y003284D01*
X003959Y003163D02*
X003897Y003101D01*
X003897Y002978D01*
X003959Y002916D01*
X004206Y003163D01*
X003959Y003163D01*
X003959Y002916D02*
X004206Y002916D01*
X004268Y002978D01*
X004268Y003101D01*
X004206Y003163D01*
X004144Y003284D02*
X004268Y003408D01*
X004206Y002795D02*
X004144Y002795D01*
X003897Y002548D01*
X003897Y002795D01*
X004206Y002795D02*
X004268Y002733D01*
X004268Y002610D01*
X004206Y002548D01*
X004857Y002565D02*
X004857Y002441D01*
X004919Y002380D01*
X004857Y002258D02*
X005042Y002011D01*
X005228Y002258D01*
X005166Y002380D02*
X005228Y002441D01*
X005228Y002565D01*
X005166Y002626D01*
X005104Y002626D01*
X005042Y002565D01*
X004981Y002626D01*
X004919Y002626D01*
X004857Y002565D01*
X004919Y002748D02*
X004857Y002810D01*
X004857Y002933D01*
X004919Y002995D01*
X004981Y002995D01*
X005042Y002933D01*
X005042Y002871D01*
X005042Y002933D02*
X005104Y002995D01*
X005166Y002995D01*
X005228Y002933D01*
X005228Y002810D01*
X005166Y002748D01*
X005042Y002565D02*
X005042Y002503D01*
X004919Y003116D02*
X005166Y003363D01*
X004919Y003363D01*
X004857Y003301D01*
X004857Y003178D01*
X004919Y003116D01*
X005166Y003116D01*
X005228Y003178D01*
X005228Y003301D01*
X005166Y003363D01*
X005104Y003484D02*
X005104Y003546D01*
X005042Y003608D01*
X005104Y003670D01*
X005042Y003731D01*
X004857Y003731D01*
X004857Y003608D02*
X005042Y003608D01*
X005104Y003484D02*
X004857Y003484D01*
X005104Y004589D02*
X005104Y004651D01*
X002467Y011381D02*
X002220Y011381D01*
X001846Y010006D02*
X001722Y009883D01*
X001048Y005851D02*
X001048Y005604D01*
X000862Y005604D01*
X000924Y005728D01*
X000924Y005790D01*
X000862Y005851D01*
X000739Y005851D01*
X000677Y005790D01*
X000677Y005666D01*
X000739Y005604D01*
X000739Y005421D02*
X000677Y005360D01*
X000677Y005298D01*
X000739Y005236D01*
X000739Y005421D02*
X001048Y005421D01*
X001048Y005360D02*
X001048Y005483D01*
X003940Y012141D02*
X004187Y012141D01*
D13*
X001482Y005941D02*
X001482Y005141D01*
X001082Y005141D01*
X001082Y005941D01*
X001482Y005941D01*
X001232Y005141D02*
X001234Y005154D01*
X001239Y005167D01*
X001248Y005178D01*
X001259Y005185D01*
X001272Y005190D01*
X001285Y005191D01*
X001299Y005188D01*
X001311Y005182D01*
X001321Y005173D01*
X001328Y005161D01*
X001332Y005148D01*
X001332Y005134D01*
X001328Y005121D01*
X001321Y005109D01*
X001311Y005100D01*
X001299Y005094D01*
X001285Y005091D01*
X001272Y005092D01*
X001259Y005097D01*
X001248Y005104D01*
X001239Y005115D01*
X001234Y005128D01*
X001232Y005141D01*
M02*
