%
M48
M72
T01C0.0150
T02C0.0400
%
T01
X1282Y2141
X3122Y2501
X4442Y2621
X4442Y3621
X5322Y3621
X4922Y6301
X4692Y7631
X5722Y7621
X3682Y5901
X3602Y6581
X3122Y6541
X2442Y6981
X2442Y7301
X2122Y7301
X2122Y6981
X1482Y7901
X1252Y10021
X2842Y10061
X2922Y8021
T02
X1282Y1141
X2282Y1141
X3282Y1141
X4282Y1141
X5282Y1141
X5032Y11391
X5282Y13141
X4282Y13141
X4032Y11391
X3282Y13141
X3032Y11391
X2282Y13141
X1282Y13141
M30
