G75*
G70*
%OFA0B0*%
%FSLAX24Y24*%
%IPPOS*%
%LPD*%
%AMOC8*
5,1,8,0,0,1.08239X$1,22.5*
%
%ADD10C,0.0000*%
%ADD11C,0.0160*%
%ADD12C,0.0030*%
%ADD13C,0.0080*%
%ADD14R,0.0200X0.0200*%
%ADD15C,0.0060*%
%ADD16R,0.0295X0.0571*%
%ADD17C,0.0040*%
%ADD18R,0.0200X0.0150*%
%ADD19C,0.0050*%
%ADD20C,0.0124*%
%ADD21C,0.0088*%
%ADD22R,0.0551X0.0256*%
%ADD23R,0.0571X0.0295*%
D10*
X000282Y000141D02*
X006282Y000141D01*
X006282Y014141D01*
X000282Y014141D01*
X000282Y000141D01*
D11*
X005792Y000461D02*
X005992Y000261D01*
X006192Y000461D01*
X005792Y000461D01*
X005795Y000458D02*
X006189Y000458D01*
X006031Y000300D02*
X005954Y000300D01*
D12*
X005394Y005753D02*
X005332Y005753D01*
X005394Y005753D02*
X005456Y005814D01*
X005456Y006123D01*
X005271Y006123D01*
X005209Y006061D01*
X005209Y005938D01*
X005271Y005876D01*
X005456Y005876D01*
X005087Y006000D02*
X004841Y006000D01*
X004841Y006061D02*
X004841Y005938D01*
X004902Y005876D01*
X005026Y005876D01*
X005087Y006000D02*
X005087Y006061D01*
X005026Y006123D01*
X004902Y006123D01*
X004841Y006061D01*
X004719Y006123D02*
X004657Y006123D01*
X004534Y006000D01*
X004534Y006123D02*
X004534Y005876D01*
X004412Y005876D02*
X004412Y006061D01*
X004351Y006123D01*
X004165Y006123D01*
X004165Y005876D01*
X004044Y005938D02*
X004044Y006246D01*
X004015Y006436D02*
X003892Y006560D01*
X003953Y006560D02*
X003768Y006560D01*
X003768Y006436D02*
X003768Y006806D01*
X003953Y006806D01*
X004015Y006745D01*
X004015Y006621D01*
X003953Y006560D01*
X003797Y006246D02*
X003797Y005938D01*
X003859Y005876D01*
X003982Y005876D01*
X004044Y005938D01*
X004198Y006436D02*
X004136Y006498D01*
X004136Y006621D01*
X004198Y006683D01*
X004322Y006683D01*
X004383Y006621D01*
X004383Y006560D01*
X004136Y006560D01*
X004198Y006436D02*
X004322Y006436D01*
X004505Y006498D02*
X004566Y006436D01*
X004752Y006436D01*
X004752Y006374D02*
X004690Y006313D01*
X004628Y006313D01*
X004752Y006374D02*
X004752Y006683D01*
X004566Y006683D01*
X004505Y006621D01*
X004505Y006498D01*
X004873Y006498D02*
X004935Y006498D01*
X004935Y006436D01*
X004873Y006436D01*
X004873Y006498D01*
X004264Y007456D02*
X004326Y007518D01*
X004326Y007765D01*
X004264Y007826D01*
X004141Y007826D01*
X004079Y007765D01*
X004079Y007703D01*
X004141Y007641D01*
X004326Y007641D01*
X004264Y007456D02*
X004141Y007456D01*
X004079Y007518D01*
X003957Y007518D02*
X003896Y007456D01*
X003772Y007456D01*
X003711Y007518D01*
X003711Y007765D01*
X003772Y007826D01*
X003896Y007826D01*
X003957Y007765D01*
X002792Y008016D02*
X002546Y008016D01*
X002546Y008263D02*
X002669Y008386D01*
X002669Y008016D01*
X002424Y008078D02*
X002424Y008386D01*
X002424Y008078D02*
X002362Y008016D01*
X002239Y008016D01*
X002177Y008078D01*
X002177Y008386D01*
X000656Y012989D02*
X000717Y013051D01*
X000717Y013113D01*
X000656Y013175D01*
X000347Y013175D01*
X000347Y013236D02*
X000347Y013113D01*
X000409Y013358D02*
X000347Y013419D01*
X000347Y013543D01*
X000409Y013605D01*
X000470Y013605D01*
X000717Y013358D01*
X000717Y013605D01*
X005407Y007008D02*
X005469Y006946D01*
X005531Y006946D01*
X005592Y007008D01*
X005592Y007316D01*
X005531Y007316D02*
X005654Y007316D01*
X005776Y007255D02*
X005837Y007316D01*
X005961Y007316D01*
X006022Y007255D01*
X006022Y007193D01*
X005961Y007131D01*
X006022Y007070D01*
X006022Y007008D01*
X005961Y006946D01*
X005837Y006946D01*
X005776Y007008D01*
X005899Y007131D02*
X005961Y007131D01*
X005732Y011238D02*
X005732Y011485D01*
X005609Y011361D02*
X005856Y011361D01*
X000797Y000991D02*
X000797Y000744D01*
X000797Y000868D02*
X000427Y000868D01*
X000550Y000744D01*
X000427Y000623D02*
X000427Y000500D01*
X000427Y000561D02*
X000736Y000561D01*
X000797Y000500D01*
X000797Y000438D01*
X000736Y000376D01*
D13*
X005002Y006501D02*
X005282Y006501D01*
X005322Y006661D02*
X005322Y006301D01*
X005442Y006301D01*
X005442Y006661D02*
X005322Y006661D01*
D14*
X005032Y011391D03*
X005282Y013141D03*
X004282Y013141D03*
X004032Y011391D03*
X003282Y013141D03*
X003032Y011391D03*
X002282Y013141D03*
X001282Y013141D03*
X001282Y001141D03*
X002282Y001141D03*
X003282Y001141D03*
X004282Y001141D03*
X005282Y001141D03*
D15*
X005782Y000641D02*
X005782Y000391D01*
X000782Y000391D01*
X000782Y000641D01*
X000782Y001641D01*
X005782Y001641D01*
X005782Y000641D01*
X000782Y000641D01*
X001282Y002980D02*
X001282Y003303D01*
X001782Y003303D02*
X001782Y002980D01*
X002282Y002980D02*
X002282Y003303D01*
X002782Y003303D02*
X002782Y002980D01*
X003532Y003053D02*
X003532Y002730D01*
X004032Y002730D02*
X004032Y003053D01*
X004032Y004480D02*
X004032Y004803D01*
X003532Y004803D02*
X003532Y004480D01*
X002782Y004730D02*
X002782Y005053D01*
X002282Y005053D02*
X002282Y004730D01*
X001782Y004730D02*
X001782Y005053D01*
X001282Y005053D02*
X001282Y004730D01*
X002532Y010641D02*
X002532Y010891D01*
X002532Y011891D01*
X005532Y011891D01*
X005532Y010891D01*
X005532Y010641D01*
X002532Y010641D01*
X002532Y010730D02*
X002532Y011053D01*
X002532Y010891D02*
X005532Y010891D01*
X005782Y012641D02*
X000782Y012641D01*
X000782Y013641D01*
X000782Y013891D01*
X005782Y013891D01*
X005782Y013641D01*
X005782Y012641D01*
X005782Y013641D02*
X000782Y013641D01*
X001032Y011053D02*
X001032Y010730D01*
X001532Y010730D02*
X001532Y011053D01*
X002032Y011053D02*
X002032Y010730D01*
X005032Y004803D02*
X005032Y004480D01*
X005532Y004480D02*
X005532Y004803D01*
X005432Y003221D02*
X005132Y003221D01*
X005132Y002081D01*
X005432Y002081D01*
X005432Y003221D01*
D16*
X004564Y007141D03*
X003995Y007141D03*
D17*
X004132Y006881D02*
X004432Y006881D01*
X004422Y007401D02*
X004132Y007401D01*
X003256Y005468D02*
X003179Y005468D01*
X003102Y005392D01*
X003102Y005161D01*
X003256Y005161D01*
X003332Y005238D01*
X003332Y005392D01*
X003256Y005468D01*
X002949Y005315D02*
X003102Y005161D01*
X003102Y005008D02*
X003179Y004931D01*
X003179Y004701D01*
X003179Y004855D02*
X003332Y005008D01*
X003332Y004701D02*
X002872Y004701D01*
X002872Y004931D01*
X002949Y005008D01*
X003102Y005008D01*
X002949Y005315D02*
X002872Y005468D01*
X003099Y003288D02*
X003022Y003211D01*
X003022Y003057D01*
X003099Y002981D01*
X003175Y002981D01*
X003252Y003057D01*
X003252Y003288D01*
X003099Y003288D02*
X003406Y003288D01*
X003482Y003211D01*
X003482Y003057D01*
X003406Y002981D01*
X003482Y002827D02*
X003329Y002674D01*
X003329Y002751D02*
X003329Y002520D01*
X003482Y002520D02*
X003022Y002520D01*
X003022Y002751D01*
X003099Y002827D01*
X003252Y002827D01*
X003329Y002751D01*
X002732Y002402D02*
X002732Y002248D01*
X002656Y002171D01*
X002732Y002018D02*
X002579Y001865D01*
X002579Y001941D02*
X002579Y001711D01*
X002732Y001711D02*
X002272Y001711D01*
X002272Y001941D01*
X002349Y002018D01*
X002502Y002018D01*
X002579Y001941D01*
X002502Y002171D02*
X002425Y002325D01*
X002425Y002402D01*
X002502Y002478D01*
X002656Y002478D01*
X002732Y002402D01*
X002502Y002171D02*
X002272Y002171D01*
X002272Y002478D01*
X001212Y004741D02*
X000752Y004741D01*
X000752Y004971D01*
X000829Y005048D01*
X000982Y005048D01*
X001059Y004971D01*
X001059Y004741D01*
X001059Y004895D02*
X001212Y005048D01*
X000982Y005201D02*
X000982Y005508D01*
X000752Y005432D02*
X000982Y005201D01*
X001212Y005432D02*
X000752Y005432D01*
X000749Y003478D02*
X000825Y003478D01*
X000902Y003402D01*
X000979Y003478D01*
X001056Y003478D01*
X001132Y003402D01*
X001132Y003248D01*
X001056Y003171D01*
X001132Y003018D02*
X000979Y002865D01*
X000979Y002941D02*
X000979Y002711D01*
X001132Y002711D02*
X000672Y002711D01*
X000672Y002941D01*
X000749Y003018D01*
X000902Y003018D01*
X000979Y002941D01*
X000902Y003325D02*
X000902Y003402D01*
X000749Y003478D02*
X000672Y003402D01*
X000672Y003248D01*
X000749Y003171D01*
X000686Y008661D02*
X000379Y008661D01*
X000302Y008738D01*
X000302Y008891D01*
X000379Y008968D01*
X000455Y009121D02*
X000302Y009275D01*
X000762Y009275D01*
X000762Y009428D02*
X000762Y009121D01*
X000686Y008968D02*
X000762Y008891D01*
X000762Y008738D01*
X000686Y008661D01*
X001022Y008991D02*
X001022Y009291D01*
X000686Y009582D02*
X000762Y009659D01*
X000762Y009812D01*
X000686Y009889D01*
X000379Y009889D01*
X000686Y009582D01*
X000379Y009582D01*
X000302Y009659D01*
X000302Y009812D01*
X000379Y009889D01*
X000982Y011701D02*
X000982Y011931D01*
X001059Y012008D01*
X001212Y012008D01*
X001289Y011931D01*
X001289Y011701D01*
X001289Y011855D02*
X001442Y012008D01*
X001442Y012161D02*
X001442Y012468D01*
X001442Y012315D02*
X000982Y012315D01*
X001135Y012161D01*
X000982Y011701D02*
X001442Y011701D01*
X001982Y011681D02*
X001982Y011911D01*
X002059Y011988D01*
X002212Y011988D01*
X002289Y011911D01*
X002289Y011681D01*
X002289Y011835D02*
X002442Y011988D01*
X002442Y012141D02*
X002135Y012448D01*
X002059Y012448D01*
X001982Y012372D01*
X001982Y012218D01*
X002059Y012141D01*
X001982Y011681D02*
X002442Y011681D01*
X002678Y011911D02*
X002601Y011988D01*
X002678Y011911D02*
X002755Y011911D01*
X002832Y011988D01*
X002832Y012371D01*
X002908Y012371D02*
X002755Y012371D01*
X002442Y012448D02*
X002442Y012141D01*
X003062Y012141D02*
X003369Y012141D01*
X003292Y011911D02*
X003292Y012371D01*
X003062Y012141D01*
X002172Y009548D02*
X002172Y009241D01*
X001865Y009548D01*
X001789Y009548D01*
X001712Y009472D01*
X001712Y009318D01*
X001789Y009241D01*
X001789Y009088D02*
X001712Y009011D01*
X001712Y008858D01*
X001789Y008781D01*
X002096Y008781D01*
X002172Y008858D01*
X002172Y009011D01*
X002096Y009088D01*
X002272Y008991D02*
X002272Y009291D01*
X002792Y009291D02*
X002792Y009001D01*
X001542Y009001D02*
X001542Y009291D01*
X004259Y004998D02*
X004182Y004921D01*
X004182Y004767D01*
X004259Y004691D01*
X004335Y004691D01*
X004412Y004767D01*
X004412Y004921D01*
X004489Y004998D01*
X004566Y004998D01*
X004642Y004921D01*
X004642Y004767D01*
X004566Y004691D01*
X004489Y004691D01*
X004412Y004767D01*
X004412Y004921D02*
X004335Y004998D01*
X004259Y004998D01*
X004259Y004537D02*
X004182Y004461D01*
X004182Y004230D01*
X004642Y004230D01*
X004489Y004384D02*
X004642Y004537D01*
X004489Y004461D02*
X004489Y004230D01*
X004489Y004461D02*
X004412Y004537D01*
X004259Y004537D01*
X005522Y002319D02*
X005882Y002319D01*
X005882Y002199D02*
X005882Y002440D01*
X005642Y002199D02*
X005522Y002319D01*
X005522Y002071D02*
X005522Y001831D01*
X005522Y001951D02*
X005882Y001951D01*
X005969Y004331D02*
X005969Y004561D01*
X005892Y004638D01*
X005739Y004638D01*
X005662Y004561D01*
X005662Y004331D01*
X006122Y004331D01*
X005969Y004485D02*
X006122Y004638D01*
X006122Y004791D02*
X006046Y004791D01*
X005739Y005098D01*
X005662Y005098D01*
X005662Y004791D01*
X005649Y007451D02*
X005342Y007451D01*
X005342Y007911D01*
X005803Y007758D02*
X005956Y007911D01*
X005956Y007451D01*
X005803Y007451D02*
X006109Y007451D01*
D18*
X005012Y003026D03*
X005012Y002266D03*
X005552Y002646D03*
D19*
X005492Y005671D02*
X005892Y005671D01*
X005892Y006871D01*
X005492Y006871D01*
X005492Y005671D01*
X005642Y006871D02*
X005644Y006884D01*
X005649Y006897D01*
X005658Y006908D01*
X005669Y006915D01*
X005682Y006920D01*
X005695Y006921D01*
X005709Y006918D01*
X005721Y006912D01*
X005731Y006903D01*
X005738Y006891D01*
X005742Y006878D01*
X005742Y006864D01*
X005738Y006851D01*
X005731Y006839D01*
X005721Y006830D01*
X005709Y006824D01*
X005695Y006821D01*
X005682Y006822D01*
X005669Y006827D01*
X005658Y006834D01*
X005649Y006845D01*
X005644Y006858D01*
X005642Y006871D01*
X003372Y009141D02*
X003374Y009208D01*
X003380Y009276D01*
X003390Y009342D01*
X003403Y009409D01*
X003421Y009474D01*
X003442Y009538D01*
X003467Y009600D01*
X003495Y009662D01*
X003527Y009721D01*
X003563Y009778D01*
X003602Y009834D01*
X003643Y009887D01*
X003688Y009937D01*
X003736Y009985D01*
X003786Y010030D01*
X003839Y010071D01*
X003895Y010110D01*
X003952Y010146D01*
X004011Y010178D01*
X004073Y010206D01*
X004135Y010231D01*
X004199Y010252D01*
X004264Y010270D01*
X004331Y010283D01*
X004397Y010293D01*
X004465Y010299D01*
X004532Y010301D01*
X004599Y010299D01*
X004667Y010293D01*
X004733Y010283D01*
X004800Y010270D01*
X004865Y010252D01*
X004929Y010231D01*
X004991Y010206D01*
X005053Y010178D01*
X005112Y010146D01*
X005169Y010110D01*
X005225Y010071D01*
X005278Y010030D01*
X005328Y009985D01*
X005376Y009937D01*
X005421Y009887D01*
X005462Y009834D01*
X005501Y009778D01*
X005537Y009721D01*
X005569Y009662D01*
X005597Y009600D01*
X005622Y009538D01*
X005643Y009474D01*
X005661Y009409D01*
X005674Y009342D01*
X005684Y009276D01*
X005690Y009208D01*
X005692Y009141D01*
X005690Y009074D01*
X005684Y009006D01*
X005674Y008940D01*
X005661Y008873D01*
X005643Y008808D01*
X005622Y008744D01*
X005597Y008682D01*
X005569Y008620D01*
X005537Y008561D01*
X005501Y008504D01*
X005462Y008448D01*
X005421Y008395D01*
X005376Y008345D01*
X005328Y008297D01*
X005278Y008252D01*
X005225Y008211D01*
X005169Y008172D01*
X005112Y008136D01*
X005053Y008104D01*
X004991Y008076D01*
X004929Y008051D01*
X004865Y008030D01*
X004800Y008012D01*
X004733Y007999D01*
X004667Y007989D01*
X004599Y007983D01*
X004532Y007981D01*
X004465Y007983D01*
X004397Y007989D01*
X004331Y007999D01*
X004264Y008012D01*
X004199Y008030D01*
X004135Y008051D01*
X004073Y008076D01*
X004011Y008104D01*
X003952Y008136D01*
X003895Y008172D01*
X003839Y008211D01*
X003786Y008252D01*
X003736Y008297D01*
X003688Y008345D01*
X003643Y008395D01*
X003602Y008448D01*
X003563Y008504D01*
X003527Y008561D01*
X003495Y008620D01*
X003467Y008682D01*
X003442Y008744D01*
X003421Y008808D01*
X003403Y008873D01*
X003390Y008940D01*
X003380Y009006D01*
X003374Y009074D01*
X003372Y009141D01*
X002873Y007732D02*
X002873Y007564D01*
X002873Y007732D02*
X002696Y007732D01*
X002873Y006738D02*
X002873Y006551D01*
X002696Y006551D01*
X001869Y006551D02*
X001692Y006551D01*
X001692Y006728D01*
X001692Y007554D02*
X001692Y007732D01*
X001869Y007732D01*
X001217Y007702D02*
X001217Y007552D01*
X001142Y007477D01*
X000842Y007477D01*
X000767Y007552D01*
X000767Y007702D01*
X000842Y007777D01*
X000842Y007317D02*
X000767Y007242D01*
X000767Y007091D01*
X000842Y007016D01*
X001142Y007016D01*
X001217Y007091D01*
X001217Y007242D01*
X001142Y007317D01*
X000842Y007317D01*
X000767Y006856D02*
X001067Y006856D01*
X001217Y006706D01*
X001067Y006556D01*
X000767Y006556D01*
X001217Y007702D02*
X001142Y007777D01*
X004482Y008291D02*
X004507Y008293D01*
X004531Y008298D01*
X004555Y008307D01*
X004577Y008319D01*
X004597Y008334D01*
X004614Y008351D01*
X004629Y008371D01*
X004641Y008393D01*
X004650Y008417D01*
X004655Y008441D01*
X004657Y008466D01*
X004655Y008491D01*
X004650Y008515D01*
X004641Y008539D01*
X004629Y008561D01*
X004614Y008581D01*
X004597Y008598D01*
X004577Y008613D01*
X004555Y008625D01*
X004531Y008634D01*
X004507Y008639D01*
X004482Y008641D01*
X004507Y008643D01*
X004531Y008648D01*
X004555Y008657D01*
X004577Y008669D01*
X004597Y008684D01*
X004614Y008701D01*
X004629Y008721D01*
X004641Y008743D01*
X004650Y008767D01*
X004655Y008791D01*
X004657Y008816D01*
X004655Y008841D01*
X004650Y008865D01*
X004641Y008889D01*
X004629Y008911D01*
X004614Y008931D01*
X004597Y008948D01*
X004577Y008963D01*
X004555Y008975D01*
X004531Y008984D01*
X004507Y008989D01*
X004482Y008991D01*
X004507Y008993D01*
X004531Y008998D01*
X004555Y009007D01*
X004577Y009019D01*
X004597Y009034D01*
X004614Y009051D01*
X004629Y009071D01*
X004641Y009093D01*
X004650Y009117D01*
X004655Y009141D01*
X004657Y009166D01*
X004655Y009191D01*
X004650Y009215D01*
X004641Y009239D01*
X004629Y009261D01*
X004614Y009281D01*
X004597Y009298D01*
X004577Y009313D01*
X004555Y009325D01*
X004531Y009334D01*
X004507Y009339D01*
X004482Y009341D01*
X004507Y009343D01*
X004531Y009348D01*
X004555Y009357D01*
X004577Y009369D01*
X004597Y009384D01*
X004614Y009401D01*
X004629Y009421D01*
X004641Y009443D01*
X004650Y009467D01*
X004655Y009491D01*
X004657Y009516D01*
X004655Y009541D01*
X004650Y009565D01*
X004641Y009589D01*
X004629Y009611D01*
X004614Y009631D01*
X004597Y009648D01*
X004577Y009663D01*
X004555Y009675D01*
X004531Y009684D01*
X004507Y009689D01*
X004482Y009691D01*
X004507Y009693D01*
X004531Y009698D01*
X004555Y009707D01*
X004577Y009719D01*
X004597Y009734D01*
X004614Y009751D01*
X004629Y009771D01*
X004641Y009793D01*
X004650Y009817D01*
X004655Y009841D01*
X004657Y009866D01*
X004655Y009891D01*
X004650Y009915D01*
X004641Y009939D01*
X004629Y009961D01*
X004614Y009981D01*
X004597Y009998D01*
X004577Y010013D01*
X004555Y010025D01*
X004531Y010034D01*
X004507Y010039D01*
X004482Y010041D01*
D20*
X002774Y007633D03*
D21*
X002932Y007791D03*
X002932Y007791D03*
D22*
X002532Y005179D03*
X002532Y004599D03*
X002532Y003429D03*
X002532Y002849D03*
X001532Y002849D03*
X001532Y003429D03*
X001532Y004599D03*
X001532Y005179D03*
X003783Y004933D03*
X003783Y004353D03*
X003783Y003183D03*
X003783Y002603D03*
X005282Y004349D03*
X005282Y004929D03*
X002283Y010603D03*
X002283Y011183D03*
X001282Y011179D03*
X001282Y010599D03*
D23*
X001282Y009429D03*
X001282Y008859D03*
X002532Y008859D03*
X002532Y009429D03*
M02*
