G75*
G70*
%OFA0B0*%
%FSLAX24Y24*%
%IPPOS*%
%LPD*%
%AMOC8*
5,1,8,0,0,1.08239X$1,22.5*
%
%ADD10C,0.0600*%
%ADD11R,0.0512X0.0591*%
%ADD12R,0.0350X0.0310*%
%ADD13R,0.0110X0.0335*%
%ADD14R,0.0335X0.0110*%
%ADD15R,0.0669X0.0669*%
%ADD16R,0.0591X0.0512*%
%ADD17R,0.1000X0.2280*%
%ADD18R,0.0354X0.0276*%
%ADD19C,0.0500*%
%ADD20C,0.0080*%
%ADD21C,0.0310*%
%ADD22C,0.0120*%
%ADD23C,0.0160*%
%ADD24C,0.0240*%
D10*
X001282Y000841D02*
X001282Y001441D01*
X002282Y001441D02*
X002282Y000841D01*
X003282Y000841D02*
X003282Y001441D01*
X004282Y001441D02*
X004282Y000841D01*
X005282Y000841D02*
X005282Y001441D01*
X005032Y011091D02*
X005032Y011691D01*
X005282Y012841D02*
X005282Y013441D01*
X004282Y013441D02*
X004282Y012841D01*
X004032Y011691D02*
X004032Y011091D01*
X003282Y012841D02*
X003282Y013441D01*
X003032Y011691D02*
X003032Y011091D01*
X002282Y012841D02*
X002282Y013441D01*
X001282Y013441D02*
X001282Y012841D01*
D11*
X003908Y007141D03*
X004656Y007141D03*
D12*
X004882Y003031D03*
X004882Y002271D03*
X005682Y002651D03*
D13*
X002577Y006560D03*
X002381Y006560D03*
X002184Y006560D03*
X001987Y006560D03*
X001987Y007722D03*
X002184Y007722D03*
X002381Y007722D03*
X002577Y007722D03*
D14*
X002863Y007446D03*
X002863Y007249D03*
X002863Y007053D03*
X002863Y006856D03*
X001701Y006846D03*
X001701Y007043D03*
X001701Y007240D03*
X001701Y007436D03*
D15*
X002282Y007141D03*
D16*
X002532Y008767D03*
X002532Y009515D03*
X002282Y010517D03*
X002282Y011265D03*
X001282Y011265D03*
X001282Y010517D03*
X001282Y009515D03*
X001282Y008767D03*
X001532Y005265D03*
X001532Y004517D03*
X001532Y003515D03*
X001532Y002767D03*
X002532Y002767D03*
X002532Y003515D03*
X002532Y004517D03*
X002532Y005265D03*
X003782Y005015D03*
X003782Y004267D03*
X003782Y003265D03*
X003782Y002517D03*
X005282Y004267D03*
X005282Y005015D03*
D17*
X005382Y009141D03*
X003682Y009141D03*
D18*
X005692Y006677D03*
X005692Y006277D03*
X005692Y005877D03*
D19*
X001042Y008101D03*
D20*
X000722Y007841D02*
X000722Y000581D01*
X000892Y000581D01*
X000822Y000750D01*
X000822Y001533D01*
X000892Y001702D01*
X001022Y001831D01*
X001191Y001901D01*
X001374Y001901D01*
X001543Y001831D01*
X001672Y001702D01*
X001742Y001533D01*
X001742Y000750D01*
X001672Y000581D01*
X001892Y000581D01*
X001822Y000750D01*
X001822Y001533D01*
X001892Y001702D01*
X002022Y001831D01*
X002191Y001901D01*
X002374Y001901D01*
X002543Y001831D01*
X002672Y001702D01*
X002742Y001533D01*
X002742Y001381D01*
X002822Y001381D01*
X002822Y001533D01*
X002892Y001702D01*
X003022Y001831D01*
X003191Y001901D01*
X003374Y001901D01*
X003543Y001831D01*
X003672Y001702D01*
X003742Y001533D01*
X003742Y000750D01*
X003672Y000581D01*
X003892Y000581D01*
X003822Y000750D01*
X003822Y001533D01*
X003892Y001702D01*
X004022Y001831D01*
X004191Y001901D01*
X004374Y001901D01*
X004543Y001831D01*
X004672Y001702D01*
X004742Y001533D01*
X004742Y000750D01*
X004672Y000581D01*
X004892Y000581D01*
X004822Y000750D01*
X004822Y001533D01*
X004892Y001702D01*
X005022Y001831D01*
X005191Y001901D01*
X005319Y001901D01*
X005522Y002104D01*
X005522Y002336D01*
X005441Y002336D01*
X005347Y002430D01*
X005347Y002872D01*
X005441Y002966D01*
X005842Y002966D01*
X005842Y005579D01*
X005449Y005579D01*
X005407Y005621D01*
X005405Y005621D01*
X005482Y005544D01*
X005482Y005431D01*
X005644Y005431D01*
X005737Y005337D01*
X005737Y004693D01*
X005671Y004627D01*
X005717Y004581D01*
X005717Y004307D01*
X005322Y004307D01*
X005322Y004227D01*
X005322Y003871D01*
X005635Y003871D01*
X005717Y003953D01*
X005717Y004227D01*
X005322Y004227D01*
X005242Y004227D01*
X004847Y004227D01*
X004847Y003953D01*
X004929Y003871D01*
X005242Y003871D01*
X005242Y004227D01*
X005242Y004307D01*
X004847Y004307D01*
X004847Y004581D01*
X004893Y004627D01*
X004827Y004693D01*
X004827Y005337D01*
X004871Y005381D01*
X004194Y005381D01*
X004237Y005337D01*
X004237Y004693D01*
X004186Y004641D01*
X004237Y004589D01*
X004237Y003945D01*
X004144Y003851D01*
X003982Y003851D01*
X003982Y003698D01*
X003982Y003681D01*
X004127Y003681D01*
X004127Y003684D01*
X004175Y003800D01*
X004264Y003888D01*
X004380Y003936D01*
X004505Y003936D01*
X004621Y003888D01*
X004709Y003800D01*
X004757Y003684D01*
X004757Y003558D01*
X004709Y003443D01*
X004642Y003376D01*
X004642Y003346D01*
X005123Y003346D01*
X005217Y003252D01*
X005217Y002810D01*
X005123Y002716D01*
X004641Y002716D01*
X004547Y002810D01*
X004547Y002831D01*
X004509Y002831D01*
X004392Y002948D01*
X004242Y003098D01*
X004242Y003264D01*
X004242Y003376D01*
X004237Y003380D01*
X004237Y002943D01*
X004186Y002891D01*
X004237Y002839D01*
X004237Y002195D01*
X004144Y002101D01*
X003965Y002101D01*
X003882Y002018D01*
X003765Y001901D01*
X002285Y001901D01*
X002119Y001901D01*
X001959Y002061D01*
X001842Y002178D01*
X001842Y002371D01*
X001572Y002371D01*
X001572Y002727D01*
X001492Y002727D01*
X001097Y002727D01*
X001097Y002453D01*
X001179Y002371D01*
X001492Y002371D01*
X001492Y002727D01*
X001492Y002807D01*
X001097Y002807D01*
X001097Y003081D01*
X001143Y003127D01*
X001077Y003193D01*
X001077Y003821D01*
X000999Y003821D01*
X000882Y003938D01*
X000882Y003938D01*
X000762Y004058D01*
X000762Y004224D01*
X000762Y007144D01*
X000879Y007261D01*
X001058Y007439D01*
X001223Y007439D01*
X001394Y007439D01*
X001394Y007549D01*
X001476Y007631D01*
X001701Y007631D01*
X001701Y007455D01*
X001702Y007455D01*
X001702Y007631D01*
X001772Y007631D01*
X001772Y007654D01*
X001762Y007664D01*
X001762Y007790D01*
X001452Y008100D01*
X001452Y008020D01*
X001390Y007869D01*
X001274Y007754D01*
X001124Y007691D01*
X000961Y007691D01*
X000810Y007754D01*
X000722Y007841D01*
X000722Y007838D02*
X000725Y007838D01*
X000722Y007760D02*
X000804Y007760D01*
X000722Y007681D02*
X001762Y007681D01*
X001762Y007760D02*
X001281Y007760D01*
X001359Y007838D02*
X001714Y007838D01*
X001635Y007917D02*
X001410Y007917D01*
X001442Y007995D02*
X001557Y007995D01*
X001478Y008074D02*
X001452Y008074D01*
X001282Y008341D02*
X001282Y008541D01*
X001282Y008341D02*
X001042Y008101D01*
X000722Y008361D02*
X000810Y008449D01*
X000827Y008456D01*
X000827Y009089D01*
X000893Y009155D01*
X000847Y009201D01*
X000847Y009475D01*
X001242Y009475D01*
X001242Y009555D01*
X000847Y009555D01*
X000847Y009829D01*
X000929Y009911D01*
X001242Y009911D01*
X001242Y009555D01*
X001322Y009555D01*
X001322Y009911D01*
X001635Y009911D01*
X001717Y009829D01*
X001717Y009555D01*
X001322Y009555D01*
X001322Y009475D01*
X001717Y009475D01*
X001717Y009201D01*
X001671Y009155D01*
X001737Y009089D01*
X001737Y008445D01*
X001733Y008441D01*
X001742Y008432D01*
X001802Y008372D01*
X001802Y009778D01*
X001679Y009901D01*
X001679Y009901D01*
X001562Y010018D01*
X001562Y010121D01*
X001322Y010121D01*
X001322Y010477D01*
X001242Y010477D01*
X000847Y010477D01*
X000847Y010203D01*
X000929Y010121D01*
X001242Y010121D01*
X001242Y010477D01*
X001242Y010557D01*
X000847Y010557D01*
X000847Y010831D01*
X000893Y010877D01*
X000827Y010943D01*
X000827Y011587D01*
X000921Y011681D01*
X001082Y011681D01*
X001082Y011784D01*
X001199Y011901D01*
X001279Y011981D01*
X001445Y011981D01*
X001845Y011981D01*
X002119Y011981D01*
X002285Y011981D01*
X002365Y011901D01*
X002482Y011784D01*
X002482Y011681D01*
X002592Y011681D01*
X002592Y011779D01*
X002659Y011940D01*
X002783Y012064D01*
X002945Y012131D01*
X002992Y012131D01*
X002992Y011431D01*
X003072Y011431D01*
X003072Y012131D01*
X003120Y012131D01*
X003257Y012074D01*
X003265Y012105D01*
X003394Y012276D01*
X003399Y012290D01*
X003427Y012321D01*
X003452Y012354D01*
X003464Y012361D01*
X003474Y012372D01*
X003512Y012389D01*
X003547Y012410D01*
X003562Y012412D01*
X003882Y012560D01*
X003882Y012605D01*
X003822Y012750D01*
X003822Y013533D01*
X003892Y013701D01*
X003672Y013701D01*
X003742Y013533D01*
X003742Y012750D01*
X003672Y012581D01*
X003543Y012451D01*
X003374Y012381D01*
X003191Y012381D01*
X003022Y012451D01*
X002892Y012581D01*
X002822Y012750D01*
X002822Y013533D01*
X002892Y013701D01*
X002644Y013701D01*
X002655Y013690D01*
X002722Y013529D01*
X002722Y013181D01*
X002322Y013181D01*
X002322Y013101D01*
X002322Y012401D01*
X002370Y012401D01*
X002531Y012468D01*
X002655Y012592D01*
X002722Y012754D01*
X002722Y013101D01*
X002322Y013101D01*
X002242Y013101D01*
X001842Y013101D01*
X001842Y012754D01*
X001909Y012592D01*
X002033Y012468D01*
X002195Y012401D01*
X002242Y012401D01*
X002242Y013101D01*
X002242Y013181D01*
X001842Y013181D01*
X001842Y013529D01*
X001909Y013690D01*
X001920Y013701D01*
X001644Y013701D01*
X001655Y013690D01*
X001722Y013529D01*
X001722Y013181D01*
X001322Y013181D01*
X001322Y013101D01*
X001322Y012401D01*
X001370Y012401D01*
X001531Y012468D01*
X001655Y012592D01*
X001722Y012754D01*
X001722Y013101D01*
X001322Y013101D01*
X001242Y013101D01*
X000842Y013101D01*
X000842Y012754D01*
X000909Y012592D01*
X001033Y012468D01*
X001195Y012401D01*
X001242Y012401D01*
X001242Y013101D01*
X001242Y013181D01*
X000842Y013181D01*
X000842Y013529D01*
X000909Y013690D01*
X000920Y013701D01*
X000722Y013701D01*
X000722Y008361D01*
X000722Y008388D02*
X000749Y008388D01*
X000722Y008467D02*
X000827Y008467D01*
X000827Y008545D02*
X000722Y008545D01*
X000722Y008624D02*
X000827Y008624D01*
X000827Y008702D02*
X000722Y008702D01*
X000722Y008781D02*
X000827Y008781D01*
X000827Y008859D02*
X000722Y008859D01*
X000722Y008938D02*
X000827Y008938D01*
X000827Y009016D02*
X000722Y009016D01*
X000722Y009095D02*
X000833Y009095D01*
X000875Y009174D02*
X000722Y009174D01*
X000722Y009252D02*
X000847Y009252D01*
X000847Y009331D02*
X000722Y009331D01*
X000722Y009409D02*
X000847Y009409D01*
X000847Y009566D02*
X000722Y009566D01*
X000722Y009488D02*
X001242Y009488D01*
X001242Y009566D02*
X001322Y009566D01*
X001322Y009488D02*
X001802Y009488D01*
X001802Y009566D02*
X001717Y009566D01*
X001717Y009645D02*
X001802Y009645D01*
X001802Y009723D02*
X001717Y009723D01*
X001717Y009802D02*
X001779Y009802D01*
X001700Y009880D02*
X001666Y009880D01*
X001621Y009959D02*
X000722Y009959D01*
X000722Y009880D02*
X000898Y009880D01*
X000847Y009802D02*
X000722Y009802D01*
X000722Y009723D02*
X000847Y009723D01*
X000847Y009645D02*
X000722Y009645D01*
X000722Y010038D02*
X001562Y010038D01*
X001562Y010116D02*
X000722Y010116D01*
X000722Y010195D02*
X000855Y010195D01*
X000847Y010273D02*
X000722Y010273D01*
X000722Y010352D02*
X000847Y010352D01*
X000847Y010430D02*
X000722Y010430D01*
X000722Y010509D02*
X001242Y010509D01*
X001242Y010430D02*
X001322Y010430D01*
X001322Y010352D02*
X001242Y010352D01*
X001242Y010273D02*
X001322Y010273D01*
X001322Y010195D02*
X001242Y010195D01*
X001242Y009880D02*
X001322Y009880D01*
X001322Y009802D02*
X001242Y009802D01*
X001242Y009723D02*
X001322Y009723D01*
X001322Y009645D02*
X001242Y009645D01*
X001690Y009174D02*
X001802Y009174D01*
X001802Y009252D02*
X001717Y009252D01*
X001717Y009331D02*
X001802Y009331D01*
X001802Y009409D02*
X001717Y009409D01*
X001732Y009095D02*
X001802Y009095D01*
X001802Y009016D02*
X001737Y009016D01*
X001737Y008938D02*
X001802Y008938D01*
X001802Y008859D02*
X001737Y008859D01*
X001737Y008781D02*
X001802Y008781D01*
X001802Y008702D02*
X001737Y008702D01*
X001737Y008624D02*
X001802Y008624D01*
X001802Y008545D02*
X001737Y008545D01*
X001737Y008467D02*
X001802Y008467D01*
X001802Y008388D02*
X001786Y008388D01*
X002002Y008261D02*
X002002Y009861D01*
X001762Y010101D01*
X001762Y011781D01*
X001362Y011781D01*
X001282Y011701D01*
X001282Y011265D01*
X001082Y011687D02*
X000722Y011687D01*
X000722Y011766D02*
X001082Y011766D01*
X001142Y011844D02*
X000722Y011844D01*
X000722Y011923D02*
X001221Y011923D01*
X001242Y012472D02*
X001322Y012472D01*
X001322Y012551D02*
X001242Y012551D01*
X001242Y012629D02*
X001322Y012629D01*
X001322Y012708D02*
X001242Y012708D01*
X001242Y012787D02*
X001322Y012787D01*
X001322Y012865D02*
X001242Y012865D01*
X001242Y012944D02*
X001322Y012944D01*
X001322Y013022D02*
X001242Y013022D01*
X001242Y013101D02*
X001322Y013101D01*
X001322Y013179D02*
X002242Y013179D01*
X002242Y013101D02*
X002322Y013101D01*
X002322Y013179D02*
X002822Y013179D01*
X002822Y013101D02*
X002722Y013101D01*
X002722Y013022D02*
X002822Y013022D01*
X002822Y012944D02*
X002722Y012944D01*
X002722Y012865D02*
X002822Y012865D01*
X002822Y012787D02*
X002722Y012787D01*
X002703Y012708D02*
X002839Y012708D01*
X002872Y012629D02*
X002671Y012629D01*
X002614Y012551D02*
X002922Y012551D01*
X003000Y012472D02*
X002536Y012472D01*
X002322Y012472D02*
X002242Y012472D01*
X002242Y012551D02*
X002322Y012551D01*
X002322Y012629D02*
X002242Y012629D01*
X002242Y012708D02*
X002322Y012708D01*
X002322Y012787D02*
X002242Y012787D01*
X002242Y012865D02*
X002322Y012865D01*
X002322Y012944D02*
X002242Y012944D01*
X002242Y013022D02*
X002322Y013022D01*
X002029Y012472D02*
X001536Y012472D01*
X001614Y012551D02*
X001950Y012551D01*
X001894Y012629D02*
X001671Y012629D01*
X001703Y012708D02*
X001861Y012708D01*
X001842Y012787D02*
X001722Y012787D01*
X001722Y012865D02*
X001842Y012865D01*
X001842Y012944D02*
X001722Y012944D01*
X001722Y013022D02*
X001842Y013022D01*
X001842Y013101D02*
X001722Y013101D01*
X001722Y013258D02*
X001842Y013258D01*
X001842Y013336D02*
X001722Y013336D01*
X001722Y013415D02*
X001842Y013415D01*
X001842Y013493D02*
X001722Y013493D01*
X001704Y013572D02*
X001860Y013572D01*
X001893Y013651D02*
X001672Y013651D01*
X001242Y013179D02*
X000722Y013179D01*
X000722Y013101D02*
X000842Y013101D01*
X000842Y013022D02*
X000722Y013022D01*
X000722Y012944D02*
X000842Y012944D01*
X000842Y012865D02*
X000722Y012865D01*
X000722Y012787D02*
X000842Y012787D01*
X000861Y012708D02*
X000722Y012708D01*
X000722Y012629D02*
X000894Y012629D01*
X000950Y012551D02*
X000722Y012551D01*
X000722Y012472D02*
X001029Y012472D01*
X000722Y012394D02*
X003160Y012394D01*
X003305Y012158D02*
X000722Y012158D01*
X000722Y012080D02*
X002821Y012080D01*
X002720Y012001D02*
X000722Y012001D01*
X000722Y012237D02*
X003364Y012237D01*
X003422Y012315D02*
X000722Y012315D01*
X000722Y011608D02*
X000848Y011608D01*
X000827Y011530D02*
X000722Y011530D01*
X000722Y011451D02*
X000827Y011451D01*
X000827Y011373D02*
X000722Y011373D01*
X000722Y011294D02*
X000827Y011294D01*
X000827Y011216D02*
X000722Y011216D01*
X000722Y011137D02*
X000827Y011137D01*
X000827Y011059D02*
X000722Y011059D01*
X000722Y010980D02*
X000827Y010980D01*
X000868Y010902D02*
X000722Y010902D01*
X000722Y010823D02*
X000847Y010823D01*
X000847Y010744D02*
X000722Y010744D01*
X000722Y010666D02*
X000847Y010666D01*
X000847Y010587D02*
X000722Y010587D01*
X001762Y011781D02*
X002202Y011781D01*
X002282Y011701D01*
X002282Y011265D01*
X002482Y011687D02*
X002592Y011687D01*
X002592Y011766D02*
X002482Y011766D01*
X002422Y011844D02*
X002619Y011844D01*
X002652Y011923D02*
X002344Y011923D01*
X002737Y010764D02*
X002783Y010718D01*
X002945Y010651D01*
X002992Y010651D01*
X002992Y011351D01*
X003072Y011351D01*
X003072Y010651D01*
X003120Y010651D01*
X003272Y010714D01*
X003308Y010581D01*
X003199Y010581D01*
X002737Y010581D01*
X002737Y010764D01*
X002737Y010744D02*
X002757Y010744D01*
X002737Y010666D02*
X002909Y010666D01*
X002992Y010666D02*
X003072Y010666D01*
X003072Y010744D02*
X002992Y010744D01*
X002992Y010823D02*
X003072Y010823D01*
X003072Y010902D02*
X002992Y010902D01*
X002992Y010980D02*
X003072Y010980D01*
X003072Y011059D02*
X002992Y011059D01*
X002992Y011137D02*
X003072Y011137D01*
X003072Y011216D02*
X002992Y011216D01*
X002992Y011294D02*
X003072Y011294D01*
X003072Y011451D02*
X002992Y011451D01*
X002992Y011530D02*
X003072Y011530D01*
X003072Y011608D02*
X002992Y011608D01*
X002992Y011687D02*
X003072Y011687D01*
X003072Y011766D02*
X002992Y011766D01*
X002992Y011844D02*
X003072Y011844D01*
X003072Y011923D02*
X002992Y011923D01*
X002992Y012001D02*
X003072Y012001D01*
X003072Y012080D02*
X002992Y012080D01*
X003244Y012080D02*
X003258Y012080D01*
X003404Y012394D02*
X003520Y012394D01*
X003564Y012472D02*
X003692Y012472D01*
X003643Y012551D02*
X003862Y012551D01*
X003872Y012629D02*
X003692Y012629D01*
X003725Y012708D02*
X003839Y012708D01*
X003822Y012787D02*
X003742Y012787D01*
X003742Y012865D02*
X003822Y012865D01*
X003822Y012944D02*
X003742Y012944D01*
X003742Y013022D02*
X003822Y013022D01*
X003822Y013101D02*
X003742Y013101D01*
X003742Y013179D02*
X003822Y013179D01*
X003822Y013258D02*
X003742Y013258D01*
X003742Y013336D02*
X003822Y013336D01*
X003822Y013415D02*
X003742Y013415D01*
X003742Y013493D02*
X003822Y013493D01*
X003839Y013572D02*
X003726Y013572D01*
X003693Y013651D02*
X003871Y013651D01*
X004442Y012409D02*
X004543Y012451D01*
X004672Y012581D01*
X004742Y012750D01*
X004742Y013533D01*
X004672Y013701D01*
X004892Y013701D01*
X004822Y013533D01*
X004822Y012750D01*
X004892Y012581D01*
X005022Y012451D01*
X005191Y012381D01*
X005374Y012381D01*
X005543Y012451D01*
X005672Y012581D01*
X005742Y012750D01*
X005742Y013533D01*
X005672Y013701D01*
X005842Y013701D01*
X005842Y010441D01*
X004985Y010441D01*
X004925Y010501D01*
X004759Y010501D01*
X004365Y010501D01*
X004159Y010501D01*
X004099Y010441D01*
X003945Y010441D01*
X003937Y010458D01*
X003920Y010500D01*
X003912Y010507D01*
X003905Y010521D01*
X003860Y010686D01*
X003945Y010651D01*
X003992Y010651D01*
X003992Y011351D01*
X004072Y011351D01*
X004072Y010651D01*
X004120Y010651D01*
X004281Y010718D01*
X004405Y010842D01*
X004472Y011004D01*
X004472Y011351D01*
X004072Y011351D01*
X004072Y011431D01*
X004472Y011431D01*
X004472Y011779D01*
X004405Y011940D01*
X004281Y012064D01*
X004209Y012094D01*
X004275Y012125D01*
X004321Y012144D01*
X004325Y012148D01*
X004330Y012150D01*
X004365Y012188D01*
X004400Y012222D01*
X004402Y012228D01*
X004406Y012232D01*
X004423Y012280D01*
X004442Y012325D01*
X004442Y012331D01*
X004444Y012337D01*
X004442Y012387D01*
X004442Y012409D01*
X004442Y012394D02*
X005160Y012394D01*
X005124Y012151D02*
X004941Y012151D01*
X004772Y012081D01*
X004642Y011952D01*
X004572Y011783D01*
X004572Y011000D01*
X004642Y010831D01*
X004772Y010701D01*
X004941Y010631D01*
X005124Y010631D01*
X005293Y010701D01*
X005422Y010831D01*
X005492Y011000D01*
X005492Y011783D01*
X005422Y011952D01*
X005293Y012081D01*
X005124Y012151D01*
X005000Y012472D02*
X004564Y012472D01*
X004643Y012551D02*
X004922Y012551D01*
X004872Y012629D02*
X004692Y012629D01*
X004725Y012708D02*
X004839Y012708D01*
X004822Y012787D02*
X004742Y012787D01*
X004742Y012865D02*
X004822Y012865D01*
X004822Y012944D02*
X004742Y012944D01*
X004742Y013022D02*
X004822Y013022D01*
X004822Y013101D02*
X004742Y013101D01*
X004742Y013179D02*
X004822Y013179D01*
X004822Y013258D02*
X004742Y013258D01*
X004742Y013336D02*
X004822Y013336D01*
X004822Y013415D02*
X004742Y013415D01*
X004742Y013493D02*
X004822Y013493D01*
X004839Y013572D02*
X004726Y013572D01*
X004693Y013651D02*
X004871Y013651D01*
X005404Y012394D02*
X005842Y012394D01*
X005842Y012472D02*
X005564Y012472D01*
X005643Y012551D02*
X005842Y012551D01*
X005842Y012629D02*
X005692Y012629D01*
X005725Y012708D02*
X005842Y012708D01*
X005842Y012787D02*
X005742Y012787D01*
X005742Y012865D02*
X005842Y012865D01*
X005842Y012944D02*
X005742Y012944D01*
X005742Y013022D02*
X005842Y013022D01*
X005842Y013101D02*
X005742Y013101D01*
X005742Y013179D02*
X005842Y013179D01*
X005842Y013258D02*
X005742Y013258D01*
X005742Y013336D02*
X005842Y013336D01*
X005842Y013415D02*
X005742Y013415D01*
X005742Y013493D02*
X005842Y013493D01*
X005842Y013572D02*
X005726Y013572D01*
X005693Y013651D02*
X005842Y013651D01*
X005842Y012315D02*
X004438Y012315D01*
X004407Y012237D02*
X005842Y012237D01*
X005842Y012158D02*
X004337Y012158D01*
X004244Y012080D02*
X004770Y012080D01*
X004692Y012001D02*
X004344Y012001D01*
X004413Y011923D02*
X004630Y011923D01*
X004598Y011844D02*
X004445Y011844D01*
X004472Y011766D02*
X004572Y011766D01*
X004572Y011687D02*
X004472Y011687D01*
X004472Y011608D02*
X004572Y011608D01*
X004572Y011530D02*
X004472Y011530D01*
X004472Y011451D02*
X004572Y011451D01*
X004572Y011373D02*
X004072Y011373D01*
X004072Y011294D02*
X003992Y011294D01*
X003992Y011216D02*
X004072Y011216D01*
X004072Y011137D02*
X003992Y011137D01*
X003992Y011059D02*
X004072Y011059D01*
X004072Y010980D02*
X003992Y010980D01*
X003992Y010902D02*
X004072Y010902D01*
X004072Y010823D02*
X003992Y010823D01*
X003992Y010744D02*
X004072Y010744D01*
X004072Y010666D02*
X003992Y010666D01*
X003909Y010666D02*
X003866Y010666D01*
X003887Y010587D02*
X005842Y010587D01*
X005842Y010509D02*
X003911Y010509D01*
X004155Y010666D02*
X004857Y010666D01*
X004728Y010744D02*
X004308Y010744D01*
X004386Y010823D02*
X004650Y010823D01*
X004613Y010902D02*
X004430Y010902D01*
X004462Y010980D02*
X004580Y010980D01*
X004572Y011059D02*
X004472Y011059D01*
X004472Y011137D02*
X004572Y011137D01*
X004572Y011216D02*
X004472Y011216D01*
X004472Y011294D02*
X004572Y011294D01*
X005208Y010666D02*
X005842Y010666D01*
X005842Y010744D02*
X005336Y010744D01*
X005415Y010823D02*
X005842Y010823D01*
X005842Y010902D02*
X005452Y010902D01*
X005484Y010980D02*
X005842Y010980D01*
X005842Y011059D02*
X005492Y011059D01*
X005492Y011137D02*
X005842Y011137D01*
X005842Y011216D02*
X005492Y011216D01*
X005492Y011294D02*
X005842Y011294D01*
X005842Y011373D02*
X005492Y011373D01*
X005492Y011451D02*
X005842Y011451D01*
X005842Y011530D02*
X005492Y011530D01*
X005492Y011608D02*
X005842Y011608D01*
X005842Y011687D02*
X005492Y011687D01*
X005492Y011766D02*
X005842Y011766D01*
X005842Y011844D02*
X005467Y011844D01*
X005434Y011923D02*
X005842Y011923D01*
X005842Y012001D02*
X005373Y012001D01*
X005294Y012080D02*
X005842Y012080D01*
X004756Y007901D02*
X004682Y007901D01*
X004682Y007845D01*
X004640Y007742D01*
X004561Y007664D01*
X004473Y007576D01*
X004616Y007576D01*
X004616Y007181D01*
X004696Y007181D01*
X004696Y007576D01*
X004970Y007576D01*
X005052Y007494D01*
X005052Y007181D01*
X004696Y007181D01*
X004696Y007101D01*
X005052Y007101D01*
X005052Y006901D01*
X005130Y006901D01*
X005218Y006865D01*
X005355Y006728D01*
X005355Y006881D01*
X005449Y006975D01*
X005482Y006975D01*
X005482Y007416D01*
X005455Y007443D01*
X005407Y007558D01*
X005407Y007684D01*
X005455Y007800D01*
X005497Y007841D01*
X004816Y007841D01*
X004756Y007901D01*
X004679Y007838D02*
X005494Y007838D01*
X005439Y007760D02*
X004647Y007760D01*
X004578Y007681D02*
X005407Y007681D01*
X005407Y007603D02*
X004500Y007603D01*
X004616Y007524D02*
X004696Y007524D01*
X004696Y007446D02*
X004616Y007446D01*
X004616Y007367D02*
X004696Y007367D01*
X004696Y007289D02*
X004616Y007289D01*
X004616Y007210D02*
X004696Y007210D01*
X004696Y007131D02*
X005482Y007131D01*
X005482Y007053D02*
X005052Y007053D01*
X005052Y006974D02*
X005448Y006974D01*
X005370Y006896D02*
X005143Y006896D01*
X005265Y006817D02*
X005355Y006817D01*
X005344Y006739D02*
X005355Y006739D01*
X005482Y007210D02*
X005052Y007210D01*
X005052Y007289D02*
X005482Y007289D01*
X005482Y007367D02*
X005052Y007367D01*
X005052Y007446D02*
X005454Y007446D01*
X005421Y007524D02*
X005022Y007524D01*
X004631Y006421D02*
X004607Y006364D01*
X004607Y006238D01*
X004655Y006123D01*
X004744Y006034D01*
X004860Y005986D01*
X004978Y005986D01*
X005183Y005781D01*
X005079Y005781D01*
X003973Y005781D01*
X003997Y005838D01*
X003997Y005964D01*
X003949Y006080D01*
X003861Y006168D01*
X003745Y006216D01*
X003620Y006216D01*
X003528Y006178D01*
X003285Y006421D01*
X003119Y006421D01*
X002773Y006421D01*
X002773Y006560D01*
X002602Y006560D01*
X002602Y006561D01*
X002773Y006561D01*
X002773Y006661D01*
X002863Y006661D01*
X003088Y006661D01*
X003136Y006708D01*
X003287Y006557D01*
X003287Y006518D01*
X003335Y006403D01*
X003424Y006314D01*
X003540Y006266D01*
X003665Y006266D01*
X003781Y006314D01*
X003869Y006403D01*
X003908Y006496D01*
X003946Y006458D01*
X004034Y006421D01*
X004631Y006421D01*
X004607Y006346D02*
X003813Y006346D01*
X003878Y006425D02*
X004026Y006425D01*
X003918Y006110D02*
X004667Y006110D01*
X004628Y006189D02*
X003810Y006189D01*
X003668Y006267D02*
X004607Y006267D01*
X004749Y006032D02*
X003969Y006032D01*
X003997Y005953D02*
X005011Y005953D01*
X005089Y005875D02*
X003997Y005875D01*
X003980Y005796D02*
X005168Y005796D01*
X005162Y005581D02*
X003562Y005581D01*
X003782Y005361D01*
X003782Y005015D01*
X003562Y005581D02*
X003082Y006061D01*
X002282Y006061D01*
X002202Y006141D01*
X002202Y006542D01*
X002184Y006560D01*
X002002Y006545D02*
X002002Y006101D01*
X002202Y005901D01*
X003002Y005901D01*
X003202Y005701D01*
X003202Y003901D01*
X003322Y003781D01*
X003782Y003781D01*
X003782Y004267D01*
X003982Y003833D02*
X004208Y003833D01*
X004204Y003911D02*
X004319Y003911D01*
X004237Y003990D02*
X004847Y003990D01*
X004847Y004068D02*
X004237Y004068D01*
X004237Y004147D02*
X004847Y004147D01*
X004847Y004225D02*
X004237Y004225D01*
X004237Y004304D02*
X005242Y004304D01*
X005242Y004225D02*
X005322Y004225D01*
X005322Y004147D02*
X005242Y004147D01*
X005242Y004068D02*
X005322Y004068D01*
X005322Y003990D02*
X005242Y003990D01*
X005242Y003911D02*
X005322Y003911D01*
X005322Y004304D02*
X005842Y004304D01*
X005842Y004382D02*
X005717Y004382D01*
X005717Y004461D02*
X005842Y004461D01*
X005842Y004540D02*
X005717Y004540D01*
X005680Y004618D02*
X005842Y004618D01*
X005842Y004697D02*
X005737Y004697D01*
X005737Y004775D02*
X005842Y004775D01*
X005842Y004854D02*
X005737Y004854D01*
X005737Y004932D02*
X005842Y004932D01*
X005842Y005011D02*
X005737Y005011D01*
X005737Y005089D02*
X005842Y005089D01*
X005842Y005168D02*
X005737Y005168D01*
X005737Y005246D02*
X005842Y005246D01*
X005842Y005325D02*
X005737Y005325D01*
X005671Y005404D02*
X005842Y005404D01*
X005842Y005482D02*
X005482Y005482D01*
X005466Y005561D02*
X005842Y005561D01*
X005282Y005461D02*
X005282Y005015D01*
X005282Y005461D02*
X005162Y005581D01*
X004827Y005325D02*
X004237Y005325D01*
X004237Y005246D02*
X004827Y005246D01*
X004827Y005168D02*
X004237Y005168D01*
X004237Y005089D02*
X004827Y005089D01*
X004827Y005011D02*
X004237Y005011D01*
X004237Y004932D02*
X004827Y004932D01*
X004827Y004854D02*
X004237Y004854D01*
X004237Y004775D02*
X004827Y004775D01*
X004827Y004697D02*
X004237Y004697D01*
X004209Y004618D02*
X004884Y004618D01*
X004847Y004540D02*
X004237Y004540D01*
X004237Y004461D02*
X004847Y004461D01*
X004847Y004382D02*
X004237Y004382D01*
X004156Y003754D02*
X003982Y003754D01*
X003782Y003781D02*
X003782Y003265D01*
X003782Y002517D02*
X003802Y002497D01*
X003802Y002221D01*
X003682Y002101D01*
X002202Y002101D01*
X002042Y002261D01*
X002042Y005265D01*
X002532Y005265D01*
X002532Y004517D02*
X002532Y004021D01*
X002882Y004021D01*
X003002Y004141D01*
X003002Y005661D01*
X002922Y005741D01*
X001602Y005741D01*
X001362Y005981D01*
X001362Y006701D01*
X001482Y006821D01*
X001677Y006821D01*
X001701Y006846D01*
X001701Y007043D02*
X001683Y007061D01*
X001362Y007061D01*
X001162Y006861D01*
X001162Y005861D01*
X001522Y005501D01*
X001532Y005265D01*
X002042Y005265D01*
X002482Y006221D02*
X003202Y006221D01*
X003522Y005901D01*
X003682Y005901D01*
X003554Y006189D02*
X003517Y006189D01*
X003536Y006267D02*
X003439Y006267D01*
X003392Y006346D02*
X003360Y006346D01*
X003326Y006425D02*
X002773Y006425D01*
X002773Y006503D02*
X003294Y006503D01*
X003262Y006582D02*
X002773Y006582D01*
X002773Y006660D02*
X003184Y006660D01*
X003242Y006941D02*
X003122Y007061D01*
X002871Y007061D01*
X002863Y007053D01*
X002863Y007249D02*
X002875Y007261D01*
X003122Y007261D01*
X003067Y007446D02*
X002863Y007446D01*
X002882Y007661D02*
X002773Y007661D01*
X002773Y007722D01*
X002773Y007947D01*
X002708Y008011D01*
X002770Y008072D01*
X002812Y008175D01*
X002812Y008351D01*
X002894Y008351D01*
X002987Y008445D01*
X002987Y008487D01*
X003022Y008487D01*
X003022Y007935D01*
X003051Y007906D01*
X002925Y007780D01*
X002882Y007677D01*
X002882Y007661D01*
X002884Y007681D02*
X002773Y007681D01*
X002773Y007722D02*
X002602Y007722D01*
X002773Y007722D01*
X002773Y007760D02*
X002917Y007760D01*
X002984Y007838D02*
X002773Y007838D01*
X002773Y007917D02*
X003040Y007917D01*
X003022Y007995D02*
X002724Y007995D01*
X002770Y008074D02*
X003022Y008074D01*
X003022Y008153D02*
X002803Y008153D01*
X002812Y008231D02*
X003022Y008231D01*
X003022Y008310D02*
X002812Y008310D01*
X002931Y008388D02*
X003022Y008388D01*
X003022Y008467D02*
X002987Y008467D01*
X002987Y009047D02*
X002987Y009089D01*
X002921Y009155D01*
X002967Y009201D01*
X002967Y009475D01*
X002572Y009475D01*
X002572Y009555D01*
X002492Y009555D01*
X002492Y009911D01*
X002202Y009911D01*
X002202Y009944D01*
X002045Y010101D01*
X002644Y010101D01*
X002684Y010141D01*
X002685Y010141D01*
X002725Y010181D01*
X003022Y010181D01*
X003022Y009047D01*
X002987Y009047D01*
X002982Y009095D02*
X003022Y009095D01*
X003022Y009174D02*
X002940Y009174D01*
X002967Y009252D02*
X003022Y009252D01*
X003022Y009331D02*
X002967Y009331D01*
X002967Y009409D02*
X003022Y009409D01*
X003022Y009488D02*
X002572Y009488D01*
X002572Y009555D02*
X002967Y009555D01*
X002967Y009829D01*
X002885Y009911D01*
X002572Y009911D01*
X002572Y009555D01*
X002572Y009566D02*
X002492Y009566D01*
X002492Y009645D02*
X002572Y009645D01*
X002572Y009723D02*
X002492Y009723D01*
X002492Y009802D02*
X002572Y009802D01*
X002572Y009880D02*
X002492Y009880D01*
X002659Y010116D02*
X003022Y010116D01*
X003022Y010038D02*
X002109Y010038D01*
X002187Y009959D02*
X003022Y009959D01*
X003022Y009880D02*
X002916Y009880D01*
X002967Y009802D02*
X003022Y009802D01*
X003022Y009723D02*
X002967Y009723D01*
X002967Y009645D02*
X003022Y009645D01*
X003022Y009566D02*
X002967Y009566D01*
X003682Y009981D02*
X003282Y010381D01*
X002642Y010381D01*
X002602Y010341D01*
X002458Y010341D01*
X002282Y010517D01*
X002737Y010587D02*
X003307Y010587D01*
X003285Y010666D02*
X003155Y010666D01*
X003682Y009981D02*
X003682Y009141D01*
X003122Y007581D02*
X003067Y007446D01*
X002863Y006837D02*
X002863Y006661D01*
X002863Y006837D01*
X002863Y006837D01*
X002863Y006817D02*
X002863Y006817D01*
X002863Y006739D02*
X002863Y006739D01*
X002402Y006301D02*
X002482Y006221D01*
X002402Y006301D02*
X002402Y006539D01*
X002381Y006560D01*
X002002Y006545D02*
X001987Y006560D01*
X001701Y007240D02*
X001141Y007240D01*
X000962Y007061D01*
X000962Y004141D01*
X001082Y004021D01*
X001532Y004021D01*
X001532Y004517D01*
X001532Y004021D02*
X001532Y003515D01*
X001492Y002733D02*
X000722Y002733D01*
X000722Y002654D02*
X001097Y002654D01*
X001097Y002576D02*
X000722Y002576D01*
X000722Y002497D02*
X001097Y002497D01*
X001131Y002419D02*
X000722Y002419D01*
X000722Y002340D02*
X001842Y002340D01*
X001842Y002262D02*
X000722Y002262D01*
X000722Y002183D02*
X001842Y002183D01*
X001916Y002105D02*
X000722Y002105D01*
X000722Y002026D02*
X001994Y002026D01*
X002073Y001948D02*
X000722Y001948D01*
X000722Y001869D02*
X001113Y001869D01*
X000981Y001791D02*
X000722Y001791D01*
X000722Y001712D02*
X000903Y001712D01*
X000864Y001633D02*
X000722Y001633D01*
X000722Y001555D02*
X000831Y001555D01*
X000822Y001476D02*
X000722Y001476D01*
X000722Y001398D02*
X000822Y001398D01*
X000822Y001319D02*
X000722Y001319D01*
X000722Y001241D02*
X000822Y001241D01*
X000822Y001162D02*
X000722Y001162D01*
X000722Y001084D02*
X000822Y001084D01*
X000822Y001005D02*
X000722Y001005D01*
X000722Y000927D02*
X000822Y000927D01*
X000822Y000848D02*
X000722Y000848D01*
X000722Y000769D02*
X000822Y000769D01*
X000846Y000691D02*
X000722Y000691D01*
X000722Y000612D02*
X000879Y000612D01*
X001451Y001869D02*
X002113Y001869D01*
X001981Y001791D02*
X001583Y001791D01*
X001662Y001712D02*
X001903Y001712D01*
X001864Y001633D02*
X001700Y001633D01*
X001733Y001555D02*
X001831Y001555D01*
X001822Y001476D02*
X001742Y001476D01*
X001742Y001398D02*
X001822Y001398D01*
X001822Y001319D02*
X001742Y001319D01*
X001742Y001241D02*
X001822Y001241D01*
X001822Y001162D02*
X001742Y001162D01*
X001742Y001084D02*
X001822Y001084D01*
X001822Y001005D02*
X001742Y001005D01*
X001742Y000927D02*
X001822Y000927D01*
X001822Y000848D02*
X001742Y000848D01*
X001742Y000769D02*
X001822Y000769D01*
X001846Y000691D02*
X001718Y000691D01*
X001685Y000612D02*
X001879Y000612D01*
X002451Y001869D02*
X003113Y001869D01*
X002981Y001791D02*
X002583Y001791D01*
X002662Y001712D02*
X002903Y001712D01*
X002864Y001633D02*
X002700Y001633D01*
X002733Y001555D02*
X002831Y001555D01*
X002822Y001476D02*
X002742Y001476D01*
X002742Y001398D02*
X002822Y001398D01*
X002885Y002371D02*
X002572Y002371D01*
X002572Y002727D01*
X002492Y002727D01*
X002492Y002371D01*
X002242Y002371D01*
X002242Y002344D01*
X002285Y002301D01*
X003327Y002301D01*
X003327Y002839D01*
X003379Y002891D01*
X003327Y002943D01*
X003327Y003581D01*
X003239Y003581D01*
X003122Y003698D01*
X003002Y003818D01*
X003002Y003858D01*
X002984Y003840D01*
X002987Y003837D01*
X002987Y003193D01*
X002921Y003127D01*
X002967Y003081D01*
X002967Y002807D01*
X002572Y002807D01*
X002572Y002727D01*
X002967Y002727D01*
X002967Y002453D01*
X002885Y002371D01*
X002933Y002419D02*
X003327Y002419D01*
X003327Y002497D02*
X002967Y002497D01*
X002967Y002576D02*
X003327Y002576D01*
X003327Y002654D02*
X002967Y002654D01*
X002967Y002812D02*
X003327Y002812D01*
X003327Y002733D02*
X002572Y002733D01*
X002572Y002654D02*
X002492Y002654D01*
X002492Y002576D02*
X002572Y002576D01*
X002572Y002497D02*
X002492Y002497D01*
X002492Y002419D02*
X002572Y002419D01*
X002246Y002340D02*
X003327Y002340D01*
X003451Y001869D02*
X004113Y001869D01*
X004147Y002105D02*
X004567Y002105D01*
X004567Y002058D02*
X004649Y001976D01*
X004845Y001976D01*
X004845Y002233D01*
X004920Y002233D01*
X004920Y001976D01*
X005115Y001976D01*
X005197Y002058D01*
X005197Y002234D01*
X004920Y002234D01*
X004920Y002309D01*
X004845Y002309D01*
X004845Y002566D01*
X004649Y002566D01*
X004567Y002484D01*
X004567Y002309D01*
X004844Y002309D01*
X004844Y002234D01*
X004567Y002234D01*
X004567Y002058D01*
X004599Y002026D02*
X003890Y002026D01*
X003812Y001948D02*
X005366Y001948D01*
X005444Y002026D02*
X005165Y002026D01*
X005197Y002105D02*
X005522Y002105D01*
X005522Y002183D02*
X005197Y002183D01*
X005197Y002309D02*
X005197Y002484D01*
X005115Y002566D01*
X004920Y002566D01*
X004920Y002309D01*
X005197Y002309D01*
X005197Y002340D02*
X005437Y002340D01*
X005358Y002419D02*
X005197Y002419D01*
X005184Y002497D02*
X005347Y002497D01*
X005347Y002576D02*
X004237Y002576D01*
X004237Y002654D02*
X005347Y002654D01*
X005347Y002733D02*
X005140Y002733D01*
X005217Y002812D02*
X005347Y002812D01*
X005365Y002890D02*
X005217Y002890D01*
X005217Y002969D02*
X005842Y002969D01*
X005842Y003047D02*
X005217Y003047D01*
X005217Y003126D02*
X005842Y003126D01*
X005842Y003204D02*
X005217Y003204D01*
X005187Y003283D02*
X005842Y003283D01*
X005842Y003361D02*
X004642Y003361D01*
X004706Y003440D02*
X005842Y003440D01*
X005842Y003518D02*
X004741Y003518D01*
X004757Y003597D02*
X005842Y003597D01*
X005842Y003676D02*
X004757Y003676D01*
X004728Y003754D02*
X005842Y003754D01*
X005842Y003833D02*
X004676Y003833D01*
X004565Y003911D02*
X004889Y003911D01*
X004442Y003181D02*
X004592Y003031D01*
X004882Y003031D01*
X004624Y002733D02*
X004237Y002733D01*
X004237Y002812D02*
X004547Y002812D01*
X004450Y002890D02*
X004187Y002890D01*
X004237Y002969D02*
X004372Y002969D01*
X004293Y003047D02*
X004237Y003047D01*
X004237Y003126D02*
X004242Y003126D01*
X004237Y003204D02*
X004242Y003204D01*
X004237Y003283D02*
X004242Y003283D01*
X004237Y003361D02*
X004242Y003361D01*
X004442Y003181D02*
X004442Y003621D01*
X004581Y002497D02*
X004237Y002497D01*
X004237Y002419D02*
X004567Y002419D01*
X004567Y002340D02*
X004237Y002340D01*
X004237Y002262D02*
X004844Y002262D01*
X004920Y002262D02*
X005522Y002262D01*
X005722Y002021D02*
X005722Y002611D01*
X005682Y002651D01*
X005722Y002021D02*
X005282Y001581D01*
X005282Y001141D01*
X004981Y001791D02*
X004583Y001791D01*
X004662Y001712D02*
X004903Y001712D01*
X004864Y001633D02*
X004700Y001633D01*
X004733Y001555D02*
X004831Y001555D01*
X004822Y001476D02*
X004742Y001476D01*
X004742Y001398D02*
X004822Y001398D01*
X004822Y001319D02*
X004742Y001319D01*
X004742Y001241D02*
X004822Y001241D01*
X004822Y001162D02*
X004742Y001162D01*
X004742Y001084D02*
X004822Y001084D01*
X004822Y001005D02*
X004742Y001005D01*
X004742Y000927D02*
X004822Y000927D01*
X004822Y000848D02*
X004742Y000848D01*
X004742Y000769D02*
X004822Y000769D01*
X004846Y000691D02*
X004718Y000691D01*
X004685Y000612D02*
X004879Y000612D01*
X005113Y001869D02*
X004451Y001869D01*
X004567Y002183D02*
X004226Y002183D01*
X003981Y001791D02*
X003583Y001791D01*
X003662Y001712D02*
X003903Y001712D01*
X003864Y001633D02*
X003700Y001633D01*
X003733Y001555D02*
X003831Y001555D01*
X003822Y001476D02*
X003742Y001476D01*
X003742Y001398D02*
X003822Y001398D01*
X003822Y001319D02*
X003742Y001319D01*
X003742Y001241D02*
X003822Y001241D01*
X003822Y001162D02*
X003742Y001162D01*
X003742Y001084D02*
X003822Y001084D01*
X003822Y001005D02*
X003742Y001005D01*
X003742Y000927D02*
X003822Y000927D01*
X003822Y000848D02*
X003742Y000848D01*
X003742Y000769D02*
X003822Y000769D01*
X003846Y000691D02*
X003718Y000691D01*
X003685Y000612D02*
X003879Y000612D01*
X004845Y002026D02*
X004920Y002026D01*
X004920Y002105D02*
X004845Y002105D01*
X004845Y002183D02*
X004920Y002183D01*
X004920Y002340D02*
X004845Y002340D01*
X004845Y002419D02*
X004920Y002419D01*
X004920Y002497D02*
X004845Y002497D01*
X005675Y003911D02*
X005842Y003911D01*
X005842Y003990D02*
X005717Y003990D01*
X005717Y004068D02*
X005842Y004068D01*
X005842Y004147D02*
X005717Y004147D01*
X005717Y004225D02*
X005842Y004225D01*
X003327Y003518D02*
X002987Y003518D01*
X002987Y003440D02*
X003327Y003440D01*
X003327Y003361D02*
X002987Y003361D01*
X002987Y003283D02*
X003327Y003283D01*
X003327Y003204D02*
X002987Y003204D01*
X002923Y003126D02*
X003327Y003126D01*
X003327Y003047D02*
X002967Y003047D01*
X002967Y002969D02*
X003327Y002969D01*
X003378Y002890D02*
X002967Y002890D01*
X002987Y003597D02*
X003223Y003597D01*
X003145Y003676D02*
X002987Y003676D01*
X002987Y003754D02*
X003066Y003754D01*
X003002Y003833D02*
X002987Y003833D01*
X002532Y004021D02*
X002532Y003515D01*
X001572Y002654D02*
X001492Y002654D01*
X001492Y002576D02*
X001572Y002576D01*
X001572Y002497D02*
X001492Y002497D01*
X001492Y002419D02*
X001572Y002419D01*
X001142Y003126D02*
X000722Y003126D01*
X000722Y003204D02*
X001077Y003204D01*
X001077Y003283D02*
X000722Y003283D01*
X000722Y003361D02*
X001077Y003361D01*
X001077Y003440D02*
X000722Y003440D01*
X000722Y003518D02*
X001077Y003518D01*
X001077Y003597D02*
X000722Y003597D01*
X000722Y003676D02*
X001077Y003676D01*
X001077Y003754D02*
X000722Y003754D01*
X000722Y003833D02*
X000988Y003833D01*
X000909Y003911D02*
X000722Y003911D01*
X000722Y003990D02*
X000831Y003990D01*
X000762Y004068D02*
X000722Y004068D01*
X000722Y004147D02*
X000762Y004147D01*
X000762Y004225D02*
X000722Y004225D01*
X000722Y004304D02*
X000762Y004304D01*
X000762Y004382D02*
X000722Y004382D01*
X000722Y004461D02*
X000762Y004461D01*
X000762Y004540D02*
X000722Y004540D01*
X000722Y004618D02*
X000762Y004618D01*
X000762Y004697D02*
X000722Y004697D01*
X000722Y004775D02*
X000762Y004775D01*
X000762Y004854D02*
X000722Y004854D01*
X000722Y004932D02*
X000762Y004932D01*
X000762Y005011D02*
X000722Y005011D01*
X000722Y005089D02*
X000762Y005089D01*
X000762Y005168D02*
X000722Y005168D01*
X000722Y005246D02*
X000762Y005246D01*
X000762Y005325D02*
X000722Y005325D01*
X000722Y005404D02*
X000762Y005404D01*
X000762Y005482D02*
X000722Y005482D01*
X000722Y005561D02*
X000762Y005561D01*
X000762Y005639D02*
X000722Y005639D01*
X000722Y005718D02*
X000762Y005718D01*
X000762Y005796D02*
X000722Y005796D01*
X000722Y005875D02*
X000762Y005875D01*
X000762Y005953D02*
X000722Y005953D01*
X000722Y006032D02*
X000762Y006032D01*
X000762Y006110D02*
X000722Y006110D01*
X000722Y006189D02*
X000762Y006189D01*
X000762Y006267D02*
X000722Y006267D01*
X000722Y006346D02*
X000762Y006346D01*
X000762Y006425D02*
X000722Y006425D01*
X000722Y006503D02*
X000762Y006503D01*
X000762Y006582D02*
X000722Y006582D01*
X000722Y006660D02*
X000762Y006660D01*
X000762Y006739D02*
X000722Y006739D01*
X000722Y006817D02*
X000762Y006817D01*
X000762Y006896D02*
X000722Y006896D01*
X000722Y006974D02*
X000762Y006974D01*
X000762Y007053D02*
X000722Y007053D01*
X000722Y007131D02*
X000762Y007131D01*
X000722Y007210D02*
X000828Y007210D01*
X000907Y007289D02*
X000722Y007289D01*
X000722Y007367D02*
X000985Y007367D01*
X000722Y007446D02*
X001394Y007446D01*
X001394Y007524D02*
X000722Y007524D01*
X000722Y007603D02*
X001447Y007603D01*
X001701Y007603D02*
X001702Y007603D01*
X001701Y007524D02*
X001702Y007524D01*
X001962Y007901D02*
X001882Y007981D01*
X001962Y007901D02*
X001962Y007747D01*
X001987Y007722D01*
X002184Y007722D02*
X002202Y007740D01*
X002202Y008061D01*
X002002Y008261D01*
X002402Y007981D02*
X002402Y007743D01*
X002381Y007722D01*
X002602Y007722D02*
X002602Y007722D01*
X001097Y003047D02*
X000722Y003047D01*
X000722Y002969D02*
X001097Y002969D01*
X001097Y002890D02*
X000722Y002890D01*
X000722Y002812D02*
X001097Y002812D01*
X000842Y013258D02*
X000722Y013258D01*
X000722Y013336D02*
X000842Y013336D01*
X000842Y013415D02*
X000722Y013415D01*
X000722Y013493D02*
X000842Y013493D01*
X000860Y013572D02*
X000722Y013572D01*
X000722Y013651D02*
X000893Y013651D01*
X002672Y013651D02*
X002871Y013651D01*
X002839Y013572D02*
X002704Y013572D01*
X002722Y013493D02*
X002822Y013493D01*
X002822Y013415D02*
X002722Y013415D01*
X002722Y013336D02*
X002822Y013336D01*
X002822Y013258D02*
X002722Y013258D01*
D21*
X002842Y010061D03*
X002922Y008021D03*
X002442Y007301D03*
X002442Y006981D03*
X002122Y006981D03*
X002122Y007301D03*
X001482Y007901D03*
X001252Y010021D03*
X003122Y006541D03*
X003602Y006581D03*
X003682Y005901D03*
X004692Y007631D03*
X004922Y006301D03*
X005722Y007621D03*
X005322Y003621D03*
X004442Y003621D03*
X004442Y002621D03*
X003122Y002501D03*
X001282Y002141D03*
D22*
X003322Y006861D02*
X003242Y006941D01*
X003162Y007261D02*
X003122Y007261D01*
X003122Y007581D02*
X003162Y007621D01*
X002402Y007981D02*
X002402Y008101D01*
X001882Y007981D02*
X001522Y008341D01*
X001402Y008341D01*
X001282Y008461D01*
X001282Y008541D01*
X001282Y008767D01*
D23*
X002402Y008101D02*
X002532Y008231D01*
X003162Y007261D02*
X003242Y007261D01*
X003362Y007141D01*
X003908Y007141D01*
X003922Y007127D01*
X003922Y006821D01*
X004082Y006661D01*
X005082Y006661D01*
X005466Y006277D01*
X005692Y006277D01*
X005692Y005877D02*
X005676Y005861D01*
X005442Y005861D01*
X005002Y006301D01*
X004922Y006301D01*
X005692Y006677D02*
X005722Y006707D01*
X005722Y007621D01*
X003682Y009141D02*
X003642Y009351D01*
X003642Y009181D01*
X003642Y009821D01*
X003642Y009181D02*
X003642Y008661D01*
X003536Y008767D01*
X003322Y006861D02*
X003602Y006581D01*
X003522Y010861D02*
X003522Y011981D01*
X003282Y001141D02*
X002282Y001141D01*
D24*
X003162Y007621D02*
X003242Y007701D01*
X004162Y007701D01*
X004242Y007781D01*
X004282Y007781D01*
X004402Y007901D01*
X004402Y008101D01*
X004482Y008181D01*
X005082Y008181D01*
X005322Y008421D01*
X005322Y008941D01*
X005382Y009001D01*
X005382Y009141D01*
X004162Y012381D02*
X003642Y012141D01*
X003522Y011981D01*
X003522Y010861D02*
X003642Y010421D01*
X003682Y010341D01*
X003682Y009141D01*
X003536Y008767D02*
X002532Y008767D01*
X002532Y008231D01*
X004162Y012381D02*
X004162Y012941D01*
X004282Y013141D01*
M02*
