G75*
%MOIN*%
%OFA0B0*%
%FSLAX24Y24*%
%IPPOS*%
%LPD*%
%AMOC8*
5,1,8,0,0,1.08239X$1,22.5*
%
%ADD10C,0.0600*%
%ADD11R,0.0098X0.0197*%
%ADD12R,0.0790X0.0310*%
%ADD13R,0.0394X0.0217*%
%ADD14R,0.0451X0.0217*%
%ADD15R,0.0217X0.0451*%
%ADD16R,0.0236X0.0394*%
%ADD17R,0.0394X0.0433*%
%ADD18R,0.0433X0.0394*%
%ADD19C,0.0100*%
%ADD20C,0.0075*%
%ADD21C,0.0350*%
%ADD22C,0.0250*%
D10*
X001719Y001050D02*
X001719Y001650D01*
X002719Y001650D02*
X002719Y001050D01*
X003719Y001050D02*
X003719Y001650D01*
X004719Y001650D02*
X004719Y001050D01*
X005719Y001050D02*
X005719Y001650D01*
X006719Y001650D02*
X006719Y001050D01*
X007719Y001050D02*
X007719Y001650D01*
X008719Y001650D02*
X008719Y001050D01*
X008719Y004050D02*
X008719Y004650D01*
X007719Y004650D02*
X007719Y004050D01*
X006719Y004050D02*
X006719Y004650D01*
X005719Y004650D02*
X005719Y004050D01*
X004719Y004050D02*
X004719Y004650D01*
X003719Y004650D02*
X003719Y004050D01*
X002719Y004050D02*
X002719Y004650D01*
X001719Y004650D02*
X001719Y004050D01*
X001719Y020050D02*
X001719Y020650D01*
X002719Y020650D02*
X002719Y020050D01*
X003719Y020050D02*
X003719Y020650D01*
X004719Y020650D02*
X004719Y020050D01*
X005719Y020050D02*
X005719Y020650D01*
X006719Y020650D02*
X006719Y020050D01*
X007719Y020050D02*
X007719Y020650D01*
X008719Y020650D02*
X008719Y020050D01*
D11*
X008773Y018108D03*
X008970Y018108D03*
X009167Y018108D03*
X009167Y017517D03*
X008970Y017517D03*
X008773Y017517D03*
X008773Y008358D03*
X008970Y008358D03*
X009167Y008358D03*
X009167Y007767D03*
X008970Y007767D03*
X008773Y007767D03*
D12*
X008099Y011780D03*
X008099Y012280D03*
X008099Y012800D03*
X008099Y013310D03*
X006539Y013310D03*
X006539Y012800D03*
X006539Y012280D03*
X006539Y011790D03*
D13*
X003652Y008688D03*
X003652Y008196D03*
X003652Y007704D03*
X003652Y007212D03*
X002786Y007212D03*
X002786Y007704D03*
X002786Y008196D03*
X002786Y008688D03*
D14*
X003136Y011713D03*
X003136Y012028D03*
X003136Y012343D03*
X003136Y012657D03*
X003136Y012972D03*
X003136Y013287D03*
X004002Y013287D03*
X004002Y012972D03*
X004002Y012657D03*
X004002Y012343D03*
X004002Y012028D03*
X004002Y011713D03*
D15*
X003569Y011673D03*
X003569Y013327D03*
D16*
X006845Y017328D03*
X007219Y017328D03*
X007593Y017328D03*
X007593Y018272D03*
X007219Y018272D03*
X006845Y018272D03*
X006845Y008522D03*
X007219Y008522D03*
X007593Y008522D03*
X007593Y007578D03*
X007219Y007578D03*
X006845Y007578D03*
D17*
X008219Y007665D03*
X008219Y008335D03*
X005519Y011715D03*
X005519Y012385D03*
X005519Y013015D03*
X005519Y013685D03*
X008219Y017415D03*
X008219Y018085D03*
X002119Y012785D03*
X002119Y012115D03*
X001869Y008685D03*
X001869Y008015D03*
X001869Y007435D03*
X001869Y006765D03*
X003784Y002950D03*
X004453Y002950D03*
X005534Y002950D03*
X006203Y002950D03*
D18*
X002653Y015750D03*
X001984Y015750D03*
D19*
X002322Y017303D03*
X002519Y017303D03*
X002322Y017500D03*
X002322Y017697D03*
X002519Y017697D03*
X002715Y017697D03*
X002715Y017500D03*
X002715Y017303D03*
D20*
X002557Y017462D02*
X002481Y017462D01*
X002481Y017538D01*
X002557Y017538D01*
X002557Y017462D01*
X002557Y017536D02*
X002481Y017536D01*
D21*
X002519Y018100D03*
X001919Y018100D03*
X001919Y017500D03*
X001919Y016900D03*
X002519Y016900D03*
X003119Y016900D03*
X003119Y017500D03*
X003119Y018100D03*
D22*
X003128Y018106D03*
X003125Y017503D03*
X003134Y016901D03*
X002519Y016899D03*
X001916Y016893D03*
X001918Y017495D03*
X001919Y018103D03*
X002523Y018102D03*
M02*
