G75*
%MOIN*%
%OFA0B0*%
%FSLAX24Y24*%
%IPPOS*%
%LPD*%
%AMOC8*
5,1,8,0,0,1.08239X$1,22.5*
%
%ADD10C,0.0600*%
%ADD11C,0.0350*%
%ADD12C,0.0310*%
%ADD13C,0.0120*%
%ADD14C,0.0080*%
D10*
X001719Y001050D02*
X001719Y001650D01*
X002719Y001650D02*
X002719Y001050D01*
X003719Y001050D02*
X003719Y001650D01*
X004719Y001650D02*
X004719Y001050D01*
X005719Y001050D02*
X005719Y001650D01*
X006719Y001650D02*
X006719Y001050D01*
X007719Y001050D02*
X007719Y001650D01*
X008719Y001650D02*
X008719Y001050D01*
X008719Y004050D02*
X008719Y004650D01*
X007719Y004650D02*
X007719Y004050D01*
X006719Y004050D02*
X006719Y004650D01*
X005719Y004650D02*
X005719Y004050D01*
X004719Y004050D02*
X004719Y004650D01*
X003719Y004650D02*
X003719Y004050D01*
X002719Y004050D02*
X002719Y004650D01*
X001719Y004650D02*
X001719Y004050D01*
X001719Y020050D02*
X001719Y020650D01*
X002719Y020650D02*
X002719Y020050D01*
X003719Y020050D02*
X003719Y020650D01*
X004719Y020650D02*
X004719Y020050D01*
X005719Y020050D02*
X005719Y020650D01*
X006719Y020650D02*
X006719Y020050D01*
X007719Y020050D02*
X007719Y020650D01*
X008719Y020650D02*
X008719Y020050D01*
D11*
X003119Y018100D03*
X003119Y017500D03*
X003119Y016900D03*
X002519Y016900D03*
X001919Y016900D03*
X001919Y017500D03*
X001919Y018100D03*
X002519Y018100D03*
D12*
X002249Y015180D03*
X002369Y014460D03*
X001489Y014540D03*
X002573Y012785D03*
X003769Y013900D03*
X003529Y014700D03*
X005009Y013620D03*
X004889Y012460D03*
X004569Y011420D03*
X006089Y011260D03*
X006769Y009060D03*
X006849Y006980D03*
X007809Y006900D03*
X008769Y007380D03*
X009089Y006900D03*
X008649Y008780D03*
X008809Y010100D03*
X008809Y012260D03*
X009009Y012980D03*
X008049Y014020D03*
X007969Y015620D03*
X007209Y015620D03*
X007529Y016540D03*
X008209Y016900D03*
X008769Y017020D03*
X008769Y016140D03*
X008649Y018500D03*
X008649Y019140D03*
X007569Y018780D03*
X006329Y016540D03*
X004169Y008700D03*
X004849Y007980D03*
X004249Y007660D03*
X004409Y006900D03*
X002369Y007700D03*
X002209Y002180D03*
D13*
X002209Y005380D01*
X002329Y005500D01*
X002329Y007660D01*
X002369Y007700D01*
X002369Y009860D01*
X002569Y010060D01*
X002569Y012780D01*
X002573Y012785D01*
X002573Y012865D01*
X002649Y012940D01*
X002649Y013820D01*
X003449Y014620D01*
X003529Y014620D01*
X003529Y014700D01*
X003529Y014620D02*
X004369Y014620D01*
X004709Y014280D01*
X006049Y015620D01*
X007209Y015620D01*
X007969Y015620D02*
X008209Y015860D01*
X008209Y016900D01*
X007569Y018780D02*
X003969Y015180D01*
X002249Y015180D01*
X004709Y014280D02*
X005009Y013980D01*
X005009Y013620D01*
D14*
X004409Y013260D02*
X004409Y012260D01*
X004969Y011700D01*
X004969Y011300D01*
X004169Y010500D01*
X004169Y008700D01*
X004849Y008020D01*
X004849Y007980D01*
X004249Y007660D02*
X004249Y007060D01*
X004409Y006900D01*
X004249Y007660D02*
X004209Y007660D01*
X003609Y008260D01*
X003609Y010740D01*
X004289Y011420D01*
X004569Y011420D01*
X004569Y011780D01*
X004209Y012140D01*
X004209Y012860D01*
X003369Y013700D01*
X003369Y014100D01*
X003569Y014300D01*
X003969Y014300D01*
X004169Y014100D01*
X004169Y013940D01*
X005809Y012300D01*
X008769Y012300D01*
X008809Y012260D01*
X008729Y012260D01*
X007529Y013460D01*
X007529Y016540D01*
X006329Y016540D01*
X008049Y014020D02*
X009169Y015140D01*
X009169Y018340D01*
X009009Y018500D01*
X008649Y018500D01*
X008649Y019140D01*
X008769Y017020D02*
X008769Y016140D01*
X008049Y014020D02*
X009009Y013060D01*
X009009Y012980D01*
X009009Y012740D01*
X009169Y012580D01*
X009169Y011340D01*
X008409Y010580D01*
X008409Y009100D01*
X008369Y009060D01*
X006769Y009060D01*
X006729Y009060D01*
X006209Y008540D01*
X006209Y003580D01*
X006689Y003100D01*
X006689Y001380D01*
X006719Y001350D01*
X007729Y002380D02*
X007209Y002900D01*
X007209Y005460D01*
X006849Y005820D01*
X006849Y006980D01*
X007209Y006980D01*
X007489Y007260D01*
X008569Y007260D01*
X008769Y007380D01*
X009089Y006900D02*
X009089Y009820D01*
X008809Y010100D01*
X008369Y009060D02*
X008649Y008780D01*
X009089Y006900D02*
X007809Y006900D01*
X006089Y011260D02*
X004889Y012460D01*
X004409Y013260D02*
X003769Y013900D01*
X002369Y014460D02*
X001569Y014460D01*
X001489Y014540D01*
X007729Y002380D02*
X007729Y001360D01*
X007719Y001350D01*
M02*
