%
M48
M72
T01C0.0150
T02C0.0400
%
T01
X2209Y2180
X4409Y6900
X4249Y7660
X4849Y7980
X4169Y8700
X4569Y11420
X4889Y12460
X5009Y13620
X3769Y13900
X3529Y14700
X2369Y14460
X2249Y15180
X1489Y14540
X2573Y12785
X2519Y16900
X1919Y16900
X1919Y17500
X1919Y18100
X2519Y18100
X3119Y18100
X3119Y17500
X3119Y16900
X6329Y16540
X7209Y15620
X7969Y15620
X7529Y16540
X8209Y16900
X8769Y17020
X8769Y16140
X8049Y14020
X9009Y12980
X8809Y12260
X8809Y10100
X8649Y8780
X8769Y7380
X9089Y6900
X7809Y6900
X6849Y6980
X6769Y9060
X6089Y11260
X2369Y7700
X8649Y18500
X8649Y19140
X7569Y18780
T02
X1719Y1350
X2719Y1350
X3719Y1350
X4719Y1350
X5719Y1350
X6719Y1350
X7719Y1350
X8719Y1350
X8719Y4350
X7719Y4350
X6719Y4350
X5719Y4350
X4719Y4350
X3719Y4350
X2719Y4350
X1719Y4350
X1719Y20350
X2719Y20350
X3719Y20350
X4719Y20350
X5719Y20350
X6719Y20350
X7719Y20350
X8719Y20350
M30
